<svg width="95" height="95" viewBox="0 0 95 95" fill="none" xmlns="http://www.w3.org/2000/svg">
<g clip-path="url(#clip0_6_19)">
<path d="M85 0H10C4.47715 0 0 4.47715 0 10V85C0 90.5229 4.47715 95 10 95H85C90.5229 95 95 90.5229 95 85V10C95 4.47715 90.5229 0 85 0Z" fill="white"/>
<path d="M40.4584 59.368C39.0477 59.368 37.8441 59.046 36.8474 58.402C35.8661 57.758 35.1147 56.884 34.5934 55.78C34.0874 54.6607 33.8344 53.4187 33.8344 52.054V32.136C33.8344 30.756 34.0951 29.514 34.6164 28.41C35.1531 27.306 35.9197 26.432 36.9164 25.788C37.9131 25.144 39.0937 24.822 40.4584 24.822C41.8384 24.822 43.0191 25.1517 44.0004 25.811C44.9971 26.455 45.7561 27.329 46.2774 28.433C46.8141 29.537 47.0824 30.7713 47.0824 32.136V52.054C47.0824 53.4187 46.8141 54.6607 46.2774 55.78C45.7407 56.884 44.9741 57.758 43.9774 58.402C42.9961 59.046 41.8231 59.368 40.4584 59.368ZM40.4584 54.538C41.0411 54.538 41.4627 54.2927 41.7234 53.802C41.9841 53.296 42.1144 52.7133 42.1144 52.054V32.136C42.1144 31.4613 41.9841 30.8787 41.7234 30.388C41.4627 29.8973 41.0411 29.652 40.4584 29.652C39.8757 29.652 39.4541 29.9127 39.1934 30.434C38.9327 30.94 38.8024 31.5073 38.8024 32.136V52.054C38.8024 52.7133 38.9327 53.296 39.1934 53.802C39.4541 54.2927 39.8757 54.538 40.4584 54.538ZM51.7751 59L56.8351 30.112H49.3831V25.19H61.8951V30.158L56.9271 59H51.7751ZM24.4884 79.25L20.0584 70.8H22.1184L25.3484 77.26L28.5684 70.8H30.6284L26.2084 79.25V84H24.4884V79.25ZM32.233 70.8H40.033V72.35H33.923V76.63H39.913V78.14H33.923V82.45H40.033V84H32.233V70.8ZM46.3012 70.8H48.0812L52.9612 84H51.1312L49.9912 80.82H44.3912L43.2312 84H41.4012L46.3012 70.8ZM44.9412 79.28H49.4512L47.2112 72.9H47.1812L44.9412 79.28ZM54.3715 70.8H58.9815C59.6948 70.8 60.3415 70.95 60.9215 71.25C61.5082 71.5433 61.9748 71.9767 62.3215 72.55C62.6748 73.1167 62.8515 73.81 62.8515 74.63C62.8515 75.4433 62.6882 76.1167 62.3615 76.65C62.0415 77.1833 61.6548 77.5867 61.2015 77.86C60.7482 78.1267 60.3282 78.2733 59.9415 78.3L63.2115 84H61.2715L58.2115 78.42H56.0815V84H54.3715V70.8ZM56.0815 77.15H58.3815C59.1682 77.15 59.8182 76.9533 60.3315 76.56C60.8448 76.1667 61.1015 75.5367 61.1015 74.67C61.1015 73.8033 60.8448 73.18 60.3315 72.8C59.8248 72.42 59.1782 72.23 58.3915 72.23H56.0815V77.15ZM69.5752 70.56C70.3352 70.56 70.9886 70.6467 71.5352 70.82C72.0886 70.9933 72.5219 71.1767 72.8352 71.37C73.1552 71.5633 73.3452 71.69 73.4052 71.75L72.5252 73.16C72.4252 73.0733 72.2486 72.95 71.9952 72.79C71.7419 72.6233 71.4252 72.4767 71.0452 72.35C70.6652 72.2167 70.2319 72.15 69.7452 72.15C68.9919 72.15 68.3952 72.3033 67.9552 72.61C67.5219 72.91 67.3052 73.3367 67.3052 73.89C67.3052 74.2633 67.4186 74.5933 67.6452 74.88C67.8786 75.16 68.2052 75.4167 68.6252 75.65C69.0452 75.8833 69.5352 76.1233 70.0952 76.37C70.5552 76.5633 71.0052 76.7833 71.4452 77.03C71.8919 77.2767 72.2952 77.5667 72.6552 77.9C73.0219 78.2333 73.3119 78.62 73.5252 79.06C73.7452 79.5 73.8552 80.0067 73.8552 80.58C73.8552 81.1467 73.7386 81.6567 73.5052 82.11C73.2786 82.5633 72.9552 82.95 72.5352 83.27C72.1219 83.5833 71.6386 83.8233 71.0852 83.99C70.5319 84.1567 69.9352 84.24 69.2952 84.24C68.4886 84.24 67.7586 84.14 67.1052 83.94C66.4586 83.74 65.9352 83.53 65.5352 83.31C65.1419 83.09 64.9152 82.9533 64.8552 82.9L65.7852 81.43C65.8652 81.4967 66.0119 81.5967 66.2252 81.73C66.4386 81.8567 66.7019 81.99 67.0152 82.13C67.3286 82.27 67.6819 82.39 68.0752 82.49C68.4686 82.5833 68.8886 82.63 69.3352 82.63C70.2286 82.63 70.9052 82.43 71.3652 82.03C71.8252 81.63 72.0552 81.1167 72.0552 80.49C72.0552 80.01 71.9086 79.5967 71.6152 79.25C71.3219 78.9033 70.9319 78.5933 70.4452 78.32C69.9586 78.0467 69.4219 77.7833 68.8352 77.53C68.2352 77.2567 67.6852 76.9567 67.1852 76.63C66.6852 76.3033 66.2819 75.9133 65.9752 75.46C65.6752 75 65.5252 74.4467 65.5252 73.8C65.5252 73.16 65.7052 72.5967 66.0652 72.11C66.4319 71.6233 66.9219 71.2433 67.5352 70.97C68.1552 70.6967 68.8352 70.56 69.5752 70.56Z" fill="#0755E9"/>
</g>
<defs>
<clipPath id="clip0_6_19">
<rect width="95" height="95" fill="white"/>
</clipPath>
</defs>
</svg>
