<svg width="42" height="30" viewBox="0 0 42 30" fill="none" xmlns="http://www.w3.org/2000/svg">
<path d="M1 10L4 9L6 7C6.5 6.5 11 6.5 12.5 6.5C14 6.5 20 6 20.5 6C21 6 32.5 6 33.5 6.5C34.5 7 36.5 8.5 37 9C37.4 9.4 39.1667 9.5 40 9.5C40.1667 12.6667 40.5 19.1 40.5 19.5C40.5 19.9 38.5 20.3333 37.5 20.5L33.5 22.5L27.5 23C25.6667 22.5 21.9 21.5 21.5 21.5C21.1 21.5 19.3333 22.5 18.5 23H8.5L5.5 20.5L1.5 20L1 10Z" fill="url(#paint0_linear)"/>
<path d="M40.3238 7.78095H37.1396C36.7798 6.95513 36.187 6.25219 35.4337 5.75823C34.6805 5.26428 33.7995 5.00078 32.8987 5H8.81562C7.92671 5.01416 7.06067 5.28393 6.32097 5.77707C5.58126 6.27021 4.99915 6.96587 4.64419 7.78095H1.39048C1.0217 7.78095 0.668026 7.92745 0.407261 8.18821C0.146496 8.44898 0 8.80265 0 9.17143V20.2952C0 20.664 0.146496 21.0177 0.407261 21.2785C0.668026 21.5392 1.0217 21.6857 1.39048 21.6857H4.57467C4.93444 22.5115 5.52728 23.2145 6.28056 23.7084C7.03383 24.2024 7.91483 24.4659 8.81562 24.4667H16.6857C16.9034 24.4654 17.1177 24.413 17.3114 24.3137L19.8004 23.0762H21.9139L24.4029 24.3137C24.5966 24.413 24.8109 24.4654 25.0286 24.4667H32.8987C33.7995 24.4659 34.6805 24.2024 35.4337 23.7084C36.187 23.2145 36.7798 22.5115 37.1396 21.6857H40.3238C40.6926 21.6857 41.0463 21.5392 41.307 21.2785C41.5678 21.0177 41.7143 20.664 41.7143 20.2952V9.17143C41.7143 8.80265 41.5678 8.44898 41.307 8.18821C41.0463 7.92745 40.6926 7.78095 40.3238 7.78095ZM2.78095 10.5619H4.17143V18.9048H2.78095V10.5619ZM32.8987 21.6857H25.3623L22.8733 20.4482C22.6796 20.3489 22.4653 20.2965 22.2476 20.2952H19.4667C19.249 20.2965 19.0347 20.3489 18.841 20.4482L16.352 21.6857H8.81562C8.32146 21.6857 7.84754 21.4894 7.49811 21.14C7.14869 20.7906 6.95238 20.3166 6.95238 19.8225V9.64419C6.95238 9.15003 7.14869 8.67611 7.49811 8.32668C7.84754 7.97726 8.32146 7.78095 8.81562 7.78095H32.8987C33.3928 7.78095 33.8668 7.97726 34.2162 8.32668C34.5656 8.67611 34.7619 9.15003 34.7619 9.64419V19.8225C34.7619 20.3166 34.5656 20.7906 34.2162 21.14C33.8668 21.4894 33.3928 21.6857 32.8987 21.6857ZM38.9333 18.9048H37.5429V10.5619H38.9333V18.9048Z" fill="url(#paint1_linear)"/>
<path d="M25.0283 9.17139H16.6854C16.3166 9.17139 15.9629 9.31788 15.7022 9.57865C15.4414 9.83941 15.2949 10.1931 15.2949 10.5619C15.2949 10.9306 15.4414 11.2843 15.7022 11.5451C15.9629 11.8058 16.3166 11.9523 16.6854 11.9523H25.0283C25.397 11.9523 25.7507 11.8058 26.0115 11.5451C26.2722 11.2843 26.4187 10.9306 26.4187 10.5619C26.4187 10.1931 26.2722 9.83941 26.0115 9.57865C25.7507 9.31788 25.397 9.17139 25.0283 9.17139Z" fill="url(#paint2_linear)"/>
<defs>
<linearGradient id="paint0_linear" x1="27.414" y1="-1.94282" x2="27.414" y2="28.9207" gradientUnits="userSpaceOnUse">
<stop stop-color="#C7DAFD"/>
<stop offset="1" stop-color="#E9F1FF"/>
</linearGradient>
<linearGradient id="paint1_linear" x1="0" y1="5" x2="9.02621" y2="33.6195" gradientUnits="userSpaceOnUse">
<stop stop-color="#2569E6"/>
<stop offset="1" stop-color="#3649EF"/>
</linearGradient>
<linearGradient id="paint2_linear" x1="15.2949" y1="9.17139" x2="16.0333" y2="13.5418" gradientUnits="userSpaceOnUse">
<stop stop-color="#2569E6"/>
<stop offset="1" stop-color="#3649EF"/>
</linearGradient>
</defs>
</svg>
