<svg width="95" height="95" viewBox="0 0 95 95" fill="none" xmlns="http://www.w3.org/2000/svg">
<rect width="95" height="95" rx="10" fill="white"/>
<path d="M52.8438 70.7344C52.1753 70.7344 51.6328 71.2769 51.6328 71.9453C51.6328 72.6137 52.1753 73.1562 52.8438 73.1562C53.5122 73.1562 54.0547 72.6137 54.0547 71.9453C54.0547 71.2769 53.5122 70.7344 52.8438 70.7344Z" fill="#2569E6"/>
<path d="M69.7969 21.5703H66.1641V19.6328C66.1641 17.6297 64.5344 16 62.5312 16H33.4688C31.4656 16 29.8359 17.6297 29.8359 19.6328V21.5703H26.2031C24.2 21.5703 22.5703 23.2 22.5703 25.2031C22.5703 33.0811 26.2566 38.8706 32.237 40.4825C34.2871 44.9951 37.5285 48.8312 41.6428 51.6031C42.5905 52.2417 43.1562 53.3348 43.1562 54.5272V61.1993C42.3262 61.4122 41.5646 61.8438 40.9425 62.466C40.0274 63.3812 39.5234 64.5973 39.5234 65.8906H38.3125C36.3094 65.8906 34.6797 67.5203 34.6797 69.5234V76.7891C34.6797 77.4579 35.2219 78 35.8906 78H60.1094C60.7781 78 61.3203 77.4579 61.3203 76.7891V69.5234C61.3203 67.5203 59.6906 65.8906 57.6875 65.8906H56.4766C56.4766 63.6378 54.9306 61.7392 52.8438 61.2002V54.5332C52.8438 53.337 53.4099 52.2418 54.3584 51.6033C58.473 48.8311 61.7145 44.9948 63.7645 40.4821C69.744 38.8696 73.4297 33.0805 73.4297 25.2031C73.4297 23.2 71.8 21.5703 69.7969 21.5703ZM24.9922 25.2031C24.9922 24.5354 25.5354 23.9922 26.2031 23.9922H29.8359V29.4051C29.8359 32.1654 30.2541 34.8685 31.0796 37.4716C27.226 35.5628 24.9922 31.1544 24.9922 25.2031ZM57.6875 68.3125C58.3552 68.3125 58.8984 68.8557 58.8984 69.5234V75.5781H37.1016V69.5234C37.1016 68.8557 37.6448 68.3125 38.3125 68.3125H57.6875ZM63.7422 29.4051C63.7422 32.7129 63.0837 35.9315 61.7846 38.9715C59.9367 43.2966 56.9009 46.97 53.0055 49.5944C51.3877 50.6834 50.4219 52.5297 50.4219 54.5332V62.2578C50.4219 62.9266 50.9641 63.4688 51.6328 63.4688C52.9682 63.4688 54.0547 64.5552 54.0547 65.8906H41.9453C41.9453 65.2442 42.1974 64.6362 42.655 64.1785C43.0903 63.7433 43.6615 63.4941 44.2723 63.4706C44.3036 63.473 44.3352 63.4742 44.3671 63.4742C45.0357 63.4742 45.578 62.9266 45.578 62.2578V54.5272C45.578 52.5279 44.6128 50.684 42.996 49.5947C39.1003 46.9701 36.0645 43.2967 34.2164 38.9712C32.9168 35.9324 32.2578 32.7138 32.2578 29.4051V19.6328C32.2578 18.9651 32.801 18.4219 33.4688 18.4219H62.5312C63.199 18.4219 63.7422 18.9651 63.7422 19.6328V29.4051ZM64.9209 37.4714C65.746 34.8676 66.1641 32.1647 66.1641 29.4051V23.9922H69.7969C70.4646 23.9922 71.0078 24.5354 71.0078 25.2031C71.0078 31.154 68.7742 35.5623 64.9209 37.4714Z" fill="#2569E6"/>
<path d="M31 17.5V20.5V33L33 39L35.5 44L39 48L44 53L44.5 59.5V61L43.5 62.5L41.5 64L41 65L40.5 67H50H53H55.5V66L55 64.5L54 63.5L51.5 62V58.5L51 56.5L52 53.5L54.5 49.5L59 46L61.5 42L64 34L65 27.5V19L63 17.5H55L37.5 17L31 17.5Z" fill="#2569E6"/>
<path d="M57.5822 30.3088C57.4399 29.8704 57.0609 29.5508 56.6046 29.4847L51.3787 28.7261L49.0412 23.9896C48.8372 23.5761 48.4163 23.3145 47.9553 23.3145C47.4943 23.3145 47.0734 23.5761 46.8693 23.9896L44.5318 28.7261L39.306 29.4847C38.8498 29.5509 38.4709 29.8705 38.3283 30.3088C38.1859 30.7473 38.3047 31.2285 38.6348 31.5503L42.4171 35.2364L41.5244 40.4418C41.4465 40.8962 41.6332 41.3552 42.0062 41.6263C42.3792 41.8971 42.8736 41.9329 43.2814 41.7184L47.9554 39.2611L52.6305 41.7184C53.041 41.9342 53.5352 41.8954 53.9057 41.6261C54.2786 41.3551 54.4653 40.8959 54.3873 40.4416L53.4936 35.2363L57.2757 31.5503C57.606 31.2285 57.7246 30.7473 57.5822 30.3088ZM51.3472 33.9462C51.0618 34.2245 50.9314 34.6255 50.999 35.0184L51.5852 38.4329L48.5187 36.821C48.1657 36.6356 47.7443 36.6356 47.3918 36.8211L44.3263 38.4329L44.912 35.0182C44.9793 34.6252 44.849 34.2244 44.5636 33.9462L42.0831 31.5287L45.5102 31.0313C45.9047 30.974 46.2457 30.7262 46.4221 30.3688L47.9554 27.2616L49.4887 30.3688C49.6651 30.7262 50.0061 30.974 50.4006 31.0313L53.8278 31.5287L51.3472 33.9462Z" fill="white"/>
<path d="M48 70.7344H43.1562C42.4876 70.7344 41.9453 71.2765 41.9453 71.9453C41.9453 72.6141 42.4876 73.1562 43.1562 73.1562H48C48.6687 73.1562 49.2109 72.6141 49.2109 71.9453C49.2109 71.2765 48.6687 70.7344 48 70.7344Z" fill="#2569E6"/>
</svg>
