<svg width="48" height="48" viewBox="0 0 48 48" fill="none" xmlns="http://www.w3.org/2000/svg">
<circle cx="24" cy="24" r="24" fill="#B8C5D0"/>
<path d="M24.0001 0C10.7453 0 0 10.7453 0 24C0 37.2552 10.7453 48 24.0001 48C37.2553 48 48.0001 37.2552 48.0001 24C48.0001 10.7453 37.2553 0 24.0001 0ZM24.0001 9.60002C27.5137 9.55496 30.7831 11.6523 32.4751 14.7C33.8647 16.9066 34.0783 19.7874 32.7751 22.1251C32.0095 23.6466 30.9217 24.9012 29.4001 25.65C28.0513 26.298 26.8129 27.3024 26.4001 28.8V31.2H21.6C21.5928 30.1872 21.5809 29.133 21.6749 28.125C22.2485 26.3994 23.4401 24.9318 24.8249 23.775C26.1785 22.7814 27.8694 22.0416 28.575 20.4C29.4318 17.9775 27.6504 15.1198 25.1999 14.55C22.3343 13.7064 19.0737 16.2056 19.1999 19.2H14.3999C14.6438 17.2875 14.6782 17.2059 14.7749 16.5C15.7666 12.4198 19.8551 9.53427 23.9999 9.60002H24.0001ZM24.0001 33.6C25.3249 33.6 26.4001 34.6752 26.4001 36C26.4001 37.3249 25.3249 38.4001 24.0001 38.4001C22.6753 38.4001 21.6 37.3249 21.6 36C21.6 34.6752 22.6753 33.6 24.0001 33.6Z" fill="url(#paint0_linear)"/>
<path fill-rule="evenodd" clip-rule="evenodd" d="M0 24C0 10.7453 10.7453 1.4832e-05 24 0C37.2549 1.24059e-05 48 10.7452 48 24C48 36.4264 38.5561 46.647 26.454 47.8761C38.5564 46.6471 48.0001 36.4268 48.0001 24C48.0001 10.7453 37.2553 0 24.0001 0C24 0 24 0 24 0C24 0 24 0 24 0C10.7452 0 0 10.7452 0 24C0 35.598 8.22681 45.2745 19.1632 47.5124C8.22687 45.2746 0 35.5983 0 24ZM23.6899 47.998C23.7931 47.9993 23.8965 48 24.0001 48C24 48 24 48 24 48C23.8965 48 23.7931 47.9993 23.6899 47.998ZM32.4751 14.7C30.7831 11.6523 27.5137 9.55496 24.0001 9.60002H23.9999C19.8551 9.53427 15.7666 12.4198 14.7749 16.5C14.7438 16.7269 14.7192 16.8893 14.6919 17.0688C14.6344 17.4476 14.5654 17.9023 14.3999 19.2H19.1999C19.0737 16.2056 22.3343 13.7064 25.1999 14.55C27.6504 15.1198 29.4318 17.9775 28.575 20.4C28.035 21.6563 26.9181 22.3844 25.8168 23.1023C25.479 23.3225 25.1427 23.5418 24.8249 23.775C23.4401 24.9318 22.2485 26.3994 21.6749 28.125C21.5847 29.0922 21.592 30.1018 21.5992 31.0766C21.5995 31.1178 21.5998 31.159 21.6 31.2H26.4001V28.8C26.8129 27.3024 28.0513 26.298 29.4001 25.65C30.9217 24.9012 32.0095 23.6466 32.7751 22.1251C34.0783 19.7874 33.8647 16.9066 32.4751 14.7ZM26.4001 36C26.4001 34.6752 25.3249 33.6 24.0001 33.6C22.6753 33.6 21.6 34.6752 21.6 36C21.6 37.3249 22.6753 38.4001 24.0001 38.4001C25.3249 38.4001 26.4001 37.3249 26.4001 36Z" fill="white"/>
<defs>
<linearGradient id="paint0_linear" x1="43" y1="5" x2="24.0001" y2="48" gradientUnits="userSpaceOnUse">
<stop stop-color="#14212D"/>
<stop offset="1" stop-color="#253442"/>
</linearGradient>
</defs>
</svg>
