<svg width="33" height="30" viewBox="0 0 33 30" fill="none" xmlns="http://www.w3.org/2000/svg">
<path d="M3.78852 6.88527L7.64099 4.31695H13.4197V0.464478H24.335C30.499 3.03279 32.04 10.0957 32.04 13.3061H18.5563V17.1585H27.5454C28.5728 24.3498 23.693 28.2879 21.1246 29.358H10.2093H6.35683L1.86228 24.2214L0.578125 14.5902L3.78852 6.88527Z" fill="url(#paint0_linear)"/>
<path fill-rule="evenodd" clip-rule="evenodd" d="M29.2834 3.15228C27.7401 1.19229 25.7755 0.00697623 23.578 0H12.3964V3.55198H8.77338C3.93559 3.55198 0 9.48377 0 16.7795C0 24.0753 3.93559 30 8.77338 30H19.8342C24.5086 30 28.3164 24.1889 28.3164 17.0495V16.3391H19.685V14.2079H32.4722V13.4975C32.523 10.3257 31.7233 7.19814 30.1563 4.43997C30.16 4.43693 30.1637 4.43389 30.1674 4.43084L29.2834 3.15228ZM1.42079 16.7795C1.42079 23.2867 4.71703 28.5792 8.77338 28.5792C12.6166 28.5792 15.7779 23.8125 16.0905 17.7599H8.13402V5.01539C4.37603 5.53398 1.42079 10.6133 1.42079 16.7795ZM12.7303 28.5792H19.8342C23.5141 28.5792 26.6469 23.6988 26.8814 17.7599H17.5183C17.291 22.4911 15.4014 26.5404 12.7303 28.5792ZM9.55481 16.3391H18.2643V14.2079H12.3964V4.97276H9.55481V16.3391ZM13.8172 1.74757V12.7871H20.4381C20.2107 6.98318 17.3692 2.30168 13.8172 1.74757ZM21.8304 12.7871H31.0656C31.0089 10.1409 30.3066 7.54854 29.0196 5.23561C27.7264 5.99218 26.2555 6.39178 24.7573 6.39356V4.97276C25.9701 4.9701 27.1618 4.65445 28.2169 4.05635C26.9311 2.40824 25.3043 1.42079 23.5354 1.42079H16.6446C19.5714 3.38858 21.6528 7.71489 21.8304 12.7871Z" fill="url(#paint1_linear)"/>
<defs>
<linearGradient id="paint0_linear" x1="21.617" y1="-13.0353" x2="21.617" y2="39.421" gradientUnits="userSpaceOnUse">
<stop stop-color="#C7DAFD"/>
<stop offset="1" stop-color="#E9F1FF"/>
</linearGradient>
<linearGradient id="paint1_linear" x1="-2.55476e-07" y1="-2.84155" x2="21.6533" y2="39.0525" gradientUnits="userSpaceOnUse">
<stop stop-color="#2569E6"/>
<stop offset="1" stop-color="#3649EF"/>
</linearGradient>
</defs>
</svg>
