<svg width="30" height="30" viewBox="0 0 30 30" fill="none" xmlns="http://www.w3.org/2000/svg">
<g clip-path="url(#clip0)">
<path d="M2.7998 22V8L15.2998 0.5L27.2998 7.5L28.2998 22L14.7998 29.5L2.7998 22Z" fill="url(#paint0_linear)"/>
<path d="M27.8062 7.2268L15.2886 0L2.739 7.2448L2.2998 7.5004V22.5004L14.757 29.69L15.2886 30L15.7562 29.7256L16.6858 29.1916L28.2778 22.5V7.5L27.8062 7.2268ZM14.757 28.538L3.299 21.922V8.7236L14.757 15.3388V28.538ZM15.2566 14.4744L3.7382 7.824L15.2886 1.1552L26.8078 7.8056L15.2566 14.4744Z" fill="url(#paint1_linear)"/>
<path d="M10.477 15.1192C9.8122 13.9232 8.5438 13.3608 7.6398 13.8608C6.7354 14.3608 6.5402 15.7364 7.203 16.9328C7.3766 17.242 7.5926 17.508 7.8302 17.7284L7.051 21.9456L9.7674 23.6932L9.2818 18.3704C9.5474 18.3752 9.807 18.3188 10.0402 18.1916C10.9418 17.692 11.139 16.3156 10.477 15.1192Z" fill="url(#paint2_linear)"/>
<path fill-rule="evenodd" clip-rule="evenodd" d="M27.9568 6.96718L28.578 7.32706V22.6732L16.836 29.4514L15.9082 29.9843L15.9058 29.9857L15.2893 30.3475L14.6072 29.9498L14.6061 29.9491L2 22.6736V7.32785L2.58921 6.98495L15.2888 -0.346436L27.9568 6.96718ZM14.7572 29.69L15.2888 30L15.7564 29.7256L16.686 29.1916L28.278 22.5V7.49997L27.8064 7.22677L15.2888 -3.10838e-05L2.7392 7.24477L2.3 7.50037V22.5004L14.7572 29.69ZM10.7397 14.9739C11.0994 15.624 11.2314 16.3326 11.1421 16.959C11.0529 17.5855 10.737 18.1485 10.1858 18.454L10.1841 18.4549C10.0014 18.5545 9.80708 18.6175 9.60859 18.6482L10.1222 24.278L6.71963 22.089L7.50626 17.8315C7.29429 17.6156 7.10153 17.3645 6.94161 17.0796L6.94077 17.0781C6.58073 16.4282 6.44787 15.7198 6.53688 15.0934C6.62593 14.4668 6.94219 13.9038 7.4948 13.5982C8.04692 13.2929 8.69147 13.3232 9.26992 13.5797C9.84814 13.8361 10.3787 14.3244 10.7397 14.9739ZM7.64 13.8608C8.544 13.3608 9.8124 13.9232 10.4772 15.1192C11.1392 16.3156 10.942 17.692 10.0404 18.1916C9.89588 18.2704 9.74122 18.322 9.58127 18.3488C9.48313 18.3652 9.383 18.3722 9.282 18.3704L9.7676 23.6932L7.0512 21.9456L7.8304 17.7284C7.5928 17.508 7.3768 17.242 7.2032 16.9328C6.5404 15.7364 6.7356 14.3608 7.64 13.8608ZM14.7572 28.538V15.3388L3.2992 8.72357V21.922L14.7572 28.538ZM14.4572 28.0183V15.512L3.5992 9.24318V21.7488L14.4572 28.0183ZM15.2568 14.4744L26.808 7.80557L15.2888 1.15517L3.7384 7.82397L15.2568 14.4744ZM4.33839 7.82397L15.2568 14.128L26.208 7.80557L15.2888 1.50158L4.33839 7.82397Z" fill="url(#paint3_linear)"/>
</g>
<defs>
<linearGradient id="paint0_linear" x1="19.8519" y1="-13.0495" x2="19.8519" y2="39.6" gradientUnits="userSpaceOnUse">
<stop stop-color="#C7DAFD"/>
<stop offset="1" stop-color="#E9F1FF"/>
</linearGradient>
<linearGradient id="paint1_linear" x1="6.80957" y1="13.6783" x2="13.9497" y2="17.9602" gradientUnits="userSpaceOnUse">
<stop stop-color="#2569E6"/>
<stop offset="1" stop-color="#3649EF"/>
</linearGradient>
<linearGradient id="paint2_linear" x1="6.80957" y1="13.6783" x2="13.9497" y2="17.9602" gradientUnits="userSpaceOnUse">
<stop stop-color="#2569E6"/>
<stop offset="1" stop-color="#3649EF"/>
</linearGradient>
<linearGradient id="paint3_linear" x1="2" y1="-0.346436" x2="26.0643" y2="30.4858" gradientUnits="userSpaceOnUse">
<stop stop-color="#2569E6"/>
<stop offset="1" stop-color="#3649EF"/>
</linearGradient>
<clipPath id="clip0">
<rect width="30" height="30" fill="white"/>
</clipPath>
</defs>
</svg>
