<svg width="95" height="95" viewBox="0 0 95 95" fill="none" xmlns="http://www.w3.org/2000/svg">
<rect width="95" height="95" rx="10" fill="white"/>
<path d="M71.5 16H23V65L47 78L71.5 65V16Z" fill="#2569E6"/>
<path d="M46.7189 31.4698C47.0196 30.5513 48.3189 30.5513 48.6196 31.4698L51.0532 38.902C51.188 39.3137 51.5725 39.5918 52.0057 39.5908L59.9014 39.5738C60.8761 39.5717 61.2776 40.8229 60.4838 41.3883L54.1122 45.9269C53.7545 46.1817 53.6049 46.64 53.7434 47.0568L56.1958 54.436C56.5016 55.3561 55.4504 56.1293 54.6631 55.5634L48.2529 50.9551C47.9042 50.7044 47.4343 50.7044 47.0855 50.9551L40.6753 55.5634C39.8881 56.1293 38.8368 55.3561 39.1426 54.436L41.5951 47.0568C41.7336 46.64 41.584 46.1817 41.2263 45.9269L34.8547 41.3883C34.0609 40.8229 34.4624 39.5717 35.437 39.5738L43.3328 39.5908C43.766 39.5918 44.1505 39.3137 44.2853 38.902L46.7189 31.4698Z" fill="white"/>
<path d="M25 63.6888V18H69.4872V63.6699L46.855 75.7255L25 63.6888Z" stroke="#2569E6" stroke-width="4"/>
</svg>
