<svg width="26" height="30" viewBox="0 0 26 30" fill="none" xmlns="http://www.w3.org/2000/svg">
<path d="M0.999973 5L13 1L25 5C27 17.8 17.8333 26.6667 13 29.5C2.19997 23.9 0.499973 10.8333 0.999973 5Z" fill="url(#paint0_linear)"/>
<path d="M25.8163 5.22255C25.767 4.8229 25.497 4.48539 25.1199 4.34824L13.3338 0.0634838C13.0981 -0.0211613 12.8292 -0.0211613 12.5945 0.0634838L0.808499 4.34824C0.430275 4.48539 0.161339 4.8229 0.112052 5.22255C0.0895514 5.40148 -1.96229 23.222 12.511 29.9014C12.6513 29.9668 12.8045 30 12.9599 30H12.9674C13.1228 30 13.276 29.9668 13.4163 29.9014C27.8821 23.222 25.8388 5.40148 25.8163 5.22255ZM12.9631 27.7435C1.69888 22.2094 1.9496 9.21587 2.17782 6.13115L12.9631 2.20961L23.7495 6.13115C23.9766 9.21694 24.222 22.2094 12.9631 27.7435ZM12.1242 5.75828C11.552 6.47294 6.53115 12.8299 6.53115 16.0721C6.53115 19.6176 9.41444 22.5009 12.9599 22.5009C16.5053 22.5009 19.3886 19.6176 19.3886 16.0721C19.3886 12.8299 14.3678 6.47294 13.7956 5.75828C13.3885 5.25041 12.5313 5.25041 12.1242 5.75828ZM10.817 18.215C10.817 17.5315 11.8242 15.9371 12.9599 14.5164C14.0967 15.9371 15.1028 17.5315 15.1028 18.215C15.1028 19.3969 14.1417 20.358 12.9599 20.358C12.812 20.358 12.6727 20.329 12.5281 20.314C11.5531 20.1137 10.817 19.249 10.817 18.215ZM17.0679 17.2261C16.4357 15.2075 14.2542 12.696 13.7571 12.142C13.351 11.6888 12.5688 11.6888 12.1627 12.142C11.6656 12.696 9.48409 15.2085 8.85193 17.2261C8.748 16.8564 8.67407 16.4739 8.67407 16.0721C8.67407 14.4414 11.0398 10.7448 12.9599 8.17977C14.8799 10.7448 17.2457 14.4414 17.2457 16.0721C17.2457 16.4739 17.1718 16.8564 17.0679 17.2261Z" fill="url(#paint1_linear)"/>
<defs>
<linearGradient id="paint0_linear" x1="17.2114" y1="-12.3159" x2="17.2114" y2="39.4259" gradientUnits="userSpaceOnUse">
<stop stop-color="#C7DAFD"/>
<stop offset="1" stop-color="#E9F1FF"/>
</linearGradient>
<linearGradient id="paint1_linear" x1="0" y1="0" x2="23.5311" y2="30.0914" gradientUnits="userSpaceOnUse">
<stop stop-color="#2569E6"/>
<stop offset="1" stop-color="#3649EF"/>
</linearGradient>
</defs>
</svg>
