<svg width="30" height="30" viewBox="0 0 30 30" fill="none" xmlns="http://www.w3.org/2000/svg">
<circle cx="15" cy="15" r="13" fill="url(#paint0_linear)"/>
<path d="M15 0C12.0333 0 9.13319 0.879735 6.66645 2.52796C4.19971 4.17618 2.27713 6.51885 1.14181 9.25975C0.00649921 12.0006 -0.290551 15.0166 0.288227 17.9263C0.867006 20.8361 2.29562 23.5088 4.3934 25.6066C6.49119 27.7044 9.16394 29.133 12.0736 29.7118C14.9834 30.2906 17.9994 29.9935 20.7403 28.8582C23.4811 27.7229 25.8238 25.8003 27.472 23.3335C29.1203 20.8668 30 17.9667 30 15C29.9957 11.0231 28.4139 7.2103 25.6018 4.39819C22.7897 1.58609 18.9769 0.00434263 15 0V0ZM20.2969 25.0359C20.2347 25.0685 20.1659 25.0867 20.0957 25.0891C20.0256 25.0915 19.9557 25.0782 19.8914 25.05C19.8268 25.0217 19.7695 24.9791 19.7236 24.9256C19.6778 24.872 19.6446 24.8088 19.6266 24.7406L18.6633 21.1359C18.6379 21.0414 18.6429 20.9412 18.6773 20.8496C18.7118 20.758 18.7741 20.6794 18.8555 20.625C20.2286 19.7014 21.2319 18.323 21.6889 16.7325C22.1459 15.142 22.0273 13.4413 21.3539 11.9297L16.9406 18.6398C16.8979 18.7047 16.8398 18.7579 16.7715 18.7947C16.7032 18.8315 16.6268 18.8508 16.5492 18.8508H13.4484C13.3702 18.8509 13.2932 18.8314 13.2245 18.7942C13.1557 18.7569 13.0973 18.7031 13.0547 18.6375L8.67188 11.8758C7.95156 13.462 7.84572 15.259 8.37487 16.9188C8.90402 18.5786 10.0305 19.9828 11.5359 20.8594C11.6243 20.9108 11.6934 20.9897 11.7328 21.0841C11.7721 21.1784 11.7795 21.2831 11.7539 21.382L10.8164 24.9516C10.7993 25.0182 10.7678 25.0802 10.724 25.1333C10.6803 25.1863 10.6254 25.2291 10.5633 25.2586C10.5009 25.2879 10.4329 25.303 10.3641 25.303C10.2952 25.303 10.2272 25.2879 10.1648 25.2586C8.26845 24.3659 6.65025 22.9748 5.4832 21.2338C4.31615 19.4927 3.64412 17.4673 3.53893 15.374C3.43375 13.2807 3.89936 11.1981 4.88601 9.34885C5.87266 7.49961 7.34326 5.95324 9.14063 4.875L9.18516 4.84453L9.34219 4.75312C9.44736 4.69112 9.57257 4.67259 9.69118 4.70148C9.8098 4.73037 9.91247 4.80439 9.97735 4.90781L15 13.0195L20.1938 4.99453C20.2597 4.89292 20.3624 4.82078 20.4804 4.79326C20.5984 4.76573 20.7224 4.78494 20.8266 4.84687C21.9719 5.52582 22.9908 6.3981 23.8383 7.425C23.875 7.45691 23.906 7.49498 23.9297 7.5375C25.0001 8.86828 25.7625 10.4195 26.1623 12.0799C26.5622 13.7403 26.5894 15.4686 26.2421 17.1407C25.8948 18.8129 25.1816 20.3874 24.1537 21.7512C23.1258 23.1151 21.8087 24.2344 20.2969 25.0289V25.0359Z" fill="url(#paint1_linear)"/>
<defs>
<linearGradient id="paint0_linear" x1="19.3865" y1="-10.1478" x2="19.3865" y2="37.0552" gradientUnits="userSpaceOnUse">
<stop stop-color="#C7DAFD"/>
<stop offset="1" stop-color="#E9F1FF"/>
</linearGradient>
<linearGradient id="paint1_linear" x1="0" y1="0" x2="22.4972" y2="33.2882" gradientUnits="userSpaceOnUse">
<stop stop-color="#2569E6"/>
<stop offset="1" stop-color="#3649EF"/>
</linearGradient>
</defs>
</svg>
