<svg width="48" height="48" viewBox="0 0 48 48" fill="none" xmlns="http://www.w3.org/2000/svg">
<circle cx="24" cy="24" r="24" fill="#AEB4F2"/>
<circle cx="24" cy="24" r="24" fill="url(#paint0_linear)"/>
<path d="M24.9608 14.7894C22.3646 15.4619 20.2091 14.6326 17.493 15.3361C16.3875 15.6222 15.1886 16.1629 13.8301 17.1621L18.8651 36.5995C18.8985 36.7283 19.0311 36.8064 19.1599 36.773L20.0967 36.5304C20.2255 36.497 20.3036 36.3643 20.2702 36.2355L17.8525 26.9021C18.7016 26.4167 19.4896 26.1044 20.2339 25.9116C22.9481 25.2085 25.1019 26.036 27.6951 25.3643C28.9395 25.042 30.2852 24.3743 31.8425 23.0263L29.1044 12.4558C27.5488 13.8006 26.2043 14.4673 24.9608 14.7894Z" fill="white"/>
<defs>
<linearGradient id="paint0_linear" x1="29" y1="-4.34617e-07" x2="19" y2="48" gradientUnits="userSpaceOnUse">
<stop stop-color="#3649EF"/>
<stop offset="1" stop-color="#3680EF"/>
</linearGradient>
</defs>
</svg>
