<svg width="39" height="32" viewBox="0 0 39 32" fill="none" xmlns="http://www.w3.org/2000/svg">
<path d="M0 32C0 28.4695 0.0744984 24.3005 0.223495 19.493C0.446991 12.6573 1.52722 7.69953 3.46418 4.61972C5.40115 1.5399 8.82808 0 13.745 0L15.086 5.74648C12.404 5.82159 10.5788 6.723 9.61031 8.4507C8.71633 10.1033 8.26934 12.5822 8.26934 15.8873H16.0917V32H0ZM22.9083 32C22.9083 28.4695 22.9828 24.3005 23.1318 19.493C23.3553 12.6573 24.4355 7.69953 26.3725 4.61972C28.3095 1.5399 31.7364 0 36.6533 0L37.9943 5.74648C35.3123 5.82159 33.4871 6.723 32.5186 8.4507C31.6246 10.1033 31.1777 12.5822 31.1777 15.8873H39V32H22.9083Z" fill="#2569E6"/>
</svg>
