<svg width="30" height="30" viewBox="0 0 30 30" fill="none" xmlns="http://www.w3.org/2000/svg">
<path d="M9 17.5L14 6.5H16.5L21 18L18.5 22L19.5 29.5L10.5 29L12 22L9 17.5Z" fill="url(#paint0_linear)"/>
<path d="M4.375 5H0.625C0.279813 5 0 4.72019 0 4.375V0.625C0 0.279813 0.279813 0 0.625 0H4.375C4.72019 0 5 0.279813 5 0.625V4.375C5 4.72019 4.72019 5 4.375 5ZM1.25 3.75H3.75V1.25H1.25V3.75Z" fill="url(#paint1_linear)"/>
<path d="M29.375 5H25.625C25.2799 5 25 4.72019 25 4.375V0.625C25 0.279813 25.2799 0 25.625 0H29.375C29.7201 0 30 0.279813 30 0.625V4.375C30 4.72019 29.7201 5 29.375 5ZM26.25 3.75H28.75V1.25H26.25V3.75Z" fill="url(#paint2_linear)"/>
<path d="M2.64051 13.75C2.60957 13.75 2.57826 13.7477 2.54676 13.743C2.20544 13.6917 1.97032 13.3733 2.02169 13.032C2.44044 10.2482 3.71901 7.71953 5.71913 5.71941C7.71926 3.71928 10.2479 2.44072 13.0317 2.02197C13.3731 1.97072 13.6914 2.20566 13.7427 2.54703C13.794 2.88841 13.559 3.20672 13.2176 3.25803C8.12019 4.02485 4.02451 8.12053 3.25769 13.218C3.21119 13.5278 2.94463 13.75 2.64051 13.75Z" fill="url(#paint3_linear)"/>
<path d="M27.3592 13.75C27.0552 13.75 26.7886 13.5277 26.742 13.2179C25.9751 8.12049 21.8795 4.0248 16.7821 3.25799C16.4407 3.20667 16.2057 2.8883 16.257 2.54699C16.3084 2.20567 16.6272 1.97061 16.968 2.02192C19.7519 2.44067 22.2805 3.71924 24.2807 5.71936C26.2808 7.71949 27.5594 10.2481 27.9781 13.0319C28.0294 13.3732 27.7944 13.6916 27.453 13.7429C27.4215 13.7477 27.3902 13.75 27.3592 13.75Z" fill="url(#paint4_linear)"/>
<path d="M4.375 17.5H0.625C0.279813 17.5 0 17.2201 0 16.875V13.125C0 12.7798 0.279813 12.5 0.625 12.5H4.375C4.72019 12.5 5 12.7798 5 13.125V16.875C5 17.2201 4.72019 17.5 4.375 17.5ZM1.25 16.25H3.75V13.75H1.25V16.25Z" fill="url(#paint5_linear)"/>
<path d="M29.375 17.5H25.625C25.2799 17.5 25 17.2201 25 16.875V13.125C25 12.7798 25.2799 12.5 25.625 12.5H29.375C29.7201 12.5 30 12.7798 30 13.125V16.875C30 17.2201 29.7201 17.5 29.375 17.5ZM26.25 16.25H28.75V13.75H26.25V16.25Z" fill="url(#paint6_linear)"/>
<path d="M16.875 5H13.125C12.7798 5 12.5 4.72019 12.5 4.375V0.625C12.5 0.279813 12.7798 0 13.125 0H16.875C17.2201 0 17.5 0.279813 17.5 0.625V4.375C17.5 4.72019 17.2201 5 16.875 5ZM13.75 3.75H16.25V1.25H13.75V3.75Z" fill="url(#paint7_linear)"/>
<path d="M13.125 3.125H4.375C4.02981 3.125 3.75 2.84519 3.75 2.5C3.75 2.15481 4.02981 1.875 4.375 1.875H13.125C13.4702 1.875 13.75 2.15481 13.75 2.5C13.75 2.84519 13.4702 3.125 13.125 3.125Z" fill="url(#paint8_linear)"/>
<path d="M25.625 3.125H16.875C16.5299 3.125 16.25 2.84519 16.25 2.5C16.25 2.15481 16.5299 1.875 16.875 1.875H25.625C25.9701 1.875 26.25 2.15481 26.25 2.5C26.25 2.84519 25.9701 3.125 25.625 3.125Z" fill="url(#paint9_linear)"/>
<path d="M15 15.625C14.6548 15.625 14.375 15.3451 14.375 15V6.25C14.375 5.90481 14.6548 5.625 15 5.625C15.3451 5.625 15.625 5.90481 15.625 6.25V15C15.625 15.3451 15.3451 15.625 15 15.625Z" fill="url(#paint10_linear)"/>
<path d="M15 19.375C13.6215 19.375 12.5 18.2535 12.5 16.875C12.5 15.4965 13.6215 14.375 15 14.375C16.3785 14.375 17.5 15.4965 17.5 16.875C17.5 18.2535 16.3785 19.375 15 19.375ZM15 15.625C14.3108 15.625 13.75 16.1858 13.75 16.875C13.75 17.5642 14.3108 18.125 15 18.125C15.6892 18.125 16.25 17.5642 16.25 16.875C16.25 16.1858 15.6892 15.625 15 15.625Z" fill="url(#paint11_linear)"/>
<path d="M18.8541 26.875H11.1458C10.9621 26.875 10.7876 26.7942 10.6689 26.654C10.5501 26.5138 10.4991 26.3285 10.5293 26.1473L11.2114 22.0549L8.26988 18.5251C8.12032 18.3456 8.08332 18.0978 8.17401 17.8824L13.174 6.00744C13.2716 5.77569 13.4986 5.62494 13.75 5.62494H16.25C16.5014 5.62494 16.7284 5.77563 16.8261 6.00744L21.8261 17.8824C21.9167 18.0978 21.8797 18.3456 21.7302 18.5251L18.7887 22.0549L19.4708 26.1473C19.5009 26.3285 19.4499 26.5138 19.3311 26.654C19.2123 26.7942 19.0378 26.875 18.8541 26.875ZM11.8836 25.625H18.1163L17.5084 21.9778C17.4784 21.7983 17.5283 21.6147 17.6448 21.4749L20.5263 18.0171L15.8349 6.875H14.1649L9.47357 18.017L12.3551 21.4748C12.4716 21.6146 12.5214 21.7983 12.4914 21.9777L11.8836 25.625Z" fill="url(#paint12_linear)"/>
<path d="M19.375 30H10.625C10.4413 30 10.2668 29.9192 10.1481 29.779C10.0293 29.6388 9.97828 29.4535 10.0085 29.2723L10.5293 26.1473C10.5796 25.8459 10.8403 25.6251 11.1458 25.6251H18.8542C19.1597 25.6251 19.4205 25.8459 19.4707 26.1473L19.9915 29.2723C20.0216 29.4535 19.9706 29.6388 19.8518 29.779C19.7331 29.9192 19.5587 30 19.375 30ZM11.3628 28.75H18.6372L18.3247 26.875H11.6753L11.3628 28.75Z" fill="url(#paint13_linear)"/>
<defs>
<linearGradient id="paint0_linear" x1="16.3282" y1="-4.37838" x2="16.3282" y2="37.8919" gradientUnits="userSpaceOnUse">
<stop stop-color="#C7DAFD"/>
<stop offset="1" stop-color="#E9F1FF"/>
</linearGradient>
<linearGradient id="paint1_linear" x1="0" y1="0" x2="3.74953" y2="5.54804" gradientUnits="userSpaceOnUse">
<stop stop-color="#2569E6"/>
<stop offset="1" stop-color="#3649EF"/>
</linearGradient>
<linearGradient id="paint2_linear" x1="25" y1="0" x2="28.7495" y2="5.54804" gradientUnits="userSpaceOnUse">
<stop stop-color="#2569E6"/>
<stop offset="1" stop-color="#3649EF"/>
</linearGradient>
<linearGradient id="paint3_linear" x1="2.01465" y1="2.01495" x2="10.8148" y2="15.0363" gradientUnits="userSpaceOnUse">
<stop stop-color="#2569E6"/>
<stop offset="1" stop-color="#3649EF"/>
</linearGradient>
<linearGradient id="paint4_linear" x1="16.25" y1="2.01489" x2="25.0503" y2="15.0363" gradientUnits="userSpaceOnUse">
<stop stop-color="#2569E6"/>
<stop offset="1" stop-color="#3649EF"/>
</linearGradient>
<linearGradient id="paint5_linear" x1="0" y1="12.5" x2="3.74953" y2="18.048" gradientUnits="userSpaceOnUse">
<stop stop-color="#2569E6"/>
<stop offset="1" stop-color="#3649EF"/>
</linearGradient>
<linearGradient id="paint6_linear" x1="25" y1="12.5" x2="28.7495" y2="18.048" gradientUnits="userSpaceOnUse">
<stop stop-color="#2569E6"/>
<stop offset="1" stop-color="#3649EF"/>
</linearGradient>
<linearGradient id="paint7_linear" x1="12.5" y1="0" x2="16.2495" y2="5.54804" gradientUnits="userSpaceOnUse">
<stop stop-color="#2569E6"/>
<stop offset="1" stop-color="#3649EF"/>
</linearGradient>
<linearGradient id="paint8_linear" x1="3.75" y1="1.875" x2="3.91948" y2="3.8812" gradientUnits="userSpaceOnUse">
<stop stop-color="#2569E6"/>
<stop offset="1" stop-color="#3649EF"/>
</linearGradient>
<linearGradient id="paint9_linear" x1="16.25" y1="1.875" x2="16.4195" y2="3.8812" gradientUnits="userSpaceOnUse">
<stop stop-color="#2569E6"/>
<stop offset="1" stop-color="#3649EF"/>
</linearGradient>
<linearGradient id="paint10_linear" x1="14.375" y1="5.625" x2="17.2658" y2="6.15968" gradientUnits="userSpaceOnUse">
<stop stop-color="#2569E6"/>
<stop offset="1" stop-color="#3649EF"/>
</linearGradient>
<linearGradient id="paint11_linear" x1="12.5" y1="14.375" x2="16.2495" y2="19.923" gradientUnits="userSpaceOnUse">
<stop stop-color="#2569E6"/>
<stop offset="1" stop-color="#3649EF"/>
</linearGradient>
<linearGradient id="paint12_linear" x1="8.125" y1="5.62494" x2="25.2832" y2="22.0527" gradientUnits="userSpaceOnUse">
<stop stop-color="#2569E6"/>
<stop offset="1" stop-color="#3649EF"/>
</linearGradient>
<linearGradient id="paint13_linear" x1="10" y1="25.6251" x2="11.9228" y2="32.1283" gradientUnits="userSpaceOnUse">
<stop stop-color="#2569E6"/>
<stop offset="1" stop-color="#3649EF"/>
</linearGradient>
</defs>
</svg>
