<svg width="46" height="30" viewBox="0 0 46 30" fill="none" xmlns="http://www.w3.org/2000/svg">
<path d="M15.1306 1C17.2354 1 19.1584 1.77863 20.6271 3.06357C21.0676 3.4489 21.7522 3.43998 22.1893 3.05076C23.5111 1.8735 23.5907 5.5 25.5 5.5C28.3357 5.5 28.5 4.5 31 5.5C31.3163 6.07983 33.4265 6.82767 34 6.5C35.3641 5.72058 35.8164 9 37.5 9C39 12 36.5 15.5 42.5 16.5C42.5 21.6589 48.1589 24 43 24C41.9906 24 42.9106 25.7962 42 25.5C41.5211 25.3442 39.7818 27.0826 39.5 27.5C38.1772 29.4597 36.0423 29 33.5 29C32.5553 29 30.3299 28.8242 29.5 28.5C29.0196 28.3124 26.8063 27.5851 26.5 28C24.9574 30.089 21.6872 29.5772 18.891 29.5772C15.8785 29.5772 13.5016 30.8692 12 28.5C11.7263 28.0681 10.9899 27.8533 10.5 28C9.83369 28.1995 8.23123 28 7.5 28C3.45594 28 1 22.1825 1 18.1384C1 14.9027 3.09881 12.1571 6.00933 11.1889C6.50896 11.0227 6.04052 10.525 6 10C5.9834 9.78493 6.5 9.21933 6.5 9C6.5 4.38759 10.5182 0.999999 15.1306 1Z" fill="url(#paint0_linear)"/>
<path fill-rule="evenodd" clip-rule="evenodd" d="M40.198 13.7624C43.1683 15.1485 45.1485 18.1188 45.1485 21.4851C45.1485 26.2376 41.2871 30 36.6337 30C28.1188 30 19.3069 30 10.5941 30C4.75248 30 0 25.2475 0 19.4059C0 16.2376 1.38614 13.3663 3.56436 11.3861C4.45545 4.9505 9.90099 0 16.5347 0C20.5941 0 24.2574 1.88119 26.6337 4.75248C32.8713 3.06931 39.4059 7.32673 40.198 13.7624ZM24.6535 6.33663C22.6733 3.9604 19.703 2.47525 16.5347 2.47525C11.2871 2.47525 6.73267 6.43564 6.13861 11.6832C6.0396 12.3762 5.74257 12.8713 5.24752 13.2673C3.46535 14.8515 2.47525 17.0297 2.47525 19.4059C2.47525 23.8614 6.13861 27.5248 10.5941 27.5248C19.3069 27.5248 27.9208 27.5248 36.6337 27.5248C39.901 27.5248 42.5743 24.8515 42.5743 21.4851C42.5743 19.2079 41.2871 17.0297 39.2079 16.0396C38.4158 15.7426 37.8218 15.0495 37.7228 14.1584C37.0297 9.20792 32.1782 5.94059 27.3267 7.22772C26.3366 7.42574 25.3465 7.12871 24.6535 6.33663Z" fill="url(#paint1_linear)"/>
<defs>
<linearGradient id="paint0_linear" x1="30.5369" y1="-12.5163" x2="30.5369" y2="40.0041" gradientUnits="userSpaceOnUse">
<stop stop-color="#C7DAFD"/>
<stop offset="1" stop-color="#E9F1FF"/>
</linearGradient>
<linearGradient id="paint1_linear" x1="0" y1="0" x2="18.122" y2="40.3544" gradientUnits="userSpaceOnUse">
<stop stop-color="#2569E6"/>
<stop offset="1" stop-color="#3649EF"/>
</linearGradient>
</defs>
</svg>
