<svg width="95" height="95" viewBox="0 0 95 95" fill="none" xmlns="http://www.w3.org/2000/svg">
<g clip-path="url(#clip0_6_14)">
<path d="M85 0H10C4.47715 0 0 4.47715 0 10V85C0 90.5229 4.47715 95 10 95H85C90.5229 95 95 90.5229 95 85V10C95 4.47715 90.5229 0 85 0Z" fill="white"/>
<path d="M27.866 64.368C26.5473 64.368 25.4587 64.1303 24.6 63.655C23.7567 63.1797 23.0973 62.4973 22.622 61.608C22.162 60.7033 21.84 59.6223 21.656 58.365C21.472 57.1077 21.38 55.7047 21.38 54.156H26.348V55.49C26.348 56.7473 26.4247 57.8207 26.578 58.71C26.7313 59.5993 27.1607 60.044 27.866 60.044C28.326 60.044 28.6633 59.8293 28.878 59.4C29.0927 58.9553 29.2307 58.388 29.292 57.698C29.3533 57.008 29.384 56.2873 29.384 55.536V47.992C29.384 47.2713 29.292 46.681 29.108 46.221C28.9393 45.7457 28.5867 45.508 28.05 45.508C27.5287 45.508 27.1147 45.7533 26.808 46.244C26.5013 46.7347 26.3097 47.3173 26.233 47.992H21.702V30.19H33.708V35.112H25.98V42.38C26.2713 42.0273 26.647 41.713 27.107 41.437C27.5823 41.1457 28.2263 41 29.039 41C30.189 41 31.155 41.2837 31.937 41.851C32.7343 42.403 33.3323 43.2003 33.731 44.243C34.145 45.2857 34.352 46.5353 34.352 47.992V55.536C34.352 56.732 34.2523 57.8667 34.053 58.94C33.869 59.998 33.5393 60.9333 33.064 61.746C32.5887 62.5587 31.9293 63.2027 31.086 63.678C30.2427 64.138 29.1693 64.368 27.866 64.368ZM43.8647 64.368C42.454 64.368 41.2503 64.046 40.2537 63.402C39.2723 62.758 38.521 61.884 37.9997 60.78C37.4937 59.6607 37.2407 58.4187 37.2407 57.054V37.136C37.2407 35.756 37.5013 34.514 38.0227 33.41C38.5593 32.306 39.326 31.432 40.3227 30.788C41.3193 30.144 42.5 29.822 43.8647 29.822C45.2447 29.822 46.4253 30.1517 47.4067 30.811C48.4033 31.455 49.1623 32.329 49.6837 33.433C50.2203 34.537 50.4887 35.7713 50.4887 37.136V57.054C50.4887 58.4187 50.2203 59.6607 49.6837 60.78C49.147 61.884 48.3803 62.758 47.3837 63.402C46.4023 64.046 45.2293 64.368 43.8647 64.368ZM43.8647 59.538C44.4473 59.538 44.869 59.2927 45.1297 58.802C45.3903 58.296 45.5207 57.7133 45.5207 57.054V37.136C45.5207 36.4613 45.3903 35.8787 45.1297 35.388C44.869 34.8973 44.4473 34.652 43.8647 34.652C43.282 34.652 42.8603 34.9127 42.5997 35.434C42.339 35.94 42.2087 36.5073 42.2087 37.136V57.054C42.2087 57.7133 42.339 58.296 42.5997 58.802C42.8603 59.2927 43.282 59.538 43.8647 59.538ZM61.9664 57.192V49.418H53.6404V45.554H61.9664V37.78H65.8304V45.554H74.1564V49.418H65.8304V57.192H61.9664Z" fill="#0755E9"/>
</g>
<defs>
<clipPath id="clip0_6_14">
<rect width="95" height="95" fill="white"/>
</clipPath>
</defs>
</svg>
