<svg width="35" height="35" viewBox="0 0 35 35" fill="none" xmlns="http://www.w3.org/2000/svg">
<path d="M14.5832 24.7918C14.5832 19.4569 18.6992 15.0732 23.9186 14.6261C23.6298 13.6837 23.2991 12.7719 22.8834 11.9459C17.9156 15.4464 11.2507 15.4437 6.286 11.9429C5.84456 12.8262 5.49412 13.8031 5.19531 14.8142L1.1165 13.125L0 15.8196L4.57144 17.7104C4.45462 18.5907 4.37631 19.488 4.37631 20.4168H0.00131261V23.3332H4.5815C4.70269 24.1907 4.88469 25.0193 5.10694 25.8142L0.00131261 27.9304L1.1165 30.625L6.11275 28.5543C7.94675 32.4419 11.0561 35 14.5849 35C16.275 35 17.8644 34.4019 19.2688 33.3624C16.4544 31.5451 14.5832 28.3832 14.5832 24.7918Z" fill="url(#paint0_linear)"/>
<path d="M18.6755 7.07525L21.1452 1.1165L18.451 0L15.9731 5.98456C15.5172 5.89313 15.0556 5.83319 14.5844 5.83319C14.1115 5.83319 13.6486 5.89313 13.1927 5.98456L10.7147 0L8.02017 1.1165L10.4899 7.07831C9.5243 7.68775 8.63311 8.491 7.84955 9.47625C11.857 12.3699 17.3105 12.3699 21.3193 9.47625C20.5357 8.49056 19.6428 7.68469 18.6755 7.07525Z" fill="url(#paint1_linear)"/>
<path d="M30.8713 28.8081C31.633 27.6544 32.0832 26.2758 32.0832 24.7918C32.0832 20.7642 28.819 17.5 24.7918 17.5C20.7642 17.5 17.5 20.7642 17.5 24.7918C17.5 28.819 20.7642 32.0832 24.7918 32.0832C26.2771 32.0832 27.6557 31.6334 28.8094 30.87L32.9376 35L35 32.9376L30.8713 28.8081ZM24.7918 29.1668C22.3751 29.1668 20.4168 27.2072 20.4168 24.7918C20.4168 22.3737 22.3751 20.4168 24.7918 20.4168C27.2081 20.4168 29.1668 22.3737 29.1668 24.7918C29.1668 27.2072 27.2081 29.1668 24.7918 29.1668Z" fill="url(#paint2_linear)"/>
<defs>
<linearGradient id="paint0_linear" x1="5.1254" y1="11.9429" x2="12.7322" y2="33.1239" gradientUnits="userSpaceOnUse">
<stop stop-color="#263465"/>
<stop offset="1" stop-color="#2D318E"/>
</linearGradient>
<linearGradient id="paint1_linear" x1="10.7359" y1="1.34587e-07" x2="14.261" y2="10.9432" gradientUnits="userSpaceOnUse">
<stop stop-color="#263465"/>
<stop offset="1" stop-color="#2D318E"/>
</linearGradient>
<linearGradient id="paint2_linear" x1="21.25" y1="17.5" x2="27.1875" y2="33.4375" gradientUnits="userSpaceOnUse">
<stop stop-color="#263465"/>
<stop offset="1" stop-color="#2D318E"/>
</linearGradient>
</defs>
</svg>
