<svg width="36" height="35" viewBox="0 0 36 35" fill="none" xmlns="http://www.w3.org/2000/svg">
<path d="M0.773023 19.2141L1.45565 19.8209C1.8213 20.1447 2.0759 20.5752 2.18343 21.0516C2.29096 21.528 2.24597 22.0261 2.05484 22.4756L1.69836 23.3175C1.56982 23.622 1.50759 23.9504 1.51579 24.2808C1.524 24.6112 1.60246 24.9361 1.74596 25.2339C1.88946 25.5316 2.0947 25.7954 2.34804 26.0077C2.60139 26.22 2.89702 26.3759 3.21529 26.4651L4.09512 26.7154C4.56361 26.8489 4.97843 27.126 5.28117 27.5077C5.5839 27.8893 5.75932 28.3563 5.78271 28.8429L5.82822 29.7569C5.85645 30.3539 6.11315 30.9171 6.54517 31.3301C6.9772 31.7431 7.55148 31.9741 8.14914 31.9754C8.27922 31.9697 8.4086 31.9532 8.53596 31.9261L9.43854 31.7706C9.91863 31.6881 10.4125 31.7583 10.8506 31.9712C11.2887 32.1842 11.649 32.5292 11.8808 32.9576L12.3169 33.7616C12.4736 34.054 12.691 34.3096 12.9546 34.511C13.2182 34.7125 13.5218 34.8552 13.8451 34.9295C14.1684 35.0039 14.5039 35.0082 14.829 34.9422C15.1542 34.8761 15.4614 34.7412 15.73 34.5466L16.4885 34.0157C16.8842 33.7317 17.3591 33.5789 17.8462 33.5789C18.3333 33.5789 18.8081 33.7317 19.2038 34.0157L19.9623 34.5504C20.2293 34.7461 20.535 34.8824 20.8589 34.9504C21.1829 35.0184 21.5176 35.0164 21.8407 34.9446C22.1639 34.8728 22.4679 34.7329 22.7326 34.5341C22.9973 34.3353 23.2164 34.0822 23.3754 33.7919L23.8153 32.9879C24.0476 32.573 24.4016 32.2392 24.8295 32.0317C25.2574 31.8242 25.7386 31.7529 26.2083 31.8275L27.1109 31.9868C27.2473 32.0116 27.3856 32.0242 27.5242 32.0247C28.1194 32.0236 28.6916 31.7947 29.1232 31.3849C29.5548 30.9751 29.8132 30.4156 29.8452 29.8213L29.8982 28.8922C29.9239 28.4055 30.1017 27.9391 30.4065 27.5588C30.7113 27.1785 31.1278 26.9034 31.5972 26.7723L32.4808 26.5258C32.7982 26.4364 33.0929 26.2807 33.3455 26.0689C33.5982 25.8572 33.803 25.5942 33.9464 25.2973C34.0898 25.0005 34.1685 24.6766 34.1774 24.347C34.1862 24.0175 34.125 23.6898 33.9978 23.3857L33.6451 22.54C33.4553 22.0895 33.4121 21.5906 33.5217 21.1141C33.6313 20.6376 33.8881 20.2078 34.2557 19.8854L34.9307 19.3052C35.1778 19.0867 35.3757 18.8181 35.5113 18.5174C35.6468 18.2167 35.7169 17.8906 35.7169 17.5607C35.7169 17.2308 35.6468 16.9047 35.5113 16.6039C35.3757 16.3032 35.1778 16.0347 34.9307 15.8162L34.2481 15.2094C33.8824 14.8857 33.6278 14.4551 33.5203 13.9787C33.4128 13.5024 33.4577 13.0042 33.6489 12.5548L34.0054 11.7129C34.1339 11.4084 34.1961 11.08 34.1879 10.7495C34.1797 10.4191 34.1013 10.0942 33.9578 9.79647C33.8143 9.49871 33.609 9.23492 33.3557 9.02263C33.1023 8.81034 32.8067 8.65441 32.4884 8.56523L31.6086 8.31494C31.1401 8.18141 30.7253 7.90432 30.4226 7.52266C30.1198 7.14101 29.9444 6.67401 29.921 6.18743L29.8793 5.27347C29.8511 4.67648 29.5944 4.1132 29.1623 3.70024C28.7303 3.28727 28.156 3.05623 27.5584 3.05495C27.4359 3.06189 27.3142 3.07838 27.1943 3.10425L26.2917 3.25974C26.1665 3.28157 26.0396 3.29298 25.9125 3.29387C25.4928 3.29378 25.0809 3.18026 24.7204 2.9653C24.3599 2.75034 24.0642 2.44194 23.8646 2.07273L23.4133 1.25738C23.2562 0.965386 23.0386 0.710311 22.775 0.509219C22.5114 0.308127 22.2078 0.165655 21.8847 0.0913348C21.5616 0.0170149 21.2263 0.0125613 20.9013 0.078272C20.5763 0.143983 20.2691 0.278342 20.0002 0.472361L19.2418 1.00329C18.846 1.2873 18.3712 1.44005 17.8841 1.44005C17.397 1.44005 16.9222 1.2873 16.5264 1.00329L15.8097 0.449607C15.5427 0.253948 15.237 0.117561 14.913 0.0495699C14.5891 -0.0184209 14.2544 -0.0164474 13.9312 0.0553582C13.6081 0.127164 13.304 0.267146 13.0394 0.465939C12.7747 0.664733 12.5556 0.917754 12.3966 1.20808L11.9642 2.03102C11.7302 2.45667 11.369 2.7985 10.931 3.00862C10.4931 3.21875 10.0004 3.28666 9.52197 3.20285L8.61939 3.03978C8.48299 3.015 8.34466 3.00231 8.20602 3.00186C7.61086 3.00294 7.0387 3.23187 6.60707 3.64164C6.17544 4.05141 5.91709 4.61091 5.88511 5.20521L5.83201 6.13813C5.80632 6.62484 5.62854 7.09122 5.32374 7.47154C5.01893 7.85187 4.60247 8.12696 4.13304 8.25805L3.24943 8.50455C2.93211 8.59391 2.63738 8.74962 2.38473 8.96139C2.13209 9.17317 1.9273 9.43617 1.7839 9.73301C1.6405 10.0298 1.56176 10.3538 1.5529 10.6833C1.54404 11.0128 1.60525 11.3405 1.73249 11.6446L2.08518 12.4903C2.27499 12.9409 2.31816 13.4398 2.20857 13.9162C2.09898 14.3927 1.84219 14.8226 1.47461 15.145L0.79957 15.7252C0.550761 15.9418 0.350817 16.2088 0.212985 16.5085C0.0751523 16.8082 0.00257735 17.1338 6.74057e-05 17.4637C-0.00244253 17.7936 0.0651699 18.1202 0.198426 18.422C0.331682 18.7238 0.527539 18.9938 0.773023 19.2141ZM10.709 15.6569C10.7085 15.564 10.7265 15.4719 10.7621 15.3861C10.7976 15.3002 10.8499 15.2223 10.916 15.157C10.9821 15.0916 11.0605 15.0401 11.1467 15.0055C11.233 14.9709 11.3252 14.9538 11.4181 14.9553H13.9476L17.1408 8.17462C17.2008 7.92456 17.3492 7.70465 17.5587 7.55543C17.7681 7.40622 18.0244 7.33777 18.2804 7.36272C18.5363 7.38767 18.7746 7.50433 18.9513 7.69118C19.128 7.87803 19.2312 8.12247 19.2418 8.37941L18.4833 13.9314H25.1085C25.4705 13.9259 25.8206 14.0606 26.0857 14.3073C26.3507 14.5539 26.5101 14.8935 26.5306 15.2549C26.5362 15.4377 26.505 15.6197 26.4389 15.7902C26.3728 15.9607 26.2732 16.1162 26.1458 16.2474C26.0185 16.3786 25.8661 16.4829 25.6977 16.5541C25.5293 16.6253 25.3482 16.662 25.1654 16.6619H24.7862C25.0159 16.7927 25.2026 16.9874 25.3238 17.2224C25.445 17.4573 25.4954 17.7224 25.4688 17.9854C25.4268 18.3266 25.2604 18.6402 25.0015 18.8662C24.7425 19.0923 24.4093 19.2148 24.0656 19.2103H23.7433C23.9776 19.3407 24.1684 19.5371 24.2919 19.7752C24.4153 20.0133 24.4658 20.2824 24.4373 20.549C24.3953 20.8902 24.2289 21.2038 23.9699 21.4298C23.711 21.6559 23.3778 21.7784 23.0341 21.774H22.7118C22.9418 21.9044 23.1288 22.0991 23.2501 22.3341C23.3713 22.5692 23.4214 22.8344 23.3944 23.0975C23.3524 23.4386 23.186 23.7523 22.927 23.9783C22.6681 24.2043 22.3349 24.3269 21.9912 24.3224L11.4181 24.4172C11.2331 24.4172 11.0556 24.3437 10.9247 24.2129C10.7939 24.082 10.7203 23.9045 10.7203 23.7194L10.709 15.6569Z" fill="url(#paint0_linear)"/>
<defs>
<linearGradient id="paint0_linear" x1="7.65362" y1="4.0446e-07" x2="19.3469" y2="32.0301" gradientUnits="userSpaceOnUse">
<stop stop-color="#263465"/>
<stop offset="1" stop-color="#2D318E"/>
</linearGradient>
</defs>
</svg>
