<svg width="47" height="45" viewBox="0 0 47 45" fill="none" xmlns="http://www.w3.org/2000/svg">
<path d="M25.3558 25.2084L26.0929 24.3239C26.1912 24.2256 26.1912 24.1273 26.2403 24.029L26.3386 22.8497C26.3386 22.8006 26.3386 22.8006 26.3386 22.7514H7.22345C6.68292 22.7514 6.24067 22.3092 6.24067 21.7686C6.24067 21.2281 6.68292 20.7859 7.22345 20.7859H27.0265C27.7636 19.6557 28.9921 18.8694 30.4171 18.7711L31.5965 18.6729C31.6947 18.6729 31.793 18.6237 31.8913 18.5746L32.7758 17.8375C33.562 17.1496 34.594 16.7564 35.675 16.7564C35.8224 16.7564 35.9207 16.7564 36.0681 16.7564V2.2604C36.0681 1.03192 35.0853 0 33.8077 0H2.21126C0.982783 0 0 0.982783 0 2.2604V26.83C0 28.0584 0.982783 29.0412 2.21126 29.0412H24.373C24.1273 27.7145 24.4221 26.2894 25.3558 25.2084ZM7.22345 6.28981H28.8447C29.3852 6.28981 29.8275 6.73206 29.8275 7.27259C29.8275 7.81312 29.3852 8.25537 28.8447 8.25537H7.22345C6.68292 8.25537 6.24067 7.81312 6.24067 7.27259C6.24067 6.73206 6.68292 6.28981 7.22345 6.28981ZM7.22345 13.5133H28.8447C29.3852 13.5133 29.8275 13.9555 29.8275 14.496C29.8275 15.0366 29.3852 15.4788 28.8447 15.4788H7.22345C6.68292 15.4788 6.24067 15.0366 6.24067 14.496C6.24067 13.9555 6.68292 13.5133 7.22345 13.5133Z" fill="url(#paint0_linear)"/>
<path d="M31.8913 37.6406C31.793 37.5423 31.6948 37.5423 31.5965 37.4931L30.4171 37.3949C29.1887 37.2966 28.1076 36.7069 27.3705 35.8224L24.7661 41.3751C24.5204 41.9157 24.9627 42.5545 25.6015 42.4562L28.1076 41.9648C28.4024 41.9157 28.7464 42.0631 28.8938 42.3579L30.1223 44.5692C30.4171 45.1097 31.2034 45.0606 31.4491 44.52L34.0043 39.1147C33.562 38.9182 33.1689 38.6725 32.825 38.3777L31.8913 37.6406Z" fill="url(#paint1_linear)"/>
<path d="M46.5839 41.4243L43.9795 35.8716C43.2424 36.7561 42.1614 37.3458 40.9329 37.444L39.7536 37.5423C39.6553 37.5423 39.557 37.5915 39.4587 37.6897L38.5742 38.4268C38.2302 38.7217 37.788 38.9673 37.3949 39.1639L39.9501 44.5692C40.1958 45.1097 40.982 45.1589 41.2769 44.6183L42.5054 42.4071C42.6528 42.1123 42.9967 41.9648 43.2916 42.014L45.7977 42.5054C46.3873 42.6036 46.8787 42.014 46.5839 41.4243Z" fill="url(#paint2_linear)"/>
<path d="M39.6061 35.5767L40.7855 35.4785C42.014 35.3802 42.9476 34.3974 43.0459 33.2181L43.1442 32.0387C43.1933 31.4982 43.3899 31.0068 43.7338 30.6137L44.5201 29.7292C45.3063 28.7955 45.3063 27.4196 44.5201 26.486L43.7338 25.6015C43.3899 25.2084 43.1933 24.717 43.1442 24.1765L43.0459 22.9971C42.9476 21.7686 41.9648 20.835 40.7855 20.7367L39.6061 20.6384C39.0656 20.5893 38.5742 20.3928 38.1811 20.0488L37.2966 19.2626C36.363 18.4763 34.9871 18.4763 34.0534 19.2626L33.1689 20.0488C32.7758 20.3928 32.2844 20.5893 31.7439 20.6384L30.5645 20.7367C29.3361 20.835 28.4024 21.8178 28.3041 22.9971L28.2059 24.1765C28.1567 24.717 27.9602 25.2084 27.6162 25.6015L26.83 26.486C26.0437 27.4196 26.0437 28.7955 26.83 29.7292L27.6162 30.6137C27.9602 31.0068 28.1567 31.4982 28.2059 32.0387L28.3041 33.2181C28.4024 34.4465 29.3852 35.3802 30.5645 35.4785L31.7439 35.5767C32.2844 35.6259 32.7758 35.8224 33.1689 36.1664L34.0534 36.9526C34.9871 37.7389 36.363 37.7389 37.2966 36.9526L38.1811 36.1664C38.5742 35.8224 39.0656 35.6259 39.6061 35.5767ZM35.675 33.3163C32.8249 33.3163 30.4663 31.0068 30.4663 28.1076C30.4663 25.2084 32.7758 22.8988 35.675 22.8988C38.5251 22.8988 40.8838 25.2084 40.8838 28.1076C40.8838 31.0068 38.5742 33.3163 35.675 33.3163Z" fill="url(#paint3_linear)"/>
<path d="M38.6234 26.7317L37.1492 26.4368C37.0018 26.3877 36.9035 26.3386 36.8052 26.1911L36.1173 24.9135C35.9207 24.5696 35.4293 24.5696 35.2327 24.9135L34.4957 26.1911C34.4465 26.3386 34.2991 26.3877 34.1517 26.4368L32.6775 26.7317C32.2844 26.83 32.137 27.2722 32.4318 27.567L33.4146 28.6481C33.5129 28.7464 33.562 28.8938 33.562 29.0412L33.3655 30.5154C33.3163 30.9085 33.7094 31.2033 34.0534 31.0068L35.3802 30.368C35.5276 30.3188 35.675 30.3188 35.8224 30.368L37.1492 31.0068C37.4932 31.1542 37.8863 30.8594 37.8371 30.5154L37.6406 29.0412C37.6406 28.8938 37.6897 28.7464 37.788 28.6481L38.7708 27.567C39.1639 27.2722 39.0165 26.83 38.6234 26.7317Z" fill="url(#paint4_linear)"/>
<defs>
<linearGradient id="paint0_linear" x1="7.72888" y1="3.356e-07" x2="16.0178" y2="27.6327" gradientUnits="userSpaceOnUse">
<stop stop-color="#FF002E"/>
<stop offset="1" stop-color="#F938AC"/>
</linearGradient>
<linearGradient id="paint1_linear" x1="26.6916" y1="35.8224" x2="29.7434" y2="44.1745" gradientUnits="userSpaceOnUse">
<stop stop-color="#FF002E"/>
<stop offset="1" stop-color="#F938AC"/>
</linearGradient>
<linearGradient id="paint2_linear" x1="39.3828" y1="35.8716" x2="42.4422" y2="44.2173" gradientUnits="userSpaceOnUse">
<stop stop-color="#FF002E"/>
<stop offset="1" stop-color="#F938AC"/>
</linearGradient>
<linearGradient id="paint3_linear" x1="30.2837" y1="18.6729" x2="36.6859" y2="35.8575" gradientUnits="userSpaceOnUse">
<stop stop-color="#FF002E"/>
<stop offset="1" stop-color="#F938AC"/>
</linearGradient>
<linearGradient id="paint4_linear" x1="33.7174" y1="24.6555" x2="35.8157" y2="30.5619" gradientUnits="userSpaceOnUse">
<stop stop-color="#FF002E"/>
<stop offset="1" stop-color="#F938AC"/>
</linearGradient>
</defs>
</svg>
