<svg width="38" height="45" viewBox="0 0 38 45" fill="none" xmlns="http://www.w3.org/2000/svg">
<path d="M26.25 5.35715C25.0845 5.35715 23.9452 5.70276 22.9761 6.35027C22.007 6.99779 21.2517 7.91813 20.8057 8.9949C20.3597 10.0717 20.243 11.2565 20.4704 12.3996C20.6978 13.5427 21.259 14.5928 22.0831 15.4169C22.9073 16.241 23.9573 16.8023 25.1004 17.0296C26.2435 17.257 27.4283 17.1403 28.5051 16.6943C29.5819 16.2483 30.5022 15.493 31.1497 14.5239C31.7973 13.5548 32.1429 12.4155 32.1429 11.25C32.1409 9.68772 31.5194 8.18997 30.4147 7.08527C29.31 5.98057 27.8123 5.35909 26.25 5.35715ZM30.7575 9.32893L25.4004 14.6861C25.1995 14.887 24.927 14.9999 24.6429 15C24.6083 15 24.5728 14.9979 24.5372 14.9948C24.3795 14.9791 24.2272 14.9287 24.0913 14.8471C23.9554 14.7655 23.8393 14.6548 23.7514 14.5229L21.6085 11.3086C21.4538 11.0722 21.3986 10.7841 21.4552 10.5072C21.5118 10.2304 21.6755 9.98704 21.9106 9.83027C22.1458 9.67351 22.4333 9.616 22.7107 9.67026C22.988 9.72452 23.2327 9.88616 23.3914 10.12L24.8092 12.2471L29.2425 7.81393C29.3417 7.71297 29.4598 7.63266 29.5902 7.57762C29.7205 7.52258 29.8605 7.49391 30.002 7.49327C30.1435 7.49263 30.2837 7.52003 30.4146 7.57388C30.5455 7.62774 30.6643 7.70698 30.7644 7.80704C30.8645 7.9071 30.9437 8.02599 30.9976 8.15684C31.0514 8.28769 31.0788 8.42792 31.0782 8.56942C31.0775 8.71092 31.0489 8.8509 30.9938 8.98126C30.9388 9.11162 30.8585 9.22979 30.7575 9.32893Z" fill="url(#paint0_linear)"/>
<path d="M36.4286 1.74269e-07H1.07143C0.930704 -8.01074e-05 0.791344 0.0275783 0.661316 0.0813942C0.531288 0.13521 0.413143 0.214128 0.313635 0.313635C0.214128 0.413143 0.13521 0.531288 0.0813942 0.661316C0.0275783 0.791344 -8.01074e-05 0.930704 1.74269e-07 1.07143V43.9286C-8.01074e-05 44.0693 0.0275783 44.2087 0.0813942 44.3387C0.13521 44.4687 0.214128 44.5869 0.313635 44.6864C0.413143 44.7859 0.531288 44.8648 0.661316 44.9186C0.791344 44.9724 0.930704 45.0001 1.07143 45H36.4286C36.5693 45.0001 36.7087 44.9724 36.8387 44.9186C36.9687 44.8648 37.0869 44.7859 37.1864 44.6864C37.2859 44.5869 37.3648 44.4687 37.4186 44.3387C37.4724 44.2087 37.5001 44.0693 37.5 43.9286V1.07143C37.5001 0.930704 37.4724 0.791344 37.4186 0.661316C37.3648 0.531288 37.2859 0.413143 37.1864 0.313635C37.0869 0.214128 36.9687 0.13521 36.8387 0.0813942C36.7087 0.0275783 36.5693 -8.01074e-05 36.4286 1.74269e-07ZM6.42857 6.42857H15C15.2842 6.42857 15.5567 6.54145 15.7576 6.74239C15.9585 6.94332 16.0714 7.21584 16.0714 7.5C16.0714 7.78416 15.9585 8.05668 15.7576 8.25761C15.5567 8.45855 15.2842 8.57143 15 8.57143H6.42857C6.14441 8.57143 5.87189 8.45855 5.67096 8.25761C5.47003 8.05668 5.35714 7.78416 5.35714 7.5C5.35714 7.21584 5.47003 6.94332 5.67096 6.74239C5.87189 6.54145 6.14441 6.42857 6.42857 6.42857ZM6.42857 10.7143H15C15.2842 10.7143 15.5567 10.8272 15.7576 11.0281C15.9585 11.229 16.0714 11.5016 16.0714 11.7857C16.0714 12.0699 15.9585 12.3424 15.7576 12.5433C15.5567 12.7443 15.2842 12.8571 15 12.8571H6.42857C6.14441 12.8571 5.87189 12.7443 5.67096 12.5433C5.47003 12.3424 5.35714 12.0699 5.35714 11.7857C5.35714 11.5016 5.47003 11.229 5.67096 11.0281C5.87189 10.8272 6.14441 10.7143 6.42857 10.7143ZM6.42857 15H15C15.2842 15 15.5567 15.1129 15.7576 15.3138C15.9585 15.5147 16.0714 15.7873 16.0714 16.0714C16.0714 16.3556 15.9585 16.6281 15.7576 16.829C15.5567 17.03 15.2842 17.1429 15 17.1429H6.42857C6.14441 17.1429 5.87189 17.03 5.67096 16.829C5.47003 16.6281 5.35714 16.3556 5.35714 16.0714C5.35714 15.7873 5.47003 15.5147 5.67096 15.3138C5.87189 15.1129 6.14441 15 6.42857 15ZM6.42857 19.2857H15C15.2842 19.2857 15.5567 19.3986 15.7576 19.5995C15.9585 19.8005 16.0714 20.073 16.0714 20.3571C16.0714 20.6413 15.9585 20.9138 15.7576 21.1148C15.5567 21.3157 15.2842 21.4286 15 21.4286H6.42857C6.14441 21.4286 5.87189 21.3157 5.67096 21.1148C5.47003 20.9138 5.35714 20.6413 5.35714 20.3571C5.35714 20.073 5.47003 19.8005 5.67096 19.5995C5.87189 19.3986 6.14441 19.2857 6.42857 19.2857ZM31.0714 38.5714H6.42857C6.14441 38.5714 5.87189 38.4585 5.67096 38.2576C5.47003 38.0567 5.35714 37.7842 5.35714 37.5C5.35714 37.2158 5.47003 36.9433 5.67096 36.7424C5.87189 36.5415 6.14441 36.4286 6.42857 36.4286H31.0714C31.3556 36.4286 31.6281 36.5415 31.829 36.7424C32.03 36.9433 32.1429 37.2158 32.1429 37.5C32.1429 37.7842 32.03 38.0567 31.829 38.2576C31.6281 38.4585 31.3556 38.5714 31.0714 38.5714ZM31.0714 34.2857H6.42857C6.14441 34.2857 5.87189 34.1728 5.67096 33.9719C5.47003 33.771 5.35714 33.4984 5.35714 33.2143C5.35714 32.9301 5.47003 32.6576 5.67096 32.4567C5.87189 32.2557 6.14441 32.1429 6.42857 32.1429H31.0714C31.3556 32.1429 31.6281 32.2557 31.829 32.4567C32.03 32.6576 32.1429 32.9301 32.1429 33.2143C32.1429 33.4984 32.03 33.771 31.829 33.9719C31.6281 34.1728 31.3556 34.2857 31.0714 34.2857ZM31.0714 30H6.42857C6.14441 30 5.87189 29.8871 5.67096 29.6862C5.47003 29.4853 5.35714 29.2127 5.35714 28.9286C5.35714 28.6444 5.47003 28.3719 5.67096 28.171C5.87189 27.97 6.14441 27.8571 6.42857 27.8571H31.0714C31.3556 27.8571 31.6281 27.97 31.829 28.171C32.03 28.3719 32.1429 28.6444 32.1429 28.9286C32.1429 29.2127 32.03 29.4853 31.829 29.6862C31.6281 29.8871 31.3556 30 31.0714 30ZM31.0714 25.7143H6.42857C6.14441 25.7143 5.87189 25.6014 5.67096 25.4005C5.47003 25.1995 5.35714 24.927 5.35714 24.6429C5.35714 24.3587 5.47003 24.0862 5.67096 23.8852C5.87189 23.6843 6.14441 23.5714 6.42857 23.5714H31.0714C31.3556 23.5714 31.6281 23.6843 31.829 23.8852C32.03 24.0862 32.1429 24.3587 32.1429 24.6429C32.1429 24.927 32.03 25.1995 31.829 25.4005C31.6281 25.6014 31.3556 25.7143 31.0714 25.7143ZM26.25 19.2857C24.6607 19.2857 23.1071 18.8144 21.7856 17.9315C20.4641 17.0485 19.4342 15.7935 18.826 14.3251C18.2178 12.8568 18.0586 11.2411 18.3687 9.68231C18.6787 8.12353 19.4441 6.69171 20.5679 5.56789C21.6917 4.44408 23.1235 3.67875 24.6823 3.36869C26.2411 3.05863 27.8568 3.21776 29.3251 3.82597C30.7935 4.43417 32.0485 5.46413 32.9315 6.7856C33.8144 8.10706 34.2857 9.66069 34.2857 11.25C34.2834 13.3805 33.436 15.4231 31.9295 16.9295C30.4231 18.436 28.3805 19.2834 26.25 19.2857Z" fill="url(#paint1_linear)"/>
<defs>
<linearGradient id="paint0_linear" x1="22.8827" y1="5.35715" x2="26.8814" y2="16.0906" gradientUnits="userSpaceOnUse">
<stop stop-color="#34C8DC"/>
<stop offset="1" stop-color="#19CDC2"/>
</linearGradient>
<linearGradient id="paint1_linear" x1="8.03571" y1="5.2002e-07" x2="25.4246" y2="38.8963" gradientUnits="userSpaceOnUse">
<stop stop-color="#34C8DC"/>
<stop offset="1" stop-color="#19CDC2"/>
</linearGradient>
</defs>
</svg>
