<svg width="48" height="45" viewBox="0 0 48 45" fill="none" xmlns="http://www.w3.org/2000/svg">
<path d="M30.5762 26.4981C28.5205 25.7639 26.171 25.3968 23.895 25.3968C21.619 25.3968 19.2695 25.7639 17.2137 26.4981C16.553 26.7183 15.8187 26.6449 15.158 26.2044C14.5706 25.8373 14.2035 25.1765 14.2035 24.4423V6.89484C14.2035 5.94037 14.7909 5.13275 15.6719 4.83907C16.6264 4.47197 16.553 4.54539 16.9935 4.39855C17.0669 4.10487 16.6264 2.34278 18.315 1.60857C19.71 1.02121 21.105 0.580688 22.5734 0.360427C18.6087 -0.520617 14.4238 0.213587 10.8262 2.56304C7.66909 4.61881 4.95254 7.8493 5.09938 11.7406C5.09938 12.5482 5.09938 13.7229 4.43859 14.9711C3.63097 16.3661 2.60309 17.8345 1.28152 19.4497C0.106793 20.9181 -0.260309 22.2397 0.180214 23.341C0.547315 24.4423 1.5752 25.0297 2.3094 25.3233C1.5752 27.5994 2.3094 29.7286 3.04361 30.4628C1.9423 33.0325 3.26387 35.1617 5.46648 35.5288C10.0185 36.263 11.2667 36.8503 11.6338 37.0706V44.2658C11.6338 44.6329 11.9275 45 12.368 45H27.7863C28.1534 45 28.5205 44.6329 28.5205 44.2658C28.5205 44.1924 28.5205 38.8327 28.6673 35.9693C28.961 31.2704 32.632 32.078 35.422 25.5436C34.2473 25.7639 33.146 25.9841 32.1181 26.4247C31.5307 26.6449 31.0168 26.6449 30.5762 26.4981Z" fill="url(#paint0_linear)"/>
<path d="M46.435 6.23405C46.1414 6.16063 45.9211 6.01379 45.6274 5.94037V21.1384C45.6274 21.8726 45.2603 22.6068 44.5995 22.9739C44.0122 23.341 43.2045 23.4144 42.5438 23.1207C40.9285 22.3865 39.1664 22.0194 37.4043 22.0194C35.6422 22.0194 33.8802 22.3865 32.2649 23.1207C31.751 23.341 31.0902 23.341 30.5028 23.1207C28.8876 22.3865 27.1255 22.0194 25.29 22.0194C23.5279 22.0194 21.6924 22.3865 20.1506 23.1207C19.4163 23.4144 18.6087 23.341 18.0214 22.9005C17.434 22.5334 17.0669 21.7992 17.0669 21.065V5.94037C16.7732 6.01379 16.4795 6.16063 16.2593 6.23405C15.9656 6.30747 15.7453 6.60115 15.7453 6.89483V24.3689C15.7453 24.5891 15.8188 24.8094 16.039 24.9562C16.2593 25.1031 16.4795 25.1031 16.6998 25.0297C21.1784 23.4144 26.6115 23.4144 31.0902 25.0297C31.237 25.1031 31.4573 25.1031 31.6041 25.0297C36.1562 23.4144 41.5159 23.4144 46.0679 25.0297C46.2882 25.1031 46.5085 25.1031 46.7287 24.9562C46.949 24.8094 47.0224 24.5891 47.0224 24.3689V6.89483C46.949 6.60115 46.7287 6.38089 46.435 6.23405Z" fill="url(#paint1_linear)"/>
<path d="M18.4619 3.66435V21.1384C18.4619 21.3587 18.6087 21.6523 18.829 21.7258C19.0492 21.8726 19.2695 21.8726 19.4898 21.7992C23.0874 20.1839 27.4192 20.1839 31.0168 21.7992C31.237 21.8726 31.4573 21.8726 31.6041 21.7992C35.2751 20.1839 39.4601 20.1839 43.1311 21.7992C43.3514 21.8726 43.6451 21.8726 43.7919 21.7258C44.0122 21.5789 44.159 21.3587 44.159 21.1384V3.66435C44.159 3.37067 44.0122 3.07699 43.7185 3.00357C39.7538 1.24148 35.2751 1.16806 31.3104 2.85673C27.3457 1.16806 22.7937 1.24148 18.9024 3.00357C18.6087 3.07699 18.4619 3.37067 18.4619 3.66435ZM33.6599 6.67458C36.0093 5.6467 38.7259 5.6467 41.1488 6.67458C41.5159 6.82143 41.6627 7.26195 41.5159 7.62905C41.369 7.99615 40.9285 8.14299 40.5614 7.99615C38.5791 7.11511 36.2296 7.11511 34.3207 7.99615C33.9536 8.14299 33.5131 7.99615 33.3662 7.62905C33.0725 7.33537 33.2928 6.89485 33.6599 6.67458ZM33.6599 11.4469C36.0093 10.419 38.7259 10.419 41.1488 11.4469C41.5159 11.5937 41.6627 12.0343 41.5159 12.4014C41.369 12.7685 40.9285 12.9153 40.5614 12.7685C38.5791 11.8874 36.2296 11.8874 34.3207 12.7685C33.9536 12.9153 33.5131 12.7685 33.3662 12.4014C33.0725 12.0343 33.2928 11.5937 33.6599 11.4469ZM33.6599 16.2192C36.0093 15.1913 38.7259 15.1913 41.1488 16.2192C41.5159 16.3661 41.6627 16.8066 41.5159 17.1737C41.369 17.5408 40.9285 17.6876 40.5614 17.5408C38.5791 16.6598 36.2296 16.6598 34.3207 17.5408C33.9536 17.6876 33.5131 17.5408 33.3662 17.1737C33.0725 16.8066 33.2928 16.3661 33.6599 16.2192ZM21.4721 6.67458C23.8216 5.6467 26.5381 5.6467 28.961 6.67458C29.3281 6.82143 29.4749 7.26195 29.3281 7.62905C29.1813 7.99615 28.7407 8.14299 28.3736 7.99615C26.3913 7.11511 24.0418 7.11511 22.1329 7.99615C21.7658 8.14299 21.3253 7.99615 21.1784 7.62905C20.9582 7.33537 21.105 6.89485 21.4721 6.67458ZM21.4721 11.4469C23.8216 10.419 26.5381 10.419 28.961 11.4469C29.3281 11.5937 29.4749 12.0343 29.3281 12.4014C29.1813 12.7685 28.7407 12.9153 28.3736 12.7685C26.3913 11.8874 24.0418 11.8874 22.1329 12.7685C21.7658 12.9153 21.3253 12.7685 21.1784 12.4014C20.9582 12.0343 21.105 11.5937 21.4721 11.4469ZM21.4721 16.2192C23.8216 15.1913 26.5381 15.1913 28.961 16.2192C29.3281 16.3661 29.4749 16.8066 29.3281 17.1737C29.1813 17.5408 28.7407 17.6876 28.3736 17.5408C26.3913 16.6598 24.0418 16.6598 22.1329 17.5408C21.7658 17.6876 21.3253 17.5408 21.1784 17.1737C20.9582 16.8066 21.105 16.3661 21.4721 16.2192Z" fill="url(#paint2_linear)"/>
<defs>
<linearGradient id="paint0_linear" x1="17.711" y1="0" x2="17.711" y2="45" gradientUnits="userSpaceOnUse">
<stop stop-color="#2569E9"/>
<stop offset="1" stop-color="#4183FF"/>
</linearGradient>
<linearGradient id="paint1_linear" x1="31.3839" y1="5.94037" x2="31.3839" y2="25.0847" gradientUnits="userSpaceOnUse">
<stop stop-color="#2569E9"/>
<stop offset="1" stop-color="#4183FF"/>
</linearGradient>
<linearGradient id="paint2_linear" x1="31.3104" y1="1.6348" x2="31.3104" y2="21.8542" gradientUnits="userSpaceOnUse">
<stop stop-color="#2569E9"/>
<stop offset="1" stop-color="#4183FF"/>
</linearGradient>
</defs>
</svg>
