<svg width="25" height="35" viewBox="0 0 25 35" fill="none" xmlns="http://www.w3.org/2000/svg">
<path d="M10.62 35H14.37C14.7564 34.9984 15.1329 34.8774 15.4479 34.6537C15.763 34.4299 16.0012 34.1143 16.13 33.75H8.85999C8.98879 34.1143 9.22701 34.4299 9.54205 34.6537C9.85709 34.8774 10.2336 34.9984 10.62 35Z" fill="url(#paint0_linear)"/>
<path d="M8.11998 30H15.62V31.25H8.11998V32.5H16.87V28.75H8.11998V30Z" fill="url(#paint1_linear)"/>
<path d="M12.495 14.375C13.5305 14.375 14.37 13.5355 14.37 12.5C14.37 11.4645 13.5305 10.625 12.495 10.625C11.4595 10.625 10.62 11.4645 10.62 12.5C10.62 13.5355 11.4595 14.375 12.495 14.375Z" fill="url(#paint2_linear)"/>
<path d="M12.495 0C9.60187 0.00116619 6.79874 1.00585 4.56358 2.84273C2.32841 4.67961 0.799624 7.23494 0.237897 10.073C-0.32383 12.9111 0.116289 15.8561 1.48321 18.4059C2.85012 20.9557 5.05919 22.9525 7.73373 24.0556C7.84813 24.1029 7.9459 24.1831 8.01467 24.286C8.08343 24.3889 8.12008 24.51 8.11998 24.6338V27.5H11.245V17.5C10.9212 17.3656 10.5719 16.8244 10.2481 16.6875L8.92311 17.0275L7.96436 16.0687L8.30748 14.75C8.17373 14.4263 8.07998 14.2 7.94561 13.875L6.76936 13.18V11.8237L7.94248 11.125L8.30436 10.25L7.96436 8.925L8.92311 7.96625L10.2481 8.30625L11.1231 7.94438L11.8181 6.76813H13.1744L13.87 7.9475L14.745 8.30937L16.07 7.96937L17.0287 8.92813L16.6887 10.2531C16.8225 10.5769 16.9162 10.8031 17.0506 11.1281L18.2269 11.8231V13.1794L17.0475 13.875L16.6856 14.75L17.0256 16.075L16.0669 17.0338L14.7419 16.6937C14.4181 16.8275 14.0687 17.3687 13.745 17.5062V27.5H16.87V24.6338C16.8699 24.51 16.9065 24.3889 16.9753 24.286C17.0441 24.1831 17.1418 24.1029 17.2562 24.0556C19.9308 22.9525 22.1398 20.9557 23.5068 18.4059C24.8737 15.8561 25.3138 12.9111 24.7521 10.073C24.1903 7.23494 22.6616 4.67961 20.4264 2.84273C18.1912 1.00585 15.3881 0.00116619 12.495 0Z" fill="url(#paint3_linear)"/>
<defs>
<linearGradient id="paint0_linear" x1="10.4178" y1="33.75" x2="10.5005" y2="35.0411" gradientUnits="userSpaceOnUse">
<stop stop-color="#263465"/>
<stop offset="1" stop-color="#2D318E"/>
</linearGradient>
<linearGradient id="paint1_linear" x1="9.99498" y1="28.75" x2="10.6005" y2="32.5425" gradientUnits="userSpaceOnUse">
<stop stop-color="#263465"/>
<stop offset="1" stop-color="#2D318E"/>
</linearGradient>
<linearGradient id="paint2_linear" x1="11.4236" y1="10.625" x2="12.6959" y2="14.0402" gradientUnits="userSpaceOnUse">
<stop stop-color="#263465"/>
<stop offset="1" stop-color="#2D318E"/>
</linearGradient>
<linearGradient id="paint3_linear" x1="5.35499" y1="3.1779e-07" x2="15.3651" y2="24.4168" gradientUnits="userSpaceOnUse">
<stop stop-color="#263465"/>
<stop offset="1" stop-color="#2D318E"/>
</linearGradient>
</defs>
</svg>
