<svg width="44" height="45" viewBox="0 0 44 45" fill="none" xmlns="http://www.w3.org/2000/svg">
<path d="M13.723 41.6125H4.35828V45H13.723V41.6125Z" fill="url(#paint0_linear)"/>
<path d="M0 40.6422H42.1113V26.6708H0V40.6422ZM34.1298 29.8088C36.2509 29.8088 37.9772 31.5351 37.9772 33.6562C37.9772 35.7774 36.2509 37.5032 34.1298 37.5032C32.0086 37.5032 30.2824 35.7774 30.2824 33.6562C30.2824 31.5351 32.0086 29.8088 34.1298 29.8088ZM24.5418 29.8088C26.663 29.8088 28.3892 31.5351 28.3892 33.6562C28.3892 35.7774 26.663 37.5032 24.5418 37.5032C22.4207 37.5032 20.6949 35.7774 20.6949 33.6562C20.6949 31.5351 22.4207 29.8088 24.5418 29.8088Z" fill="url(#paint1_linear)"/>
<path d="M25.0598 36.12C26.1959 36.12 27.12 35.1962 27.12 34.0602C27.12 32.9241 26.1959 32 25.0598 32C23.9241 32 23 32.9241 23 34.0602C23 35.1962 23.9245 36.12 25.0598 36.12Z" fill="url(#paint2_linear)"/>
<path d="M34.0602 36.12C35.1962 36.12 36.1203 35.1962 36.1203 34.0602C36.1203 32.9241 35.1962 32 34.0602 32C32.9241 32 32 32.9241 32 34.0602C32 35.1962 32.9241 36.12 34.0602 36.12Z" fill="url(#paint3_linear)"/>
<path d="M37.7535 41.6125H28.3893V45H37.7535V41.6125Z" fill="url(#paint4_linear)"/>
<path d="M37.9815 12.9254C38.881 12.9254 39.6132 12.1928 39.6132 11.2928C39.6132 10.3928 38.881 9.66071 37.9815 9.66071C37.082 9.66071 36.3499 10.3928 36.3499 11.2928C36.3499 12.1928 37.082 12.9254 37.9815 12.9254Z" fill="url(#paint5_linear)"/>
<path d="M32.2924 7.38818V15.198C32.2924 15.4401 32.4889 15.6366 32.731 15.6366H43.2325C43.4746 15.6366 43.6711 15.4396 43.6711 15.198V7.38818C43.6711 7.14608 43.4746 6.94959 43.2325 6.94959H32.731C32.4889 6.9491 32.2924 7.14608 32.2924 7.38818ZM37.9815 8.68989C39.4162 8.68989 40.5835 9.85721 40.5835 11.2923C40.5835 12.7275 39.4162 13.8953 37.9815 13.8953C36.5469 13.8953 35.3796 12.7275 35.3796 11.2923C35.3796 9.85721 36.5469 8.68989 37.9815 8.68989Z" fill="url(#paint6_linear)"/>
<path d="M17.8748 17C16.8408 17 16 17.8411 16 18.8752C16 19.9089 16.8408 20.75 17.8748 20.75C18.9089 20.75 19.7497 19.9089 19.7497 18.8752C19.7497 17.8411 18.9089 17 17.8748 17Z" fill="url(#paint7_linear)"/>
<path d="M32.731 16.6069C31.9538 16.6069 31.3221 15.9747 31.3221 15.1979V11.7299H0V25.7009H42.1113V16.6069H32.731ZM7.98202 22.5619C5.86037 22.5619 4.13462 20.8361 4.13462 18.7149C4.13462 16.5933 5.86037 14.8675 7.98202 14.8675C10.1032 14.8675 11.8289 16.5933 11.8289 18.7149C11.8289 20.8361 10.1032 22.5619 7.98202 22.5619ZM17.5695 22.5619C15.4483 22.5619 13.7225 20.8361 13.7225 18.7149C13.7225 16.5933 15.4483 14.8675 17.5695 14.8675C19.6906 14.8675 21.4164 16.5933 21.4164 18.7149C21.4164 20.8361 19.6906 22.5619 17.5695 22.5619Z" fill="url(#paint8_linear)"/>
<path d="M34.3151 5.97875C34.3146 5.9477 34.3088 5.91762 34.3088 5.88657V4.64308C34.3088 2.61798 35.9564 0.97034 37.9815 0.97034C40.0066 0.97034 41.6543 2.61798 41.6543 4.64308V5.88657C41.6543 5.91762 41.6484 5.9477 41.6479 5.97875H42.6183C42.6188 5.9477 42.6246 5.91762 42.6246 5.88657V4.64308C42.6246 2.08283 40.5418 0 37.9815 0C35.4213 0 33.3384 2.08283 33.3384 4.64308V5.88657C33.3384 5.91762 33.3443 5.9477 33.3447 5.97875H34.3151Z" fill="url(#paint9_linear)"/>
<path d="M7.87516 17C6.84113 17 6 17.8411 6 18.8752C6 19.9089 6.84113 20.75 7.87516 20.75C8.90887 20.75 9.75 19.9089 9.75 18.8752C9.75 17.8411 8.90887 17 7.87516 17Z" fill="url(#paint10_linear)"/>
<defs>
<linearGradient id="paint0_linear" x1="6.36501" y1="41.6125" x2="6.83" y2="45.0631" gradientUnits="userSpaceOnUse">
<stop stop-color="#FF4A31"/>
<stop offset="1" stop-color="#DC5116"/>
</linearGradient>
<linearGradient id="paint1_linear" x1="9.02385" y1="26.6708" x2="10.7879" y2="40.9427" gradientUnits="userSpaceOnUse">
<stop stop-color="#FF4A31"/>
<stop offset="1" stop-color="#DC5116"/>
</linearGradient>
<linearGradient id="paint2_linear" x1="23.8829" y1="32" x2="25.2807" y2="35.7521" gradientUnits="userSpaceOnUse">
<stop stop-color="#FF4A31"/>
<stop offset="1" stop-color="#DC5116"/>
</linearGradient>
<linearGradient id="paint3_linear" x1="32.8829" y1="32" x2="34.2807" y2="35.7522" gradientUnits="userSpaceOnUse">
<stop stop-color="#FF4A31"/>
<stop offset="1" stop-color="#DC5116"/>
</linearGradient>
<linearGradient id="paint4_linear" x1="30.3959" y1="41.6125" x2="30.8609" y2="45.063" gradientUnits="userSpaceOnUse">
<stop stop-color="#FF4A31"/>
<stop offset="1" stop-color="#DC5116"/>
</linearGradient>
<linearGradient id="paint5_linear" x1="37.0492" y1="9.66071" x2="38.1572" y2="12.6336" gradientUnits="userSpaceOnUse">
<stop stop-color="#FF4A31"/>
<stop offset="1" stop-color="#DC5116"/>
</linearGradient>
<linearGradient id="paint6_linear" x1="34.7307" y1="6.94959" x2="37.1014" y2="15.2847" gradientUnits="userSpaceOnUse">
<stop stop-color="#FF4A31"/>
<stop offset="1" stop-color="#DC5116"/>
</linearGradient>
<linearGradient id="paint7_linear" x1="16.8035" y1="17" x2="18.0759" y2="20.4151" gradientUnits="userSpaceOnUse">
<stop stop-color="#FF4A31"/>
<stop offset="1" stop-color="#DC5116"/>
</linearGradient>
<linearGradient id="paint8_linear" x1="9.02385" y1="11.73" x2="10.7878" y2="26.0014" gradientUnits="userSpaceOnUse">
<stop stop-color="#FF4A31"/>
<stop offset="1" stop-color="#DC5116"/>
</linearGradient>
<linearGradient id="paint9_linear" x1="35.3283" y1="6.90904e-08" x2="36.7347" y2="5.86332" gradientUnits="userSpaceOnUse">
<stop stop-color="#FF4A31"/>
<stop offset="1" stop-color="#DC5116"/>
</linearGradient>
<linearGradient id="paint10_linear" x1="6.80357" y1="17" x2="8.07589" y2="20.4152" gradientUnits="userSpaceOnUse">
<stop stop-color="#FF4A31"/>
<stop offset="1" stop-color="#DC5116"/>
</linearGradient>
</defs>
</svg>
