<svg width="48" height="48" viewBox="0 0 48 48" fill="none" xmlns="http://www.w3.org/2000/svg">
<path d="M38.0841 9H1.50807C1.10809 9.00062 0.724696 9.15987 0.441981 9.44281C0.159266 9.72574 0.000318617 10.1093 7.35275e-06 10.5092V41.9113C-0.000612282 42.1097 0.0379376 42.3063 0.113447 42.4898C0.188957 42.6733 0.299942 42.8401 0.44004 42.9807C0.580138 43.1212 0.746594 43.2327 0.929868 43.3088C1.11314 43.3849 1.30963 43.424 1.50807 43.424H15.7069C15.8986 43.424 16.0873 43.4712 16.2563 43.5616C16.4253 43.6519 16.5694 43.7826 16.6758 43.942L19.148 47.6516C19.2187 47.7587 19.3149 47.8465 19.4279 47.9074C19.5409 47.9682 19.6672 48 19.7955 48C19.9238 48 20.0502 47.9682 20.1632 47.9074C20.2762 47.8465 20.3723 47.7587 20.443 47.6516L22.9152 43.942C23.0216 43.7826 23.1657 43.6519 23.3347 43.5616C23.5037 43.4712 23.6924 43.424 23.8841 43.424H38.0841C38.4841 43.424 38.8677 43.2652 39.1505 42.9823C39.4333 42.6995 39.5922 42.3159 39.5922 41.916V10.5092C39.5919 10.1093 39.4329 9.72574 39.1502 9.44281C38.8675 9.15987 38.4841 9.00062 38.0841 9ZM5.31883 14.4236H21.9699C22.2787 14.4236 22.5748 14.5463 22.7932 14.7646C23.0115 14.983 23.1342 15.2791 23.1342 15.5879C23.1342 15.8967 23.0115 16.1928 22.7932 16.4112C22.5748 16.6295 22.2787 16.7522 21.9699 16.7522H5.31883C5.01004 16.7522 4.7139 16.6295 4.49555 16.4112C4.2772 16.1928 4.15453 15.8967 4.15453 15.5879C4.15453 15.2791 4.2772 14.983 4.49555 14.7646C4.7139 14.5463 5.01004 14.4236 5.31883 14.4236ZM16.6358 36.2428H5.31883C5.01004 36.2428 4.7139 36.1201 4.49555 35.9018C4.2772 35.6834 4.15453 35.3873 4.15453 35.0785C4.15453 34.7697 4.2772 34.4736 4.49555 34.2552C4.7139 34.0369 5.01004 33.9142 5.31883 33.9142H16.6369C16.9457 33.9142 17.2419 34.0369 17.4602 34.2552C17.6786 34.4736 17.8012 34.7697 17.8012 35.0785C17.8012 35.3873 17.6786 35.6834 17.4602 35.9018C17.2419 36.1201 16.9457 36.2428 16.6369 36.2428H16.6358ZM4.15689 28.4459C4.15689 28.1371 4.27955 27.8409 4.4979 27.6226C4.71625 27.4042 5.0124 27.2816 5.32119 27.2816H15.8776C16.1864 27.2816 16.4825 27.4042 16.7009 27.6226C16.9192 27.8409 17.0419 28.1371 17.0419 28.4459C17.0419 28.7547 16.9192 29.0508 16.7009 29.2691C16.4825 29.4875 16.1864 29.6102 15.8776 29.6102H5.31883C5.16594 29.6103 5.0145 29.5804 4.87318 29.522C4.73187 29.4636 4.60343 29.378 4.4952 29.27C4.38698 29.162 4.30109 29.0337 4.24243 28.8925C4.18378 28.7513 4.15351 28.5999 4.15335 28.447L4.15689 28.4459ZM18.7289 22.9775H5.31883C5.01004 22.9775 4.7139 22.8549 4.49555 22.6365C4.2772 22.4182 4.15453 22.122 4.15453 21.8132C4.15453 21.5044 4.2772 21.2083 4.49555 20.9899C4.7139 20.7716 5.01004 20.6489 5.31883 20.6489H18.7266C19.0354 20.6489 19.3315 20.7716 19.5498 20.9899C19.7682 21.2083 19.8909 21.5044 19.8909 21.8132C19.8909 22.122 19.7682 22.4182 19.5498 22.6365C19.3315 22.8549 19.0354 22.9775 18.7266 22.9775H18.7289ZM35.0974 17.5009C33.6164 21.0774 29.4466 31.1488 28.0669 34.4757C27.9947 34.6509 27.8807 34.8057 27.7349 34.9266L22.3101 39.4214C22.1469 39.5562 21.95 39.644 21.7406 39.6754C21.5312 39.7067 21.3172 39.6804 21.1216 39.5994C20.926 39.5183 20.7562 39.3854 20.6304 39.2151C20.5046 39.0448 20.4276 38.8434 20.4077 38.6326L19.7531 31.6162C19.7359 31.4273 19.7646 31.2371 19.8367 31.0617L26.8673 14.0928C27.32 13.0016 28.1877 12.1349 29.2794 11.6834C29.82 11.4598 30.3993 11.3449 30.9843 11.3453C31.5693 11.3456 32.1485 11.4611 32.6888 11.6853C33.2291 11.9095 33.72 12.2379 34.1334 12.6518C34.5468 13.0656 34.8746 13.5569 35.0982 14.0975C35.3217 14.638 35.4366 15.2174 35.4363 15.8023C35.436 16.3873 35.3204 16.9665 35.0963 17.5068L35.0974 17.5009Z" fill="url(#paint0_linear)"/>
<path d="M22.0986 31.6915L22.5212 36.2239L26.0189 33.3173L31.2094 20.7854L27.2832 19.1597L22.0986 31.6915Z" fill="url(#paint1_linear)"/>
<path d="M31.795 13.8338C31.5373 13.7263 31.2609 13.6708 30.9817 13.6704C30.7024 13.6701 30.4259 13.7249 30.1679 13.8318C29.91 13.9387 29.6757 14.0955 29.4785 14.2932C29.2814 14.491 29.1252 14.7257 29.019 14.984L28.1797 17.0089L32.1058 18.6346L32.9452 16.6098C33.1607 16.0891 33.1607 15.5042 32.945 14.9836C32.7293 14.463 32.3156 14.0494 31.795 13.8338Z" fill="url(#paint2_linear)"/>
<defs>
<linearGradient id="paint0_linear" x1="19.7961" y1="9" x2="19.7961" y2="48" gradientUnits="userSpaceOnUse">
<stop stop-color="#19C791"/>
<stop offset="1" stop-color="#1DB486"/>
</linearGradient>
<linearGradient id="paint1_linear" x1="26.654" y1="19.1597" x2="26.654" y2="36.2239" gradientUnits="userSpaceOnUse">
<stop stop-color="#19C791"/>
<stop offset="1" stop-color="#1DB486"/>
</linearGradient>
<linearGradient id="paint2_linear" x1="30.6432" y1="13.6704" x2="30.6432" y2="18.6346" gradientUnits="userSpaceOnUse">
<stop stop-color="#19C791"/>
<stop offset="1" stop-color="#1DB486"/>
</linearGradient>
</defs>
</svg>
