<svg width="40" height="40" viewBox="0 0 40 40" fill="none" xmlns="http://www.w3.org/2000/svg">
<path d="M33 5H1L1.5 39H33.5L33 5Z" fill="url(#paint0_linear)"/>
<path d="M10.4762 0C8.18393 0 6.25531 1.64346 5.81008 3.80952H2.85714C1.29075 3.80952 0 5.10029 0 6.66667V37.1429C0 38.7092 1.29076 40 2.85714 40H36.1905C38.2845 40 40 38.2845 40 36.1905V33.3333C39.9999 32.8074 39.5736 32.381 39.0476 32.381H34.2857V6.66667C34.2857 5.10029 32.995 3.80952 31.4286 3.80952H28.4747C28.0295 1.64346 26.1009 0 23.8086 0C21.5163 0 19.5886 1.64346 19.1434 3.80952H15.1414C14.6961 1.64346 12.7684 0 10.4762 0ZM10.4762 1.90569C11.7298 1.90569 12.7804 2.69604 13.1696 3.80952H7.78181C8.17106 2.69598 9.2225 1.90569 10.4762 1.90569ZM23.8086 1.90569C25.0623 1.90569 26.1137 2.69598 26.503 3.80952H21.1151C21.5044 2.69598 22.5549 1.90569 23.8086 1.90569ZM2.85714 5.71429H5.80915C6.25327 7.88109 8.18293 9.52288 10.4762 9.52288C11.7467 9.52288 11.7467 7.61719 10.4762 7.61719C9.22176 7.61719 8.16958 6.82795 7.78088 5.71429H19.1425C19.5866 7.88109 21.5153 9.52288 23.8086 9.52288C25.0791 9.52288 25.0791 7.61719 23.8086 7.61719C22.5542 7.61719 21.5029 6.82795 21.1142 5.71429H31.4286C31.9727 5.71429 32.381 6.12259 32.381 6.66667V11.4276H1.90476V6.66667C1.90476 6.12259 2.31306 5.71429 2.85714 5.71429ZM1.90476 13.3333H32.381V36.1905C32.381 36.8837 32.5724 37.5335 32.8999 38.0952H2.85714C2.31305 38.0952 1.90476 37.687 1.90476 37.1429V13.3333ZM34.2857 34.2857H38.0952V36.1905C38.0952 37.2622 37.2622 38.0952 36.1905 38.0952C35.1188 38.0952 34.2857 37.2622 34.2857 36.1905V34.2857Z" fill="url(#paint1_linear)"/>
<path d="M9.5239 18.0953C9.5239 18.3479 9.42356 18.5902 9.24495 18.7688C9.06635 18.9474 8.82411 19.0477 8.57152 19.0477C8.31894 19.0477 8.0767 18.9474 7.89809 18.7688C7.71948 18.5902 7.61914 18.3479 7.61914 18.0953C7.61914 17.9703 7.64377 17.8464 7.69163 17.7309C7.7395 17.6153 7.80965 17.5103 7.89808 17.4219C7.98652 17.3335 8.09151 17.2633 8.20706 17.2154C8.32261 17.1676 8.44645 17.1429 8.57152 17.1429C8.69659 17.1429 8.82044 17.1676 8.93598 17.2154C9.05153 17.2633 9.15652 17.3335 9.24496 17.4219C9.3334 17.5103 9.40355 17.6153 9.45141 17.7309C9.49927 17.8464 9.5239 17.9703 9.5239 18.0953Z" fill="url(#paint2_linear)"/>
<path d="M15.2378 18.0953C15.2378 18.3479 15.1374 18.5902 14.9588 18.7688C14.7802 18.9474 14.538 19.0477 14.2854 19.0477C14.0328 19.0477 13.7906 18.9474 13.612 18.7688C13.4334 18.5902 13.333 18.3479 13.333 18.0953C13.333 17.9703 13.3576 17.8464 13.4055 17.7309C13.4534 17.6153 13.5235 17.5103 13.612 17.4219C13.7004 17.3335 13.8054 17.2633 13.9209 17.2154C14.0365 17.1676 14.1603 17.1429 14.2854 17.1429C14.4105 17.1429 14.5343 17.1676 14.6499 17.2154C14.7654 17.2633 14.8704 17.3335 14.9588 17.4219C15.0473 17.5103 15.1174 17.6153 15.1653 17.7309C15.2131 17.8464 15.2378 17.9703 15.2378 18.0953Z" fill="url(#paint3_linear)"/>
<path d="M20.9516 18.0953C20.9516 18.3479 20.8513 18.5902 20.6727 18.7688C20.4941 18.9474 20.2518 19.0477 19.9993 19.0477C19.7467 19.0477 19.5044 18.9474 19.3258 18.7688C19.1472 18.5902 19.0469 18.3479 19.0469 18.0953C19.0469 17.9703 19.0715 17.8464 19.1194 17.7309C19.1672 17.6153 19.2374 17.5103 19.3258 17.4219C19.4143 17.3335 19.5192 17.2633 19.6348 17.2154C19.7503 17.1676 19.8742 17.1429 19.9993 17.1429C20.1243 17.1429 20.2482 17.1676 20.3637 17.2154C20.4793 17.2633 20.5843 17.3335 20.6727 17.4219C20.7611 17.5103 20.8313 17.6153 20.8791 17.7309C20.927 17.8464 20.9516 17.9703 20.9516 18.0953Z" fill="url(#paint4_linear)"/>
<path d="M26.6675 18.0953C26.6675 18.3479 26.5671 18.5902 26.3885 18.7688C26.2099 18.9474 25.9677 19.0477 25.7151 19.0477C25.4625 19.0477 25.2203 18.9474 25.0416 18.7688C24.863 18.5902 24.7627 18.3479 24.7627 18.0953C24.7627 17.9703 24.7873 17.8464 24.8352 17.7309C24.8831 17.6153 24.9532 17.5103 25.0416 17.4219C25.1301 17.3335 25.2351 17.2633 25.3506 17.2154C25.4662 17.1676 25.59 17.1429 25.7151 17.1429C25.8401 17.1429 25.964 17.1676 26.0795 17.2154C26.1951 17.2633 26.3001 17.3335 26.3885 17.4219C26.477 17.5103 26.5471 17.6153 26.595 17.7309C26.6428 17.8464 26.6675 17.9703 26.6675 18.0953Z" fill="url(#paint5_linear)"/>
<path d="M9.5239 22.8573C9.5239 22.9824 9.49927 23.1062 9.45141 23.2218C9.40355 23.3373 9.3334 23.4423 9.24496 23.5307C9.15652 23.6192 9.05153 23.6893 8.93598 23.7372C8.82044 23.7851 8.69659 23.8097 8.57152 23.8097C8.44645 23.8097 8.32261 23.7851 8.20706 23.7372C8.09151 23.6893 7.98652 23.6192 7.89808 23.5307C7.80965 23.4423 7.7395 23.3373 7.69163 23.2218C7.64377 23.1062 7.61914 22.9824 7.61914 22.8573C7.61914 22.6047 7.71948 22.3625 7.89809 22.1839C8.0767 22.0053 8.31894 21.9049 8.57152 21.9049C8.82411 21.9049 9.06635 22.0053 9.24495 22.1839C9.42356 22.3625 9.5239 22.6047 9.5239 22.8573Z" fill="url(#paint6_linear)"/>
<path d="M15.2378 22.8573C15.2378 22.9824 15.2131 23.1062 15.1653 23.2218C15.1174 23.3373 15.0473 23.4423 14.9588 23.5307C14.8704 23.6192 14.7654 23.6893 14.6499 23.7372C14.5343 23.7851 14.4105 23.8097 14.2854 23.8097C14.1603 23.8097 14.0365 23.7851 13.9209 23.7372C13.8054 23.6893 13.7004 23.6192 13.612 23.5307C13.5235 23.4423 13.4534 23.3373 13.4055 23.2218C13.3576 23.1062 13.333 22.9824 13.333 22.8573C13.333 22.6047 13.4334 22.3625 13.612 22.1839C13.7906 22.0053 14.0328 21.9049 14.2854 21.9049C14.538 21.9049 14.7802 22.0053 14.9588 22.1839C15.1374 22.3625 15.2378 22.6047 15.2378 22.8573Z" fill="url(#paint7_linear)"/>
<path d="M20.9516 22.8573C20.9516 22.9824 20.927 23.1062 20.8791 23.2218C20.8313 23.3373 20.7611 23.4423 20.6727 23.5307C20.5843 23.6192 20.4793 23.6893 20.3637 23.7372C20.2482 23.7851 20.1243 23.8097 19.9993 23.8097C19.8742 23.8097 19.7503 23.7851 19.6348 23.7372C19.5192 23.6893 19.4143 23.6192 19.3258 23.5307C19.2374 23.4423 19.1672 23.3373 19.1194 23.2218C19.0715 23.1062 19.0469 22.9824 19.0469 22.8573C19.0469 22.6047 19.1472 22.3625 19.3258 22.1839C19.5044 22.0053 19.7467 21.9049 19.9993 21.9049C20.2518 21.9049 20.4941 22.0053 20.6727 22.1839C20.8513 22.3625 20.9516 22.6047 20.9516 22.8573Z" fill="url(#paint8_linear)"/>
<path d="M26.6675 22.8573C26.6675 22.9824 26.6428 23.1062 26.595 23.2218C26.5471 23.3373 26.477 23.4423 26.3885 23.5307C26.3001 23.6192 26.1951 23.6893 26.0795 23.7372C25.964 23.7851 25.8401 23.8097 25.7151 23.8097C25.59 23.8097 25.4662 23.7851 25.3506 23.7372C25.2351 23.6893 25.1301 23.6192 25.0416 23.5307C24.9532 23.4423 24.8831 23.3373 24.8352 23.2218C24.7873 23.1062 24.7627 22.9824 24.7627 22.8573C24.7627 22.6047 24.863 22.3625 25.0416 22.1839C25.2203 22.0053 25.4625 21.9049 25.7151 21.9049C25.9677 21.9049 26.2099 22.0053 26.3885 22.1839C26.5671 22.3625 26.6675 22.6047 26.6675 22.8573Z" fill="url(#paint9_linear)"/>
<path d="M9.5239 27.6193C9.5239 27.8719 9.42356 28.1141 9.24495 28.2927C9.06635 28.4713 8.82411 28.5717 8.57152 28.5717C8.31894 28.5717 8.0767 28.4713 7.89809 28.2927C7.71948 28.1141 7.61914 27.8719 7.61914 27.6193C7.61914 27.4942 7.64377 27.3703 7.69163 27.2548C7.7395 27.1392 7.80965 27.0343 7.89808 26.9458C7.98652 26.8574 8.09151 26.7872 8.20706 26.7394C8.32261 26.6915 8.44645 26.6669 8.57152 26.6669C8.69659 26.6669 8.82044 26.6915 8.93598 26.7394C9.05153 26.7872 9.15652 26.8574 9.24496 26.9458C9.3334 27.0343 9.40355 27.1392 9.45141 27.2548C9.49927 27.3703 9.5239 27.4942 9.5239 27.6193Z" fill="url(#paint10_linear)"/>
<path d="M15.2378 27.6193C15.2378 27.8719 15.1374 28.1141 14.9588 28.2927C14.7802 28.4713 14.538 28.5717 14.2854 28.5717C14.0328 28.5717 13.7906 28.4713 13.612 28.2927C13.4334 28.1141 13.333 27.8719 13.333 27.6193C13.333 27.4942 13.3576 27.3703 13.4055 27.2548C13.4534 27.1392 13.5235 27.0343 13.612 26.9458C13.7004 26.8574 13.8054 26.7872 13.9209 26.7394C14.0365 26.6915 14.1603 26.6669 14.2854 26.6669C14.4105 26.6669 14.5343 26.6915 14.6499 26.7394C14.7654 26.7872 14.8704 26.8574 14.9588 26.9458C15.0473 27.0343 15.1174 27.1392 15.1653 27.2548C15.2131 27.3703 15.2378 27.4942 15.2378 27.6193Z" fill="url(#paint11_linear)"/>
<path d="M20.9516 27.6193C20.9516 27.8719 20.8513 28.1141 20.6727 28.2927C20.4941 28.4713 20.2518 28.5717 19.9993 28.5717C19.7467 28.5717 19.5044 28.4713 19.3258 28.2927C19.1472 28.1141 19.0469 27.8719 19.0469 27.6193C19.0469 27.4942 19.0715 27.3703 19.1194 27.2548C19.1672 27.1392 19.2374 27.0343 19.3258 26.9458C19.4143 26.8574 19.5192 26.7872 19.6348 26.7394C19.7503 26.6915 19.8742 26.6669 19.9993 26.6669C20.1243 26.6669 20.2482 26.6915 20.3637 26.7394C20.4793 26.7872 20.5843 26.8574 20.6727 26.9458C20.7611 27.0343 20.8313 27.1392 20.8791 27.2548C20.927 27.3703 20.9516 27.4942 20.9516 27.6193Z" fill="url(#paint12_linear)"/>
<path d="M26.6675 27.6193C26.6675 27.8719 26.5671 28.1141 26.3885 28.2927C26.2099 28.4713 25.9677 28.5717 25.7151 28.5717C25.4625 28.5717 25.2203 28.4713 25.0416 28.2927C24.863 28.1141 24.7627 27.8719 24.7627 27.6193C24.7627 27.4942 24.7873 27.3703 24.8352 27.2548C24.8831 27.1392 24.9532 27.0343 25.0416 26.9458C25.1301 26.8574 25.2351 26.7872 25.3506 26.7394C25.4662 26.6915 25.59 26.6669 25.7151 26.6669C25.8401 26.6669 25.964 26.6915 26.0795 26.7394C26.1951 26.7872 26.3001 26.8574 26.3885 26.9458C26.477 27.0343 26.5471 27.1392 26.595 27.2548C26.6428 27.3703 26.6675 27.4942 26.6675 27.6193Z" fill="url(#paint13_linear)"/>
<path d="M9.5239 32.3812C9.5239 32.5063 9.49927 32.6302 9.45141 32.7457C9.40355 32.8613 9.3334 32.9662 9.24496 33.0547C9.15652 33.1431 9.05153 33.2133 8.93598 33.2611C8.82044 33.309 8.69659 33.3336 8.57152 33.3336C8.44645 33.3336 8.32261 33.309 8.20706 33.2611C8.09151 33.2133 7.98652 33.1431 7.89808 33.0547C7.80965 32.9662 7.7395 32.8613 7.69163 32.7457C7.64377 32.6302 7.61914 32.5063 7.61914 32.3812C7.61914 32.2562 7.64377 32.1323 7.69163 32.0167C7.7395 31.9012 7.80965 31.7962 7.89808 31.7078C7.98652 31.6194 8.09151 31.5492 8.20706 31.5013C8.32261 31.4535 8.44645 31.4288 8.57152 31.4288C8.69659 31.4288 8.82044 31.4535 8.93598 31.5013C9.05153 31.5492 9.15652 31.6194 9.24496 31.7078C9.3334 31.7962 9.40355 31.9012 9.45141 32.0167C9.49927 32.1323 9.5239 32.2562 9.5239 32.3812Z" fill="url(#paint14_linear)"/>
<path d="M15.2378 32.3812C15.2378 32.5063 15.2131 32.6302 15.1653 32.7457C15.1174 32.8613 15.0473 32.9662 14.9588 33.0547C14.8704 33.1431 14.7654 33.2133 14.6499 33.2611C14.5343 33.309 14.4105 33.3336 14.2854 33.3336C14.1603 33.3336 14.0365 33.309 13.9209 33.2611C13.8054 33.2133 13.7004 33.1431 13.612 33.0547C13.5235 32.9662 13.4534 32.8613 13.4055 32.7457C13.3576 32.6302 13.333 32.5063 13.333 32.3812C13.333 32.2562 13.3576 32.1323 13.4055 32.0167C13.4534 31.9012 13.5235 31.7962 13.612 31.7078C13.7004 31.6194 13.8054 31.5492 13.9209 31.5013C14.0365 31.4535 14.1603 31.4288 14.2854 31.4288C14.4105 31.4288 14.5343 31.4535 14.6499 31.5013C14.7654 31.5492 14.8704 31.6194 14.9588 31.7078C15.0473 31.7962 15.1174 31.9012 15.1653 32.0167C15.2131 32.1323 15.2378 32.2562 15.2378 32.3812Z" fill="url(#paint15_linear)"/>
<path d="M20.9516 32.3812C20.9516 32.5063 20.927 32.6302 20.8791 32.7457C20.8313 32.8613 20.7611 32.9662 20.6727 33.0547C20.5843 33.1431 20.4793 33.2133 20.3637 33.2611C20.2482 33.309 20.1243 33.3336 19.9993 33.3336C19.8742 33.3336 19.7503 33.309 19.6348 33.2611C19.5192 33.2133 19.4143 33.1431 19.3258 33.0547C19.2374 32.9662 19.1672 32.8613 19.1194 32.7457C19.0715 32.6302 19.0469 32.5063 19.0469 32.3812C19.0469 32.2562 19.0715 32.1323 19.1194 32.0167C19.1672 31.9012 19.2374 31.7962 19.3258 31.7078C19.4143 31.6194 19.5192 31.5492 19.6348 31.5013C19.7503 31.4535 19.8742 31.4288 19.9993 31.4288C20.1243 31.4288 20.2482 31.4535 20.3637 31.5013C20.4793 31.5492 20.5843 31.6194 20.6727 31.7078C20.7611 31.7962 20.8313 31.9012 20.8791 32.0167C20.927 32.1323 20.9516 32.2562 20.9516 32.3812Z" fill="url(#paint16_linear)"/>
<path d="M26.6675 32.3812C26.6675 32.5063 26.6428 32.6302 26.595 32.7457C26.5471 32.8613 26.477 32.9662 26.3885 33.0547C26.3001 33.1431 26.1951 33.2133 26.0795 33.2611C25.964 33.309 25.8401 33.3336 25.7151 33.3336C25.59 33.3336 25.4662 33.309 25.3506 33.2611C25.2351 33.2133 25.1301 33.1431 25.0416 33.0547C24.9532 32.9662 24.8831 32.8613 24.8352 32.7457C24.7873 32.6302 24.7627 32.5063 24.7627 32.3812C24.7627 32.2562 24.7873 32.1323 24.8352 32.0167C24.8831 31.9012 24.9532 31.7962 25.0416 31.7078C25.1301 31.6194 25.2351 31.5492 25.3506 31.5013C25.4662 31.4535 25.59 31.4288 25.7151 31.4288C25.8401 31.4288 25.964 31.4535 26.0795 31.5013C26.1951 31.5492 26.3001 31.6194 26.3885 31.7078C26.477 31.7962 26.5471 31.9012 26.595 32.0167C26.6428 32.1323 26.6675 32.2562 26.6675 32.3812Z" fill="url(#paint17_linear)"/>
<defs>
<linearGradient id="paint0_linear" x1="16.9746" y1="-11.0811" x2="16.9746" y2="51.4054" gradientUnits="userSpaceOnUse">
<stop stop-color="#C7DAFD"/>
<stop offset="1" stop-color="#E9F1FF"/>
</linearGradient>
<linearGradient id="paint1_linear" x1="0" y1="0" x2="29.9962" y2="44.3843" gradientUnits="userSpaceOnUse">
<stop stop-color="#2569E6"/>
<stop offset="1" stop-color="#3649EF"/>
</linearGradient>
<linearGradient id="paint2_linear" x1="7.61914" y1="17.1429" x2="9.04756" y2="19.2565" gradientUnits="userSpaceOnUse">
<stop stop-color="#2569E6"/>
<stop offset="1" stop-color="#3649EF"/>
</linearGradient>
<linearGradient id="paint3_linear" x1="13.333" y1="17.1429" x2="14.7614" y2="19.2565" gradientUnits="userSpaceOnUse">
<stop stop-color="#2569E6"/>
<stop offset="1" stop-color="#3649EF"/>
</linearGradient>
<linearGradient id="paint4_linear" x1="19.0469" y1="17.1429" x2="20.4753" y2="19.2565" gradientUnits="userSpaceOnUse">
<stop stop-color="#2569E6"/>
<stop offset="1" stop-color="#3649EF"/>
</linearGradient>
<linearGradient id="paint5_linear" x1="24.7627" y1="17.1429" x2="26.1911" y2="19.2565" gradientUnits="userSpaceOnUse">
<stop stop-color="#2569E6"/>
<stop offset="1" stop-color="#3649EF"/>
</linearGradient>
<linearGradient id="paint6_linear" x1="7.61914" y1="21.9049" x2="9.04756" y2="24.0185" gradientUnits="userSpaceOnUse">
<stop stop-color="#2569E6"/>
<stop offset="1" stop-color="#3649EF"/>
</linearGradient>
<linearGradient id="paint7_linear" x1="13.333" y1="21.9049" x2="14.7614" y2="24.0185" gradientUnits="userSpaceOnUse">
<stop stop-color="#2569E6"/>
<stop offset="1" stop-color="#3649EF"/>
</linearGradient>
<linearGradient id="paint8_linear" x1="19.0469" y1="21.9049" x2="20.4753" y2="24.0185" gradientUnits="userSpaceOnUse">
<stop stop-color="#2569E6"/>
<stop offset="1" stop-color="#3649EF"/>
</linearGradient>
<linearGradient id="paint9_linear" x1="24.7627" y1="21.9049" x2="26.1911" y2="24.0185" gradientUnits="userSpaceOnUse">
<stop stop-color="#2569E6"/>
<stop offset="1" stop-color="#3649EF"/>
</linearGradient>
<linearGradient id="paint10_linear" x1="7.61914" y1="26.6669" x2="9.04756" y2="28.7804" gradientUnits="userSpaceOnUse">
<stop stop-color="#2569E6"/>
<stop offset="1" stop-color="#3649EF"/>
</linearGradient>
<linearGradient id="paint11_linear" x1="13.333" y1="26.6669" x2="14.7614" y2="28.7804" gradientUnits="userSpaceOnUse">
<stop stop-color="#2569E6"/>
<stop offset="1" stop-color="#3649EF"/>
</linearGradient>
<linearGradient id="paint12_linear" x1="19.0469" y1="26.6669" x2="20.4753" y2="28.7804" gradientUnits="userSpaceOnUse">
<stop stop-color="#2569E6"/>
<stop offset="1" stop-color="#3649EF"/>
</linearGradient>
<linearGradient id="paint13_linear" x1="24.7627" y1="26.6669" x2="26.1911" y2="28.7804" gradientUnits="userSpaceOnUse">
<stop stop-color="#2569E6"/>
<stop offset="1" stop-color="#3649EF"/>
</linearGradient>
<linearGradient id="paint14_linear" x1="7.61914" y1="31.4288" x2="9.04756" y2="33.5424" gradientUnits="userSpaceOnUse">
<stop stop-color="#2569E6"/>
<stop offset="1" stop-color="#3649EF"/>
</linearGradient>
<linearGradient id="paint15_linear" x1="13.333" y1="31.4288" x2="14.7614" y2="33.5424" gradientUnits="userSpaceOnUse">
<stop stop-color="#2569E6"/>
<stop offset="1" stop-color="#3649EF"/>
</linearGradient>
<linearGradient id="paint16_linear" x1="19.0469" y1="31.4288" x2="20.4753" y2="33.5424" gradientUnits="userSpaceOnUse">
<stop stop-color="#2569E6"/>
<stop offset="1" stop-color="#3649EF"/>
</linearGradient>
<linearGradient id="paint17_linear" x1="24.7627" y1="31.4288" x2="26.1911" y2="33.5424" gradientUnits="userSpaceOnUse">
<stop stop-color="#2569E6"/>
<stop offset="1" stop-color="#3649EF"/>
</linearGradient>
</defs>
</svg>
