<svg width="48" height="48" viewBox="0 0 48 48" fill="none" xmlns="http://www.w3.org/2000/svg">
<path d="M21.8057 4C17.493 4 13.2771 5.27888 9.69112 7.67493C6.10519 10.071 3.31029 13.4766 1.65987 17.461C0.00944808 21.4455 -0.422378 25.8299 0.419001 30.0598C1.26038 34.2897 3.33717 38.1751 6.38676 41.2247C9.43634 44.2743 13.3217 46.3511 17.5516 47.1924C21.7815 48.0338 26.1659 47.602 30.1504 45.9516C34.1349 44.3011 37.5405 41.5063 39.9365 37.9203C42.3326 34.3344 43.6114 30.1185 43.6114 25.8057C43.6114 20.0225 41.3141 14.4761 37.2247 10.3867C33.1353 6.29738 27.589 4 21.8057 4V4ZM23.3143 28.4773C23.3117 28.5347 23.3058 28.5919 23.2965 28.6487C23.2965 28.6912 23.2882 28.7365 23.2786 28.7776C23.269 28.8187 23.2526 28.8654 23.2375 28.9147C23.222 28.9678 23.2037 29.02 23.1826 29.0711C23.1826 29.0793 23.1826 29.0889 23.173 29.0985C23.1406 29.1671 23.103 29.2331 23.0606 29.296L23.0524 29.307C23.0047 29.3753 22.9515 29.4395 22.8933 29.499L22.8439 29.5456C22.7943 29.5951 22.7411 29.641 22.6848 29.6827L22.6327 29.7198C22.5609 29.7668 22.4852 29.8077 22.4064 29.8418C22.39 29.8501 22.3721 29.8542 22.3543 29.861C22.2882 29.8868 22.2204 29.9079 22.1513 29.9241L22.0773 29.9406C21.9869 29.9581 21.8951 29.9672 21.803 29.968C21.7852 29.968 21.766 29.968 21.7468 29.968C21.6602 29.9662 21.5739 29.9571 21.4889 29.9406C21.4629 29.9406 21.4368 29.9241 21.4108 29.9159C21.3334 29.8962 21.2578 29.8705 21.1845 29.8391L21.1598 29.8309L12.7941 25.8866C12.4335 25.7152 12.1557 25.4078 12.0213 25.0319C11.887 24.656 11.9071 24.2421 12.0773 23.881C12.2475 23.5199 12.5539 23.241 12.9294 23.1054C13.3049 22.9698 13.7188 22.9885 14.0805 23.1575L20.2972 26.0704V13.0514C20.2972 12.8533 20.3362 12.6572 20.412 12.4741C20.4878 12.2911 20.5989 12.1248 20.739 11.9847C20.8791 11.8446 21.0454 11.7335 21.2284 11.6577C21.4114 11.5819 21.6076 11.5429 21.8057 11.5429C22.0038 11.5429 22.2 11.5819 22.383 11.6577C22.5661 11.7335 22.7324 11.8446 22.8724 11.9847C23.0125 12.1248 23.1237 12.2911 23.1995 12.4741C23.2753 12.6572 23.3143 12.8533 23.3143 13.0514V28.4498C23.3143 28.4581 23.3143 28.4677 23.3143 28.4773Z" fill="url(#paint0_linear)"/>
<defs>
<linearGradient id="paint0_linear" x1="21.8057" y1="4" x2="21.8057" y2="47.6114" gradientUnits="userSpaceOnUse">
<stop stop-color="#2569E9"/>
<stop offset="1" stop-color="#4183FF"/>
</linearGradient>
</defs>
</svg>
