<svg width="48" height="48" viewBox="0 0 48 48" fill="none" xmlns="http://www.w3.org/2000/svg">
<path d="M21.9996 4C9.84971 4 0 13.8499 0 25.9998C0 38.1493 9.84971 48 21.9996 48C34.1496 48 44 38.1493 44 25.9998C44 13.8496 34.1496 4 21.9996 4ZM22.0667 36.3789V36.3786H21.9323H12.5349C12.5349 29.5063 18.5707 29.5079 19.91 27.711L20.0633 26.8915C18.1815 25.9379 16.8532 23.6387 16.8532 20.9497C16.8532 17.4071 19.1576 14.5347 21.9996 14.5347C24.8416 14.5347 27.1461 17.4071 27.1461 20.9497C27.1461 23.6158 25.8413 25.9006 23.9847 26.8694L24.1592 27.8006C25.6287 29.5104 31.4636 29.6219 31.4636 36.3789H22.0667V36.3789Z" fill="url(#paint0_linear)"/>
<defs>
<linearGradient id="paint0_linear" x1="30.7083" y1="4" x2="14.2083" y2="48" gradientUnits="userSpaceOnUse">
<stop stop-color="#25E689"/>
<stop offset="1" stop-color="#3DEF99"/>
</linearGradient>
</defs>
</svg>
