<svg width="37" height="40" viewBox="0 0 37 40" fill="none" xmlns="http://www.w3.org/2000/svg">
<path d="M1.5 38.5V2L4.5 1.5L8 2V7H31V38.5H16H1.5Z" fill="url(#paint0_linear)"/>
<path d="M4.76098 0C2.13978 0.000511048 0 2.14061 0 4.7619V37.1429C0 38.7092 1.29076 40 2.85714 40H29.5238C31.0902 40 32.381 38.7092 32.381 37.1429V7.61719H35.2372C35.7619 7.61726 36.1877 7.19331 36.1895 6.66853V3.81045C36.1895 1.71645 34.4731 0 32.3791 0H4.76098ZM4.76191 1.90476C6.36123 1.90476 7.61905 3.16259 7.61905 4.7619V6.66667C7.6191 7.19263 8.04547 7.619 8.57143 7.61905H30.4762V37.1429C30.4762 37.6869 30.0679 38.0952 29.5238 38.0952H2.85714C2.31309 38.0952 1.90476 37.6869 1.90476 37.1429V4.7619C1.90476 3.16259 3.16258 1.90476 4.76191 1.90476ZM32.3791 1.90571C33.4508 1.90571 34.2848 2.73876 34.2848 3.81048V5.71617L9.52381 5.71429V4.7619C9.52381 3.69059 9.16189 2.70304 8.56027 1.90569L32.3791 1.90571Z" fill="url(#paint1_linear)"/>
<path d="M8.57175 18.0962C8.3191 18.0962 8.0768 18.1966 7.89815 18.3752C7.7195 18.5539 7.61914 18.7962 7.61914 19.0488C7.61914 19.3015 7.7195 19.5438 7.89815 19.7224C8.0768 19.9011 8.3191 20.0014 8.57175 20.0014H23.8101C24.0627 20.0014 24.305 19.9011 24.4837 19.7224C24.6623 19.5438 24.7627 19.3015 24.7627 19.0488C24.7627 18.7962 24.6623 18.5539 24.4837 18.3752C24.305 18.1966 24.0627 18.0962 23.8101 18.0962H8.57175Z" fill="#2569E6"/>
<path d="M8.57175 22.8557C8.44665 22.8557 8.32278 22.8803 8.2072 22.9282C8.09163 22.9761 7.98661 23.0463 7.89815 23.1347C7.8097 23.2232 7.73953 23.3282 7.69165 23.4438C7.64378 23.5594 7.61914 23.6832 7.61914 23.8083C7.61914 23.9334 7.64378 24.0573 7.69165 24.1729C7.73953 24.2884 7.8097 24.3935 7.89815 24.4819C7.98661 24.5704 8.09163 24.6406 8.2072 24.6884C8.32278 24.7363 8.44665 24.7609 8.57175 24.7609H23.8101C23.9352 24.7609 24.0591 24.7363 24.1746 24.6884C24.2902 24.6406 24.3952 24.5704 24.4837 24.4819C24.5721 24.3935 24.6423 24.2884 24.6902 24.1729C24.7381 24.0573 24.7627 23.9334 24.7627 23.8083C24.7627 23.6832 24.7381 23.5594 24.6902 23.4438C24.6423 23.3282 24.5721 23.2232 24.4837 23.1347C24.3952 23.0463 24.2902 22.9761 24.1746 22.9282C24.0591 22.8803 23.9352 22.8557 23.8101 22.8557H8.57175Z" fill="#2569E6"/>
<path d="M16.1929 27.6188C15.9402 27.6188 15.6979 27.7191 15.5193 27.8978C15.3406 28.0764 15.2402 28.3187 15.2402 28.5714C15.2402 28.824 15.3406 29.0663 15.5193 29.245C15.6979 29.4236 15.9402 29.524 16.1929 29.524H23.8103C24.0629 29.524 24.3052 29.4236 24.4839 29.245C24.6625 29.0663 24.7629 28.824 24.7629 28.5714C24.7629 28.3187 24.6625 28.0764 24.4839 27.8978C24.3052 27.7191 24.0629 27.6188 23.8103 27.6188H16.1929Z" fill="#2569E6"/>
<path d="M8.57176 13.3331C8.31911 13.3331 8.07681 13.4335 7.89816 13.6121C7.71951 13.7908 7.61914 14.0331 7.61914 14.2857C7.61914 14.5384 7.71951 14.7807 7.89816 14.9593C8.07681 15.138 8.31911 15.2384 8.57176 15.2384H16.1927C16.4453 15.2384 16.6876 15.138 16.8663 14.9593C17.0449 14.7807 17.1453 14.5384 17.1453 14.2857C17.1453 14.0331 17.0449 13.7908 16.8663 13.6121C16.6876 13.4335 16.4453 13.3331 16.1927 13.3331H8.57176Z" fill="#2569E6"/>
<defs>
<linearGradient id="paint0_linear" x1="16" y1="-16" x2="16" y2="52" gradientUnits="userSpaceOnUse">
<stop stop-color="#C7DAFD"/>
<stop offset="1" stop-color="#E9F1FF"/>
</linearGradient>
<linearGradient id="paint1_linear" x1="0" y1="0" x2="31" y2="41.5" gradientUnits="userSpaceOnUse">
<stop stop-color="#2569E6"/>
<stop offset="1" stop-color="#3649EF"/>
</linearGradient>
</defs>
</svg>
