<svg width="48" height="48" viewBox="0 0 48 48" fill="none" xmlns="http://www.w3.org/2000/svg">
<path d="M10.715 18.2714L31.0128 12.2454C31.51 12.0976 32.0321 12.0521 32.5474 12.1117C33.0627 12.1714 33.5606 12.3349 34.0109 12.5923C34.4613 12.8498 34.8547 13.1959 35.1676 13.6097C35.4804 14.0235 35.7061 14.4964 35.831 14.9999L36.8829 19.1985H10.8487C10.7342 19.1998 10.6231 19.1594 10.5361 19.0849C10.4491 19.0104 10.3922 18.9069 10.3758 18.7935C10.3595 18.6802 10.3848 18.5648 10.4472 18.4687C10.5096 18.3727 10.6048 18.3026 10.715 18.2714ZM20.8371 4.68161L3.16011 16.8229C3.09002 16.888 3.04272 16.9739 3.02521 17.0679C3.0077 17.162 3.02091 17.2591 3.06289 17.3451C3.10487 17.431 3.17338 17.5012 3.25831 17.5452C3.34324 17.5892 3.44008 17.6048 3.53451 17.5895L28.4945 9.5087H28.548L26.2838 5.81818C26.0099 5.37562 25.6489 4.99338 25.2226 4.69473C24.7964 4.39607 24.3139 4.18724 23.8044 4.08092C23.2949 3.97461 22.7691 3.97303 22.259 4.0763C21.7489 4.17957 21.2652 4.38551 20.8371 4.68161ZM19.5 40.2095C20.4935 40.2095 21.4647 39.9149 22.2907 39.3629C23.1168 38.811 23.7606 38.0265 24.1408 37.1086C24.521 36.1907 24.6205 35.1807 24.4267 34.2063C24.2329 33.2319 23.7544 32.3369 23.0519 31.6344C22.3494 30.9319 21.4544 30.4534 20.48 30.2596C19.5056 30.0658 18.4956 30.1653 17.5777 30.5455C16.6598 30.9257 15.8753 31.5695 15.3234 32.3956C14.7714 33.2216 14.4768 34.1928 14.4768 35.1863C14.4768 36.5185 15.006 37.7962 15.9481 38.7382C16.8901 39.6803 18.1678 40.2095 19.5 40.2095ZM3.79749 22.6796H35.2025C36.2097 22.6796 37.1756 23.0796 37.8877 23.7918C38.5999 24.504 39 25.4699 39 26.477V43.8911C39 44.8983 38.5999 45.8642 37.8877 46.5763C37.1756 47.2885 36.2097 47.6886 35.2025 47.6886H3.79749C2.79033 47.6886 1.82442 47.2885 1.11226 46.5763C0.400091 45.8642 0 44.8983 0 43.8911V26.477C0 25.4699 0.400091 24.504 1.11226 23.7918C1.82442 23.0796 2.79033 22.6796 3.79749 22.6796ZM4.34571 38.0924C5.62662 38.3819 6.79959 39.0276 7.72937 39.9551C8.65914 40.8825 9.30785 42.0538 9.60069 43.334H29.3993C29.6921 42.0538 30.3409 40.8825 31.2706 39.9551C32.2004 39.0276 33.3734 38.3819 34.6543 38.0924V32.2981C33.3705 32.0068 32.1956 31.3577 31.2655 30.4261C30.3355 29.4945 29.6884 28.3184 29.3993 27.0342H9.60069C9.30785 28.3143 8.65914 29.4857 7.72937 30.4131C6.79959 31.3405 5.62662 31.9862 4.34571 32.2758V38.0924Z" fill="url(#paint0_linear)"/>
<defs>
<linearGradient id="paint0_linear" x1="19.5" y1="4" x2="19.5" y2="47.6886" gradientUnits="userSpaceOnUse">
<stop stop-color="#AF5EE5"/>
<stop offset="1" stop-color="#9208EC"/>
</linearGradient>
</defs>
</svg>
