<svg width="548" height="607" viewBox="0 0 548 607" fill="none" xmlns="http://www.w3.org/2000/svg">
<path d="M125.101 425.263L190.766 387.424V55.3135L125.101 93.154V425.263Z" fill="url(#paint0_linear)" stroke="url(#paint1_linear)"/>
<path d="M125.164 425.491V93.02L59.4994 55.1794V387.651L125.164 425.491Z" fill="url(#paint2_linear)" stroke="url(#paint3_linear)"/>
<path d="M60.01 54.5057L125.687 92.4217L190.5 54.5057L125.687 17.5745L60.01 54.5057Z" fill="#F8F8F8" stroke="url(#paint4_linear)"/>
<path d="M456.486 476.415L521.523 438.937V109.961L456.486 147.44V476.415Z" fill="url(#paint5_linear)" stroke="url(#paint6_linear)"/>
<path d="M456.537 476.64V147.308L391.5 109.828V439.162L456.537 476.64Z" fill="url(#paint7_linear)" stroke="url(#paint8_linear)"/>
<path d="M392.012 109.153L457.062 146.707L521.256 109.153L457.062 72.5745L392.012 109.153Z" fill="#F8F8F8" stroke="url(#paint9_linear)"/>
<path d="M265.602 605.307L318.564 574.787V306.178L265.602 336.698V605.307Z" fill="url(#paint10_linear)" stroke="url(#paint11_linear)"/>
<path d="M265.463 605.491V336.59L212.501 306.069V574.971L265.463 605.491Z" fill="url(#paint12_linear)" stroke="url(#paint13_linear)"/>
<path d="M213.011 305.36L265.981 335.94L318.254 305.36L265.981 275.575L213.011 305.36Z" fill="#F8F8F8" stroke="url(#paint14_linear)"/>
<g filter="url(#filter0_ddi)">
<circle cx="274" cy="274" r="164" fill="white"/>
<circle cx="274" cy="274" r="163.5" stroke="white"/>
</g>
<g filter="url(#filter1_b)">
<circle cx="274" cy="274" r="140.023" fill="url(#paint15_linear)" fill-opacity="0.25"/>
</g>
<g clip-path="url(#clip0)">
<path d="M247.1 264.149C247.1 265.631 247.261 266.832 247.543 267.713C247.865 268.594 248.267 269.555 248.83 270.596C249.032 270.917 249.112 271.237 249.112 271.517C249.112 271.918 248.871 272.318 248.347 272.719L245.812 274.4C245.45 274.641 245.088 274.761 244.766 274.761C244.363 274.761 243.961 274.561 243.559 274.2C242.995 273.6 242.512 272.959 242.11 272.318C241.707 271.637 241.305 270.877 240.862 269.955C237.723 273.64 233.779 275.482 229.031 275.482C225.65 275.482 222.954 274.521 220.982 272.598C219.01 270.676 218.004 268.113 218.004 264.91C218.004 261.506 219.211 258.743 221.666 256.661C224.121 254.578 227.381 253.537 231.526 253.537C232.894 253.537 234.303 253.657 235.792 253.858C237.281 254.058 238.81 254.378 240.42 254.739V251.815C240.42 248.772 239.776 246.65 238.528 245.408C237.24 244.167 235.067 243.566 231.968 243.566C230.56 243.566 229.111 243.726 227.622 244.087C226.133 244.447 224.684 244.888 223.276 245.448C222.632 245.729 222.149 245.889 221.867 245.969C221.586 246.049 221.384 246.089 221.223 246.089C220.66 246.089 220.378 245.689 220.378 244.848V242.885C220.378 242.245 220.459 241.764 220.66 241.484C220.861 241.204 221.223 240.923 221.787 240.643C223.195 239.922 224.886 239.321 226.857 238.841C228.829 238.32 230.922 238.08 233.135 238.08C237.924 238.08 241.426 239.161 243.679 241.324C245.893 243.486 247.019 246.77 247.019 251.175V264.149H247.1V264.149ZM230.761 270.236C232.089 270.236 233.457 269.996 234.906 269.515C236.355 269.034 237.643 268.153 238.729 266.952C239.373 266.191 239.856 265.35 240.098 264.389C240.339 263.428 240.5 262.267 240.5 260.905V259.224C239.333 258.943 238.085 258.703 236.798 258.543C235.51 258.383 234.262 258.303 233.015 258.303C230.318 258.303 228.346 258.823 227.018 259.904C225.69 260.986 225.047 262.507 225.047 264.509C225.047 266.392 225.529 267.793 226.536 268.754C227.501 269.755 228.91 270.236 230.761 270.236ZM263.077 274.561C262.352 274.561 261.869 274.44 261.547 274.16C261.225 273.92 260.944 273.359 260.702 272.598L251.245 241.644C251.004 240.843 250.883 240.323 250.883 240.042C250.883 239.402 251.205 239.041 251.849 239.041H255.793C256.557 239.041 257.08 239.161 257.362 239.442C257.684 239.682 257.925 240.242 258.167 241.003L264.928 267.513L271.206 241.003C271.407 240.202 271.648 239.682 271.97 239.442C272.292 239.201 272.856 239.041 273.58 239.041H276.8C277.564 239.041 278.087 239.161 278.409 239.442C278.731 239.682 279.013 240.242 279.174 241.003L285.532 267.833L292.495 241.003C292.736 240.202 293.018 239.682 293.299 239.442C293.621 239.201 294.145 239.041 294.869 239.041H298.612C299.255 239.041 299.618 239.362 299.618 240.042C299.618 240.242 299.577 240.443 299.537 240.683C299.497 240.923 299.416 241.244 299.255 241.684L289.557 272.638C289.315 273.439 289.034 273.96 288.712 274.2C288.39 274.44 287.867 274.601 287.182 274.601H283.721C282.957 274.601 282.434 274.481 282.112 274.2C281.79 273.92 281.508 273.399 281.347 272.598L275.109 246.77L268.912 272.558C268.711 273.359 268.469 273.88 268.147 274.16C267.825 274.44 267.262 274.561 266.538 274.561H263.077V274.561ZM314.789 275.642C312.697 275.642 310.604 275.402 308.592 274.921C306.58 274.44 305.01 273.92 303.964 273.319C303.32 272.959 302.877 272.558 302.716 272.198C302.555 271.838 302.475 271.437 302.475 271.077V269.034C302.475 268.194 302.797 267.793 303.401 267.793C303.642 267.793 303.883 267.833 304.125 267.913C304.366 267.993 304.729 268.153 305.131 268.314C306.499 268.914 307.988 269.395 309.558 269.715C311.168 270.036 312.737 270.196 314.347 270.196C316.882 270.196 318.854 269.755 320.222 268.874C321.591 267.993 322.315 266.712 322.315 265.07C322.315 263.949 321.953 263.028 321.228 262.267C320.504 261.506 319.136 260.825 317.164 260.185L311.328 258.383C308.391 257.462 306.218 256.1 304.89 254.298C303.561 252.536 302.877 250.574 302.877 248.492C302.877 246.81 303.24 245.328 303.964 244.047C304.688 242.765 305.654 241.644 306.861 240.763C308.069 239.842 309.437 239.161 311.047 238.681C312.657 238.2 314.347 238 316.117 238C317.003 238 317.928 238.04 318.814 238.16C319.739 238.28 320.584 238.44 321.43 238.601C322.234 238.801 322.999 239.001 323.723 239.241C324.448 239.482 325.011 239.722 325.414 239.962C325.977 240.283 326.38 240.603 326.621 240.963C326.862 241.284 326.983 241.724 326.983 242.285V244.167C326.983 245.008 326.661 245.448 326.058 245.448C325.736 245.448 325.212 245.288 324.528 244.968C322.234 243.927 319.659 243.406 316.802 243.406C314.508 243.406 312.697 243.766 311.449 244.527C310.202 245.288 309.558 246.449 309.558 248.091C309.558 249.212 309.96 250.174 310.765 250.934C311.57 251.695 313.059 252.456 315.192 253.137L320.906 254.939C323.804 255.86 325.897 257.141 327.144 258.783C328.392 260.425 328.995 262.307 328.995 264.389C328.995 266.111 328.633 267.673 327.949 269.034C327.225 270.396 326.259 271.597 325.011 272.558C323.764 273.56 322.275 274.28 320.544 274.801C318.733 275.362 316.842 275.642 314.789 275.642Z" fill="#252F3E"/>
<path d="M322.395 295.103C309.154 304.834 289.918 310 273.378 310C250.198 310 229.311 301.471 213.536 287.295C212.289 286.174 213.415 284.652 214.904 285.533C231.968 295.384 253.015 301.35 274.787 301.35C289.475 301.35 305.613 298.307 320.463 292.06C322.676 291.059 324.568 293.502 322.395 295.103ZM327.908 288.857C326.218 286.694 316.72 287.815 312.414 288.336C311.126 288.496 310.925 287.375 312.092 286.534C319.658 281.248 332.093 282.77 333.542 284.532C334.991 286.334 333.14 298.707 326.057 304.634C324.97 305.555 323.924 305.075 324.407 303.873C326.017 299.909 329.598 290.979 327.908 288.857Z" fill="#FF9900"/>
</g>
<defs>
<filter id="filter0_ddi" x="0" y="0" width="548" height="548" filterUnits="userSpaceOnUse" color-interpolation-filters="sRGB">
<feFlood flood-opacity="0" result="BackgroundImageFix"/>
<feColorMatrix in="SourceAlpha" type="matrix" values="0 0 0 0 0 0 0 0 0 0 0 0 0 0 0 0 0 0 127 0"/>
<feOffset dx="30" dy="30"/>
<feGaussianBlur stdDeviation="40"/>
<feColorMatrix type="matrix" values="0 0 0 0 0.215686 0 0 0 0 0.329412 0 0 0 0 0.666667 0 0 0 0.1 0"/>
<feBlend mode="normal" in2="BackgroundImageFix" result="effect1_dropShadow"/>
<feColorMatrix in="SourceAlpha" type="matrix" values="0 0 0 0 0 0 0 0 0 0 0 0 0 0 0 0 0 0 127 0"/>
<feOffset dx="-30" dy="-30"/>
<feGaussianBlur stdDeviation="40"/>
<feColorMatrix type="matrix" values="0 0 0 0 0.972549 0 0 0 0 0.972549 0 0 0 0 0.972549 0 0 0 1 0"/>
<feBlend mode="normal" in2="effect1_dropShadow" result="effect2_dropShadow"/>
<feBlend mode="normal" in="SourceGraphic" in2="effect2_dropShadow" result="shape"/>
<feColorMatrix in="SourceAlpha" type="matrix" values="0 0 0 0 0 0 0 0 0 0 0 0 0 0 0 0 0 0 127 0" result="hardAlpha"/>
<feOffset dx="4" dy="4"/>
<feGaussianBlur stdDeviation="10"/>
<feComposite in2="hardAlpha" operator="arithmetic" k2="-1" k3="1"/>
<feColorMatrix type="matrix" values="0 0 0 0 1 0 0 0 0 1 0 0 0 0 1 0 0 0 0.5 0"/>
<feBlend mode="normal" in2="shape" result="effect3_innerShadow"/>
</filter>
<filter id="filter1_b" x="99.9766" y="99.9766" width="348.047" height="348.047" filterUnits="userSpaceOnUse" color-interpolation-filters="sRGB">
<feFlood flood-opacity="0" result="BackgroundImageFix"/>
<feGaussianBlur in="BackgroundImage" stdDeviation="17"/>
<feComposite in2="SourceAlpha" operator="in" result="effect1_backgroundBlur"/>
<feBlend mode="normal" in="SourceGraphic" in2="effect1_backgroundBlur" result="shape"/>
</filter>
<linearGradient id="paint0_linear" x1="157.933" y1="82.8297" x2="157.933" y2="319.817" gradientUnits="userSpaceOnUse">
<stop stop-color="#F7F7F7"/>
<stop offset="1" stop-color="#DDE0E4" stop-opacity="0"/>
</linearGradient>
<linearGradient id="paint1_linear" x1="157.933" y1="54.4482" x2="157.933" y2="426.128" gradientUnits="userSpaceOnUse">
<stop stop-color="#6D7785"/>
<stop offset="0.684023" stop-opacity="0"/>
</linearGradient>
<linearGradient id="paint2_linear" x1="92.3317" y1="82.7233" x2="92.3317" y2="319.941" gradientUnits="userSpaceOnUse">
<stop stop-color="#DCE5FF"/>
<stop offset="1" stop-color="#DDE0E4" stop-opacity="0"/>
</linearGradient>
<linearGradient id="paint3_linear" x1="92.3317" y1="54.3142" x2="92.3317" y2="426.356" gradientUnits="userSpaceOnUse">
<stop stop-color="#6D7785"/>
<stop offset="0.684023" stop-opacity="0"/>
</linearGradient>
<linearGradient id="paint4_linear" x1="125.689" y1="17" x2="125.689" y2="93.8324" gradientUnits="userSpaceOnUse">
<stop stop-color="#52637A"/>
<stop offset="1" stop-color="#A6BBD9"/>
</linearGradient>
<linearGradient id="paint5_linear" x1="489.005" y1="137.211" x2="489.005" y2="371.968" gradientUnits="userSpaceOnUse">
<stop stop-color="#DCE5FF"/>
<stop offset="1" stop-color="#DDE0E4" stop-opacity="0"/>
</linearGradient>
<linearGradient id="paint6_linear" x1="489.005" y1="109.096" x2="489.005" y2="477.28" gradientUnits="userSpaceOnUse">
<stop stop-color="#6D7785"/>
<stop offset="0.684023" stop-opacity="0"/>
</linearGradient>
<linearGradient id="paint7_linear" x1="424.018" y1="137.105" x2="424.018" y2="372.091" gradientUnits="userSpaceOnUse">
<stop stop-color="#F7F7F7"/>
<stop offset="1" stop-color="#DDE0E4" stop-opacity="0"/>
</linearGradient>
<linearGradient id="paint8_linear" x1="424.018" y1="108.963" x2="424.018" y2="477.505" gradientUnits="userSpaceOnUse">
<stop stop-color="#6D7785"/>
<stop offset="0.684023" stop-opacity="0"/>
</linearGradient>
<linearGradient id="paint9_linear" x1="457.064" y1="72" x2="457.064" y2="148.11" gradientUnits="userSpaceOnUse">
<stop stop-color="#52637A"/>
<stop offset="1" stop-color="#A6BBD9"/>
</linearGradient>
<linearGradient id="paint10_linear" x1="292.083" y1="328.286" x2="292.083" y2="520.117" gradientUnits="userSpaceOnUse">
<stop stop-color="#DCE5FF"/>
<stop offset="1" stop-color="#DDE0E4" stop-opacity="0"/>
</linearGradient>
<linearGradient id="paint11_linear" x1="292.083" y1="305.313" x2="292.083" y2="606.172" gradientUnits="userSpaceOnUse">
<stop stop-color="#6D7785"/>
<stop offset="0.684023" stop-opacity="0"/>
</linearGradient>
<linearGradient id="paint12_linear" x1="238.982" y1="328.2" x2="238.898" y2="606.184" gradientUnits="userSpaceOnUse">
<stop stop-color="#F7F7F7"/>
<stop offset="1" stop-color="#DDE0E4" stop-opacity="0"/>
</linearGradient>
<linearGradient id="paint13_linear" x1="238.982" y1="305.204" x2="238.982" y2="606.356" gradientUnits="userSpaceOnUse">
<stop stop-color="#6D7785"/>
<stop offset="0.684023" stop-opacity="0"/>
</linearGradient>
<linearGradient id="paint14_linear" x1="265.983" y1="275" x2="265.983" y2="337.192" gradientUnits="userSpaceOnUse">
<stop stop-color="#52637A"/>
<stop offset="1" stop-color="#A6BBD9"/>
</linearGradient>
<linearGradient id="paint15_linear" x1="274" y1="133.977" x2="274" y2="414.023" gradientUnits="userSpaceOnUse">
<stop stop-color="#71C4F3"/>
<stop offset="1" stop-color="#6DB9FF"/>
</linearGradient>
<clipPath id="clip0">
<rect x="213" y="238" width="121" height="72" fill="white"/>
</clipPath>
</defs>
</svg>
