<svg width="54" height="35" viewBox="0 0 54 35" fill="none" xmlns="http://www.w3.org/2000/svg">
<path d="M34.7456 25.2714C34.3445 25.6725 33.793 25.873 33.2415 25.873C32.8403 25.873 32.4894 25.7728 32.1384 25.5722C32.2888 26.224 32.0883 26.9761 31.5869 27.4774C31.1858 27.8785 30.6343 28.0791 30.0828 28.0791C29.5814 28.0791 29.08 27.9287 28.729 27.5777C28.8293 28.2295 28.6288 28.9314 28.1274 29.4328C27.7263 29.8339 27.1748 30.0345 26.6232 30.0345C26.2723 30.0345 25.9213 29.9342 25.5704 29.7838C25.5704 30.0345 25.5202 30.235 25.4199 30.4857C25.3197 30.7364 25.1692 30.9871 24.9186 31.2378C24.8684 31.2879 24.8183 31.3381 24.7681 31.3381C24.7681 31.3381 24.7681 31.3381 24.718 31.3381C24.367 31.6389 23.8657 31.8394 23.3643 31.8394C23.0133 31.8394 22.6623 31.7392 22.3615 31.5888L21.6596 31.0874L23.3141 29.0317C24.8183 27.1766 23.8155 25.4218 22.6122 24.419C21.9103 23.8675 21.0579 23.667 20.2557 23.8174C20.2557 23.0152 19.9549 22.1628 19.253 21.6113C18.551 21.0598 17.6987 20.8592 16.8965 21.0096C16.8965 20.2074 16.5957 19.3551 15.8937 18.8036C15.1918 18.2521 14.3395 18.0515 13.5372 18.2019C13.5372 17.3997 13.2364 16.5474 12.5345 15.9959C11.0805 14.6923 9.37579 14.241 7.87165 15.8454L5.46504 18.8036C5.4149 18.8537 5.4149 18.8537 5.36476 18.9038L5.26449 18.8537C5.11408 18.7534 5.0138 18.6532 4.91352 18.5529C4.06117 17.851 1.30359 15.9457 0.401106 15.2438C2.27122e-06 14.943 -0.100277 14.5419 0.100275 14.0906C0.902482 12.3358 1.75482 10.6311 2.55703 8.9264C2.95813 8.02392 3.40938 7.12144 3.81048 6.16882C3.96089 5.86799 4.16145 5.66743 4.362 5.6173C4.56255 5.56716 4.81324 5.6173 5.06393 5.76772C5.71572 6.21896 7.1196 7.17157 8.52346 7.8735C9.47608 8.32474 10.3785 8.62557 11.0805 8.67571C11.4314 8.72585 12.0331 8.67571 12.6348 8.62557C13.0359 8.57543 13.4871 8.47517 13.8882 8.32476C13.9383 8.32476 14.0386 8.27462 14.0888 8.27462C14.2893 8.22448 14.4899 8.17434 14.6904 8.07407C14.7406 8.07407 14.7406 8.07406 14.7907 8.02393C14.8408 8.02393 14.891 7.97378 14.9912 7.97378C15.8436 7.77323 16.7461 7.57268 17.5984 7.42226L14.9411 10.0796C14.8408 10.1799 14.7907 10.2801 14.6904 10.3303C14.5901 10.4305 14.4899 10.581 14.4397 10.6311C14.1389 11.0322 13.9383 11.5336 13.8381 12.035V12.0851C13.6877 13.138 13.9885 14.2912 14.6904 15.2939C15.4425 16.3468 16.5455 17.0487 17.6486 17.1992C17.9995 17.2493 18.3505 17.2994 18.6513 17.2994C20.1053 17.2994 21.459 16.8482 22.6122 15.9457C23.1637 15.4945 23.7654 14.9931 24.367 14.5419C24.367 14.5419 24.367 14.5419 24.4172 14.4917C24.5676 14.3413 24.718 14.241 24.8684 14.0906C24.8684 14.0906 24.9186 14.0906 24.9186 14.0405C24.9186 14.0405 24.9186 14.0405 24.9687 13.9903C25.1191 13.9903 25.2194 13.9903 25.3698 14.0405C25.5703 14.0906 25.7709 14.1408 25.9714 14.2912C26.1219 14.3914 26.2723 14.4917 26.4227 14.6421L26.7235 14.943L26.9241 15.1435L26.9742 15.1936L27.7263 15.9457L28.2277 16.4471L29.08 17.3496L29.7318 18.0014C29.7819 18.0515 29.7819 18.0515 29.8321 18.1017L34.5952 22.213C35.5478 23.1154 35.5478 24.4692 34.7456 25.2714Z" fill="url(#paint0_linear)"/>
<path d="M43.0173 12.6868C42.1649 13.3887 38.8057 15.9457 37.9533 16.6978C37.4018 17.1992 36.4993 17.9011 35.9478 18.4025C35.8475 18.5028 35.7974 18.5529 35.6971 18.603C35.647 18.6532 35.5968 18.6532 35.5467 18.7033C35.4464 18.7535 35.3963 18.7535 35.296 18.7535C35.1957 18.7535 35.0453 18.7033 34.945 18.6532L33.7417 17.5L30.934 14.8928C30.8839 14.8427 30.8337 14.7926 30.7836 14.7424C30.7335 14.6923 30.6833 14.6421 30.6332 14.592L29.3296 13.3887C28.9786 13.0377 28.6277 12.6868 28.2266 12.3358C28.0761 12.2355 27.9759 12.0851 27.8255 11.9848L27.7753 11.9347C27.7252 11.8846 27.675 11.8344 27.6249 11.7843C27.6249 11.7843 27.6249 11.7843 27.5748 11.7843C27.2238 11.5336 26.8227 11.333 26.4216 11.2328C26.221 11.1826 25.9704 11.1325 25.7197 11.1325C25.6695 11.1325 25.6194 11.1325 25.6194 11.1325C25.0177 11.1325 24.4662 11.333 24.015 11.6339C23.8646 11.7341 23.7142 11.8846 23.5637 12.035C23.5637 12.035 23.5136 12.035 23.5136 12.0851C23.3632 12.2355 23.1626 12.3358 23.0122 12.4862C22.4106 12.9876 21.8089 13.4388 21.3075 13.8901C21.2574 13.9402 21.2574 13.9402 21.2072 13.9402C20.5053 14.4416 19.7532 14.6923 18.951 14.6923C18.7505 14.6923 18.4998 14.6923 18.2993 14.6421C17.4469 14.4917 16.4943 13.3386 16.6447 12.4862C16.6447 12.3859 16.745 12.2355 16.7951 12.1352C16.8453 12.0851 16.8452 12.0851 16.8954 12.035C16.9455 11.9848 16.9957 11.9347 17.0458 11.8846L17.2464 11.684L19.7533 9.17711C19.8034 9.12697 19.8535 9.07684 19.9037 9.0267C19.9538 8.97656 20.0039 8.92641 20.0541 8.87627L22.7615 6.16883L23.4635 5.4669L23.5637 5.41676C23.9147 5.11593 24.3158 5.01566 24.9175 5.01566C25.7197 5.01566 26.6221 5.36662 27.5246 5.66745C28.1263 5.868 28.7279 6.06856 29.3296 6.21897C30.0817 6.41952 30.8839 6.5198 31.6861 6.5198C31.8365 6.5198 31.9869 6.5198 32.1373 6.5198C33.9423 6.41952 37.0508 4.11317 38.0536 3.3611C38.2542 3.21069 38.4547 3.16055 38.6051 3.16055C38.7555 3.16055 38.8558 3.2107 39.0062 3.31098C39.0564 3.36111 39.0564 3.3611 39.1065 3.41124C39.2068 3.51152 39.2569 3.6118 39.3572 3.76221C39.8084 4.6647 40.2597 5.56718 40.7109 6.46966C41.6134 8.17435 42.5159 9.87905 43.3682 11.5837C43.5186 11.9848 43.4184 12.3859 43.0173 12.6868Z" fill="url(#paint1_linear)"/>
<path d="M11.4318 19.9066L9.02516 22.8146L8.97502 22.8647C8.42351 23.5165 7.47088 23.6168 6.81908 23.0653C6.76895 23.0151 6.71881 22.965 6.66868 22.965C6.5684 22.8647 6.46812 22.7143 6.36784 22.5639C6.36784 22.5138 6.3177 22.4636 6.3177 22.4135C6.3177 22.3132 6.26758 22.2631 6.26758 22.1628C6.26758 22.1127 6.26758 22.0625 6.26758 22.0625C6.26758 22.0124 6.26758 22.0124 6.26758 21.9622V21.9121C6.26758 21.9121 6.26758 21.862 6.26758 21.8118C6.26758 21.7617 6.26758 21.7116 6.26758 21.6614C6.26758 21.5611 6.3177 21.4609 6.3177 21.4107C6.36784 21.3104 6.41799 21.2102 6.46813 21.1099C6.46813 21.0598 6.51827 21.0598 6.51827 21.0096C6.51827 21.0096 6.51826 20.9595 6.56839 20.9595L8.97502 18.0014C9.52654 17.3496 10.4792 17.2493 11.1309 17.8008C11.1811 17.8509 11.2312 17.9011 11.2814 17.9011C11.3315 17.9011 11.3315 17.9512 11.3315 17.9512C11.3816 18.0013 11.3816 18.0014 11.3816 18.0515C11.4318 18.1016 11.4318 18.1518 11.4819 18.2019C11.4819 18.252 11.5321 18.252 11.5321 18.3022C11.5822 18.3523 11.5822 18.4025 11.5822 18.4526C11.5822 18.5027 11.6323 18.5529 11.6323 18.603C11.8329 19.0543 11.7326 19.5055 11.4318 19.9066Z" fill="url(#paint2_linear)"/>
<path d="M14.7905 22.7143L12.5343 25.4218L12.3338 25.6223C11.7822 26.2741 10.8296 26.3744 10.1778 25.8229C10.1277 25.7728 10.0776 25.7226 10.0274 25.7226C9.92715 25.6223 9.877 25.5722 9.82686 25.4719C9.77672 25.3716 9.72659 25.2714 9.67645 25.1711C9.67645 25.121 9.67645 25.0708 9.62631 25.0708C9.62631 25.0207 9.62631 24.9705 9.57617 24.9705C9.57617 24.9204 9.57617 24.8703 9.57617 24.8703C9.57617 24.8201 9.57617 24.77 9.57617 24.7199C9.57617 24.6697 9.57617 24.6196 9.57617 24.6196C9.57617 24.5695 9.57617 24.5694 9.57617 24.5193C9.57617 24.419 9.62631 24.3689 9.62631 24.2686V24.2185C9.67645 24.0681 9.77673 23.9177 9.877 23.7672L9.97728 23.667L12.2836 20.8592C12.8352 20.2074 13.7878 20.1072 14.4396 20.6587C14.4897 20.7088 14.5398 20.759 14.5398 20.759C14.59 20.8091 14.59 20.8091 14.59 20.8592C14.6401 20.9094 14.6401 20.9094 14.6902 20.9595C14.7404 21.0096 14.7404 21.0598 14.7905 21.1099C14.8407 21.1601 14.8407 21.2603 14.8908 21.3606C14.8908 21.4108 14.9409 21.4609 14.9409 21.511C15.1916 21.862 15.0914 22.3634 14.7905 22.7143Z" fill="url(#paint3_linear)"/>
<path d="M18.5013 24.6196C18.5013 24.6697 18.5013 24.7198 18.5013 24.77C18.5013 24.8201 18.5013 24.8703 18.5013 24.9204C18.5013 24.9705 18.4512 25.0207 18.4512 25.121C18.4512 25.1711 18.4011 25.2212 18.4011 25.2212C18.3509 25.2714 18.3509 25.3215 18.3008 25.4218C18.2507 25.4719 18.2005 25.5221 18.2005 25.5722L16.0947 28.1292L15.7939 28.5303C15.2424 29.1821 14.2897 29.2824 13.638 28.7309C13.5878 28.6807 13.5377 28.6306 13.4875 28.6306C13.3371 28.4802 13.2368 28.2796 13.1366 28.0791C13.1366 28.029 13.0864 27.9788 13.0864 27.9287C12.9862 27.4774 13.0864 27.0262 13.3873 26.6251L13.638 26.3243L15.844 23.6669C16.3955 23.0151 17.3482 22.9149 18 23.4664C18.0501 23.5165 18.1002 23.5667 18.1504 23.5667C18.2005 23.6168 18.2005 23.6669 18.2506 23.6669C18.3008 23.7171 18.3008 23.7672 18.3509 23.8174C18.4011 23.9176 18.4512 24.0179 18.5013 24.1182C18.5013 24.1683 18.5515 24.2185 18.5515 24.2185C18.5515 24.2686 18.5515 24.3187 18.5515 24.3187C18.5013 24.419 18.5013 24.5193 18.5013 24.6196Z" fill="url(#paint4_linear)"/>
<path d="M21.8594 27.3772C21.8594 27.4273 21.8594 27.4774 21.8594 27.5276C21.8594 27.5777 21.8594 27.6278 21.8594 27.678C21.8594 27.7281 21.8093 27.7783 21.8093 27.8785C21.8093 27.9287 21.7591 27.9788 21.7591 27.9788C21.709 28.029 21.709 28.0791 21.6588 28.1292C21.6087 28.1794 21.5586 28.2295 21.5586 28.2796L19.6533 30.6361L19.1519 31.2378C18.6004 31.8896 17.6478 31.9898 16.996 31.4383C16.9459 31.3882 16.8957 31.3381 16.8456 31.3381C16.7955 31.3381 16.7955 31.2879 16.7955 31.2879C16.7955 31.2378 16.7453 31.2378 16.7453 31.1876C16.6952 31.1375 16.6952 31.0874 16.645 31.0372C16.645 30.9871 16.5949 30.9871 16.5949 30.9369C16.5448 30.8868 16.5448 30.8367 16.5448 30.7865C16.5448 30.7364 16.4946 30.6863 16.4946 30.6361C16.3944 30.1849 16.4946 29.7336 16.7955 29.3325L17.1966 28.8813L19.2522 26.3744C19.8037 25.7226 20.7564 25.6223 21.4081 26.1738C21.4583 26.224 21.5084 26.2741 21.5586 26.2741C21.6087 26.3243 21.6588 26.3744 21.6588 26.4245C21.709 26.4747 21.709 26.4747 21.709 26.5248C21.709 26.575 21.7591 26.575 21.7591 26.6251C21.7591 26.6251 21.7591 26.6251 21.7591 26.6752C21.7591 26.7254 21.8093 26.7254 21.8093 26.7755C21.8093 26.8256 21.8594 26.8256 21.8594 26.8758C21.8594 26.9259 21.9095 26.9761 21.9095 26.9761C21.9095 27.0262 21.9095 27.0763 21.9095 27.0763C21.8594 27.2268 21.8594 27.327 21.8594 27.3772Z" fill="url(#paint5_linear)"/>
<defs>
<linearGradient id="paint0_linear" x1="7.57064" y1="5.5985" x2="14.5657" y2="30.8778" gradientUnits="userSpaceOnUse">
<stop stop-color="#CE61F4"/>
<stop offset="1" stop-color="#DC16B0"/>
</linearGradient>
<linearGradient id="paint1_linear" x1="22.373" y1="3.16055" x2="25.7204" y2="18.6068" gradientUnits="userSpaceOnUse">
<stop stop-color="#CE61F4"/>
<stop offset="1" stop-color="#DC16B0"/>
</linearGradient>
<linearGradient id="paint2_linear" x1="7.43953" y1="17.4428" x2="9.60664" y2="22.7624" gradientUnits="userSpaceOnUse">
<stop stop-color="#CE61F4"/>
<stop offset="1" stop-color="#DC16B0"/>
</linearGradient>
<linearGradient id="paint3_linear" x1="10.7562" y1="20.3007" x2="12.8508" y2="25.5659" gradientUnits="userSpaceOnUse">
<stop stop-color="#CE61F4"/>
<stop offset="1" stop-color="#DC16B0"/>
</linearGradient>
<linearGradient id="paint4_linear" x1="14.228" y1="23.1084" x2="16.3856" y2="28.4372" gradientUnits="userSpaceOnUse">
<stop stop-color="#CE61F4"/>
<stop offset="1" stop-color="#DC16B0"/>
</linearGradient>
<linearGradient id="paint5_linear" x1="17.6254" y1="25.8159" x2="19.7972" y2="31.1308" gradientUnits="userSpaceOnUse">
<stop stop-color="#CE61F4"/>
<stop offset="1" stop-color="#DC16B0"/>
</linearGradient>
</defs>
</svg>
