<svg width="42" height="35" viewBox="0 0 42 35" fill="none" xmlns="http://www.w3.org/2000/svg">
<path d="M14.6414 12.5247L18.0149 16.1792L18.0163 16.1774C18.2808 16.4629 18.6576 16.6439 19.0771 16.6439C19.53 16.6439 19.9336 16.4355 20.1986 16.1099H20.1991L26.4651 8.41683H26.4646C26.6667 8.16735 26.7889 7.84993 26.7889 7.50377C26.7889 6.70518 26.1413 6.05801 25.3431 6.05801C24.8903 6.05801 24.4862 6.26598 24.2212 6.59208L24.2207 6.59116L19.0087 12.9922L16.7662 10.5636L16.7653 10.5645C16.5012 10.2785 16.1245 10.0988 15.7036 10.0988C14.9054 10.0988 14.2578 10.746 14.2578 11.5446C14.2578 11.9227 14.4047 12.2661 14.6427 12.5238L14.6414 12.5247Z" fill="url(#paint0_linear)"/>
<path d="M37.5511 0.945897C37.5511 0.423236 37.1274 0 36.6052 0H4.44199C3.91933 0 3.49609 0.423236 3.49609 0.945897V23.6488H37.5511V0.945897ZM35.6593 20.8111H5.38789V1.89088H35.6589V20.8111H35.6593Z" fill="url(#paint1_linear)"/>
<path d="M37.5508 25.5401H3.49575L0.0633365 34.1212C-0.130495 34.6069 0.135396 35 0.658512 35H40.3889C40.9116 35 41.1775 34.6073 40.9836 34.1212L37.5508 25.5401ZM16.061 33.1082L16.5075 31.2164H24.5394L24.9859 33.1082H16.061Z" fill="url(#paint2_linear)"/>
<defs>
<linearGradient id="paint0_linear" x1="16.943" y1="6.05801" x2="20.0869" y2="16.0474" gradientUnits="userSpaceOnUse">
<stop stop-color="#FF002E"/>
<stop offset="1" stop-color="#F938AC"/>
</linearGradient>
<linearGradient id="paint1_linear" x1="10.7936" y1="2.73285e-07" x2="16.7408" y2="22.9879" gradientUnits="userSpaceOnUse">
<stop stop-color="#FF002E"/>
<stop offset="1" stop-color="#F938AC"/>
</linearGradient>
<linearGradient id="paint2_linear" x1="8.79578" y1="25.5401" x2="9.63198" y2="35.2793" gradientUnits="userSpaceOnUse">
<stop stop-color="#FF002E"/>
<stop offset="1" stop-color="#F938AC"/>
</linearGradient>
</defs>
</svg>
