<svg width="41" height="35" viewBox="0 0 41 35" fill="none" xmlns="http://www.w3.org/2000/svg">
<path d="M14.424 1.66271C13.8836 0.665083 12.886 0 11.6805 0C9.97625 0 8.56294 1.37173 8.56294 3.11758C8.56294 4.82185 9.93468 6.23515 11.6805 6.23515C11.9299 6.23515 12.1793 6.19359 12.3872 6.15202L17.3753 14.2577C17.9572 13.7173 18.7055 13.3432 19.4952 13.177L14.2993 4.78029C14.424 4.53088 14.5487 4.28147 14.6318 4.03207H24.5665C24.5249 3.74109 24.4834 3.45012 24.4834 3.11758C24.4834 2.61876 24.5665 2.11995 24.7328 1.66271H14.424ZM11.6805 4.28147C11.057 4.28147 10.5166 3.78266 10.5166 3.11758C10.5166 2.49406 11.0154 1.95368 11.6805 1.95368C12.304 1.95368 12.8444 2.45249 12.8444 3.11758C12.8028 3.78266 12.304 4.28147 11.6805 4.28147ZM28.848 0.0415677C27.1437 0.0415677 25.7304 1.4133 25.7304 3.15915C25.7304 4.86342 27.1021 6.27672 28.848 6.27672C29.0974 6.27672 29.3468 6.23515 29.5546 6.19359L34.5428 14.2993C35.1247 13.7589 35.8729 13.3848 36.6627 13.2185L31.4667 4.78029C31.7577 4.32304 31.924 3.74109 31.924 3.15915C31.924 1.4133 30.5523 0.0415677 28.848 0.0415677ZM28.848 4.28147C28.2245 4.28147 27.6841 3.78266 27.6841 3.11758C27.6841 2.49406 28.1829 1.95368 28.848 1.95368C29.4715 1.95368 30.0119 2.45249 30.0119 3.11758C29.9703 3.78266 29.4715 4.28147 28.848 4.28147ZM11.6805 34.9584C12.9276 34.9584 13.9667 34.2518 14.4656 33.2126H24.7328C24.5665 32.7553 24.4834 32.2565 24.4834 31.7577C24.4834 31.4667 24.5249 31.1342 24.5665 30.8432H14.6318C14.5487 30.5938 14.4656 30.386 14.3409 30.1781L19.4952 21.7815C18.7055 21.6152 17.9572 21.2411 17.3753 20.7007L12.4287 28.7233C12.1793 28.6401 11.9299 28.6401 11.639 28.6401C9.93468 28.6401 8.52138 30.0119 8.52138 31.7577V31.7993V31.8409C8.56295 33.5867 9.93468 34.9584 11.6805 34.9584ZM11.6805 30.7185C12.304 30.7185 12.8028 31.2173 12.8444 31.7993C12.8028 32.4228 12.304 32.88 11.6805 32.88C11.057 32.88 10.5582 32.3812 10.5166 31.7993C10.5582 31.2173 11.057 30.7185 11.6805 30.7185ZM34.5428 20.7423L29.5546 28.848C29.3052 28.8064 29.0974 28.7648 28.848 28.7648C27.1437 28.7648 25.7304 30.1366 25.7304 31.8824C25.7304 33.5867 27.1021 35 28.848 35C30.5523 35 31.9656 33.6283 31.9656 31.8824C31.9656 31.3005 31.7993 30.7185 31.5083 30.2613L36.6627 21.823C35.8314 21.6152 35.1247 21.2411 34.5428 20.7423ZM28.848 33.0048C28.2245 33.0048 27.6841 32.5059 27.6841 31.8409C27.6841 31.2173 28.1829 30.677 28.848 30.677C29.4715 30.677 30.0119 31.1758 30.0119 31.8409C29.9703 32.5059 29.4715 33.0048 28.848 33.0048ZM37.4525 14.3824C36.247 14.3824 35.2494 15.0475 34.709 16.0451H24.4002C24.5665 16.5024 24.6496 17.0012 24.6496 17.5C24.6496 17.791 24.6081 18.1235 24.5665 18.4145H34.5012C34.8753 19.7031 36.0808 20.6176 37.4941 20.6176C39.1983 20.6176 40.6116 19.2458 40.6116 17.5C40.5701 15.7957 39.1568 14.3824 37.4525 14.3824ZM37.4525 18.6639C36.829 18.6639 36.2886 18.1651 36.2886 17.5C36.2886 16.8765 36.7874 16.3361 37.4525 16.3361C38.076 16.3361 38.6164 16.8349 38.6164 17.5C38.6164 18.1235 38.076 18.6639 37.4525 18.6639ZM20.3266 14.3824C20.285 14.3824 20.285 14.3824 20.3266 14.3824C18.9133 14.3824 17.7078 15.2969 17.3337 16.5855H7.39905C7.44062 16.8765 7.48219 17.1675 7.48219 17.5C7.48219 17.9988 7.39905 18.4976 7.23278 18.9549H17.5416C18.0819 19.9525 19.0796 20.6176 20.285 20.6176C20.285 20.6176 20.285 20.6176 20.3266 20.6176L25.5226 29.0974C26.0214 28.4739 26.6865 28.0166 27.4762 27.7672L22.4881 19.6615C23.0285 19.1211 23.361 18.3314 23.361 17.5C23.361 16.6686 23.0285 15.8789 22.4881 15.3385L27.4347 7.27435C26.6449 7.02494 25.9798 6.5677 25.481 5.94418L20.3266 14.3824ZM20.285 18.6639C19.6615 18.6639 19.1211 18.1651 19.1211 17.5C19.1211 16.8349 19.62 16.3361 20.285 16.3361C20.9086 16.3361 21.4489 16.8349 21.4489 17.5C21.4489 18.1651 20.9086 18.6639 20.285 18.6639ZM3.11758 20.6176L8.31354 29.0974C8.81235 28.4739 9.47743 28.0166 10.2672 27.7672L5.32066 19.6615C5.86104 19.1211 6.19359 18.3314 6.19359 17.5C6.19359 16.6686 5.86104 15.8789 5.32066 15.3385L10.2672 7.27435C9.47743 7.02494 8.81235 6.5677 8.31354 5.94418L3.15914 14.3824C3.15914 14.3824 3.15914 14.3824 3.11758 14.3824C1.4133 14.3824 0 15.7542 0 17.5C0 19.2043 1.4133 20.6176 3.11758 20.6176ZM3.11758 16.3361C3.74109 16.3361 4.28147 16.8349 4.28147 17.5C4.28147 18.1651 3.78266 18.6639 3.11758 18.6639C2.45249 18.6639 1.95368 18.1235 1.95368 17.5C1.95368 16.8765 2.49406 16.3361 3.11758 16.3361Z" fill="url(#paint0_linear)"/>
<defs>
<linearGradient id="paint0_linear" x1="8.70249" y1="4.0446e-07" x2="19.2679" y2="32.9068" gradientUnits="userSpaceOnUse">
<stop stop-color="#7561F4"/>
<stop offset="1" stop-color="#3E16DC"/>
</linearGradient>
</defs>
</svg>
