<svg xmlns="http://www.w3.org/2000/svg" viewBox="0 0 288.07 125.69"><defs><style>.cls-1{fill:#fff;}</style></defs><g id="Layer_2" data-name="Layer 2"><g id="Layer_5" data-name="Layer 5"><path class="cls-1" d="M288.07,37.88V50.81a4.25,4.25,0,0,1-1.14,3,4.07,4.07,0,0,1-3.11,1.24h-14c-5.55,0-9.91,1.59-13.11,4.77S252,67.39,252,72.94v48.5a4.23,4.23,0,0,1-4.25,4.25H232a4.23,4.23,0,0,1-4.25-4.25V38.06A4.27,4.27,0,0,1,229,34.87a4.07,4.07,0,0,1,3-1.24h14.51a4.23,4.23,0,0,1,4.42,4.43v7.26q8.85-11.68,25.5-11.69h7.43a4.21,4.21,0,0,1,3.11,1.16A4.15,4.15,0,0,1,288.07,37.88Z"/><path class="cls-1" d="M212,110.29v11.15a4.29,4.29,0,0,1-1.16,3,4,4,0,0,1-3.09,1.24H193.18q-16.11,0-24.26-8.41t-8.14-24.69v-40h-14a4.23,4.23,0,0,1-4.25-4.25V37.88a4.23,4.23,0,0,1,4.25-4.25h14V4.25A4,4,0,0,1,162,1.15,4.23,4.23,0,0,1,165,0h14.69a4.17,4.17,0,0,1,3.09,1.15A4.19,4.19,0,0,1,184,4.25V33.63h22.12a4.23,4.23,0,0,1,4.25,4.25V48.33a4.23,4.23,0,0,1-4.25,4.25H184V90.64q0,7.6,2.65,11.51c1.77,2.59,4.67,3.89,8.67,3.89H207.7a4.16,4.16,0,0,1,3.09,1.15A4.23,4.23,0,0,1,212,110.29Z"/><path class="cls-1" d="M128.73,4.79V18.28a4.18,4.18,0,0,1-1.34,3.14,4.29,4.29,0,0,1-3.1,1.29H108a4,4,0,0,1-3-1.29,4.4,4.4,0,0,1-1.24-3.14V4.79A4.65,4.65,0,0,1,105,1.46a4,4,0,0,1,3-1.29h16.29a4.22,4.22,0,0,1,3.19,1.29A4.66,4.66,0,0,1,128.73,4.79Z"/><path class="cls-1" d="M128,37.88v83.56a4.22,4.22,0,0,1-4.25,4.25h-15a4.09,4.09,0,0,1-3-1.24,4,4,0,0,1-1.24-3V37.88a4,4,0,0,1,1.24-3.09,4.27,4.27,0,0,1,3-1.16h15A4.22,4.22,0,0,1,128,37.88Z"/><path class="cls-1" d="M85.7,6.19V18.94a4.1,4.1,0,0,1-1.23,3,4.34,4.34,0,0,1-3.19,1.24H24.61V56.47H77.73a4.35,4.35,0,0,1,3.19,1.24,4.13,4.13,0,0,1,1.24,3V73.47a4.13,4.13,0,0,1-1.24,3,4.35,4.35,0,0,1-3.19,1.24H24.61v43.72a4.07,4.07,0,0,1-1.24,3,4.3,4.3,0,0,1-3.18,1.24H4.25a4.06,4.06,0,0,1-3-1.24,4.11,4.11,0,0,1-1.24-3V6.19A4.45,4.45,0,0,1,1.16,3,4,4,0,0,1,4.25,1.77h77A4.34,4.34,0,0,1,84.47,3,4.33,4.33,0,0,1,85.7,6.19Z"/></g></g></svg>