<svg width="34" height="35" viewBox="0 0 34 35" fill="none" xmlns="http://www.w3.org/2000/svg">
<path d="M3.09167 11.375C3.09167 7.99167 5.83333 5.30833 9.15833 5.30833C12.4833 5.30833 15.225 8.05 15.225 11.375C15.225 14.7 12.4833 17.4417 9.15833 17.4417C5.83333 17.4417 3.09167 14.7 3.09167 11.375ZM14.8167 20.0667H3.61667C1.63333 20.0667 0 21.7 0 23.6833V34.125C0 34.5917 0.408333 35 0.875 35H17.5C17.9667 35 18.375 34.5917 18.375 34.125V23.6833C18.375 21.7 16.8 20.0667 14.8167 20.0667ZM33.1333 7.64167C33.1333 10.9667 31.0333 13.8833 27.825 14.875C27.0667 15.1083 26.25 15.225 25.4917 15.225H18.725C18.2583 15.225 17.85 14.8167 17.85 14.35V7.64167C17.85 6.825 17.9667 6.06667 18.2 5.30833C19.1917 2.15833 22.1083 0 25.4333 0C29.6917 0 33.1333 3.44167 33.1333 7.64167ZM22.75 8.05C22.75 7.525 22.2833 7.05833 21.7583 7.05833C21.2333 7.05833 20.7667 7.525 20.7667 8.05C20.7667 8.575 21.2333 9.04167 21.7583 9.04167C22.2833 9.04167 22.75 8.575 22.75 8.05ZM26.7167 8.05C26.7167 7.525 26.25 7.05833 25.725 7.05833C25.2 7.05833 24.7333 7.525 24.7333 8.05C24.7333 8.575 25.2 9.04167 25.725 9.04167C26.25 9.04167 26.7167 8.575 26.7167 8.05ZM30.7417 8.05C30.7417 7.525 30.275 7.05833 29.75 7.05833C29.225 7.05833 28.7583 7.525 28.7583 8.05C28.7583 8.575 29.225 9.04167 29.75 9.04167C30.275 9.04167 30.7417 8.575 30.7417 8.05Z" fill="url(#paint0_linear)"/>
<defs>
<linearGradient id="paint0_linear" x1="7.1" y1="4.0446e-07" x2="19.4694" y2="31.4312" gradientUnits="userSpaceOnUse">
<stop stop-color="#7561F4"/>
<stop offset="1" stop-color="#3E16DC"/>
</linearGradient>
</defs>
</svg>
