<svg width="48" height="48" viewBox="0 0 48 48" fill="none" xmlns="http://www.w3.org/2000/svg">
<g clip-path="url(#clip0_4395_19866)">
<path d="M29.2014 36.4712L22.7179 33.2044C22.4164 33.0536 22.2151 32.7521 22.2151 32.4506V30.4904C22.3157 30.3397 22.416 30.1889 22.5166 30.0382C23.3209 28.8822 24.0246 27.5753 24.5269 26.2184C25.5826 25.5649 26.2862 24.409 26.2862 23.1023V20.3883C26.2862 19.6346 26.0349 18.8804 25.5826 18.2774V16.6688C25.6327 16.0658 25.7333 13.6029 23.924 11.5421C22.366 9.73265 19.8529 8.82812 16.4854 8.82812C13.1179 8.82812 10.655 9.73265 9.04677 11.5421C7.23736 13.6029 7.33797 16.1159 7.38815 16.6184V18.277C6.93587 18.88 6.6845 19.6341 6.6845 20.388V23.1019C6.6845 24.107 7.08664 25.0621 7.79026 25.7156C8.39328 27.9272 9.44888 29.5858 10.0519 30.4403V32.4005C10.0519 32.702 9.90117 33.0035 9.59966 33.1542L3.66899 36.421C1.40732 37.6776 0 40.0399 0 42.6031V45.4176C0 45.9705 0.452272 46.4228 1.00514 46.4228H32.1169C32.6698 46.4228 33.1221 45.9705 33.1221 45.4176V42.7538C33.0716 40.0899 31.5637 37.6775 29.2013 36.4711L29.2014 36.4712Z" fill="#0755E9"/>
<path d="M43.4772 1.58991H32.2187C29.7056 1.58991 27.6953 3.60018 27.6953 6.11325V20.1864C27.6953 20.5886 27.9467 20.9402 28.2983 21.091C28.4491 21.1411 28.5497 21.1916 28.7005 21.1916C28.9519 21.1916 29.2032 21.091 29.4041 20.9402L33.3245 17.2712H43.4773C45.9904 17.2712 48.0007 15.2609 48.0007 12.7479V6.11355C48.0007 3.60048 45.9399 1.58984 43.4773 1.58984L43.4772 1.58991ZM33.0228 6.2644H36.3904C36.9432 6.2644 37.3955 6.71667 37.3955 7.26953C37.3955 7.82243 36.9432 8.27467 36.3904 8.27467H33.0228C32.4699 8.27467 32.0177 7.8224 32.0177 7.26953C32.0177 6.71664 32.47 6.2644 33.0228 6.2644ZM41.3663 12.2957H33.0228C32.4699 12.2957 32.0177 11.8434 32.0177 11.2905C32.0177 10.7376 32.47 10.2854 33.0228 10.2854H41.4165C41.9694 10.2854 42.4216 10.7377 42.4216 11.2905C42.4216 11.8434 41.9694 12.2957 41.3663 12.2957Z" fill="#E7ECF8"/>
</g>
<defs>
<clipPath id="clip0_4395_19866">
<rect width="48" height="48" fill="white"/>
</clipPath>
</defs>
</svg>
