<svg width="35" height="35" viewBox="0 0 35 35" fill="none" xmlns="http://www.w3.org/2000/svg">
<path d="M25.7553 24.3371C25.7553 23.8909 25.3344 23.5982 23.3142 22.5271C23.3362 22.1902 23.341 21.8545 23.3311 21.5215C25.7581 20.153 25.837 19.9195 25.7297 19.3932C25.4125 17.8397 24.8207 16.3705 23.9714 15.0289C23.9442 14.9858 23.9083 14.9385 23.8617 14.8927C23.8306 14.843 23.799 14.7933 23.7662 14.744C23.6234 14.5306 23.3875 14.4087 23.1201 14.4087C22.9903 14.4087 22.7571 14.4087 20.7692 15.0407C20.4943 14.7247 20.2019 14.4272 19.8938 14.1503C20.6828 11.7967 20.7389 11.5178 20.2229 11.1687C18.8366 10.2321 17.3071 9.65261 15.6758 9.29992L15.5977 9.35752H15.5764C15.5528 9.35752 15.5295 9.36225 15.5062 9.35752H15.4309H15.3559C14.9152 9.35752 14.7795 9.18512 13.5215 11.5182C13.3353 11.5079 13.1495 11.33 12.9668 11.33H12.8978H12.8161C12.6335 11.33 12.448 11.4188 12.2614 11.4286C11.0038 9.09597 10.8677 9.137 10.427 9.137L10.2779 9.17289C10.2531 9.17802 10.2286 9.1938 10.2037 9.19933L10.1079 9.22063C8.47622 9.57292 6.94635 10.2294 5.56087 11.1659C5.04486 11.5146 5.10088 11.7951 5.88988 14.1487C5.58257 14.4261 5.28985 14.7239 5.01449 15.0399C3.0266 14.4079 2.79345 14.4083 2.66406 14.4083C2.39659 14.4083 2.16107 14.5306 2.01747 14.7444C2.01668 14.7456 2.0155 14.7476 2.01432 14.7491L1.98591 14.7551L1.81312 15.0277C0.96258 16.3709 0.37083 17.8397 0.0540465 19.3924C-0.0532575 19.9187 0.025248 20.1526 2.45261 21.5211C2.44195 21.8541 2.44787 22.1894 2.46957 22.5267C0.443812 23.6005 0.0256425 23.8925 0.028404 24.3402L0 24.3781L0.0690374 24.7091C0.397656 26.2812 1.00676 27.7629 1.87979 29.1149C1.96658 29.249 2.17409 29.4735 2.5895 29.4735C3.03686 29.4735 4.3462 29.1381 5.19951 28.9062C5.45357 29.1803 5.72301 29.4419 6.00626 29.6885C5.33285 31.7612 5.17031 32.3529 5.38216 32.6792L5.38847 32.7593L5.69263 32.9604C7.07969 33.8741 8.6072 34.5077 10.2325 34.8422L10.3067 34.8576L10.6468 34.8556L10.7935 34.7373C10.7967 34.7357 10.7998 34.7333 10.8026 34.731L10.8641 34.7018L10.9572 34.6055C10.9785 34.583 11.0081 34.5483 11.0231 34.5294C11.3024 34.1956 11.975 32.9699 12.3711 32.2294C12.5198 32.2365 12.6702 32.2393 12.8209 32.2393L12.8398 32.2385L12.8919 32.2393L12.9214 32.2385H12.9625C13.1128 32.2385 13.2631 32.2354 13.4118 32.2294C13.8079 32.9691 14.4781 34.1937 14.7476 34.5148C14.7748 34.5495 14.8044 34.5842 14.8344 34.615L14.9271 34.7069L14.9807 34.7325C14.9843 34.7349 14.9874 34.8071 14.9906 34.8095L15.1389 35H15.4009H15.4766L15.5508 34.9136C17.1761 34.5791 18.7036 33.9096 20.0757 33.005L20.396 32.7809L20.4027 32.6871C20.6134 32.3612 20.4501 31.7631 19.7779 29.6936C20.0607 29.447 20.3305 29.1831 20.5846 28.9093C21.4383 29.1413 22.7469 29.475 23.1946 29.475C23.6104 29.475 23.8175 29.2498 23.9047 29.1157C24.7777 27.7641 25.3865 26.282 25.7115 24.7276L25.7817 24.3714L25.7553 24.3371ZM12.893 26.5522C10.3055 26.5459 8.20284 24.4838 8.20284 21.8999C8.20284 19.3159 10.3055 17.2475 12.8899 17.2475H12.8934C15.4774 17.2475 17.5797 19.3159 17.5797 21.8999C17.5797 24.4838 15.4774 26.5459 12.893 26.5522Z" fill="url(#paint0_linear)"/>
<path d="M33.1859 5.83741L33.6952 3.24673L33.5118 2.9978C32.9078 2.17764 32.1575 1.50147 31.2825 0.987433L31.0146 0.830422L28.4409 1.6285L26.7572 0L26.4128 0.052074C25.4466 0.198828 24.4967 0.54441 23.6663 1.05253L23.4031 1.21348L22.9885 3.32129L20.9426 3.95604L20.8109 4.23693C20.3903 5.13402 20.1493 6.13408 20.1142 7.12782L20.1016 7.48208L21.8902 8.90623L21.3722 11.5383L21.5565 11.7877C22.1467 12.5869 22.9116 13.2761 23.7673 13.7807L24.0359 13.9389L26.6081 13.1404L28.3285 14.7705L28.6689 14.7176C29.6453 14.5661 30.5665 14.2276 31.4067 13.7104L31.6691 13.5491L32.0837 11.4409L34.1181 10.8089L34.2499 10.5284C34.6393 9.69878 34.8673 8.81194 34.9292 7.89157L34.9509 7.56927L33.1859 5.83741ZM27.53 10.2124C25.9709 10.2124 24.703 8.9441 24.703 7.38504C24.703 5.82597 25.9709 4.55766 27.53 4.55766C29.0891 4.55766 30.357 5.82597 30.357 7.38504C30.357 8.9441 29.0891 10.2124 27.53 10.2124Z" fill="url(#paint1_linear)"/>
<defs>
<linearGradient id="paint0_linear" x1="5.52466" y1="9.13695" x2="14.3205" y2="32.6727" gradientUnits="userSpaceOnUse">
<stop stop-color="#CE61F4"/>
<stop offset="1" stop-color="#DC16B0"/>
</linearGradient>
<linearGradient id="paint1_linear" x1="23.2836" y1="1.70688e-07" x2="28.2748" y2="13.4691" gradientUnits="userSpaceOnUse">
<stop stop-color="#CE61F4"/>
<stop offset="1" stop-color="#DC16B0"/>
</linearGradient>
</defs>
</svg>
