<svg width="42" height="38" viewBox="0 0 42 38" fill="none" xmlns="http://www.w3.org/2000/svg">
<path d="M11.8755 12.7318L8.20018 31.6461H26.3476C26.4503 32.5948 26.6989 33.499 27.0687 34.3395L4.24527 34.3386C1.90454 34.3386 0 32.4341 0 30.0929V4.24571C0 1.90453 1.90454 0 4.24571 0H13.0661L17.5187 4.04243H33.1894C35.5305 4.04243 37.4351 5.94696 37.4351 8.28814V10.0392H41.5704L39.0443 22.1678C38.2267 21.8236 37.3494 21.5943 36.4325 21.5005L38.259 12.7318H11.8755Z" fill="url(#paint0_linear)"/>
<path d="M35.4914 24.145C31.904 24.145 28.9844 27.0642 28.9844 30.652C28.9844 34.2399 31.904 37.159 35.4914 37.159C39.0797 37.159 41.9984 34.2399 41.9984 30.652C41.9984 27.0642 39.0801 24.145 35.4914 24.145ZM39.0065 31.9983H36.8381V34.1672H34.1456V31.9983H31.9758V29.3058H34.1451V27.1369H36.8377V29.3058H39.0061V31.9983H39.0065Z" fill="url(#paint1_linear)"/>
<defs>
<linearGradient id="paint0_linear" x1="8.90794" y1="3.96828e-07" x2="18.9198" y2="32.5329" gradientUnits="userSpaceOnUse">
<stop stop-color="#34C8DC"/>
<stop offset="1" stop-color="#19CDC2"/>
</linearGradient>
<linearGradient id="paint1_linear" x1="31.7731" y1="24.145" x2="36.1886" y2="35.9971" gradientUnits="userSpaceOnUse">
<stop stop-color="#34C8DC"/>
<stop offset="1" stop-color="#19CDC2"/>
</linearGradient>
</defs>
</svg>
