<svg width="44" height="39" viewBox="0 0 44 39" fill="none" xmlns="http://www.w3.org/2000/svg">
<path d="M38.7646 38.7027C41.3375 38.7027 43.4234 36.6169 43.4234 34.044V11.3653C43.4234 8.79244 41.3375 6.70654 38.7646 6.70654H36.7554H30.3847H27.354H16.0512H13.0206H4.6588C2.08579 6.70654 0 8.79244 0 11.3653V14.563V31.8703V34.0439C0 36.6168 2.08579 38.7026 4.6588 38.7026L38.7646 38.7027ZM2.07548 28.8185V16.5956C2.07548 15.5788 2.89976 14.7547 3.91639 14.7547H39.5069C40.5236 14.7547 41.3478 15.5788 41.3478 16.5956V28.8185C41.3478 29.8352 40.5236 30.6594 39.5069 30.6594H3.9165C2.89976 30.6595 2.07548 29.8352 2.07548 28.8185Z" fill="url(#paint0_linear)"/>
<path d="M25.669 20.8449H23.5693V18.7455C23.5693 18.4697 23.3459 18.2463 23.0704 18.2463H20.3514C20.0757 18.2463 19.8524 18.4697 19.8524 18.7455V20.8449H17.7529C17.4773 20.8449 17.2539 21.0685 17.2539 21.3439V24.063C17.2539 24.3386 17.4774 24.562 17.7529 24.562H19.8524V26.6613C19.8524 26.937 20.0758 27.1603 20.3514 27.1603H23.0704C23.3462 27.1603 23.5693 26.9369 23.5693 26.6613V24.562H25.669C25.9446 24.562 26.1679 24.3384 26.1679 24.063V21.3439C26.1679 21.0683 25.9445 20.8449 25.669 20.8449Z" fill="url(#paint1_linear)"/>
<path d="M15.5477 3.98636C15.5477 2.93272 16.405 2.07537 17.4586 2.07537H25.9605C27.0139 2.07537 27.8715 2.93272 27.8715 3.98636V4.62339H29.9469V3.98636C29.9469 1.78828 28.1588 0 25.9606 0H17.4588C15.2607 0 13.4727 1.78828 13.4727 3.98636V4.62339H15.548V3.98636H15.5477Z" fill="url(#paint2_linear)"/>
<defs>
<linearGradient id="paint0_linear" x1="9.305" y1="6.70654" x2="17.7759" y2="37.5649" gradientUnits="userSpaceOnUse">
<stop stop-color="#FF002E"/>
<stop offset="1" stop-color="#F938AC"/>
</linearGradient>
<linearGradient id="paint1_linear" x1="19.164" y1="18.2463" x2="22.1884" y2="26.3644" gradientUnits="userSpaceOnUse">
<stop stop-color="#FF002E"/>
<stop offset="1" stop-color="#F938AC"/>
</linearGradient>
<linearGradient id="paint2_linear" x1="17.0028" y1="5.34279e-08" x2="17.4988" y2="4.74314" gradientUnits="userSpaceOnUse">
<stop stop-color="#FF002E"/>
<stop offset="1" stop-color="#F938AC"/>
</linearGradient>
</defs>
</svg>
