<svg width="41" height="43" viewBox="0 0 41 43" fill="none" xmlns="http://www.w3.org/2000/svg">
<path d="M40.3001 29.3849C39.8548 29.1092 39.3105 29.0739 38.8369 29.3001L29.0605 33.9939C28.5162 34.7078 27.6538 35.1744 26.6853 35.1744H19.4891C19.1003 35.1744 18.7822 34.8563 18.7822 34.4675C18.7822 34.0787 19.1003 33.7606 19.4891 33.7606H26.6853C27.2296 33.7606 27.7033 33.4849 27.986 33.0679C27.9931 33.0537 28.0002 33.0396 28.0072 33.0325C28.1557 32.7922 28.2405 32.5165 28.2405 32.2196C28.2405 31.3642 27.5407 30.6715 26.6853 30.6715L21.4967 30.6786C21.32 30.6786 21.1574 30.6149 21.0231 30.4948C18.8105 28.5155 15.9476 27.2925 13.3745 27.2289C10.6246 27.1653 8.14342 27.1441 6.97707 27.1441V36.8639C10.0096 38.6382 17.3684 42.5756 20.189 42.4201C25.7522 42.1161 40.0315 32.0853 40.1729 31.9863C40.1941 31.9721 40.2153 31.958 40.2365 31.951C40.7101 31.6823 41 31.1875 41 30.6502C41 30.1272 40.7455 29.6677 40.3001 29.3849ZM0 25.7444V38.9917H5.56327V25.7444H0ZM2.78517 37.2598C2.10654 37.2598 1.54811 36.7013 1.54811 36.0156C1.54811 35.337 2.10654 34.7856 2.78517 34.7856C3.47084 34.7856 4.02224 35.337 4.02224 36.0156C4.02224 36.7013 3.47084 37.2598 2.78517 37.2598Z" fill="url(#paint0_linear)"/>
<path d="M19.7983 0C13.2306 0 7.88672 5.34383 7.88672 11.912C7.88672 18.4801 13.2306 23.8236 19.7983 23.8236C26.3661 23.8236 31.71 18.4801 31.71 11.912C31.71 5.34383 26.3661 0 19.7983 0ZM26.955 18.084C26.915 17.9794 26.859 17.8811 26.7862 17.8121C26.6448 17.6636 26.4469 17.5788 26.2419 17.5788C26.051 17.5788 25.8248 17.6778 25.6905 17.8121C25.3936 18.109 25.3936 18.5967 25.6905 18.8936C25.7588 18.9619 25.8508 19.0201 25.949 19.0617C24.4624 20.2938 22.5868 21.0735 20.5344 21.2093C20.5504 21.1476 20.5726 21.0879 20.5726 21.0214C20.5726 20.5972 20.2262 20.2509 19.795 20.2509C19.3709 20.2509 19.0245 20.5972 19.0245 21.0214C19.0245 21.0842 19.0461 21.1403 19.0605 21.1989C17.0482 21.0219 15.2188 20.2172 13.7679 18.9846C13.8156 18.9545 13.87 18.9302 13.9066 18.8936C14.2034 18.5967 14.2034 18.109 13.8995 17.805C13.751 17.6565 13.5602 17.5788 13.3552 17.5788C13.1643 17.5788 12.9381 17.6707 12.8109 17.8121C12.7712 17.8517 12.7507 17.9014 12.7217 17.9469C11.4719 16.4947 10.6675 14.6618 10.5071 12.6498C10.5674 12.6651 10.6253 12.6871 10.6902 12.6871C11.1143 12.6871 11.4607 12.3407 11.4607 11.9095C11.4607 11.4853 11.1143 11.139 10.6902 11.139C10.6253 11.139 10.5673 11.1609 10.507 11.1762C10.667 9.16303 11.4717 7.32913 12.7221 5.87625C12.7513 5.92358 12.7744 5.97751 12.8109 6.01397C12.9381 6.14828 13.1714 6.24726 13.3552 6.24726C13.546 6.24726 13.7722 6.14828 13.9066 6.01397C14.2034 5.71001 14.2034 5.22225 13.8995 4.92537C13.8628 4.88865 13.8104 4.86915 13.7638 4.8427C15.2155 3.60787 17.0465 2.8017 19.061 2.62467C19.0463 2.68404 19.0245 2.74091 19.0245 2.80468C19.0245 3.2288 19.3709 3.57517 19.795 3.57517C20.2262 3.57517 20.5726 3.2288 20.5726 2.80468C20.5726 2.7372 20.5503 2.67666 20.5338 2.61423C22.5861 2.74992 24.4617 3.5293 25.9482 4.7612C25.8498 4.80102 25.7584 4.8575 25.6905 4.92537C25.3936 5.22225 25.3936 5.71001 25.6976 6.02105C25.8248 6.15536 26.051 6.24726 26.2419 6.24726C26.4257 6.24726 26.6519 6.15536 26.7791 6.02105C26.8601 5.9439 26.9173 5.84652 26.957 5.74181C28.2942 7.23598 29.1522 9.15203 29.3002 11.2631C29.1832 11.1914 29.0536 11.139 28.9069 11.139C28.4828 11.139 28.1364 11.4853 28.1364 11.9095C28.1364 12.3407 28.4828 12.6871 28.9069 12.6871C29.0535 12.6871 29.1831 12.6346 29.3 12.5626C29.1516 14.6739 28.2929 16.59 26.955 18.084Z" fill="url(#paint1_linear)"/>
<path d="M19.8592 18.3197C19.4685 18.3197 19.1523 18.0032 19.1523 17.6128V5.53795C19.1523 5.14757 19.4685 4.83105 19.8592 4.83105C20.25 4.83105 20.5661 5.14757 20.5661 5.53795V17.6128C20.5661 18.0032 20.25 18.3197 19.8592 18.3197Z" fill="url(#paint2_linear)"/>
<path d="M19.8601 13.4274C19.0648 13.4274 18.418 12.7778 18.418 11.9791C18.418 11.1804 19.0648 10.5308 19.8601 10.5308C20.6588 10.5308 21.3084 11.1804 21.3084 11.9791C21.3084 12.7778 20.6588 13.4274 19.8601 13.4274Z" fill="url(#paint3_linear)"/>
<path d="M15.3475 17.1951C15.1667 17.1951 14.9858 17.126 14.8477 16.988C14.5716 16.7118 14.5716 16.2645 14.8477 15.9884L20.895 9.94074C21.1711 9.66461 21.6185 9.66461 21.8946 9.94074C22.1707 10.2169 22.1707 10.6642 21.8946 10.9403L15.8473 16.988C15.7093 17.126 15.5284 17.1951 15.3475 17.1951Z" fill="url(#paint4_linear)"/>
<defs>
<linearGradient id="paint0_linear" x1="8.78571" y1="25.7444" x2="11.3488" y2="42.6552" gradientUnits="userSpaceOnUse">
<stop stop-color="#7561F4"/>
<stop offset="1" stop-color="#16ACDC"/>
</linearGradient>
<linearGradient id="paint1_linear" x1="12.9917" y1="2.75305e-07" x2="21.0748" y2="21.6964" gradientUnits="userSpaceOnUse">
<stop stop-color="#7561F4"/>
<stop offset="1" stop-color="#16ACDC"/>
</linearGradient>
<linearGradient id="paint2_linear" x1="19.4553" y1="4.83105" x2="23.1024" y2="5.85713" gradientUnits="userSpaceOnUse">
<stop stop-color="#7561F4"/>
<stop offset="1" stop-color="#16ACDC"/>
</linearGradient>
<linearGradient id="paint3_linear" x1="19.0373" y1="10.5308" x2="20.0217" y2="13.1674" gradientUnits="userSpaceOnUse">
<stop stop-color="#7561F4"/>
<stop offset="1" stop-color="#16ACDC"/>
</linearGradient>
<linearGradient id="paint4_linear" x1="16.2394" y1="9.73364" x2="18.7711" y2="16.5288" gradientUnits="userSpaceOnUse">
<stop stop-color="#7561F4"/>
<stop offset="1" stop-color="#16ACDC"/>
</linearGradient>
</defs>
</svg>
