<svg width="27" height="30" viewBox="0 0 27 30" fill="none" xmlns="http://www.w3.org/2000/svg">
<path d="M0.800781 22V8L13.3008 0.5L25.3008 7.5L26.3008 22L12.8008 29.5L0.800781 22Z" fill="url(#paint0_linear)"/>
<path d="M25.8072 7.2268L13.2896 0L0.739981 7.2448L0.300781 7.5004V22.5004L12.758 29.69L13.2896 30L13.7572 29.7256L14.6868 29.1916L26.2788 22.5V7.5L25.8072 7.2268ZM12.758 28.538L1.29998 21.922V8.7236L12.758 15.3388V28.538ZM13.2576 14.4744L1.73918 7.824L13.2896 1.1552L24.8088 7.8056L13.2576 14.4744Z" fill="url(#paint1_linear)"/>
<path d="M8.47798 15.1192C7.81318 13.9232 6.54478 13.3608 5.64078 13.8608C4.73638 14.3608 4.54118 15.7364 5.20398 16.9328C5.37758 17.242 5.59358 17.508 5.83118 17.7284L5.05198 21.9456L7.76838 23.6932L7.28278 18.3704C7.54838 18.3752 7.80798 18.3188 8.04118 18.1916C8.94278 17.692 9.13998 16.3156 8.47798 15.1192Z" fill="url(#paint2_linear)"/>
<path fill-rule="evenodd" clip-rule="evenodd" d="M25.9568 6.96718L26.578 7.32706V22.6732L14.836 29.4514L13.9082 29.9843L13.9058 29.9857L13.2893 30.3475L12.6072 29.9498L12.6061 29.9491L0 22.6736V7.32785L0.58921 6.98495L13.2888 -0.346436L25.9568 6.96718ZM12.7572 29.69L13.2888 30L13.7564 29.7256L14.686 29.1916L26.278 22.5V7.49997L25.8064 7.22677L13.2888 -3.10838e-05L0.7392 7.24477L0.3 7.50037V22.5004L12.7572 29.69ZM8.7397 14.9739C9.09939 15.624 9.23142 16.3326 9.14215 16.959C9.05287 17.5855 8.73699 18.1485 8.1858 18.454L8.18406 18.4549C8.00142 18.5545 7.80708 18.6175 7.60859 18.6482L8.1222 24.278L4.71963 22.089L5.50626 17.8315C5.29429 17.6156 5.10153 17.3645 4.94161 17.0796L4.94077 17.0781C4.58073 16.4282 4.44787 15.7198 4.53688 15.0934C4.62593 14.4668 4.94219 13.9038 5.4948 13.5982C6.04692 13.2929 6.69147 13.3232 7.26992 13.5797C7.84814 13.8361 8.37865 14.3244 8.7397 14.9739ZM5.64 13.8608C6.544 13.3608 7.8124 13.9232 8.4772 15.1192C9.1392 16.3156 8.942 17.692 8.0404 18.1916C7.89588 18.2704 7.74122 18.322 7.58127 18.3488C7.48313 18.3652 7.383 18.3722 7.282 18.3704L7.7676 23.6932L5.0512 21.9456L5.8304 17.7284C5.5928 17.508 5.3768 17.242 5.2032 16.9328C4.5404 15.7364 4.7356 14.3608 5.64 13.8608ZM12.7572 28.538V15.3388L1.2992 8.72357V21.922L12.7572 28.538ZM12.4572 28.0183V15.512L1.5992 9.24318V21.7488L12.4572 28.0183ZM13.2568 14.4744L24.808 7.80557L13.2888 1.15517L1.7384 7.82397L13.2568 14.4744ZM2.33839 7.82397L13.2568 14.128L24.208 7.80557L13.2888 1.50158L2.33839 7.82397Z" fill="url(#paint3_linear)"/>
<defs>
<linearGradient id="paint0_linear" x1="17.8529" y1="-13.0495" x2="17.8529" y2="39.6" gradientUnits="userSpaceOnUse">
<stop stop-color="#C7DAFD"/>
<stop offset="1" stop-color="#E9F1FF"/>
</linearGradient>
<linearGradient id="paint1_linear" x1="4.81055" y1="13.6783" x2="11.9507" y2="17.9602" gradientUnits="userSpaceOnUse">
<stop stop-color="#2569E6"/>
<stop offset="1" stop-color="#3649EF"/>
</linearGradient>
<linearGradient id="paint2_linear" x1="4.81055" y1="13.6783" x2="11.9507" y2="17.9602" gradientUnits="userSpaceOnUse">
<stop stop-color="#2569E6"/>
<stop offset="1" stop-color="#3649EF"/>
</linearGradient>
<linearGradient id="paint3_linear" x1="0" y1="-0.346436" x2="24.0643" y2="30.4858" gradientUnits="userSpaceOnUse">
<stop stop-color="#2569E6"/>
<stop offset="1" stop-color="#3649EF"/>
</linearGradient>
</defs>
</svg>
