<svg width="29" height="26" viewBox="0 0 29 26" fill="none" xmlns="http://www.w3.org/2000/svg">
<path d="M3.86719 11.2501C3.86719 11.2501 3.86719 11.2017 3.86719 11.1776C4.79035 7.3834 9.18385 4.4834 14.5005 4.4834C19.8172 4.4834 24.2107 7.3834 25.1339 11.1776V11.2501V11.3226C24.2107 15.1167 19.8172 18.0167 14.5005 18.0167C9.18385 18.0167 4.79035 15.1167 3.86719 11.3226C3.86719 11.2984 3.86719 11.2742 3.86719 11.2501Z" fill="#2D58EA"/>
<path d="M25.1318 11.1776C24.2086 7.3834 19.8151 4.4834 14.4984 4.4834C14.2519 4.4834 14.0151 4.4834 13.7734 4.50756C18.7469 4.7589 22.8021 7.54773 23.6721 11.1776V11.2501V11.3226C22.8021 14.9524 18.7469 17.7412 13.7734 18.0167H14.4984C19.8151 18.0167 24.2086 15.1167 25.1318 11.3226C25.1318 11.3226 25.1318 11.2742 25.1318 11.2501C25.1318 11.2259 25.1318 11.2017 25.1318 11.1776Z" fill="#CAD9FC"/>
<path d="M19.8183 11.25C19.8199 12.5383 19.3506 13.7828 18.4988 14.7493C17.1807 14.9955 15.8425 15.1184 14.5016 15.1166C13.1625 15.1197 11.826 14.9984 10.5093 14.7541C8.75732 12.7502 8.75732 9.75944 10.5093 7.75548C13.1516 7.26575 15.8613 7.26575 18.5036 7.75548C19.3526 8.72146 19.82 9.96395 19.8183 11.25Z" fill="#E8EDFC"/>
<path d="M18.4956 7.75062C17.1778 7.50208 15.8394 7.37908 14.4984 7.38328C14.2519 7.38328 14.0151 7.38328 13.7734 7.38328C14.8718 7.41433 15.9659 7.53231 17.0456 7.73612C18.7976 9.74009 18.7976 12.7308 17.0456 14.7348C15.9663 14.9459 14.8723 15.0735 13.7734 15.1167C14.0151 15.1166 14.2568 15.1166 14.4984 15.1166C15.8376 15.1197 17.1741 14.9984 18.4908 14.7541C20.2427 12.7502 20.2427 9.75942 18.4908 7.75545L18.4956 7.75062Z" fill="#CAD9FC"/>
<path d="M10.5031 7.75073C8.75114 9.7547 8.75114 12.7454 10.5031 14.7494C7.34209 14.1501 4.98826 12.8692 4.35026 11.3129C4.33116 11.2732 4.33116 11.2269 4.35026 11.1872C4.98826 9.6309 7.34209 8.35007 10.5031 7.75073V7.75073Z" fill="white"/>
<path d="M24.6501 11.3129C24.0266 12.8692 21.6727 14.1549 18.5117 14.7494C20.2637 12.7454 20.2637 9.7547 18.5117 7.75073C21.6582 8.35007 24.0121 9.6309 24.6501 11.1872C24.6691 11.2269 24.6691 11.2732 24.6501 11.3129Z" fill="white"/>
<path d="M24.6501 11.1872C24.0266 9.6309 21.6727 8.34523 18.5117 7.75073C18.634 7.89097 18.7486 8.0378 18.8549 8.19057C21.0927 8.87207 22.7216 9.94023 23.2049 11.1872C23.224 11.2269 23.224 11.2732 23.2049 11.3129C22.7216 12.5599 21.0976 13.6281 18.8549 14.3096C18.7486 14.4623 18.634 14.6092 18.5117 14.7494C21.6582 14.1501 24.0121 12.8692 24.6501 11.3129C24.6691 11.2732 24.6691 11.2269 24.6501 11.1872Z" fill="#E8EDFC"/>
<path d="M16.4331 11.25C16.4331 12.3177 15.5675 13.1833 14.4997 13.1833C13.432 13.1833 12.5664 12.3177 12.5664 11.25C12.5664 10.1822 13.432 9.31666 14.4997 9.31666C14.6779 9.31601 14.8552 9.34041 15.0266 9.38916C15.8589 9.6249 16.4334 10.3849 16.4331 11.25Z" fill="#2D58EA"/>
<path d="M17.401 9.07503C17.401 9.74238 16.8601 10.2834 16.1927 10.2834C15.9417 9.84769 15.5308 9.52696 15.0472 9.3892C15.0116 9.28794 14.9905 9.18218 14.9844 9.07503C14.9844 8.40769 15.5254 7.8667 16.1927 7.8667C16.8601 7.8667 17.401 8.40769 17.401 9.07503Z" fill="white"/>
<path d="M3.38328 11.1002C3.37803 11.15 3.37803 11.2002 3.38328 11.25C3.37745 11.3111 3.37745 11.3726 3.38328 11.4337C4.38861 15.5275 9.05278 18.5 14.4999 18.5C19.9471 18.5 24.6113 15.5275 25.6166 11.4337C25.6166 11.4337 25.6166 11.3998 25.6166 11.3853C25.6293 11.2956 25.6293 11.2044 25.6166 11.1147C25.6166 11.1147 25.6166 11.0808 25.6166 11.0663C24.6113 6.9725 19.9471 4 14.4999 4C9.05278 4 4.38861 6.9725 3.38328 11.1002ZM16.3753 9.76617C16.1359 9.45417 15.824 9.2053 15.4666 9.04117C15.4808 8.67053 15.7725 8.37039 16.1425 8.34555C16.5126 8.32072 16.8417 8.5792 16.9053 8.94462C16.9689 9.31003 16.7465 9.66452 16.3898 9.76617H16.3753ZM15.9499 11.25C15.9499 12.0508 15.3008 12.7 14.4999 12.7C13.6991 12.7 13.0499 12.0508 13.0499 11.25C13.0499 10.4492 13.6991 9.8 14.4999 9.8C15.3008 9.8 15.9499 10.4492 15.9499 11.25ZM14.5241 8.83333H14.4999C13.1653 8.83333 12.0833 9.91531 12.0833 11.25C12.0833 12.5847 13.1653 13.6667 14.4999 13.6667C15.8346 13.6667 16.9166 12.5847 16.9166 11.25C16.9152 11.044 16.8859 10.8392 16.8296 10.641C17.311 10.446 17.6757 10.0401 17.8182 9.54062C17.9608 9.04118 17.8653 8.50392 17.5594 8.08417L18.2361 8.19533C19.6996 9.96886 19.6996 12.5311 18.2361 14.3047C17.0028 14.5235 15.7526 14.6335 14.4999 14.6333C13.2473 14.6335 11.9971 14.5235 10.7638 14.3047C9.30034 12.5311 9.30034 9.96886 10.7638 8.19533C11.9971 7.97648 13.2473 7.8665 14.4999 7.86667H14.9833C14.7302 8.13111 14.5692 8.47011 14.5241 8.83333V8.83333ZM19.5943 8.49017C21.8756 9.0895 23.5866 10.0803 24.1376 11.2452C23.5866 12.41 21.8756 13.4008 19.5943 14.0002C20.5349 12.2839 20.5349 10.2064 19.5943 8.49017V8.49017ZM9.40561 14.005C7.12428 13.4057 5.41328 12.4148 4.86228 11.25C5.41328 10.0852 7.12428 9.09433 9.40561 8.495C8.46502 10.2112 8.46502 12.2888 9.40561 14.005ZM14.4999 17.5333C10.3771 17.5333 6.76661 15.7257 5.11845 13.048C6.96961 14.6043 10.4641 15.6 14.4999 15.6C18.5358 15.6 22.0158 14.6333 23.8669 13.0625C22.2333 15.7353 18.6131 17.5333 14.4999 17.5333V17.5333ZM14.4999 4.96667C18.6228 4.96667 22.2333 6.77433 23.8814 9.452C22.0303 7.89567 18.5358 6.9 14.4999 6.9C10.4641 6.9 6.98411 7.89083 5.12811 9.44233C6.76661 6.76467 10.3868 4.96667 14.4999 4.96667V4.96667Z" fill="#2D58EA"/>
<path d="M0.483333 16.8166C0.750271 16.8166 0.966667 16.6002 0.966667 16.3333V2.31663C0.966667 1.78276 1.39946 1.34997 1.93333 1.34997H8.21667C8.48361 1.34997 8.7 1.13357 8.7 0.866634C8.7 0.599696 8.48361 0.383301 8.21667 0.383301H1.93333C0.865583 0.383301 0 1.24888 0 2.31663V16.3333C0 16.6002 0.216396 16.8166 0.483333 16.8166Z" fill="#2D58EA"/>
<path d="M0.483333 18.75C0.216396 18.75 0 18.5336 0 18.2667C0 17.9997 0.216396 17.7833 0.483333 17.7833C0.750271 17.7833 0.966667 17.9997 0.966667 18.2667C0.966667 18.5336 0.750271 18.75 0.483333 18.75Z" fill="#2D58EA"/>
<path d="M27.0667 0.383301H20.7833C20.5164 0.383301 20.3 0.599696 20.3 0.866634C20.3 1.13357 20.5164 1.34997 20.7833 1.34997H27.0667C27.6005 1.34997 28.0333 1.78276 28.0333 2.31663V20.2C28.0333 20.7338 27.6005 21.1666 27.0667 21.1666H1.93333C1.39946 21.1666 0.966667 20.7338 0.966667 20.2C0.966667 19.933 0.750271 19.7166 0.483333 19.7166C0.216396 19.7166 0 19.933 0 20.2C0 21.2677 0.865583 22.1333 1.93333 22.1333H9.66667V22.578C9.66608 22.94 9.41884 23.255 9.06733 23.3416C8.28507 23.5293 7.73347 24.2288 7.73333 25.0333C7.73333 25.5672 8.16612 26 8.7 26H20.3C20.8339 26 21.2667 25.5672 21.2667 25.0333C21.2688 24.227 20.7167 23.5249 19.9327 23.3368C19.5829 23.2506 19.3361 22.9382 19.3333 22.578V22.1333H27.0667C28.1344 22.1333 29 21.2677 29 20.2V2.31663C29 1.24888 28.1344 0.383301 27.0667 0.383301ZM19.7007 24.2793C20.0507 24.3619 20.2985 24.6737 20.3 25.0333H8.7C8.69931 24.6719 8.94757 24.3575 9.29933 24.2745C10.0813 24.0832 10.6319 23.383 10.6333 22.578V22.1333H18.3667V22.578C18.3659 23.3848 18.9169 24.0876 19.7007 24.2793V24.2793Z" fill="#2D58EA"/>
<path d="M2.90026 2.79998C2.90026 2.53305 2.68386 2.31665 2.41693 2.31665C2.14999 2.31665 1.93359 2.53305 1.93359 2.79998V3.76665C1.93359 4.03359 2.14999 4.24998 2.41693 4.24998C2.68386 4.24998 2.90026 4.03359 2.90026 3.76665V2.79998Z" fill="#2D58EA"/>
<path d="M2.41693 5.21667C2.14999 5.21667 1.93359 5.43307 1.93359 5.70001V10.05C1.93359 10.3169 2.14999 10.5333 2.41693 10.5333C2.68386 10.5333 2.90026 10.3169 2.90026 10.05V5.70001C2.90026 5.43307 2.68386 5.21667 2.41693 5.21667Z" fill="#2D58EA"/>
</svg>
