<svg width="29" height="30" viewBox="0 0 29 30" fill="none" xmlns="http://www.w3.org/2000/svg">
<path d="M0.00143476 21.4872C0.00544907 22.2743 0.241884 23.0426 0.681056 23.6957C1.12023 24.3488 1.74256 24.8576 2.46992 25.1583C3.19728 25.4589 3.99725 25.538 4.76939 25.3855C5.54153 25.2331 6.25142 24.8559 6.80994 24.3014L13.7092 27.4182C14.0784 28.4053 14.8246 29.2054 15.7836 29.6424C16.7427 30.0793 17.836 30.1174 18.8232 29.7482C19.8103 29.3791 20.6104 28.6329 21.0473 27.6738C21.4843 26.7148 21.5224 25.6214 21.1532 24.6343L24.1792 20.1558H24.4818C25.4741 20.1353 26.4232 19.7461 27.1441 19.064C27.8651 18.382 28.3064 17.4559 28.3819 16.4663C28.4575 15.4768 28.1619 14.4945 27.5528 13.7109C26.9437 12.9273 26.0647 12.3986 25.087 12.2277L22.3939 6.47826C22.7704 6.00404 23.0342 5.45042 23.1654 4.85925C23.2965 4.26808 23.2915 3.65483 23.1507 3.06588C23.01 2.47693 22.7372 1.92768 22.3529 1.45968C21.9687 0.991676 21.483 0.617162 20.9327 0.364455C20.3825 0.111748 19.7819 -0.0125367 19.1765 0.000998001C18.5711 0.0145327 17.9768 0.165533 17.4383 0.44258C16.8999 0.719628 16.4315 1.11547 16.0685 1.60018C15.7056 2.08489 15.4576 2.64578 15.3433 3.24043L7.38489 4.32979C7.0356 3.76895 6.55265 3.3035 5.97929 2.97516C5.40593 2.64682 4.76008 2.46584 4.09959 2.44843C3.4391 2.43102 2.78461 2.57772 2.19475 2.8754C1.60489 3.17307 1.09808 3.61242 0.71973 4.15409C0.341382 4.69575 0.10331 5.32281 0.026842 5.97909C-0.0496256 6.63536 0.0378998 7.30036 0.281577 7.9145C0.525254 8.52864 0.917472 9.07275 1.42309 9.49806C1.92871 9.92338 2.53194 10.2166 3.17874 10.3515L3.11822 17.614C2.23742 17.8123 1.44979 18.3032 0.883775 19.0066C0.317758 19.71 0.00673911 20.5844 0.00143476 21.4872V21.4872ZM17.3404 21.7293C16.6251 21.7345 15.9246 21.9332 15.313 22.3043L11.4397 15.5865L17.401 7.59788L17.7036 7.74918L17.643 21.7898L17.3404 21.7293ZM15.6761 5.84279L10.1083 13.2868L7.41515 8.59646C7.77652 8.02318 7.98488 7.36682 8.02035 6.69008L15.5854 5.66123L15.6761 5.84279ZM8.53477 15.405L6.35604 18.3099C6.10393 18.1166 5.82965 17.9541 5.53902 17.8258L5.59954 10.291L8.53477 15.405ZM3.99576 23.0608C3.68455 23.0608 3.38032 22.9685 3.12156 22.7956C2.86279 22.6227 2.66111 22.3769 2.54202 22.0894C2.42292 21.8019 2.39176 21.4855 2.45247 21.1803C2.51319 20.875 2.66305 20.5947 2.88311 20.3746C3.10317 20.1545 3.38355 20.0047 3.68878 19.9439C3.99402 19.8832 4.3104 19.9144 4.59792 20.0335C4.88545 20.1526 5.1312 20.3543 5.3041 20.613C5.477 20.8718 5.56928 21.176 5.56928 21.4872C5.56928 21.9046 5.4035 22.3048 5.10841 22.5999C4.81332 22.895 4.41308 23.0608 3.99576 23.0608ZM7.83879 20.3979L9.86621 17.6745L13.6185 24.2712L13.4974 24.6645L7.89931 22.153C8.00613 21.5688 7.97504 20.9679 7.80853 20.3979H7.83879ZM17.3404 27.2972C17.0292 27.2972 16.725 27.2049 16.4662 27.032C16.2075 26.8591 16.0058 26.6133 15.8867 26.3258C15.7676 26.0383 15.7364 25.7219 15.7972 25.4167C15.8579 25.1114 16.0077 24.8311 16.2278 24.611C16.4479 24.3909 16.7282 24.2411 17.0335 24.1804C17.3387 24.1196 17.6551 24.1508 17.9426 24.2699C18.2301 24.389 18.4759 24.5907 18.6488 24.8494C18.8217 25.1082 18.914 25.4124 18.914 25.7236C18.914 25.9303 18.8733 26.1349 18.7942 26.3258C18.7151 26.5167 18.5992 26.6902 18.4531 26.8363C18.307 26.9824 18.1335 27.0983 17.9426 27.1774C17.7517 27.2565 17.5471 27.2972 17.3404 27.2972V27.2972ZM20.0941 21.9411L20.1546 7.93074L20.3362 7.87022L22.6057 12.6816C22.0322 12.9854 21.5421 13.4255 21.1784 13.963C20.8147 14.5006 20.5886 15.1192 20.5198 15.7646C20.4511 16.41 20.5419 17.0624 20.7842 17.6644C21.0266 18.2665 21.4131 18.7999 21.9097 19.2177L20.0941 21.9411ZM26.0251 16.1917C26.0251 16.5029 25.9328 16.8072 25.7599 17.0659C25.587 17.3247 25.3412 17.5264 25.0537 17.6455C24.7662 17.7646 24.4498 17.7957 24.1446 17.735C23.8393 17.6743 23.559 17.5244 23.3389 17.3044C23.1188 17.0843 22.969 16.8039 22.9083 16.4987C22.8475 16.1935 22.8787 15.8771 22.9978 15.5896C23.1169 15.302 23.3186 15.0563 23.5773 14.8834C23.8361 14.7105 24.1403 14.6182 24.4516 14.6182C24.6582 14.6182 24.8628 14.6589 25.0537 14.738C25.2446 14.8171 25.4181 14.933 25.5642 15.0791C25.7103 15.2252 25.8262 15.3987 25.9053 15.5896C25.9844 15.7805 26.0251 15.9851 26.0251 16.1917ZM19.2468 2.48393C19.558 2.48393 19.8623 2.57622 20.121 2.74912C20.3798 2.92202 20.5815 3.16777 20.7006 3.45529C20.8197 3.74281 20.8508 4.0592 20.7901 4.36443C20.7294 4.66966 20.5795 4.95004 20.3595 5.1701C20.1394 5.39016 19.859 5.54002 19.5538 5.60074C19.2486 5.66145 18.9322 5.63029 18.6447 5.5112C18.3571 5.3921 18.1114 5.19042 17.9385 4.93165C17.7656 4.67289 17.6733 4.36867 17.6733 4.05745C17.6733 3.64013 17.8391 3.2399 18.1342 2.9448C18.4293 2.64971 18.8295 2.48393 19.2468 2.48393V2.48393ZM2.48276 6.47826C2.48276 6.16704 2.57504 5.86282 2.74794 5.60405C2.92085 5.34529 3.1666 5.14361 3.45412 5.02451C3.74164 4.90541 4.05803 4.87425 4.36326 4.93497C4.66849 4.99568 4.94887 5.14555 5.16893 5.36561C5.38899 5.58567 5.53885 5.86604 5.59957 6.17128C5.66028 6.47651 5.62912 6.79289 5.51003 7.08042C5.39093 7.36794 5.18925 7.61369 4.93048 7.78659C4.67172 7.95949 4.36749 8.05178 4.05628 8.05178C3.63896 8.05178 3.23873 7.886 2.94363 7.5909C2.64854 7.29581 2.48276 6.89558 2.48276 6.47826V6.47826Z" fill="url(#paint0_linear)"/>
<defs>
<linearGradient id="paint0_linear" x1="0" y1="0" x2="22.9333" y2="32.1165" gradientUnits="userSpaceOnUse">
<stop stop-color="#2569E6"/>
<stop offset="1" stop-color="#3649EF"/>
</linearGradient>
</defs>
</svg>
