<svg width="164" height="80" viewBox="0 0 164 80" fill="none" xmlns="http://www.w3.org/2000/svg">
<path d="M62.5753 54.0202C61.3932 54.0202 60.5977 54.9597 60.5977 56.1677C60.5977 57.3757 61.3932 58.3152 62.5753 58.3152C63.7575 58.3152 64.553 57.3757 64.553 56.1677C64.5419 54.9597 63.7465 54.0202 62.5753 54.0202V54.0202ZM62.3102 52.6892C63.2603 52.6892 64.0558 53.1814 64.4315 53.7182V52.8234H65.8898V59.5231H64.7629C64.6751 59.5229 64.5909 59.4874 64.5288 59.4246C64.4667 59.3617 64.4317 59.2765 64.4315 59.1876V58.6283C64.0558 59.1652 63.2714 59.6574 62.3102 59.6574C60.4982 59.6574 59.1172 58.0915 59.1172 56.1789C59.1172 54.2663 60.4872 52.6892 62.3102 52.6892V52.6892ZM67.5471 52.8234H69.0055V53.7294C69.4032 53.0583 70.1545 52.6892 71.0163 52.6892C72.552 52.6892 73.5464 53.7853 73.5464 55.4854V59.5231H72.4305C72.3427 59.5229 72.2585 59.4874 72.1964 59.4246C72.1343 59.3617 72.0993 59.2765 72.099 59.1876V55.7315C72.099 54.6689 71.5687 54.0314 70.718 54.0314C69.7568 54.0314 69.0055 54.792 69.0055 56.2236V59.5231H67.8896C67.8018 59.5229 67.7176 59.4874 67.6555 59.4246C67.5934 59.3617 67.5584 59.2765 67.5582 59.1876L67.5471 52.8234ZM78.1425 54.0202C76.9603 54.0202 76.1648 54.9597 76.1648 56.1677C76.1648 57.3757 76.9603 58.3152 78.1425 58.3152C79.3247 58.3152 80.1202 57.3757 80.1202 56.1677C80.1202 54.9597 79.3247 54.0202 78.1425 54.0202ZM77.8773 52.6892C78.8275 52.6892 79.623 53.1814 79.9986 53.7182V49.468H81.457V59.5231H80.3411C80.2533 59.5229 80.1692 59.4874 80.1071 59.4246C80.045 59.3617 80.0099 59.2765 80.0097 59.1876V58.6283C79.634 59.1652 78.8496 59.6574 77.8884 59.6574C76.0765 59.6574 74.6954 58.0915 74.6954 56.1789C74.6954 54.2663 76.0654 52.6892 77.8773 52.6892V52.6892ZM83.1143 52.8234H84.5727V54.0202C84.7008 53.6539 84.9369 53.3363 85.2491 53.1102C85.5613 52.8842 85.9345 52.7607 86.3183 52.7563C86.5076 52.7528 86.6967 52.7715 86.8818 52.8123V54.3222C86.6467 54.2425 86.4005 54.2009 86.1526 54.1992C85.324 54.1992 84.5616 54.915 84.5616 56.246V59.5119H83.4457C83.3579 59.5117 83.2738 59.4762 83.2117 59.4134C83.1495 59.3505 83.1145 59.2653 83.1143 59.1764V52.8234ZM90.804 58.2816C91.964 58.2816 92.7927 57.3533 92.7927 56.1677C92.7927 54.9709 91.9751 54.0538 90.804 54.0538C89.6218 54.0538 88.8042 54.9821 88.8042 56.1677C88.8152 57.3645 89.6218 58.2816 90.804 58.2816ZM90.804 59.6574C90.1242 59.6518 89.4613 59.4427 88.8988 59.0563C88.3364 58.6698 87.8995 58.1234 87.6434 57.486C87.3873 56.8486 87.3234 56.1486 87.4597 55.4744C87.5961 54.8003 87.9266 54.1821 88.4095 53.6978C88.8925 53.2135 89.5063 52.8849 90.1735 52.7534C90.8408 52.6218 91.5315 52.6932 92.1587 52.9586C92.7859 53.224 93.3214 53.6715 93.6977 54.2446C94.074 54.8177 94.2742 55.4907 94.2732 56.1789C94.2754 56.6392 94.187 57.0953 94.0131 57.5206C93.8391 57.9458 93.5831 58.3317 93.2601 58.6556C92.937 58.9795 92.5534 59.2349 92.1317 59.4069C91.71 59.5789 91.2586 59.6641 90.804 59.6574V59.6574ZM95.4553 52.8234H96.9137V59.5231H95.7978C95.71 59.5229 95.6258 59.4874 95.5637 59.4246C95.5016 59.3617 95.4666 59.2765 95.4664 59.1876L95.4553 52.8234ZM96.1845 51.3582C95.9245 51.3558 95.6758 51.2501 95.4919 51.0639C95.308 50.8778 95.2037 50.626 95.2012 50.3628C95.2064 50.1025 95.3124 49.8547 95.4963 49.6727C95.6802 49.4907 95.9273 49.3891 96.1845 49.3897C96.4424 49.3897 96.6897 49.4934 96.872 49.678C97.0543 49.8626 97.1568 50.1129 97.1568 50.374C97.1568 50.635 97.0543 50.8854 96.872 51.07C96.6897 51.2545 96.4424 51.3582 96.1845 51.3582V51.3582ZM101.565 54.0202C100.383 54.0202 99.5874 54.9597 99.5874 56.1677C99.5874 57.3757 100.383 58.3152 101.565 58.3152C102.747 58.3152 103.543 57.3757 103.543 56.1677C103.521 54.9597 102.747 54.0202 101.565 54.0202ZM101.3 52.6892C102.25 52.6892 103.046 53.1814 103.421 53.7182V49.468H104.88V59.5231H103.764C103.676 59.5229 103.592 59.4874 103.53 59.4246C103.468 59.3617 103.433 59.2765 103.432 59.1876V58.6283C103.057 59.1652 102.272 59.6574 101.311 59.6574C99.499 59.6574 98.118 58.0915 98.118 56.1789C98.118 54.2663 99.488 52.6892 101.3 52.6892" fill="#344154"/>
<path d="M93.2125 26.9866L97.0242 20.3092C97.1264 20.1255 97.153 19.9084 97.0983 19.705C97.0435 19.5015 96.9119 19.3281 96.7317 19.2222C96.5516 19.1163 96.3375 19.0865 96.1359 19.1393C95.9342 19.192 95.7611 19.323 95.6542 19.5039L91.7983 26.2596C88.7204 24.8587 85.3841 24.1344 82.0094 24.1344C78.6348 24.1344 75.2985 24.8587 72.2206 26.2596L68.3647 19.5039C68.2577 19.323 68.0847 19.192 67.883 19.1393C67.6813 19.0865 67.4673 19.1163 67.2871 19.2222C67.107 19.3281 66.9753 19.5015 66.9206 19.705C66.8659 19.9084 66.8925 20.1255 66.9947 20.3092L70.8064 26.9866C64.2326 30.5881 59.769 37.2878 59.1172 45.1954H104.857C104.206 37.2878 99.731 30.5881 93.2125 26.9866ZM71.4693 38.5964C71.0934 38.5964 70.726 38.4835 70.4135 38.2722C70.101 38.0608 69.8574 37.7603 69.7136 37.4088C69.5698 37.0573 69.5321 36.6705 69.6055 36.2973C69.6788 35.9241 69.8598 35.5813 70.1255 35.3123C70.3913 35.0432 70.7299 34.86 71.0985 34.7858C71.4672 34.7115 71.8493 34.7496 72.1965 34.8952C72.5437 35.0409 72.8405 35.2874 73.0493 35.6038C73.2582 35.9202 73.3696 36.2921 73.3696 36.6726C73.3696 37.1828 73.1694 37.6721 72.813 38.0329C72.4566 38.3937 71.9733 38.5964 71.4693 38.5964V38.5964ZM92.5275 38.5964C92.1516 38.5964 91.7842 38.4835 91.4717 38.2722C91.1592 38.0608 90.9157 37.7603 90.7718 37.4088C90.628 37.0573 90.5904 36.6705 90.6637 36.2973C90.737 35.9241 90.918 35.5813 91.1838 35.3123C91.4495 35.0432 91.7881 34.86 92.1568 34.7858C92.5254 34.7115 92.9075 34.7496 93.2547 34.8952C93.602 35.0409 93.8988 35.2874 94.1076 35.6038C94.3164 35.9202 94.4278 36.2921 94.4278 36.6726C94.4278 37.1828 94.2276 37.6721 93.8712 38.0329C93.5149 38.3937 93.0315 38.5964 92.5275 38.5964V38.5964Z" fill="#344154"/>
</svg>
