<svg width="165" height="80" viewBox="0 0 165 80" fill="none" xmlns="http://www.w3.org/2000/svg">
<g clip-path="url(#clip0)">
<path d="M103.12 54.1863C102.366 55.8983 101.473 57.4741 100.439 58.9229C99.0293 60.8979 97.8751 62.265 96.9856 63.0242C95.6067 64.2704 94.1294 64.9085 92.5474 64.9448C91.4117 64.9448 90.042 64.6273 88.4477 63.983C86.8482 63.3418 85.3782 63.0242 84.0341 63.0242C82.6245 63.0242 81.1127 63.3418 79.4956 63.983C77.876 64.6273 76.5713 64.963 75.5738 64.9963C74.0568 65.0598 72.5446 64.4034 71.0353 63.0242C70.0719 62.1985 68.8669 60.783 67.4234 58.7777C65.8747 56.6363 64.6014 54.1531 63.6039 51.322C62.5355 48.2642 62 45.3031 62 42.4364C62 39.1526 62.7221 36.3203 64.1683 33.9469C65.305 32.0405 66.8171 30.5367 68.7097 29.4327C70.6022 28.3288 72.6471 27.7662 74.8493 27.7302C76.0543 27.7302 77.6344 28.0965 79.5981 28.8163C81.5562 29.5386 82.8135 29.9049 83.3647 29.9049C83.7768 29.9049 85.1735 29.4766 87.5413 28.6227C89.7804 27.8309 91.6702 27.503 93.2184 27.6322C97.4134 27.9649 100.565 29.59 102.661 32.5178C98.9093 34.7518 97.0533 37.8807 97.0903 41.8947C97.1241 45.0212 98.2783 47.623 100.547 49.6888C101.575 50.6476 102.723 51.3886 104 51.9149C103.723 52.7043 103.431 53.4604 103.12 54.1863V54.1863ZM93.4984 16.9808C93.4984 19.4313 92.5874 21.7194 90.7715 23.8372C88.5801 26.3549 85.9295 27.8097 83.0551 27.5802C83.0185 27.2862 82.9972 26.9768 82.9972 26.6516C82.9972 24.2991 84.0394 21.7814 85.8901 19.7229C86.814 18.6806 87.9891 17.814 89.4142 17.1226C90.8361 16.4416 92.1811 16.065 93.4461 16.0005C93.483 16.3281 93.4984 16.6557 93.4984 16.9807V16.9808Z" fill="#344154"/>
</g>
<defs>
<clipPath id="clip0">
<rect x="62" y="16" width="42" height="49" fill="white"/>
</clipPath>
</defs>
</svg>
