<svg width="165" height="80" viewBox="0 0 165 80" fill="none" xmlns="http://www.w3.org/2000/svg">
<g clip-path="url(#clip0)">
<path d="M55.3285 54.7917C53.7758 55.4583 52.1812 56.0417 50.6286 56.7917C49.6215 57.2917 48.5305 57.5833 47.4395 58C47.1457 58.125 46.6841 57.875 46.3065 57.75C42.9494 56.625 39.5924 55.4583 36.2354 54.3333C31.7873 52.8333 27.3393 51.3333 22.8912 49.875C22.2618 49.6667 21.5904 49.4583 20.9609 49.25C20.9609 49.1667 21.0029 49.125 21.0029 49.0417C22.2618 49.2083 23.5207 49.375 24.7376 49.5833C26.1224 49.7917 27.5071 49.9583 28.8919 50.1667C31.032 50.5 33.1301 50.8333 35.2702 51.125C36.697 51.3333 38.0818 51.5417 39.5504 51.6667C40.7254 51.75 41.9004 52.1667 43.1173 52.2917C44.4181 52.4167 45.719 52.7917 47.0618 52.9167C47.4814 52.9583 47.5653 52.875 47.5653 52.5C47.5653 52.3333 47.5653 52.125 47.5653 51.9583C47.5653 42.2917 47.5653 32.6667 47.5653 23C47.5653 22.7084 47.5653 22.4167 47.5653 22.0417C49.4956 22.8334 51.384 23.625 53.2723 24.4167C54.4053 24.875 55.5383 25.375 56.6713 25.875C56.6713 26.1667 56.6293 26.5 56.6293 26.7917C56.6293 35.6667 56.6293 44.5417 56.6293 53.4583C56.6293 53.75 56.7132 54.0833 56.5034 54.375C56.0838 54.4583 55.7061 54.625 55.3285 54.7917Z" fill="#344154"/>
<path d="M30.1512 47.375C28.5146 45.4584 26.8781 43.5417 25.2415 41.6667C25.1576 41.5417 24.9897 41.4167 25.0737 41.2917C25.1995 41.125 25.4094 41.2084 25.5772 41.25C27.8432 41.5417 30.1092 41.8334 32.3332 42.125C33.9278 42.3334 35.5643 42.5417 37.1589 42.75C37.7045 42.8334 37.8723 42.7084 37.8723 42.125C37.8303 39.0834 37.8723 36.0417 37.8723 33C37.8723 31.7917 37.9982 31.6667 39.1312 31.5C40.2222 31.3334 41.3132 31.2084 42.3623 31C42.8659 30.9167 42.9498 31.0417 42.9498 31.5C42.9498 35.3334 42.9498 39.125 42.9498 42.9584C42.9498 43.2917 42.8239 43.5 42.5721 43.6667C41.1874 44.8334 39.8026 46.0417 38.3759 47.1667C38.0821 47.375 37.7884 47.5 37.3268 47.3334C35.1447 46.5 32.7948 45.9584 30.6547 45.0417C30.2351 44.875 30.319 45.2084 30.319 45.4167C30.319 46.0417 30.319 46.7084 30.319 47.3334C30.2351 47.3334 30.1931 47.375 30.1512 47.375Z" fill="#344154"/>
<path d="M31.6616 27.25C33.7178 28.7917 35.69 30.25 37.8301 31.8333C35.4802 32.2917 33.3401 32.7083 31.1581 33.125C29.3117 33.5 27.4653 33.875 25.619 34.2083C25.0315 34.2917 24.7797 34.5 24.8217 35.125C24.8636 36.875 24.8217 38.625 24.8217 40.3333C24.8217 41.1667 24.7797 41.2083 24.0244 40.9167C22.5977 40.375 22.5977 40.375 22.5977 38.875C22.5977 37.7083 22.6396 36.5417 22.5977 35.375C22.5977 34.7917 22.7655 34.3333 23.1012 33.875C23.5208 33.375 23.8985 32.875 24.2762 32.375C24.486 32.0417 24.8217 31.9167 25.1574 31.7917C27.0877 31.0417 29.0599 30.2917 31.0322 29.5C31.4518 29.3333 31.7455 29.0833 31.6616 28.5833C31.6197 28.2083 31.6616 27.7917 31.6616 27.25Z" fill="#344154"/>
<path d="M87.1347 47.375C88.1418 47.25 88.1418 47.25 88.3097 48.3333C88.6454 47.4583 89.3587 47.25 90.0721 47.2083C90.8694 47.125 91.5408 47.4167 92.0444 48.0833C92.2122 48.2917 92.3381 48.375 92.5479 48.0833C93.2613 47 94.3943 47.0833 95.2335 47.2917C96.2826 47.5417 96.6603 48.375 96.7022 49.3333C96.7442 50.75 96.7442 52.2083 96.7442 53.625C96.7442 54.0417 96.5344 54.1667 96.1567 54.2083C95.6532 54.25 95.6951 53.9167 95.6951 53.5833C95.6951 52.4583 95.6532 51.3333 95.6951 50.25C95.6951 49.75 95.5273 49.2917 95.4014 48.8333C95.1916 48.2083 93.8488 47.9583 93.3452 48.4583C92.8416 48.9167 92.464 49.4583 92.464 50.2083C92.506 51.2917 92.464 52.375 92.464 53.5C92.464 53.9583 92.422 54.25 91.8345 54.25C91.1631 54.25 91.4149 53.7917 91.373 53.5C91.373 52.2917 91.373 51.125 91.373 49.9167C91.331 48.75 90.9114 48.25 89.9882 48.1667C89.023 48.125 88.3516 48.5833 88.2257 49.7083C88.0999 51 88.1838 52.2917 88.1418 53.5833C88.1418 53.875 88.1418 54.1667 87.8061 54.2083C87.5543 54.25 87.1347 54.4167 87.0508 53.9167C87.1347 51.7083 87.1347 49.5417 87.1347 47.375Z" fill="#344154"/>
<path d="M115.125 47.4584C115.545 47.2917 115.964 47 116.3 47.625C116.468 47.9584 116.72 47.8334 116.929 47.625C117.685 46.875 118.65 47.25 119.447 47.375C119.993 47.4584 120.035 48.25 120.161 48.7084C120.538 50.125 121.168 51.4584 121.545 53C122.133 51.3334 122.72 49.875 123.224 48.3334C123.476 47.5417 123.811 47.125 124.693 47.3334C124.693 47.4584 124.651 47.625 124.651 47.75C123.853 49.6667 123.098 51.5834 122.301 53.5C122.133 53.875 122.007 54.0834 121.545 54.0834C121.042 54.0834 120.916 53.8334 120.79 53.5C120.244 52 119.657 50.5417 119.111 49.0417C118.776 48.125 117.559 47.9167 116.887 48.6667C116.426 49.2084 116.258 49.8334 116.258 50.5417C116.258 51.4167 116.258 52.2917 116.258 53.2084C116.258 54.2084 116.174 54.2917 115.125 53.9584C115.209 51.75 115.209 49.625 115.125 47.4584Z" fill="#344154"/>
<path d="M125.028 32.0833C125.154 32.125 125.28 32.1667 125.406 32.2083C125.7 32.4583 125.993 32.7083 126.329 33C126.329 31.625 126.329 30.3333 126.329 29.0417C126.665 28.9167 127.043 28.9167 127.42 28.9583C127.42 32.25 127.42 35.5833 127.378 38.875C126.707 38.9167 126.035 38.9167 126.413 37.7917C125.658 38.6667 124.819 39.0833 123.769 39C122.636 38.9167 121.42 38 121.294 36.875C121.168 35.875 121.126 34.875 121.545 33.875C122.133 32.4583 123.266 31.875 124.777 31.9167C124.819 32 124.944 32.0417 125.028 32.0833ZM126.371 35.4167C126.371 35.1667 126.371 34.9167 126.329 34.625C126.203 33.6667 125.574 33 124.693 32.9167C123.727 32.7917 122.888 33.25 122.553 34.125C122.217 35 122.175 35.9167 122.469 36.7917C122.762 37.6667 123.392 38.125 124.273 38.125C125.154 38.125 125.868 37.625 126.161 36.7917C126.329 36.375 126.413 35.875 126.371 35.4167Z" fill="#344154"/>
<path d="M108.497 30.8334C107.532 30.3751 106.651 30.2084 105.686 30.3751C105.014 30.5001 104.511 30.7917 104.343 31.5417C104.217 32.2084 104.553 32.7084 105.098 33.0417C105.854 33.4584 106.609 33.8334 107.364 34.2917C108.329 34.8751 109.001 35.6667 108.833 36.9167C108.749 37.4584 108.581 37.9584 108.12 38.2501C107.112 38.9167 106.105 39.4584 104.804 39.0834C104.343 38.9584 103.881 38.9167 103.42 38.7501C103.21 38.6667 103 38.5834 103 38.3334C103 38.0417 102.916 37.6251 103.042 37.4167C103.294 37.1251 103.504 37.5834 103.755 37.6667C104.595 37.9167 105.35 38.2501 106.273 38.0417C106.861 37.9167 107.406 37.7084 107.49 37.0417C107.616 36.2917 107.448 35.6667 106.651 35.2501C105.812 34.8334 105.014 34.3334 104.217 33.8751C103.378 33.4167 102.958 32.6667 103 31.7917C103.042 30.8334 103.671 30.0834 104.553 29.6667C105.644 29.1667 106.777 29.2084 107.952 29.4584C108.833 29.6667 108.371 30.2917 108.497 30.8334Z" fill="#344154"/>
<path d="M106.692 45.9167C105.81 45.5 104.887 45.3333 103.964 45.5C102.831 45.7083 102.285 46.5833 102.705 47.4583C102.915 47.9167 103.377 48.1667 103.796 48.4167C104.426 48.75 105.055 49.0417 105.643 49.4167C106.608 50 107.279 50.8333 107.069 52.0417C106.901 53.2083 106.104 53.7083 105.013 54.0417C103.88 54.375 102.789 54.125 101.698 53.9167C101.278 53.8333 100.985 53.0417 101.194 52.625C101.362 52.3333 101.53 52.5 101.698 52.625C102.453 53.0833 103.293 53.25 104.174 53.2083C105.349 53.125 105.978 52.375 105.726 51.3333C105.559 50.625 104.845 50.2917 104.258 50C103.712 49.7083 103.125 49.4583 102.621 49.125C101.698 48.5833 101.111 47.7917 101.32 46.75C101.572 45.4167 102.495 44.7083 103.796 44.5417C104.468 44.4583 105.139 44.5417 105.81 44.4167C106.44 44.2917 106.817 44.9583 106.692 45.9167Z" fill="#344154"/>
<path d="M66.3242 29.5834C67.5831 29.5 67.7929 29.5834 68.0447 30.625C68.5482 32.625 69.3455 34.5 69.975 36.4584C70.1009 36.8334 70.2268 37.1667 70.3946 37.5834C70.8142 36.7917 70.9821 35.9584 71.2339 35.1667C71.7794 33.4167 72.5767 31.75 72.9963 29.9584C73.0802 29.5834 74.0454 29.3334 74.3811 29.5834C74.6748 29.7917 74.423 30.0417 74.3391 30.2084C73.5838 31.625 73.1641 33.2084 72.6186 34.7084C72.1151 36.0834 71.5696 37.4167 71.024 38.7917C70.8982 39.1667 70.5625 39 70.2687 39.0417C69.8911 39.0834 69.6812 38.9167 69.5554 38.5834C68.9679 36.9584 68.3804 35.375 67.7929 33.75C67.3313 32.375 66.8278 31 66.3242 29.5834Z" fill="#344154"/>
<path d="M85.542 51.5833C85.542 52.25 85.542 52.875 85.542 53.5417C85.542 53.7917 85.584 54.125 85.2063 54.1667C84.9126 54.2083 84.451 54.3333 84.3251 53.9167C84.1992 53.4167 84.0314 53.6667 83.8216 53.7917C82.6046 54.4583 81.2199 54.4583 80.5065 53.4583C79.7512 52.4583 80.1288 50.6667 81.3458 50.3333C82.1011 50.125 82.8564 49.9167 83.6537 49.75C84.409 49.5833 84.5349 49.125 84.0314 48.5417C83.4859 47.9583 82.3529 47.9167 81.4717 48.4583C81.2199 48.625 80.9261 48.9583 80.7163 48.5417C80.5904 48.25 80.5485 47.7917 81.052 47.5833C81.9332 47.2083 82.8564 47.0417 83.7796 47.2083C84.9965 47.4583 85.2903 48 85.4581 49.5417C85.584 50.25 85.542 50.9167 85.542 51.5833ZM84.451 51.25C84.3251 51.0833 84.7028 50.5417 84.0733 50.6667C83.4019 50.75 82.7305 50.7917 82.0591 51C81.4297 51.2083 81.2199 51.6667 81.2618 52.25C81.3458 52.875 81.7654 53.2083 82.3948 53.25C83.5278 53.375 84.409 52.5417 84.451 51.25Z" fill="#344154"/>
<path d="M78.868 52.5834C79.0359 53.625 78.4064 54.2084 77.1056 54.2917C74.378 54.5 73.0352 52.1667 73.5807 49.8334C74.0842 47.75 75.0914 47.0417 76.9797 47.125C78.5743 47.2084 79.9171 49.125 79.4555 50.625C79.3716 50.9584 79.0778 50.875 78.868 50.875C77.735 50.875 76.5601 50.875 75.4271 50.875C74.7557 50.875 74.5878 51.125 74.7557 51.75C75.0494 52.7917 76.2243 53.375 77.3154 53.0834C77.8189 53.0417 78.3225 52.9167 78.868 52.5834ZM76.5181 50.0417C76.9797 50.0417 77.3993 50 77.8609 50.0417C78.3225 50.0834 78.3645 49.8334 78.3225 49.4584C78.1546 48.75 77.8189 48.2084 77.0216 48.0834C76.1824 47.9167 75.4271 48.2917 75.0074 49.0834C74.5458 49.875 74.6298 50.0417 75.5529 50.0417C75.8467 50.0417 76.1824 50.0417 76.5181 50.0417Z" fill="#344154"/>
<path d="M111.516 50.9167C111.013 50.9167 110.467 50.9583 109.964 50.9167C109.292 50.8333 109.125 51.0417 109.25 51.7083C109.502 52.875 110.719 53.5417 112.062 53.2083C112.398 53.125 112.691 52.9583 113.027 52.8333C113.195 52.75 113.363 52.5 113.531 52.7917C113.657 53 113.657 53.2083 113.489 53.4167C113.027 53.9583 112.356 54.2083 111.768 54.2083C110.383 54.2917 109.041 53.9583 108.411 52.5C107.824 51.2083 107.866 49.875 108.537 48.625C109.167 47.5417 110.132 47.0417 111.391 47.0833C113.027 47.1667 114.37 49.0417 113.908 50.5833C113.824 50.875 113.615 50.8333 113.447 50.8333C112.817 50.9167 112.146 50.9167 111.516 50.9167ZM110.971 50.0417C111.433 50.0417 111.852 50 112.314 50.0417C112.775 50.0833 112.817 49.875 112.775 49.4583C112.649 48.6667 112.104 48.125 111.349 48.0417C110.467 47.9583 109.67 48.5 109.334 49.3333C109.167 49.8333 109.25 50.0833 109.838 50C110.216 50 110.593 50.0417 110.971 50.0417Z" fill="#344154"/>
<path d="M91.0402 33.625C90.7045 32.625 91.208 32.3334 91.9214 32.2084C92.8446 32.0417 93.8097 31.7917 94.691 32.4167C95.2784 32.8334 95.6141 33.375 95.6141 34.0834C95.6141 35.5 95.6141 36.9584 95.6141 38.375C95.6141 38.625 95.6141 38.9584 95.2784 39C95.0266 39.0417 94.649 39.2084 94.5231 38.7084C94.4392 38.375 94.1874 38.5 93.9776 38.625C93.516 38.8334 93.0544 39 92.5508 39.0417C90.9143 39.1667 90.4947 38.5 90.159 37.2084C89.9492 36.4167 90.8723 35.2917 91.8375 35.0834C92.4669 34.9584 93.1383 34.875 93.7678 34.75C94.4811 34.625 94.649 34.0834 94.1874 33.5C93.6838 32.875 93.0124 32.7917 92.2991 33.0417C91.8794 33.1667 91.4179 33.2917 91.0402 33.625ZM94.5651 36.1667C94.4811 35.9584 94.7749 35.5 94.2294 35.5417C93.516 35.625 92.8446 35.6667 92.1732 35.875C91.5857 36.0834 91.3759 36.5417 91.4598 37.125C91.5437 37.7084 91.8794 38.0417 92.4669 38.125C93.5999 38.2917 94.4811 37.5 94.5651 36.1667Z" fill="#344154"/>
<path d="M139.128 52.625C139.422 53.375 139.086 53.7083 138.457 53.9583C136.653 54.6667 134.974 53.9167 134.345 52.875C133.463 51.375 133.715 49 134.932 47.9167C135.813 47.125 137.282 46.9167 138.289 47.4583C139.212 47.9583 139.842 49.375 139.674 50.5833C139.632 51 139.38 50.9167 139.128 50.9167C137.912 50.9167 136.653 50.9583 135.436 50.9167C134.932 50.9167 134.89 51.0833 134.932 51.5C135.1 52.5 135.771 53.1667 136.82 53.2917C137.66 53.3333 138.415 53.125 139.128 52.625ZM136.695 50.0417C137.156 50.0417 137.576 50 138.037 50.0417C138.583 50.0833 138.625 49.7917 138.541 49.375C138.373 48.6667 137.953 48.1667 137.156 48.0833C136.317 47.9583 135.604 48.375 135.184 49.1667C134.806 49.9583 134.848 50.0417 135.687 50.0417C136.023 50.0417 136.359 50.0417 136.695 50.0417Z" fill="#344154"/>
<path d="M135.1 39.0417C132.96 39.0833 131.659 37.8333 131.617 35.7083C131.617 33.375 132.75 32.0833 134.974 32.0417C136.988 32 138.163 33.25 138.247 35.375C138.373 37.3333 136.946 39.1667 135.1 39.0417ZM137.156 35.5417C137.156 34.2083 136.653 33.3333 135.73 33.0417C134.387 32.625 133.17 33.2917 132.834 34.6667C132.414 36.4167 133.128 37.875 134.513 38.125C136.149 38.4167 137.156 37.4167 137.156 35.5417Z" fill="#344154"/>
<path d="M115.838 39C115.628 38.9167 115.418 38.7917 115.208 38.7083C114.957 38.5 114.747 38.25 114.579 37.9167C114.537 37.75 114.453 37.625 114.411 37.4583C114.369 37.375 114.369 37.25 114.327 37.1667C114.327 37 114.285 36.8333 114.285 36.7083C114.285 35.2083 114.285 33.7083 114.285 32.2083C115.334 32.1667 115.334 32.1667 115.334 33.2083C115.334 34.2917 115.334 35.375 115.376 36.5C115.418 37.5 115.964 38.125 116.635 38.1667C117.894 38.2083 118.481 37.75 118.733 36.5833C118.901 35.125 118.733 33.6667 118.817 32.25C119.866 32.2083 119.866 32.2083 119.866 33.2083C119.866 34.7917 119.866 36.375 119.866 37.9167C119.866 39 119.866 39 118.775 38.875C118.775 38.625 118.775 38.375 118.775 38.1667C118.775 38.125 118.733 38.0833 118.733 38.0833C118.691 38.125 118.649 38.1667 118.607 38.1667C118.356 38.375 118.146 38.625 117.894 38.8333C117.726 38.9167 117.558 38.9583 117.39 39.0417C117.306 39.0417 117.223 39.0833 117.139 39.0833C117.013 39.0833 116.929 39.0833 116.803 39.125C116.509 39.0417 116.173 39.0417 115.838 39Z" fill="#344154"/>
<path d="M83.4032 32.2083C84.4523 32.1667 84.4523 32.1667 84.4523 33.2917C84.4523 34.2917 84.4523 35.25 84.4523 36.25C84.4943 37.4583 85.0398 38.1667 85.963 38.1667C87.012 38.1667 87.8513 37.3333 87.8932 36.2083C87.9352 35.0833 87.9352 33.9167 87.8932 32.7917C87.8932 32.375 87.9772 32.2083 88.4388 32.2083C88.8584 32.2083 88.9423 32.375 88.9423 32.75C88.9423 34.6667 88.9423 36.5417 88.9423 38.4583C88.9423 38.7083 88.9423 39 88.6066 39.0417C88.3129 39.0833 87.8933 39.1667 87.7674 38.7917C87.6415 38.2917 87.5156 38.4583 87.2218 38.625C86.4665 39.0417 85.6692 39.4167 84.746 39C83.8648 38.625 83.5291 37.875 83.2773 37.0417C83.3613 35.4167 83.3613 33.7917 83.4032 32.2083Z" fill="#344154"/>
<path d="M81.8502 33.5C81.1788 33 80.4654 33.125 79.752 33.125C79.3324 33.125 78.9967 33.25 78.9128 33.625C78.7869 34.0417 78.8708 34.4167 79.2485 34.6667C79.752 35.0417 80.3815 35.1667 80.927 35.4167C82.1859 36 82.5635 37.125 81.8502 38.125C81.3466 38.8333 79.794 39.4167 78.9967 39.125C78.7029 39 78.4092 38.9583 78.1155 38.9167C77.3601 38.75 77.6539 38.2083 77.6539 37.7917C77.6539 37.5833 77.9057 37.6667 78.0315 37.75C78.619 38.1667 79.2485 38.1667 79.9199 38.0833C80.3395 38.0417 80.7591 38 80.885 37.5417C81.0109 37.125 80.9689 36.7083 80.4234 36.4583C80.0038 36.25 79.5842 36.0417 79.1226 35.875C78.1994 35.5833 77.57 34.6667 77.6119 33.875C77.6539 33.0833 78.3672 32.4167 79.3324 32.1667C79.9199 32 80.5493 32.0417 81.1368 32.0833C81.8502 32.0417 81.9761 32.375 81.8502 33.5Z" fill="#344154"/>
<path d="M140.594 52.7084C141.391 53.2084 142.188 53.4167 143.07 53.25C143.489 53.1667 143.825 52.9584 143.909 52.5417C143.993 52.125 143.783 51.75 143.405 51.5834C142.902 51.3334 142.398 51.125 141.895 50.9167C140.888 50.4584 140.468 49.875 140.552 49.0417C140.594 48.25 141.265 47.5834 142.272 47.3334C142.734 47.2084 143.196 47.2084 143.657 47.25C144.664 47.3334 144.706 47.4167 144.664 48.5417C144.035 48.1667 143.363 48.125 142.692 48.1667C142.23 48.1667 141.811 48.375 141.685 48.875C141.559 49.3334 141.769 49.7084 142.188 49.9167C142.776 50.2084 143.363 50.4584 143.951 50.7084C144.538 51 144.916 51.4584 145 52.125C145.042 52.8334 144.748 53.375 144.161 53.7917C143.28 54.3334 142.356 54.4167 141.391 54.125C140.468 53.8334 140.468 53.7917 140.594 52.7084Z" fill="#344154"/>
<path d="M69.2188 49.9583C69.2188 48.75 69.1768 47.5 69.2188 46.2917C69.2188 45.7083 69.0509 45.5833 68.5054 45.625C68.0018 45.6667 67.4983 45.625 66.9947 45.625C66.5751 45.6667 66.4492 45.5 66.4492 45.0833C66.4492 44.6667 66.659 44.625 66.9947 44.625C68.8411 44.625 70.6455 44.625 72.4919 44.625C72.8276 44.625 72.9954 44.7083 73.0374 45.0833C73.0374 45.5 72.8695 45.625 72.4499 45.5833C71.9463 45.5417 71.4008 45.625 70.8973 45.5833C70.3937 45.5417 70.2678 45.75 70.3098 46.2083C70.3518 48.5833 70.3098 51 70.3098 53.375C70.3098 53.7083 70.3937 54.0833 69.8902 54.1667C69.5125 54.2083 69.1348 54.2917 69.2188 53.625C69.3027 52.375 69.2188 51.1667 69.2188 49.9583Z" fill="#344154"/>
<path d="M132.959 52.7917C133.043 53.6251 132.498 54.2501 131.7 54.2501C130.274 54.2501 128.973 53.8751 128.343 52.5001C127.672 51.0834 127.756 49.6667 128.721 48.3751C129.56 47.2917 131.239 46.8334 132.54 47.2917C133.211 47.5001 132.959 48.0001 132.959 48.4167C131.197 47.8334 130.232 48.0001 129.518 49.0001C128.847 49.9584 128.847 51.6251 129.518 52.3751C130.442 53.4167 131.365 53.5417 132.959 52.7917Z" fill="#344154"/>
<path d="M113.321 33.0834C111.642 33.0834 111.642 33.0834 111.642 34.7084C111.642 35.4584 111.6 36.2084 111.642 36.9584C111.684 37.8334 112.062 38.1667 112.859 38.0834C113.027 38.0834 113.321 37.75 113.362 38.25C113.362 38.5417 113.404 38.7917 113.027 38.9167C111.81 39.3334 110.719 38.6667 110.635 37.3334C110.551 36.1667 110.593 35 110.593 33.8334C110.593 33.2917 110.551 32.9167 109.838 33.0417C109.502 33.125 109.418 32.9167 109.418 32.5834C109.418 32.25 109.502 32.0834 109.88 32.125C110.593 32.25 110.677 31.875 110.593 31.3334C110.593 31.125 110.551 30.9167 110.593 30.7084C110.677 30.2917 111.096 30.2917 111.432 30.25C111.852 30.1667 111.642 30.5834 111.684 30.75C111.726 32.125 111.726 32.125 113.153 32.125C113.237 32.125 113.321 32.125 113.404 32.125C113.321 32.5 113.321 32.7917 113.321 33.0834Z" fill="#344154"/>
<path d="M98.3381 34C98.3381 35.4583 98.3381 36.9167 98.3381 38.375C98.3381 38.75 98.2962 38.9583 97.8346 38.9583C97.373 38.9583 97.2891 38.7917 97.2891 38.375C97.2891 35.4583 97.2891 32.5833 97.2891 29.6667C97.2891 29.2917 97.2891 29 97.7926 29C98.3381 29 98.3381 29.2917 98.3381 29.7083C98.2962 31.0833 98.3381 32.5417 98.3381 34Z" fill="#344154"/>
<path d="M130.36 38.75C129.352 39.125 129.227 39.0417 129.227 38.0417C129.227 36.4584 129.227 34.8334 129.227 33.25C129.227 32.2084 129.227 32.2084 130.318 32.2084C130.318 34.375 130.318 36.5417 130.36 38.75Z" fill="#344154"/>
<path d="M125.531 47.375C126.622 47.2083 126.622 47.2083 126.622 48.3333C126.622 49.875 126.622 51.4167 126.622 52.9583C126.622 54.0417 126.622 54.0417 125.573 54C125.531 51.7917 125.531 49.5833 125.531 47.375Z" fill="#344154"/>
<path d="M76.3957 35.625C76.3957 36.5417 76.3538 37.5 76.3957 38.4167C76.3957 38.875 76.1439 38.875 75.8082 38.9167C75.4306 38.9167 75.3047 38.8334 75.3047 38.4584C75.3047 36.5417 75.3047 34.625 75.3047 32.7084C75.3047 32.3334 75.4306 32.2084 75.8082 32.2084C76.1439 32.2084 76.4377 32.2084 76.3957 32.6667C76.3538 33.625 76.3957 34.625 76.3957 35.625Z" fill="#344154"/>
<path d="M75.933 29.0833C76.2267 29.0833 76.5624 29.3333 76.5624 29.75C76.5624 30.1667 76.2267 30.5417 75.8071 30.5417C75.4295 30.5417 75.0938 30.1667 75.0938 29.7917C75.0938 29.5 75.2616 29.0417 75.933 29.0833Z" fill="#344154"/>
<path d="M126.791 44.875C126.749 45.2916 126.497 45.5416 126.12 45.5833C125.7 45.5833 125.448 45.3333 125.406 44.9166C125.406 44.5 125.658 44.2083 126.078 44.2083C126.497 44.2083 126.749 44.4583 126.791 44.875Z" fill="#344154"/>
<path d="M129.727 29.0834C130.231 29.0834 130.566 29.4584 130.524 29.75C130.524 30.0834 130.231 30.5 129.769 30.4584C129.35 30.4167 129.056 30.2084 129.098 29.75C129.098 29.3334 129.391 29.125 129.727 29.0834Z" fill="#344154"/>
<path d="M55.3281 54.7916C55.7058 54.625 56.0415 54.5 56.4192 54.3333C56.2513 54.875 55.8736 54.9583 55.3281 54.7916Z" fill="#FEFEFE"/>
<path d="M118.734 38.125C118.692 38.125 118.65 38.125 118.566 38.125C118.608 38.0834 118.65 38.0417 118.692 38.0417C118.734 38.0417 118.734 38.0834 118.734 38.125Z" fill="#FAFCFD"/>
</g>
<defs>
<clipPath id="clip0">
<rect x="21" y="22" width="124" height="36" fill="white"/>
</clipPath>
</defs>
</svg>
