<svg width="53" height="45" viewBox="0 0 53 45" fill="none" xmlns="http://www.w3.org/2000/svg">
<path d="M18.5451 2.13777C17.8504 0.855107 16.5677 0 15.0178 0C12.8266 0 11.0095 1.76366 11.0095 4.00831C11.0095 6.19952 12.7732 8.01663 15.0178 8.01663C15.3385 8.01663 15.6591 7.96318 15.9264 7.90974L22.3397 18.3314C23.0879 17.6366 24.0499 17.1556 25.0653 16.9418L18.3848 6.14608C18.5451 5.82542 18.7055 5.50475 18.8124 5.18409H31.5855C31.5321 4.80998 31.4786 4.43587 31.4786 4.00831C31.4786 3.36698 31.5855 2.72565 31.7993 2.13777H18.5451V2.13777ZM15.0178 5.50475C14.2162 5.50475 13.5214 4.86342 13.5214 4.00831C13.5214 3.20665 14.1627 2.51188 15.0178 2.51188C15.8195 2.51188 16.5142 3.15321 16.5142 4.00831C16.4608 4.86342 15.8195 5.50475 15.0178 5.50475ZM37.0903 0.0534441C34.899 0.0534441 33.0819 1.8171 33.0819 4.06176C33.0819 6.25297 34.8456 8.07007 37.0903 8.07007C37.4109 8.07007 37.7316 8.01663 37.9988 7.96318L44.4121 18.3848C45.1603 17.69 46.1223 17.209 47.1378 16.9953L40.4572 6.14608C40.8314 5.5582 41.0451 4.80998 41.0451 4.06176C41.0451 1.8171 39.2815 0.0534441 37.0903 0.0534441ZM37.0903 5.50475C36.2886 5.50475 35.5938 4.86342 35.5938 4.00831C35.5938 3.20665 36.2352 2.51188 37.0903 2.51188C37.8919 2.51188 38.5867 3.15321 38.5867 4.00831C38.5333 4.86342 37.8919 5.50475 37.0903 5.50475ZM15.0178 44.9466C16.6211 44.9466 17.9572 44.038 18.5986 42.7019H31.7993C31.5855 42.114 31.4786 41.4727 31.4786 40.8314C31.4786 40.4572 31.5321 40.0297 31.5855 39.6556H18.8124C18.7055 39.3349 18.5986 39.0677 18.4382 38.8005L25.0653 28.0048C24.0499 27.791 23.0879 27.31 22.3397 26.6152L15.9798 36.9299C15.6591 36.823 15.3385 36.823 14.9644 36.823C12.7732 36.823 10.9561 38.5867 10.9561 40.8314V40.8848V40.9382C11.0095 43.1829 12.7732 44.9466 15.0178 44.9466ZM15.0178 39.4953C15.8195 39.4953 16.4608 40.1366 16.5142 40.8848C16.4608 41.6865 15.8195 42.2743 15.0178 42.2743C14.2162 42.2743 13.5748 41.633 13.5214 40.8848C13.5748 40.1366 14.2162 39.4953 15.0178 39.4953ZM44.4121 26.6686L37.9988 37.0903C37.6781 37.0368 37.4109 36.9834 37.0903 36.9834C34.899 36.9834 33.0819 38.747 33.0819 40.9917C33.0819 43.1829 34.8456 45 37.0903 45C39.2815 45 41.0986 43.2363 41.0986 40.9917C41.0986 40.2435 40.8848 39.4952 40.5107 38.9074L47.1378 28.0582C46.0689 27.791 45.1603 27.31 44.4121 26.6686ZM37.0903 42.4347C36.2886 42.4347 35.5938 41.7934 35.5938 40.9382C35.5938 40.1366 36.2352 39.4418 37.0903 39.4418C37.8919 39.4418 38.5867 40.0831 38.5867 40.9382C38.5333 41.7934 37.8919 42.4347 37.0903 42.4347ZM48.1532 18.4917C46.6033 18.4917 45.3207 19.3468 44.6259 20.6295H31.3717C31.5855 21.2173 31.6924 21.8587 31.6924 22.5C31.6924 22.8741 31.639 23.3017 31.5855 23.6758H44.3587C44.8397 25.3325 46.3895 26.5083 48.2067 26.5083C50.3979 26.5083 52.215 24.7447 52.215 22.5C52.1615 20.3088 50.3444 18.4917 48.1532 18.4917ZM48.1532 23.9964C47.3515 23.9964 46.6568 23.3551 46.6568 22.5C46.6568 21.6983 47.2981 21.0036 48.1532 21.0036C48.9549 21.0036 49.6496 21.6449 49.6496 22.5C49.6496 23.3017 48.9549 23.9964 48.1532 23.9964ZM26.1342 18.4917C26.0808 18.4917 26.0808 18.4917 26.1342 18.4917C24.3171 18.4917 22.7672 19.6675 22.2862 21.3242H9.51306C9.56651 21.6983 9.61995 22.0724 9.61995 22.5C9.61995 23.1413 9.51306 23.7827 9.29929 24.3705H22.5534C23.2482 25.6532 24.5309 26.5083 26.0808 26.5083C26.0808 26.5083 26.0808 26.5083 26.1342 26.5083L32.8147 37.4109C33.4561 36.6093 34.3112 36.0214 35.3266 35.7007L28.9133 25.2791C29.6081 24.5843 30.0356 23.5689 30.0356 22.5C30.0356 21.4311 29.6081 20.4157 28.9133 19.7209L35.2732 9.35273C34.2577 9.03207 33.4026 8.44418 32.7613 7.64252L26.1342 18.4917ZM26.0808 23.9964C25.2791 23.9964 24.5843 23.3551 24.5843 22.5C24.5843 21.6449 25.2257 21.0036 26.0808 21.0036C26.8824 21.0036 27.5772 21.6449 27.5772 22.5C27.5772 23.3551 26.8824 23.9964 26.0808 23.9964ZM4.00831 26.5083L10.6888 37.4109C11.3302 36.6093 12.1853 36.0214 13.2007 35.7007L6.84085 25.2791C7.53563 24.5843 7.96318 23.5689 7.96318 22.5C7.96318 21.4311 7.53563 20.4157 6.84085 19.7209L13.2007 9.35273C12.1853 9.03207 11.3302 8.44418 10.6888 7.64252L4.06176 18.4917C4.06176 18.4917 4.06176 18.4917 4.00831 18.4917C1.8171 18.4917 0 20.2553 0 22.5C0 24.6912 1.8171 26.5083 4.00831 26.5083ZM4.00831 21.0036C4.80998 21.0036 5.50475 21.6449 5.50475 22.5C5.50475 23.3551 4.86342 23.9964 4.00831 23.9964C3.15321 23.9964 2.51188 23.3017 2.51188 22.5C2.51188 21.6983 3.20665 21.0036 4.00831 21.0036Z" fill="url(#paint0_linear)"/>
<defs>
<linearGradient id="paint0_linear" x1="11.1889" y1="5.2002e-07" x2="24.773" y2="42.3087" gradientUnits="userSpaceOnUse">
<stop stop-color="#7561F4"/>
<stop offset="1" stop-color="#3E16DC"/>
</linearGradient>
</defs>
</svg>
