<svg width="165" height="80" viewBox="0 0 165 80" fill="none" xmlns="http://www.w3.org/2000/svg">
<g clip-path="url(#clip0)">
<path d="M75.0309 54.1799C75.0309 55.6943 73.8049 57.071 72.1703 57.071C70.5356 57.071 69.3096 55.8319 69.3096 54.1799V41.7897C69.3096 40.2753 70.5356 38.8986 72.1703 38.8986C73.8049 38.8986 75.0309 40.1376 75.0309 41.7897V54.1799ZM83.2043 57.484C83.2043 58.9983 81.9783 60.375 80.3436 60.375C78.709 60.375 77.6192 59.136 77.6192 57.484V38.6233C77.6192 37.1089 78.8452 35.7322 80.4799 35.7322C82.1145 35.7322 83.3405 36.9712 83.3405 38.6233V57.484H83.2043ZM66.7214 51.4265C66.7214 52.9409 65.4954 54.3176 63.8607 54.3176C62.226 54.3176 61 53.0786 61 51.4265V44.6807C61 43.1663 62.226 41.7897 63.8607 41.7897C65.4954 41.7897 66.7214 43.1663 66.7214 44.6807V51.4265ZM91.3777 60.5127C91.3777 62.0271 90.1517 63.4038 88.517 63.4038C87.0185 63.4038 85.7925 62.0271 85.7925 60.5127V35.4569C85.7925 33.9425 87.0185 32.5658 88.6532 32.5658C90.1517 32.5658 91.5139 33.8048 91.5139 35.4569V60.5127H91.3777Z" fill="#344154"/>
<path d="M100.366 59.2737C99.8212 59.2737 99.4125 59.136 98.8676 58.9984L95.462 57.897C94.9171 57.7593 94.5085 57.071 94.7809 56.5203C94.9171 55.9696 95.5983 55.5566 96.1432 55.832L99.6849 56.9333C100.366 57.2086 101.183 57.071 101.865 56.5203C102.546 56.1073 102.818 55.2813 102.818 54.5929V31.6021C102.818 30.5008 102.137 29.5371 101.183 29.2618L67.8088 19.0742C67.1277 18.7989 66.3103 18.9366 65.6292 19.3496C65.0843 19.9003 64.6757 20.5886 64.6757 21.4146V37.2466C64.6757 37.9349 64.1308 38.3479 63.5859 38.3479C62.9048 38.3479 62.4961 37.7973 62.4961 37.2466V21.4146C62.4961 19.9003 63.1772 18.5236 64.4032 17.6975C65.6292 16.7339 67.1277 16.5962 68.4899 17.0092L101.728 27.1967C103.635 27.7474 104.998 29.6748 104.998 31.7398V54.7306C104.998 56.245 104.317 57.6217 103.091 58.5853C102.273 58.8607 101.32 59.2737 100.366 59.2737" fill="#344154"/>
</g>
<defs>
<clipPath id="clip0">
<rect x="61" y="16" width="44" height="48" fill="white"/>
</clipPath>
</defs>
</svg>
