<svg width="64" height="48" viewBox="0 0 64 48" fill="none" xmlns="http://www.w3.org/2000/svg">
<g clip-path="url(#clip0)">
<path d="M32.0474 9.0089C33.7067 9.0089 35.0519 7.66376 35.0519 6.00445C35.0519 4.34514 33.7067 3 32.0474 3C30.3881 3 29.043 4.34514 29.043 6.00445C29.043 7.66376 30.3881 9.0089 32.0474 9.0089Z" fill="url(#paint0_linear)"/>
<path d="M32.0474 48C33.7067 48 35.0519 46.6549 35.0519 44.9955C35.0519 43.3362 33.7067 41.9911 32.0474 41.9911C30.3881 41.9911 29.043 43.3362 29.043 44.9955C29.043 46.6549 30.3881 48 32.0474 48Z" fill="url(#paint1_linear)"/>
<path d="M3.00445 30.04C4.66376 30.04 6.0089 28.6949 6.0089 27.0356C6.0089 25.3763 4.66376 24.0311 3.00445 24.0311C1.34514 24.0311 0 25.3763 0 27.0356C0 28.6949 1.34514 30.04 3.00445 30.04Z" fill="url(#paint2_linear)"/>
<path d="M61.0904 30.0401C62.7497 30.0401 64.0948 28.695 64.0948 27.0357C64.0948 25.3764 62.7497 24.0312 61.0904 24.0312C59.4311 24.0312 58.0859 25.3764 58.0859 27.0357C58.0859 28.695 59.4311 30.0401 61.0904 30.0401Z" fill="url(#paint3_linear)"/>
<path d="M22.8712 26.0342H21.5359V24.6321C21.5359 24.1408 21.3009 24.0312 20.8989 24.0312H20.171C19.768 24.0312 19.5329 24.2077 19.5329 24.6989V26.0342H18.1976C18.1097 26.0218 18.0201 26.0294 17.9355 26.0565C17.8509 26.0837 17.7736 26.1296 17.7094 26.1909C17.6451 26.2522 17.5956 26.3273 17.5645 26.4105C17.5334 26.4937 17.5216 26.5828 17.5299 26.6712V27.4001C17.5216 27.4885 17.5334 27.5777 17.5645 27.6609C17.5956 27.7441 17.6451 27.8192 17.7094 27.8805C17.7736 27.9418 17.8509 27.9877 17.9355 28.0149C18.0201 28.042 18.1097 28.0496 18.1976 28.0372H19.5329V29.5282C19.5329 29.9705 19.768 30.0401 20.17 30.0401H20.8988C20.9872 30.0485 21.0764 30.0367 21.1596 30.0057C21.2428 29.9746 21.3179 29.9251 21.3792 29.8608C21.4406 29.7966 21.4865 29.7192 21.5137 29.6346C21.5408 29.5501 21.5484 29.4604 21.5359 29.3725V28.0372H22.8712C23.3626 28.0372 23.5388 27.8019 23.5388 27.4001V26.6721C23.5388 26.2695 23.3626 26.0342 22.8712 26.0342Z" fill="url(#paint4_linear)"/>
<path d="M53.0779 29.5393V24.5321C53.0725 22.6745 52.3322 20.8946 51.0186 19.581C49.7051 18.2675 47.9252 17.5272 46.0676 17.5217H45.0661V16.5201C45.0652 15.7235 44.7484 14.9598 44.1851 14.3966C43.6219 13.8333 42.8582 13.5165 42.0616 13.5156H40.0587C39.2621 13.5165 38.4984 13.8333 37.9351 14.3966C37.3719 14.9598 37.0551 15.7235 37.0542 16.5201V17.5217H27.0394V16.5201C27.0385 15.7235 26.7217 14.9598 26.1584 14.3966C25.5952 13.8333 24.8315 13.5165 24.0349 13.5156H22.0319C21.2354 13.5165 20.4717 13.8333 19.9084 14.3966C19.3452 14.9598 19.0284 15.7235 19.0275 16.5201V17.5217H18.026C16.1684 17.5272 14.3884 18.2675 13.0749 19.581C11.7614 20.8946 11.0211 22.6745 11.0156 24.5321V29.5393C11.0211 31.3969 11.7614 33.1769 13.0749 34.4905C14.3884 35.804 16.1684 36.5444 18.026 36.5499L27.4621 36.5497C27.6495 36.345 30.7641 32.7592 31.0598 32.4992C31.2967 32.2762 31.6082 32.1497 31.9335 32.1442C32.1228 32.1442 32.3093 32.1893 32.4776 32.2759C32.9403 32.5177 35.3968 35.7609 36.0527 36.5491L46.0676 36.5497C47.9252 36.5443 49.7051 35.804 51.0186 34.4904C52.3322 33.1769 53.0725 31.3969 53.0779 29.5393V29.5393ZM21.0305 16.5201C21.0308 16.2546 21.1364 16 21.3241 15.8123C21.5119 15.6245 21.7664 15.5189 22.0319 15.5186H24.0349C24.3004 15.5189 24.555 15.6245 24.7427 15.8123C24.9305 16 25.0361 16.2546 25.0364 16.5201V17.5216H21.0305V16.5201ZM25.5371 27.4003C25.5648 28.0078 25.3708 28.6047 24.9911 29.0798C24.6115 29.5549 24.0721 29.8759 23.4734 29.9829C23.3591 30.5771 23.0366 31.1111 22.5637 31.4888C22.0909 31.8664 21.4989 32.0631 20.8941 32.0432H20.1654C19.5495 32.095 18.937 31.9098 18.4529 31.5255C17.9688 31.1411 17.6497 30.5865 17.5605 29.9749C16.9711 29.8562 16.4429 29.5324 16.0697 29.061C15.6965 28.5896 15.5026 28.0012 15.5223 27.4003V26.6714C15.5024 26.0666 15.699 25.4745 16.0767 25.0017C16.4544 24.5289 16.9884 24.2064 17.5827 24.0921C17.6899 23.4934 18.0111 22.954 18.4864 22.5744C18.9617 22.1947 19.5587 22.0007 20.1663 22.0284H20.8943C21.506 21.9874 22.1111 22.1761 22.591 22.5578C23.0709 22.9395 23.3911 23.4865 23.4888 24.0918C24.0842 24.2022 24.6196 24.5242 24.9961 24.9985C25.3726 25.4728 25.5647 26.0673 25.5371 26.6722V27.4003ZM34.0497 26.5349H30.0438C29.7782 26.5349 29.5235 26.4294 29.3357 26.2416C29.1478 26.0538 29.0423 25.799 29.0423 25.5334C29.0423 25.2678 29.1478 25.0131 29.3357 24.8253C29.5235 24.6374 29.7782 24.5319 30.0438 24.5319H34.0497C34.3154 24.5319 34.5701 24.6374 34.7579 24.8253C34.9457 25.0131 35.0512 25.2678 35.0512 25.5334C35.0512 25.799 34.9457 26.0538 34.7579 26.2416C34.5701 26.4294 34.3154 26.5349 34.0497 26.5349ZM42.0616 30.0401H40.0587C39.793 30.0401 39.5383 29.9346 39.3505 29.7468C39.1627 29.5589 39.0572 29.3042 39.0572 29.0386C39.0572 28.773 39.1627 28.5183 39.3505 28.3305C39.5383 28.1426 39.793 28.0371 40.0587 28.0371H42.0616C42.3272 28.0371 42.582 28.1426 42.7698 28.3305C42.9576 28.5183 43.0631 28.773 43.0631 29.0386C43.0631 29.3042 42.9576 29.5589 42.7698 29.7468C42.582 29.9346 42.3272 30.0401 42.0616 30.0401ZM42.0616 26.0342H40.0587C39.793 26.0342 39.5383 25.9286 39.3505 25.7408C39.1627 25.553 39.0572 25.2983 39.0572 25.0327C39.0572 24.7671 39.1627 24.5123 39.3505 24.3245C39.5383 24.1367 39.793 24.0312 40.0587 24.0312H42.0616C42.3272 24.0312 42.582 24.1367 42.7698 24.3245C42.9576 24.5123 43.0631 24.7671 43.0631 25.0327C43.0631 25.2983 42.9576 25.553 42.7698 25.7408C42.582 25.9286 42.3272 26.0342 42.0616 26.0342ZM43.0631 17.5215H39.0572V16.5201C39.0575 16.2545 39.1631 16 39.3508 15.8122C39.5386 15.6245 39.7931 15.5189 40.0587 15.5186H42.0616C42.3271 15.5189 42.5817 15.6245 42.7694 15.8122C42.9572 16 43.0628 16.2545 43.0631 16.5201V17.5215ZM48.0705 30.0401H46.0676C45.8019 30.0401 45.5472 29.9346 45.3594 29.7468C45.1716 29.5589 45.0661 29.3042 45.0661 29.0386C45.0661 28.773 45.1716 28.5183 45.3594 28.3305C45.5472 28.1426 45.8019 28.0371 46.0676 28.0371H48.0705C48.3361 28.0371 48.5909 28.1426 48.7787 28.3305C48.9665 28.5183 49.072 28.773 49.072 29.0386C49.072 29.3042 48.9665 29.5589 48.7787 29.7468C48.5909 29.9346 48.3361 30.0401 48.0705 30.0401ZM48.0705 26.0342H46.0676C45.8019 26.0342 45.5472 25.9286 45.3594 25.7408C45.1716 25.553 45.0661 25.2983 45.0661 25.0327C45.0661 24.7671 45.1716 24.5123 45.3594 24.3245C45.5472 24.1367 45.8019 24.0312 46.0676 24.0312H48.0705C48.3361 24.0312 48.5909 24.1367 48.7787 24.3245C48.9665 24.5123 49.072 24.7671 49.072 25.0327C49.072 25.2983 48.9665 25.553 48.7787 25.7408C48.5909 25.9286 48.3361 26.0342 48.0705 26.0342Z" fill="url(#paint5_linear)"/>
<path d="M10.8913 8.73239C10.7886 8.81456 10.7031 8.91615 10.6397 9.03137C10.5763 9.14658 10.5362 9.27316 10.5217 9.40387C10.5072 9.53458 10.5186 9.66686 10.5553 9.79316C10.5919 9.91947 10.6531 10.0373 10.7353 10.14L14.7412 15.1462C14.8231 15.2496 14.9247 15.3359 15.04 15.3999C15.1554 15.464 15.2822 15.5047 15.4133 15.5196C15.5444 15.5345 15.6772 15.5233 15.804 15.4867C15.9307 15.4502 16.049 15.3889 16.1521 15.3065C16.2551 15.224 16.3408 15.122 16.4043 15.0064C16.4678 14.8907 16.5078 14.7636 16.522 14.6324C16.5362 14.5013 16.5244 14.3686 16.4871 14.242C16.4499 14.1154 16.388 13.9974 16.305 13.8948L12.2991 8.88862C12.217 8.78585 12.1154 8.70028 12.0002 8.63681C11.8849 8.57333 11.7583 8.53319 11.6276 8.51868C11.4968 8.50417 11.3645 8.51558 11.2382 8.55225C11.1118 8.58891 10.9939 8.65013 10.8913 8.73239V8.73239Z" fill="url(#paint6_linear)"/>
<path d="M47.9464 15.299C48.0491 15.3812 48.1669 15.4424 48.2932 15.479C48.4195 15.5156 48.5518 15.527 48.6825 15.5125C48.8132 15.498 48.9397 15.4579 49.0549 15.3944C49.1701 15.331 49.2716 15.2455 49.3538 15.1428L53.3597 10.1354C53.524 9.92786 53.5995 9.66372 53.5696 9.40072C53.5397 9.13771 53.4069 8.89723 53.2002 8.73185C52.9936 8.56647 52.7298 8.48964 52.4667 8.51816C52.2035 8.54668 51.9623 8.67823 51.7959 8.88404L47.79 13.8915C47.7077 13.9941 47.6466 14.112 47.6099 14.2383C47.5733 14.3646 47.5619 14.497 47.5764 14.6277C47.591 14.7584 47.6311 14.885 47.6946 15.0002C47.7581 15.1154 47.8437 15.2169 47.9464 15.299V15.299Z" fill="url(#paint7_linear)"/>
<path d="M16.1439 38.7721C16.0412 38.69 15.9234 38.6288 15.7971 38.5922C15.6708 38.5556 15.5385 38.5442 15.4078 38.5587C15.2771 38.5732 15.1506 38.6133 15.0354 38.6768C14.9202 38.7402 14.8187 38.8257 14.7365 38.9284L10.7306 43.9358C10.6476 44.0384 10.5857 44.1564 10.5485 44.283C10.5113 44.4095 10.4994 44.5422 10.5136 44.6734C10.5279 44.8046 10.5679 44.9317 10.6313 45.0473C10.6948 45.163 10.7805 45.265 10.8836 45.3474C10.9866 45.4299 11.1049 45.4912 11.2317 45.5277C11.3584 45.5643 11.4912 45.5755 11.6223 45.5606C11.7534 45.5457 11.8803 45.505 11.9956 45.4409C12.111 45.3768 12.2125 45.2906 12.2944 45.1872L16.3003 40.1797C16.3826 40.0771 16.4437 39.9592 16.4804 39.8329C16.517 39.7065 16.5284 39.5742 16.5139 39.4435C16.4993 39.3128 16.4592 39.1862 16.3957 39.071C16.3322 38.9558 16.2466 38.8543 16.1439 38.7721V38.7721Z" fill="url(#paint8_linear)"/>
<path d="M52.5788 45.5664C52.7674 45.5662 52.9521 45.5128 53.1117 45.4123C53.2713 45.3118 53.3992 45.1683 53.4809 44.9983C53.5625 44.8283 53.5945 44.6388 53.5732 44.4514C53.5518 44.264 53.478 44.0865 53.3603 43.9392L49.3543 38.9318C49.1879 38.726 48.9467 38.5944 48.6836 38.5659C48.4204 38.5374 48.1567 38.6142 47.95 38.7796C47.7433 38.945 47.6105 39.1854 47.5806 39.4484C47.5507 39.7115 47.6262 39.9756 47.7905 40.1831L51.7964 45.1905C51.8902 45.308 52.0092 45.4028 52.1447 45.4679C52.2801 45.533 52.4285 45.5666 52.5788 45.5664Z" fill="url(#paint9_linear)"/>
</g>
<defs>
<linearGradient id="paint0_linear" x1="32.0474" y1="3" x2="32.0474" y2="9.0089" gradientUnits="userSpaceOnUse">
<stop stop-color="#D64AA8"/>
<stop offset="1" stop-color="#9427D2"/>
</linearGradient>
<linearGradient id="paint1_linear" x1="32.0474" y1="41.9911" x2="32.0474" y2="48" gradientUnits="userSpaceOnUse">
<stop stop-color="#D64AA8"/>
<stop offset="1" stop-color="#9427D2"/>
</linearGradient>
<linearGradient id="paint2_linear" x1="3.00445" y1="24.0311" x2="3.00445" y2="30.04" gradientUnits="userSpaceOnUse">
<stop stop-color="#D64AA8"/>
<stop offset="1" stop-color="#9427D2"/>
</linearGradient>
<linearGradient id="paint3_linear" x1="61.0904" y1="24.0312" x2="61.0904" y2="30.0401" gradientUnits="userSpaceOnUse">
<stop stop-color="#D64AA8"/>
<stop offset="1" stop-color="#9427D2"/>
</linearGradient>
<linearGradient id="paint4_linear" x1="20.5331" y1="24.0312" x2="20.5331" y2="30.0428" gradientUnits="userSpaceOnUse">
<stop stop-color="#D64AA8"/>
<stop offset="1" stop-color="#9427D2"/>
</linearGradient>
<linearGradient id="paint5_linear" x1="32.0468" y1="13.5156" x2="32.0468" y2="36.5499" gradientUnits="userSpaceOnUse">
<stop stop-color="#D64AA8"/>
<stop offset="1" stop-color="#9427D2"/>
</linearGradient>
<linearGradient id="paint6_linear" x1="13.5217" y1="8.51257" x2="13.5217" y2="15.526" gradientUnits="userSpaceOnUse">
<stop stop-color="#D64AA8"/>
<stop offset="1" stop-color="#9427D2"/>
</linearGradient>
<linearGradient id="paint7_linear" x1="50.5732" y1="8.51233" x2="50.5732" y2="15.5186" gradientUnits="userSpaceOnUse">
<stop stop-color="#D64AA8"/>
<stop offset="1" stop-color="#9427D2"/>
</linearGradient>
<linearGradient id="paint8_linear" x1="13.5139" y1="38.5526" x2="13.5139" y2="45.567" gradientUnits="userSpaceOnUse">
<stop stop-color="#D64AA8"/>
<stop offset="1" stop-color="#9427D2"/>
</linearGradient>
<linearGradient id="paint9_linear" x1="50.5769" y1="38.5601" x2="50.5769" y2="45.5664" gradientUnits="userSpaceOnUse">
<stop stop-color="#D64AA8"/>
<stop offset="1" stop-color="#9427D2"/>
</linearGradient>
<clipPath id="clip0">
<rect width="64" height="48" fill="white"/>
</clipPath>
</defs>
</svg>
