<svg width="48" height="48" viewBox="0 0 48 48" fill="none" xmlns="http://www.w3.org/2000/svg">
<g clip-path="url(#clip0)">
<path d="M13.6749 35.4079H10.9297V38.2597H19.4841V32.556H14.6382C14.6382 33.7481 14.2538 34.7953 13.6749 35.4079Z" fill="url(#paint0_linear)"/>
<path d="M30.8867 43.9633H42.2941V26.8523H30.8867V43.9633V43.9633ZM33.7386 29.7041H39.4422V41.1115H33.7386V29.7041Z" fill="url(#paint1_linear)"/>
<path d="M22.332 18.2969V38.2597H28.0357V35.4079H25.1839V21.1487H45.1467V24.0005V26.8524V35.4079V38.2597H47.9985V18.2969H22.332Z" fill="url(#paint2_linear)"/>
<path d="M2.37137 6.88833H33.7404V15.445H36.5922V4.0365H-0.480469V29.7042H19.4812V24.0005H2.37137V6.88833Z" fill="url(#paint3_linear)"/>
</g>
<defs>
<linearGradient id="paint0_linear" x1="15.2069" y1="32.556" x2="15.2069" y2="38.2597" gradientUnits="userSpaceOnUse">
<stop stop-color="#19C791"/>
<stop offset="1" stop-color="#1DB486"/>
</linearGradient>
<linearGradient id="paint1_linear" x1="36.5904" y1="26.8523" x2="36.5904" y2="43.9633" gradientUnits="userSpaceOnUse">
<stop stop-color="#19C791"/>
<stop offset="1" stop-color="#1DB486"/>
</linearGradient>
<linearGradient id="paint2_linear" x1="35.1653" y1="18.2969" x2="35.1653" y2="38.2597" gradientUnits="userSpaceOnUse">
<stop stop-color="#19C791"/>
<stop offset="1" stop-color="#1DB486"/>
</linearGradient>
<linearGradient id="paint3_linear" x1="18.0559" y1="4.0365" x2="18.0559" y2="29.7042" gradientUnits="userSpaceOnUse">
<stop stop-color="#19C791"/>
<stop offset="1" stop-color="#1DB486"/>
</linearGradient>
<clipPath id="clip0">
<rect width="48" height="48" fill="white"/>
</clipPath>
</defs>
</svg>
