<svg width="48" height="48" viewBox="0 0 48 48" fill="none" xmlns="http://www.w3.org/2000/svg">
<path d="M0 12.4445V47.1111C0 47.3469 0.0936507 47.573 0.26035 47.7397C0.427049 47.9064 0.653141 48 0.888889 48H47.1111C47.3469 48 47.573 47.9064 47.7397 47.7397C47.9064 47.573 48 47.3469 48 47.1111V12.4445H0ZM24.8889 16.8889C25.9891 16.8906 27.0739 17.1476 28.058 17.6396C29.042 18.1317 29.8985 18.8453 30.56 19.7245L36.0444 16.9867C36.1798 16.9185 36.3303 16.886 36.4817 16.8924C36.633 16.8987 36.7803 16.9436 36.9094 17.0229C37.0386 17.1022 37.1453 17.2131 37.2195 17.3453C37.2937 17.4774 37.3329 17.6263 37.3333 17.7778V30.2222C37.3336 30.3733 37.2954 30.5219 37.2223 30.6541C37.1492 30.7863 37.0437 30.8977 36.9156 30.9778C36.7741 31.0655 36.6109 31.1117 36.4444 31.1111C36.3053 31.1103 36.1683 31.0768 36.0444 31.0133L30.56 28.2756C29.8312 29.2441 28.8669 30.0103 27.7587 30.5014C26.6505 30.9925 25.4352 31.1921 24.2281 31.0814C23.021 30.9706 21.8623 30.5532 20.862 29.8687C19.8616 29.1841 19.0529 28.2553 18.5125 27.1702C17.9721 26.0852 17.718 24.8801 17.7744 23.6693C17.8308 22.4585 18.1957 21.2821 18.8346 20.252C19.4734 19.2219 20.365 18.3722 21.4246 17.7836C22.4843 17.195 23.6768 16.887 24.8889 16.8889ZM14.2222 39.5822C14.2216 39.7786 14.156 39.9693 14.0356 40.1245L11.8844 42.9333C11.7452 43.1261 11.5622 43.2831 11.3505 43.3913C11.1388 43.4995 10.9044 43.556 10.6667 43.556C10.4289 43.556 10.1945 43.4995 9.98281 43.3913C9.7711 43.2831 9.58811 43.1261 9.44889 42.9333L7.29778 40.1245C7.17736 39.9693 7.11172 39.7786 7.11111 39.5822V22.2222C7.08177 21.9012 7.11599 21.5775 7.21181 21.2697C7.30763 20.9619 7.46318 20.676 7.66956 20.4284C7.87594 20.1807 8.12911 19.9761 8.41459 19.8264C8.70007 19.6766 9.01227 19.5846 9.33333 19.5556H12C12.3211 19.5846 12.6333 19.6766 12.9187 19.8264C13.2042 19.9761 13.4574 20.1807 13.6638 20.4284C13.8702 20.676 14.0257 20.9619 14.1215 21.2697C14.2173 21.5775 14.2516 21.9012 14.2222 22.2222V39.5822ZM40.8889 40.8889C40.8889 41.5961 40.6079 42.2744 40.1078 42.7745C39.6077 43.2746 38.9295 43.5556 38.2222 43.5556H19.5556C18.8483 43.5556 18.17 43.2746 17.6699 42.7745C17.1698 42.2744 16.8889 41.5961 16.8889 40.8889V36.4445C16.8889 35.7372 17.1698 35.0589 17.6699 34.5588C18.17 34.0587 18.8483 33.7778 19.5556 33.7778H38.2222C38.9295 33.7778 39.6077 34.0587 40.1078 34.5588C40.6079 35.0589 40.8889 35.7372 40.8889 36.4445V40.8889Z" fill="url(#paint0_linear)"/>
<path d="M39.1124 36.4444V40.8889C39.1124 41.1246 39.0188 41.3507 38.8521 41.5174C38.6854 41.6841 38.4593 41.7778 38.2235 41.7778H36.4457V40.8889C36.4457 40.6531 36.3521 40.427 36.1854 40.2603C36.0187 40.0936 35.7926 40 35.5569 40C35.3211 40 35.095 40.0936 34.9283 40.2603C34.7616 40.427 34.668 40.6531 34.668 40.8889V41.7778H32.8902V40.8889C32.8902 40.6531 32.7965 40.427 32.6298 40.2603C32.4631 40.0936 32.2371 40 32.0013 40C31.7656 40 31.5395 40.0936 31.3728 40.2603C31.2061 40.427 31.1124 40.6531 31.1124 40.8889V41.7778H29.3346V40.8889C29.3346 40.6531 29.241 40.427 29.0743 40.2603C28.9076 40.0936 28.6815 40 28.4457 40C28.21 40 27.9839 40.0936 27.8172 40.2603C27.6505 40.427 27.5569 40.6531 27.5569 40.8889V41.7778H25.7791V40.8889C25.7791 40.6531 25.6854 40.427 25.5187 40.2603C25.352 40.0936 25.1259 40 24.8902 40C24.6544 40 24.4283 40.0936 24.2617 40.2603C24.095 40.427 24.0013 40.6531 24.0013 40.8889V41.7778H22.2235V40.8889C22.2235 40.6531 22.1299 40.427 21.9632 40.2603C21.7965 40.0936 21.5704 40 21.3346 40C21.0989 40 20.8728 40.0936 20.7061 40.2603C20.5394 40.427 20.4457 40.6531 20.4457 40.8889V41.7778H19.5569C19.3211 41.7778 19.095 41.6841 18.9283 41.5174C18.7616 41.3507 18.668 41.1246 18.668 40.8889V36.4444C18.668 36.2087 18.7616 35.9826 18.9283 35.8159C19.095 35.6492 19.3211 35.5555 19.5569 35.5555H38.2235C38.4593 35.5555 38.6854 35.6492 38.8521 35.8159C39.0188 35.9826 39.1124 36.2087 39.1124 36.4444Z" fill="url(#paint1_linear)"/>
<path d="M12.4462 22.2223V24H8.89062V22.2223C8.89062 21.6889 9.17507 21.3334 9.33507 21.3334H12.0017C12.1617 21.3334 12.4462 21.6534 12.4462 22.2223Z" fill="url(#paint2_linear)"/>
<path d="M12.4462 25.7778V39.2801L10.6684 41.6001L8.89062 39.2801V25.7778H12.4462Z" fill="url(#paint3_linear)"/>
<path d="M23.5999 24.791L28.9332 27.4577C28.2246 28.2862 27.279 28.8776 26.224 29.1523C25.169 29.427 24.0551 29.3718 23.0324 28.9941C22.0098 28.6164 21.1274 27.9343 20.5042 27.0398C19.881 26.1453 19.5469 25.0813 19.5469 23.991C19.5469 22.9008 19.881 21.8368 20.5042 20.9423C21.1274 20.0478 22.0098 19.3657 23.0324 18.988C24.0551 18.6103 25.169 18.5551 26.224 18.8298C27.279 19.1045 28.2246 19.6959 28.9332 20.5244L23.5999 23.191C23.4543 23.2656 23.3321 23.379 23.2467 23.5186C23.1614 23.6581 23.1163 23.8186 23.1163 23.9822C23.1163 24.1458 23.1614 24.3062 23.2467 24.4458C23.3321 24.5853 23.4543 24.6987 23.5999 24.7733V24.791Z" fill="url(#paint4_linear)"/>
<path d="M30.2194 23.9999C30.2183 24.6599 30.0947 25.3139 29.8549 25.9288L25.9883 23.9999L29.8549 22.071C30.0947 22.6859 30.2183 23.34 30.2194 23.9999V23.9999Z" fill="url(#paint5_linear)"/>
<path d="M35.5559 19.2178V28.7822L31.4492 26.7289C31.813 25.8651 32.0004 24.9373 32.0004 24C32.0004 23.0627 31.813 22.1349 31.4492 21.2711L35.5559 19.2178Z" fill="url(#paint6_linear)"/>
<path d="M47.1111 0H0.888889C0.653141 0 0.427049 0.0936507 0.26035 0.26035C0.0936507 0.427049 0 0.653141 0 0.888889V10.6667H48V0.888889C48 0.653141 47.9064 0.427049 47.7397 0.26035C47.573 0.0936507 47.3469 0 47.1111 0ZM30.2222 6.22222C30.2222 6.92947 29.9413 7.60774 29.4412 8.10784C28.9411 8.60794 28.2628 8.88889 27.5556 8.88889H4.44444C3.7372 8.88889 3.05892 8.60794 2.55883 8.10784C2.05873 7.60774 1.77778 6.92947 1.77778 6.22222V4.44444C1.77778 3.7372 2.05873 3.05892 2.55883 2.55883C3.05892 2.05873 3.7372 1.77778 4.44444 1.77778H27.5556C28.2628 1.77778 28.9411 2.05873 29.4412 2.55883C29.9413 3.05892 30.2222 3.7372 30.2222 4.44444V6.22222ZM33.7778 7.11111C33.4262 7.11111 33.0825 7.00685 32.7901 6.8115C32.4977 6.61616 32.2699 6.33851 32.1353 6.01366C32.0008 5.68881 31.9656 5.33136 32.0342 4.98651C32.1028 4.64165 32.2721 4.32488 32.5207 4.07625C32.7693 3.82763 33.0861 3.65831 33.4309 3.58971C33.7758 3.52112 34.1333 3.55632 34.4581 3.69088C34.7829 3.82544 35.0606 4.0533 35.2559 4.34565C35.4513 4.63801 35.5556 4.98172 35.5556 5.33333C35.5556 5.80483 35.3683 6.25701 35.0349 6.59041C34.7015 6.92381 34.2493 7.11111 33.7778 7.11111ZM39.1111 7.11111C38.7595 7.11111 38.4158 7.00685 38.1234 6.8115C37.8311 6.61616 37.6032 6.33851 37.4687 6.01366C37.3341 5.68881 37.2989 5.33136 37.3675 4.98651C37.4361 4.64165 37.6054 4.32488 37.854 4.07625C38.1027 3.82763 38.4194 3.65831 38.7643 3.58971C39.1091 3.52112 39.4666 3.55632 39.7914 3.69088C40.1163 3.82544 40.3939 4.0533 40.5893 4.34565C40.7846 4.63801 40.8889 4.98172 40.8889 5.33333C40.8889 5.80483 40.7016 6.25701 40.3682 6.59041C40.0348 6.92381 39.5826 7.11111 39.1111 7.11111ZM44.4444 7.11111C44.0928 7.11111 43.7491 7.00685 43.4568 6.8115C43.1644 6.61616 42.9365 6.33851 42.802 6.01366C42.6674 5.68881 42.6322 5.33136 42.7008 4.98651C42.7694 4.64165 42.9387 4.32488 43.1874 4.07625C43.436 3.82763 43.7528 3.65831 44.0976 3.58971C44.4425 3.52112 44.7999 3.55632 45.1248 3.69088C45.4496 3.82544 45.7273 4.0533 45.9226 4.34565C46.118 4.63801 46.2222 4.98172 46.2222 5.33333C46.2222 5.80483 46.0349 6.25701 45.7015 6.59041C45.3681 6.92381 44.9159 7.11111 44.4444 7.11111Z" fill="url(#paint7_linear)"/>
<path d="M27.5547 3.55554H4.44358C3.95266 3.55554 3.55469 3.95351 3.55469 4.44443V6.22221C3.55469 6.71313 3.95266 7.1111 4.44358 7.1111H27.5547C28.0456 7.1111 28.4436 6.71313 28.4436 6.22221V4.44443C28.4436 3.95351 28.0456 3.55554 27.5547 3.55554Z" fill="url(#paint8_linear)"/>
<defs>
<linearGradient id="paint0_linear" x1="24" y1="12.4445" x2="24" y2="48" gradientUnits="userSpaceOnUse">
<stop stop-color="#FF6E72"/>
<stop offset="1" stop-color="#FE428D"/>
</linearGradient>
<linearGradient id="paint1_linear" x1="28.8902" y1="35.5555" x2="28.8902" y2="41.7778" gradientUnits="userSpaceOnUse">
<stop stop-color="#FF6E72"/>
<stop offset="1" stop-color="#FE428D"/>
</linearGradient>
<linearGradient id="paint2_linear" x1="10.6684" y1="21.3334" x2="10.6684" y2="24" gradientUnits="userSpaceOnUse">
<stop stop-color="#FF6E72"/>
<stop offset="1" stop-color="#FE428D"/>
</linearGradient>
<linearGradient id="paint3_linear" x1="10.6684" y1="25.7778" x2="10.6684" y2="41.6001" gradientUnits="userSpaceOnUse">
<stop stop-color="#FF6E72"/>
<stop offset="1" stop-color="#FE428D"/>
</linearGradient>
<linearGradient id="paint4_linear" x1="24.24" y1="18.6577" x2="24.24" y2="29.3244" gradientUnits="userSpaceOnUse">
<stop stop-color="#FF6E72"/>
<stop offset="1" stop-color="#FE428D"/>
</linearGradient>
<linearGradient id="paint5_linear" x1="28.1038" y1="22.071" x2="28.1038" y2="25.9288" gradientUnits="userSpaceOnUse">
<stop stop-color="#FF6E72"/>
<stop offset="1" stop-color="#FE428D"/>
</linearGradient>
<linearGradient id="paint6_linear" x1="33.5026" y1="19.2178" x2="33.5026" y2="28.7822" gradientUnits="userSpaceOnUse">
<stop stop-color="#FF6E72"/>
<stop offset="1" stop-color="#FE428D"/>
</linearGradient>
<linearGradient id="paint7_linear" x1="24" y1="0" x2="24" y2="10.6667" gradientUnits="userSpaceOnUse">
<stop stop-color="#FF6E72"/>
<stop offset="1" stop-color="#FE428D"/>
</linearGradient>
<linearGradient id="paint8_linear" x1="15.9991" y1="3.55554" x2="15.9991" y2="7.1111" gradientUnits="userSpaceOnUse">
<stop stop-color="#FF6E72"/>
<stop offset="1" stop-color="#FE428D"/>
</linearGradient>
</defs>
</svg>
