<svg width="164" height="80" viewBox="0 0 164 80" fill="none" xmlns="http://www.w3.org/2000/svg">
<path d="M62.2126 32.5824C62.2113 32.257 62.2066 31.9316 62.1982 31.6063C62.1786 30.8975 62.1374 30.1823 62.0113 29.4814C61.8911 28.7784 61.6666 28.0973 61.3453 27.4605C60.6945 26.1813 59.6552 25.1412 58.3767 24.4897C57.7403 24.1686 57.0596 23.9443 56.3571 23.8241C55.6552 23.6979 54.9401 23.6561 54.2316 23.6371C53.9055 23.628 53.5807 23.624 53.2552 23.6221C52.8689 23.6201 52.4826 23.6201 52.0957 23.6201H39.986C39.5991 23.6201 39.2135 23.6201 38.8272 23.6221C38.5017 23.6247 38.1763 23.6286 37.8508 23.6371C37.6736 23.6417 37.4959 23.6482 37.3181 23.6567C36.7854 23.6822 36.2514 23.7293 35.7253 23.8241C35.2007 23.9154 34.6875 24.0632 34.1946 24.2648C33.3688 24.6067 32.6184 25.1079 31.9861 25.7397C31.4818 26.2439 31.0601 26.8244 30.7365 27.4599C30.4071 28.1071 30.1986 28.7688 30.0711 29.4808C29.945 30.1823 29.9031 30.8975 29.8842 31.6056C29.875 31.9325 29.8711 32.2574 29.8691 32.5824C29.8672 32.9694 29.8672 33.3558 29.8672 33.7422V45.8558C29.8672 46.2428 29.8672 46.6292 29.8691 47.0156C29.8718 47.3412 29.8757 47.6668 29.8842 47.9917C29.9038 48.7011 29.945 49.4164 30.0711 50.1166C30.1911 50.82 30.4153 51.5016 30.7365 52.1388C31.3874 53.4184 32.4272 54.4585 33.7064 55.1096C34.3528 55.4385 35.0142 55.6471 35.726 55.7752C36.4266 55.9014 37.1423 55.9432 37.8508 55.9622C38.1763 55.9707 38.5017 55.9746 38.8272 55.9766C39.2128 55.9792 39.5991 55.9785 39.986 55.9785H52.0957C52.4813 55.9785 52.8683 55.9792 53.2545 55.9766C53.58 55.9746 53.9049 55.9707 54.2303 55.9622C54.9395 55.9426 55.6552 55.9014 56.3558 55.7752C57.0583 55.655 57.739 55.4307 58.3754 55.1096C59.6542 54.4583 60.6938 53.4182 61.3446 52.1388C61.6741 51.4915 61.8825 50.8292 62.0107 50.1179C62.1368 49.417 62.1786 48.7018 62.1976 47.9924C62.2061 47.6675 62.21 47.3419 62.212 47.0163C62.2146 46.6299 62.2139 46.2435 62.2139 45.8564V33.7422C62.2139 33.3558 62.2139 32.9694 62.212 32.5824H62.2126Z" fill="#344154"/>
<path d="M55.502 43.5936L55.5 43.5917C55.5353 43.4694 55.5719 43.3485 55.6039 43.2236C56.9464 37.8729 53.6693 31.5468 48.1249 28.2163C50.555 31.5114 51.6288 35.5022 50.6739 38.9922C50.589 39.3041 50.487 39.6028 50.3739 39.8931C50.216 39.7914 50.0542 39.6956 49.889 39.6061C49.889 39.6061 44.3727 36.1998 38.3949 30.1738C38.2381 30.0156 41.5825 34.9557 45.3785 38.9674C43.5903 37.9638 38.606 34.3359 35.4512 31.4474C35.8387 32.0946 36.3002 32.7171 36.8067 33.3166C39.4413 36.6588 42.8779 40.783 46.9942 43.95C44.1021 45.7204 40.0152 45.8577 35.9459 43.9519C34.9497 43.4839 34.0022 42.9184 33.1172 42.2638C34.9368 45.1546 37.5872 47.4279 40.7211 48.7854C44.572 50.4409 48.4007 50.3284 51.2523 48.8129L51.2504 48.8162C51.2635 48.8077 51.2798 48.7992 51.2935 48.79C51.4105 48.7279 51.5269 48.6632 51.6399 48.5958C53.0105 47.8845 55.717 47.1627 57.1693 49.9897C57.5255 50.6821 58.2817 47.015 55.5026 43.5943L55.502 43.5936Z" fill="white"/>
<path d="M74.4945 44.6194C74.7474 46.8639 76.8879 48.3356 79.8604 48.3356C82.6846 48.3356 84.7212 46.8646 84.7212 44.8273C84.7212 43.0732 83.4872 42.0023 80.648 41.289L77.8984 40.5894C73.9448 39.6087 72.1612 37.8239 72.1612 34.8805C72.1612 31.2525 75.3272 28.74 79.831 28.74C84.2003 28.74 87.3068 31.2676 87.4113 34.9105H84.5127C84.2898 32.6798 82.4761 31.312 79.7565 31.312C77.0657 31.312 75.1932 32.6948 75.1932 34.7164C75.1932 36.292 76.3526 37.2296 79.2062 37.9579L81.4957 38.5528C85.9251 39.6381 87.7381 41.3629 87.7381 44.4704C87.7381 48.4258 84.6016 50.9083 79.6075 50.9083C74.9703 50.9083 71.8043 48.4402 71.5664 44.6188H74.4945V44.6194ZM106.149 50.5513H103.236L99.8321 38.6869H99.7733L96.3838 50.5513H93.4714L89.161 35.0138H91.9845L94.9871 47.4883H95.0466L98.4354 35.0138H101.171L104.589 47.4883H104.648L107.651 35.0138H110.445L106.149 50.5513ZM112.325 30.8361C112.325 29.8998 113.099 29.1414 114.035 29.1414C114.987 29.1414 115.759 29.8998 115.759 30.8361C115.759 31.773 114.987 32.5457 114.035 32.5457C113.583 32.5432 113.15 32.3622 112.83 32.0421C112.51 31.7221 112.329 31.2887 112.326 30.8361H112.325ZM112.623 35.0138H115.462V50.5513H112.623V35.0138ZM134.001 37.3041V35.0138H130.999V31.297H128.174V35.0138H122.748V33.6461C122.763 32.2633 123.297 31.6834 124.576 31.6834C124.992 31.6834 125.408 31.7285 125.75 31.788V29.5566C125.254 29.4789 124.752 29.4391 124.25 29.4376C121.217 29.4376 119.938 30.702 119.938 33.601V35.0132H117.769V37.3034H119.938V50.5507H122.763V37.3041H128.175V46.4769C128.175 49.4804 129.319 50.6396 132.292 50.6396C132.931 50.6396 133.659 50.5951 133.987 50.5213V48.2016C133.631 48.2455 133.274 48.2704 132.916 48.2761C131.593 48.2761 130.999 47.6517 130.999 46.2539V37.3041H134.001Z" fill="#344154"/>
</svg>
