<svg width="45" height="45" viewBox="0 0 45 45" fill="none" xmlns="http://www.w3.org/2000/svg">
<path d="M29.3719 0C24.5203 0 20.5658 3.94826 20.5658 8.79989C20.5658 13.6515 24.5203 17.6013 29.3719 17.6013C34.2235 17.6013 38.1718 13.6515 38.1718 8.79989C38.1718 3.94826 34.2235 0 29.3719 0ZM29.3768 19.2761C27.7815 19.2761 26.1239 19.4199 24.5031 19.694C25.826 20.6798 26.9374 22.1684 27.6203 24.079C28.5957 26.808 28.1484 29.6485 27.1395 32.1782C26.1306 34.7079 24.5425 37.0385 22.8456 39.0847C21.1487 41.1309 19.3364 42.8772 17.7866 44.1611C17.4157 44.4683 17.0642 44.7462 16.7261 45H43.8498C44.0632 45 44.2677 44.9153 44.4186 44.7644C44.5695 44.6136 44.6542 44.409 44.6542 44.1957V28.1073C44.6542 28.1068 44.6542 28.1063 44.6542 28.1057C44.6478 24.8453 42.3703 22.5452 39.4193 21.1897C36.4682 19.8342 32.7663 19.2761 29.3766 19.2761H29.3768ZM19.2242 19.7804C18.8513 19.7956 18.484 19.8336 18.126 19.8871C15.4845 20.2815 13.6076 21.4411 13.2743 21.6389C12.933 21.4397 11.0811 20.3079 8.45257 19.928C7.0235 19.7215 5.44012 19.7644 3.98116 20.4512C2.5222 21.1379 1.24024 22.4819 0.458707 24.613C-0.355569 26.8335 -0.010765 29.2419 0.904905 31.537C1.82059 33.8321 3.31752 36.0525 4.94269 38.0163C6.56785 39.9801 8.3219 41.6828 9.79431 42.9088C10.5305 43.5218 11.1918 44.0158 11.7472 44.3699C12.0249 44.5469 12.2788 44.6889 12.5139 44.7973C12.7491 44.9055 12.9408 44.9982 13.2791 44.9982C13.6151 44.9982 13.8172 44.9046 14.052 44.7973C14.2868 44.6899 14.5352 44.5504 14.8125 44.3746C15.3671 44.0233 16.0241 43.5349 16.7591 42.926C18.2291 41.7082 19.9874 40.0146 21.6107 38.0572C23.234 36.0997 24.725 33.8794 25.6422 31.5794C26.5595 29.2795 26.9076 26.8628 26.1057 24.6193C25.3346 22.462 24.0619 21.1026 22.6021 20.4088C21.5073 19.8884 20.3427 19.7346 19.2242 19.7803V19.7804Z" fill="url(#paint0_linear)"/>
<defs>
<linearGradient id="paint0_linear" x1="9.56876" y1="5.2002e-07" x2="24.9257" y2="40.9046" gradientUnits="userSpaceOnUse">
<stop stop-color="#FF002E"/>
<stop offset="1" stop-color="#F938AC"/>
</linearGradient>
</defs>
</svg>
