<svg width="41" height="43" viewBox="0 0 41 43" fill="none" xmlns="http://www.w3.org/2000/svg">
<path d="M40.3001 29.8189C39.8548 29.5439 39.3105 29.5086 38.8369 29.7343L29.0605 34.417C28.5162 35.1292 27.6538 35.5947 26.6853 35.5947H19.4891C19.1003 35.5947 18.7822 35.2773 18.7822 34.8894C18.7822 34.5016 19.1003 34.1842 19.4891 34.1842H26.6853C27.2296 34.1842 27.7033 33.9092 27.986 33.4931C27.9931 33.479 28.0002 33.4649 28.0072 33.4578C28.1557 33.2181 28.2405 32.943 28.2405 32.6469C28.2405 31.7935 27.5407 31.1024 26.6853 31.1024L21.4967 31.1095C21.32 31.1095 21.1574 31.046 21.0231 30.9261C18.8105 28.9515 15.9476 27.7314 13.3745 27.668C10.6246 27.6045 8.14342 27.5834 6.97707 27.5834V37.2802C10.0096 39.0503 17.3684 42.9783 20.189 42.8232C25.7522 42.5199 40.0315 32.5129 40.1729 32.4141C40.1941 32.4 40.2153 32.3859 40.2365 32.3789C40.7101 32.1109 41 31.6172 41 31.0812C41 30.5594 40.7455 30.101 40.3001 29.8189ZM0 26.187V39.4029H5.56327V26.187H0ZM2.78517 37.6751C2.10654 37.6751 1.54811 37.1179 1.54811 36.4339C1.54811 35.7569 2.10654 35.2068 2.78517 35.2068C3.47084 35.2068 4.02224 35.7569 4.02224 36.4339C4.02224 37.1179 3.47084 37.6751 2.78517 37.6751Z" fill="url(#paint0_linear)"/>
<path d="M19.7983 0.503662C13.2306 0.503662 7.88672 5.83485 7.88672 12.3874C7.88672 18.94 13.2306 24.2709 19.7983 24.2709C26.3661 24.2709 31.71 18.94 31.71 12.3874C31.71 5.83485 26.3661 0.503662 19.7983 0.503662ZM26.955 18.5449C26.915 18.4405 26.859 18.3424 26.7862 18.2736C26.6448 18.1255 26.4469 18.0409 26.2419 18.0409C26.051 18.0409 25.8248 18.1396 25.6905 18.2736C25.3936 18.5698 25.3936 19.0564 25.6905 19.3526C25.7588 19.4207 25.8508 19.4787 25.949 19.5203C24.4624 20.7495 22.5868 21.5273 20.5344 21.6627C20.5504 21.6012 20.5726 21.5417 20.5726 21.4753C20.5726 21.0522 20.2262 20.7066 19.795 20.7066C19.3709 20.7066 19.0245 21.0522 19.0245 21.4753C19.0245 21.538 19.0461 21.5939 19.0605 21.6524C17.0482 21.4758 15.2188 20.673 13.7679 19.4433C13.8156 19.4133 13.87 19.3891 13.9066 19.3526C14.2034 19.0564 14.2034 18.5698 13.8995 18.2665C13.751 18.1184 13.5602 18.0409 13.3552 18.0409C13.1643 18.0409 12.9381 18.1325 12.8109 18.2736C12.7712 18.3131 12.7507 18.3627 12.7217 18.4081C11.4719 16.9593 10.6675 15.1308 10.5071 13.1236C10.5674 13.1388 10.6253 13.1607 10.6902 13.1607C11.1143 13.1607 11.4607 12.8152 11.4607 12.3849C11.4607 11.9618 11.1143 11.6163 10.6902 11.6163C10.6253 11.6163 10.5673 11.6381 10.507 11.6534C10.667 9.64501 11.4717 7.81545 12.7221 6.36601C12.7513 6.41323 12.7744 6.46703 12.8109 6.5034C12.9381 6.6374 13.1714 6.73614 13.3552 6.73614C13.546 6.73614 13.7722 6.6374 13.9066 6.5034C14.2034 6.20016 14.2034 5.71355 13.8995 5.41737C13.8628 5.38074 13.8104 5.36129 13.7638 5.3349C15.2155 4.103 17.0465 3.29873 19.061 3.12212C19.0463 3.18135 19.0245 3.23808 19.0245 3.3017C19.0245 3.72482 19.3709 4.07037 19.795 4.07037C20.2262 4.07037 20.5726 3.72482 20.5726 3.3017C20.5726 3.23438 20.5503 3.17399 20.5338 3.11171C22.5861 3.24708 24.4617 4.02462 25.9482 5.25359C25.8498 5.29332 25.7584 5.34967 25.6905 5.41737C25.3936 5.71355 25.3936 6.20016 25.6976 6.51046C25.8248 6.64445 26.051 6.73614 26.2419 6.73614C26.4257 6.73614 26.6519 6.64445 26.7791 6.51046C26.8601 6.4335 26.9173 6.33635 26.957 6.23188C28.2942 7.72252 29.1522 9.63404 29.3002 11.7402C29.1832 11.6686 29.0536 11.6163 28.9069 11.6163C28.4828 11.6163 28.1364 11.9618 28.1364 12.3849C28.1364 12.8152 28.4828 13.1607 28.9069 13.1607C29.0535 13.1607 29.1831 13.1083 29.3 13.0365C29.1516 15.1428 28.2929 17.0544 26.955 18.5449Z" fill="url(#paint1_linear)"/>
<path d="M19.8592 18.7802C19.4685 18.7802 19.1523 18.4644 19.1523 18.0749V6.02871C19.1523 5.63925 19.4685 5.32349 19.8592 5.32349C20.25 5.32349 20.5661 5.63925 20.5661 6.02871V18.0749C20.5661 18.4644 20.25 18.7802 19.8592 18.7802Z" fill="url(#paint2_linear)"/>
<path d="M19.8601 13.8992C19.0648 13.8992 18.418 13.2511 18.418 12.4542C18.418 11.6574 19.0648 11.0093 19.8601 11.0093C20.6588 11.0093 21.3084 11.6574 21.3084 12.4542C21.3084 13.2511 20.6588 13.8992 19.8601 13.8992Z" fill="url(#paint3_linear)"/>
<path d="M15.3475 17.6578C15.1667 17.6578 14.9858 17.589 14.8477 17.4512C14.5716 17.1758 14.5716 16.7295 14.8477 16.454L20.895 10.4207C21.1711 10.1452 21.6185 10.1452 21.8946 10.4207C22.1707 10.6962 22.1707 11.1425 21.8946 11.4179L15.8473 17.4512C15.7093 17.589 15.5284 17.6578 15.3475 17.6578Z" fill="url(#paint4_linear)"/>
<defs>
<linearGradient id="paint0_linear" x1="8.78571" y1="26.187" x2="11.3369" y2="43.0595" gradientUnits="userSpaceOnUse">
<stop stop-color="#7561F4"/>
<stop offset="1" stop-color="#16ACDC"/>
</linearGradient>
<linearGradient id="paint1_linear" x1="12.9917" y1="0.503662" x2="21.0412" y2="22.1612" gradientUnits="userSpaceOnUse">
<stop stop-color="#7561F4"/>
<stop offset="1" stop-color="#16ACDC"/>
</linearGradient>
<linearGradient id="paint2_linear" x1="19.4553" y1="5.32349" x2="23.1011" y2="6.35164" gradientUnits="userSpaceOnUse">
<stop stop-color="#7561F4"/>
<stop offset="1" stop-color="#16ACDC"/>
</linearGradient>
<linearGradient id="paint3_linear" x1="19.0373" y1="11.0093" x2="20.0177" y2="13.6413" gradientUnits="userSpaceOnUse">
<stop stop-color="#7561F4"/>
<stop offset="1" stop-color="#16ACDC"/>
</linearGradient>
<linearGradient id="paint4_linear" x1="16.2394" y1="10.2141" x2="18.7605" y2="16.9971" gradientUnits="userSpaceOnUse">
<stop stop-color="#7561F4"/>
<stop offset="1" stop-color="#16ACDC"/>
</linearGradient>
</defs>
</svg>
