<svg width="48" height="48" viewBox="0 0 48 48" fill="none" xmlns="http://www.w3.org/2000/svg">
<path d="M17.517 18.4159L33.6512 13.5956C34.0464 13.4773 34.4614 13.441 34.871 13.4887C35.2806 13.5364 35.6764 13.6671 36.0343 13.8731C36.3923 14.079 36.705 14.3559 36.9537 14.6869C37.2024 15.0179 37.3817 15.3962 37.481 15.799L38.3171 19.1575H17.6233C17.5323 19.1585 17.444 19.1262 17.3749 19.0666C17.3057 19.007 17.2604 18.9242 17.2474 18.8335C17.2344 18.7429 17.2546 18.6505 17.3042 18.5737C17.3538 18.4969 17.4294 18.4408 17.517 18.4159ZM25.5629 7.54523L11.5119 17.2572C11.4562 17.3092 11.4186 17.378 11.4047 17.4532C11.3907 17.5284 11.4012 17.6061 11.4346 17.6749C11.468 17.7437 11.5224 17.7998 11.5899 17.835C11.6575 17.8702 11.7344 17.8826 11.8095 17.8704L31.6495 11.4065H31.692L29.8922 8.45439C29.6745 8.10037 29.3876 7.79462 29.0488 7.55572C28.71 7.31682 28.3264 7.14977 27.9214 7.06473C27.5165 6.97969 27.0985 6.97843 26.6931 7.06103C26.2876 7.14364 25.9031 7.30838 25.5629 7.54523ZM24.5 35.9644C25.2897 35.9644 26.0617 35.7288 26.7183 35.2872C27.3749 34.8457 27.8867 34.2182 28.1889 33.484C28.4911 32.7497 28.5701 31.9418 28.4161 31.1624C28.262 30.383 27.8817 29.667 27.3233 29.1051C26.7649 28.5431 26.0535 28.1604 25.279 28.0054C24.5044 27.8503 23.7016 27.9299 22.972 28.234C22.2424 28.5382 21.6188 29.0532 21.1801 29.7139C20.7414 30.3747 20.5072 31.1516 20.5072 31.9463C20.5072 33.012 20.9279 34.034 21.6767 34.7875C22.4255 35.5411 23.441 35.9644 24.5 35.9644ZM12.0185 21.942H36.9815C37.782 21.942 38.5498 22.262 39.1159 22.8317C39.682 23.4014 40 24.174 40 24.9797V38.9094C40 39.715 39.682 40.4876 39.1159 41.0573C38.5498 41.627 37.782 41.947 36.9815 41.947H12.0185C11.218 41.947 10.4502 41.627 9.8841 41.0573C9.31802 40.4876 9 39.715 9 38.9094V24.9797C9 24.174 9.31802 23.4014 9.8841 22.8317C10.4502 22.262 11.218 21.942 12.0185 21.942ZM12.4543 34.2709C13.4724 34.5025 14.4048 35.019 15.1439 35.7609C15.8829 36.5027 16.3986 37.4397 16.6313 38.4637H32.3687C32.6014 37.4397 33.1171 36.5027 33.8561 35.7609C34.5952 35.019 35.5276 34.5025 36.5457 34.2709V29.636C35.5253 29.403 34.5913 28.8838 33.8521 28.1386C33.1128 27.3934 32.5985 26.4526 32.3687 25.4253H16.6313C16.3986 26.4493 15.8829 27.3863 15.1439 28.1281C14.4048 28.87 13.4724 29.3865 12.4543 29.6181V34.2709Z" fill="url(#paint0_linear)"/>
<defs>
<linearGradient id="paint0_linear" x1="15.6429" y1="7" x2="28.5824" y2="37.8097" gradientUnits="userSpaceOnUse">
<stop stop-color="#34C8DC"/>
<stop offset="1" stop-color="#19CDC2"/>
</linearGradient>
</defs>
</svg>
