<svg width="40" height="41" viewBox="0 0 40 41" fill="none" xmlns="http://www.w3.org/2000/svg">
<path d="M29.0457 12.0137C24.7993 12.0137 21.3172 15.1486 20.7227 19.2156H24.1198C24.6294 17.0126 26.6677 15.3181 29.0457 15.3181H29.1306C31.5086 15.3181 33.5469 16.9279 34.0565 19.2156H37.4537C36.8592 15.1486 33.3771 12.0137 29.1306 12.0137H29.0457Z" fill="url(#paint0_linear)"/>
<path d="M18.2578 22.5205V32.6878C18.2578 33.6198 19.0222 34.3823 19.9564 34.3823H38.3011C39.2353 34.3823 39.9996 33.6198 39.9996 32.6878V22.5205H18.2578Z" fill="url(#paint1_linear)"/>
<path d="M14.9475 32.7729V20.9111C14.9475 18.7929 16.2214 17.0136 18.0899 16.251C19.7884 11.8452 24.1198 8.71028 29.0457 8.71028H29.1306H29.2156C29.1306 8.62556 29.0457 8.54083 28.9608 8.4561L20.298 0.915338C19.9583 0.661155 19.6186 0.491699 19.1939 0.491699H1.69858C0.76436 0.491699 0 1.25425 0 2.18625V38.7039C0 39.6359 0.76436 40.3984 1.69858 40.3984H27.9416C28.8758 40.3984 29.6402 39.6359 29.6402 38.7039V37.7719H19.9583C17.1556 37.6872 14.9475 35.4842 14.9475 32.7729Z" fill="url(#paint2_linear)"/>
<defs>
<linearGradient id="paint0_linear" x1="29.0882" y1="12.0137" x2="29.0882" y2="19.2156" gradientUnits="userSpaceOnUse">
<stop stop-color="#2569E9"/>
<stop offset="1" stop-color="#4183FF"/>
</linearGradient>
<linearGradient id="paint1_linear" x1="29.1287" y1="22.5205" x2="29.1287" y2="34.3823" gradientUnits="userSpaceOnUse">
<stop stop-color="#2569E9"/>
<stop offset="1" stop-color="#4183FF"/>
</linearGradient>
<linearGradient id="paint2_linear" x1="14.8201" y1="0.491699" x2="14.8201" y2="40.3984" gradientUnits="userSpaceOnUse">
<stop stop-color="#2569E9"/>
<stop offset="1" stop-color="#4183FF"/>
</linearGradient>
</defs>
</svg>
