<svg width="35" height="35" viewBox="0 0 35 35" fill="none" xmlns="http://www.w3.org/2000/svg">
<path d="M5.30469 29.2124H0.65625C0.4375 29.2124 0.21875 29.3762 0.21875 29.6492V34.2904C0.21875 34.5088 0.382813 34.7272 0.65625 34.7272H5.25C5.46875 34.7272 5.6875 34.5634 5.6875 34.2904V29.6492C5.6875 29.4308 5.52344 29.2124 5.30469 29.2124Z" fill="url(#paint0_linear)"/>
<path d="M0.65625 5.67848H5.25C5.46875 5.67848 5.6875 5.51467 5.6875 5.24166V0.655079C5.6875 0.43667 5.52344 0.218262 5.25 0.218262H0.65625C0.4375 0.218262 0.21875 0.382068 0.21875 0.655079V5.24166C0.273437 5.51467 0.4375 5.67848 0.65625 5.67848Z" fill="url(#paint1_linear)"/>
<path d="M17.5 5.95164C19.1406 5.95164 20.5078 4.64119 20.5078 2.94852C20.5078 1.36505 19.1406 0 17.5 0C15.8594 0 14.4922 1.36505 14.4922 3.00312C14.4922 4.64119 15.8594 5.95164 17.5 5.95164Z" fill="url(#paint2_linear)"/>
<path d="M31.9922 14.4697C30.3516 14.4697 28.9844 15.7802 28.9844 17.4728C28.9844 19.0563 30.2969 20.476 31.9922 20.476C33.6328 20.476 35 19.1109 35 17.4728C35 15.8348 33.6328 14.4697 31.9922 14.4697Z" fill="url(#paint3_linear)"/>
<path d="M29.6953 5.67848H34.3437C34.5625 5.67848 34.7812 5.51467 34.7812 5.24166V0.655079C34.7812 0.43667 34.6172 0.218262 34.3437 0.218262H29.6953C29.4766 0.218262 29.2578 0.382068 29.2578 0.655079V5.24166C29.2578 5.51467 29.4766 5.67848 29.6953 5.67848Z" fill="url(#paint4_linear)"/>
<path d="M3.00781 20.476C4.64844 20.476 6.01562 19.1655 6.01562 17.4728C6.01562 15.8348 4.70312 14.4697 3.00781 14.4697C1.36719 14.4697 0 15.8348 0 17.4728C0 19.1109 1.36719 20.476 3.00781 20.476Z" fill="url(#paint5_linear)"/>
<path d="M34.3437 29.2124H29.6953C29.4766 29.2124 29.2578 29.3762 29.2578 29.6492V34.2904C29.2578 34.5088 29.4219 34.7272 29.6953 34.7272H34.3437C34.5625 34.7272 34.7812 34.5634 34.7812 34.2904V29.6492C34.7266 29.4308 34.5625 29.2124 34.3437 29.2124Z" fill="url(#paint6_linear)"/>
<path d="M17.5 28.9937C15.8594 28.9937 14.4922 30.3587 14.4922 31.9968C14.4922 33.6348 15.8047 34.9999 17.5 34.9999C19.1953 34.9999 20.5078 33.6348 20.5078 31.9968C20.5078 30.3041 19.1406 28.9937 17.5 28.9937Z" fill="url(#paint7_linear)"/>
<path d="M29.6406 20.4214C28.9297 19.9299 28.2188 18.7833 28.2188 17.4728C28.2188 16.217 28.875 15.125 29.6406 14.5243L25.375 10.2654L29.2031 6.4432C28.9297 6.334 28.7656 6.11559 28.6016 5.84258L24.7734 9.66473L20.5078 5.40576C19.9609 6.17019 18.8125 6.82542 17.5547 6.82542C16.2969 6.82542 15.1484 6.17019 14.6016 5.40576L10.3359 9.66473L6.50781 5.84258C6.39844 6.11559 6.17969 6.2794 5.90625 6.4432L9.73437 10.2654L5.46875 14.5243C6.34375 15.2888 6.89063 16.2716 6.89063 17.4728C6.89063 18.7287 6.23438 19.8207 5.46875 20.4214L9.73437 24.6803L5.90625 28.5025C6.17969 28.6117 6.34375 28.8301 6.50781 29.1031L10.3359 25.281L14.6562 29.5945C15.0938 28.9939 16.2422 28.1749 17.6094 28.1749C18.9766 28.1749 20.1797 28.9939 20.5625 29.5945L24.8281 25.3356L28.6562 29.1577C28.7656 28.8847 28.9844 28.7209 29.2578 28.5571L25.4297 24.7349L29.6406 20.4214ZM23.6797 23.2061C23.6797 23.4245 23.5156 23.5337 23.3516 23.5883C23.2969 23.5883 23.2969 23.5883 23.2422 23.5883H11.7578C11.5391 23.5883 11.3203 23.4245 11.3203 23.1515V11.685C11.3203 11.4666 11.4844 11.2482 11.7578 11.2482H23.2422C23.3516 11.2482 23.4609 11.3028 23.5156 11.3574C23.5703 11.412 23.625 11.5212 23.625 11.6304V23.2061H23.6797Z" fill="url(#paint8_linear)"/>
<path d="M12.1406 22.8236H22.8594V12.1216H12.1406V22.8236Z" fill="url(#paint9_linear)"/>
<defs>
<linearGradient id="paint0_linear" x1="1.39062" y1="29.2124" x2="3.2736" y2="34.2245" gradientUnits="userSpaceOnUse">
<stop stop-color="#FF002E"/>
<stop offset="1" stop-color="#F938AC"/>
</linearGradient>
<linearGradient id="paint1_linear" x1="1.39062" y1="0.218262" x2="3.24101" y2="5.19285" gradientUnits="userSpaceOnUse">
<stop stop-color="#FF002E"/>
<stop offset="1" stop-color="#F938AC"/>
</linearGradient>
<linearGradient id="paint2_linear" x1="15.7812" y1="6.87771e-08" x2="17.7842" y2="5.43426" gradientUnits="userSpaceOnUse">
<stop stop-color="#FF002E"/>
<stop offset="1" stop-color="#F938AC"/>
</linearGradient>
<linearGradient id="paint3_linear" x1="30.2734" y1="14.4697" x2="32.3089" y2="19.9418" gradientUnits="userSpaceOnUse">
<stop stop-color="#FF002E"/>
<stop offset="1" stop-color="#F938AC"/>
</linearGradient>
<linearGradient id="paint4_linear" x1="30.4414" y1="0.218262" x2="32.2779" y2="5.20479" gradientUnits="userSpaceOnUse">
<stop stop-color="#FF002E"/>
<stop offset="1" stop-color="#F938AC"/>
</linearGradient>
<linearGradient id="paint5_linear" x1="1.28906" y1="14.4697" x2="3.32449" y2="19.9418" gradientUnits="userSpaceOnUse">
<stop stop-color="#FF002E"/>
<stop offset="1" stop-color="#F938AC"/>
</linearGradient>
<linearGradient id="paint6_linear" x1="30.4414" y1="29.2124" x2="32.3103" y2="34.2367" gradientUnits="userSpaceOnUse">
<stop stop-color="#FF002E"/>
<stop offset="1" stop-color="#F938AC"/>
</linearGradient>
<linearGradient id="paint7_linear" x1="15.7812" y1="28.9937" x2="17.8167" y2="34.4657" gradientUnits="userSpaceOnUse">
<stop stop-color="#FF002E"/>
<stop offset="1" stop-color="#F938AC"/>
</linearGradient>
<linearGradient id="paint8_linear" x1="10.6484" y1="5.40576" x2="18.8597" y2="27.4311" gradientUnits="userSpaceOnUse">
<stop stop-color="#FF002E"/>
<stop offset="1" stop-color="#F938AC"/>
</linearGradient>
<linearGradient id="paint9_linear" x1="14.4375" y1="12.1216" x2="18.0643" y2="21.8718" gradientUnits="userSpaceOnUse">
<stop stop-color="#FF002E"/>
<stop offset="1" stop-color="#F938AC"/>
</linearGradient>
</defs>
</svg>
