<svg width="35" height="35" viewBox="0 0 35 35" fill="none" xmlns="http://www.w3.org/2000/svg">
<path d="M17.5005 20.9746C16.2695 20.9746 15.2676 21.9765 15.2676 23.2075C15.2676 24.4391 16.2695 25.4409 17.5005 25.4409C18.7315 25.4409 19.7334 24.4391 19.7334 23.2075C19.7339 21.9765 18.732 20.9746 17.5005 20.9746Z" fill="url(#paint0_linear)"/>
<path d="M7.56687 20.9746C6.33586 20.9746 5.33398 21.9759 5.33398 23.207C5.33398 24.4385 6.33586 25.4404 7.56687 25.4404C8.79789 25.4404 9.79977 24.4385 9.79977 23.207C9.79977 21.9759 8.79789 20.9746 7.56687 20.9746Z" fill="url(#paint1_linear)"/>
<path d="M19.8037 11.7925C19.8037 10.5609 18.8018 9.55957 17.5708 9.55957C16.3398 9.55957 15.3379 10.5609 15.3379 11.7925C15.3379 13.0235 16.3398 14.0254 17.5708 14.0254C18.8018 14.0254 19.8037 13.0229 19.8037 11.7925Z" fill="url(#paint2_linear)"/>
<path d="M31.0521 0H3.94734C1.77078 0 0 1.77133 0 3.94844V31.0527C0 33.2292 1.77078 35 3.94734 35H31.0521C33.2292 35 35 33.2292 35 31.0521V3.94734C35 1.77078 33.2292 0 31.0521 0ZM27.4345 27.0813C25.5812 27.0813 24.028 25.7709 23.6502 24.028H21.2844C20.9076 25.7715 19.3545 27.0818 17.5005 27.0818C15.6461 27.0818 14.0935 25.7715 13.7162 24.0275H11.3504C10.973 25.7709 9.42047 27.0813 7.56602 27.0813C5.42992 27.0813 3.6925 25.3433 3.6925 23.2072C3.6925 21.0716 5.43047 19.3342 7.56602 19.3342C9.42047 19.3342 10.9725 20.6445 11.3498 22.3869H13.7162C14.0416 20.8857 15.2387 19.7066 16.7502 19.4086V15.5766C15.0073 15.1993 13.697 13.6467 13.697 11.7923C13.697 9.65617 15.435 7.91875 17.5705 7.91875C19.7061 7.91875 21.4441 9.65617 21.4441 11.7923C21.4441 13.6467 20.1338 15.1987 18.3914 15.5766V19.4414C19.8357 19.7832 20.9699 20.9333 21.2849 22.3874H23.6507C24.0286 20.644 25.5806 19.3342 27.4351 19.3342C29.5712 19.3342 31.3091 21.0716 31.3091 23.2072C31.3086 25.3433 29.5706 27.0813 27.4345 27.0813Z" fill="url(#paint3_linear)"/>
<path d="M27.4355 20.9746C26.205 20.9746 25.2031 21.9759 25.2031 23.207C25.2031 24.4385 26.205 25.4404 27.4355 25.4404C28.667 25.4404 29.6689 24.4385 29.6689 23.207C29.6689 21.9759 28.667 20.9746 27.4355 20.9746Z" fill="url(#paint4_linear)"/>
<defs>
<linearGradient id="paint0_linear" x1="16.2245" y1="20.9746" x2="17.74" y2="25.042" gradientUnits="userSpaceOnUse">
<stop stop-color="#7561F4"/>
<stop offset="1" stop-color="#3E16DC"/>
</linearGradient>
<linearGradient id="paint1_linear" x1="6.29094" y1="20.9746" x2="7.80611" y2="25.0417" gradientUnits="userSpaceOnUse">
<stop stop-color="#7561F4"/>
<stop offset="1" stop-color="#3E16DC"/>
</linearGradient>
<linearGradient id="paint2_linear" x1="16.2948" y1="9.55957" x2="17.81" y2="13.6266" gradientUnits="userSpaceOnUse">
<stop stop-color="#7561F4"/>
<stop offset="1" stop-color="#3E16DC"/>
</linearGradient>
<linearGradient id="paint3_linear" x1="7.5" y1="4.0446e-07" x2="19.375" y2="31.875" gradientUnits="userSpaceOnUse">
<stop stop-color="#7561F4"/>
<stop offset="1" stop-color="#3E16DC"/>
</linearGradient>
<linearGradient id="paint4_linear" x1="26.1601" y1="20.9746" x2="27.6753" y2="25.0417" gradientUnits="userSpaceOnUse">
<stop stop-color="#7561F4"/>
<stop offset="1" stop-color="#3E16DC"/>
</linearGradient>
</defs>
</svg>
