<svg width="35" height="35" viewBox="0 0 35 35" fill="none" xmlns="http://www.w3.org/2000/svg">
<path d="M25.8559 0.175293L18.1641 3.98701L21.9758 11.6761L23.9363 10.7054L21.6832 6.16084C23.9757 7.00315 25.9585 8.52142 27.3695 10.5149C28.7805 12.5084 29.5533 14.8832 29.5855 17.3253V17.5003H31.773V17.2979C31.736 14.4546 30.8491 11.6874 29.2264 9.35231C27.6038 7.0172 25.3195 5.22101 22.6676 4.19482L26.8238 2.13311L25.8559 0.175293Z" fill="url(#paint0_linear)"/>
<path d="M9.13242 34.8248L16.8215 31.0131L13.0125 23.324L11.052 24.2947L13.3133 28.8557C11.1113 28.0537 9.19149 26.626 7.7896 24.7481C6.38771 22.8702 5.56478 20.6237 5.42188 18.2846C5.42188 18.2098 5.42188 18.1342 5.42188 18.0576L3.23438 18.1561C3.23438 18.2463 3.23438 18.3365 3.24805 18.4295C3.41206 21.1445 4.35287 23.7552 5.95844 25.9508C7.56401 28.1463 9.76672 29.8342 12.3043 30.8135L8.16719 32.8643L9.13242 34.8248Z" fill="url(#paint1_linear)"/>
<path d="M16.4062 0H0V16.4062H16.4062V0Z" fill="url(#paint2_linear)"/>
<path d="M26.7969 35C31.3273 35 35 31.3273 35 26.7969C35 22.2664 31.3273 18.5938 26.7969 18.5938C22.2664 18.5938 18.5938 22.2664 18.5938 26.7969C18.5938 31.3273 22.2664 35 26.7969 35Z" fill="url(#paint3_linear)"/>
<defs>
<linearGradient id="paint0_linear" x1="21.0803" y1="0.175293" x2="28.0372" y2="14.8438" gradientUnits="userSpaceOnUse">
<stop stop-color="#3592FF"/>
<stop offset="1" stop-color="#5D59FF"/>
</linearGradient>
<linearGradient id="paint1_linear" x1="6.1459" y1="18.0576" x2="12.7457" y2="32.4129" gradientUnits="userSpaceOnUse">
<stop stop-color="#3592FF"/>
<stop offset="1" stop-color="#5D59FF"/>
</linearGradient>
<linearGradient id="paint2_linear" x1="3.51562" y1="1.89591e-07" x2="9.08203" y2="14.9414" gradientUnits="userSpaceOnUse">
<stop stop-color="#3592FF"/>
<stop offset="1" stop-color="#5D59FF"/>
</linearGradient>
<linearGradient id="paint3_linear" x1="22.1094" y1="18.5938" x2="27.6758" y2="33.5352" gradientUnits="userSpaceOnUse">
<stop stop-color="#3592FF"/>
<stop offset="1" stop-color="#5D59FF"/>
</linearGradient>
</defs>
</svg>
