<svg width="40" height="37" viewBox="0 0 40 37" fill="none" xmlns="http://www.w3.org/2000/svg">
<path d="M10 11L2 18L3.5 21L7 24.5L12.5 27.5L16 29H22.5L27.5 27L32 24.5L35 21.5L38 18.5L33.5 13L28 9.5L22.5 8H18L10 11Z" fill="url(#paint0_linear)"/>
<mask id="path-2-outside-1" maskUnits="userSpaceOnUse" x="0" y="0" width="40" height="37" fill="black">
<rect fill="white" width="40" height="37"/>
<path d="M38.8863 18.9633C38.9882 18.8304 39.0434 18.6675 39.0434 18.5C39.0434 18.3325 38.9882 18.1697 38.8863 18.0367C37.9872 16.9055 37.0136 15.8355 35.972 14.8339C35.9858 14.7889 35.9952 14.7426 36 14.6957V5.42505C36.3631 5.29736 36.688 5.07968 36.9442 4.79234C37.2004 4.505 37.3796 4.1574 37.465 3.78201C37.5504 3.40663 37.5392 3.01572 37.4325 2.64583C37.3258 2.27595 37.127 1.93915 36.8548 1.66694C36.5826 1.39472 36.2458 1.19597 35.8759 1.08925C35.506 0.982544 35.1151 0.971359 34.7397 1.05675C34.3643 1.14213 34.0167 1.3213 33.7294 1.57751C33.4421 1.83372 33.2244 2.1586 33.0967 2.52178H6.94674C6.81906 2.15859 6.60138 1.83371 6.31405 1.5775C6.02672 1.32129 5.67911 1.14211 5.30373 1.05672C4.92835 0.971328 4.53744 0.982508 4.16755 1.08922C3.79766 1.19592 3.46086 1.39467 3.18865 1.66689C2.91643 1.9391 2.71767 2.2759 2.61096 2.64579C2.50424 3.01567 2.49306 3.40658 2.57844 3.78197C2.66383 4.15735 2.843 4.50496 3.09921 4.79229C3.35541 5.07963 3.68029 5.29732 4.04348 5.425V14.6957C4.04824 14.7426 4.05759 14.7889 4.07138 14.8339C3.02983 15.8355 2.05626 16.9055 1.15715 18.0367C1.05524 18.1697 1 18.3325 1 18.5C1 18.6675 1.05524 18.8304 1.15715 18.9633C2.05626 20.0945 3.02983 21.1645 4.07138 22.1661C4.05759 22.2112 4.04824 22.2575 4.04348 22.3044V31.575C3.68029 31.7027 3.35542 31.9204 3.09921 32.2077C2.843 32.495 2.66383 32.8426 2.57844 33.218C2.49306 33.5934 2.50424 33.9843 2.61095 34.3542C2.71766 34.7241 2.91642 35.0609 3.18863 35.3331C3.46085 35.6053 3.79764 35.8041 4.16753 35.9108C4.53742 36.0175 4.92832 36.0287 5.30371 35.9433C5.67909 35.8579 6.0267 35.6787 6.31404 35.4225C6.60137 35.1663 6.81906 34.8414 6.94674 34.4783H33.0967C33.2244 34.8414 33.4421 35.1663 33.7294 35.4225C34.0168 35.6787 34.3644 35.8579 34.7398 35.9432C35.1151 36.0286 35.506 36.0174 35.8759 35.9107C36.2458 35.804 36.5826 35.6053 36.8548 35.333C37.127 35.0608 37.3258 34.724 37.4325 34.3542C37.5392 33.9843 37.5504 33.5934 37.465 33.218C37.3796 32.8426 37.2004 32.495 36.9442 32.2077C36.688 31.9203 36.3631 31.7027 36 31.575V22.3044C35.9952 22.2575 35.9858 22.2112 35.972 22.1661C37.0136 21.1645 37.9872 20.0945 38.8863 18.9633ZM35.2391 2.52178C35.3896 2.52178 35.5367 2.5664 35.6618 2.65001C35.7869 2.73361 35.8844 2.85244 35.942 2.99148C35.9996 3.13051 36.0147 3.28349 35.9853 3.43109C35.956 3.57868 35.8835 3.71425 35.7771 3.82066C35.6707 3.92707 35.5351 3.99954 35.3875 4.0289C35.2399 4.05825 35.0869 4.04319 34.9479 3.9856C34.8089 3.92801 34.69 3.83049 34.6064 3.70536C34.5228 3.58024 34.4782 3.43313 34.4782 3.28265C34.4785 3.08093 34.5587 2.88755 34.7014 2.74492C34.844 2.60229 35.0374 2.52204 35.2391 2.52178ZM4.80434 2.52178C4.95483 2.52178 5.10194 2.5664 5.22706 2.65001C5.35218 2.73361 5.44971 2.85244 5.50729 2.99148C5.56488 3.13051 5.57995 3.28349 5.55059 3.43109C5.52123 3.57868 5.44877 3.71425 5.34236 3.82066C5.23595 3.92707 5.10038 3.99954 4.95278 4.0289C4.80519 4.05825 4.6522 4.04319 4.51317 3.9856C4.37414 3.92801 4.25531 3.83049 4.17171 3.70536C4.0881 3.58024 4.04348 3.43313 4.04348 3.28265C4.04374 3.08093 4.12398 2.88755 4.26662 2.74492C4.40925 2.60229 4.60263 2.52204 4.80434 2.52178ZM5.56521 5.42505C5.8835 5.31158 6.17257 5.12875 6.41151 4.88982C6.65045 4.65088 6.83327 4.3618 6.94674 4.04352H33.0967C33.2102 4.36179 33.393 4.65086 33.6319 4.88979C33.8709 5.12872 34.1599 5.31154 34.4782 5.425V13.457C31.0389 10.4544 25.8778 7.08699 20.0217 7.08699C14.1657 7.08699 9.00449 10.4544 5.56521 13.457V5.42505ZM2.74315 18.4996C4.43802 16.4856 11.6072 8.60873 20.0217 8.60873C28.4247 8.60873 35.6035 16.4871 37.3003 18.5004C35.6054 20.5144 28.4362 28.3913 20.0217 28.3913C11.6187 28.3913 4.43989 20.5129 2.74315 18.4996ZM4.80434 34.4783C4.65386 34.4783 4.50675 34.4336 4.38163 34.35C4.2565 34.2664 4.15898 34.1476 4.10139 34.0086C4.0438 33.8695 4.02874 33.7165 4.0581 33.5689C4.08745 33.4213 4.15992 33.2858 4.26633 33.1794C4.37274 33.073 4.50831 33.0005 4.65591 32.9711C4.8035 32.9418 4.95649 32.9568 5.09552 33.0144C5.23455 33.072 5.35338 33.1695 5.43698 33.2947C5.52059 33.4198 5.56521 33.5669 5.56521 33.7174C5.56495 33.9191 5.4847 34.1125 5.34207 34.2551C5.19944 34.3977 5.00606 34.478 4.80434 34.4783ZM35.2391 34.4783C35.0886 34.4783 34.9415 34.4336 34.8164 34.35C34.6912 34.2664 34.5937 34.1476 34.5361 34.0086C34.4785 33.8695 34.4635 33.7165 34.4928 33.5689C34.5222 33.4213 34.5947 33.2858 34.7011 33.1794C34.8075 33.073 34.9431 33.0005 35.0906 32.9711C35.2382 32.9418 35.3912 32.9568 35.5303 33.0144C35.6693 33.072 35.7881 33.1695 35.8717 33.2947C35.9553 33.4198 36 33.5669 36 33.7174C35.9997 33.9191 35.9194 34.1125 35.7768 34.2551C35.6342 34.3977 35.4408 34.478 35.2391 34.4783ZM34.4782 31.575C34.1599 31.6885 33.8708 31.8713 33.6319 32.1102C33.393 32.3492 33.2102 32.6382 33.0967 32.9565H6.94674C6.83327 32.6382 6.65045 32.3492 6.41151 32.1102C6.17257 31.8713 5.8835 31.6885 5.56521 31.575V23.5431C9.00449 26.5457 14.1657 29.913 20.0217 29.913C25.8778 29.913 31.0389 26.5457 34.4782 23.5431V31.575Z"/>
</mask>
<path d="M38.8863 18.9633C38.9882 18.8304 39.0434 18.6675 39.0434 18.5C39.0434 18.3325 38.9882 18.1697 38.8863 18.0367C37.9872 16.9055 37.0136 15.8355 35.972 14.8339C35.9858 14.7889 35.9952 14.7426 36 14.6957V5.42505C36.3631 5.29736 36.688 5.07968 36.9442 4.79234C37.2004 4.505 37.3796 4.1574 37.465 3.78201C37.5504 3.40663 37.5392 3.01572 37.4325 2.64583C37.3258 2.27595 37.127 1.93915 36.8548 1.66694C36.5826 1.39472 36.2458 1.19597 35.8759 1.08925C35.506 0.982544 35.1151 0.971359 34.7397 1.05675C34.3643 1.14213 34.0167 1.3213 33.7294 1.57751C33.4421 1.83372 33.2244 2.1586 33.0967 2.52178H6.94674C6.81906 2.15859 6.60138 1.83371 6.31405 1.5775C6.02672 1.32129 5.67911 1.14211 5.30373 1.05672C4.92835 0.971328 4.53744 0.982508 4.16755 1.08922C3.79766 1.19592 3.46086 1.39467 3.18865 1.66689C2.91643 1.9391 2.71767 2.2759 2.61096 2.64579C2.50424 3.01567 2.49306 3.40658 2.57844 3.78197C2.66383 4.15735 2.843 4.50496 3.09921 4.79229C3.35541 5.07963 3.68029 5.29732 4.04348 5.425V14.6957C4.04824 14.7426 4.05759 14.7889 4.07138 14.8339C3.02983 15.8355 2.05626 16.9055 1.15715 18.0367C1.05524 18.1697 1 18.3325 1 18.5C1 18.6675 1.05524 18.8304 1.15715 18.9633C2.05626 20.0945 3.02983 21.1645 4.07138 22.1661C4.05759 22.2112 4.04824 22.2575 4.04348 22.3044V31.575C3.68029 31.7027 3.35542 31.9204 3.09921 32.2077C2.843 32.495 2.66383 32.8426 2.57844 33.218C2.49306 33.5934 2.50424 33.9843 2.61095 34.3542C2.71766 34.7241 2.91642 35.0609 3.18863 35.3331C3.46085 35.6053 3.79764 35.8041 4.16753 35.9108C4.53742 36.0175 4.92832 36.0287 5.30371 35.9433C5.67909 35.8579 6.0267 35.6787 6.31404 35.4225C6.60137 35.1663 6.81906 34.8414 6.94674 34.4783H33.0967C33.2244 34.8414 33.4421 35.1663 33.7294 35.4225C34.0168 35.6787 34.3644 35.8579 34.7398 35.9432C35.1151 36.0286 35.506 36.0174 35.8759 35.9107C36.2458 35.804 36.5826 35.6053 36.8548 35.333C37.127 35.0608 37.3258 34.724 37.4325 34.3542C37.5392 33.9843 37.5504 33.5934 37.465 33.218C37.3796 32.8426 37.2004 32.495 36.9442 32.2077C36.688 31.9203 36.3631 31.7027 36 31.575V22.3044C35.9952 22.2575 35.9858 22.2112 35.972 22.1661C37.0136 21.1645 37.9872 20.0945 38.8863 18.9633ZM35.2391 2.52178C35.3896 2.52178 35.5367 2.5664 35.6618 2.65001C35.7869 2.73361 35.8844 2.85244 35.942 2.99148C35.9996 3.13051 36.0147 3.28349 35.9853 3.43109C35.956 3.57868 35.8835 3.71425 35.7771 3.82066C35.6707 3.92707 35.5351 3.99954 35.3875 4.0289C35.2399 4.05825 35.0869 4.04319 34.9479 3.9856C34.8089 3.92801 34.69 3.83049 34.6064 3.70536C34.5228 3.58024 34.4782 3.43313 34.4782 3.28265C34.4785 3.08093 34.5587 2.88755 34.7014 2.74492C34.844 2.60229 35.0374 2.52204 35.2391 2.52178ZM4.80434 2.52178C4.95483 2.52178 5.10194 2.5664 5.22706 2.65001C5.35218 2.73361 5.44971 2.85244 5.50729 2.99148C5.56488 3.13051 5.57995 3.28349 5.55059 3.43109C5.52123 3.57868 5.44877 3.71425 5.34236 3.82066C5.23595 3.92707 5.10038 3.99954 4.95278 4.0289C4.80519 4.05825 4.6522 4.04319 4.51317 3.9856C4.37414 3.92801 4.25531 3.83049 4.17171 3.70536C4.0881 3.58024 4.04348 3.43313 4.04348 3.28265C4.04374 3.08093 4.12398 2.88755 4.26662 2.74492C4.40925 2.60229 4.60263 2.52204 4.80434 2.52178ZM5.56521 5.42505C5.8835 5.31158 6.17257 5.12875 6.41151 4.88982C6.65045 4.65088 6.83327 4.3618 6.94674 4.04352H33.0967C33.2102 4.36179 33.393 4.65086 33.6319 4.88979C33.8709 5.12872 34.1599 5.31154 34.4782 5.425V13.457C31.0389 10.4544 25.8778 7.08699 20.0217 7.08699C14.1657 7.08699 9.00449 10.4544 5.56521 13.457V5.42505ZM2.74315 18.4996C4.43802 16.4856 11.6072 8.60873 20.0217 8.60873C28.4247 8.60873 35.6035 16.4871 37.3003 18.5004C35.6054 20.5144 28.4362 28.3913 20.0217 28.3913C11.6187 28.3913 4.43989 20.5129 2.74315 18.4996ZM4.80434 34.4783C4.65386 34.4783 4.50675 34.4336 4.38163 34.35C4.2565 34.2664 4.15898 34.1476 4.10139 34.0086C4.0438 33.8695 4.02874 33.7165 4.0581 33.5689C4.08745 33.4213 4.15992 33.2858 4.26633 33.1794C4.37274 33.073 4.50831 33.0005 4.65591 32.9711C4.8035 32.9418 4.95649 32.9568 5.09552 33.0144C5.23455 33.072 5.35338 33.1695 5.43698 33.2947C5.52059 33.4198 5.56521 33.5669 5.56521 33.7174C5.56495 33.9191 5.4847 34.1125 5.34207 34.2551C5.19944 34.3977 5.00606 34.478 4.80434 34.4783ZM35.2391 34.4783C35.0886 34.4783 34.9415 34.4336 34.8164 34.35C34.6912 34.2664 34.5937 34.1476 34.5361 34.0086C34.4785 33.8695 34.4635 33.7165 34.4928 33.5689C34.5222 33.4213 34.5947 33.2858 34.7011 33.1794C34.8075 33.073 34.9431 33.0005 35.0906 32.9711C35.2382 32.9418 35.3912 32.9568 35.5303 33.0144C35.6693 33.072 35.7881 33.1695 35.8717 33.2947C35.9553 33.4198 36 33.5669 36 33.7174C35.9997 33.9191 35.9194 34.1125 35.7768 34.2551C35.6342 34.3977 35.4408 34.478 35.2391 34.4783ZM34.4782 31.575C34.1599 31.6885 33.8708 31.8713 33.6319 32.1102C33.393 32.3492 33.2102 32.6382 33.0967 32.9565H6.94674C6.83327 32.6382 6.65045 32.3492 6.41151 32.1102C6.17257 31.8713 5.8835 31.6885 5.56521 31.575V23.5431C9.00449 26.5457 14.1657 29.913 20.0217 29.913C25.8778 29.913 31.0389 26.5457 34.4782 23.5431V31.575Z" fill="url(#paint1_linear)"/>
<path d="M38.8863 18.9633C38.9882 18.8304 39.0434 18.6675 39.0434 18.5C39.0434 18.3325 38.9882 18.1697 38.8863 18.0367C37.9872 16.9055 37.0136 15.8355 35.972 14.8339C35.9858 14.7889 35.9952 14.7426 36 14.6957V5.42505C36.3631 5.29736 36.688 5.07968 36.9442 4.79234C37.2004 4.505 37.3796 4.1574 37.465 3.78201C37.5504 3.40663 37.5392 3.01572 37.4325 2.64583C37.3258 2.27595 37.127 1.93915 36.8548 1.66694C36.5826 1.39472 36.2458 1.19597 35.8759 1.08925C35.506 0.982544 35.1151 0.971359 34.7397 1.05675C34.3643 1.14213 34.0167 1.3213 33.7294 1.57751C33.4421 1.83372 33.2244 2.1586 33.0967 2.52178H6.94674C6.81906 2.15859 6.60138 1.83371 6.31405 1.5775C6.02672 1.32129 5.67911 1.14211 5.30373 1.05672C4.92835 0.971328 4.53744 0.982508 4.16755 1.08922C3.79766 1.19592 3.46086 1.39467 3.18865 1.66689C2.91643 1.9391 2.71767 2.2759 2.61096 2.64579C2.50424 3.01567 2.49306 3.40658 2.57844 3.78197C2.66383 4.15735 2.843 4.50496 3.09921 4.79229C3.35541 5.07963 3.68029 5.29732 4.04348 5.425V14.6957C4.04824 14.7426 4.05759 14.7889 4.07138 14.8339C3.02983 15.8355 2.05626 16.9055 1.15715 18.0367C1.05524 18.1697 1 18.3325 1 18.5C1 18.6675 1.05524 18.8304 1.15715 18.9633C2.05626 20.0945 3.02983 21.1645 4.07138 22.1661C4.05759 22.2112 4.04824 22.2575 4.04348 22.3044V31.575C3.68029 31.7027 3.35542 31.9204 3.09921 32.2077C2.843 32.495 2.66383 32.8426 2.57844 33.218C2.49306 33.5934 2.50424 33.9843 2.61095 34.3542C2.71766 34.7241 2.91642 35.0609 3.18863 35.3331C3.46085 35.6053 3.79764 35.8041 4.16753 35.9108C4.53742 36.0175 4.92832 36.0287 5.30371 35.9433C5.67909 35.8579 6.0267 35.6787 6.31404 35.4225C6.60137 35.1663 6.81906 34.8414 6.94674 34.4783H33.0967C33.2244 34.8414 33.4421 35.1663 33.7294 35.4225C34.0168 35.6787 34.3644 35.8579 34.7398 35.9432C35.1151 36.0286 35.506 36.0174 35.8759 35.9107C36.2458 35.804 36.5826 35.6053 36.8548 35.333C37.127 35.0608 37.3258 34.724 37.4325 34.3542C37.5392 33.9843 37.5504 33.5934 37.465 33.218C37.3796 32.8426 37.2004 32.495 36.9442 32.2077C36.688 31.9203 36.3631 31.7027 36 31.575V22.3044C35.9952 22.2575 35.9858 22.2112 35.972 22.1661C37.0136 21.1645 37.9872 20.0945 38.8863 18.9633ZM35.2391 2.52178C35.3896 2.52178 35.5367 2.5664 35.6618 2.65001C35.7869 2.73361 35.8844 2.85244 35.942 2.99148C35.9996 3.13051 36.0147 3.28349 35.9853 3.43109C35.956 3.57868 35.8835 3.71425 35.7771 3.82066C35.6707 3.92707 35.5351 3.99954 35.3875 4.0289C35.2399 4.05825 35.0869 4.04319 34.9479 3.9856C34.8089 3.92801 34.69 3.83049 34.6064 3.70536C34.5228 3.58024 34.4782 3.43313 34.4782 3.28265C34.4785 3.08093 34.5587 2.88755 34.7014 2.74492C34.844 2.60229 35.0374 2.52204 35.2391 2.52178ZM4.80434 2.52178C4.95483 2.52178 5.10194 2.5664 5.22706 2.65001C5.35218 2.73361 5.44971 2.85244 5.50729 2.99148C5.56488 3.13051 5.57995 3.28349 5.55059 3.43109C5.52123 3.57868 5.44877 3.71425 5.34236 3.82066C5.23595 3.92707 5.10038 3.99954 4.95278 4.0289C4.80519 4.05825 4.6522 4.04319 4.51317 3.9856C4.37414 3.92801 4.25531 3.83049 4.17171 3.70536C4.0881 3.58024 4.04348 3.43313 4.04348 3.28265C4.04374 3.08093 4.12398 2.88755 4.26662 2.74492C4.40925 2.60229 4.60263 2.52204 4.80434 2.52178ZM5.56521 5.42505C5.8835 5.31158 6.17257 5.12875 6.41151 4.88982C6.65045 4.65088 6.83327 4.3618 6.94674 4.04352H33.0967C33.2102 4.36179 33.393 4.65086 33.6319 4.88979C33.8709 5.12872 34.1599 5.31154 34.4782 5.425V13.457C31.0389 10.4544 25.8778 7.08699 20.0217 7.08699C14.1657 7.08699 9.00449 10.4544 5.56521 13.457V5.42505ZM2.74315 18.4996C4.43802 16.4856 11.6072 8.60873 20.0217 8.60873C28.4247 8.60873 35.6035 16.4871 37.3003 18.5004C35.6054 20.5144 28.4362 28.3913 20.0217 28.3913C11.6187 28.3913 4.43989 20.5129 2.74315 18.4996ZM4.80434 34.4783C4.65386 34.4783 4.50675 34.4336 4.38163 34.35C4.2565 34.2664 4.15898 34.1476 4.10139 34.0086C4.0438 33.8695 4.02874 33.7165 4.0581 33.5689C4.08745 33.4213 4.15992 33.2858 4.26633 33.1794C4.37274 33.073 4.50831 33.0005 4.65591 32.9711C4.8035 32.9418 4.95649 32.9568 5.09552 33.0144C5.23455 33.072 5.35338 33.1695 5.43698 33.2947C5.52059 33.4198 5.56521 33.5669 5.56521 33.7174C5.56495 33.9191 5.4847 34.1125 5.34207 34.2551C5.19944 34.3977 5.00606 34.478 4.80434 34.4783ZM35.2391 34.4783C35.0886 34.4783 34.9415 34.4336 34.8164 34.35C34.6912 34.2664 34.5937 34.1476 34.5361 34.0086C34.4785 33.8695 34.4635 33.7165 34.4928 33.5689C34.5222 33.4213 34.5947 33.2858 34.7011 33.1794C34.8075 33.073 34.9431 33.0005 35.0906 32.9711C35.2382 32.9418 35.3912 32.9568 35.5303 33.0144C35.6693 33.072 35.7881 33.1695 35.8717 33.2947C35.9553 33.4198 36 33.5669 36 33.7174C35.9997 33.9191 35.9194 34.1125 35.7768 34.2551C35.6342 34.3977 35.4408 34.478 35.2391 34.4783ZM34.4782 31.575C34.1599 31.6885 33.8708 31.8713 33.6319 32.1102C33.393 32.3492 33.2102 32.6382 33.0967 32.9565H6.94674C6.83327 32.6382 6.65045 32.3492 6.41151 32.1102C6.17257 31.8713 5.8835 31.6885 5.56521 31.575V23.5431C9.00449 26.5457 14.1657 29.913 20.0217 29.913C25.8778 29.913 31.0389 26.5457 34.4782 23.5431V31.575Z" stroke="url(#paint2_linear)" stroke-width="0.5" mask="url(#path-2-outside-1)"/>
<path d="M20.4999 23.125H20.5C21.4147 23.125 22.3089 22.8537 23.0695 22.3455C23.8301 21.8373 24.4229 21.115 24.7729 20.2699C25.123 19.4248 25.2146 18.4949 25.0361 17.5977C24.8577 16.7005 24.4172 15.8765 23.7704 15.2296C23.1235 14.5828 22.2995 14.1423 21.4023 13.9639C20.5051 13.7854 19.5752 13.877 18.7301 14.2271C17.885 14.5771 17.1627 15.1699 16.6545 15.9305C16.1463 16.6911 15.875 17.5853 15.875 18.5L15.875 18.5001C15.8764 19.7263 16.3641 20.9018 17.2311 21.7689C18.0982 22.6359 19.2737 23.1236 20.4999 23.125ZM20.5001 16.375C20.9204 16.375 21.3312 16.4997 21.6806 16.7331C22.03 16.9666 22.3024 17.2985 22.4632 17.6868C22.6241 18.0751 22.6662 18.5024 22.5842 18.9146C22.5022 19.3268 22.2998 19.7054 22.0026 20.0026C21.7054 20.2998 21.3268 20.5022 20.9146 20.5842C20.5024 20.6662 20.0751 20.6241 19.6868 20.4632C19.2985 20.3024 18.9666 20.03 18.7331 19.6806C18.4997 19.3312 18.375 18.9204 18.375 18.5001C18.3756 17.9367 18.5996 17.3965 18.9981 16.9981C19.3965 16.5996 19.9367 16.3756 20.5001 16.375Z" fill="url(#paint3_linear)" stroke="url(#paint4_linear)" stroke-width="0.25"/>
<defs>
<linearGradient id="paint0_linear" x1="23.9846" y1="-1.93243" x2="23.9846" y2="36.6622" gradientUnits="userSpaceOnUse">
<stop stop-color="#C7DAFD"/>
<stop offset="1" stop-color="#E9F1FF"/>
</linearGradient>
<linearGradient id="paint1_linear" x1="1" y1="1" x2="26.3687" y2="41.8012" gradientUnits="userSpaceOnUse">
<stop stop-color="#2569E6"/>
<stop offset="1" stop-color="#3649EF"/>
</linearGradient>
<linearGradient id="paint2_linear" x1="20.0217" y1="1" x2="20.0217" y2="36" gradientUnits="userSpaceOnUse">
<stop stop-color="#2960E8"/>
<stop offset="1" stop-color="#3250ED"/>
</linearGradient>
<linearGradient id="paint3_linear" x1="16" y1="14" x2="22.7491" y2="23.9865" gradientUnits="userSpaceOnUse">
<stop stop-color="#2569E6"/>
<stop offset="1" stop-color="#3649EF"/>
</linearGradient>
<linearGradient id="paint4_linear" x1="20.5" y1="14" x2="20.5" y2="23" gradientUnits="userSpaceOnUse">
<stop stop-color="#2960E8"/>
<stop offset="1" stop-color="#3250ED"/>
</linearGradient>
</defs>
</svg>
