<svg width="165" height="80" viewBox="0 0 165 80" fill="none" xmlns="http://www.w3.org/2000/svg">
<path d="M85.0264 32.298C80.472 32.7571 75.9193 33.2162 71.3649 33.6721C68.5795 33.9515 65.7942 34.2243 63.0105 34.5054C61.668 34.641 60.3519 34.3583 59.026 34.2554C56.9901 34.0969 54.9624 33.8551 52.9315 33.6443C50.5826 33.4009 48.2354 33.1476 45.8866 32.9058C44.078 32.7195 42.2677 32.5382 40.4559 32.3666C40.1182 32.3339 39.8299 32.3535 40.1182 31.8797C40.217 31.718 40.1511 31.4565 40.1511 31.2392C40.1528 29.0956 40.1577 26.9519 40.1478 24.8082C40.1462 24.4357 40.1775 24.1563 40.581 23.9537C47.7478 20.3559 54.9064 16.7417 62.0683 13.1308C62.0913 13.1194 62.121 13.1194 62.149 13.1145C62.7551 13.2959 62.5591 13.8089 62.5608 14.1929C62.5805 17.91 62.5723 21.6271 62.5707 25.3425C62.5707 26.3866 62.5657 26.3931 63.5754 26.6333C70.3667 28.2476 77.1349 29.9583 83.9097 31.6379C84.3313 31.7441 84.8815 31.7049 85.0264 32.298Z" fill="#344154"/>
<path d="M85.0259 32.2978C84.3637 31.8126 83.5451 31.7897 82.794 31.6018C76.0999 29.9352 69.3976 28.2964 62.692 26.6773C62.328 26.589 62.3066 26.491 62.3082 26.1691C62.3263 22.0991 62.323 18.0291 62.3181 13.9591C62.3181 13.6731 62.4186 13.3545 62.1484 13.116C62.4087 12.8448 62.608 13.1242 62.7958 13.2157C70.1075 16.7726 77.4127 20.341 84.7244 23.8964C85.1379 24.0974 85.3372 24.3163 85.3306 24.8114C85.301 27.1446 85.3224 29.4777 85.3092 31.8093C85.3059 31.989 85.5036 32.355 85.0259 32.2978Z" fill="#5D6776"/>
<path d="M73.9981 46.3427C74.0854 47.0763 73.7049 47.2561 73.018 47.3639C69.638 47.8949 66.2679 48.4978 62.8945 49.0697C62.7101 49.1007 62.5173 49.0926 62.3296 49.104C62.0347 48.7968 62.0693 48.4047 62.0677 48.0305C62.0611 44.2481 62.0611 40.464 62.066 36.6815C62.066 36.3041 62.0528 35.9185 62.3329 35.6064C64.8464 35.6604 67.3369 36.0084 69.8406 36.1718C70.9574 36.2437 72.0725 36.3499 73.1877 36.4414C73.5023 36.4675 73.8894 36.3923 73.8614 36.907C74.1051 37.2028 74.0903 37.5606 74.0969 37.9102C74.1447 40.2565 73.9931 42.6044 74.2484 44.9474C74.3028 45.4179 74.3621 45.9294 73.9981 46.3427Z" fill="#5D6776"/>
<path d="M62.3354 35.6065C62.3338 40.1063 62.3321 44.6044 62.3305 49.1041C59.8367 48.6466 57.3396 48.2103 54.8507 47.7234C53.6565 47.4898 52.4261 47.413 51.2862 46.9359C50.8366 43.7972 51.1396 40.6405 51.0622 37.492C51.054 37.1881 51.1248 36.9038 51.2895 36.644C51.3604 36.4496 51.535 36.4545 51.6947 36.4414C55.05 36.1604 58.4053 35.881 61.7622 35.6033C61.9516 35.5886 62.1443 35.6049 62.3354 35.6065Z" fill="#344154"/>
<path d="M63.0156 66.7369C62.9366 67.1846 62.6417 66.9412 62.4935 66.8513C60.3192 65.5246 58.0198 64.425 55.7879 63.2012C55.3794 62.9774 55.1949 62.7404 55.2196 62.2699C55.2592 61.5167 55.2312 60.7602 55.2328 60.0053C55.0533 59.8125 55.0203 59.5691 55.0187 59.3256C55.0022 57.0349 54.9824 54.7426 55.0286 52.4519C55.0318 52.3163 55.0664 52.1855 55.1142 52.0597C55.4008 51.6137 55.8011 51.8506 56.147 51.9225C57.9374 52.3015 59.718 52.7264 61.4821 53.2116C62.0883 53.3783 62.7406 53.2476 63.3121 53.5564C63.7618 54.254 63.607 55.0318 63.5345 55.767C63.4456 56.6575 63.3912 57.5463 63.4241 58.4368C63.5164 60.9252 63.2364 63.4038 63.2479 65.8906C63.2479 66.1928 63.1985 66.4837 63.0156 66.7369Z" fill="#344154"/>
<path d="M63.0156 66.737C63.0519 63.0852 63.1276 59.4335 63.2825 55.7834C63.3138 55.0449 63.5015 54.2737 63.1359 53.5515C63.2347 53.3326 63.434 53.2443 63.6448 53.1839C65.8109 52.5663 67.967 51.916 70.1594 51.3932C70.3669 51.3441 70.586 51.2788 70.7771 51.4569C71.0077 51.7951 70.978 52.1823 70.9797 52.5581C70.9862 54.8586 70.9846 57.1608 70.9813 59.4613C70.9813 59.8403 70.9895 60.2227 70.7622 60.5592C70.7622 60.6409 70.7474 60.7259 70.7655 60.8027C71.1839 62.613 70.3109 63.4986 68.6572 64.1244C66.7201 64.8547 64.8901 65.8547 63.0156 66.737Z" fill="#5D6776"/>
<path d="M77.616 36.7976C80.0126 37.0084 82.4076 37.2257 84.8042 37.4218C85.2407 37.4577 85.3362 37.6636 85.3346 38.0541C85.3214 40.3056 85.3247 42.5571 85.3313 44.8086C85.3329 45.1353 85.3049 45.3526 84.8865 45.4196C82.4059 45.8199 79.9302 46.2529 77.4513 46.6614C77.303 46.6859 77.1366 46.6026 76.9785 46.5699C77.2799 45.4964 77.3327 44.3903 77.3541 43.289C77.3887 41.5097 77.3574 39.7304 77.3689 37.9495C77.3722 37.5541 77.2964 37.1326 77.616 36.7976Z" fill="#5D6776"/>
<path d="M46.5417 46.3559C44.4959 46.2088 42.5193 45.6533 40.4982 45.3657C40.1573 45.3167 40.154 45.0847 40.154 44.8298C40.1556 42.5293 40.1573 40.2271 40.1523 37.9266C40.1523 37.6293 40.1721 37.4283 40.5674 37.3923C42.5243 37.211 44.4761 36.9986 46.4313 36.7976C46.8184 37.0394 46.8085 37.4365 46.8102 37.8123C46.8234 40.3562 46.8217 42.9018 46.8118 45.4458C46.8102 45.7726 46.7871 46.0977 46.5417 46.3559Z" fill="#344154"/>
<path d="M55.2744 51.9274C55.2596 54.6201 55.2447 57.3144 55.2299 60.0054C53.9567 60.1557 52.8036 60.7226 51.5765 61.0347C51.2141 61.1262 50.8781 61.3256 50.4877 61.3043C50.2769 61.002 50.2357 60.6573 50.2357 60.3011C50.2324 57.4173 50.2291 54.5318 50.239 51.648C50.239 51.3784 50.2522 51.1088 50.3675 50.8556C50.4811 50.6367 50.692 50.5811 50.9111 50.5468C53.0968 50.2167 55.2596 49.7593 57.4371 49.39C57.7468 49.3377 58.0845 49.2184 58.3859 49.4488C58.3925 49.8818 58.3991 50.3148 58.4056 50.7494C57.3119 51.3686 56.0535 51.3572 54.9581 51.6921C54.7786 51.6137 54.8494 51.818 54.8692 51.7101C54.8725 51.6921 54.8988 51.7052 54.9515 51.7118C55.0948 51.7346 55.2069 51.7951 55.2744 51.9274Z" fill="#5D6776"/>
<path d="M78.9724 57.463C79.2129 58.6182 78.7089 59.2766 77.6283 59.7145C76.4341 60.1981 75.3931 61.0102 74.1709 61.4562C73.9535 61.252 73.9189 60.9808 73.9173 60.7095C73.9041 57.6297 73.8827 54.5498 73.9272 51.4683C73.9288 51.3327 73.9617 51.2003 74.0046 51.0729C74.1116 50.7968 74.3472 50.6497 74.6107 50.5762C76.0454 50.1759 77.4702 49.738 78.9543 49.5354C79.2656 49.6955 79.1981 49.9913 79.1981 50.2478C79.1882 52.3441 79.203 54.4403 79.1915 56.5366C79.1899 56.8617 79.1684 57.182 78.9724 57.463Z" fill="#5D6776"/>
<path d="M46.5417 46.3559C46.5384 43.4901 46.5368 40.6226 46.5335 37.7568C46.5335 37.4333 46.5664 37.1065 46.4297 36.7977C47.7589 36.783 49.0882 36.7699 50.4175 36.7503C50.7123 36.7454 51.017 36.8108 51.2921 36.6458C51.2905 40.0769 51.2905 43.5081 51.2888 46.9392C51.2625 46.3265 51.0879 46.0651 50.3335 46.1403C49.0767 46.2612 47.815 46.4654 46.5417 46.3559Z" fill="#5D6776"/>
<path d="M74.1637 50.9488C74.167 54.4518 74.1687 57.9549 74.172 61.4579C73.0354 61.1589 71.8972 60.8599 70.7607 60.5609C70.7475 57.7899 70.7376 55.0204 70.7113 52.251C70.708 51.9797 70.8612 51.6513 70.5367 51.4389C68.7956 51.3948 67.0958 51.1563 65.498 50.421C65.643 50.1236 65.1752 49.6433 65.7813 49.4832C68.4069 49.5698 70.9337 50.2838 73.5131 50.6628C73.7519 50.6971 74.0073 50.7184 74.1637 50.9488Z" fill="#344154"/>
<path d="M84.8569 48.1565C85.211 48.0895 85.3362 48.2268 85.3345 48.5879C85.323 50.9178 85.3263 53.2477 85.3313 55.5776C85.3313 55.8178 85.2785 56.0024 85.0315 56.0907C83.5177 56.6331 82.0056 57.1772 80.4903 57.7131C80.4326 57.7327 80.3437 57.6641 80.2695 57.6363C80.3749 55.1773 80.2942 52.7151 80.3222 50.2561C80.3272 49.8525 80.286 49.4424 80.4507 49.0552C80.6566 48.7186 81.014 48.6647 81.355 48.5911C82.508 48.3379 83.666 48.1157 84.8569 48.1565Z" fill="#5D6776"/>
<path d="M50.4685 50.7852C50.475 54.2916 50.4816 57.7995 50.4882 61.3059C49.154 60.6752 48.0142 59.7373 46.7541 58.9923C46.3884 58.7766 46.5301 58.4188 46.5103 58.1116C46.4906 57.7881 46.4971 57.4613 46.4922 57.1378C46.3687 56.9238 46.3028 56.6934 46.3011 56.445C46.2863 54.4288 46.2764 52.4142 46.3077 50.398C46.311 50.2363 46.3423 50.0778 46.4016 49.9258C46.4873 49.7281 46.6602 49.6088 46.8546 49.6481C48.0982 49.9029 49.3879 50.019 50.4685 50.7852Z" fill="#344154"/>
<path d="M77.6169 36.7976C77.6119 39.1406 77.6185 41.4836 77.5971 43.8266C77.5905 44.5765 77.4933 45.3265 77.4801 46.0765C77.4736 46.4441 77.2709 46.5307 76.981 46.5699C75.9878 46.4947 74.9946 46.4196 74.0013 46.3428C73.8646 43.1992 73.8086 40.0539 73.8663 36.9071C75.1165 36.8711 76.3667 36.8352 77.6169 36.7976Z" fill="#344154"/>
<path d="M65.4973 50.4192C67.1774 50.7591 68.8558 51.0973 70.5359 51.4371C68.3304 52.0744 66.1265 52.7116 63.9209 53.3455C63.6607 53.4207 63.3988 53.4828 63.1369 53.5514C62.7103 53.6886 62.2985 53.6445 61.8636 53.5351C59.6713 52.9828 57.4723 52.46 55.2766 51.9273C54.995 51.8505 54.715 51.7754 54.4333 51.6986C54.4333 51.6577 54.4316 51.6185 54.4316 51.5777C55.7576 51.3015 57.0836 51.0254 58.4079 50.7493C60.7436 50.0679 63.0891 49.5892 65.4973 50.4192Z" fill="#5D6776"/>
<path d="M46.5431 49.7541C46.5267 52.2147 46.5086 54.677 46.4921 57.1376C45.6174 57.2635 44.7313 57.3206 43.8714 57.5494C43.6194 57.6164 43.346 57.6687 43.1187 57.453C42.9803 57.0037 43.0034 56.5429 43.0034 56.0822C43.005 54.0774 43.0017 52.0726 43.0067 50.0662C43.0083 49.6626 42.9655 49.2509 43.1549 48.8686C43.5305 48.4356 44.0675 48.563 44.5353 48.5173C46.2714 48.349 48.0042 48.1235 49.7535 48.148C49.8622 48.1496 49.9874 48.1186 50.078 48.1627C50.3464 48.2902 50.8373 48.0434 50.8818 48.514C50.9312 49.045 50.4272 49.0793 50.0763 49.1234C48.9925 49.2574 47.9202 49.4796 46.8265 49.5303C46.6766 49.5368 46.4707 49.4731 46.5431 49.7541Z" fill="#5D6776"/>
<path d="M43.278 48.8278C43.2763 51.4208 43.278 54.0138 43.2697 56.6084C43.2681 56.8927 43.3719 57.208 43.1166 57.4531C42.3045 57.0119 41.5007 56.5512 40.6738 56.1394C40.2785 55.9434 40.1401 55.6999 40.1418 55.2588C40.1533 52.9076 40.1368 50.5565 40.1055 48.2053C40.1006 47.8377 40.3329 48.0468 40.458 47.9929C41.4496 48.0942 42.4725 48.1024 43.278 48.8278Z" fill="#344154"/>
<path d="M43.2806 48.8279C42.34 48.5502 41.3995 48.2724 40.459 47.993C41.3188 47.6564 42.2379 47.8378 43.1274 47.7054C45.5471 47.346 47.9585 47.5273 50.342 48.0698C50.5264 48.1123 50.8575 48.1286 50.8707 48.2021C51.0156 48.9848 51.6053 48.7086 51.9908 48.6155C53.376 48.2773 54.6954 48.7054 56.0362 48.8688C56.8713 48.9701 57.6998 49.1384 58.5284 49.2838C58.5712 49.2919 58.8067 49.2429 58.6239 49.4161C58.5778 49.4602 58.4658 49.439 58.3851 49.4488C56.1531 49.8687 53.9212 50.2968 51.686 50.7036C51.2891 50.7755 50.874 50.7592 50.4671 50.7837C49.1593 50.4406 47.8498 50.0958 46.542 49.7527C46.3805 49.6759 46.2208 49.6007 45.977 49.4847C47.3178 49.2478 48.5861 49.0616 49.8676 48.926C50.1871 48.8916 50.8032 48.9684 50.7587 48.5093C50.7192 48.0927 50.1575 48.2985 49.8445 48.3198C47.6571 48.4701 45.468 48.6547 43.2806 48.8279Z" fill="#5D6776"/>
<path d="M96.1425 38.5247C95.5676 40.1423 94.9928 41.7647 94.4179 43.3855C94.3322 43.629 94.3372 43.9116 93.9369 43.9264C93.4774 43.9427 93.4955 43.5963 93.4115 43.3414C92.8877 41.7516 92.3787 40.157 91.7907 38.3352C91.7165 39.5655 91.6572 40.5801 91.5946 41.5948C91.5568 42.2157 91.5008 42.8365 91.4793 43.4574C91.4695 43.776 91.4069 43.9345 91.0214 43.9296C90.552 43.9231 90.6755 43.6698 90.6953 43.4019C90.8271 41.567 90.9391 39.7305 91.0824 37.8957C91.1005 37.662 90.8897 37.2486 91.4217 37.2388C91.8598 37.2307 92.2288 37.1882 92.4018 37.7813C92.8712 39.3874 93.5119 40.9429 93.9468 42.6748C94.5118 41.0523 95.0455 39.5361 95.5627 38.0149C95.7274 37.5313 95.8674 37.1163 96.551 37.2274C97.2345 37.3385 96.9578 37.8336 96.9858 38.1685C97.1192 39.8139 97.2312 41.4608 97.2938 43.111C97.3037 43.3545 97.6645 43.8365 97.0171 43.9215C96.355 44.008 96.5147 43.5375 96.4966 43.1927C96.4241 41.8415 96.355 40.4903 96.2924 39.1374C96.2808 38.9168 96.2957 38.6995 96.1425 38.5247Z" fill="#344154"/>
<path d="M80.5736 49.0013C80.5736 51.6024 80.5786 54.2052 80.567 56.8064C80.5654 57.1037 80.7186 57.4844 80.2705 57.6364C79.839 57.5792 79.4058 57.522 78.9742 57.4632C78.9709 54.965 78.9643 52.4684 78.966 49.9702C78.966 49.8117 79.0549 49.6434 78.8013 49.614C77.3172 49.7708 75.8907 49.3705 74.4412 49.181C74.1958 49.1483 73.9586 49.0715 73.8598 48.8036C73.7758 48.2464 74.1431 48.3003 74.5005 48.3379C75.9962 48.2317 77.4786 48.418 78.961 48.5699C79.5161 48.6271 80.1141 48.5699 80.5736 49.0013Z" fill="#344154"/>
<path d="M73.8586 48.8035C75.1862 49.1875 76.5732 49.2169 77.9255 49.4505C78.217 49.5012 78.5069 49.5583 78.7985 49.6139C77.7492 50.1253 76.5732 50.2021 75.4794 50.5665C75.0462 50.7102 74.6015 50.8213 74.1617 50.9488C71.3484 50.5714 68.5597 50.0485 65.7793 49.4832C67.4693 49.2152 69.1609 48.9636 70.8476 48.6728C71.8672 48.4963 72.8489 48.9015 73.8586 48.8035Z" fill="#5D6776"/>
<path d="M98.3176 28.785C99.4574 27.9011 99.7473 27.8946 100.963 28.8128C101.248 29.0285 101.294 28.7769 101.398 28.6772C101.941 28.1609 102.554 27.9583 103.271 28.2524C103.972 28.5399 104.195 29.1576 104.229 29.8307C104.274 30.6967 104.234 31.5659 104.254 32.4335C104.261 32.7456 104.168 32.855 103.84 32.8534C103.523 32.8518 103.411 32.7652 103.419 32.4417C103.439 31.6558 103.444 30.8682 103.419 30.0823C103.394 29.2638 102.963 28.7752 102.347 28.8063C101.734 28.8373 101.302 29.3618 101.289 30.1232C101.278 30.8829 101.281 31.6427 101.289 32.4025C101.292 32.6737 101.279 32.8534 100.91 32.8567C100.543 32.8583 100.446 32.7423 100.456 32.3926C100.479 31.6067 100.472 30.8192 100.459 30.0333C100.449 29.4043 100.227 28.8978 99.5167 28.8128C98.9287 28.7442 98.3653 29.316 98.334 30.0219C98.3011 30.7522 98.3307 31.4858 98.3225 32.2195C98.3192 32.5136 98.4658 32.8763 97.8893 32.8599C97.3589 32.8452 97.5105 32.5103 97.5088 32.2521C97.4989 31.0855 97.4907 29.9189 97.517 28.7523C97.522 28.5465 97.2601 28.2066 97.7476 28.1151C98.3126 28.0106 98.1347 28.4942 98.3176 28.785Z" fill="#344154"/>
<path d="M108.555 39.8121C108.845 39.83 108.922 39.6144 109.079 39.5196C110.293 38.7827 111.619 39.348 111.767 40.7401C111.868 41.678 111.795 42.6354 111.818 43.5831C111.826 43.8968 111.662 43.9213 111.413 43.9229C111.138 43.9246 110.944 43.9164 110.955 43.5471C110.98 42.789 110.978 42.0292 110.957 41.2711C110.93 40.3529 110.517 39.8709 109.807 39.879C109.084 39.8872 108.572 40.4623 108.558 41.3038C108.547 42.008 108.552 42.7138 108.558 43.4181C108.562 43.704 108.582 43.9393 108.153 43.9311C107.793 43.9246 107.694 43.8216 107.695 43.4687C107.71 41.4361 107.71 39.4036 107.695 37.3694C107.694 37.0246 107.776 36.9054 108.147 36.9005C108.567 36.8956 108.562 37.1161 108.558 37.4086C108.549 38.2092 108.555 39.0115 108.555 39.8121Z" fill="#344154"/>
<path d="M116.248 39.9167C116.982 39.2468 117.732 38.9772 118.577 39.371C119.419 39.7631 119.549 40.5392 119.539 41.3643C119.531 42.0685 119.529 42.7744 119.54 43.4786C119.545 43.7563 119.519 43.9328 119.157 43.9263C118.824 43.9197 118.661 43.8642 118.677 43.4851C118.705 42.8087 118.691 42.1306 118.684 41.4526C118.672 40.3856 118.307 39.884 117.554 39.8775C116.795 39.8709 116.291 40.4886 116.281 41.4477C116.274 42.1257 116.259 42.8038 116.287 43.4802C116.302 43.8544 116.152 43.923 115.813 43.9279C115.457 43.9312 115.421 43.7678 115.424 43.4851C115.434 42.2924 115.411 41.0996 115.442 39.9085C115.449 39.6765 115.161 39.2991 115.671 39.1929C116.248 39.0703 116.113 39.5654 116.248 39.9167Z" fill="#344154"/>
<path d="M120.7 28.8258C121.423 28.1706 122.199 27.888 123.065 28.3242C123.889 28.7392 123.991 29.53 123.978 30.3502C123.966 31.0283 123.96 31.7064 123.983 32.3828C123.994 32.7177 123.92 32.8566 123.538 32.8583C123.126 32.8599 123.115 32.6573 123.12 32.3567C123.131 31.6247 123.143 30.8927 123.118 30.1623C123.088 29.2849 122.698 28.8275 122.016 28.8062C121.306 28.7833 120.744 29.3683 120.723 30.1901C120.703 30.8943 120.711 31.6002 120.721 32.3044C120.726 32.623 120.748 32.8632 120.275 32.8615C119.766 32.8599 119.868 32.5544 119.866 32.275C119.863 31.11 119.85 29.9434 119.878 28.7784C119.883 28.5562 119.603 28.169 120.165 28.1118C120.73 28.053 120.527 28.5137 120.7 28.8258Z" fill="#344154"/>
<path d="M109.52 50.9747C110.243 50.3196 111.019 50.032 111.887 50.4666C112.712 50.88 112.817 51.6691 112.804 52.4894C112.793 53.1674 112.788 53.8455 112.807 54.5219C112.817 54.8487 112.76 55.0039 112.369 55.0023C111.966 55.0023 111.938 54.8144 111.944 54.5056C111.957 53.7736 111.967 53.0416 111.943 52.3113C111.911 51.3979 111.483 50.9208 110.765 50.9486C110.081 50.9747 109.569 51.5368 109.548 52.326C109.528 53.0579 109.529 53.7899 109.549 54.5203C109.557 54.8503 109.49 54.9974 109.106 55.0006C108.696 55.0055 108.683 54.8078 108.686 54.5039C108.696 53.3112 108.675 52.1185 108.704 50.9274C108.709 50.7068 108.426 50.3179 108.984 50.2558C109.541 50.1921 109.36 50.6431 109.52 50.9747Z" fill="#344154"/>
<path d="M117.246 50.9438C117.597 50.7036 117.9 50.4406 118.306 50.336C119.379 50.0632 120.339 50.6219 120.461 51.733C120.568 52.697 120.501 53.6806 120.527 54.6544C120.535 54.9713 120.364 54.9877 120.118 54.9909C119.84 54.9958 119.651 54.9779 119.662 54.6135C119.685 53.8554 119.687 53.0956 119.664 52.3375C119.637 51.4144 119.227 50.9389 118.514 50.9471C117.804 50.9553 117.287 51.5385 117.267 52.3784C117.252 53.0009 117.29 53.6267 117.252 54.2475C117.236 54.5253 117.514 54.9779 116.855 54.9991C116.201 55.0187 116.424 54.5792 116.419 54.2867C116.401 53.2035 116.386 52.1169 116.43 51.0353C116.44 50.7919 116.101 50.372 116.676 50.2592C117.279 50.1448 117.06 50.7004 117.246 50.9438Z" fill="#344154"/>
<path d="M112.696 28.8029C111.951 28.8029 111.353 28.811 110.757 28.7996C110.508 28.7947 110.179 28.9058 110.194 28.4434C110.21 27.9696 110.561 28.1346 110.788 28.1297C111.582 28.1117 112.378 28.1134 113.172 28.1297C113.368 28.1346 113.64 27.9941 113.757 28.2457C113.867 28.4843 113.742 28.713 113.584 28.9172C112.786 29.9499 111.994 30.9874 111.149 32.0886C111.923 32.2406 112.646 32.1344 113.361 32.1589C113.633 32.1687 113.834 32.1719 113.822 32.5379C113.811 32.8811 113.6 32.8451 113.383 32.8451C112.452 32.8451 111.52 32.8549 110.589 32.8369C110.4 32.8337 110.13 32.9807 110.024 32.6964C109.942 32.4758 110.054 32.2798 110.195 32.1001C110.93 31.1557 111.658 30.2064 112.388 29.2571C112.467 29.1509 112.536 29.0381 112.696 28.8029Z" fill="#344154"/>
<path d="M80.5731 49.0011C78.5487 48.7806 76.5244 48.5584 74.5 48.3378C76.1043 48.0617 77.6708 47.4931 79.3328 47.6662C81.1726 47.859 83.0306 47.8443 84.859 48.1564C83.4293 48.4374 82.0012 48.7201 80.5731 49.0011Z" fill="#5D6776"/>
<path d="M91.4004 51.6055C91.4004 50.7657 91.3757 49.9259 91.4136 49.0894C91.4268 48.7953 91.122 48.2822 91.8501 48.3018C92.5139 48.3182 92.2339 48.7822 92.2388 49.0518C92.2652 50.5942 92.2701 52.1382 92.2405 53.6806C92.2306 54.1626 92.3376 54.3652 92.8664 54.3194C93.4363 54.2704 94.0128 54.3129 94.5877 54.3064C94.8479 54.3031 95.067 54.2868 95.0571 54.6691C95.0472 55.0024 94.8611 54.9893 94.6321 54.9893C93.7031 54.9861 92.7741 54.973 91.8451 54.9959C91.4745 55.0057 91.3872 54.8701 91.3938 54.5286C91.4119 53.5548 91.4004 52.5793 91.4004 51.6055Z" fill="#344154"/>
<path d="M105.556 39.1797C105.721 39.2075 105.987 39.2532 106.254 39.3006C106.498 39.3447 106.645 39.4362 106.569 39.7336C106.49 40.0407 106.317 39.9901 106.076 39.9574C104.79 39.7761 104.143 40.1077 103.872 41.0554C103.495 42.3821 104.474 43.4278 105.875 43.2121C106.111 43.1762 106.458 42.8151 106.562 43.3722C106.656 43.8738 106.213 43.7938 105.976 43.8428C105.014 44.0356 104.093 43.931 103.446 43.1141C102.822 42.3249 102.752 41.4132 103.179 40.5113C103.62 39.5767 104.449 39.2238 105.556 39.1797Z" fill="#344154"/>
<path d="M106.325 51.1643C106.674 50.733 106.924 50.398 107.353 50.3131C107.56 50.2722 107.88 50.1023 107.891 50.532C107.898 50.7689 108.026 51.063 107.549 51.0925C106.669 51.148 106.468 51.8179 106.427 52.5335C106.391 53.1822 106.414 53.8358 106.42 54.486C106.424 54.7736 106.438 54.9909 106.015 55.0024C105.551 55.0138 105.559 54.7818 105.562 54.455C105.572 53.2345 105.565 52.014 105.565 50.7935C105.565 50.5435 105.434 50.251 105.913 50.2526C106.364 50.2543 106.292 50.5271 106.297 50.7902C106.298 50.8653 106.307 50.9405 106.325 51.1643Z" fill="#344154"/>
<path d="M113.98 41.4836C113.98 42.1339 113.97 42.7826 113.984 43.4329C113.991 43.7384 113.966 43.9296 113.563 43.9296C113.176 43.9296 113.12 43.7809 113.123 43.4508C113.138 42.1797 113.141 40.9069 113.121 39.6357C113.115 39.2762 113.23 39.1782 113.584 39.1815C113.925 39.1847 113.993 39.3204 113.986 39.6161C113.968 40.2386 113.98 40.8611 113.98 41.4836Z" fill="#344154"/>
<path d="M114.966 52.6742C114.966 53.2968 114.946 53.9193 114.974 54.5418C114.99 54.9029 114.865 55.0009 114.509 54.9993C114.168 54.9976 114.106 54.8637 114.109 54.5679C114.121 53.269 114.122 51.97 114.107 50.6711C114.104 50.3541 114.206 50.2659 114.524 50.2544C114.903 50.2414 114.982 50.3917 114.971 50.7266C114.951 51.3753 114.966 52.0256 114.966 52.6742Z" fill="#344154"/>
<path d="M115.104 48.8296C115.056 49.1825 114.87 49.3475 114.559 49.3443C114.241 49.341 114.055 49.1596 114.057 48.8443C114.058 48.4897 114.271 48.2969 114.62 48.3214C114.935 48.3443 115.065 48.5796 115.104 48.8296Z" fill="#344154"/>
<path d="M114.115 37.7128C114.089 38.0804 113.916 38.2585 113.603 38.2716C113.287 38.2846 113.086 38.118 113.069 37.8026C113.053 37.453 113.247 37.2438 113.601 37.2471C113.926 37.252 114.051 37.4889 114.115 37.7128Z" fill="#344154"/>
<path d="M125.691 50.2559C125.174 50.1775 125.237 50.5598 125.162 50.9177C124.095 50.0876 123.041 50.0762 122.255 50.8164C121.394 51.6268 121.255 53.2133 121.964 54.1854C122.652 55.1315 123.629 55.2033 125.072 54.4142C125.133 55.9108 124.339 56.5693 122.875 56.236C122.741 56.2049 122.604 56.1706 122.486 56.1102C122.254 55.9925 122.095 55.968 122.003 56.2801C121.916 56.5742 122.086 56.6591 122.298 56.7506C124.187 57.5709 125.915 56.4925 125.946 54.4583C125.965 53.2656 125.961 52.0712 125.938 50.8784C125.935 50.6726 126.189 50.3311 125.691 50.2559ZM123.776 54.3358C122.932 54.3407 122.346 53.6168 122.364 52.594C122.38 51.6349 122.973 50.9307 123.772 50.916C124.649 50.9013 125.098 51.4601 125.1 52.5712C125.1 53.7279 124.647 54.3309 123.776 54.3358Z" fill="#344154"/>
<path d="M94.6054 26.6577C94.4802 26.2721 94.3155 26.1495 93.9219 26.1544C93.5776 26.1593 93.3832 26.2214 93.2663 26.5825C92.5975 28.6428 91.9041 30.6966 91.209 32.7766C91.8695 32.9596 92.1775 32.7798 92.2763 32.1949C92.3389 31.8257 92.4921 31.4695 92.614 31.11C92.6832 30.9074 92.7573 30.7555 93.0439 30.7146C94.7207 30.4777 95.0568 30.6411 95.541 32.1933C95.7337 32.8109 96.0236 33.0233 96.6496 32.7341C95.9627 30.7064 95.2626 28.6886 94.6054 26.6577ZM92.9467 30.0431C93.2432 29.1052 93.5249 28.2115 93.8856 27.0727C94.2579 28.1739 94.5659 29.0807 94.892 30.0431C94.1854 30.0431 93.5957 30.0431 92.9467 30.0431Z" fill="#344154"/>
<path d="M122.023 41.7727C122.35 41.7613 122.68 41.7695 123.008 41.7695C123.391 41.7695 123.779 41.7335 124.157 41.7776C124.749 41.8479 124.851 41.5701 124.792 41.0702C124.668 40.0196 124.021 39.3039 123.057 39.1977C122.028 39.085 121.051 39.6552 120.718 40.6061C120.395 41.526 120.377 42.4541 121.087 43.2057C121.865 44.0275 122.886 44.0259 123.917 43.8053C124.149 43.7563 124.54 43.8135 124.465 43.3788C124.386 42.9034 124.065 43.1779 123.83 43.2057C122.999 43.307 122.169 43.3837 121.591 42.6027C121.433 42.3887 121.27 42.0946 121.413 41.8528C121.477 41.7466 121.81 41.7809 122.023 41.7727ZM121.349 41.147C121.54 40.3774 121.876 39.8725 122.657 39.8186C123.237 39.7794 123.66 40.0081 123.879 40.5686C124.024 40.9395 124.05 41.1813 123.51 41.1551C122.83 41.1224 122.145 41.147 121.349 41.147Z" fill="#344154"/>
<path d="M99.1806 52.8553C99.79 52.8896 99.8609 52.6184 99.8032 52.1348C99.678 51.0842 99.0257 50.3718 98.0605 50.2705C97.0294 50.1627 96.0609 50.7362 95.7265 51.6887C95.4135 52.5808 95.3938 53.4811 96.0493 54.2262C96.8021 55.0823 97.825 55.097 98.8561 54.8928C99.0999 54.8438 99.5677 54.9271 99.4688 54.4451C99.3651 53.9288 98.9944 54.2686 98.7507 54.3046C97.3209 54.5203 96.5517 54.0693 96.3936 52.8406C97.3292 52.8423 98.2565 52.803 99.1806 52.8553ZM96.3722 52.2181C96.5385 51.4535 96.8828 50.9551 97.657 50.8914C98.2779 50.8391 98.7062 51.1071 98.9203 51.7018C99.0554 52.076 98.9912 52.2443 98.5398 52.2263C97.8365 52.1969 97.1315 52.2181 96.3722 52.2181Z" fill="#344154"/>
<path d="M116.658 28.1216C115.277 28.1135 114.294 29.0873 114.278 30.4777C114.261 31.8436 115.208 32.8338 116.541 32.8436C117.928 32.8534 118.903 31.8812 118.909 30.4826C118.918 29.0824 118.008 28.1298 116.658 28.1216ZM116.618 32.1916C115.772 32.2031 115.136 31.4825 115.129 30.4989C115.121 29.5088 115.72 28.7948 116.577 28.7736C117.427 28.7523 118.045 29.4565 118.056 30.4565C118.068 31.4417 117.457 32.1802 116.618 32.1916Z" fill="#344154"/>
<path d="M101.968 43.4998C101.968 43.0668 101.968 42.6338 101.968 42.1992C101.961 42.1992 101.957 42.1992 101.95 42.1992C101.95 41.9019 101.952 41.6029 101.95 41.3055C101.942 39.5229 100.907 38.7844 99.214 39.3726C99.0147 39.4412 98.6062 39.3987 98.7742 39.8611C98.9323 40.2892 99.1678 39.9837 99.3507 39.933C99.7822 39.8138 100.207 39.7321 100.627 39.9396C100.99 40.1177 101.144 40.4591 101.092 40.8153C101.041 41.1584 100.687 40.9313 100.479 40.9983C100.092 41.1225 99.6702 41.1552 99.2996 41.3104C98.5123 41.6372 98.1515 42.41 98.42 43.0783C98.6902 43.7547 99.4742 44.0733 100.281 43.8184C100.486 43.7547 100.695 43.6599 100.859 43.5292C101.103 43.3364 101.219 43.3135 101.245 43.673C101.27 44.0177 101.555 43.905 101.751 43.9083C102.065 43.9132 101.966 43.6746 101.968 43.4998ZM99.9848 43.2907C99.4594 43.2727 99.1711 42.9982 99.1942 42.4737C99.2189 41.9166 99.9997 41.4934 100.794 41.5359C101.347 41.5653 101.009 41.9787 101.13 42.1273C101.097 42.8577 100.629 43.3135 99.9848 43.2907Z" fill="#344154"/>
<path d="M109.005 32.1378C109.046 31.4892 109.023 30.8373 109.018 30.187C109.006 28.4583 107.988 27.7361 106.316 28.2933C106.115 28.3603 105.704 28.3015 105.835 28.7541C105.979 29.2491 106.254 28.8864 106.463 28.8439C107.035 28.7279 107.628 28.5694 108.01 29.1772C108.229 29.5253 108.43 29.9354 107.665 29.937C107.063 29.937 106.466 30.0824 105.971 30.4598C105.523 30.8013 105.322 31.2653 105.429 31.8192C105.532 32.3568 105.924 32.6607 106.427 32.7914C107.087 32.963 107.656 32.7097 108.198 32.2702C108.334 32.5381 108.286 32.9597 108.784 32.8502C109.323 32.7342 108.99 32.3698 109.005 32.1378ZM108.198 31.066C108.181 31.7833 107.703 32.2571 107.026 32.2212C106.542 32.195 106.267 31.9385 106.259 31.4581C106.249 30.8797 106.937 30.4778 107.807 30.4647C108.336 30.4566 108.165 30.8062 108.198 31.066Z" fill="#344154"/>
<path d="M104.108 54.6199C104.106 54.187 104.108 53.754 104.108 53.3194C104.101 53.3194 104.093 53.3194 104.086 53.3194C104.086 52.9942 104.088 52.6691 104.086 52.3439C104.075 50.5532 102.79 49.7477 101.161 50.5009C100.942 50.6022 100.798 50.6708 100.919 50.9649C101.046 51.277 101.219 51.1103 101.367 51.0532C101.787 50.8914 102.213 50.813 102.647 50.9568C103.065 51.094 103.259 51.4437 103.231 51.8407C103.202 52.2737 102.801 51.9894 102.581 52.0694C102.302 52.1707 101.989 52.174 101.704 52.2639C101.064 52.4648 100.586 52.8439 100.486 53.5465C100.413 54.0464 100.607 54.45 101.041 54.7261C101.634 55.1052 102.23 55.0415 102.825 54.7245C103.055 54.602 103.337 54.1527 103.419 54.8552C103.445 55.0823 103.744 54.9794 103.92 54.9745C104.17 54.9712 104.108 54.7752 104.108 54.6199ZM103.268 53.1445C103.268 53.8765 102.838 54.3602 102.159 54.3634C101.683 54.3667 101.375 54.1494 101.329 53.6641C101.273 53.0726 101.881 52.6544 102.838 52.6217C103.287 52.5171 103.268 52.8259 103.268 53.1445Z" fill="#344154"/>
</svg>
