<svg width="165" height="80" viewBox="0 0 165 80" fill="none" xmlns="http://www.w3.org/2000/svg">
<g clip-path="url(#clip0)">
<path d="M94.1164 33.9881C95.3702 35.382 96.6191 36.7807 97.8842 38.1632C98.1075 38.4075 98.1981 38.6387 98.1156 38.9595C97.4393 41.6056 96.7696 44.2533 96.0966 46.901C95.9397 46.8261 95.7649 46.7919 95.6242 46.6812C95.0822 46.1471 94.503 45.6521 93.9611 45.118C91.955 42.9718 89.8648 40.9119 87.7568 38.8699C87.6549 38.7657 87.5482 38.6647 87.4948 38.5247C87.1922 37.7936 86.5354 37.3702 86.0226 36.8231C85.754 36.5365 85.4984 36.2385 85.2363 35.9454C86.0485 35.8428 86.8671 35.5008 87.663 36.0154C87.8264 36.1212 88.0092 36.1538 88.2034 36.131C89.8891 35.934 91.5376 35.5904 93.1134 34.926C93.5534 34.7404 93.8155 34.4587 93.9109 34.0011C93.9756 33.9246 94.0452 33.9213 94.1164 33.9881Z" fill="#344154"/>
<path d="M86.05 26.2322C85.1699 27.5154 84.0779 28.6243 83.0975 29.8244C81.9262 31.2558 80.7048 32.6431 79.4963 34.0435C79.2196 34.3643 78.909 34.6542 78.613 34.9587C78.1826 35.3104 77.7329 35.8966 77.1974 35.7159C76.7202 35.5547 76.746 34.8203 76.7266 34.3318C76.6765 33.0437 75.8142 32.2344 75.1024 31.3421C74.4439 30.5181 74.3841 30.3032 74.8742 29.3978C75.6702 28.3719 76.5406 27.4128 77.4805 26.5188C77.7086 26.413 77.9675 26.3381 77.9529 26.0075C78.0111 25.9082 78.0678 25.8072 78.126 25.7079C78.3007 25.6558 78.4431 25.5255 78.6308 25.5027C80.9377 25.3969 83.2447 25.4636 85.5517 25.4636C85.7394 25.4636 85.9254 25.4962 86.0985 25.5809C86.4237 25.8203 86.0985 26.0157 86.05 26.2322Z" fill="#344154"/>
<path d="M69.2234 35.5758C70.1973 34.5027 71.1712 33.4313 72.1452 32.3582C72.4315 32.6789 72.273 32.9639 72.0513 33.2179C71.7326 33.5827 71.4608 33.98 71.0904 34.4001C71.4091 34.4685 71.6388 34.1494 71.8798 34.3334C72.1419 34.532 72.0497 34.8251 72.0562 35.0857C72.0675 35.6182 72.3992 36.0448 72.4995 36.5496C72.7874 38.0167 72.6224 39.4497 72.0999 40.824C71.8426 41.5031 71.7504 42.0844 72.273 42.6511C72.1241 43.4115 71.401 43.7551 71.037 44.3658C70.8914 44.6116 70.6455 44.7956 70.4934 45.048C70.0048 45.6196 69.4305 46.113 68.9872 46.7269C68.861 46.779 68.7348 46.9353 68.6022 46.7383C68.1265 45.7889 68.0634 44.7256 67.7819 43.7225C67.6347 43.1266 67.6946 42.5013 67.5053 41.9053C67.3888 41.5438 67.583 41.223 67.8418 40.9641C69.1199 39.6858 69.3739 38.1226 69.0713 36.4193C69.0115 36.0985 69.0859 35.8412 69.2234 35.5758Z" fill="#344154"/>
<path d="M87.4954 38.5233C87.6248 38.5395 87.7591 38.5444 87.819 38.6926C87.3644 39.046 86.8483 38.8717 86.2966 38.8831C86.7674 39.1697 86.9373 39.5459 86.7092 40.0474C86.6525 40.1728 86.6639 40.3047 86.6994 40.4431C86.9648 41.4592 86.4649 42.288 85.4311 42.459C84.928 42.5421 84.5089 42.7244 84.1579 43.0876C83.5302 43.7357 82.7973 43.7796 82.0062 43.4539C81.7587 43.3514 81.529 43.1755 81.2572 43.169C80.3253 43.1462 79.6474 42.814 79.4274 41.8126C79.3708 41.5585 79.1136 41.4543 78.8774 41.381C78.5781 41.2866 78.3484 41.1238 78.248 40.8095C78.151 40.5066 77.9164 40.4073 77.6236 40.3959C77.1916 40.3796 76.9894 40.1337 76.9959 39.7168C77.0023 39.3032 77.2402 39.0785 77.63 38.9971C78.0118 38.9173 78.4179 38.9597 78.9065 38.7415C78.8838 38.748 78.6881 38.6845 78.7625 38.7626C78.7884 38.7903 78.7755 38.8164 78.7188 38.8212C77.7093 38.9141 76.6982 39.0769 75.7032 38.7187C75.666 38.5477 75.734 38.4777 75.9055 38.507C79.7688 38.5119 83.6321 38.5184 87.4954 38.5233Z" fill="#344154"/>
<path d="M93.9628 34.0043C94.1197 34.4358 94.0793 34.7338 93.5859 34.9618C91.8354 35.7695 89.9668 36.087 88.0934 36.398C87.9915 36.4143 87.8297 36.4241 87.7844 36.3671C87.0564 35.4584 86.0339 36.3866 85.2364 35.9453L85.2299 35.9421C85.0746 35.4894 84.696 35.2126 84.3838 34.8934C83.8596 34.356 83.8127 34.0629 84.2867 33.4637C84.6669 32.9833 85.1118 32.5534 85.3836 31.9933C85.7185 31.3777 86.1715 30.8615 86.6875 30.3975C87.1308 30.4968 86.9076 30.7964 86.8606 31.026C86.7765 31.4445 86.5452 31.8174 86.3607 32.3629C88.2536 32.2538 90.0671 32.643 91.8144 31.9102C92.4631 32.0926 92.6912 32.7439 93.1248 33.1592C93.4063 33.4262 93.6797 33.7259 93.9628 34.0043Z" fill="#344154"/>
<path d="M63.0778 57.8208C62.2479 59.6315 61.4212 61.4423 60.5832 63.2498C60.4764 63.481 60.4537 63.8392 60.1415 63.8669C59.7905 63.8962 59.784 63.5184 59.6772 63.2921C58.7615 61.3413 57.854 59.3856 56.9448 57.4316C56.9011 57.3388 56.8849 57.2167 56.6374 57.2427C56.6374 59.2179 56.6406 61.2062 56.6341 63.1944C56.6325 63.525 56.7506 63.989 56.1973 63.9467C55.7007 63.9093 55.8738 63.4582 55.8722 63.1732C55.8576 60.8202 55.856 58.4672 55.8689 56.1143C55.8705 55.8032 55.6893 55.3734 56.2426 55.2822C56.7102 55.2056 56.8995 55.4597 57.0709 55.8488C57.9381 57.8257 58.8295 59.7911 59.7144 61.7598C59.8018 61.9536 59.8406 62.1767 60.0493 62.3086C60.5799 61.9503 60.7239 61.3462 60.9682 60.8154C61.7237 59.1756 62.4582 57.5261 63.1862 55.8749C63.3528 55.4971 63.547 55.1747 64.0129 55.3017C64.44 55.4173 64.3219 55.8277 64.3219 56.1175C64.3268 58.5242 64.3106 60.9293 64.296 63.3361C64.2944 63.5982 64.3462 63.9304 63.9482 63.9435C63.4629 63.9597 63.5842 63.5657 63.5826 63.297C63.5648 61.4846 63.5615 59.6739 63.5534 57.8615C63.3658 57.6466 63.4531 57.386 63.4483 57.1385C63.4629 57.4479 63.3367 57.6694 63.0778 57.8208Z" fill="#344154"/>
<path d="M75.9055 38.5052C75.8344 38.5638 75.7616 38.6241 75.6904 38.6827C75.5755 39.1777 75.2002 39.4969 74.8977 39.8649C74.2538 40.6481 73.5031 41.3369 72.9013 42.1625C72.7298 42.3986 72.5955 42.8122 72.1442 42.7129C70.9065 41.8792 71.9581 40.9836 72.1199 40.1498C72.3771 38.8097 72.6489 37.4777 72.1603 36.1603C71.9516 35.5969 71.7251 35.0758 71.9112 34.4896C71.8109 34.444 71.7527 34.3919 71.7219 34.4066C71.4259 34.5352 71.1363 35.0433 70.8354 34.6948C70.5102 34.3203 71.1508 34.1916 71.256 33.9034C71.4631 33.3319 72.2639 33.1104 72.1474 32.3581C72.7379 31.7084 73.33 31.0587 73.9205 30.4089C74.1551 31.1173 73.6681 31.5846 73.3009 32.0324C72.9385 32.4753 72.9676 32.8401 73.3543 33.1348C74.3816 33.923 74.6598 35.0547 74.8669 36.2336C74.9138 36.4974 74.9591 36.7628 75.0206 37.025C75.1986 37.7871 75.3603 37.8538 75.9622 37.3881C76.1967 37.2058 76.3941 36.9485 76.708 37.2497C76.509 37.7154 76.0431 38.0037 75.9055 38.5052Z" fill="#344154"/>
<path d="M76.7069 37.2529C76.3882 37.1747 76.2038 37.3327 76.076 37.6079C75.8818 38.0264 75.4564 37.9075 75.1506 37.9205C74.8481 37.9335 74.9338 37.559 74.8869 37.3343C74.7397 36.6276 74.5876 35.9209 74.4242 35.2174C74.264 34.527 73.9906 33.9294 73.3775 33.4799C72.6673 32.9605 72.6737 32.5599 73.2222 31.8434C73.549 31.4152 73.803 30.9462 73.9178 30.4105C74.2171 30.0539 74.4582 29.6419 74.8723 29.396C74.6086 30.1858 74.7898 30.7866 75.4288 31.3842C76.6293 32.5062 77.0547 34.0173 77.1324 35.7157C77.6824 35.4096 78.0723 35.0236 78.6111 34.9569C78.116 35.8378 77.3621 36.5038 76.7069 37.2529Z" fill="#344154"/>
<path d="M39.5578 60.7698C39.5578 61.6084 39.5626 62.4454 39.5561 63.284C39.5545 63.582 39.5659 63.8882 39.1371 63.9321C38.8055 63.9663 38.5968 63.9419 38.5013 63.5316C38.3784 62.9974 38.0726 63.3899 37.9254 63.5202C37.4805 63.9158 36.9693 64.1129 36.3933 64.1324C34.8953 64.1878 33.9149 63.2678 33.8599 61.7127C33.8097 60.3106 33.8194 58.9054 33.7952 57.5017C33.7887 57.1711 33.9133 57.0116 34.2595 56.9953C34.6494 56.9774 34.8678 57.0832 34.8726 57.5196C34.8856 58.7881 34.8969 60.0582 34.947 61.3251C34.9972 62.6018 35.5133 63.1554 36.5988 63.1782C37.6552 63.1994 38.3687 62.5154 38.4285 61.3528C38.4916 60.1136 38.5191 58.8712 38.5288 57.6287C38.5321 57.1825 38.6744 57.0099 39.1323 57.0132C39.6112 57.0165 39.5545 57.3258 39.5561 57.6157C39.5594 58.6676 39.5561 59.7179 39.5578 60.7698Z" fill="#344154"/>
<path d="M91.8665 32.0323C91.1271 32.7618 90.2018 32.5094 89.3249 32.5224C88.4028 32.5354 87.4839 32.6657 86.5569 32.6022C86.3935 32.5908 86.2398 32.6396 86.1346 32.4833C86.01 32.296 86.078 32.1332 86.1993 31.9671C86.5407 31.5014 86.7866 31.0031 86.6895 30.3957C87.1344 29.6239 87.8236 29.0507 88.3429 28.3391C88.537 28.0737 88.7862 27.9923 89.0046 28.2642C89.8345 29.3015 90.9136 30.1271 91.5672 31.3125C91.585 31.5861 92.1302 31.6398 91.8665 32.0323Z" fill="#344154"/>
<path d="M30.7066 58.0406C29.7715 57.8061 28.8526 57.9299 27.945 57.8778C27.6409 57.8615 27.2397 57.9527 27.2203 57.4609C27.1992 56.9105 27.6247 56.9854 27.9628 56.9838C29.2813 56.9805 30.5982 56.9838 31.9167 56.9952C32.1189 56.9968 32.3843 56.9366 32.483 57.1841C32.5655 57.3925 32.3374 57.5081 32.2338 57.6563C31.2583 59.0421 30.2827 60.4278 29.3007 61.8103C29.0726 62.1311 28.665 62.4861 28.817 62.828C28.9675 63.1651 29.4949 63.0267 29.867 63.0332C30.5659 63.0462 31.2664 63.0576 31.9669 63.0544C32.271 63.0527 32.5024 63.1114 32.525 63.4729C32.5477 63.8409 32.3034 63.9516 32.0138 63.9532C30.4526 63.9614 28.8898 63.9923 27.3319 63.937C26.6055 63.9109 26.9679 63.4354 27.1653 63.157C28.0081 61.9715 28.8882 60.8121 29.7278 59.625C30.0757 59.1284 30.5012 58.6675 30.7066 58.0406Z" fill="#344154"/>
<path d="M78.9696 58.5521C79.4323 58.1743 79.8335 57.8486 80.3366 57.7216C81.8137 57.3455 82.9251 58.1613 82.9769 59.6952C83.0189 60.9116 82.9995 62.1296 82.9963 63.3477C82.9963 63.5675 83.0869 63.8655 82.7018 63.8915C82.278 63.9208 82.3103 63.6147 82.3087 63.3493C82.3006 62.2941 82.3152 61.2389 82.2974 60.1837C82.2764 58.925 81.7716 58.3127 80.7864 58.303C79.6976 58.2916 78.9599 59.0097 78.9032 60.1935C78.8531 61.2454 78.858 62.3006 78.8353 63.3558C78.8288 63.6228 78.8709 63.9518 78.4713 63.9436C78.0652 63.9355 78.1332 63.5952 78.1332 63.3379C78.1316 60.6853 78.1348 58.0343 78.1429 55.3817C78.1429 55.1293 78.0668 54.7873 78.4956 54.7971C78.9372 54.8085 78.7965 55.17 78.8078 55.4045C78.8563 56.4303 78.7415 57.4611 78.9696 58.5521Z" fill="#344154"/>
<path d="M136.05 58.5665C136.624 57.9836 137.249 57.6319 138.067 57.6644C139.169 57.7084 139.875 58.2979 140.009 59.4198C140.166 60.7388 140.119 62.0659 140.12 63.3898C140.12 63.6536 140.142 63.9744 139.734 63.9613C139.339 63.9483 139.37 63.6389 139.368 63.3686C139.357 62.2874 139.381 61.2045 139.331 60.1249C139.27 58.8206 138.787 58.293 137.77 58.3011C136.688 58.3093 135.977 59.0437 135.947 60.2389C135.921 61.2664 135.942 62.2939 135.94 63.3214C135.94 63.6324 135.937 63.9386 135.489 63.9076C135.047 63.8783 135.173 63.538 135.172 63.3002C135.164 61.7582 135.154 60.2177 135.186 58.6757C135.193 58.3842 134.913 57.9054 135.466 57.8126C135.972 57.7296 135.883 58.2506 136.05 58.5665Z" fill="#344154"/>
<path d="M126.52 58.5584C126.905 58.2979 127.217 58.0341 127.57 57.8582C128.979 57.1531 130.399 57.951 130.564 59.638C130.691 60.9228 130.608 62.2287 130.621 63.5249C130.623 63.7692 130.559 63.9695 130.273 63.9564C129.995 63.9434 129.851 63.7952 129.854 63.4859C129.865 62.4046 129.864 61.3234 129.857 60.2438C129.849 59.0029 129.39 58.3532 128.505 58.3076C127.358 58.249 126.528 58.9785 126.457 60.2079C126.398 61.2045 126.45 62.2076 126.432 63.2058C126.428 63.494 126.591 63.9516 126.081 63.9483C125.606 63.9467 125.696 63.494 125.696 63.1993C125.695 61.6621 125.708 60.1233 125.743 58.5861C125.75 58.3044 125.543 57.8533 126.012 57.78C126.58 57.6921 126.377 58.2425 126.52 58.5584Z" fill="#344154"/>
<path d="M88.4301 58.565C89.0724 57.982 89.7583 57.5684 90.6707 57.6612C91.4942 57.7443 92.0556 58.14 92.274 58.9118C92.7092 60.4474 92.4244 62.0301 92.4827 63.5917C92.494 63.8979 92.2546 63.9027 92.0265 63.8995C91.711 63.8962 91.7078 63.6764 91.7078 63.4517C91.7061 62.3965 91.7061 61.3413 91.7045 60.2878C91.7013 58.9069 91.2693 58.3158 90.255 58.2979C89.15 58.2767 88.3557 59.0877 88.3185 60.3301C88.2877 61.3299 88.3136 62.3314 88.3023 63.3312C88.299 63.5771 88.4091 63.9353 87.9933 63.95C87.5694 63.963 87.5662 63.608 87.5646 63.3133C87.5532 61.7452 87.5435 60.177 87.5549 58.6106C87.5565 58.3158 87.4335 57.8941 87.8914 57.8143C88.4592 57.7133 88.2408 58.2751 88.4301 58.565Z" fill="#344154"/>
<path d="M69.2243 35.5759C69.1079 36.2517 69.4589 36.8705 69.4282 37.5544C69.3667 38.9597 69.0318 40.2038 67.9317 41.1547C67.6907 41.3632 67.5612 41.6465 67.668 41.9526C67.8686 42.5372 67.7667 43.1299 67.7796 43.721C67.3833 42.1122 66.995 40.5001 66.5809 38.8962C66.5161 38.6438 66.5744 38.4728 66.7232 38.31C67.5532 37.3964 68.3896 36.4878 69.2243 35.5759Z" fill="#344154"/>
<path d="M103.575 59.6364C103.575 58.3923 103.565 57.1483 103.583 55.9042C103.586 55.6339 103.549 55.248 104.021 55.2984C104.437 55.344 104.321 55.6892 104.322 55.9319C104.332 58.0422 104.358 60.1526 104.314 62.263C104.298 63.0495 104.559 63.3214 105.333 63.2514C106 63.1928 106.678 63.2465 107.351 63.2595C107.569 63.2644 107.801 63.284 107.815 63.5852C107.833 63.9239 107.569 63.8637 107.367 63.8995C106.243 64.0998 105.115 63.8572 103.989 63.9272C103.604 63.9516 103.596 63.652 103.598 63.3654C103.601 62.1229 103.599 60.8789 103.599 59.6364C103.589 59.638 103.581 59.638 103.575 59.6364Z" fill="#344154"/>
<path d="M76.6019 63.1161C76.7685 63.6649 76.453 63.8033 76.0971 63.9092C75.0035 64.2332 73.9471 64.1827 73.0767 63.3799C72.1626 62.5381 71.9879 61.4129 72.2144 60.2486C72.5897 58.319 74.1121 57.3322 76.0227 57.7181C76.4417 57.8028 76.8316 57.9217 76.6019 58.5632C75.3076 58.1887 74.0215 57.9868 73.2239 59.4914C72.7337 60.4163 72.8049 61.9942 73.4488 62.7156C74.3499 63.7219 75.4516 63.5314 76.6019 63.1161Z" fill="#344154"/>
<path d="M95.7534 46.6389C95.9379 46.6324 96.0382 46.7398 96.0964 46.901C96.0285 46.9141 95.9605 46.9287 95.8926 46.9418C94.5692 46.8196 93.2426 46.919 91.9193 46.888C91.4792 46.1553 90.5619 45.6179 91.0489 44.5187C91.3385 43.8641 91.696 43.7274 92.183 44.2321C92.4984 44.5595 92.8074 44.763 93.2782 44.8004C93.8914 44.8493 94.2149 45.3932 94.6032 45.7872C94.9462 46.139 95.2875 46.4695 95.7534 46.6389Z" fill="#344154"/>
<path d="M86.049 26.2321C86.0975 26.0546 86.146 25.8787 86.1962 25.7012C86.0603 25.4195 86.1056 25.1183 86.1088 24.8235C86.125 22.4168 86.0959 20.0101 86.1266 17.6034C86.0975 16.4961 86.1121 15.3888 86.1202 14.2815C86.125 13.7034 85.9082 13.451 85.3161 13.4543C83.3262 13.464 81.3363 13.4705 79.3464 13.451C78.6734 13.4445 78.5424 13.7979 78.5424 14.3645C78.544 16.3642 78.5634 18.3638 78.5359 20.3634C78.5505 21.759 78.5602 23.1528 78.5473 24.5483C78.544 24.9473 78.5893 25.3609 78.2997 25.6996C78.2463 25.8087 78.1881 25.8185 78.125 25.7061C78.1266 21.7378 78.1396 17.7694 78.1153 13.8027C78.1121 13.2182 78.2302 13.0113 78.8563 13.0195C81.2215 13.0488 83.5851 13.0293 85.9503 12.9999C86.4437 12.9934 86.599 13.1498 86.5974 13.6448C86.5861 17.4519 86.5942 21.259 86.6071 25.0645C86.6087 25.5596 86.5052 25.9732 86.049 26.2321Z" fill="#344154"/>
<path d="M42.4321 57.0394C42.4807 57.0328 42.5292 57.0394 42.5761 57.0556C42.9854 57.4025 42.7298 58.0506 43.254 58.4218C43.4772 58.5798 42.9741 59.096 42.9272 59.4901L42.9304 59.4819C42.6975 60.3726 42.8932 61.2796 42.8253 62.1769C42.7832 62.7289 42.9337 63.2923 42.7347 63.8362C42.5066 63.7613 42.3318 64.1814 42.0827 63.9078C41.8902 63.631 41.8578 63.3184 41.8594 62.9878C41.8659 61.2976 41.8659 59.6073 41.8594 57.9171C41.8578 57.4872 41.8902 57.1012 42.4321 57.0394Z" fill="#344154"/>
<path d="M133.208 60.9342C133.208 61.7712 133.208 62.6065 133.21 63.4419C133.21 63.6959 133.21 63.9597 132.862 63.9532C132.525 63.9483 132.427 63.7415 132.43 63.4158C132.448 61.7174 132.448 60.0174 132.456 58.3174C132.457 58.0715 132.446 57.8175 132.803 57.8028C133.211 57.7849 133.208 58.0601 133.208 58.3434C133.208 59.2081 133.208 60.0711 133.208 60.9342Z" fill="#344154"/>
<path d="M122.582 59.363C122.284 59.9639 122.367 60.6168 122.347 61.2519C122.325 61.9814 122.346 62.7109 122.338 63.4404C122.334 63.6961 122.275 63.9468 121.953 63.955C121.605 63.9631 121.6 63.7026 121.6 63.4469C121.602 61.7176 121.595 59.9883 121.606 58.2573C121.61 57.7265 121.857 57.6532 122.255 57.9675C122.137 58.4853 122.731 58.8354 122.582 59.363Z" fill="#344154"/>
<path d="M91.7066 46.7968C92.8488 46.8001 93.991 46.7984 95.1315 46.8098C95.3887 46.8131 95.667 46.7349 95.8919 46.9434C92.2146 46.9531 88.5374 46.9662 84.8585 46.9694C79.7042 46.9743 74.5483 46.9776 69.3939 46.9564C69.1432 46.9548 68.7452 47.2267 68.5996 46.7382C68.7015 46.7024 68.8018 46.6665 68.9038 46.6307C70.3452 46.4956 71.7834 46.4809 73.2346 46.5233C75.8101 46.5982 78.3905 46.5575 80.9693 46.577C84.1386 46.603 87.3078 46.5493 90.4771 46.5509C90.8961 46.5526 91.3442 46.4712 91.7066 46.7968Z" fill="#344154"/>
<path d="M84.8909 60.7845C84.8909 59.9736 84.8861 59.1627 84.8942 58.3517C84.8974 58.1254 84.8311 57.8388 85.208 57.816C85.5688 57.7948 85.5834 58.0374 85.5834 58.2947C85.5834 60.0241 85.5817 61.7534 85.5801 63.4827C85.5801 63.7139 85.5478 63.9338 85.2598 63.9484C84.9184 63.9663 84.8812 63.727 84.8829 63.4615C84.8845 62.5692 84.8829 61.6768 84.8829 60.7861C84.8861 60.7845 84.8877 60.7845 84.8909 60.7845Z" fill="#344154"/>
<path d="M85.3833 31.9917C85.359 32.5519 84.9998 32.9134 84.6472 33.2879C83.9952 33.9816 84.013 34.2095 84.6375 34.8967C84.906 35.1915 85.3962 35.3869 85.2296 35.9405C84.7313 35.4634 84.2411 34.9765 83.7299 34.5124C83.4969 34.3007 83.5131 34.1314 83.7089 33.9148C84.2783 33.2846 84.7378 32.5567 85.3833 31.9917Z" fill="#344154"/>
<path d="M122.58 59.3629C122.315 58.9347 122.14 58.4852 122.255 57.9658C122.323 58.1644 122.391 58.3615 122.463 58.5764C122.954 58.2296 123.277 57.6189 123.995 57.6645C124.306 57.6841 124.618 57.6824 124.62 58.0928C124.622 58.4983 124.283 58.3517 124.081 58.3517C123.345 58.3501 122.921 58.7865 122.58 59.3629Z" fill="#344154"/>
<path d="M91.8651 32.0324C91.8862 31.7426 91.4672 31.6351 91.5659 31.311C92.6093 32.0161 93.3001 33.0615 94.1155 33.9864C94.0653 33.9913 94.0136 33.9978 93.9634 34.0027C93.072 34.0157 93.0364 33.029 92.4411 32.6789C92.2049 32.5421 92.0544 32.2539 91.8651 32.0324Z" fill="#344154"/>
<path d="M42.4328 57.0393C42.0575 57.3112 41.9313 57.6694 41.9394 58.14C41.9652 59.6935 41.9394 61.247 41.9539 62.8004C41.9571 63.1701 42.038 63.5381 42.0833 63.9061C41.7096 63.8149 41.7857 63.5071 41.7857 63.2499C41.7808 61.387 41.7824 59.5241 41.7808 57.6629C41.7808 57.2249 41.8002 56.8097 42.4328 57.0393Z" fill="#344154"/>
<path d="M43.7068 57.3341C43.8232 57.238 43.9381 57.1436 44.0546 57.0475C44.3005 56.883 44.5755 56.9905 44.8344 56.9612C45.1515 56.927 45.2582 57.1012 45.2679 57.3895C45.276 57.6712 45.132 57.7754 44.8748 57.7656C44.5205 57.7526 44.1808 57.7933 43.8928 58.031H43.8912C43.7326 58.1092 43.5854 58.1011 43.4981 57.9333C43.3622 57.6695 43.5353 57.4986 43.7068 57.3341Z" fill="#344154"/>
<path d="M43.707 57.3339C43.6391 57.6009 43.3592 57.9266 43.8931 58.0324C43.377 58.3874 43.2718 59.0192 42.9272 59.4898C43.3252 58.604 42.7007 57.8663 42.5762 57.0554C43.1731 57.0733 42.8108 57.5912 43.0534 57.8517C43.2767 57.7491 43.3754 57.3713 43.707 57.3339Z" fill="#344154"/>
<path d="M133.389 55.6487C133.303 55.9841 133.109 56.1242 132.798 56.1128C132.463 56.0997 132.303 55.8848 132.319 55.5917C132.337 55.2807 132.573 55.1227 132.879 55.1488C133.185 55.1748 133.337 55.3833 133.389 55.6487Z" fill="#344154"/>
<path d="M85.2425 55.1243C85.5466 55.1715 85.7408 55.3278 85.7343 55.6519C85.7262 55.9889 85.5078 56.1208 85.2037 56.116C84.919 56.1094 84.7572 55.9417 84.7539 55.6584C84.7507 55.3376 84.9465 55.1796 85.2425 55.1243Z" fill="#344154"/>
<path d="M43.8926 58.0326C44.0188 57.6613 44.331 57.6988 44.6271 57.689C44.86 57.6809 45.1545 57.7346 45.1496 57.3617C45.1447 56.9921 44.8503 57.0507 44.6173 57.0426C44.4297 57.0361 44.242 57.0458 44.0527 57.0475C44.9781 56.6681 45.4521 56.8309 45.4554 57.5311C45.457 57.8014 45.3907 58.0603 45.059 57.9447C44.6432 57.8014 44.2808 57.9952 43.8926 58.0326Z" fill="#344154"/>
<path d="M42.7344 63.8345C42.7408 62.6311 42.7408 61.4261 42.757 60.2228C42.7603 59.9687 42.6616 59.6789 42.9301 59.4802C42.9285 60.721 42.9334 61.9619 42.9172 63.2027C42.9123 63.4176 43.0531 63.7026 42.7344 63.8345Z" fill="#344154"/>
<path d="M51.1414 63.5316C50.7823 62.8428 50.1336 63.4078 49.666 63.188C50.0559 63.0154 50.5024 63.0333 50.8842 62.807C51.0363 62.7158 51.3243 62.4992 51.4213 62.7842C51.5022 63.0235 51.6624 63.4502 51.1414 63.5316Z" fill="#344154"/>
<path d="M77.9528 26.0042C78.3411 26.6832 77.8186 26.5138 77.4805 26.5155C77.5614 26.2745 77.749 26.1312 77.9528 26.0042Z" fill="#344154"/>
<path d="M72.1446 42.7145C73.3272 41.3711 74.5082 40.0277 75.6908 38.6843C76.8184 38.6843 77.9444 38.6843 79.1949 38.6843C78.742 39.1061 78.2954 39.181 77.8279 39.1761C77.4137 39.1712 77.1614 39.3015 77.1597 39.7721C77.1597 40.3046 77.4849 40.2085 77.8166 40.1613C78.001 40.1352 78.2938 40.1385 78.3165 40.3192C78.399 41.0031 78.8584 41.1822 79.4182 41.3418C79.6884 41.4184 79.7418 41.7473 79.745 42.029C79.7515 42.5322 80.1058 42.8139 80.4973 42.8448C81.1767 42.8985 81.7721 43.1314 82.3949 43.3675C82.9644 43.5857 83.5517 43.4929 83.9885 42.9572C84.3606 42.5012 84.8152 42.2163 85.4494 42.2521C85.8295 42.2732 86.9264 41.1741 86.7776 41.0455C86.1596 40.5162 86.5074 40.0294 86.6303 39.4692C86.6934 39.1761 86.0835 39.1696 86.001 38.6941C86.619 38.6941 87.2192 38.6941 87.8194 38.6941C89.9646 40.7524 92.1082 42.8122 94.0981 45.0268C93.4914 45.0073 92.9834 44.7516 92.5677 44.3282C92.0403 43.7893 91.3624 43.532 90.7007 43.2291C90.4451 43.1119 90.3222 43.1444 90.2364 43.4359C89.8805 44.6425 88.8403 45.3183 88.0491 46.1764C87.6544 46.6063 87.0219 46.6422 86.4556 46.6356C85.0595 46.6194 83.6649 46.6177 82.2736 46.7285C80.4617 46.8718 78.6999 46.3409 76.8977 46.3458C76.4512 46.3474 76.2117 45.9859 75.927 45.6912C75.1424 44.8786 74.8641 43.7616 74.2057 42.8709C73.8708 42.4165 73.6669 42.314 73.2091 42.7357C72.5361 43.3561 71.8194 43.926 71.2127 44.6197C70.9959 44.8672 70.7436 45.1636 70.3262 45.0089C70.8131 44.1475 71.5848 43.5157 72.1446 42.7145Z" fill="#344154"/>
<path d="M70.3267 45.0088C70.7651 44.8346 71.1129 44.5301 71.3621 44.1474C71.8862 43.3414 72.8229 42.9896 73.3908 42.2129C73.6059 41.9198 73.9942 42.0973 74.2757 42.5093C74.9795 43.5368 75.3192 44.7825 76.1977 45.7025C76.3853 45.8996 76.5261 46.1796 76.8237 46.1471C78.5499 45.9598 80.1726 46.7821 81.8907 46.647C83.0879 46.5525 84.2834 46.4271 85.4838 46.3864C86.0597 46.3669 86.6324 46.5248 87.2197 46.3408C87.451 46.2676 87.6856 46.2301 87.8684 46.064C88.6369 45.3622 89.3698 44.6164 89.9425 43.7501C90.3631 43.1118 90.4521 43.0304 91.2092 43.2274C91.7528 43.3691 92.2009 43.6622 92.5681 44.0465C93.0066 44.5073 93.5275 44.7971 94.0986 45.0267C94.6664 45.5478 95.2974 46.0038 95.7536 46.6405C95.1728 46.8017 94.8913 46.3897 94.558 46.0363C94.0614 45.5071 93.6747 44.8069 92.7299 44.9877C92.3886 45.0528 92.264 44.6017 92.065 44.3542C91.7317 43.9422 91.4276 43.9569 91.2626 44.4878C91.0782 45.0789 90.8468 45.6813 91.6606 46.0591C91.989 46.2106 92.1103 46.5232 91.7075 46.7968C85.3981 46.7984 79.0903 46.8342 72.7825 46.7642C71.7989 46.7528 70.8201 46.857 69.8397 46.8082C69.5178 46.7919 69.1926 46.8228 68.9062 46.6307C69.267 45.9907 69.7993 45.5006 70.3267 45.0088Z" fill="#344154"/>
<path d="M86.3607 17.5839C86.3623 20.0053 86.3639 22.4267 86.3687 24.8481C86.3687 25.1461 86.3704 25.4408 86.1956 25.7014C83.5635 25.6997 80.9313 25.6997 78.3008 25.6981C78.3008 23.915 78.3008 22.1336 78.3008 20.3505C78.6793 20.274 78.8023 20.6046 78.9835 20.8114C79.3087 21.1826 79.6759 21.295 80.1305 21.1028C80.776 20.8293 81.4506 20.6957 82.1414 20.5801C83.2464 20.3945 84.1507 19.7301 85.0826 19.1569C85.3948 18.9648 85.4595 18.587 85.6003 18.2678C85.7491 17.9324 85.864 17.5367 86.3607 17.5839Z" fill="#344154"/>
<path d="M26.2172 63.3753C25.1122 60.4849 23.9943 57.5978 22.8878 54.7075C22.7503 54.3492 22.6111 54.0887 22.15 54.1538C21.7456 54.2108 21.4512 54.3232 21.3056 54.7579C21.0419 55.5477 20.7361 56.3244 20.4384 57.1028C19.67 59.1155 18.8934 61.1232 18.1331 63.1392C18.0441 63.3753 17.871 63.683 18.1606 63.8719C18.4081 64.0331 18.7478 64.0608 18.9889 63.8459C19.1361 63.714 19.2073 63.4811 19.2768 63.2808C19.9725 61.2519 19.9709 61.2519 22.1355 61.2486C22.5124 61.2486 22.8926 61.2877 23.2631 61.2405C24.0089 61.146 24.4069 61.4554 24.5848 62.1817C24.7062 62.6751 24.91 63.1522 25.109 63.6228C25.329 64.1439 25.7755 63.9794 26.1509 63.8915C26.5197 63.8035 26.2803 63.5381 26.2172 63.3753ZM23.1968 60.2276C22.4461 60.2309 21.6971 60.2293 20.9464 60.226C20.6665 60.2244 20.4352 60.1316 20.5549 59.7961C21.0289 58.4674 21.524 57.1468 22.0093 55.8229C22.0756 55.8261 22.142 55.8294 22.2099 55.8343C22.6775 57.1142 23.1466 58.3925 23.6158 59.6724C23.763 60.0778 23.5689 60.226 23.1968 60.2276Z" fill="#344154"/>
<path d="M50.8706 57.4074C50.0585 56.7332 49.0732 56.6779 48.1187 56.997C46.5915 57.5083 45.9881 58.7736 45.8943 60.2521C45.8117 61.5451 46.0334 62.8641 47.2629 63.5968C48.5199 64.3475 49.8627 64.3573 51.1424 63.5317C51.3058 63.0497 50.9483 63.0432 50.6765 63.0839C50.34 63.1344 49.9938 63.0692 49.667 63.1881C48.1462 63.1409 47.436 62.7142 47.1432 61.6509C46.9895 61.0908 47.0413 60.7081 47.7919 60.7325C48.9487 60.77 50.107 60.7374 51.2654 60.726C51.5517 60.7227 51.8979 60.783 51.9238 60.3336C51.9853 59.2084 51.775 58.1581 50.8706 57.4074ZM50.1895 59.8011C49.7624 59.7897 49.3353 59.7995 48.9082 59.7995C48.5879 59.7995 48.2676 59.8027 47.9472 59.7995C47.0413 59.7913 46.9345 59.5845 47.4037 58.7703C47.8178 58.0522 48.4488 57.6793 49.256 57.7624C50.0374 57.8438 50.5648 58.2883 50.746 59.1123C50.8609 59.6285 50.6829 59.8141 50.1895 59.8011Z" fill="#344154"/>
<path d="M146.723 57.8404C146.257 57.7167 146.263 58.1661 146.069 58.4429C144.692 56.935 142.306 57.7183 141.746 59.4492C141.436 60.4116 141.366 61.4049 141.693 62.3917C142.033 63.4143 142.85 64.0038 143.924 64.0526C144.817 64.0934 145.568 63.7905 146.212 63.0691C146.359 65.9416 145.124 66.7199 142.026 65.8357C141.879 66.1418 141.894 66.3861 142.225 66.5782C144.254 67.749 146.886 66.3405 146.948 64.0136C146.996 62.2061 146.972 60.3953 146.956 58.5878C146.956 58.3338 147.148 57.9528 146.723 57.8404ZM146.249 60.791C146.246 62.5822 145.539 63.4567 144.133 63.4274C143.738 63.4192 143.405 63.2955 143.096 63.0512C141.829 62.0514 142.028 59.2685 143.45 58.526C144.71 57.8681 146.423 58.5553 146.249 60.791Z" fill="#344154"/>
<path d="M111.499 57.6272C110.261 57.689 109.333 58.4023 108.924 59.6007C108.445 61.0028 108.826 62.7875 109.771 63.5691C110.478 64.152 112.234 64.2237 113.157 63.7287C113.47 63.5609 113.593 63.3509 113.449 62.9226C113.172 63.0431 112.931 63.1571 112.682 63.2548C111.226 63.8231 109.949 63.232 109.553 61.8153C109.398 61.2617 109.482 60.9507 110.171 60.9718C111.243 61.006 112.318 60.967 113.392 60.9442C113.609 60.9393 113.869 61.0386 113.963 60.6722C114.332 59.2409 112.976 57.5523 111.499 57.6272ZM112.551 60.327C112.151 60.2928 111.745 60.3205 111.342 60.3205C111.342 60.3221 111.342 60.3221 111.342 60.3237C110.993 60.3237 110.643 60.3303 110.294 60.3221C109.545 60.3058 109.469 60.1772 109.77 59.4558C110.109 58.6416 110.787 58.2378 111.703 58.3225C112.473 58.3941 112.892 58.8647 113.088 59.5861C113.22 60.0681 113.167 60.3791 112.551 60.327Z" fill="#344154"/>
<path d="M70.6962 63.2842C70.7092 62.1753 70.6995 61.068 70.7027 59.9591C70.7043 59.0814 70.57 58.2444 69.6641 57.8552C68.7112 57.4465 67.7615 57.65 66.8653 58.093C66.5304 58.2591 66.566 58.5636 66.7083 58.8974C67.0222 58.7378 67.3183 58.5538 67.637 58.43C68.7872 57.9855 69.7967 58.4414 69.9116 59.4299C69.9617 59.8663 69.8873 60.13 69.3583 60.1854C68.6141 60.2636 67.8651 60.3694 67.1549 60.6332C66.3929 60.9149 65.9431 61.7079 66.0354 62.5856C66.113 63.3347 66.6517 63.8802 67.4558 64.0186C68.1789 64.144 68.8455 64.0365 69.4246 63.5447C69.5719 63.4194 69.8194 63.1735 69.876 63.5431C69.9439 63.9877 70.2157 63.9111 70.4552 63.8753C70.8095 63.8248 70.693 63.5024 70.6962 63.2842ZM67.8586 63.4259C67.3086 63.3721 66.9413 63.0855 66.8491 62.5514C66.752 61.9929 66.8459 61.4816 67.4525 61.2031C68.1272 60.8921 68.8552 60.8644 69.5686 60.7977C70.1106 60.7472 69.8663 61.239 69.9342 61.4767C69.9084 62.742 69.0364 63.5415 67.8586 63.4259Z" fill="#344154"/>
<path d="M119.728 63.2189C119.768 61.952 119.872 60.6786 119.695 59.4166C119.527 58.2133 119.055 57.8143 117.859 57.645C117.149 57.544 116.544 57.8094 115.931 58.0781C115.589 58.2279 115.575 58.5096 115.72 58.8614C116.088 58.6985 116.439 58.5048 116.812 58.3843C117.927 58.0244 118.77 58.4364 118.972 59.4052C119.063 59.8417 119.003 60.1234 118.461 60.1738C117.822 60.2325 117.184 60.3464 116.558 60.4897C115.497 60.734 114.96 61.5645 115.106 62.6685C115.222 63.5625 115.893 64.0412 116.974 64.0608C117.765 64.0754 118.344 63.683 118.899 63.1065C119.082 63.4599 118.886 63.9549 119.396 63.924C119.841 63.8996 119.719 63.4729 119.728 63.2189ZM118.938 61.8983C118.72 62.8574 118.05 63.4176 117.103 63.4127C116.445 63.4534 115.974 63.1668 115.856 62.465C115.74 61.7762 116.066 61.3137 116.723 61.1232C117.133 61.0043 117.56 60.9392 117.982 60.8724C119.03 60.7047 119.174 60.8659 118.938 61.8983Z" fill="#344154"/>
<path d="M96.8659 57.6726C95.5781 57.6287 94.643 58.2393 94.1626 59.4362C93.6238 60.7779 93.9377 62.6261 94.8453 63.455C95.5587 64.1063 97.3593 64.2659 98.2799 63.7464C98.5371 63.6015 98.8817 63.3931 98.6989 63.0739C98.4918 62.7108 98.2621 63.1537 98.0323 63.1977C97.9029 63.2221 97.7832 63.3019 97.6554 63.3394C96.1395 63.7823 94.8485 62.999 94.7272 61.584C94.69 61.1525 94.7709 60.9147 95.2708 60.9424C95.8337 60.9733 96.4016 60.9489 96.9662 60.9489C96.9662 60.9473 96.9662 60.9456 96.9662 60.944C97.5308 60.944 98.0971 60.9473 98.6617 60.9424C98.8687 60.9408 99.0629 60.975 99.1292 60.6509C99.4204 59.2619 98.2637 57.7199 96.8659 57.6726ZM97.6942 60.3269C97.293 60.291 96.8869 60.3204 96.4841 60.3204C96.188 60.3204 95.892 60.3236 95.5959 60.3204C94.6754 60.309 94.5605 60.0989 95.0265 59.2766C95.4439 58.5405 96.0764 58.2165 96.9144 58.3126C97.6522 58.3973 98.0453 58.8581 98.2507 59.5404C98.4044 60.0614 98.3591 60.3871 97.6942 60.3269Z" fill="#344154"/>
<path d="M86.3618 17.584C86.111 17.7126 85.9282 17.9096 85.8409 18.1734C85.2342 20.0054 83.584 20.3538 82.0504 20.8033C81.5246 20.958 80.9551 20.9889 80.4326 21.2087C79.4393 21.6256 79.2726 21.5702 78.6255 20.6909C78.5333 20.5655 78.4103 20.4629 78.3019 20.3489C78.2987 18.2174 78.3133 16.0875 78.2777 13.956C78.268 13.3421 78.4686 13.176 79.0623 13.1841C81.2625 13.2151 83.4643 13.2167 85.6645 13.1857C86.2518 13.1776 86.3925 13.4007 86.378 13.9413C86.344 15.1561 86.3634 16.3708 86.3618 17.584Z" fill="#344154"/>
</g>
<defs>
<clipPath id="clip0">
<rect x="18" y="13" width="129" height="54" fill="white"/>
</clipPath>
</defs>
</svg>
