<svg width="165" height="80" viewBox="0 0 165 80" fill="none" xmlns="http://www.w3.org/2000/svg">
<mask id="mask0" mask-type="alpha" maskUnits="userSpaceOnUse" x="15" y="27" width="136" height="23">
<path d="M26.4264 42.8086C26.4574 42.4713 26.7043 42.196 27.0424 42.196H30.1237C30.4626 42.196 30.7403 42.4713 30.7403 42.8086C30.7403 46.9087 27.6586 49.8159 23.4071 49.8159C19.1555 49.8159 16.5056 46.7264 16.0745 43.0535C15.7668 40.4824 15.7668 37.0548 16.0745 34.4845C16.5056 30.8123 19.1555 27.7212 23.4071 27.7212C27.6586 27.7212 30.7403 30.6276 30.7403 34.7293C30.7403 35.065 30.4626 35.3416 30.1237 35.3416H27.0424C26.7043 35.3416 26.4574 35.065 26.4264 34.7293C26.3032 33.1377 25.1635 32.0369 23.4071 32.0369C21.5282 32.0369 20.5725 33.1377 20.4183 34.4845C20.1108 37.0548 20.1108 40.4824 20.4183 43.0535C20.5725 44.3997 21.5282 45.5022 23.4071 45.5022C25.1635 45.5022 26.3032 44.3997 26.4264 42.8086ZM41.0241 36.3204C41.0241 36.5039 41.1474 36.6269 41.3323 36.6269H46.0159C46.2002 36.6269 46.3234 36.5039 46.3234 36.3204V28.6697C46.3234 28.3327 46.6009 28.0572 46.9401 28.0572H50.021C50.3595 28.0572 50.6369 28.3327 50.6369 28.6697V48.8681C50.6369 49.2041 50.3595 49.4798 50.021 49.4798H46.9401C46.6009 49.4798 46.3234 49.2041 46.3234 48.8681V41.2166C46.3234 41.0339 46.2002 40.9122 46.0159 40.9122H41.3323C41.1474 40.9122 41.0241 41.0339 41.0241 41.2166V48.8681C41.0241 49.2041 40.5935 49.4798 40.2546 49.4798H37.3274C36.9881 49.4798 36.7115 49.2041 36.7115 48.8681V28.6697C36.7115 28.3327 36.9881 28.0572 37.3274 28.0572H40.4081C40.7475 28.0572 41.0241 28.3327 41.0241 28.6697V36.3204ZM60.3363 49.0211C60.2744 49.2971 60.0279 49.4798 59.7508 49.4798H56.5157C56.0232 49.4798 55.8378 49.1441 55.8991 48.8681L61.4147 28.5169C61.4765 28.2419 61.7229 28.0572 61.9999 28.0572H66.1285C66.4056 28.0572 66.6517 28.2419 66.7138 28.5169L72.198 48.8681C72.2601 49.1441 72.0747 49.4798 71.5822 49.4798H68.3469C68.0696 49.4798 67.8542 49.2971 67.7615 49.0211L66.8061 45.8684C66.7443 45.624 66.621 45.4108 66.3441 45.4108H61.661C61.3837 45.4108 61.2604 45.5931 61.1982 45.8684L60.3363 49.0211ZM62.3695 40.7891C62.3079 41.0339 62.4316 41.125 62.6163 41.125H65.4507C65.6356 41.125 65.7587 41.0339 65.6966 40.7891L64.2179 33.4438C64.1874 33.3527 64.1563 33.3211 64.0641 33.3211H64.0023C63.9103 33.3211 63.8794 33.3527 63.8479 33.4438L62.3695 40.7891ZM82.3898 40.9122C82.2052 40.9122 82.0821 41.0339 82.0821 41.2166V48.8681C82.0821 49.2041 81.805 49.4798 81.4661 49.4798H78.3848C78.046 49.4798 77.7685 49.2041 77.7685 48.8681V28.6697C77.7685 28.3327 78.046 28.0572 78.3848 28.0572H85.1624C88.7061 28.0572 91.6333 30.9648 91.6333 34.4845C91.6333 36.8411 90.6174 38.4324 88.4288 39.901C87.998 40.2064 88.0279 40.4515 88.2437 40.9122L91.5413 48.5621C91.757 49.0211 91.5708 49.4798 90.9546 49.4798H87.783C87.2897 49.4798 87.0417 49.2361 86.8896 48.8681L83.7467 41.3092C83.6843 41.1556 83.5292 40.9122 83.1914 40.9122H82.3898ZM82.3898 32.3419C82.2052 32.3419 82.0821 32.464 82.0821 32.6471V36.3204C82.0821 36.5039 82.2052 36.6269 82.3898 36.6269H85.1624C86.3331 36.6269 87.3196 35.6777 87.3196 34.4845C87.3196 33.3211 86.3331 32.3419 85.1624 32.3419H82.3898ZM97.2843 32.3419C96.9451 32.3419 96.6677 32.0668 96.6677 31.7296V28.6697C96.6677 28.3327 96.9451 28.0572 97.2843 28.0572H110.533C110.871 28.0572 111.148 28.3327 111.148 28.6697V31.7296C111.148 32.0668 110.871 32.3419 110.533 32.3419H106.374C106.188 32.3419 106.065 32.464 106.065 32.6471V48.8681C106.065 49.2041 105.787 49.4798 105.449 49.4798H102.368C102.028 49.4798 101.752 49.2041 101.752 48.8681V32.6471C101.752 32.464 101.627 32.3419 101.444 32.3419H97.2843ZM121.266 32.4947C121.266 32.3114 121.145 32.1897 120.96 32.1897H117.879C117.539 32.1897 117.262 31.9137 117.262 31.5772V28.6697C117.262 28.3327 117.539 28.0572 117.879 28.0572H128.969C129.309 28.0572 129.586 28.3327 129.586 28.6697V31.5772C129.586 31.9137 129.309 32.1897 128.969 32.1897H125.89C125.705 32.1897 125.58 32.3114 125.58 32.4947V45.0416C125.58 45.2262 125.705 45.3485 125.89 45.3485H129.278C129.617 45.3485 129.894 45.624 129.894 45.9614V48.8681C129.894 49.2041 129.617 49.4798 129.278 49.4798H117.57C117.23 49.4798 116.954 49.2041 116.954 48.8681V45.9614C116.954 45.624 117.23 45.3485 117.57 45.3485H120.96C121.145 45.3485 121.266 45.2262 121.266 45.0416V32.4947ZM150.241 34.4845C150.55 37.0548 150.55 40.4824 150.241 43.0535C149.811 46.7264 147.162 49.8159 142.908 49.8159C138.658 49.8159 136.007 46.7264 135.577 43.0535C135.266 40.4824 135.266 37.0548 135.577 34.4845C136.007 30.8123 138.658 27.7212 142.908 27.7212C147.162 27.7212 149.811 30.8123 150.241 34.4845ZM139.92 34.4845C139.613 37.0548 139.613 40.4824 139.92 43.0535C140.074 44.3997 141.03 45.5022 142.908 45.5022C144.789 45.5022 145.742 44.3997 145.897 43.0535C146.205 40.4824 146.205 37.0548 145.897 34.4845C145.742 33.1377 144.789 32.0369 142.908 32.0369C141.03 32.0369 140.074 33.1377 139.92 34.4845Z" fill="white"/>
</mask>
<g mask="url(#mask0)">
<path d="M151.432 26.7688H14.8848V50.7685H151.432V26.7688Z" fill="#344154"/>
</g>
</svg>
