<svg width="165" height="80" viewBox="0 0 165 80" fill="none" xmlns="http://www.w3.org/2000/svg">
<path d="M20.1972 49.5899C18.8934 49.5899 17.7082 48.5216 17.7082 47.2158C17.7082 45.9101 18.7749 44.8417 20.1972 44.8417C21.6194 44.8417 22.6861 45.9101 22.6861 47.2158C22.6861 48.5216 21.5009 49.5899 20.1972 49.5899ZM50.7754 36.6511C50.5383 34.7518 49.3531 33.2086 47.8124 32.0216L47.2198 31.5468L46.7457 32.1403C45.7975 33.2086 45.442 35.1079 45.5605 36.5324C45.679 37.6007 46.0346 38.6691 46.6272 39.5C46.1531 39.7374 45.5605 39.9748 45.0864 40.2122C44.0197 40.5683 42.953 40.687 41.8864 40.687H11.1896L11.0711 41.3993C10.8341 43.6547 11.1896 46.0288 12.1378 48.1655L12.6119 48.9964V49.1151C15.4564 53.8633 20.5527 56 26.1232 56C36.79 56 45.5605 51.3705 49.7087 41.3993C52.4347 41.518 55.1606 40.8058 56.4644 38.1942L56.8199 37.6007L56.2273 37.2446C54.6866 36.295 52.5532 36.1763 50.7754 36.6511ZM35.4863 34.7518H30.864V39.3813H35.4863V34.7518ZM35.4863 28.9353H30.864V33.5647H35.4863V28.9353ZM35.4863 23H30.864V27.6295H35.4863V23ZM41.1752 34.7518H36.553V39.3813H41.1752V34.7518ZM23.9898 34.7518H19.3675V39.3813H23.9898V34.7518ZM29.7973 34.7518H25.175V39.3813H29.7973V34.7518ZM18.3008 34.7518H13.6786V39.3813H18.3008V34.7518ZM29.7973 28.9353H25.175V33.5647H29.7973V28.9353ZM23.9898 28.9353H19.3675V33.5647H23.9898V28.9353Z" fill="#344154"/>
<path d="M130.65 46.7411C132.665 44.9605 134.68 43.2986 136.695 41.5181C137.406 40.9245 138.117 40.331 138.828 39.6188C138.235 38.9065 137.406 38.4317 136.576 38.0756C135.035 37.4821 133.494 37.7195 131.954 38.5504C130.057 39.6188 129.228 41.3994 129.346 43.536C129.346 44.367 129.583 45.1979 130.057 45.9101C130.413 46.2663 130.531 46.5037 130.65 46.7411ZM133.02 48.403C133.969 48.7591 135.154 48.7591 136.22 48.5217C136.695 48.2842 138.117 47.6907 138.591 47.8094H138.828C139.183 47.9281 139.42 48.1655 139.539 48.5217C139.895 49.2339 139.776 49.9461 139.065 50.3022L138.828 50.4209C136.22 51.9641 133.494 51.7267 130.887 50.3022C129.702 49.59 128.754 48.6404 128.043 47.4533L127.924 47.2159C126.265 44.367 126.502 41.2806 128.398 38.5504C128.991 37.6008 129.939 36.8886 130.887 36.295L131.243 36.0576C133.731 34.6332 136.339 34.7519 138.828 35.9389C140.132 36.6511 141.317 37.6008 142.028 38.9065L142.146 39.144C142.739 40.0936 142.028 40.9245 141.198 41.5181L138.709 43.6547C136.576 45.3166 134.798 46.8598 133.02 48.403ZM152.339 35.3454H152.576C153.406 35.3454 153.998 35.9389 153.998 36.7699C153.998 37.9569 152.932 38.1943 151.984 38.1943C150.798 38.1943 149.613 38.9065 148.784 39.7375C147.717 40.8058 147.243 42.1116 147.243 43.536V50.1835C147.243 50.8958 146.769 51.608 145.939 51.608H145.702C144.872 51.608 144.398 51.0145 144.398 50.1835V43.1799C144.398 40.4497 145.702 38.313 147.835 36.7699C149.376 35.8202 150.798 35.3454 152.339 35.3454ZM118.442 39.9749L121.642 36.7699C121.998 36.5324 123.065 35.2267 123.539 35.2267H124.013C124.605 35.3454 125.08 35.7015 125.08 36.4137V36.6511C125.08 37.126 124.487 37.6008 124.25 37.9569C123.657 38.6691 122.946 39.2627 122.354 39.9749L119.035 43.2986L123.302 47.572L124.487 48.7591L124.961 49.2339C125.08 49.4713 125.198 49.59 125.198 49.8274V50.1835C125.08 50.7771 124.605 51.2519 124.013 51.2519H123.776C123.302 51.2519 122.828 50.7771 122.472 50.4209C121.879 49.8274 121.168 49.2339 120.576 48.5217L118.442 46.5037V49.8274C118.442 50.5396 117.968 51.2519 117.139 51.2519H116.902C116.072 51.2519 115.598 50.6583 115.598 49.8274V31.5468C115.598 30.8346 116.072 30.2411 116.902 30.2411H117.139C117.968 30.2411 118.442 30.8346 118.442 31.5468V39.9749ZM109.672 38.1943C109.316 37.9569 108.487 37.9569 108.013 37.9569C105.761 37.8382 104.101 39.144 103.153 41.1619C102.798 41.8742 102.679 42.5864 102.679 43.4173C102.679 45.7914 103.864 47.4533 105.998 48.403C106.709 48.7591 107.776 48.8778 108.605 48.8778C109.316 48.8778 110.383 48.403 110.976 48.1655H111.568C112.161 48.2842 112.635 48.6404 112.635 49.3526V49.59C112.635 51.2519 109.553 51.608 108.487 51.7267C104.457 51.9641 101.375 49.7087 100.19 45.9101C99.9532 45.1979 99.9533 44.6044 99.9533 43.8922V43.2986C99.9533 40.331 101.375 37.9569 103.983 36.5324C105.168 35.8202 106.472 35.4641 107.894 35.4641H108.487C109.909 35.4641 111.331 35.8202 112.516 36.6511L112.635 36.7699L112.753 36.8886C112.872 37.126 112.99 37.3634 112.99 37.6008V37.8382C112.99 38.5504 112.516 38.9065 111.805 39.0252H111.687C110.857 38.7878 109.909 38.313 109.672 38.1943ZM84.7827 43.2986C84.7827 45.3166 85.8493 46.8598 87.5086 47.9281C88.3383 48.403 89.2864 48.6404 90.2346 48.6404C92.2494 48.6404 93.7902 47.572 94.8569 45.9101C95.331 45.0792 95.568 44.1296 95.568 43.1799C95.568 41.2806 94.6198 39.7375 93.0791 38.6691C92.2494 38.0756 91.1828 37.8382 90.2346 37.8382C87.9827 37.8382 86.3234 39.0252 85.3753 41.0432C84.7827 41.8742 84.7827 42.5864 84.7827 43.2986ZM89.7605 35.2267H90.1161C93.3161 35.2267 95.6865 36.7699 97.2273 39.5001C97.8199 40.5684 98.1754 41.7555 98.1754 43.0612V43.6547C98.1754 46.6224 96.7532 48.9965 94.1458 50.4209C92.9606 51.1332 91.6568 51.4893 90.2346 51.4893H89.642C86.679 51.4893 84.3086 50.0648 82.8863 47.4533C82.1752 46.2663 81.8197 44.9605 81.8197 43.536V42.9425C81.8197 39.9749 83.2419 37.6008 85.8493 36.1763C87.1531 35.5828 88.3383 35.2267 89.7605 35.2267ZM66.7676 43.2986C66.7676 45.4353 67.8343 47.0972 69.7306 48.0468C70.4417 48.403 71.2714 48.6404 72.2195 48.6404C74.3529 48.6404 75.8937 47.6907 76.9603 45.9101C77.4344 45.0792 77.6715 44.1296 77.6715 43.1799C77.6715 41.2806 76.8418 39.8562 75.3011 38.7878C74.3529 38.1943 73.4047 37.8382 72.2195 37.8382C69.9676 37.8382 68.3084 39.0252 67.3602 41.0432C67.0046 41.8742 66.7676 42.5864 66.7676 43.2986ZM77.6715 37.2447V31.4281C77.6715 30.7159 78.1455 30.0037 78.9752 30.0037H79.2122C80.0419 30.0037 80.5159 30.5972 80.5159 31.4281V43.6547C80.5159 46.6224 79.0937 48.9965 76.4863 50.4209C75.3011 51.1332 73.9973 51.4893 72.5751 51.4893H71.9825C69.0195 51.4893 66.6491 50.0648 65.2268 47.4533C64.5157 46.2663 64.1602 44.9605 64.1602 43.536V42.9425C64.1602 39.9749 65.5824 37.6008 68.1898 36.1763C69.375 35.4641 70.6788 35.108 72.101 35.108H72.6936C74.4714 35.2267 76.2492 35.9389 77.6715 37.2447Z" fill="#344154"/>
</svg>
