<svg width="165" height="80" viewBox="0 0 165 80" fill="none" xmlns="http://www.w3.org/2000/svg">
<path d="M78.288 64.7506H78.0449V64.615H78.6996V64.7506H78.458V65.4274H78.288V64.7506ZM79.5938 64.786H79.59L79.3489 65.4276H79.2387L78.9993 64.786H78.9964V65.4276H78.8361V64.6152H79.0719L79.2939 65.1905L79.5152 64.6152H79.7501V65.4276H79.5937L79.5938 64.786Z" fill="#344154"/>
<path d="M56.5183 48.1384C56.5183 48.1384 54.8263 49.1194 57.7224 49.4514C61.2309 49.8504 63.0241 49.7932 66.8905 49.0636C66.8905 49.0636 67.907 49.6991 69.3267 50.2495C60.6592 53.9531 49.7104 50.035 56.5183 48.1384ZM55.4591 43.3054C55.4591 43.3054 53.5614 44.7059 56.4597 45.0048C60.2076 45.3903 63.1674 45.4218 68.289 44.4386C68.289 44.4386 68.9975 45.1546 70.1114 45.5462C59.6318 48.6014 47.9595 45.7871 55.4591 43.3054Z" fill="#344154"/>
<path d="M64.3866 35.1072C66.5223 37.5587 63.8256 39.7648 63.8256 39.7648C63.8256 39.7648 69.2482 36.9738 66.7578 33.4788C64.4318 30.2193 62.6481 28.6 72.3045 23.0164C72.3046 23.0162 57.1471 26.7905 64.3866 35.1072Z" fill="#344154"/>
<path d="M75.8498 51.7131C75.8498 51.7131 77.1019 52.7418 74.4709 53.5374C69.4679 55.0484 53.6479 55.5047 49.2531 53.5977C47.6733 52.9124 50.6359 51.9615 51.5678 51.762C52.5397 51.5518 53.0951 51.591 53.0951 51.591C51.3382 50.357 41.7393 54.0138 48.2193 55.0612C65.8913 57.9185 80.4338 53.7745 75.8498 51.7131ZM57.3304 38.2978C57.3304 38.2978 49.2833 40.2034 54.4807 40.8954C56.6752 41.1883 61.0499 41.122 65.1247 40.7816C68.4549 40.5016 71.799 39.9062 71.799 39.9062C71.799 39.9062 70.6247 40.4076 69.7752 40.9858C61.6035 43.1286 45.8174 42.1317 50.362 39.94C54.2054 38.0877 57.3304 38.2978 57.3304 38.2978ZM71.7658 46.3425C80.0727 42.0389 76.232 37.903 73.5511 38.4603C72.8941 38.5967 72.6011 38.7148 72.6011 38.7148C72.6011 38.7148 72.8451 38.3339 73.3108 38.169C78.6143 36.31 82.693 43.6517 71.5988 46.5596C71.5988 46.5596 71.7275 46.4451 71.7658 46.3425Z" fill="#344154"/>
<path d="M66.7581 14C66.7581 14 71.3586 18.5881 62.3948 25.6436C55.2067 31.3032 60.7557 34.5302 62.3918 38.2172C58.1961 34.4428 55.1169 31.1204 57.1827 28.0281C60.2146 23.4889 68.6143 21.2881 66.7581 14Z" fill="#344154"/>
<path d="M58.1465 58.0045C66.12 58.5134 78.3643 57.7221 78.6542 53.9607C78.6542 53.9607 78.0969 55.3866 72.0645 56.5191C65.259 57.7959 56.8651 57.6469 51.8867 56.8286C51.887 56.8284 52.906 57.6694 58.1465 58.0045Z" fill="#344154"/>
<path d="M98.9933 40.6969C98.2411 41.3474 97.4467 41.7125 96.7337 41.7125C95.7161 41.7125 95.1664 41.1042 95.1664 40.1284C95.1664 39.073 95.7555 38.3013 98.1187 38.3013H98.9932L98.9933 40.6969ZM101.069 43.0317V35.8046C101.069 33.9582 100.013 32.7401 97.4662 32.7401C95.9796 32.7401 94.6774 33.1061 93.619 33.5729L93.9245 34.8521C94.7579 34.5472 95.8366 34.2633 96.8953 34.2633C98.3622 34.2633 98.9933 34.8521 98.9933 36.0695V36.9831H98.2611C94.6971 36.9831 93.0894 38.3624 93.0894 40.4327C93.0894 42.2195 94.1489 43.2351 96.1437 43.2351C97.426 43.2351 98.3832 42.7072 99.278 41.9348L99.4404 43.0319L101.069 43.0317ZM107.996 43.0317H105.407L102.292 32.9231H104.552L106.485 39.1338L106.915 41.0016C107.893 38.301 108.585 35.5611 108.931 32.9231H111.13C110.541 36.2517 109.48 39.9053 107.996 43.0317ZM117.926 40.6969C117.172 41.3474 116.377 41.7125 115.664 41.7125C114.648 41.7125 114.097 41.1042 114.097 40.1284C114.097 39.073 114.687 38.3013 117.05 38.3013H117.926V40.6969ZM120.001 43.0317V35.8046C120.001 33.9582 118.943 32.7401 116.399 32.7401C114.912 32.7401 113.609 33.1061 112.551 33.5729L112.856 34.8521C113.69 34.5472 114.77 34.2633 115.828 34.2633C117.294 34.2633 117.926 34.8521 117.926 36.0695V36.9831H117.193C113.628 36.9831 112.021 38.3624 112.021 40.4327C112.021 42.2195 113.079 43.2351 115.074 43.2351C116.357 43.2351 117.314 42.7072 118.21 41.9348L118.373 43.0319L120.001 43.0317ZM90.8136 44.7482C90.222 45.6095 89.2663 46.2909 88.2201 46.6764L87.1953 45.4741C87.9917 45.0667 88.6746 44.4087 88.9919 43.796C89.2664 43.251 89.38 42.5485 89.38 40.8686V29.3281H91.5852V40.7105C91.585 42.9562 91.405 43.8635 90.8136 44.7482Z" fill="#344154"/>
</svg>
