<svg width="165" height="80" viewBox="0 0 165 80" fill="none" xmlns="http://www.w3.org/2000/svg">
<path d="M82.2818 13.0815C81.9622 13.1026 81.6426 13.1872 81.3443 13.3139L68.6885 19.3145C68.028 19.6314 67.538 20.223 67.3888 20.9203L64.2569 34.4004C64.1077 35.0342 64.2355 35.6892 64.5764 36.2175C64.6191 36.2808 64.6617 36.3442 64.7043 36.4076L73.4611 47.2044C73.9298 47.7749 74.6116 48.0918 75.3573 48.0918H89.4193C90.165 48.0918 90.8468 47.7537 91.3155 47.2044L100.072 36.4076C100.541 35.8371 100.711 35.0976 100.541 34.4004L97.409 20.9203C97.2386 20.223 96.7699 19.6103 96.1094 19.3145L83.4536 13.3139C83.0914 13.1238 82.6866 13.0604 82.2818 13.0815Z" fill="#344154"/>
<path d="M82.4094 17.6665C81.9833 17.6665 81.6424 18.0468 81.6424 18.5117V18.5328C81.6424 18.5962 81.6424 18.6807 81.6424 18.7229C81.6424 18.9976 81.7063 19.1878 81.7489 19.4413C81.8128 19.9695 81.8555 20.3921 81.8341 20.8147C81.7915 20.9626 81.685 21.1105 81.5785 21.195L81.5572 21.4908C81.1097 21.5331 80.641 21.5964 80.1936 21.7021C78.2334 22.1458 76.5289 23.16 75.2506 24.5122C75.1654 24.4488 75.0162 24.3432 74.9736 24.3221C74.8458 24.3432 74.6966 24.3854 74.5262 24.2798C74.1853 24.0474 73.887 23.7304 73.5035 23.3713C73.333 23.1811 73.2052 23.0121 73.0134 22.843C72.9708 22.8008 72.9069 22.7585 72.843 22.7163C72.6939 22.5895 72.5021 22.5261 72.3104 22.5261C72.076 22.5261 71.8629 22.6106 71.7138 22.8008C71.4581 23.1177 71.5433 23.6248 71.9055 23.8995C71.9055 23.8995 71.9055 23.8995 71.9268 23.8995C71.9695 23.9417 72.0334 23.984 72.076 24.0262C72.289 24.1741 72.4808 24.2587 72.6939 24.3854C73.1413 24.6601 73.5248 24.8925 73.8231 25.1672C73.9296 25.294 73.9509 25.5053 73.9722 25.6109L74.2066 25.8222C72.9069 27.766 72.3104 30.1536 72.6512 32.6045L72.3317 32.689C72.2464 32.7947 72.1399 32.9637 72.0121 33.006C71.6286 33.1327 71.1811 33.175 70.6485 33.2172C70.3928 33.2384 70.1797 33.2172 69.9241 33.2806C69.8602 33.3018 69.7749 33.3018 69.711 33.3229C69.711 33.3229 69.711 33.3229 69.6897 33.3229C69.2423 33.4285 68.9653 33.83 69.0505 34.2314C69.1357 34.6329 69.5832 34.8864 70.0306 34.7808C70.0306 34.7808 70.0306 34.7808 70.0519 34.7808C70.0519 34.7808 70.0519 34.7808 70.0732 34.7808C70.1371 34.7596 70.2224 34.7596 70.265 34.7385C70.5206 34.6751 70.7124 34.5695 70.9468 34.485C71.4581 34.3159 71.8629 34.168 72.2677 34.1046C72.4382 34.0835 72.6086 34.2103 72.6939 34.2526L73.0348 34.1892C73.8018 36.5344 75.3784 38.4149 77.4025 39.5981L77.2747 39.9362C77.3173 40.0629 77.3812 40.232 77.3386 40.3587C77.1894 40.7391 76.9338 41.1405 76.6568 41.5842C76.5076 41.7955 76.3798 41.9434 76.252 42.1758C76.2307 42.2392 76.1881 42.3237 76.1454 42.3871C75.9537 42.8097 76.1028 43.2745 76.465 43.4647C76.8485 43.6548 77.3173 43.4647 77.509 43.0421C77.5303 42.9787 77.5729 42.9153 77.5942 42.8519C77.7008 42.5984 77.7434 42.4082 77.8073 42.1547C77.9991 41.6476 78.1269 41.1405 78.4039 40.8025C78.4891 40.7179 78.5956 40.6757 78.7235 40.6546L78.8939 40.3376C80.6623 41.0137 82.6225 41.1828 84.5826 40.7391C85.0301 40.6334 85.4562 40.5066 85.8823 40.3587C85.9249 40.4433 86.0101 40.6123 86.0527 40.6546C86.1806 40.6968 86.3297 40.7179 86.4363 40.887C86.6493 41.2461 86.7771 41.6476 86.9476 42.1547C87.0328 42.3871 87.0541 42.5984 87.1607 42.8519C87.182 42.9153 87.2246 42.9787 87.2459 43.0421C87.4376 43.4647 87.9064 43.6548 88.2899 43.4647C88.6734 43.2956 88.8012 42.8097 88.6095 42.3871C88.5882 42.3237 88.5456 42.2392 88.5029 42.1758C88.3751 41.9434 88.226 41.7744 88.0981 41.5842C87.8211 41.1405 87.5655 40.7602 87.4163 40.401C87.3524 40.2108 87.4163 40.0841 87.4802 39.9573C87.4589 39.915 87.395 39.746 87.3524 39.6615C89.4404 38.436 90.9958 36.4711 91.7202 34.2103C91.8267 34.2314 91.9971 34.2525 92.0397 34.2737C92.1463 34.1892 92.2528 34.1046 92.4659 34.1258C92.8707 34.1892 93.2755 34.3371 93.7868 34.5061C94.0212 34.5906 94.213 34.6962 94.4686 34.7596C94.5326 34.7808 94.5965 34.7808 94.6604 34.8019C94.6604 34.8019 94.6604 34.8019 94.6817 34.8019C94.6817 34.8019 94.6817 34.8019 94.703 34.8019C95.1504 34.9075 95.5978 34.654 95.6831 34.2526C95.7683 33.8511 95.4913 33.4496 95.0439 33.344C94.98 33.3229 94.8948 33.3018 94.8308 33.3018C94.5752 33.2595 94.3621 33.2595 94.1064 33.2384C93.5738 33.175 93.1477 33.1327 92.7428 33.0271C92.5937 32.9637 92.4659 32.7735 92.4233 32.7101L92.125 32.6256C92.2741 31.4847 92.2315 30.3015 91.9758 29.1183C91.6988 27.9139 91.2088 26.8364 90.5483 25.8644C90.6335 25.8011 90.7827 25.6532 90.8253 25.632C90.8466 25.5052 90.8253 25.3573 90.9744 25.2094C91.2727 24.9348 91.6562 24.7024 92.1037 24.4277C92.3167 24.3009 92.5085 24.2164 92.7428 24.0685C92.7855 24.0262 92.8494 23.984 92.9133 23.9417C93.2755 23.6459 93.3607 23.16 93.105 22.843C92.8494 22.5261 92.338 22.4838 91.9758 22.7796C91.9332 22.8219 91.848 22.8642 91.8054 22.9064C91.5923 23.0755 91.4858 23.2445 91.3153 23.4346C90.9318 23.815 90.6335 24.1319 90.2926 24.3432C90.1435 24.4277 89.9304 24.4066 89.8239 24.3854L89.5256 24.5967C87.8851 22.8853 85.6479 21.7866 83.2403 21.5753C83.2403 21.4697 83.219 21.3006 83.219 21.2373C83.1125 21.1527 83.006 21.0682 82.9634 20.8569C82.9208 20.4555 82.9847 20.0118 83.0486 19.4836C83.0912 19.23 83.1338 19.0399 83.1551 18.7652C83.1551 18.7018 83.1551 18.6173 83.1551 18.5539C83.1551 18.0257 82.8142 17.6665 82.4094 17.6665ZM81.4506 23.498L81.2163 27.4491H81.195C81.1737 27.8083 80.8967 28.083 80.5345 28.083C80.3853 28.083 80.2575 28.0407 80.151 27.9562L76.8912 25.6743C77.8925 24.7024 79.1709 23.984 80.641 23.6459C80.918 23.5614 81.1737 23.5192 81.4506 23.498ZM83.3469 23.498C85.0727 23.7093 86.6706 24.4911 87.8851 25.6743L84.6465 27.9562H84.6252C84.3483 28.1675 83.9221 28.1041 83.7091 27.8294C83.6239 27.7238 83.5599 27.5759 83.5599 27.4491L83.3469 23.498ZM75.698 27.1322L78.6809 29.7733V29.7944C78.9578 30.0268 78.9791 30.4282 78.7661 30.7029C78.6809 30.8086 78.553 30.8931 78.4252 30.9353V30.9565L74.6114 32.0552C74.3983 30.2592 74.8245 28.5478 75.698 27.1322ZM89.0782 27.1322C89.5256 27.8505 89.8452 28.6323 90.0583 29.4986C90.25 30.3437 90.314 31.1889 90.2287 32.0129L86.3936 30.9142V30.8931C86.0527 30.8086 85.8397 30.4494 85.9249 30.1113C85.9675 29.9634 86.0314 29.8578 86.138 29.7521L89.0782 27.1322ZM81.7915 29.9845H83.006L83.773 30.9142L83.496 32.0763L82.4094 32.6045L81.3015 32.0763L81.0245 30.9142L81.7915 29.9845ZM85.6905 33.1961C85.7332 33.1961 85.7971 33.1961 85.8397 33.2172L89.7813 33.8722C89.206 35.478 88.0981 36.8725 86.628 37.8022L85.094 34.1258C84.9448 33.8088 85.094 33.4285 85.4136 33.2595C85.5201 33.2172 85.6053 33.1961 85.6905 33.1961ZM79.0644 33.1961C79.3626 33.1961 79.6396 33.4074 79.7035 33.7032C79.7462 33.8511 79.7249 33.9779 79.6609 34.1046L79.6822 34.1258L78.1695 37.7599C76.742 36.8514 75.6341 35.4991 75.0162 33.8511L78.9365 33.1961C78.9791 33.2172 79.0218 33.1961 79.0644 33.1961ZM82.3668 34.8019C82.4733 34.8019 82.5799 34.823 82.6864 34.8653C82.8142 34.9287 82.9208 35.0343 82.9847 35.1399H83.006L84.9448 38.6051C84.6892 38.6896 84.4335 38.753 84.1778 38.8163C82.7077 39.1544 81.2376 39.0488 79.8953 38.6051L81.8128 35.1611C81.9194 34.9287 82.1537 34.8019 82.3668 34.8019Z" fill="white" stroke="white" stroke-width="0.25"/>
<path d="M51.4987 62.7737C51.6691 62.5835 51.8609 62.3722 52.0526 62.1609C52.2444 61.9497 52.4362 61.7384 52.6279 61.5482C52.7984 61.3369 52.9688 61.1468 53.1393 60.9566C53.3097 60.7665 53.4375 60.5974 53.5654 60.4706H55.7386C55.3125 60.9566 54.8864 61.4426 54.4602 61.9074C54.0554 62.3511 53.608 62.8159 53.118 63.3019C53.3736 63.5132 53.608 63.7879 53.885 64.1048C54.1406 64.4006 54.3963 64.7175 54.652 65.0344C54.9077 65.3514 55.1207 65.6895 55.3338 66.0064C55.5468 66.3233 55.7173 66.6191 55.8451 66.8938H53.7358C53.608 66.6825 53.4588 66.4501 53.2884 66.1965C53.118 65.943 52.9475 65.6894 52.7557 65.4359C52.564 65.1824 52.3722 64.9288 52.1592 64.6964C51.9461 64.464 51.7544 64.2527 51.5413 64.1048V66.9149H49.709V57.7028L51.5413 57.407V62.7737" fill="#344154"/>
<path d="M62.174 66.6613C61.8544 66.7458 61.4709 66.8303 60.9595 66.9148C60.4695 66.9994 59.9581 67.0416 59.4042 67.0416C58.8502 67.0416 58.4028 66.9782 58.0193 66.8303C57.6571 66.6824 57.3801 66.4712 57.1671 66.2176C56.954 65.9429 56.8049 65.626 56.7196 65.2668C56.6344 64.9076 56.5918 64.5062 56.5918 64.0625V60.4917H58.4241V63.8512C58.4241 64.4428 58.5093 64.8654 58.6585 65.1189C58.8076 65.3724 59.1059 65.4992 59.532 65.4992C59.6599 65.4992 59.809 65.4992 59.9581 65.4781C60.1073 65.457 60.2351 65.4358 60.3417 65.4358V60.4917H62.174V66.6613Z" fill="#344154"/>
<path d="M68.0531 63.6188C68.0531 62.4567 67.627 61.8651 66.7534 61.8651C66.5617 61.8651 66.3699 61.8863 66.1782 61.9285C66.0077 61.9708 65.8586 62.0342 65.7308 62.1187V65.4148C65.816 65.4359 65.9438 65.457 66.0717 65.457C66.2208 65.457 66.3699 65.4782 66.5191 65.4782C67.0091 65.4782 67.3926 65.3091 67.6483 64.9711C67.9253 64.633 68.0531 64.1893 68.0531 63.6188ZM69.9281 63.6611C69.9281 64.1682 69.8428 64.633 69.6937 65.0556C69.5445 65.4782 69.3315 65.8162 69.0332 66.112C68.7349 66.4078 68.394 66.6402 67.9679 66.7881C67.5418 66.936 67.073 67.0205 66.5404 67.0205C66.3273 67.0205 66.093 66.9994 65.8373 66.9783C65.6029 66.9572 65.3686 66.936 65.1342 66.9149C64.8998 66.8726 64.6868 66.8515 64.4737 66.8093C64.2606 66.767 64.0689 66.7036 63.8984 66.6614V57.7028L65.7308 57.407V60.5974C65.9438 60.5129 66.1569 60.4284 66.3699 60.3861C66.583 60.3439 66.8387 60.3228 67.073 60.3228C67.5418 60.3228 67.9466 60.4073 68.2875 60.5763C68.6497 60.7242 68.9267 60.9566 69.1823 61.2524C69.4167 61.5482 69.6085 61.9074 69.715 62.3089C69.8641 62.7103 69.9281 63.1751 69.9281 63.6611Z" fill="#344154"/>
<path d="M71.0371 63.7244C71.0371 63.1539 71.1223 62.6679 71.2928 62.2453C71.4632 61.8228 71.6976 61.4636 71.9959 61.1678C72.2729 60.8931 72.6138 60.6607 72.976 60.5128C73.3595 60.3649 73.743 60.3015 74.1265 60.3015C75.0426 60.3015 75.767 60.5762 76.2997 61.1467C76.8323 61.696 77.1093 62.52 77.1093 63.5976C77.1093 63.7032 77.1093 63.83 77.088 63.9568C77.088 64.0835 77.0667 64.1892 77.0667 64.2948H72.912C72.9547 64.6751 73.1251 64.971 73.4447 65.1822C73.7643 65.3935 74.1691 65.5203 74.7017 65.5203C75.0426 65.5203 75.3622 65.4992 75.6818 65.4358C76.0014 65.3724 76.2784 65.2879 76.4914 65.2034L76.7471 66.6824C76.6406 66.7246 76.5128 66.788 76.3636 66.8303C76.1932 66.8725 76.0227 66.9148 75.8097 66.9571C75.6179 66.9993 75.4048 67.0205 75.1705 67.0627C74.9361 67.0838 74.7017 67.105 74.4887 67.105C73.9134 67.105 73.4021 67.0205 72.9547 66.8514C72.5285 66.6824 72.1663 66.45 71.8893 66.1542C71.6124 65.8584 71.3993 65.4992 71.2715 65.0977C71.101 64.6329 71.0371 64.1892 71.0371 63.7244ZM75.3409 63.0271C75.3409 62.8792 75.2983 62.7313 75.2557 62.5834C75.2131 62.4355 75.1492 62.3087 75.0426 62.2031C74.9574 62.0975 74.8296 61.9918 74.6804 61.9284C74.5313 61.865 74.3608 61.8228 74.1478 61.8228C73.9347 61.8228 73.7643 61.865 73.6151 61.9284C73.466 61.9918 73.3382 62.0763 73.2529 62.2031C73.1464 62.3087 73.0825 62.4566 73.0186 62.6045C72.976 62.7524 72.9333 62.9003 72.912 63.0482H75.3409" fill="#344154"/>
<path d="M82.4146 62.0765C82.2442 62.0343 82.0524 61.992 81.8394 61.9498C81.6263 61.9075 81.3706 61.8864 81.1363 61.8864C81.0297 61.8864 80.8806 61.9075 80.7101 61.9286C80.561 61.9498 80.4332 61.9709 80.3479 61.992V66.8939H78.5156V60.83C78.8352 60.7243 79.2187 60.6187 79.6661 60.513C80.1136 60.4074 80.6249 60.344 81.1576 60.344C81.2641 60.344 81.3706 60.344 81.5198 60.3651C81.6689 60.3651 81.7968 60.3863 81.9459 60.4074C82.095 60.4285 82.2229 60.4496 82.372 60.4708C82.5212 60.4919 82.6277 60.5341 82.7342 60.5764L82.4146 62.0765Z" fill="#344154"/>
<path d="M83.7148 60.6818C84.0344 60.5973 84.4179 60.5128 84.9293 60.4283C85.4193 60.3438 85.9307 60.3015 86.4846 60.3015C87.0386 60.3015 87.486 60.3649 87.8482 60.5128C88.2104 60.6607 88.5087 60.8508 88.7217 61.1044C88.9348 61.3579 89.0839 61.6749 89.1692 62.0341C89.2544 62.3932 89.297 62.7947 89.297 63.2384V66.8514H87.4647V63.4497C87.4647 62.8581 87.3795 62.4566 87.2303 62.2031C87.0812 61.9496 86.7829 61.8439 86.3568 61.8439C86.2289 61.8439 86.0798 61.8439 85.9307 61.865C85.7815 61.865 85.6537 61.8862 85.5472 61.9073V66.8514H83.7148V60.6818Z" fill="#344154"/>
<path d="M90.6582 63.7244C90.6582 63.1539 90.7434 62.6679 90.9139 62.2453C91.0843 61.8228 91.3187 61.4636 91.617 61.1678C91.894 60.8931 92.2349 60.6607 92.5971 60.5128C92.9806 60.3649 93.3641 60.3015 93.7476 60.3015C94.6637 60.3015 95.3881 60.5762 95.9208 61.1467C96.4535 61.696 96.7304 62.52 96.7304 63.5976C96.7304 63.7032 96.7304 63.83 96.7091 63.9568C96.7091 64.0835 96.6878 64.1892 96.6878 64.2948H92.5331C92.5757 64.6751 92.7462 64.971 93.0658 65.1822C93.3854 65.3935 93.7902 65.5203 94.3228 65.5203C94.6637 65.5203 94.9833 65.4992 95.3029 65.4358C95.6225 65.3724 95.8995 65.2879 96.1126 65.2034L96.3682 66.6824C96.2617 66.7246 96.1339 66.788 95.9847 66.8303C95.8143 66.8725 95.6438 66.9148 95.4308 66.9571C95.239 66.9993 95.0259 67.0205 94.7916 67.0627C94.5572 67.0838 94.3228 67.105 94.1098 67.105C93.5345 67.105 93.0232 67.0205 92.5757 66.8514C92.1496 66.6824 91.7874 66.45 91.5104 66.1542C91.2335 65.8584 91.0204 65.4992 90.8926 65.0977C90.7221 64.6329 90.6582 64.1892 90.6582 63.7244ZM94.962 63.0271C94.962 62.8792 94.9194 62.7313 94.8768 62.5834C94.8342 62.4355 94.7703 62.3087 94.6637 62.2031C94.5785 62.0975 94.4507 61.9918 94.3015 61.9284C94.1524 61.865 93.9819 61.8228 93.7689 61.8228C93.5558 61.8228 93.3854 61.865 93.2362 61.9284C93.0871 61.9918 92.9593 62.0763 92.874 62.2031C92.7675 62.3087 92.7036 62.4566 92.6397 62.6045C92.5971 62.7524 92.5544 62.9003 92.5331 63.0482H94.962" fill="#344154"/>
<path d="M98.074 58.8647L99.9064 58.5688V60.4493H102.101V61.9706H99.9064V64.2314C99.9064 64.6117 99.9703 64.9286 100.098 65.1399C100.247 65.3723 100.503 65.478 100.929 65.478C101.121 65.478 101.334 65.4568 101.526 65.4357C101.739 65.3934 101.93 65.3512 102.101 65.2667L102.357 66.6823C102.143 66.7668 101.888 66.8513 101.611 66.9147C101.334 66.9781 101.014 67.0203 100.609 67.0203C100.119 67.0203 99.6933 66.9569 99.3737 66.8302C99.0541 66.6823 98.7771 66.5133 98.5854 66.2597C98.3936 66.0062 98.2445 65.7315 98.1593 65.3723C98.0953 65.0343 98.0527 64.6539 98.0527 64.2314V58.8647" fill="#344154"/>
<path d="M103.037 63.7244C103.037 63.1539 103.122 62.6679 103.293 62.2453C103.463 61.8228 103.698 61.4636 103.996 61.1678C104.273 60.8931 104.614 60.6607 104.976 60.5128C105.359 60.3649 105.743 60.3015 106.126 60.3015C107.043 60.3015 107.767 60.5762 108.3 61.1467C108.832 61.696 109.109 62.52 109.109 63.5976C109.109 63.7032 109.109 63.83 109.088 63.9568C109.088 64.0835 109.067 64.1892 109.067 64.2948H104.912C104.955 64.6751 105.125 64.971 105.445 65.1822C105.764 65.3935 106.169 65.5203 106.702 65.5203C107.043 65.5203 107.362 65.4992 107.682 65.4358C108.001 65.3724 108.278 65.2879 108.491 65.2034L108.747 66.6824C108.641 66.7246 108.513 66.788 108.364 66.8303C108.193 66.8725 108.023 66.9148 107.81 66.9571C107.618 66.9993 107.405 67.0205 107.17 67.0627C106.936 67.0838 106.702 67.105 106.489 67.105C105.913 67.105 105.402 67.0205 104.955 66.8514C104.529 66.6824 104.166 66.45 103.889 66.1542C103.612 65.8584 103.399 65.4992 103.271 65.0977C103.101 64.6329 103.037 64.1892 103.037 63.7244ZM107.341 63.0271C107.341 62.8792 107.298 62.7313 107.256 62.5834C107.213 62.4355 107.149 62.3087 107.043 62.2031C106.957 62.0975 106.83 61.9918 106.68 61.9284C106.531 61.865 106.361 61.8228 106.148 61.8228C105.935 61.8228 105.764 61.865 105.615 61.9284C105.466 61.9918 105.338 62.0763 105.253 62.2031C105.146 62.3087 105.082 62.4566 105.019 62.6045C104.976 62.7524 104.933 62.9003 104.912 63.0482H107.341" fill="#344154"/>
<path d="M112.391 65.5627C112.732 65.5627 112.967 65.5205 113.095 65.4571C113.244 65.3937 113.308 65.2669 113.308 65.0768C113.308 64.9289 113.222 64.8021 113.031 64.6964C112.86 64.5908 112.583 64.464 112.2 64.3161C111.923 64.2105 111.646 64.1048 111.411 63.9781C111.177 63.8724 110.985 63.7245 110.815 63.5766C110.644 63.4076 110.516 63.2174 110.431 63.0061C110.346 62.7949 110.303 62.5202 110.303 62.2033C110.303 61.6117 110.538 61.1257 110.985 60.7665C111.433 60.4073 112.051 60.2383 112.839 60.2383C113.222 60.2383 113.606 60.2805 113.968 60.3439C114.33 60.4073 114.607 60.4918 114.82 60.5552L114.501 61.9708C114.288 61.9074 114.053 61.8229 113.798 61.7807C113.542 61.7173 113.265 61.6962 112.967 61.6962C112.391 61.6962 112.114 61.8652 112.114 62.1821C112.114 62.2455 112.136 62.33 112.157 62.3723C112.178 62.4357 112.221 62.4779 112.306 62.5413C112.37 62.5836 112.477 62.6469 112.604 62.7103C112.732 62.7737 112.903 62.8371 113.095 62.9005C113.499 63.0484 113.819 63.1963 114.096 63.3442C114.352 63.4921 114.565 63.64 114.714 63.809C114.863 63.9781 114.969 64.1471 115.033 64.3584C115.097 64.5697 115.14 64.8021 115.14 65.0556C115.14 65.6895 114.906 66.1755 114.415 66.4924C113.947 66.8093 113.265 66.9784 112.391 66.9784C111.816 66.9784 111.347 66.9361 110.943 66.8304C110.559 66.7248 110.303 66.6614 110.154 66.5769L110.453 65.0979C110.772 65.2247 111.092 65.3092 111.411 65.3937C111.752 65.5416 112.072 65.5627 112.391 65.5627Z" fill="#344154"/>
</svg>
