<svg width="165" height="80" viewBox="0 0 165 80" fill="none" xmlns="http://www.w3.org/2000/svg">
<g clip-path="url(#clip0)">
<path d="M115.539 63.4467C115.539 64.1606 115.019 64.6398 114.404 64.6398V64.6354C113.771 64.6398 113.26 64.1606 113.26 63.4469C113.26 62.7333 113.771 62.2555 114.404 62.2555C115.02 62.2553 115.539 62.7331 115.539 63.4467ZM116 63.4467C116 62.4667 115.245 61.898 114.404 61.898C113.557 61.898 112.802 62.4667 112.802 63.4467C112.802 64.4259 113.557 64.9969 114.404 64.9969C115.245 64.9969 116 64.4259 116 63.4467ZM114.139 63.5777H114.31L114.706 64.2788H115.141L114.702 63.5482C114.929 63.5319 115.115 63.4232 115.115 63.1155C115.115 62.7331 114.854 62.6104 114.411 62.6104H113.77V64.2788H114.139L114.139 63.5777ZM114.139 63.2952V62.8937H114.395C114.535 62.8937 114.724 62.905 114.724 63.0764C114.724 63.2627 114.626 63.2952 114.462 63.2952H114.139ZM105.251 54.9116L107.241 60.4005H103.199L105.251 54.9116ZM103.119 52.7743L98.5329 64.4897H101.771L102.497 62.4194H107.924L108.611 64.4897H112.127L107.506 52.7728L103.119 52.7743ZM93.9114 64.494H97.1972V52.7707L93.9109 52.7699L93.9114 64.494ZM71.1014 52.7699L68.36 62.0616L65.734 52.7707L62.1888 52.7699L65.9393 64.494H70.6728L74.4536 52.7699H71.1014ZM84.3827 55.3228H85.795C87.8436 55.3228 89.1688 56.2501 89.1688 58.6566C89.1688 61.0635 87.8436 61.991 85.795 61.991H84.3827V55.3228ZM81.1246 52.7699V64.494H86.4512C89.2892 64.494 90.2161 64.0184 91.2182 62.9516C91.9259 62.2024 92.3838 60.5582 92.3838 58.7611C92.3838 57.1127 91.9964 55.6431 91.3209 54.7276C90.104 53.0903 88.3508 52.7699 85.7342 52.7699H81.1246ZM50 52.7537V64.494H53.3135V55.5795L55.881 55.5803C56.7311 55.5803 57.3371 55.794 57.7464 56.2348C58.2657 56.7923 58.4777 57.6924 58.4777 59.3389V64.494H61.6885V58.0074C61.6885 53.3779 58.7616 52.7537 55.8979 52.7537H50ZM75.8364 52.7699L75.8378 64.494H79.122V52.7699H75.8364Z" fill="#344154"/>
<path d="M58.8301 29.4264C58.8301 29.4264 63.0561 23.1403 71.494 22.4899V20.2093C62.148 20.9661 54.0547 28.9465 54.0547 28.9465C54.0547 28.9465 58.6386 42.3059 71.494 43.5294V41.1053C62.0601 39.9087 58.8301 29.4264 58.8301 29.4264ZM71.494 36.2843V38.5045C64.3641 37.2228 62.385 29.7507 62.385 29.7507C62.385 29.7507 65.8083 25.9273 71.494 25.3073V27.7433C71.4897 27.7433 71.4867 27.742 71.4831 27.742C68.499 27.3809 66.1678 30.1915 66.1678 30.1915C66.1678 30.1915 67.4744 34.9227 71.494 36.2843ZM71.494 16.0029V20.2093C71.7684 20.1881 72.0427 20.1701 72.3186 20.1607C82.944 19.7996 89.8672 28.9465 89.8672 28.9465C89.8672 28.9465 81.9157 38.6944 73.6316 38.6944C72.8724 38.6944 72.1616 38.6234 71.494 38.5041V41.1053C72.0845 41.1817 72.6791 41.2204 73.2744 41.2211C80.9833 41.2211 86.5582 37.2519 91.9563 32.5542C92.8513 33.2769 96.5155 35.0349 97.2687 35.8044C92.136 40.1369 80.1741 43.6291 73.3925 43.6291C72.7388 43.6291 72.1111 43.5892 71.494 43.5292V47.1843H100.795V16.0029H71.494ZM71.494 25.3071V22.4901C71.7655 22.471 72.0392 22.4562 72.3186 22.4473C79.9593 22.2054 84.9721 29.0671 84.9721 29.0671C84.9721 29.0671 79.5578 36.648 73.7525 36.648C72.9171 36.648 72.168 36.5126 71.4938 36.2841V27.7431C74.4684 28.1055 75.067 29.4302 76.8554 32.4357L80.8329 29.0546C80.8329 29.0546 77.9295 25.2156 73.0352 25.2156C72.503 25.2154 71.9939 25.2531 71.494 25.3071Z" fill="#344154"/>
</g>
<defs>
<clipPath id="clip0">
<rect x="50" y="16" width="66" height="49" fill="white"/>
</clipPath>
</defs>
</svg>
