<svg width="165" height="80" viewBox="0 0 165 80" fill="none" xmlns="http://www.w3.org/2000/svg">
<g clip-path="url(#clip0)">
<path d="M82.8522 41.9792C83.1499 41.9792 83.5964 41.9792 83.8942 41.9792C84.6384 41.9792 85.085 42.1294 85.2339 42.8807C85.2339 43.3315 85.6804 43.632 86.127 43.9326C87.4667 44.6839 88.8064 44.6839 90.2949 44.2331C90.8903 44.0828 91.3369 43.632 91.3369 42.8807C91.3369 42.1294 90.7415 41.9792 90.2949 41.6787C88.9552 41.0776 87.4667 41.0776 86.127 40.6269C85.6804 40.4766 85.2339 40.3263 84.7873 40.1761C82.5545 39.4248 81.5125 38.0725 81.3636 36.1191C81.3636 33.5647 82.4056 31.7616 84.4896 31.0103C87.0201 30.1087 89.6995 30.1087 92.23 31.1605C94.0163 31.9118 94.9094 33.2642 95.2071 35.0673C95.356 35.8186 95.2071 35.9688 94.4629 35.9688C93.8674 35.9688 93.4209 35.9688 92.8255 35.9688C91.9323 35.9688 91.1881 35.9688 90.7415 34.7668C90.2949 33.4144 87.0201 33.2642 85.9781 34.316C85.3827 34.917 85.5316 35.6683 86.2758 36.1191C87.169 36.7201 88.3598 36.7201 89.4018 37.0206C90.7415 37.3212 92.0812 37.6217 93.272 38.2227C96.398 39.7253 96.8445 43.9326 94.1652 46.1864C91.9323 47.9896 89.4018 47.9896 86.8713 47.689C85.5316 47.5388 84.1919 47.088 83.1499 46.3367C81.959 45.5854 81.3636 44.3833 81.0659 43.031C80.9171 42.2797 81.0659 41.8289 81.959 41.9792C81.959 41.9792 82.4056 41.9792 82.8522 41.9792Z" fill="#344154"/>
<path d="M48.4656 32.8134C50.1031 30.4092 52.4847 29.9585 55.0153 30.5595C57.3969 31.1605 58.8855 32.9637 58.8855 35.5181C58.8855 39.1243 58.8855 42.8807 58.8855 46.487C58.8855 47.088 58.7366 47.3885 57.9924 47.3885C57.0992 47.3885 56.2061 47.3885 55.313 47.3885C54.5687 47.3885 54.5687 47.088 54.5687 46.487C54.5687 43.7823 54.5687 40.9274 54.5687 38.2227C54.5687 37.9222 54.5687 37.6217 54.5687 37.3212C54.4198 35.0673 53.6756 34.1657 51.8893 34.0155C49.8053 34.0155 48.4656 35.3678 48.4656 37.4714C48.4656 40.1761 48.4656 43.031 48.4656 45.8859C48.4656 47.5388 48.6145 47.3885 46.9771 47.3885C46.2328 47.3885 45.4885 47.3885 44.7443 47.3885C44.1489 47.3885 44 47.088 44 46.6372C44 41.6787 44 36.5699 44 31.6113C44 31.0103 44.2977 30.7098 44.7443 30.86C45.4885 30.86 46.2328 30.86 46.9771 30.86C48.0191 30.7098 48.3168 31.0103 48.1679 31.9118C48.1679 32.2124 48.1679 32.5129 48.4656 32.8134Z" fill="#344154"/>
<path d="M122.001 36.2694C122.001 39.5751 122.001 42.8808 122.001 46.1865C122.001 47.2383 121.703 47.3886 120.81 47.3886C120.066 47.3886 119.321 47.3886 118.577 47.3886C117.684 47.5389 117.535 47.0881 117.535 46.3368C117.535 39.5751 117.535 32.9637 117.535 26.2021C117.535 25.3005 117.684 25 118.577 25C119.321 25 120.066 25 120.81 25C121.554 25 121.852 25.1503 121.852 26.0518C122.001 29.5078 122.001 32.8135 122.001 36.2694Z" fill="#344154"/>
<path d="M113.663 32.8135C113.663 30.8602 113.663 30.8602 111.728 30.8602C110.984 30.8602 110.24 30.5597 109.644 31.0104C109.049 31.311 109.644 32.2125 109.347 32.9638C108.602 32.0622 107.858 31.1607 106.816 30.8602C104.137 29.8084 100.862 30.8602 99.3734 33.4146C97.4383 36.57 97.1406 40.026 98.4803 43.4819C99.5223 46.6374 101.904 47.9897 105.179 47.9897C106.816 47.9897 108.156 47.2384 109.347 45.7358C109.347 47.5389 109.347 49.1918 109.347 50.6944C109.347 51.7462 108.9 53.0985 109.496 53.6996C110.24 54.4508 111.58 53.8498 112.622 54.0001C113.515 54.1503 113.663 53.6996 113.663 52.798C113.663 46.0363 113.663 39.4249 113.663 32.8135ZM109.496 38.9742C109.496 40.1762 109.347 41.0778 109.049 41.8291C108.454 43.3317 107.263 44.083 105.923 44.083C104.286 44.083 103.244 43.3317 102.797 41.6788C102.202 40.1762 102.351 38.5234 102.648 37.0208C103.095 35.0674 104.286 34.0156 106.072 34.1659C107.709 34.1659 109.049 35.3679 109.496 37.3213C109.347 37.9223 109.496 38.5234 109.496 38.9742Z" fill="#344154"/>
<path d="M70.1992 30.4094C65.1381 30.4094 61.8633 33.8654 61.8633 39.1244C61.8633 44.3835 65.1381 47.6892 70.1992 47.6892C75.2602 47.6892 78.535 44.2333 78.535 38.9742C78.6839 33.7151 75.2602 30.4094 70.1992 30.4094ZM73.9205 40.7773C73.474 42.8809 72.2831 44.083 70.1992 44.083C68.264 44.083 66.9244 43.0312 66.4778 41.0778C66.0312 39.425 66.0312 37.9224 66.7755 36.2695C67.3709 34.7669 68.5618 34.0156 70.1992 34.0156C71.8366 34.0156 73.0274 34.7669 73.6228 36.2695C73.9205 37.1711 74.0694 38.0726 74.0694 39.1244C74.0694 39.7255 74.0694 40.1763 73.9205 40.7773Z" fill="#344154"/>
</g>
<defs>
<clipPath id="clip0">
<rect x="44" y="25" width="78" height="29" fill="white"/>
</clipPath>
</defs>
</svg>
