<svg width="165" height="80" viewBox="0 0 165 80" fill="none" xmlns="http://www.w3.org/2000/svg">
<g clip-path="url(#clip0)">
<path d="M77.3295 55.0001C76.64 54.6592 76.4005 54.5115 75.9542 54.3396C71.5068 52.6265 69.155 48.2412 70.4787 43.6992C71.9591 38.6233 73.6808 33.6167 75.6105 28.6856C75.8155 28.1608 75.8909 27.3767 76.6568 27.4279C77.2809 27.4702 77.4347 28.1548 77.6005 28.6645C78.1915 30.465 78.7342 32.2806 79.3192 34.0842C79.5182 34.6995 79.7322 35.3238 80.0428 35.8878C80.8267 37.3143 81.8157 37.3656 82.8228 36.0748C82.8831 35.9963 82.9404 35.9119 82.9947 35.8305C84.5234 33.6047 84.7585 33.5896 86.1244 35.9541C88.0994 39.3742 89.0612 43.0658 88.6692 47.0168C88.3044 50.7144 86.2088 53.1241 82.7504 54.427C82.3102 54.5929 82.156 54.6592 81.4449 55.0001C80.0398 55.0001 78.7346 55.0001 77.3295 55.0001ZM79.4729 40.8943C76.6628 40.8913 74.3109 43.2528 74.3351 46.0516C74.3622 48.9379 76.6296 51.3326 79.3644 51.3658C82.0871 51.399 84.4811 48.959 84.4811 46.1512C84.4811 43.2257 82.262 40.8973 79.4729 40.8943Z" fill="#5D6776"/>
<path d="M158.001 54.3997C154.057 54.6078 153.891 54.8056 153.864 50.909C153.855 49.6211 153.864 47.8408 153.828 46.9472C153.023 46.6697 151.362 46.8663 150.071 46.818C148.817 46.7728 147.533 46.8814 146.279 46.818C145.468 46.7758 145.274 46.9261 145.292 47.6952C145.337 49.5922 145.262 51.4953 145.328 53.3924C145.358 54.27 145.057 54.46 144.221 54.4691C141.369 54.4962 141.369 54.5324 141.369 51.7155C141.369 46.9653 141.393 42.2182 141.348 37.468C141.339 36.4908 141.496 36.0716 142.623 36.0957C145.304 36.156 145.304 36.0927 145.304 38.7739C145.304 39.923 145.245 41.0226 145.283 42.2212C145.204 43.2014 145.593 43.3763 146.477 43.3522C148.584 43.2918 150.695 43.2858 152.803 43.3522C153.749 43.3823 154.132 43.1772 154.078 42.1428C153.988 40.4478 154.084 38.7437 154.039 37.0457C154.021 36.3249 154.262 36.0806 154.983 36.1138C155.984 36.159 156.991 36.1078 157.995 36.0957C158.001 42.2001 158.001 48.3014 158.001 54.3997Z" fill="#344154"/>
<path d="M7 36.0986C9.95789 36.1137 12.9188 36.0836 15.8767 36.1529C20.4025 36.2615 22.5704 39.7962 21.8045 43.4154C21.2859 45.8584 19.2235 47.6287 16.5702 47.8187C15.2736 47.9122 13.956 47.9454 12.6625 47.8489C11.3569 47.7524 10.7448 48.054 10.9167 49.5107C11.0584 50.693 10.8896 51.9084 10.9619 53.0997C11.0283 54.1734 10.585 54.5384 9.55687 54.4569C8.7096 54.3876 7.85329 54.4117 7.00302 54.3966C7 48.3013 7 42.2 7 36.0986ZM13.5369 44.4137C14.2847 44.4137 15.0596 44.5313 15.7802 44.3866C17.0104 44.1392 17.8637 43.4094 17.8788 42.0431C17.8968 40.695 17.1551 39.9531 15.8767 39.6304C15.0807 39.4313 14.2847 39.4946 13.4887 39.4916C10.9438 39.4796 10.9438 39.4886 10.9438 41.9346C10.9438 44.4801 10.9438 44.4801 13.5369 44.4137Z" fill="#344154"/>
<path d="M125.595 54.6592C124.216 54.3182 123.242 54.2763 122.054 53.6369C118.731 51.8484 116.675 48.1659 117.088 44.4472C117.558 40.2157 120.257 37.061 124.191 36.1411C128.747 35.0795 132.242 36.4186 134.663 40.1826C133.861 40.8823 132.809 41.1386 131.922 41.6845C131.301 42.0676 131.163 41.5186 130.891 41.202C129.037 39.0516 126.13 38.6444 123.715 40.1976C121.324 41.7358 120.447 45.3067 121.77 48.0965C122.964 50.6118 125.714 51.8816 128.25 51.1426C129.151 50.8803 129.839 50.3404 130.553 49.7885C130.948 49.4808 131.003 48.567 131.696 48.8686C132.586 49.2546 133.587 49.4869 134.274 50.274C134.663 50.7204 134.319 50.9979 134.099 51.2995C132.736 53.1694 130.888 54.2521 128.612 54.6593C128.256 54.7226 128.353 54.6592 127.663 54.6592C127.06 54.6622 126.198 54.6592 125.595 54.6592Z" fill="#344154"/>
<path d="M82.6506 25C82.9913 25.7661 83.3411 26.5261 83.6697 27.2982C83.92 27.8863 83.6969 28.396 83.2597 28.776C82.8647 29.1198 82.3762 29.2284 81.8667 28.9449C81.3089 28.6343 81.1491 28.1306 81.2033 27.5515C81.2938 26.5774 81.8817 25.8143 82.3491 25C82.4486 25 82.5511 25 82.6506 25Z" fill="#5D6776"/>
<path d="M95.8991 45.2883C95.8991 42.589 95.9142 39.8897 95.887 37.1904C95.881 36.4907 95.9564 36.0926 96.8368 36.1107C99.5987 36.174 102.367 36.0474 105.119 36.1921C109.365 36.4153 111.88 40.318 110.408 44.1935C109.88 45.5839 108.928 46.5822 107.574 47.1281C106.835 47.4267 106.829 47.6951 107.212 48.3013C108.276 49.9933 109.268 51.7305 110.324 53.4285C110.764 54.1372 110.788 54.5263 109.793 54.4509C109.742 54.4479 109.69 54.4419 109.642 54.4509C107.206 54.8973 105.566 54.083 104.74 51.64C104.393 50.6176 103.672 49.7249 103.172 48.7477C102.888 48.1957 102.526 47.9665 101.884 47.9424C99.8399 47.861 99.8399 47.8308 99.8399 49.8515C99.8399 51.1001 99.8128 52.3518 99.852 53.6004C99.8731 54.2277 99.7072 54.4419 99.0258 54.4811C95.89 54.6711 95.89 54.6982 95.89 51.5857C95.8991 49.4866 95.8991 47.3875 95.8991 45.2883ZM102.27 44.5162C103.066 44.477 103.883 44.5343 104.655 44.3805C105.903 44.1332 106.733 43.3641 106.715 42.022C106.696 40.7221 105.988 39.8656 104.673 39.6515C103.892 39.5248 103.087 39.5037 102.291 39.4976C99.7887 39.4796 99.7887 39.4916 99.7887 41.9798C99.7917 44.4801 99.7917 44.4801 102.27 44.5162Z" fill="#344154"/>
<path d="M35.6752 43.4337C37.0592 41.2441 38.3466 39.3349 39.4924 37.3474C40.0382 36.3974 40.6653 35.9902 41.7598 36.1139C42.6372 36.2104 43.5358 36.135 44.4162 36.135C44.5308 36.6869 44.181 36.9614 43.976 37.2811C43.0262 38.7498 42.185 40.3121 41.0724 41.6482C38.3165 44.9628 36.9747 48.6393 37.6471 52.9551C37.819 54.0499 37.5175 54.5385 36.233 54.4872C33.6279 54.3847 33.4319 54.4511 33.6701 51.8995C33.9927 48.4312 33.1213 45.4845 30.9414 42.7671C29.5092 40.9817 28.3966 38.9459 27.1121 37.0368C26.6447 36.3401 26.7654 36.0566 27.6156 36.132C27.6669 36.135 27.7181 36.141 27.7664 36.132C30.0994 36.2499 31.7283 36.4094 32.7414 38.7287C33.447 40.3362 34.6048 41.7507 35.6752 43.4337Z" fill="#344154"/>
<path d="M58.8099 46.9533C58.8099 49.0976 58.7707 51.245 58.828 53.3894C58.8521 54.261 58.5476 54.46 57.7154 54.4721C54.8812 54.5083 54.8842 54.5415 54.8842 51.7004C54.8872 48.1084 54.8269 44.5133 54.9203 40.9243C54.9535 39.6847 54.5374 39.362 53.3947 39.4736C52.5504 39.5581 51.6881 39.54 50.8408 39.4706C50.3704 39.4314 49.5775 39.8597 49.487 39.0695C49.3815 38.1556 49.2579 37.1815 49.6106 36.2827C49.6649 36.147 50.1503 36.1379 50.4368 36.1379C54.6972 36.1289 58.9577 36.147 63.2181 36.1168C63.993 36.1108 64.3367 36.3219 64.2463 37.1242C64.198 37.5675 64.198 38.0259 64.2463 38.4693C64.3277 39.2354 64.0624 39.549 63.2513 39.5038C62.1507 39.4435 61.0412 39.552 59.9436 39.4706C58.9818 39.4012 58.7587 39.7722 58.7828 40.6679C58.8491 42.761 58.8099 44.8571 58.8099 46.9533Z" fill="#344154"/>
</g>
<defs>
<clipPath id="clip0">
<rect x="7" y="25" width="151" height="30" fill="white"/>
</clipPath>
</defs>
</svg>
