<svg width="165" height="80" viewBox="0 0 165 80" fill="none" xmlns="http://www.w3.org/2000/svg">
<g clip-path="url(#clip0)">
<path d="M82.9537 44.288C82.3111 44.9309 81.5412 45.5738 80.8987 46.2111C80.3835 46.7265 80.1287 47.3638 80.1287 48.1341V52.5012C80.1287 53.399 79.7465 53.7869 78.9766 53.7869H74.9995C74.1022 53.7869 73.7144 53.4045 73.7144 52.5012V25.1627C73.7144 24.1375 73.9692 23.877 74.9995 23.877H78.5944C79.8795 23.877 80.1343 24.1319 80.1343 25.4177V37.4825C80.1343 37.8649 79.8795 38.5078 80.3891 38.6352C80.7713 38.7627 81.0316 38.2528 81.2864 37.8649C82.9537 36.1968 84.6209 34.4012 86.1608 32.6C86.8034 31.8297 87.5733 31.5748 88.598 31.5748H93.7328C93.9876 31.5748 94.3753 31.4473 94.5027 31.8297C94.6301 32.2121 94.3753 32.3451 94.1205 32.6C92.3259 34.5231 90.5256 36.3242 88.731 38.2473C87.5788 39.4 87.5788 39.6605 88.3488 41.0737C90.6586 44.7979 92.841 48.6495 95.1508 52.3682C95.4056 52.7506 95.7933 53.0111 95.533 53.5209C95.2727 54.0308 94.7631 53.7759 94.3809 53.7759H89.8886C88.8639 53.7759 88.2214 53.3935 87.7062 52.4901L83.0866 44.7868C83.2085 44.676 83.0811 44.4155 82.9537 44.288ZM58.1883 38.8957V52.1188C58.1883 53.532 57.9335 53.7869 56.521 53.7869H52.9261C51.774 53.7869 51.5137 53.532 51.5137 52.3737V25.2902C51.5137 24.1375 51.7685 23.877 52.9261 23.877H56.6484C57.8006 23.877 58.0609 24.1319 58.0609 25.4177C58.1883 29.7847 58.1883 34.2737 58.1883 38.8957ZM69.3496 42.6199V52.1188C69.3496 53.532 69.0948 53.7869 67.8097 53.7869H64.2149C63.1901 53.7869 62.8024 53.4045 62.8024 52.3737V32.9935C62.8024 31.8408 63.0572 31.5803 64.2149 31.5803H67.9371C68.9619 31.5803 69.3496 31.9627 69.3496 32.9935V42.6199ZM66.1425 23.7495H68.0701C68.84 23.7495 69.0948 24.1319 69.0948 24.7748V27.6012C69.0948 28.3715 68.7126 28.6265 68.0701 28.6265H63.8382C63.0683 28.6265 62.8135 28.2441 62.8135 27.4737V24.6473C62.8135 24.0045 63.1957 23.6221 63.9656 23.6221C64.7355 23.7495 65.4999 23.7495 66.1425 23.7495Z" fill="#344154"/>
<path d="M144.538 53.2715C142.998 51.9857 141.586 50.7055 140.046 49.4198C139.531 49.0374 139.404 48.7769 139.791 48.1341C141.713 44.6703 142.616 41.0736 142.356 37.0945C141.713 26.9582 133.117 19 122.725 19C122.21 19 121.44 19 120.67 19.1275C109.382 20.2802 101.427 31.4528 103.865 42.6198C106.817 56.0979 121.828 62.2605 133.504 54.8121C134.02 54.5572 134.274 54.5572 134.657 54.9396L139.658 59.1736C140.556 59.8165 140.943 59.8165 141.713 59.0462C142.738 57.8934 143.768 56.6077 144.793 55.4494C145.563 54.5572 145.436 54.0418 144.538 53.2715ZM122.853 50.5781C116.184 50.5781 110.921 45.1857 110.921 38.5132C110.921 32.0956 116.311 26.7033 122.853 26.7033C129.394 26.7033 134.784 32.0956 134.784 38.6407C134.911 45.0583 129.394 50.5781 122.853 50.5781Z" fill="#5D6776"/>
<path d="M47.7973 50.0625C46.8999 49.2922 46.13 48.5218 45.2327 47.879C44.7175 47.4966 44.5901 47.1086 44.9779 46.4658C46.3903 44.1548 47.0329 41.5889 47.0329 38.8899C47.0329 38.1196 47.0329 37.3493 46.7781 36.4515C45.4875 28.2438 37.4059 22.5966 29.1914 24.1372C20.855 25.6724 15.4655 33.8911 17.3875 42.1043C19.6974 51.9911 30.6039 56.868 39.5828 51.7306C40.0979 51.4757 40.3527 51.4757 40.7349 51.8581C41.7596 52.7559 42.7899 53.6537 43.9421 54.6845C44.5846 55.1999 45.0942 55.1999 45.6093 54.557C46.3793 53.6592 47.1492 52.7614 48.0465 51.8636C48.4398 51.0933 48.4398 50.5779 47.7973 50.0625ZM32.0163 47.3691C27.2693 47.3691 23.4196 43.5175 23.4196 39.0229C23.4196 34.146 27.1419 30.2943 32.0163 30.1669C36.7634 30.1669 40.613 34.146 40.613 38.768C40.613 43.5175 36.7634 47.3691 32.0163 47.3691ZM122.852 30.9372C127.084 30.9372 130.552 34.4009 130.552 38.6405C130.552 42.8801 127.09 46.3438 122.852 46.3438C118.62 46.3438 115.153 42.8801 115.153 38.6405C115.153 34.2735 118.62 30.9372 122.852 30.9372ZM36.5086 101.924C35.2235 102.694 33.6836 103.077 31.8889 103.077C30.3491 103.077 29.064 102.822 27.9119 102.307C26.7597 101.791 25.8568 101.021 25.0869 100.123C24.317 99.2252 23.8018 98.2 23.4196 96.9142C23.0374 95.7615 22.9045 94.4757 22.9045 93.19C22.9045 91.9043 23.0319 90.6241 23.4196 89.4658C23.8018 88.3131 24.317 87.1548 25.0869 86.257C25.8568 85.3592 26.7542 84.5889 27.9119 84.0735C29.064 83.5581 30.3491 83.3032 31.8889 83.3032C33.4288 83.3032 34.7139 83.5581 35.866 84.0735C37.0182 84.5889 37.921 85.3592 38.691 86.257C39.4609 87.1548 39.976 88.3131 40.3582 89.4658C40.7404 90.6186 40.8734 91.9043 40.8734 93.19C40.8734 94.6032 40.6186 96.0164 40.1034 97.2966C39.5883 98.5823 38.9513 99.7351 37.921 100.76L40.4856 102.683L39.2006 104.224L36.5086 101.924ZM36.3812 99.0977C36.7634 98.7153 37.6662 97.4296 38.0484 96.4044C38.4306 95.3791 38.5636 94.2208 38.5636 93.0681C38.5636 92.1703 38.4362 91.145 38.1814 90.2417C37.9266 89.3439 37.5388 88.4461 37.0292 87.6758C36.5141 86.9054 35.7442 86.39 34.9742 85.8802C34.0769 85.3648 33.1796 85.2373 32.0219 85.2373C30.8697 85.2373 29.8395 85.4922 29.0695 85.8802C28.1722 86.3956 27.5297 86.9054 27.0145 87.6758C26.4994 88.4461 26.1172 89.2164 25.8624 90.2417C25.6076 91.1395 25.4802 92.1648 25.4802 93.0681C25.4802 93.9659 25.6076 94.9911 25.8624 95.8945C26.1172 96.7923 26.5049 97.6901 27.0145 98.4604C27.5297 99.2308 28.1667 99.8736 29.0695 100.256C29.9669 100.771 30.8642 100.899 32.0219 100.899C32.9192 100.899 33.8166 100.771 34.7139 100.383C34.581 100.383 35.9934 99.4857 36.3812 99.0977ZM46.2574 83.4417V102.567H43.9476V83.4417H46.2574ZM49.8523 86.2626V83.4362H52.1621V86.2626H49.8523ZM52.1621 88.701V102.567H49.8523V88.701H52.1621ZM58.0612 83.4417V94.7362L64.3481 88.701H67.4279L61.9109 93.7054L67.8101 102.434H64.9851L60.2381 95.2461L58.0557 97.1691V102.434H55.7459V83.4362L58.0612 83.4417ZM86.1612 86.6505C85.2638 86.0076 84.2391 85.7527 82.954 85.7527C82.4389 85.7527 81.9293 85.7527 81.4141 85.8802C80.899 86.0076 80.3894 86.1351 80.0017 86.3956C79.6195 86.6505 79.2317 87.0384 79.1043 87.4208C78.8495 87.8032 78.7221 88.3186 78.7221 88.9615C78.7221 89.6044 78.8495 89.9868 79.2373 90.3747C79.6195 90.7571 80.0072 91.0176 80.6497 91.2725C81.2923 91.5274 81.9348 91.6549 82.5718 91.7879C83.2144 91.9154 83.9843 92.0428 84.7542 92.3033C85.5242 92.4308 86.2941 92.6857 86.9366 92.9462C87.5792 93.2011 88.3491 93.4616 88.8587 93.9714C89.5013 94.3538 89.8835 94.8692 90.2712 95.5121C90.6589 96.155 90.7863 96.9253 90.7863 97.8231C90.7863 98.8484 90.5315 99.7462 90.1438 100.389C89.6287 101.159 89.119 101.675 88.3491 102.185C87.5792 102.7 86.8092 102.955 85.9119 103.21C85.0146 103.465 84.1172 103.465 83.3473 103.465C82.3226 103.465 81.2923 103.337 80.2675 103.082C79.3702 102.827 78.4729 102.44 77.7029 101.93C76.933 101.42 76.4179 100.644 76.0357 99.8736C75.6535 98.9758 75.3931 98.078 75.3931 96.9198H77.8303C77.8303 97.6901 77.9577 98.4604 78.3455 98.9758C78.6003 99.6187 79.1154 100.001 79.6305 100.389C80.1457 100.771 80.7827 101.032 81.4252 101.159C82.0678 101.287 82.8377 101.414 83.4802 101.414C83.9954 101.414 84.6324 101.414 85.1475 101.287C85.79 101.159 86.2996 101.032 86.6874 100.771C87.2025 100.516 87.5847 100.129 87.8395 99.7462C88.0943 99.3638 88.2217 98.7209 88.2217 98.078C88.2217 97.4352 88.0943 96.9253 87.7066 96.5374C87.3244 96.155 86.9366 95.767 86.2941 95.5121C85.6516 95.2572 85.009 94.9967 84.372 94.8692C83.6021 94.7418 82.9596 94.4868 82.1896 94.3538C81.4197 94.2264 80.6497 93.9714 80.0072 93.711C79.2373 93.456 78.5947 93.1956 78.0851 92.8132C77.4426 92.4308 77.0604 91.9154 76.6727 91.4C76.2905 90.7571 76.1575 90.1142 76.1575 89.2164C76.1575 88.3186 76.4123 87.4208 76.8001 86.778C77.1823 86.1351 77.6974 85.4922 78.3399 84.9824C78.9825 84.467 79.7524 84.212 80.5224 83.9571C81.2923 83.7022 82.1896 83.5747 83.087 83.5747C84.1117 83.5747 85.009 83.7022 85.779 83.9571C86.6763 84.212 87.3188 84.6 87.9614 85.1098C88.6039 85.6252 89.1135 86.2626 89.5013 87.0329C89.8834 87.8032 90.0164 88.701 90.1438 89.7263H87.7066C87.5681 88.3186 87.0585 87.2934 86.1612 86.6505ZM103.349 102.312C102.324 103.082 101.039 103.465 99.4994 103.465C98.3472 103.465 97.4443 103.337 96.6744 102.949C95.9045 102.567 95.1345 102.052 94.6194 101.409C94.1043 100.766 93.5947 99.9955 93.3343 99.0977C92.9521 98.1999 92.8192 97.3021 92.8192 96.2713C92.8192 95.2461 92.9466 94.2153 93.3343 93.4449C93.5891 92.5471 94.1043 91.7768 94.6194 91.1339C95.2619 90.4911 95.9045 89.9812 96.6744 89.5933C97.4443 89.2109 98.3417 89.0779 99.239 89.0779C100.524 89.0779 101.549 89.3328 102.319 89.8482C103.089 90.3636 103.731 91.0009 104.241 91.7713C104.756 92.5416 105.011 93.4394 105.266 94.3372C105.393 95.235 105.52 96.1328 105.52 97.0306H95.129C95.129 97.6735 95.129 98.1833 95.3838 98.6987C95.5112 99.2141 95.766 99.724 96.1537 100.112C96.5415 100.5 96.9237 100.882 97.5662 101.137C98.0813 101.392 98.7183 101.52 99.4883 101.52C100.386 101.52 101.283 101.265 101.798 100.877C102.441 100.494 102.823 99.724 102.95 98.8206H105.133C105.022 100.383 104.379 101.542 103.349 102.312ZM102.839 93.4505C102.585 92.9351 102.324 92.5527 102.069 92.1647C101.687 91.7824 101.3 91.5219 100.784 91.3944C100.269 91.1395 99.7597 91.1395 99.2446 91.1395C98.602 91.1395 98.0924 91.267 97.7047 91.3944C97.1895 91.6494 96.8073 91.9098 96.5525 92.2922C96.1703 92.6746 95.91 93.0626 95.7826 93.5779L95.4004 95.1186H103.355C103.094 94.3483 102.967 93.8384 102.839 93.4505ZM110.024 89.3439V91.5274C110.921 89.8593 112.461 88.9615 114.516 88.9615C115.413 88.9615 116.183 89.089 116.826 89.3439C117.468 89.5988 117.978 89.9868 118.238 90.3692C118.62 90.7516 118.881 91.3944 119.008 91.9098C119.136 92.5527 119.263 93.1956 119.263 93.9659V103.082H116.953V93.711C116.953 92.8132 116.698 92.1703 116.183 91.6549C115.668 91.1395 115.031 90.8846 114.128 90.8846C113.486 90.8846 112.843 91.012 112.333 91.267C111.818 91.5219 111.436 91.7824 111.048 92.1647C110.666 92.5471 110.406 93.0626 110.278 93.5779C110.151 94.0934 110.024 94.7307 110.024 95.2461V103.077H107.714V89.3439H110.024ZM124.52 100.129C124.774 100.511 125.035 100.771 125.417 100.899C125.799 101.026 126.187 101.281 126.569 101.281C126.951 101.409 127.466 101.409 127.854 101.409C128.236 101.409 128.624 101.409 129.006 101.281C129.388 101.281 129.776 101.154 130.031 101.026C130.413 100.899 130.673 100.644 130.801 100.383C131.056 100.129 131.056 99.7406 131.056 99.3582C131.056 98.7153 130.801 98.333 130.413 98.0725C130.031 97.8176 129.388 97.5571 128.746 97.3022C128.103 97.1747 127.333 96.9198 126.563 96.7867C125.794 96.6593 125.024 96.4044 124.381 96.1439C123.739 95.8834 123.096 95.501 122.714 94.9911C122.332 94.4757 122.071 93.8384 122.071 92.9351C122.071 92.2922 122.199 91.6494 122.586 91.1395C122.841 90.6241 123.356 90.2417 123.739 89.9868C124.254 89.7318 124.763 89.4714 125.406 89.3439C126.048 89.2164 126.691 89.089 127.2 89.089C127.97 89.089 128.74 89.2164 129.383 89.3439C130.025 89.4714 130.668 89.7263 131.178 89.9868C131.693 90.3692 132.075 90.7571 132.33 91.2725C132.584 91.7879 132.845 92.5582 132.845 93.3286H130.552C130.552 92.9462 130.424 92.5582 130.169 92.1758C129.915 91.9209 129.787 91.6604 129.399 91.4055C129.145 91.278 128.757 91.1506 128.375 91.0231C127.993 90.8956 127.605 90.8957 127.223 90.8957C126.84 90.8957 126.58 90.8956 126.198 91.0231C125.816 91.0231 125.555 91.1506 125.301 91.278C125.046 91.4055 124.785 91.533 124.658 91.7934C124.531 92.0484 124.403 92.3088 124.403 92.6912C124.403 93.0736 124.531 93.4616 124.785 93.7165C125.04 93.9714 125.428 94.2319 125.81 94.3594C126.192 94.4868 126.707 94.6143 127.223 94.7418L128.762 95.1242C129.278 95.2516 129.915 95.3791 130.43 95.6396C130.945 95.767 131.454 96.022 131.842 96.4099C132.224 96.6648 132.612 97.0528 132.867 97.5626C133.122 98.0725 133.249 98.5879 133.249 99.2308C133.249 100.129 133.122 100.771 132.734 101.287C132.352 101.802 131.964 102.312 131.322 102.573C130.806 102.955 130.169 103.088 129.399 103.343C128.757 103.47 127.987 103.598 127.344 103.598C126.575 103.598 125.805 103.47 125.162 103.343C124.52 103.215 123.877 102.96 123.367 102.573C122.858 102.185 122.47 101.675 122.082 101.159C121.7 100.516 121.567 99.8736 121.567 98.9758H123.877C124.137 99.3582 124.265 99.7406 124.52 100.129ZM145.817 102.312C144.793 103.082 143.508 103.465 141.968 103.465C140.816 103.465 139.913 103.337 139.143 102.949C138.373 102.561 137.603 102.052 137.088 101.409C136.573 100.766 136.063 99.9955 135.803 99.0977C135.548 98.1999 135.42 97.3021 135.288 96.1439C135.288 95.1186 135.415 94.0878 135.803 93.3175C136.057 92.4197 136.573 91.6494 137.088 91.0065C137.73 90.3636 138.373 89.8538 139.143 89.4658C139.913 89.0834 140.81 88.9504 141.707 88.9504C142.992 88.9504 144.017 89.2053 144.787 89.7207C145.557 90.2362 146.2 90.8735 146.709 91.6438C147.219 92.4141 147.479 93.3119 147.734 94.2097C147.861 95.1075 147.989 96.0053 147.989 96.9031H137.725C137.725 97.546 137.725 98.0559 137.98 98.5713C138.107 99.0867 138.362 99.5965 138.75 99.9845C139.132 100.367 139.519 100.755 140.162 101.01C140.677 101.265 141.314 101.392 142.084 101.392C142.981 101.392 143.879 101.137 144.394 100.749C145.036 100.367 145.419 99.5965 145.546 98.6932H147.728C147.618 100.383 146.848 101.542 145.817 102.312ZM145.308 93.4505C145.053 92.9351 144.793 92.5527 144.538 92.1647C144.156 91.7824 143.768 91.5219 143.253 91.3944C142.738 91.1395 142.228 91.1395 141.713 91.1395C141.07 91.1395 140.561 91.267 140.173 91.3944C139.658 91.6494 139.276 91.9098 139.021 92.2922C138.639 92.6746 138.378 93.0626 138.251 93.5779C137.996 94.0934 137.996 94.6032 137.869 95.1186H145.823C145.69 94.3483 145.563 93.8384 145.308 93.4505Z" fill="#344154"/>
</g>
<defs>
<clipPath id="clip0">
<rect x="17" y="19" width="131" height="42" fill="white"/>
</clipPath>
</defs>
</svg>
