<svg width="165" height="80" viewBox="0 0 165 80" fill="none" xmlns="http://www.w3.org/2000/svg">
<path d="M87.8333 52.2706C75.75 52.2706 65.4808 46.3197 65.4808 39.1911C65.4808 32.0625 74.5417 26.1323 86.625 26.1323C101.886 26.1323 108.958 31.9045 108.958 39.0332C108.958 46.1618 101.162 52.2706 87.8333 52.2706ZM83 19.0037C67.2917 19.0037 54 27.3203 54 38.0133C54 48.1124 67.2113 56.4963 82.9198 56.4963C98.6281 56.4963 112 48.7063 112 38.0133C112 27.3203 98.7083 19.0037 83 19.0037Z" fill="#5D6776"/>
<path d="M78.0039 30.5486V61.9834H87.6652V49.7589C90.0806 49.7589 91.5193 49.2403 93.0995 52.0873C95.5149 56.1622 98.5341 61.9834 98.5341 61.9834H110.007C110.007 61.9834 102.761 50.341 102.157 49.7589C101.043 48.5945 99.7417 48.5945 97.9303 48.0124C101.553 47.4303 104.931 45.9522 106.105 42.7853C107.132 39.8749 107.011 36.1724 104.811 33.6896C102.905 31.725 100.949 30.5486 96.1187 30.5486H78.0039ZM87.6652 37.0954H94.0053C95.5088 37.0954 96.7225 38.5507 96.7225 40.0058C96.7225 41.4612 95.5149 42.9166 94.0053 42.9166H87.6652V37.0954Z" fill="#344154"/>
</svg>
