<svg width="165" height="80" viewBox="0 0 165 80" fill="none" xmlns="http://www.w3.org/2000/svg">
<g clip-path="url(#clip0)">
<path d="M75.0707 30.1064C76.2423 30.0266 77.3643 30.2599 78.4554 30.6712C79.5712 31.0948 78.7033 31.7702 78.6476 32.3227C78.5794 33.0103 78.1516 32.8077 77.7239 32.6358C76.4469 32.1201 75.1327 31.9052 73.7565 32.1876C72.5229 32.4394 71.6302 33.084 71.3388 34.3303C71.0413 35.6135 71.5434 36.6265 72.7708 37.4246C74.0416 38.2534 75.5356 38.6157 76.856 39.3462C79.3666 40.7338 80.3213 42.7291 79.72 45.3261C79.2923 47.1679 78.102 48.359 76.3415 48.979C73.9053 49.8386 71.4938 49.5869 69.1134 48.6782C67.9045 48.2116 68.7104 47.4565 68.8406 46.8364C69.0266 45.9339 69.5535 46.5724 69.8882 46.7136C71.3884 47.3337 72.9258 47.6406 74.5438 47.3337C75.8952 47.082 76.9242 46.4189 77.2776 45.0375C77.6495 43.5763 77.1102 42.3607 75.7836 41.4889C74.9157 40.9241 73.9177 40.6233 72.9754 40.2058C71.2396 39.4383 69.6031 38.5236 68.977 36.5835C67.9789 33.4769 70.2726 30.4747 73.8805 30.1186C74.271 30.0695 74.6739 30.1064 75.0707 30.1064Z" fill="#344154"/>
<path d="M101.665 47.0511C100.469 48.5614 99.1358 49.4394 97.3318 49.4762C94.8398 49.5253 93.1908 48.2667 92.6143 45.8601C92.199 44.1103 92.4283 42.3421 92.3788 40.5801C92.3478 39.4443 92.3726 38.3024 92.3726 37.1604C92.3726 35.8159 93.2528 35.2388 94.5174 35.7177C95.0196 35.908 94.8212 36.3132 94.8212 36.6202C94.846 38.5848 94.8212 40.5494 94.8398 42.514C94.846 43.2201 94.8956 43.9261 94.9948 44.626C95.2551 46.4126 96.154 47.3519 97.648 47.4686C99.1792 47.5914 100.723 46.5477 101.225 45.0496C101.405 44.5217 101.436 43.9752 101.436 43.4227C101.429 41.1081 101.467 38.7874 101.417 36.4728C101.392 35.3247 102.204 35.7545 102.731 35.7177C103.271 35.6808 103.909 35.466 103.909 36.4851C103.909 40.531 103.766 44.5769 103.996 48.6167C104.033 49.2552 103.643 49.2797 103.258 49.1815C102.744 49.0526 101.894 49.6849 101.752 48.6167C101.702 48.1685 101.702 47.7142 101.665 47.0511Z" fill="#344154"/>
<path d="M86.1164 32.5376C86.1164 33.2068 86.1783 33.8699 86.104 34.5145C85.98 35.5337 86.4139 35.8345 87.3748 35.7056C87.8025 35.6442 88.2488 35.724 88.689 35.6871C89.3399 35.638 89.7304 35.7301 89.7056 36.5467C89.6808 37.2711 89.5506 37.5781 88.72 37.5842C86.1226 37.5965 86.1164 37.6333 86.1226 40.2303C86.1226 41.8757 86.0978 43.5272 86.1412 45.1726C86.1845 46.9899 86.8231 47.5301 88.6766 47.4012C89.0113 47.3767 89.4949 47.1741 89.4329 47.7634C89.3771 48.2669 89.9412 48.9238 89.0609 49.2738C86.4511 50.3113 83.8909 48.7887 83.7607 46.0137C83.6491 43.5456 83.6677 41.0714 83.6987 38.5972C83.7111 37.7746 83.4693 37.443 82.6325 37.5535C81.9692 37.6395 81.5352 37.5474 81.5352 36.6572C81.529 35.7547 81.901 35.6012 82.6635 35.681C83.178 35.7301 83.6553 35.7915 83.7049 34.975C83.8165 32.9305 83.8599 32.9305 86.1164 32.5376Z" fill="#344154"/>
<path d="M123.974 42.4343C123.974 40.5127 124.024 38.5849 123.95 36.6632C123.912 35.7485 124.315 35.5888 125.065 35.6932C125.679 35.7792 126.535 35.3187 126.516 36.5896C126.46 40.5127 126.466 44.4358 126.51 48.365C126.522 49.685 125.592 49.0895 125.022 49.1877C124.384 49.2982 123.912 49.2368 123.95 48.3159C124.03 46.3636 123.974 44.399 123.974 42.4343Z" fill="#344154"/>
<path d="M125.27 30.3335C126.137 30.3581 126.857 31.1132 126.757 31.9605C126.652 32.863 126.088 33.3787 125.17 33.3603C124.241 33.3357 123.726 32.8016 123.707 31.8684C123.689 30.972 124.383 30.3028 125.27 30.3335Z" fill="#344154"/>
<path d="M43.1394 19C31.3363 18.9816 21.7587 28.7495 22.0067 40.0461C21.7959 51.0971 31.1131 61.0123 43.2261 61C54.9982 60.9878 64.4208 51.6681 64.427 40.0092C64.4332 28.289 55.0168 19.0184 43.1394 19ZM51.7685 48.5124C49.9831 48.758 48.8363 48.1624 47.9312 46.5539C46.7782 44.4972 45.3338 42.6001 44.001 40.6416C43.5113 39.9171 41.2672 39.4198 40.5605 39.8742C40.1886 40.1136 40.2878 40.5004 40.2878 40.8381C40.2816 42.4527 40.3188 44.0613 40.2692 45.676C40.2444 46.4741 40.5543 46.7381 41.3168 46.6583C41.6702 46.6214 42.0359 46.6828 42.3893 46.646C43.0898 46.5723 43.3873 46.8056 43.3811 47.5546C43.3687 48.2484 43.2013 48.5492 42.4389 48.5062C41.447 48.451 40.4489 48.494 39.4509 48.494C38.5334 48.494 37.616 48.4694 36.6985 48.5001C36.0476 48.5247 35.6756 48.4326 35.6756 47.6344C35.6695 46.8424 35.936 46.6276 36.7047 46.6398C38.3289 46.6521 38.3351 46.6153 38.3351 44.9883C38.3351 41.0591 38.3351 37.1237 38.3351 33.1944C38.3351 31.457 38.3351 31.4263 36.5559 31.2912C35.8802 31.2421 35.6818 30.9965 35.6818 30.3519C35.6818 29.6827 35.9856 29.4985 36.5559 29.6397C38.707 30.1861 40.8333 29.5967 42.972 29.5292C44.7511 29.4739 46.5055 29.6029 47.9498 30.7387C50.82 32.9918 50.2063 37.3816 46.7596 39.0024C45.7554 39.4751 45.65 39.7882 46.3009 40.6539C47.4911 42.2256 48.6069 43.8587 49.6608 45.5225C50.1815 46.339 50.7394 46.8179 51.7623 46.6583C52.4628 46.5478 52.8595 46.7565 52.8781 47.5976C52.9029 48.5001 52.407 48.4264 51.7685 48.5124Z" fill="#344154"/>
<path d="M119.883 30.3151C119.889 29.21 119.281 29.3696 118.618 29.3696C117.948 29.3696 117.297 29.21 117.341 30.3151C117.428 32.5437 117.366 34.7846 117.366 37.222C113.913 33.9373 109.282 35.5459 107.813 38.941C106.796 41.2863 106.734 43.6745 107.757 46.0259C108.842 48.537 111.266 49.8324 113.931 49.421C115.494 49.1816 116.64 48.2914 117.725 46.7688C117.725 47.5976 117.731 48.0581 117.725 48.5185C117.713 49.6728 118.605 49.0711 119.101 49.1877C119.672 49.3167 119.926 49.1202 119.92 48.451C119.87 42.4037 119.833 36.3563 119.883 30.3151ZM117.279 44.2823C117.074 45.897 115.835 47.1617 114.204 47.4748C112.716 47.7573 111.105 47.0758 110.367 45.6698C109.226 43.5026 109.239 41.274 110.454 39.1375C111.291 37.664 112.902 37.0562 114.564 37.4307C116.064 37.7684 117.192 39.1068 117.316 40.7521C117.359 41.2985 117.322 41.8511 117.322 42.4037C117.341 42.4037 117.359 42.4037 117.372 42.4037C117.347 43.0237 117.359 43.6622 117.279 44.2823Z" fill="#344154"/>
<path d="M142.975 41.7835C142.739 38.9409 141.536 36.7184 138.635 35.7545C133.918 34.1828 129.659 37.3999 129.647 42.5018C129.64 45.8662 131.345 48.3834 134.203 49.2184C139.038 50.6304 143.402 46.9406 142.975 41.7835ZM139.305 46.0995C137.693 48.2053 134.761 48.1624 133.211 46.0136C131.822 44.0981 131.81 40.8257 133.18 38.8795C134.773 36.6202 137.99 36.6632 139.503 38.9778C140.191 40.0337 140.421 41.2187 140.464 42.4772C140.414 43.7727 140.129 45.0251 139.305 46.0995Z" fill="#344154"/>
<path d="M40.2801 34.7048C40.2801 34.1154 40.3669 33.5137 40.2615 32.9427C40.026 31.6289 40.7451 31.2974 41.8485 31.3035C43.0325 31.3097 44.2289 31.1132 45.3944 31.5123C46.6838 31.9482 47.4587 32.8138 47.6198 34.1461C47.781 35.4661 47.2975 36.5527 46.1631 37.2772C44.4831 38.3455 42.5862 38.1429 40.7203 38.0999C40.2677 38.0876 40.2801 37.7254 40.2801 37.4123C40.2801 36.5098 40.2801 35.6073 40.2801 34.7048Z" fill="#344154"/>
</g>
<defs>
<clipPath id="clip0">
<rect x="22" y="19" width="121" height="42" fill="white"/>
</clipPath>
</defs>
</svg>
