<svg width="165" height="80" viewBox="0 0 165 80" fill="none" xmlns="http://www.w3.org/2000/svg">
<path fill-rule="evenodd" clip-rule="evenodd" d="M116.376 39.9318C116.302 39.7789 116.272 39.7002 116.233 39.626C115.199 37.6335 114.17 35.6453 113.127 33.6572C113.024 33.4562 113.037 33.3382 113.179 33.1678C114.82 31.2234 116.453 29.2702 118.09 27.3171C118.146 27.2472 118.198 27.1772 118.22 27.0549L116.785 27.435C114.799 27.9681 112.817 28.5012 110.835 29.0387C110.65 29.0867 110.568 29.0343 110.473 28.877C109.345 26.9675 108.216 25.0624 107.083 23.1573C107.022 23.0568 106.962 22.9607 106.837 22.8777C106.747 23.3845 106.652 23.8958 106.566 24.4026L105.622 29.7902C105.588 29.9825 105.54 30.1791 105.523 30.3714C105.506 30.5549 105.415 30.6248 105.247 30.6772C102.908 31.42 100.573 32.1716 98.2378 32.9231C98.1344 32.9581 98.0353 32.9974 97.9233 33.0979C99.8361 33.867 101.745 34.6404 103.688 35.4225C103.619 35.4793 103.571 35.523 103.52 35.5579C102.326 36.3401 101.129 37.1222 99.9352 37.9131C99.7931 38.0092 99.681 38.0223 99.5173 37.9481C98.0913 37.297 96.6566 36.6591 95.2263 36.008C94.5843 35.7196 94.007 35.3307 93.559 34.7758C92.5422 33.513 92.7447 32.0798 94.0975 31.2059C94.5413 30.9175 95.0453 30.7034 95.5451 30.5374C97.8371 29.7815 100.133 29.0518 102.43 28.3177C102.624 28.2565 102.71 28.1691 102.749 27.9594C103.054 26.1635 103.373 24.3677 103.692 22.5718C103.864 21.6105 103.955 20.6274 104.416 19.7491C104.592 19.4126 104.804 19.0806 105.058 18.7965C105.971 17.7697 107.242 17.7304 108.207 18.7092C108.535 19.0412 108.815 19.4301 109.056 19.8277C110.12 21.5843 111.163 23.3539 112.205 25.1236C112.326 25.3333 112.438 25.377 112.666 25.3115C115.23 24.6167 117.793 23.9307 120.356 23.2403C120.886 23.1005 121.421 23.0481 121.963 23.1486C123.144 23.3714 123.661 24.2846 123.265 25.4426C123.084 25.9713 122.769 26.417 122.416 26.8364C120.628 28.9731 118.84 31.1098 117.043 33.2377C116.897 33.4125 116.893 33.5392 116.996 33.7315C118.069 35.7808 119.129 37.8301 120.193 39.8838C120.447 40.3731 120.641 40.8844 120.649 41.448C120.662 42.7283 119.736 43.777 118.482 43.9649C117.78 44.0697 117.125 43.9168 116.466 43.7114C114.859 43.2089 113.252 42.7108 111.641 42.2214C111.49 42.1777 111.434 42.1166 111.408 41.9549C111.223 40.8057 111.02 39.6609 110.827 38.5117C110.822 38.4811 110.831 38.4462 110.835 38.3763C112.666 38.8919 114.484 39.3987 116.376 39.9318Z" fill="#344154"/>
<path fill-rule="evenodd" clip-rule="evenodd" d="M113.245 56.6669C111.798 56.6625 110.346 56.6581 108.898 56.6625C108.709 56.6625 108.601 56.6057 108.493 56.4397C106.779 53.7918 105.055 51.1438 103.332 48.5003C103.276 48.4173 103.22 48.3343 103.121 48.1944C102.75 51.0521 102.389 53.8442 102.027 56.645H98.2311C98.2741 56.2693 98.3129 55.9066 98.3603 55.5483C98.7308 52.6775 99.1013 49.8111 99.4762 46.9404C99.8294 44.2007 100.187 41.4567 100.545 38.717C100.553 38.634 100.609 38.5335 100.674 38.4898C101.979 37.6246 103.289 36.7726 104.599 35.9118C104.616 35.8987 104.646 35.8987 104.711 35.8768C104.314 38.9398 103.922 41.981 103.526 45.0222C103.543 45.0309 103.556 45.044 103.573 45.0571C105.628 42.7457 107.683 40.4342 109.786 38.0747L109.95 39.036C110.096 39.9055 110.238 40.7794 110.398 41.6489C110.428 41.8237 110.385 41.9329 110.268 42.0553C108.941 43.4666 107.614 44.8824 106.292 46.2937C106.236 46.3549 106.18 46.4204 106.111 46.4903C106.154 46.5602 106.188 46.6258 106.232 46.687L113.09 56.4484C113.133 56.5052 113.189 56.5533 113.241 56.6057C113.245 56.6319 113.245 56.6494 113.245 56.6669ZM68.2714 48.2075C68.2153 47.906 68.1723 47.4691 68.043 47.0584C67.4054 45.0702 65.3977 43.9779 63.3125 44.4716C61.0291 45.0091 59.3963 46.8311 59.1594 49.195C58.9827 50.9428 59.9133 52.6295 61.6409 53.2587C63.0325 53.7699 64.3681 53.5558 65.6131 52.7999C67.2589 51.7993 68.155 50.3093 68.2714 48.2075ZM58.2417 55.6007C58.1297 56.4572 58.022 57.2611 57.9186 58.0695C57.7807 59.14 57.6428 60.2149 57.5093 61.2854C57.4921 61.4122 57.4576 61.4646 57.324 61.4646C56.2814 61.4602 55.2388 61.4602 54.1962 61.4602C54.1747 61.4602 54.1488 61.4471 54.0928 61.4296C54.1575 60.9228 54.2178 60.4159 54.2824 59.9091C54.5107 58.1307 54.7434 56.3523 54.976 54.5739C55.2431 52.5421 55.4542 50.4972 55.7946 48.4784C56.3978 44.8998 59.392 41.8193 62.9032 41.0503C64.9367 40.6046 66.8884 40.81 68.6634 41.9723C70.4341 43.1302 71.4509 44.8124 71.6835 46.9273C72.0109 49.916 70.9252 52.3979 68.8314 54.4515C67.4571 55.8017 65.8113 56.6581 63.9114 56.9465C61.9554 57.2437 60.1158 56.9159 58.47 55.7449C58.4097 55.7012 58.3451 55.6663 58.2417 55.6007ZM56.5442 38.599C55.3767 39.4817 54.2479 40.3337 53.1192 41.1858C52.9382 40.893 52.7745 40.6046 52.5806 40.3337C52.0895 39.639 51.4777 39.119 50.5945 39.0534C49.8578 39.001 49.2245 39.2457 48.7247 39.8006C48.2767 40.2944 48.2164 40.9935 48.6343 41.5528C49.0952 42.1645 49.6036 42.7457 50.1163 43.3137C50.9736 44.2531 51.8655 45.1576 52.7185 46.1058C53.494 46.9666 54.1101 47.9323 54.2996 49.1077C54.528 50.5059 54.2522 51.8386 53.5974 53.0708C52.3911 55.3473 50.4868 56.6669 47.9794 57.0776C46.8722 57.2611 45.7649 57.2218 44.6836 56.9028C43.2489 56.4746 42.2494 55.5177 41.6075 54.1719C41.3791 53.6956 41.2068 53.1931 41 52.6819C42.258 52.0003 43.4773 51.3361 44.718 50.6632C44.7611 50.7681 44.7913 50.8555 44.8301 50.9385C45.0412 51.3667 45.2135 51.8211 45.4763 52.2187C46.2518 53.3898 47.5055 53.7437 48.7764 53.1669C49.1039 53.0184 49.4184 52.8086 49.6855 52.5683C50.504 51.8299 50.6591 50.803 50.0517 49.8767C49.7027 49.3436 49.2676 48.8673 48.8411 48.3867C47.8286 47.2463 46.7731 46.1408 45.7822 44.9785C45.1015 44.1745 44.6362 43.2394 44.4897 42.1645C44.3303 40.9935 44.5586 39.888 45.1618 38.9005C46.6568 36.4492 48.8281 35.1733 51.7017 35.2782C53.3389 35.3394 54.6443 36.1171 55.6567 37.4061C55.9583 37.7863 56.2384 38.1839 56.5442 38.599ZM84.2981 51.7643C84.1086 53.2412 83.9276 54.6438 83.7423 56.0464C83.7337 56.1163 83.6777 56.2125 83.6174 56.243C80.7912 57.5714 77.0645 57.3879 74.7424 54.7094C73.493 53.2718 72.9717 51.5677 73.0492 49.6713C73.2302 45.28 76.819 41.4436 81.1143 40.9105C83.6217 40.5959 85.8232 41.2863 87.525 43.2613C88.6839 44.6071 89.2182 46.215 89.1406 47.9891C89.0889 49.1601 88.908 50.3267 88.7615 51.4934C88.559 53.1451 88.335 54.7967 88.1196 56.4484C88.1109 56.5052 88.1023 56.5664 88.0851 56.6407H84.7031C84.7462 56.2605 84.7893 55.8891 84.8367 55.5177C85.0822 53.6082 85.3493 51.7075 85.5647 49.7937C85.6983 48.6052 85.6164 47.421 85.0779 46.3199C84.5092 45.1489 83.5485 44.5284 82.2905 44.393C79.684 44.1133 77.2067 45.9485 76.6509 48.5484C76.2847 50.2656 76.862 51.9085 78.2105 52.8217C79.5246 53.7087 80.9334 53.7087 82.3637 53.1363C83.0918 52.8479 83.7079 52.3848 84.2981 51.7643ZM98.5413 41.2426C98.3862 42.4311 98.2354 43.6021 98.0803 44.7993C97.3651 44.7993 96.6628 44.795 95.9606 44.7993C95.3919 44.8037 94.8749 45.1751 94.7026 45.7126C94.6337 45.9223 94.6121 46.1495 94.582 46.368C94.2244 49.0989 93.8711 51.8299 93.5178 54.5652C93.4273 55.2555 93.3412 55.9415 93.2507 56.6407H89.7308C89.7955 56.1163 89.8601 55.6051 89.9247 55.0982C90.1531 53.3286 90.3814 51.5589 90.614 49.7893C90.8165 48.26 90.9932 46.7219 91.2301 45.197C91.5446 43.152 93.5523 41.3343 95.5901 41.2469C96.5638 41.2076 97.5374 41.2426 98.5413 41.2426Z" fill="#344154"/>
<path d="M117.399 56.6451V55.1376H117.391L116.809 56.6451H116.624L116.042 55.1376H116.034V56.6451H115.741V54.8405H116.193L116.723 56.2125L117.244 54.8405H117.692V56.6451H117.399ZM114.814 55.0808V56.6451H114.521V55.0808H113.966V54.8405H115.374V55.0808H114.814ZM61.2625 36.0648H62.1371L61.9303 34.7233L61.2625 36.0648ZM62.2707 36.9299H60.8188L60.3578 37.8475H59.3281L61.5986 33.5479H62.5895L63.3607 37.8475H62.4085L62.2707 36.9299ZM67.4708 34.4131H66.9538L66.7814 35.405H67.2984C67.6086 35.405 67.8585 35.1952 67.8585 34.8064C67.8585 34.5442 67.6991 34.4131 67.4708 34.4131ZM66.217 33.5479H67.5742C68.285 33.5479 68.7848 33.9761 68.7848 34.719C68.7848 35.6497 68.1385 36.2745 67.2123 36.2745H66.6263L66.3506 37.8475H65.4674L66.217 33.5479ZM71.792 36.0648H72.6665L72.4597 34.7233L71.792 36.0648ZM72.8044 36.9299H71.3525L70.8915 37.8475H69.8618L72.1323 33.5479H73.1232L73.8944 37.8475H72.9423L72.8044 36.9299ZM78.543 37.6946C78.2457 37.8344 77.914 37.9174 77.5823 37.9174C76.4621 37.9174 75.7556 37.0654 75.7556 35.9949C75.7556 34.6272 76.8886 33.478 78.2371 33.478C78.5732 33.478 78.8791 33.561 79.1289 33.7009L79.004 34.7321C78.8187 34.5223 78.5172 34.3781 78.1423 34.3781C77.3712 34.3781 76.6818 35.086 76.6818 35.9075C76.6818 36.5323 77.0696 37.0217 77.6814 37.0217C78.0562 37.0217 78.4181 36.8775 78.6593 36.6721L78.543 37.6946ZM83.9542 36.1128H82.1103L81.8087 37.8432H80.9255L81.6751 33.5436H82.5583L82.261 35.2433H84.105L84.4023 33.5436H85.2898L84.5401 37.8432H83.6569L83.9542 36.1128ZM87.2026 37.8475L87.948 33.5479H90.3003L90.1495 34.4131H88.6847L88.5339 35.2477H89.8781L89.7273 36.1128H88.3788L88.228 36.978H89.6928L89.542 37.8432L87.2026 37.8475Z" fill="#344154"/>
</svg>
