<svg width="165" height="80" viewBox="0 0 165 80" fill="none" xmlns="http://www.w3.org/2000/svg">
<g clip-path="url(#clip0)">
<path d="M82.1431 66C81.3959 65.7094 80.5945 65.7652 79.8214 65.6513C77.337 65.2887 74.9068 64.7494 72.5284 63.9289C70.2962 63.1595 69.1836 61.4882 68.4388 59.4474C67.4912 56.844 66.9727 54.1523 66.6969 51.4048C66.4494 48.9386 66.3881 46.4724 66.5884 44.0015C67.1212 37.3885 68.8136 31.152 73.2238 25.9569C77.0612 21.4335 81.8909 18.1933 87.4679 16.0525C91.0767 14.6671 94.8151 13.9093 98.6973 14.0093C104.788 14.165 110.12 16.1315 114.294 20.6502C117.213 23.8091 118.813 27.5793 119.386 31.7866C120.079 36.8538 119.181 41.7003 117.25 46.398C117.142 46.663 117.05 46.9024 117.238 47.1604C117.078 47.1906 116.918 47.2301 116.755 47.2139C116.31 47.1697 116.041 47.3812 115.822 47.7485C115.299 48.6155 114.712 49.4337 113.811 49.9823C113.476 50.1845 113.135 50.3542 112.76 50.4588C112.567 50.5122 112.357 50.6099 112.18 50.4518C111.994 50.2844 112.1 50.0729 112.161 49.887C112.317 49.4081 112.479 48.9316 112.56 48.4342C112.722 47.4277 112.14 46.9349 111.145 47.2394C109.905 47.616 108.892 49.608 109.328 50.8167C109.436 51.1166 109.651 51.3304 109.915 51.4932C110.28 51.7186 110.28 51.9836 110.061 52.3021C109.785 52.7019 109.486 53.0854 109.149 53.4341C108.458 54.1453 107.742 54.8334 107.032 55.5284C106.737 55.8189 106.386 56.0212 105.99 56.142C105.425 56.314 104.979 56.1002 104.769 55.5516C104.607 55.1239 104.642 54.6846 104.717 54.243C104.991 52.6089 105.545 51.0515 106.019 49.4709C106.186 48.913 106.346 48.3505 106.528 47.795C106.591 47.5997 106.766 47.351 106.535 47.186C106.332 47.0419 106.099 47.2022 105.908 47.3068C105.354 47.609 104.795 47.9019 104.248 48.2134C103.539 48.6202 103.407 48.5853 102.881 47.9414C102.318 47.2487 101.559 47.0209 100.696 47.1348C99.3313 47.3161 98.1952 47.9995 97.1769 48.8526C95.7084 50.0822 94.6713 51.5978 94.2824 53.4898C94.1975 53.9036 93.983 54.2104 93.6624 54.4917C93.0991 54.9845 92.5687 55.5121 91.9464 55.9421C91.0979 56.5279 90.1621 56.6162 89.1933 56.4489C88.1633 56.2699 87.2369 55.2053 87.1025 54.1663C87.0413 53.699 87.3453 53.5805 87.6918 53.4689C88.8398 53.104 89.9759 52.7158 90.9965 52.0603C91.4939 51.7419 91.9724 51.4002 92.3448 50.9353C92.9694 50.1543 93.1109 49.2617 92.7149 48.3831C92.3189 47.5067 91.4892 47.2511 90.5392 47.2069C88.3377 47.1046 86.9163 48.3459 85.6741 49.88C84.8185 50.9376 84.3282 52.1719 84.1491 53.5154C84.1113 53.806 84.0265 54.0663 83.8049 54.2662C83.0436 54.9635 82.3058 55.6888 81.4006 56.2118C81.1885 56.335 80.9669 56.4372 80.7336 56.5116C79.6163 56.8673 78.7347 56.4163 78.393 55.3145C78.0677 54.2639 78.1525 53.197 78.3765 52.1533C78.4872 51.6373 78.9704 51.3002 79.3099 50.9051C80.9457 49.0037 82.3694 46.9791 83.0836 44.5524C83.4726 43.2344 83.7271 41.8886 83.4749 40.5102C83.2934 39.5084 82.954 39.3433 81.9805 39.7152C81.238 39.9988 80.4884 40.2591 79.7459 40.5451C79.3829 40.6845 79.126 40.9146 78.9587 41.2587C77.2215 44.829 75.8473 48.5179 75.2391 52.4485C75.067 53.5596 74.9775 54.68 75.2061 55.8073C75.489 57.2089 76.42 58.2085 77.733 58.4362C78.4 58.5525 79.0341 58.3967 79.6493 58.1713C80.9929 57.6785 82.0866 56.8022 83.1638 55.9026C83.2581 55.8259 83.3382 55.7329 83.4325 55.6539C83.8945 55.2773 84.1137 55.3215 84.3164 55.8887C84.8727 57.4437 86.0159 58.2549 87.6353 58.4455C88.6087 58.5594 89.5445 58.3526 90.4285 57.9411C91.4915 57.446 92.399 56.7324 93.2688 55.9654C93.3301 55.9119 93.3843 55.8515 93.4456 55.798C93.9571 55.3355 94.0985 55.3703 94.2941 56.0165C94.3413 56.1699 94.3743 56.328 94.4285 56.4791C95.1097 58.3944 96.9412 59.0197 98.6572 57.8923C99.4256 57.3879 100.027 56.6929 100.632 56.0119C100.887 55.726 101.099 55.4005 101.361 55.1193C101.597 54.8636 101.792 54.9263 101.875 55.2611C101.934 55.4958 101.912 55.7422 101.908 55.9816C101.896 56.4535 101.995 56.9044 102.165 57.3368C102.495 58.1782 103.291 58.5734 104.185 58.3874C105.172 58.1806 105.889 57.5413 106.613 56.9254C108.298 55.4889 109.915 53.9873 111.089 52.0882C111.225 51.8674 111.428 51.7512 111.676 51.6884C112.131 51.5768 112.581 51.4443 113.024 51.2863C113.172 51.2328 113.352 51.1375 113.479 51.284C113.608 51.4327 113.479 51.5954 113.401 51.7233C112.675 52.9204 112.072 54.1663 111.716 55.5214C111.69 55.619 111.628 55.7027 111.529 55.7492C110.224 57.1532 108.953 58.5873 107.435 59.7867C104.064 62.4459 100.203 64.0567 96.0314 65.0167C94.2069 65.4375 92.3613 65.721 90.4945 65.8768C90.3955 65.8861 90.2894 65.8814 90.2375 65.993C87.5339 66 84.8397 66 82.1431 66Z" fill="#969DA7"/>
<path d="M34.0004 46.2119C34.1678 45.3914 34.295 44.5569 34.5119 43.748C35.7376 39.1944 39.8649 35.81 44.6311 35.3405C49.7625 34.8338 54.1609 36.5306 58.161 39.5384C61.8852 42.3371 63.7709 46.1236 64.3932 50.6097C64.8835 54.1568 64.6855 57.6551 63.7639 61.1255C63.2901 62.9107 62.286 64.1008 60.4427 64.6122C54.5192 66.2532 48.7325 66.0812 43.2215 63.2082C39.7942 61.4207 37.5762 58.4617 35.8696 55.1145C34.9103 53.234 34.3045 51.2397 34.0994 49.136C34.09 49.0431 34.0334 48.9547 33.998 48.8641C34.0004 47.9831 34.0004 47.0975 34.0004 46.2119Z" fill="#5D6776"/>
<path d="M111.519 55.7584C111.814 54.1453 112.596 52.739 113.494 51.2909C112.78 51.5256 112.151 51.7906 111.476 51.9045C111.293 51.9347 111.25 52.1207 111.165 52.2532C109.699 54.5567 107.67 56.3209 105.527 57.9806C105.447 58.0434 105.355 58.0875 105.268 58.1387C103.429 59.194 101.996 58.4896 101.756 56.4046C101.706 55.9723 101.704 55.5353 101.673 54.9728C101.039 55.7352 100.528 56.4465 99.9029 57.0648C99.3797 57.5808 98.8304 58.0527 98.1422 58.3432C96.7185 58.9452 95.4833 58.5664 94.6465 57.2833C94.3024 56.7556 94.1468 56.1629 93.9913 55.5144C93.1003 56.3302 92.2399 57.0973 91.2476 57.7017C90.0054 58.4571 88.6665 58.7825 87.2122 58.5385C85.7083 58.2874 84.716 57.4297 84.1997 56.0281C83.9687 55.3981 83.9758 55.3981 83.4431 55.863C82.6464 56.5557 81.819 57.2066 80.9068 57.7482C80.2916 58.1131 79.6481 58.4036 78.9339 58.5292C77.1048 58.8569 75.7141 58.0317 75.1672 56.2791C74.7594 54.9728 74.8844 53.6432 75.0918 52.3322C75.7259 48.3319 77.1236 44.5756 78.9457 40.9587C79.0706 40.71 79.2238 40.5403 79.4973 40.445C80.4566 40.1103 81.4089 39.7524 82.3659 39.4107C82.9929 39.1875 83.2687 39.3061 83.4926 39.9267C83.891 41.0285 83.7354 42.1558 83.5515 43.2646C83.073 46.1841 81.482 48.5504 79.6246 50.7748C79.5727 50.8376 79.5256 50.9073 79.4643 50.9561C78.0689 52.0951 78.2291 53.6107 78.5049 55.1006C78.7383 56.3628 79.7047 56.8091 80.8998 56.2861C82.0807 55.7677 82.9363 54.8287 83.8509 53.9709C84.0041 53.8268 83.9664 53.6385 83.9923 53.4642C84.3695 50.9701 85.6729 49.0594 87.8085 47.7019C88.7301 47.1162 89.7673 46.9302 90.8563 47.0371C92.8151 47.2277 93.732 49.0803 92.676 50.7191C92.1079 51.6 91.2452 52.1346 90.333 52.5995C89.4632 53.0435 88.551 53.3991 87.6082 53.6525C87.2004 53.7617 87.1674 53.9152 87.2782 54.2801C87.8698 56.228 89.7791 56.9881 91.6082 55.963C92.4851 55.4725 93.178 54.7473 93.8946 54.0616C94.102 53.864 94.0903 53.5828 94.1421 53.3317C94.7573 50.4215 97.5717 47.5671 100.403 47.0139C101.593 46.7815 102.595 47.0697 103.236 48.1575C103.387 48.4132 103.514 48.4295 103.762 48.2877C104.412 47.9135 105.077 47.5625 105.739 47.2068C105.899 47.1208 106.062 47.0209 106.234 46.9767C106.802 46.8349 106.925 46.9697 106.769 47.5137C106.123 49.7707 105.282 51.9766 104.879 54.2987C104.834 54.5544 104.81 54.8194 104.825 55.0774C104.876 55.9909 105.475 56.3047 106.3 55.8607C106.442 55.784 106.585 55.698 106.703 55.5911C107.854 54.5637 108.983 53.52 109.89 52.2648C110.1 51.9742 110.194 51.8139 109.779 51.5977C109.204 51.2978 108.992 50.7562 109.044 50.1193C109.119 49.2082 109.489 48.4179 110.06 47.7089C110.307 47.4021 110.63 47.1906 111.007 47.072C112.257 46.6815 112.917 47.2603 112.702 48.5341C112.596 49.1617 112.363 49.7544 112.167 50.4169C113.138 50.3007 113.859 49.8474 114.494 49.2337C114.991 48.7503 115.389 48.1924 115.74 47.5997C116.108 46.9767 116.471 46.8675 117.24 47.1534C116.504 49.171 115.722 51.1723 115.069 53.2178C114.89 53.778 114.762 54.3452 114.816 54.9356C114.901 55.8468 115.601 56.2163 116.436 55.7794C117.02 55.4749 117.428 54.9495 117.935 54.5497C118.487 54.1151 118.767 53.5944 118.878 52.8878C119.151 51.1328 119.828 49.4941 120.568 47.8832C120.643 47.7182 120.693 47.5648 120.924 47.5253C121.919 47.3509 122.909 47.1534 123.986 46.9488C123.505 48.376 122.984 49.7009 122.703 51.0445C123.481 50.3146 124.283 49.5615 125.082 48.813C125.765 48.1738 126.487 47.5834 127.363 47.2161C129.013 46.5281 130.204 47.3626 130.051 49.1222C129.928 50.5377 129.343 51.8325 128.858 53.1504C128.601 53.8477 128.316 54.5335 128.174 55.268C128.104 55.6352 128.056 56.0188 128.396 56.2652C128.759 56.5278 129.141 56.3628 129.483 56.1629C130.447 55.598 131.144 54.7496 131.969 53.8756C131.991 54.6636 132.151 55.3307 131.453 55.9235C130.463 56.7626 129.527 57.6668 128.316 58.1991C127.363 58.6175 126.357 58.9359 125.426 58.2061C124.483 57.4669 124.544 56.4162 124.721 55.3772C124.983 53.8431 125.659 52.4391 126.168 50.9817C126.274 50.6795 126.378 50.3704 126.425 50.0566C126.494 49.5987 126.234 49.4197 125.798 49.6103C125.442 49.7684 125.153 50.0287 124.872 50.2937C124.059 51.0584 123.333 51.9022 122.604 52.7436C121.996 53.4479 121.954 54.3243 121.838 55.1773C121.732 55.9537 121.683 56.7393 121.716 57.5227C121.728 57.8272 121.662 57.9876 121.31 58.0503C120.57 58.1828 119.832 58.3502 119.111 58.5547C118.758 58.6547 118.689 58.5501 118.675 58.2409C118.64 57.3786 118.588 56.5162 118.543 55.6469C118.312 55.6097 118.232 55.8119 118.109 55.9211C117.218 56.7184 116.309 57.4948 115.248 58.0736C115.158 58.1224 115.071 58.1758 114.981 58.22C112.966 59.2218 111.476 58.2897 111.524 56.0583C111.526 55.9583 111.521 55.8584 111.519 55.7584Z" fill="#344154"/>
<path d="M99.6616 40.0242C100.626 39.5616 100.899 38.2716 102.233 38.3669C101.932 38.8666 101.51 39.1734 101.147 39.5268C100.913 39.7522 100.894 39.9149 101.076 40.1846C101.587 40.9516 102.064 41.7396 102.563 42.5323C102.005 42.7043 101.665 42.5578 101.427 42.0767C101.215 41.6466 100.932 41.2468 100.656 40.8494C100.543 40.6867 100.489 40.324 100.258 40.4286C99.994 40.5495 99.6852 40.7657 99.6687 41.1353C99.6522 41.4956 99.6498 41.8582 99.6687 42.2185C99.6828 42.5044 99.5838 42.5997 99.2868 42.602C98.9686 42.6043 98.9238 42.4625 98.9238 42.1999C98.9309 40.4914 98.9309 38.7853 98.9238 37.0768C98.9238 36.8188 98.9615 36.677 99.2821 36.67C99.6428 36.6607 99.6687 36.8374 99.6663 37.1117C99.6545 38.0717 99.6616 39.0293 99.6616 40.0242Z" fill="#FEFEFE"/>
<path d="M90.1666 42.8347C89.2473 42.8347 88.7075 42.5372 88.5142 41.9189C88.4647 41.7561 88.2526 41.5074 88.5496 41.4168C88.7664 41.3494 89.0422 41.282 89.2119 41.6306C89.5018 42.228 90.1147 42.3907 90.7535 42.1188C91.0222 42.0049 91.199 41.8282 91.1919 41.5307C91.1872 41.2517 90.9939 41.0983 90.7441 41.0239C90.2962 40.8915 89.8413 40.7845 89.3958 40.6427C88.8701 40.4754 88.5001 40.1593 88.5095 39.5619C88.5213 38.9715 88.8371 38.5879 89.3863 38.3834C90.2467 38.0649 91.2579 38.3044 91.5879 38.8994C91.6893 39.0807 91.7788 39.2829 91.6751 39.4689C91.5856 39.6293 91.3805 39.5526 91.2249 39.5549C91.0811 39.5572 91.0128 39.4596 90.9703 39.3364C90.8242 38.9064 90.4659 38.8436 90.0817 38.8645C89.6975 38.8855 89.3109 38.9924 89.2591 39.4294C89.2072 39.8594 89.5749 39.9872 89.9191 40.0849C90.2703 40.1848 90.6238 40.2778 90.9751 40.3754C91.5361 40.5335 91.9156 40.8519 91.9297 41.4679C91.9438 42.0467 91.5879 42.4976 90.9586 42.7045C90.6969 42.7952 90.4188 42.8603 90.1666 42.8347Z" fill="#FEFDFD"/>
<path d="M92.6777 40.5682C92.6824 39.3641 93.2411 38.5203 94.1887 38.2925C95.0561 38.0833 96.0249 38.5715 96.2087 39.3223C96.2464 39.478 96.3666 39.7105 96.1097 39.7825C95.9094 39.8383 95.6572 39.8871 95.5582 39.5826C95.3955 39.0782 95.049 38.8062 94.5069 38.8644C93.9176 38.9271 93.6442 39.3316 93.5074 39.8569C93.3542 40.4403 93.366 41.0121 93.6159 41.563C93.8068 41.9814 94.1415 42.2232 94.6177 42.2255C95.082 42.2301 95.3743 41.9884 95.544 41.5723C95.6147 41.4003 95.6171 41.1679 95.9117 41.1679C96.1946 41.1679 96.3902 41.1632 96.2842 41.5561C96.105 42.2139 95.6336 42.6904 94.9547 42.8113C94.1981 42.9461 93.4438 42.63 93.0525 42.0047C92.7767 41.5677 92.6801 41.0796 92.6777 40.5682Z" fill="#FEFDFD"/>
<path d="M106.067 42.8323C105.455 42.837 105.181 42.5906 105.174 42.0118C105.165 41.1494 105.167 40.2894 105.174 39.427C105.176 39.1551 105.202 38.8924 104.79 38.9273C104.604 38.9436 104.554 38.8087 104.564 38.6484C104.571 38.5298 104.557 38.3648 104.726 38.3857C105.273 38.4485 105.16 38.0765 105.179 37.7697C105.193 37.521 105.044 37.1886 105.542 37.1863C106.037 37.1863 105.893 37.514 105.91 37.7651C105.926 38.0672 105.808 38.4461 106.357 38.3834C106.525 38.3648 106.515 38.5252 106.522 38.6437C106.529 38.8018 106.485 38.9412 106.298 38.925C105.891 38.8901 105.907 39.1458 105.91 39.4224C105.917 40.1825 105.912 40.9449 105.912 41.705C105.912 41.9258 105.884 42.1908 106.197 42.2094C106.468 42.2257 106.553 42.3303 106.522 42.579C106.48 42.8928 106.23 42.7928 106.067 42.8323Z" fill="#FEFEFD"/>
<path d="M97.9449 40.5404C97.9449 41.082 97.9355 41.6236 97.9497 42.1629C97.9567 42.4418 97.919 42.6091 97.5631 42.6022C97.2425 42.5952 97.2048 42.4511 97.2071 42.1954C97.2166 41.0541 97.2142 39.9105 97.2071 38.7692C97.2048 38.5135 97.2401 38.3671 97.5631 38.3601C97.919 38.3531 97.9567 38.5158 97.9497 38.7971C97.9355 39.3782 97.9449 39.9593 97.9449 40.5404Z" fill="#FEFEFE"/>
<path d="M103.949 40.4823C103.949 41.0425 103.939 41.605 103.954 42.1652C103.961 42.4464 103.921 42.6115 103.567 42.6022C103.244 42.5952 103.211 42.4488 103.211 42.1931C103.218 41.0518 103.218 39.9082 103.211 38.7669C103.209 38.5112 103.246 38.367 103.567 38.3601C103.923 38.3531 103.961 38.5181 103.954 38.7994C103.939 39.3596 103.949 39.9221 103.949 40.4823Z" fill="#FEFEFE"/>
<path d="M97.6016 36.6865C98.0211 36.6261 97.9269 36.9236 97.9457 37.1514C97.9693 37.4234 97.8821 37.5349 97.578 37.5466C97.1396 37.5628 97.2245 37.2886 97.2056 37.0352C97.182 36.726 97.3282 36.6424 97.6016 36.6865Z" fill="#FEFEFE"/>
<path d="M103.222 37.1586C103.184 36.8564 103.21 36.6728 103.578 36.6704C103.948 36.6681 103.955 36.8564 103.95 37.1214C103.946 37.3585 103.955 37.5491 103.611 37.5444C103.295 37.5398 103.137 37.4584 103.222 37.1586Z" fill="#FEFEFE"/>
<path d="M97.4426 54.2313C97.5887 52.2532 98.3242 50.5029 99.5475 48.9385C99.5734 48.906 99.6041 48.8804 99.63 48.8502C100.318 48.1296 101.075 47.8716 101.683 48.1505C102.261 48.4132 102.518 49.1152 102.416 50.1077C102.249 51.7604 101.636 53.255 100.738 54.645C100.417 55.1401 100.035 55.5841 99.498 55.87C98.4844 56.4093 97.5416 55.9072 97.4402 54.7729C97.4285 54.5939 97.4426 54.4126 97.4426 54.2313Z" fill="#969DA7"/>
<path d="M78.918 49.9822C79.4342 47.4253 79.9905 44.8823 81.037 42.4719C81.228 42.0279 81.4212 41.5863 81.7041 41.1911C81.8314 41.0145 81.9634 40.782 82.2227 40.8402C82.489 40.9006 82.5833 41.1493 82.6281 41.3934C82.7129 41.8536 82.6988 42.3208 82.6163 42.7741C82.1166 45.5332 80.7825 47.8832 78.918 49.9822Z" fill="#969DA7"/>
<path d="M87.0488 52.8623C87.0512 51.3862 87.3128 50.0334 88.2368 48.8735C88.3971 48.6713 88.5928 48.4854 88.8049 48.3319C89.1702 48.0693 89.5875 47.96 90.0094 48.1785C90.396 48.3784 90.4667 48.7596 90.4902 49.1571C90.561 50.3379 90.099 51.27 89.1325 51.9534C88.522 52.3904 87.8455 52.7019 87.0488 52.8623Z" fill="#969DA7"/>
</g>
<defs>
<clipPath id="clip0">
<rect x="34" y="14" width="98" height="52" fill="white"/>
</clipPath>
</defs>
</svg>
