<svg width="165" height="80" viewBox="0 0 165 80" fill="none" xmlns="http://www.w3.org/2000/svg">
<path d="M80.75 31.5971L86.7614 28.1729L92.6871 31.5971L86.7614 34.9651L80.75 31.6759V31.5971Z" fill="#757E8B"/>
<path d="M62.7148 21.4509L86.7606 8.00146L104.655 18.0182L98.7063 28.1756L86.7606 21.4509L68.7291 31.5295L62.7148 21.4509Z" fill="#5D6776"/>
<path d="M80.7514 45.0492V38.3442L86.6799 34.9678L92.6857 31.5998V38.3442L86.7599 41.6953V48.406L80.7485 51.8443L80.7514 45.0492ZM80.7514 31.597L74.7428 28.2459L68.7285 31.5295V24.8104L86.7599 14.7234V28.1728L80.7514 31.597ZM98.6228 24.8104V21.4481L104.654 18.0154L104.714 24.7401L98.7057 28.1728L98.6228 24.8104Z" fill="#4B5769"/>
<path d="M74.7434 48.2795V28.2461L80.6691 24.9625L80.752 31.5972L86.7634 34.906V41.6954L80.752 38.5441V51.8416L74.7434 48.2795ZM65.6777 29.7823L62.7148 28.035V21.451L68.7291 24.8134V31.5324L65.6777 29.7823ZM86.7606 21.451V14.7263L98.6234 21.451L98.7063 28.1757L86.7606 21.451Z" fill="#344154"/>
<path d="M41.7457 58.9236V71.7455H39.4543V58.9236H35V56.7092H46.2V58.9236H41.7457Z" fill="#344154"/>
<path d="M53.782 63.5887C53.982 64.2668 53.9878 65.1897 53.9678 65.2825L46.5706 67.4547C46.6335 67.9949 46.6106 67.7755 46.7878 68.1553C46.9678 68.5492 47.1792 68.8841 47.4449 69.126C47.7078 69.3652 48.002 69.5537 48.3192 69.6859C48.6363 69.8069 48.982 69.8688 49.3192 69.8688C49.7963 69.8688 50.2449 69.7957 50.6363 69.6241C51.0478 69.4637 51.4278 69.2555 51.8049 68.9741L53.142 70.3697C52.6363 70.848 52.0649 71.211 51.4335 71.4698C50.8192 71.7456 50.0706 71.8553 49.1849 71.8553C48.522 71.8553 47.882 71.7456 47.2792 71.4698C46.6763 71.211 46.1449 70.8255 45.702 70.3472C45.242 69.8294 44.8906 69.2245 44.6335 68.4958C44.362 67.767 44.2363 66.937 44.2363 66C44.2363 65.0237 44.3535 64.1739 44.6049 63.4452C44.8592 62.7165 45.1963 62.1172 45.6278 61.6135C46.0706 61.1211 46.5992 60.7413 47.2106 60.4937C47.8278 60.2292 48.5192 60.0997 49.2592 60.0997C50.0706 60.0997 50.7735 60.2545 51.382 60.5527C51.9906 60.8566 52.4935 61.2618 52.8849 61.7823C53.2935 62.3 53.5849 62.8853 53.782 63.5887ZM51.6335 64.0839C51.6106 63.7125 51.3363 63.2454 51.1049 62.9444C50.9106 62.6771 50.6106 62.4435 50.2963 62.3282C49.9592 62.1987 49.5049 62.1425 49.0992 62.1622C48.3478 62.1903 47.5163 62.4379 47.0935 63.0147C46.6706 63.5915 46.5535 64.5425 46.5678 65.5723L51.6335 64.0839ZM62.0935 71.6358V65.2432C62.0935 64.0839 61.882 63.2905 61.4649 62.8318C61.0535 62.3732 60.4735 62.1453 59.7278 62.1453C58.9735 62.1453 58.3963 62.4041 57.9906 62.8853C57.5735 63.403 57.3792 64.1008 57.3792 65.0152V71.633H55.1278V60.3361H57.3792V61.4165C57.6592 61.0001 58.0735 60.6794 58.5906 60.4486C59.1078 60.2207 59.662 60.0969 60.2535 60.0969C61.5963 60.0969 62.6135 60.5218 63.2992 61.3743C63.9906 62.2128 64.3392 63.4762 64.3392 65.1587V71.633L62.0935 71.6358ZM73.5763 68.6618C73.5763 69.2864 73.4592 69.8069 73.222 70.2459C72.9792 70.6539 72.662 71.0056 72.2678 71.2701C71.8678 71.5205 71.4192 71.7062 70.902 71.83C70.3849 71.9285 69.8506 71.996 69.282 71.996C68.4935 71.996 67.7049 71.8412 66.9335 71.5711C66.1478 71.301 65.4706 70.9662 64.882 70.5441L65.9135 68.8812C66.4535 69.2498 67.0078 69.5256 67.5878 69.7113C68.162 69.897 68.722 69.9898 69.2506 69.9898C70.6478 69.9898 71.3506 69.5734 71.3506 68.7434C71.3506 68.3269 71.1163 67.9584 70.6478 67.7051C70.1735 67.4547 69.522 67.1649 68.682 66.8526C68.0706 66.6247 67.5563 66.3883 67.1335 66.152C66.702 65.9297 66.3449 65.6511 66.082 65.3782C65.8163 65.1081 65.622 64.8211 65.4963 64.4694C65.3906 64.1458 65.3278 63.7463 65.3278 63.3102C65.3278 62.7924 65.422 62.3563 65.6135 61.9793C65.7992 61.591 66.0735 61.2562 66.4249 61.0114C66.7649 60.7413 67.182 60.5527 67.662 60.4205C68.1478 60.2939 68.6735 60.2292 69.2449 60.2292C69.962 60.2292 70.6649 60.3473 71.3506 60.5753C72.0163 60.8032 72.622 61.107 73.1306 61.4756L72.1478 63.1667C71.682 62.8543 71.2078 62.6067 70.7249 62.4407C70.2392 62.2916 69.722 62.2156 69.1735 62.2156C68.6249 62.2156 68.2192 62.3085 67.9792 62.5083C67.7249 62.6996 67.6078 62.9472 67.6078 63.2539C67.6078 63.3833 67.6335 63.5296 67.6963 63.6281C67.7506 63.7631 67.8563 63.8982 68.0249 64.0079C68.1735 64.1514 68.3992 64.2696 68.6649 64.4159C68.9278 64.5425 69.2935 64.7114 69.722 64.8774C70.3706 65.1081 70.9306 65.3613 71.4106 65.5611C71.882 65.7974 72.2963 66.0366 72.6249 66.318C72.9535 66.5993 73.1935 66.9426 73.3478 67.314C73.502 67.6826 73.5763 68.1412 73.5763 68.6618ZM84.0392 66.0535C84.0392 66.9876 83.9135 67.8261 83.6392 68.5633C83.3849 69.3005 83.0249 69.9167 82.5563 70.4428C82.0878 70.9324 81.5392 71.3263 80.9135 71.588C80.2906 71.8497 79.602 71.9988 78.8563 71.9988C78.1392 71.9988 77.462 71.8412 76.8506 71.5599C76.2392 71.2841 75.7106 70.9071 75.2563 70.3669C74.8135 69.866 74.4506 69.2526 74.2049 68.5155C73.942 67.8064 73.8192 67.0158 73.8192 66.1126C73.8192 65.1897 73.9478 64.3681 74.2078 63.6393C74.4735 62.9106 74.8278 62.3029 75.2849 61.7936C75.7535 61.2843 76.282 60.8904 76.9049 60.6287C77.5278 60.3642 78.1906 60.2235 78.9249 60.2235C79.6449 60.2235 80.3278 60.3614 80.9563 60.64C81.5649 60.9157 82.1278 61.3237 82.582 61.8189C83.0363 62.3254 83.3935 62.9359 83.6478 63.6534C83.9135 64.3765 84.0392 65.1925 84.0392 66.0535ZM81.7592 66.1154C81.7592 64.9618 81.5106 64.0417 80.9935 63.3467C80.4763 62.6911 79.7535 62.3338 78.8449 62.3338C77.9792 62.3338 77.3049 62.6883 76.8249 63.3467C76.3306 64.0417 76.0878 64.9308 76.0878 66.0535C76.0878 67.314 76.3563 68.2425 76.882 68.8981C77.3992 69.5537 78.0963 69.8998 78.9449 69.8998C79.3678 69.8998 79.7535 69.7957 80.1135 69.5903C80.4535 69.3821 80.7592 69.1176 81.0078 68.794C81.2449 68.4339 81.4335 68.0568 81.5706 67.5954C81.7049 67.1283 81.7592 66.6444 81.7592 66.1154ZM91.2935 62.8009C91.0392 62.6968 90.7878 62.5927 90.522 62.5139C90.2592 62.4351 89.9363 62.4041 89.5563 62.4041C88.8392 62.4041 88.2906 62.6433 87.8963 63.1413C87.5078 63.6197 87.3078 64.3568 87.3078 65.2938V71.7428H85.0592V60.4599H87.3078V61.5403C87.5649 61.1661 87.9363 60.8594 88.3906 60.6006C88.8449 60.3614 89.3563 60.2264 89.9278 60.2264C90.3935 60.2264 90.7763 60.2742 91.082 60.3502C91.382 60.4233 91.6478 60.5499 91.862 60.6991L91.2935 62.8009Z" fill="#344154"/>
<path d="M95.0468 58.9236V62.8628H99.4497V65.0771H95.0468V71.7456H92.7754V56.7093H102.624V58.9236H95.0468ZM102.995 71.7456V57.241L105.244 56.0762V71.7456H102.995ZM116.707 66.0535C116.707 66.9876 116.598 67.8261 116.324 68.5633C116.053 69.3005 115.693 69.9167 115.23 70.4428C114.764 70.9324 114.227 71.3263 113.61 71.588C112.961 71.8497 112.298 71.9988 111.547 71.9988C110.81 71.9988 110.138 71.8412 109.541 71.5599C108.921 71.2841 108.393 70.9071 107.947 70.3669C107.504 69.866 107.138 69.2527 106.875 68.5155C106.633 67.8064 106.49 67.0158 106.49 66.1126C106.49 65.1897 106.635 64.3681 106.89 63.6394C107.144 62.9106 107.51 62.3029 107.981 61.7936C108.444 61.2843 108.973 60.8904 109.575 60.6287C110.215 60.3642 110.884 60.2235 111.615 60.2235C112.335 60.2235 113.018 60.3614 113.633 60.64C114.258 60.9157 114.821 61.3237 115.273 61.8189C115.727 62.3254 116.075 62.9359 116.321 63.6534C116.604 64.3765 116.707 65.1925 116.707 66.0535ZM114.45 66.1154C114.45 64.9618 114.181 64.0417 113.681 63.3467C113.144 62.6911 112.441 62.3338 111.533 62.3338C110.667 62.3338 109.987 62.6883 109.493 63.3467C109.013 64.0417 108.767 64.9308 108.767 66.0535C108.767 67.314 109.021 68.2425 109.567 68.8981C110.075 69.5537 110.781 69.8998 111.633 69.8998C112.047 69.8998 112.438 69.7957 112.778 69.5903C113.133 69.3821 113.421 69.1176 113.693 68.794C113.927 68.4339 114.115 68.0568 114.258 67.5954C114.375 67.1283 114.45 66.6444 114.45 66.1154ZM127.81 71.7456H125.887L124.338 66.0535C124.21 65.623 124.11 65.1925 124.013 64.7282C123.898 64.2724 123.821 63.9123 123.738 63.6422C123.664 64.0079 123.584 64.3709 123.501 64.7339C123.39 65.1925 123.27 65.6483 123.173 66.0844L121.638 71.7456H119.701L116.57 60.4627H118.787L120.158 65.9409C120.264 66.3911 120.367 66.8554 120.467 67.314C120.573 67.7783 120.647 68.1469 120.73 68.4226L121.015 67.314C121.113 66.8526 121.23 66.3911 121.355 65.9409L122.893 60.4627H124.681L126.253 65.9719C126.364 66.4136 126.461 66.8554 126.575 67.314C126.69 67.7783 126.781 68.1469 126.844 68.4226C126.924 68.1469 127.015 67.7727 127.113 67.3056C127.204 66.8554 127.301 66.3911 127.415 65.9409L128.787 60.4627H130.998L127.81 71.7456Z" fill="#4B5769"/>
</svg>
