<svg width="165" height="80" viewBox="0 0 165 80" fill="none" xmlns="http://www.w3.org/2000/svg">
<g clip-path="url(#clip0)">
<path d="M42.0588 63.8823C42.0588 64.5119 42.0588 65.1441 42.0588 65.7737C42.0588 67.1138 41.5377 67.488 40.2624 67.1593C39.7587 67.0303 39.8828 66.689 39.8803 66.3881C39.8679 64.7901 39.8034 63.187 39.9002 61.5966C39.9647 60.5397 39.5751 60.3172 38.6422 60.3703C37.3669 60.4436 36.0842 60.3475 34.8064 60.4057C33.9727 60.4436 33.9926 59.9606 34.0025 59.369C34.0124 58.8051 33.9306 58.2792 34.7865 58.3121C36.1884 58.3677 37.5927 58.2918 38.9946 58.3424C39.7166 58.3677 39.9126 58.1072 39.8902 57.4018C39.8431 55.9732 39.9349 54.5395 39.853 53.116C39.8009 52.2108 40.1805 52.1122 40.9199 52.1071C41.704 52.1021 42.1406 52.2007 42.0786 53.1767C41.9942 54.5168 42.1059 55.8695 42.0389 57.2096C41.9967 58.0668 42.2076 58.4031 43.1108 58.3475C44.3861 58.2665 45.6713 58.3778 46.9466 58.3095C47.7678 58.2665 47.9068 58.618 47.8869 59.3437C47.8671 60.0036 47.8671 60.4562 46.9913 60.4082C45.6341 60.3323 44.2694 60.4132 42.9073 60.3753C42.2721 60.3576 42.0116 60.5574 42.0464 61.2325C42.0935 62.1149 42.0588 62.9999 42.0588 63.8823Z" fill="#344154"/>
<path d="M130.973 60.4714C130.971 61.3969 130.988 62.3223 130.966 63.2477C130.956 63.6649 130.931 64.0973 130.812 64.4918C130.268 66.2819 128.249 67.2731 125.785 66.9899C123.48 66.727 122.145 65.5487 122.061 63.5183C121.976 61.4601 122.058 59.3943 122.016 57.3336C121.994 56.3045 122.696 56.618 123.21 56.5826C123.748 56.5447 124.274 56.4663 124.249 57.3589C124.197 59.2502 124.197 61.1465 124.249 63.0379C124.301 64.8786 125.72 65.8496 127.413 65.2554C128.415 64.9039 128.78 64.0923 128.792 63.0884C128.812 61.278 128.852 59.4676 128.785 57.6623C128.75 56.7394 129.085 56.5624 129.916 56.5447C130.809 56.527 131.06 56.8304 130.995 57.6926C130.921 58.6155 130.976 59.546 130.973 60.4714Z" fill="#344154"/>
<path d="M86.1057 59.1312C86.1057 62.0289 86.0784 64.9291 86.1231 67.8268C86.1355 68.6435 86.0164 69.0227 85.081 68.9975C84.2572 68.9772 83.9595 68.8205 83.9669 67.9001C84.0091 62.0618 84.0091 56.2209 83.9669 50.3801C83.9595 49.4825 84.2225 49.2827 85.0686 49.265C85.9916 49.2473 86.1355 49.5988 86.1231 50.4307C86.0784 53.3334 86.1057 56.2311 86.1057 59.1312Z" fill="#344154"/>
<path d="M85.9908 30.956C85.9908 31.4187 85.966 31.884 85.9958 32.3442C86.0404 32.9915 85.9064 33.3505 85.1348 33.348C84.3805 33.3455 84.2441 33.0168 84.2689 32.3568C84.3086 31.3479 84.2565 30.3365 84.2887 29.3277C84.3086 28.7234 84.0704 28.5009 83.4923 28.5135C82.542 28.5388 81.5917 28.4933 80.6439 28.5261C80.0113 28.5464 79.8996 28.2253 79.8946 27.6715C79.8897 27.0975 80.0485 26.8169 80.6638 26.8396C81.5719 26.875 82.4825 26.8118 83.3881 26.8599C84.1076 26.8978 84.326 26.5969 84.2937 25.899C84.249 24.8902 84.316 23.8788 84.2689 22.8699C84.2366 22.1695 84.5468 22.038 85.1497 22.0279C85.7997 22.0178 86.0255 22.258 86.0007 22.9103C85.961 23.9192 86.0305 24.9331 85.9784 25.9395C85.9387 26.6803 86.229 26.8953 86.9138 26.8599C87.7797 26.8143 88.6481 26.87 89.514 26.8422C90.0772 26.8245 90.3278 26.9964 90.3278 27.6235C90.3253 28.2429 90.1864 28.5894 89.5041 28.5236C89.1369 28.4882 88.7622 28.5186 88.3901 28.5186C85.9908 28.5236 85.9908 28.5236 85.9908 30.956Z" fill="#344154"/>
<path d="M94.0037 17.1606C94.0037 19.3098 94.0062 19.2516 96.1772 19.3477C96.7478 19.373 97.9016 18.6675 97.8768 19.9925C97.8544 21.1455 96.7975 20.5614 96.2293 20.5791C94.0062 20.6499 94.0037 20.6069 94.0062 22.832C94.0062 23.1683 94.0037 23.5046 94.0062 23.8409C94.0136 24.3921 94.1005 24.9281 93.2346 24.9079C92.3364 24.8877 92.5374 24.2834 92.5249 23.7726C92.5101 23.0596 92.4704 22.3389 92.5349 21.631C92.6143 20.7662 92.2495 20.5336 91.468 20.5943C90.7708 20.6499 90.0661 20.5917 89.3665 20.6069C88.9149 20.617 88.6841 20.4552 88.6817 19.9571C88.6792 19.459 88.9025 19.2845 89.359 19.3073C89.6468 19.3224 89.9371 19.3073 90.2249 19.3073C92.5225 19.3047 92.5225 19.3047 92.5225 16.9052C92.5225 16.4855 92.5423 16.0632 92.52 15.6435C92.4877 15.0139 92.8872 15.0113 93.3288 15.0012C93.7829 14.9911 94.0285 15.1352 94.0062 15.6435C93.9839 16.1517 94.0012 16.6574 94.0037 17.1606Z" fill="#344154"/>
<path d="M77.6931 38.1117C77.6931 38.5744 77.6683 39.0397 77.7006 39.4999C77.7403 40.0789 77.5492 40.314 76.9364 40.3166C76.2689 40.3191 76.2144 39.9651 76.2168 39.4442C76.2193 38.3519 76.5865 36.9461 76.0605 36.2533C75.5023 35.5149 74.0533 36.056 72.9963 36.0105C72.5199 35.9903 72.3438 35.8361 72.3438 35.3481C72.3413 34.8702 72.4852 34.6628 72.979 34.6805C73.763 34.7083 74.5495 34.6451 75.3311 34.6982C76.0531 34.7488 76.2714 34.453 76.2367 33.7526C76.192 32.8727 76.2441 31.9851 76.2193 31.1027C76.202 30.5515 76.4253 30.3669 76.9513 30.3745C77.445 30.3795 77.7254 30.4832 77.703 31.0673C77.6708 31.9497 77.7452 32.8373 77.6807 33.7172C77.6236 34.5187 77.9338 34.7539 78.6756 34.7008C79.415 34.6477 80.1618 34.6982 80.9037 34.6856C81.323 34.678 81.6034 34.7362 81.6059 35.2899C81.6059 35.8436 81.4074 36.0333 80.8789 36.008C80.2189 35.9751 79.5515 36.0661 78.8989 35.9852C77.9115 35.8639 77.5393 36.2431 77.6881 37.2318C77.7278 37.515 77.6931 37.8159 77.6931 38.1117Z" fill="#344154"/>
<path d="M92.5274 32.5367C92.5274 32.0739 92.5596 31.6062 92.5199 31.1485C92.4654 30.5088 92.768 30.3773 93.3263 30.3723C93.8796 30.3647 94.0756 30.5821 94.0111 31.1106C94.0061 31.151 94.0086 31.194 94.0111 31.237C94.0334 32.3268 93.6613 33.7276 94.1873 34.4254C94.753 35.1764 96.1945 34.6151 97.2515 34.6783C97.6832 34.7036 97.9313 34.7719 97.9387 35.3054C97.9462 35.8819 97.7154 36.0285 97.2018 36.0083C96.4178 35.9779 95.6288 36.0361 94.8472 35.9906C94.2121 35.9527 93.959 36.1524 93.9987 36.8351C94.0508 37.758 93.9863 38.6885 94.021 39.6139C94.0434 40.193 93.7878 40.3169 93.2816 40.3093C92.7929 40.3017 92.5026 40.2107 92.5224 39.619C92.5547 38.6506 92.505 37.6822 92.5398 36.7137C92.5596 36.1676 92.381 35.9653 91.8376 35.9906C91.0139 36.0285 90.1852 35.9754 89.359 36.0083C88.8057 36.031 88.6518 35.7908 88.6543 35.2649C88.6568 34.7036 88.9769 34.6732 89.3813 34.6859C89.7113 34.696 90.0413 34.6884 90.3738 34.6884C92.5274 34.6884 92.5274 34.6884 92.5274 32.5367Z" fill="#344154"/>
<path d="M77.639 22.8626C77.639 23.3253 77.6241 23.7905 77.6415 24.2533C77.6613 24.7564 77.4157 24.898 76.9592 24.898C76.4877 24.9006 76.2868 24.716 76.2917 24.233C76.3041 23.3076 76.2644 22.3796 76.3041 21.4542C76.3314 20.8044 76.1106 20.5389 75.4556 20.5718C74.6319 20.6122 73.8032 20.5667 72.9769 20.5819C72.4758 20.592 72.3467 20.3341 72.3517 19.8764C72.3567 19.4264 72.58 19.2999 72.9745 19.305C73.7585 19.3151 74.5475 19.262 75.3291 19.3176C76.1081 19.3733 76.3513 19.0496 76.3066 18.2911C76.257 17.4516 76.3091 16.6071 76.2917 15.7651C76.2818 15.2644 76.4059 14.9838 76.979 14.9914C77.5621 14.9964 77.6539 15.3024 77.644 15.7904C77.6266 16.6753 77.6688 17.5603 77.6291 18.4428C77.5993 19.1052 77.8474 19.348 78.4925 19.3126C79.2765 19.2721 80.0631 19.3075 80.8471 19.3025C81.249 19.2999 81.5766 19.3328 81.589 19.8891C81.6038 20.4807 81.3011 20.5996 80.8173 20.5819C80.3211 20.5642 79.8249 20.5718 79.3286 20.5793C77.4107 20.6046 77.6588 20.3316 77.639 22.3544C77.639 22.5238 77.639 22.6932 77.639 22.8626Z" fill="#344154"/>
<path d="M88.4234 39.9883C88.4433 40.317 88.3713 40.585 87.9818 40.5951C87.6096 40.6052 87.2325 40.6457 86.8677 40.5926C85.9969 40.4712 85.657 40.8151 85.7711 41.7051C85.8257 42.1198 85.7612 42.5471 85.7835 42.9668C85.8108 43.47 85.5825 43.6243 85.1161 43.6141C84.6992 43.6066 84.5032 43.4523 84.5256 43.0199C84.5355 42.8531 84.5256 42.6837 84.5231 42.5142C84.4958 40.676 84.4958 40.6786 82.7391 40.5976C82.3595 40.5799 81.8658 40.7418 81.8633 40.0464C81.8608 39.3789 82.3198 39.475 82.7242 39.4598C82.9302 39.4522 83.1411 39.4345 83.3445 39.4623C84.2328 39.5888 84.6794 39.2929 84.5355 38.2992C84.4759 37.8871 84.5404 37.4572 84.5256 37.0375C84.5107 36.5976 84.7216 36.4484 85.126 36.4585C85.4882 36.4661 85.8009 36.4964 85.7785 36.9819C85.7736 37.1083 85.7686 37.2347 85.7835 37.3612C85.853 38.0186 85.4982 38.8252 85.9621 39.3005C86.3839 39.7304 87.1456 39.4118 87.756 39.4522C88.1133 39.48 88.4259 39.5154 88.4234 39.9883Z" fill="#344154"/>
<path d="M97.6128 24.1318C98.0148 24.0964 98.2331 24.2127 98.2306 24.6046C98.2282 24.8979 98.2728 25.1988 98.2306 25.4871C98.0421 26.7488 98.4341 27.3632 99.7962 27.1559C100.178 27.0977 100.903 26.817 100.883 27.702C100.866 28.5693 100.154 28.2785 99.7665 28.2254C98.5011 28.056 98.0098 28.5314 98.2257 29.8133C98.2803 30.1395 98.2306 30.4859 98.2232 30.8222C98.2158 31.2394 97.928 31.2596 97.6228 31.2571C97.3226 31.2546 97.0273 31.2445 97.005 30.8273C96.995 30.6604 96.9975 30.491 96.9901 30.3215C96.9231 28.4125 96.9256 28.4024 95.1069 28.2558C94.7049 28.2229 94.37 28.2153 94.3874 27.6565C94.4047 27.0674 94.8017 27.1382 95.1664 27.1281C95.4146 27.1205 95.6676 27.0952 95.9083 27.1331C96.7891 27.2671 97.1042 26.8828 96.9975 26.0079C96.9479 25.5933 97.005 25.1659 96.9876 24.7462C96.9727 24.2481 97.1985 24.0534 97.6128 24.1318Z" fill="#344154"/>
<path d="M85.0395 12C85.3546 12 85.5308 12.0834 85.5556 12.3363C85.5804 12.5866 85.5854 12.8395 85.5879 13.0898C85.6176 14.7637 85.6176 14.7561 87.3073 14.8269C87.672 14.842 88.2452 14.6347 88.2129 15.3225C88.1807 15.9874 87.61 15.7472 87.2502 15.7599C85.6226 15.8206 85.6375 15.8105 85.5779 17.5602C85.5655 17.9496 85.8459 18.6272 85.0892 18.5943C84.382 18.564 84.645 17.9091 84.6326 17.5071C84.578 15.8686 84.5929 15.8711 82.9008 15.7649C82.5584 15.7447 82.082 15.8812 82.0919 15.2845C82.1019 14.6878 82.5807 14.8446 82.9182 14.8243C84.5532 14.7283 84.5483 14.7333 84.6277 12.9406C84.645 12.5613 84.4788 12.048 85.0395 12Z" fill="#344154"/>
<path d="M72.3114 24.3847C72.6365 24.3695 72.8424 24.458 72.8598 24.7842C72.8722 24.994 72.8747 25.2039 72.8796 25.4138C72.9168 27.123 72.9168 27.118 74.5445 27.204C74.8844 27.2217 75.3806 27.0649 75.4054 27.6338C75.4327 28.3089 74.8571 28.1977 74.5048 28.137C73.098 27.8993 72.6786 28.5213 72.8598 29.8639C72.9094 30.2331 73.16 30.9133 72.4454 30.9613C71.6862 31.0119 71.9542 30.3317 71.9393 29.9373C71.8772 28.2432 71.8921 28.2482 70.2521 28.1623C69.9147 28.1446 69.4259 28.3165 69.3961 27.7324C69.3614 27.0497 69.9072 27.2191 70.2844 27.2014C71.8822 27.123 71.8748 27.1281 71.9343 25.3885C71.9467 25.0193 71.7333 24.5086 72.3114 24.3847Z" fill="#344154"/>
<path fill-rule="evenodd" clip-rule="evenodd" d="M68.9434 57.0551C68.9404 57.6622 68.9374 58.2691 68.9374 58.8759C68.9523 58.8759 68.9672 58.8759 68.9845 58.8784C68.9845 59.425 68.9847 59.9716 68.9849 60.5182C68.9853 62.1587 68.9858 63.7993 68.9821 65.4399C68.9819 65.4669 68.9817 65.4937 68.9814 65.5203C68.9772 66.0005 68.9734 66.4201 69.6222 66.5878C71.364 67.0354 73.1007 67.3059 74.8748 66.828C76.351 66.4311 77.5321 65.5966 78.0729 64.1099C78.852 61.9733 78.7825 59.8494 77.3112 58.0288C75.9168 56.3019 74.0113 56.0844 72.009 56.6635C71.2324 56.8885 71.0935 56.6407 71.1208 55.9201C71.1387 55.4198 71.1302 54.9186 71.1218 54.4179C71.1103 53.7392 71.0988 53.0614 71.1531 52.3878C71.2293 51.4424 70.7646 51.4241 70.1852 51.4013C70.1044 51.3981 70.0214 51.3949 69.9373 51.389C69.1111 51.3308 68.8952 51.6216 68.9175 52.4409C68.9585 53.9783 68.9509 55.517 68.9434 57.0551ZM71.1288 61.4895C71.1309 61.581 71.1331 61.6724 71.1331 61.7634C71.1323 61.9651 71.1378 62.1679 71.1434 62.3707C71.1552 62.8009 71.1671 63.2312 71.1182 63.6521C71.0164 64.5169 71.3836 64.8835 72.1776 64.9619C73.448 65.0883 74.7183 65.0883 75.5619 63.9429C76.4576 62.7267 76.3881 61.3209 75.8423 59.9858C75.3163 58.6988 73.8896 58.2487 72.2297 58.5446C71.0425 58.7553 71.0863 59.4917 71.1305 60.2342C71.1436 60.4537 71.1567 60.6738 71.138 60.8809C71.1192 61.0816 71.124 61.2858 71.1288 61.4895Z" fill="#344154"/>
<path fill-rule="evenodd" clip-rule="evenodd" d="M116.448 62.61C116.449 62.214 116.45 61.8181 116.45 61.4222H116.45C116.465 61.4222 116.482 61.4222 116.5 61.4247C116.5 61.0584 116.501 60.6921 116.503 60.3259C116.508 59.3901 116.512 58.4548 116.487 57.5207C116.485 57.4199 116.502 57.3037 116.519 57.1843C116.572 56.8213 116.628 56.4293 116.16 56.355C116.062 56.3396 115.958 56.3181 115.851 56.2959C115.307 56.1835 114.677 56.0531 114.366 56.5978C114.13 57.0118 113.962 56.9228 113.777 56.8243C113.727 56.7976 113.676 56.7703 113.622 56.752C110.614 55.7356 107.898 57.063 107.148 59.9228C106.228 63.4298 107.808 66.2769 111.046 66.9318C112.659 67.2579 114.234 67.0051 115.807 66.598C116.398 66.4438 116.46 66.0822 116.455 65.579C116.444 64.5893 116.446 63.5997 116.448 62.61ZM114.274 62.456C114.281 62.2962 114.288 62.1365 114.288 61.9782C114.295 61.9782 114.303 61.9782 114.308 61.9808C114.308 61.7762 114.308 61.5719 114.308 61.3677C114.309 60.8574 114.31 60.3476 114.305 59.8366C114.305 59.8103 114.304 59.7842 114.304 59.7583C114.302 59.4633 114.3 59.1961 113.99 58.9567C112.645 57.92 110.209 58.5193 109.534 60.0945C108.39 62.7646 109.921 65.0934 112.757 65.0428C113.801 65.0226 114.523 64.8051 114.3 63.4878C114.244 63.1532 114.259 62.8044 114.274 62.456Z" fill="#344154"/>
<path fill-rule="evenodd" clip-rule="evenodd" d="M62.0107 62.5536C62.0129 62.1453 62.015 61.737 62.015 61.3287C62.0249 61.3287 62.0374 61.3287 62.0448 61.3262C62.0448 60.9533 62.0464 60.5807 62.048 60.2081C62.0521 59.277 62.0561 58.3464 62.0349 57.4146C62.0331 57.3254 62.0463 57.2228 62.0598 57.1172C62.1032 56.7797 62.1505 56.4111 61.7272 56.3476C61.6258 56.3327 61.5156 56.3107 61.4012 56.2879C60.8743 56.1829 60.2585 56.0601 60.0078 56.5296C59.7206 57.0639 59.4888 56.9268 59.2542 56.788C59.1869 56.7481 59.1193 56.7081 59.0501 56.6839C56.3183 55.7281 53.599 57.0429 52.7778 59.7307C51.7803 63 53.1896 66.0443 56.0826 66.8181C57.807 67.2808 59.5091 67.0709 61.2186 66.6436C61.8984 66.4742 62.0423 66.1278 62.0249 65.4931C62.0004 64.5133 62.0056 63.5334 62.0107 62.5536ZM59.8707 62.2019C59.8646 62.1209 59.8585 62.0399 59.8585 61.9608H59.8933C59.8933 61.7785 59.8861 61.5953 59.879 61.4121C59.8631 61.0033 59.8472 60.5948 59.9106 60.1985C60.0794 59.1365 59.4715 58.7699 58.6477 58.5549C57.3253 58.2111 55.983 58.6662 55.3354 59.6574C54.596 60.7952 54.6457 62.9393 55.4347 63.9634C56.1914 64.9444 57.9208 65.4046 59.3028 64.8863C60.0277 64.6144 59.9425 64.0835 59.8566 63.5488C59.81 63.2581 59.7631 62.9663 59.8461 62.7143C59.8973 62.5579 59.884 62.38 59.8707 62.2019Z" fill="#344154"/>
<path fill-rule="evenodd" clip-rule="evenodd" d="M99.2541 67.0455C101.229 66.6586 101.291 66.5727 101.122 64.4133C100.913 64.4749 100.713 64.5392 100.518 64.6017C100.088 64.7395 99.6852 64.8687 99.2739 64.9418C98.6263 65.0556 97.9589 65.1162 97.3064 65.0884C95.8648 65.0303 94.8426 64.2338 94.4953 63.0403C94.3141 62.4158 94.3811 62.1276 95.1329 62.1478C95.9783 62.1697 96.8247 62.1643 97.6713 62.1588C98.6806 62.1523 99.6901 62.1458 100.698 62.1857C101.621 62.2211 101.792 61.8722 101.725 61.0277C101.519 58.4663 99.9314 56.671 97.5992 56.4612C94.8922 56.2184 92.8428 57.6496 92.225 60.216C91.1383 64.7268 94.4903 67.9836 99.2541 67.0455ZM98.4349 58.7647C97.0554 57.9227 95.2962 58.6736 94.5742 60.4891C94.6317 60.4994 94.6791 60.5092 94.7198 60.5175C94.7984 60.5337 94.8519 60.5447 94.9042 60.5447C95.197 60.5454 95.4897 60.5482 95.7824 60.551C96.5539 60.5584 97.3251 60.5658 98.0949 60.5346C98.2076 60.5297 98.3387 60.55 98.4721 60.5706C98.8205 60.6246 99.1844 60.6809 99.276 60.2969C99.4223 59.6724 99.008 59.1136 98.4349 58.7647Z" fill="#344154"/>
</g>
<defs>
<clipPath id="clip0">
<rect x="34" y="12" width="97" height="57" fill="white"/>
</clipPath>
</defs>
</svg>
