<svg width="36" height="37" viewBox="0 0 36 37" fill="none" xmlns="http://www.w3.org/2000/svg">
<path d="M7.10547 8.27889L21.0569 1.60645L35.0084 8.27889L35.615 23.4435L21.0569 30.116L15.5977 28.9028L14.9911 23.4435L8.31864 21.0172L7.10547 21.6238V8.27889Z" fill="url(#paint0_linear)"/>
<path d="M1.30112 23.6029V23.6191C1.28412 23.6292 1.26566 23.6445 1.25069 23.667C1.24846 23.6703 1.24638 23.6737 1.24445 23.6772C1.03534 23.8207 0.875 24.0788 0.875 24.3785V31.8937C0.875 32.2166 1.06 32.4843 1.31804 32.6563L1.32533 32.6612L1.33323 32.665L8.34485 36.0352L8.35198 36.0386L8.35948 36.0411C8.37829 36.0474 8.39737 36.0543 8.41689 36.0613C8.50083 36.0917 8.59308 36.125 8.70891 36.125C8.82474 36.125 8.91699 36.0917 9.00093 36.0613C9.02045 36.0543 9.03953 36.0474 9.05834 36.0411L9.06584 36.0386L9.07297 36.0352L16.0846 32.665L16.0846 32.665L16.0863 32.6641C16.3623 32.5261 16.5428 32.2497 16.5428 31.8937V29.1486L20.5473 31.0767L20.5545 31.0801L20.562 31.0826C20.5808 31.0889 20.5999 31.0958 20.6195 31.1028C20.7034 31.1332 20.7956 31.1665 20.9115 31.1665C21.0273 31.1665 21.1195 31.1332 21.2034 31.1028C21.223 31.0958 21.2421 31.0889 21.2609 31.0826L21.2685 31.0801L21.2756 31.0766L35.3376 24.2974L35.3392 24.2966C35.6152 24.1587 35.7957 23.8822 35.7957 23.5263V8.46683C35.8368 8.1886 35.6648 7.96895 35.5071 7.84024C35.5025 7.83118 35.4968 7.82228 35.4899 7.81369C35.468 7.78627 35.4412 7.77162 35.4264 7.76423C35.4117 7.75688 35.3936 7.74962 35.3823 7.74492C35.3688 7.73929 35.3548 7.7333 35.3393 7.72549L35.3377 7.72476L21.3145 0.945568L21.3146 0.945293L21.3065 0.942048C21.083 0.852651 20.8174 0.852651 20.5939 0.942048L20.5938 0.941782L20.5861 0.945446L6.56289 7.6859L6.56289 7.68589L6.56114 7.68676C6.28518 7.82474 6.10466 8.1012 6.10466 8.45711V21.2786L1.37168 23.5687L1.30112 23.6029ZM21.3142 7.7246L21.3143 7.72435L21.3065 7.72124C21.083 7.63184 20.8174 7.63184 20.5939 7.72124L20.5938 7.72098L20.5862 7.7246L13.9387 10.9139L8.84202 8.4572L20.9502 2.63014L33.0584 8.4572L27.9617 10.9139L21.3142 7.7246ZM16.5816 27.2857V24.3398C16.5816 24.0169 16.3966 23.7493 16.1385 23.5772L16.1312 23.5724L16.1233 23.5686L9.11171 20.1984L9.11183 20.1981L9.10398 20.195C8.88049 20.1056 8.61481 20.1056 8.39132 20.195L8.39122 20.1947L8.384 20.1982L7.74924 20.5004V9.78027L13.0775 12.3704V19.3813C13.0775 19.7042 13.2625 19.9718 13.5206 20.1439L13.5279 20.1487L13.5359 20.1526L20.0892 23.2951V28.9836L16.6694 27.3465C16.6662 27.3421 16.6627 27.3377 16.6589 27.3334C16.6337 27.3051 16.6035 27.2921 16.5816 27.2857ZM28.4188 20.1261H28.4397L28.4763 20.0895C28.4799 20.0859 28.4826 20.0838 28.5019 20.0742L28.5041 20.0731C28.524 20.0632 28.5587 20.0459 28.5925 20.012L28.5926 20.012L28.5926 20.012L28.5926 20.012L28.5926 20.012L28.5926 20.012L28.5926 20.0119L28.5926 20.0119L28.5926 20.0119L28.5926 20.0119L28.5927 20.0119L28.5927 20.0119L28.5927 20.0119L28.5927 20.0119L28.5927 20.0119L28.5927 20.0118L28.5927 20.0118L28.5927 20.0118L28.5928 20.0118L28.5928 20.0118L28.5928 20.0118L28.5928 20.0118L28.5928 20.0117L28.5928 20.0117L28.5929 20.0117L28.5929 20.0117L28.5929 20.0117L28.5929 20.0117L28.5929 20.0116L28.5929 20.0116L28.5929 20.0116L28.593 20.0116L28.593 20.0116L28.593 20.0116L28.593 20.0116L28.593 20.0116L28.593 20.0115L28.593 20.0115L28.593 20.0115L28.5931 20.0115L28.5931 20.0115L28.5931 20.0115L28.5931 20.0115L28.5931 20.0115L28.5931 20.0114L28.5931 20.0114L28.5931 20.0114L28.5932 20.0114L28.5932 20.0114L28.5932 20.0114L28.5932 20.0114L28.5932 20.0113L28.5932 20.0113L28.5933 20.0113L28.5933 20.0113L28.5933 20.0113L28.5933 20.0113L28.5933 20.0112L28.5933 20.0112L28.5933 20.0112L28.5934 20.0112L28.5934 20.0112L28.5934 20.0112L28.5934 20.0111L28.5934 20.0111L28.5935 20.0111L28.5935 20.0111L28.5935 20.0111L28.5935 20.011L28.5935 20.011L28.5936 20.011L28.5936 20.011L28.5936 20.011L28.5936 20.0109L28.5936 20.0109L28.5937 20.0109L28.5937 20.0109L28.5937 20.0109L28.5937 20.0108L28.5937 20.0108L28.5938 20.0108L28.5938 20.0108L28.5938 20.0107L28.5938 20.0107L28.5939 20.0107L28.5939 20.0107L28.5939 20.0107L28.5939 20.0106L28.594 20.0106L28.594 20.0106L28.594 20.0105L28.594 20.0105L28.5941 20.0105L28.5941 20.0105L28.5941 20.0104L28.5941 20.0104L28.5942 20.0104L28.5942 20.0104L28.5942 20.0103L28.5943 20.0103L28.5943 20.0103L28.5943 20.0103L28.5943 20.0102L28.5944 20.0102L28.5944 20.0102L28.5944 20.0101L28.5945 20.0101L28.5945 20.0101L28.5945 20.01L28.5946 20.01L28.5946 20.01L28.5946 20.0099L28.5946 20.0099L28.5947 20.0099L28.5947 20.0098L28.5947 20.0098L28.5948 20.0098L28.5948 20.0097L28.5948 20.0097L28.5949 20.0097L28.5949 20.0096L28.595 20.0096L28.595 20.0096L28.595 20.0095L28.5951 20.0095L28.5951 20.0095L28.5951 20.0094L28.5952 20.0094L28.5952 20.0093L28.5953 20.0093L28.5953 20.0093L28.5953 20.0092L28.5954 20.0092L28.5954 20.0091L28.5954 20.0091L28.5955 20.0091L28.5955 20.009L28.5956 20.009L28.5956 20.0089L28.5957 20.0089L28.5957 20.0089L28.5957 20.0088L28.5958 20.0088L28.5958 20.0087L28.5959 20.0087L28.5959 20.0086L28.596 20.0086L28.596 20.0086L28.5961 20.0085L28.5961 20.0085L28.5961 20.0084L28.5962 20.0084L28.5962 20.0083L28.5963 20.0083L28.5963 20.0082L28.5964 20.0082L28.5964 20.0081L28.5965 20.0081L28.5965 20.008L28.5966 20.008L28.5966 20.0079L28.5967 20.0079L28.5967 20.0078L28.5968 20.0078L28.5968 20.0077L28.5969 20.0077L28.5969 20.0076L28.597 20.0076L28.597 20.0075L28.5971 20.0075L28.5972 20.0074L28.5972 20.0073L28.5973 20.0073L28.5973 20.0072L28.5974 20.0072L28.5974 20.0071L28.5975 20.0071L28.5976 20.007L28.5976 20.0069L28.5977 20.0069L28.5977 20.0068L28.5978 20.0068L28.5979 20.0067L28.5979 20.0066L28.598 20.0066L28.598 20.0065L28.5981 20.0065L28.5982 20.0064L28.5982 20.0063L28.5983 20.0063L28.5983 20.0062L28.5984 20.0061L28.5985 20.0061L28.5985 20.006L28.5986 20.006L28.5987 20.0059L28.5987 20.0058L28.5988 20.0058L28.5989 20.0057L28.5989 20.0056L28.599 20.0055L28.5991 20.0055L28.5992 20.0054L28.5992 20.0053L28.5993 20.0053L28.5994 20.0052L28.5994 20.0051L28.5995 20.0051L28.5996 20.005L28.5997 20.0049L28.5997 20.0048L28.5998 20.0048L28.5999 20.0047L28.5999 20.0046L28.6 20.0045L28.6001 20.0045L28.6002 20.0044L28.6003 20.0043L28.6003 20.0042L28.6004 20.0041L28.6005 20.0041L28.6006 20.004L28.6006 20.0039L28.6007 20.0038L28.6008 20.0037L28.6009 20.0037L28.601 20.0036L28.6011 20.0035L28.6011 20.0034L28.6012 20.0033L28.6013 20.0033L28.6014 20.0032L28.6015 20.0031L28.6016 20.003L28.6016 20.0029L28.6017 20.0028L28.6018 20.0027L28.6019 20.0026L28.602 20.0026L28.6021 20.0025L28.6022 20.0024L28.6023 20.0023L28.6024 20.0022L28.6024 20.0021L28.6025 20.002L28.6026 20.0019L28.6027 20.0018L28.6028 20.0017L28.6029 20.0016L28.603 20.0016L28.6031 20.0015L28.6032 20.0014L28.6033 20.0013L28.6034 20.0012L28.6035 20.0011L28.6036 20.001L28.6037 20.0009L28.6038 20.0008L28.6039 20.0007L28.604 20.0006L28.6041 20.0005L28.6042 20.0004L28.6043 20.0003L28.6044 20.0002L28.6045 20.0001L28.6046 20L28.6047 19.9999L28.6048 19.9998L28.6049 19.9996L28.605 19.9995L28.6051 19.9994L28.6052 19.9993L28.6053 19.9992L28.6055 19.9991L28.6056 19.999L28.6057 19.9989L28.6058 19.9988L28.6059 19.9987L28.606 19.9986L28.6061 19.9984L28.6062 19.9983L28.6063 19.9982L28.6065 19.9981L28.6066 19.998L28.6067 19.9979L28.6068 19.9978L28.6069 19.9976L28.607 19.9975L28.6072 19.9974L28.6073 19.9973L28.6074 19.9972L28.6075 19.997L28.6076 19.9969L28.6078 19.9968L28.6079 19.9967L28.608 19.9966L28.6081 19.9964L28.6083 19.9963L28.6084 19.9962L28.6085 19.9961L28.6086 19.9959L28.6088 19.9958L28.6089 19.9957L28.609 19.9955L28.6091 19.9954L28.6093 19.9953L28.6094 19.9952L28.6095 19.995L28.6097 19.9949L28.6098 19.9948L28.6099 19.9946L28.6101 19.9945L28.6102 19.9944L28.6103 19.9942L28.6105 19.9941L28.6106 19.994L28.6107 19.9938L28.6109 19.9937L28.611 19.9935L28.6111 19.9934L28.6113 19.9933L28.6114 19.9931L28.6116 19.993L28.6117 19.9928L28.6119 19.9927L28.612 19.9926L28.6121 19.9924L28.6123 19.9923L28.6124 19.9921L28.6126 19.992L28.6127 19.9918L28.6129 19.9917L28.613 19.9915L28.6132 19.9914L28.6133 19.9912L28.6135 19.9911L28.6136 19.9909L28.6138 19.9908L28.6139 19.9906L28.6141 19.9905L28.6142 19.9903L28.6144 19.9902L28.6145 19.99L28.6147 19.9899L28.6149 19.9897L28.615 19.9895L28.6152 19.9894L28.6153 19.9892L28.6155 19.9891L28.6156 19.9889L28.6158 19.9888L28.616 19.9886L28.6161 19.9884L28.6163 19.9883L28.6165 19.9881L28.6166 19.9879L28.6168 19.9878L28.617 19.9876L28.6171 19.9874L28.6173 19.9873L28.6175 19.9871L28.6176 19.9869L28.6178 19.9868L28.618 19.9866L28.6181 19.9864L28.6183 19.9862L28.6185 19.9861L28.6187 19.9859L28.6188 19.9857L28.619 19.9855L28.6192 19.9854L28.6194 19.9852L28.6195 19.985L28.6197 19.9848L28.6199 19.9847L28.6201 19.9845L28.6203 19.9843L28.6204 19.9841L28.6206 19.9839L28.6208 19.9837L28.621 19.9836L28.6212 19.9834L28.6214 19.9832L28.6216 19.983L28.6217 19.9828L28.6219 19.9826L28.6221 19.9824L28.6223 19.9822L28.6225 19.9821L28.6227 19.9819L28.6229 19.9817L28.6231 19.9815L28.6233 19.9813L28.6235 19.9811L28.6237 19.9809L28.6239 19.9807L28.6241 19.9805L28.6243 19.9803L28.6245 19.9801L28.6247 19.9799L28.6249 19.9797L28.6251 19.9795L28.6253 19.9793L28.6255 19.9791L28.6257 19.9789L28.6259 19.9787L28.6261 19.9785L28.6263 19.9783L28.6265 19.9781L28.6267 19.9779L28.6269 19.9776L28.6271 19.9774L28.6273 19.9772L28.6275 19.977L28.6278 19.9768L28.628 19.9766L28.6282 19.9764L28.6284 19.9762L28.6286 19.9759L28.6288 19.9757L28.6291 19.9755L28.6293 19.9753L28.6295 19.9751L28.6297 19.9748L28.6299 19.9746L28.6302 19.9744L28.6304 19.9742L28.6306 19.974L28.6308 19.9737L28.6311 19.9735L28.6313 19.9733C28.7712 19.8334 28.8616 19.6078 28.8616 19.42V12.3709L34.1899 9.81776V23.06L21.7725 28.9839V23.2951L28.3001 20.1648H28.3002H28.3004H28.3006H28.3007H28.3009H28.3011H28.3013H28.3015H28.3017H28.3019H28.3021H28.3023H28.3025H28.3027H28.3029H28.303H28.3032H28.3034H28.3036H28.3038H28.304H28.3042H28.3044H28.3046H28.3049H28.3051H28.3053H28.3055H28.3057H28.3059H28.3061H28.3063H28.3065H28.3067H28.3069H28.3072H28.3074H28.3076H28.3078H28.308H28.3082H28.3085H28.3087H28.3089H28.3091H28.3093H28.3096H28.3098H28.31H28.3102H28.3105C28.3433 20.1648 28.3727 20.156 28.3978 20.141C28.4057 20.1362 28.4129 20.131 28.4188 20.1261ZM20.9502 21.838L15.8517 19.3805L20.9502 16.8863L26.0487 19.3805L20.9502 21.838ZM27.1395 12.3322V18.0569L21.8112 15.4297V9.77903L27.1395 12.3322ZM14.7609 12.3711L20.1279 9.81717V15.4295L14.7609 18.0575V12.3711ZM3.65092 24.3398L8.74765 21.8831L13.8444 24.3398L8.74765 26.7965L3.65092 24.3398ZM2.55831 31.3507V25.663L7.88662 28.2531V33.9408L2.55831 31.3507ZM14.937 25.6236V31.3504L9.56994 33.9414V28.2146L14.937 25.6236Z" fill="url(#paint1_linear)" stroke="url(#paint2_linear)" stroke-width="0.25"/>
<defs>
<linearGradient id="paint0_linear" x1="24.5158" y1="-11.8778" x2="24.5158" y2="40.5181" gradientUnits="userSpaceOnUse">
<stop stop-color="#C7DAFD"/>
<stop offset="1" stop-color="#E9F1FF"/>
</linearGradient>
<linearGradient id="paint1_linear" x1="1" y1="1" x2="27.3367" y2="39.6095" gradientUnits="userSpaceOnUse">
<stop stop-color="#2569E6"/>
<stop offset="1" stop-color="#3649EF"/>
</linearGradient>
<linearGradient id="paint2_linear" x1="18.3384" y1="1" x2="18.3384" y2="36" gradientUnits="userSpaceOnUse">
<stop stop-color="#2960E8"/>
<stop offset="1" stop-color="#3250ED"/>
</linearGradient>
</defs>
</svg>
