<svg width="38" height="35" viewBox="0 0 38 35" fill="none" xmlns="http://www.w3.org/2000/svg">
<path d="M33.1138 13.7865L33.1656 13.9678H33.3542H36.0585C36.5475 13.9678 36.9843 14.4046 36.9843 14.8936V20.028C36.9843 20.5508 36.553 20.9538 36.0585 20.9538H33.3542H33.1638L33.1132 21.1373C32.8055 22.2526 32.3434 23.3314 31.8034 24.2955L31.711 24.4607L31.8448 24.5945L33.7653 26.515C34.1424 26.8921 34.1309 27.5113 33.7731 27.8392L33.773 27.8391L33.7653 27.8467L30.1203 31.4918C29.7476 31.8645 29.1612 31.8645 28.7885 31.4918L26.9072 29.6105L26.7716 29.4749L26.6055 29.5707C25.6062 30.1472 24.5678 30.5705 23.45 30.8788L23.2665 30.9294V31.1198V33.8242C23.2665 34.3524 22.8689 34.75 22.3407 34.75H17.1671C16.6389 34.75 16.2413 34.3524 16.2413 33.8242V31.1198V30.9294L16.0578 30.8788C14.9375 30.5698 13.8592 30.1457 12.8996 29.6083L12.7345 29.5158L12.6007 29.6497L10.6802 31.5701C10.3075 31.9428 9.72109 31.9428 9.3484 31.5701L5.70338 27.9251C5.32622 27.548 5.33777 26.9288 5.69554 26.6009L5.6957 26.601L5.70338 26.5933L7.13987 25.1569C7.50348 25.6271 7.97923 25.9996 8.51415 26.2498C9.0224 26.5032 9.60893 26.6274 10.1907 26.6274C11.0314 26.6274 11.8674 26.3338 12.5355 25.8327L12.5376 25.8311L15.4055 23.6336C16.5978 24.4986 18.0807 25.0204 19.6755 25.0204C23.8514 25.0204 27.1764 21.6545 27.1764 17.5196C27.1764 13.3838 23.8114 10.0188 19.6755 10.0188C18.0765 10.0188 16.6293 10.5432 15.4076 11.4072L12.5376 9.20805L12.5376 9.20804L12.5355 9.2065C11.8674 8.70539 11.0314 8.41181 10.1907 8.41181C9.596 8.41181 9.00914 8.58113 8.51111 8.83014C7.95446 9.10847 7.47421 9.48072 7.13118 9.95203L5.66826 8.48911C5.32423 8.10957 5.3358 7.48165 5.66419 7.15326L9.3092 3.50824C9.6819 3.13555 10.2683 3.13555 10.641 3.50824L12.5223 5.38954L12.6579 5.52514L12.824 5.42931C13.8233 4.85278 14.8617 4.42952 15.9794 4.12118L16.1629 4.07055V3.88018V1.17581C16.1629 0.64759 16.5605 0.25 17.0888 0.25H22.3015C22.8297 0.25 23.2273 0.64759 23.2273 1.17581V3.91937V4.10975L23.4109 4.16037C24.5312 4.46943 25.6094 4.89349 26.5691 5.43089L26.7342 5.52336L26.868 5.38954L28.7885 3.46905C29.1612 3.09636 29.7476 3.09636 30.1203 3.46905L33.7612 7.11001C34.1001 7.48372 34.1001 8.07619 33.7612 8.4499L31.8448 10.3663L31.7068 10.5044L31.8072 10.6717C32.381 11.628 32.8045 12.7039 33.1138 13.7865Z" fill="url(#paint0_linear)" stroke="white" stroke-width="0.5"/>
<path d="M10.7047 23.4355L10.6982 23.4405L10.692 23.4459C10.4605 23.6485 10.1051 23.6795 9.84146 23.5331C9.56516 23.3796 9.38214 23.0696 9.38214 22.7718V20.4593V20.2093H9.13214H0.901456C0.536991 20.2093 0.25 19.8972 0.25 19.5579V15.5601C0.25 15.1956 0.562115 14.9087 0.901456 14.9087H9.13214H9.38214V14.6587V12.2678C9.38214 11.9375 9.55869 11.6656 9.83672 11.5092C9.96111 11.4478 10.0782 11.4204 10.1904 11.4204C10.3697 11.4204 10.5496 11.4801 10.7005 11.6008L10.7005 11.6008L10.7047 11.6041L17.5636 16.856L17.5635 16.8561L17.5703 16.861C17.7754 17.0075 17.8967 17.2434 17.8967 17.5198C17.8967 17.7962 17.7754 18.0321 17.5703 18.1786L17.5702 18.1785L17.5636 18.1836L10.7047 23.4355Z" fill="url(#paint1_linear)" stroke="white" stroke-width="0.5"/>
<defs>
<linearGradient id="paint0_linear" x1="12.0363" y1="4.0446e-07" x2="24.7012" y2="31.1497" gradientUnits="userSpaceOnUse">
<stop stop-color="#CE61F4"/>
<stop offset="1" stop-color="#DC16B0"/>
</linearGradient>
<linearGradient id="paint1_linear" x1="3.88858" y1="11.1704" x2="7.10588" y2="23.5065" gradientUnits="userSpaceOnUse">
<stop stop-color="#CE61F4"/>
<stop offset="1" stop-color="#DC16B0"/>
</linearGradient>
</defs>
</svg>
