<svg width="35" height="35" viewBox="0 0 35 35" fill="none" xmlns="http://www.w3.org/2000/svg">
<path d="M5.47101 17.1584C5.63651 11.2548 10.071 6.4018 15.792 5.58597L18.6511 2.72644L15.9852 0.0605469C7.15559 0.821213 0.18238 8.15993 0 17.1404L2.72631 14.4141L5.47101 17.1584Z" fill="url(#paint0_linear)"/>
<path d="M17.1592 29.529C11.2548 29.3631 6.40218 24.9286 5.5856 19.2073L2.72644 16.3481L0.0605469 19.014C0.820837 27.8441 8.15993 34.8176 17.1401 35L14.4141 32.2741L17.1592 29.529Z" fill="url(#paint1_linear)"/>
<path d="M34.9988 17.8593L32.2725 20.5856L29.5281 17.8413C29.3627 23.7446 24.9281 28.5976 19.2072 29.4142L16.3477 32.2741L19.0132 34.9396C27.8428 34.1785 34.8164 26.8402 34.9988 17.8593Z" fill="url(#paint2_linear)"/>
<path d="M17.8418 5.47101C23.7455 5.63651 28.5984 10.0707 29.4146 15.792L32.2742 18.6511L34.9401 15.9852C34.179 7.15559 26.8407 0.18238 17.8602 0L20.5865 2.72631L17.8418 5.47101Z" fill="url(#paint3_linear)"/>
<defs>
<linearGradient id="paint0_linear" x1="3.99667" y1="0.0605471" x2="9.42015" y2="15.9408" gradientUnits="userSpaceOnUse">
<stop stop-color="#34C8DC"/>
<stop offset="1" stop-color="#19CDC2"/>
</linearGradient>
<linearGradient id="paint1_linear" x1="3.72454" y1="16.3481" x2="10.4715" y2="32.9504" gradientUnits="userSpaceOnUse">
<stop stop-color="#34C8DC"/>
<stop offset="1" stop-color="#19CDC2"/>
</linearGradient>
<linearGradient id="paint2_linear" x1="20.3443" y1="17.8413" x2="25.768" y2="33.7218" gradientUnits="userSpaceOnUse">
<stop stop-color="#34C8DC"/>
<stop offset="1" stop-color="#19CDC2"/>
</linearGradient>
<linearGradient id="paint3_linear" x1="21.5057" y1="2.15533e-07" x2="28.2523" y2="16.6016" gradientUnits="userSpaceOnUse">
<stop stop-color="#34C8DC"/>
<stop offset="1" stop-color="#19CDC2"/>
</linearGradient>
</defs>
</svg>
