<svg width="37" height="35" viewBox="0 0 37 35" fill="none" xmlns="http://www.w3.org/2000/svg">
<path d="M1 26V3L1.5 2L4 1H30H33L35.5 2V5L36 12L35.5 20.5V25L35 27.5L33 29H23L13.5 34V29H5L2.5 28L1 26Z" fill="url(#paint0_linear)"/>
<path d="M18.4215 5.52637C16.5998 5.52637 14.819 6.06655 13.3044 7.07862C11.7897 8.09069 10.6092 9.52917 9.91205 11.2122C9.21493 12.8952 9.03253 14.7471 9.38792 16.5338C9.74331 18.3204 10.6205 19.9616 11.9086 21.2497C13.1968 22.5378 14.8379 23.4151 16.6246 23.7704C18.4113 24.1258 20.2632 23.9434 21.9462 23.2463C23.6292 22.5492 25.0677 21.3687 26.0797 19.854C27.0918 18.3393 27.632 16.5586 27.632 14.7369C27.6291 12.295 26.6578 9.95393 24.9311 8.22725C23.2044 6.50056 20.8634 5.52924 18.4215 5.52637ZM25.6968 13.8158H23.8937C23.8214 12.0236 23.3724 10.2667 22.5758 8.65956C23.4307 9.24979 24.1509 10.0145 24.6889 10.9032C25.2268 11.792 25.5704 12.7847 25.6968 13.8158ZM17.5004 7.66887V13.8158H14.7884C14.9944 10.707 16.1888 8.42626 17.5004 7.66887ZM17.5004 15.6579V21.8049C16.1888 21.0475 14.9944 18.7668 14.7884 15.6579H17.5004ZM19.3425 21.8049V15.6579H22.0545C21.8486 18.7668 20.6541 21.0475 19.3425 21.8049ZM19.3425 13.8158V7.66887C20.6541 8.42626 21.8486 10.707 22.0545 13.8158H19.3425ZM14.2672 8.65956C13.4706 10.2667 13.0215 12.0236 12.9492 13.8158H11.1461C11.2726 12.7847 11.6161 11.792 12.1541 10.9032C12.692 10.0145 13.4122 9.24979 14.2672 8.65956ZM11.1461 15.6579H12.9492C13.0215 17.4502 13.4706 19.2071 14.2672 20.8142C13.4122 20.224 12.692 19.4593 12.1541 18.5705C11.6161 17.6818 11.2726 16.6891 11.1461 15.6579ZM22.5758 20.8142C23.3724 19.2071 23.8214 17.4502 23.8937 15.6579H25.6968C25.5704 16.6891 25.2268 17.6818 24.6889 18.5705C24.1509 19.4593 23.4307 20.224 22.5758 20.8142Z" fill="url(#paint1_linear)"/>
<path d="M32.2368 0H4.60526C3.38431 0.00142602 2.21377 0.48708 1.35043 1.35043C0.48708 2.21377 0.00142602 3.38431 0 4.60526V24.8684C0.00142602 26.0894 0.48708 27.2599 1.35043 28.1233C2.21377 28.9866 3.38431 29.4723 4.60526 29.4737H12.8947V34.0789C12.8947 34.242 12.938 34.402 13.0201 34.5429C13.1022 34.6837 13.2202 34.8002 13.3621 34.8805C13.5039 34.9608 13.6645 35.002 13.8275 34.9999C13.9905 34.9978 14.15 34.9525 14.2898 34.8687L23.2818 29.4737H32.2368C33.4578 29.4723 34.6283 28.9866 35.4917 28.1233C36.355 27.2599 36.8407 26.0894 36.8421 24.8684V4.60526C36.8407 3.38431 36.355 2.21377 35.4917 1.35043C34.6283 0.48708 33.4578 0.00142602 32.2368 0ZM35 24.8684C34.9992 25.601 34.7078 26.3034 34.1898 26.8214C33.6718 27.3394 32.9694 27.6308 32.2368 27.6316H23.0263C22.8593 27.6313 22.6954 27.6767 22.5523 27.7629L14.7368 32.4518V28.5526C14.7369 28.4317 14.7131 28.3119 14.6669 28.2001C14.6206 28.0883 14.5528 27.9867 14.4672 27.9012C14.3817 27.8156 14.2801 27.7478 14.1683 27.7015C14.0566 27.6553 13.9368 27.6315 13.8158 27.6316H4.60526C3.87268 27.6308 3.17032 27.3394 2.6523 26.8214C2.13429 26.3034 1.84291 25.601 1.84211 24.8684V4.60526C1.84291 3.87268 2.13429 3.17032 2.6523 2.6523C3.17032 2.13429 3.87268 1.84291 4.60526 1.84211H32.2368C32.9694 1.84291 33.6718 2.13429 34.1898 2.6523C34.7078 3.17032 34.9992 3.87268 35 4.60526V24.8684Z" fill="url(#paint2_linear)"/>
<defs>
<linearGradient id="paint0_linear" x1="22.3739" y1="-14.6081" x2="22.3739" y2="46.0405" gradientUnits="userSpaceOnUse">
<stop stop-color="#C7DAFD"/>
<stop offset="1" stop-color="#E9F1FF"/>
</linearGradient>
<linearGradient id="paint1_linear" x1="9.21094" y1="5.52637" x2="23.025" y2="25.9665" gradientUnits="userSpaceOnUse">
<stop stop-color="#2569E6"/>
<stop offset="1" stop-color="#3649EF"/>
</linearGradient>
<linearGradient id="paint2_linear" x1="0" y1="0" x2="25.7206" y2="40.0609" gradientUnits="userSpaceOnUse">
<stop stop-color="#2569E6"/>
<stop offset="1" stop-color="#3649EF"/>
</linearGradient>
</defs>
</svg>
