<svg width="37" height="37" viewBox="0 0 37 37" fill="none" xmlns="http://www.w3.org/2000/svg">
<path d="M9 10.5L11 9L14 11L16.5 10L17 6.5H20L20.5 10L22.5 11L26 9L27.5 11.5L26 13.5V15.5L30 16.5L30.5 19L28.5 20L26 21V22.5L27.5 26L25 27.5L23 26L21 26.5L20.5 28.5L19.5 30L16.5 29V26H14L11 27.5L9.5 25L10.5 22.5V20.5L6 19.5L7.5 16H10.5L11 14L9 10.5Z" fill="url(#paint0_linear)"/>
<mask id="path-2-outside-1" maskUnits="userSpaceOnUse" x="5" y="4.81055" width="27" height="27" fill="black">
<rect fill="white" x="5" y="4.81055" width="27" height="27"/>
<path d="M19.9807 30.5666H16.7754C16.5819 30.5645 16.3953 30.494 16.2487 30.3676C16.1021 30.2413 16.0048 30.0672 15.9741 29.8761L15.5181 26.8011C15.102 26.6649 14.6969 26.4972 14.3063 26.2995L11.8112 28.1497C11.6571 28.2661 11.4661 28.323 11.2733 28.3099C11.0806 28.2967 10.8991 28.2144 10.7623 28.078L8.49515 25.8109C8.35756 25.6739 8.27341 25.4923 8.25788 25.2988C8.24235 25.1053 8.29646 24.9126 8.41046 24.7555L10.2672 22.2603C10.0694 21.8697 9.90173 21.4646 9.76553 21.0486L6.69056 20.5925C6.49946 20.5618 6.32535 20.4646 6.199 20.3179C6.07264 20.1713 6.00216 19.9848 6 19.7912V16.586C6.00216 16.3924 6.07264 16.2059 6.199 16.0592C6.32535 15.9126 6.49946 15.8154 6.69056 15.7846L9.76553 15.3286C9.90173 14.9125 10.0694 14.5075 10.2672 14.1169L8.41697 11.6217C8.30048 11.4676 8.24358 11.2766 8.25675 11.0839C8.26992 10.8911 8.35227 10.7097 8.48864 10.5728L10.7558 8.3057C10.8927 8.1681 11.0743 8.08395 11.2678 8.06843C11.4613 8.0529 11.654 8.10701 11.8112 8.22101L14.3063 10.0777C14.6969 9.87997 15.102 9.71227 15.5181 9.57608L15.9741 6.50111C16.0048 6.31001 16.1021 6.1359 16.2487 6.00954C16.3953 5.88318 16.5819 5.8127 16.7754 5.81055H19.9807C20.1742 5.8127 20.3608 5.88318 20.5074 6.00954C20.654 6.1359 20.7513 6.31001 20.782 6.50111L21.238 9.57608C21.6541 9.71227 22.0592 9.87997 22.4498 10.0777L24.9449 8.22752C25.099 8.11103 25.29 8.05413 25.4827 8.0673C25.6755 8.08047 25.857 8.16282 25.9938 8.29918L28.2609 10.5663C28.3985 10.7033 28.4827 10.8849 28.4982 11.0784C28.5137 11.2719 28.4596 11.4646 28.3456 11.6217L26.4889 14.1169C26.6855 14.508 26.8532 14.913 26.9906 15.3286L30.0655 15.7846C30.2566 15.8154 30.4307 15.9126 30.5571 16.0592C30.6834 16.2059 30.7539 16.3924 30.7561 16.586V19.7912C30.7539 19.9848 30.6834 20.1713 30.5571 20.3179C30.4307 20.4646 30.2566 20.5618 30.0655 20.5925L26.9906 21.0486C26.8532 21.4642 26.6855 21.8692 26.4889 22.2603L28.3391 24.7555C28.4556 24.9096 28.5125 25.1006 28.4993 25.2933C28.4862 25.486 28.4038 25.6675 28.2674 25.8043L26.0003 28.0715C25.8634 28.2091 25.6818 28.2932 25.4883 28.3087C25.2947 28.3243 25.1021 28.2702 24.9449 28.1562L22.4498 26.2995C22.0592 26.4972 21.6541 26.6649 21.238 26.8011L20.782 29.8761C20.7513 30.0672 20.654 30.2413 20.5074 30.3676C20.3608 30.494 20.1742 30.5645 19.9807 30.5666ZM17.2054 29.2637H19.5507L19.9937 26.2995C20.0181 26.1479 20.0849 26.0063 20.1863 25.891C20.2878 25.7757 20.4197 25.6915 20.567 25.648C21.1018 25.4878 21.6174 25.2693 22.1045 24.9965C22.2405 24.9222 22.3949 24.8882 22.5495 24.8986C22.7041 24.909 22.8526 24.9633 22.9775 25.0551L25.3814 26.8402L27.0427 25.1789L25.2576 22.7685C25.1662 22.6459 25.112 22.4997 25.1016 22.3471C25.0912 22.1946 25.125 22.0423 25.199 21.9085C25.469 21.4155 25.6873 20.8959 25.8505 20.358C25.8936 20.2112 25.9779 20.0798 26.0933 19.9793C26.2088 19.8789 26.3506 19.8136 26.5019 19.7912L29.4531 19.3612V17.0159L26.4889 16.5729C26.3373 16.5485 26.1957 16.4817 26.0804 16.3803C25.9652 16.2788 25.8809 16.1469 25.8374 15.9996C25.6762 15.4631 25.4578 14.9455 25.186 14.4556C25.1205 14.3245 25.0925 14.1779 25.1051 14.0318C25.1178 13.8858 25.1706 13.7462 25.2576 13.6283L27.0427 11.2178L25.3814 9.52396L22.9709 11.309C22.8484 11.4004 22.7021 11.4546 22.5496 11.465C22.3971 11.4754 22.2448 11.4416 22.111 11.3676C21.618 11.0976 21.0984 10.8793 20.5605 10.7162C20.4137 10.673 20.2823 10.5887 20.1818 10.4733C20.0814 10.3579 20.0161 10.2161 19.9937 10.0647L19.5507 7.1135H17.2054L16.7624 10.0777C16.738 10.2293 16.6712 10.3709 16.5697 10.4862C16.4683 10.6014 16.3363 10.6857 16.1891 10.7292C15.6543 10.8894 15.1387 11.1079 14.6516 11.3807C14.5156 11.455 14.3612 11.4889 14.2066 11.4785C14.0519 11.4682 13.9035 11.4139 13.7786 11.322L11.3747 9.52396L9.71341 11.1852L11.4985 13.5892C11.5905 13.7127 11.6449 13.8601 11.6553 14.0138C11.6657 14.1674 11.6316 14.3208 11.5571 14.4556C11.2871 14.9486 11.0688 15.4682 10.9056 16.0061C10.8625 16.153 10.7782 16.2844 10.6628 16.3848C10.5473 16.4852 10.4055 16.5505 10.2541 16.5729L7.30295 17.0159V19.3612L10.2672 19.8042C10.4185 19.8267 10.5603 19.8919 10.6758 19.9924C10.7912 20.0928 10.8755 20.2242 10.9186 20.371C11.0806 20.9073 11.299 21.4248 11.5701 21.915C11.6444 22.051 11.6784 22.2054 11.668 22.3601C11.6576 22.5147 11.6033 22.6632 11.5115 22.788L9.71341 25.192L11.3747 26.8532L13.8177 25.0682C13.9402 24.9767 14.0865 24.9226 14.239 24.9122C14.3916 24.9018 14.5439 24.9356 14.6777 25.0095C15.1707 25.2795 15.6903 25.4979 16.2282 25.661C16.375 25.7042 16.5064 25.7884 16.6068 25.9039C16.7073 26.0193 16.7725 26.1611 16.795 26.3125L17.2054 29.2637Z"/>
</mask>
<path d="M19.9807 30.5666H16.7754C16.5819 30.5645 16.3953 30.494 16.2487 30.3676C16.1021 30.2413 16.0048 30.0672 15.9741 29.8761L15.5181 26.8011C15.102 26.6649 14.6969 26.4972 14.3063 26.2995L11.8112 28.1497C11.6571 28.2661 11.4661 28.323 11.2733 28.3099C11.0806 28.2967 10.8991 28.2144 10.7623 28.078L8.49515 25.8109C8.35756 25.6739 8.27341 25.4923 8.25788 25.2988C8.24235 25.1053 8.29646 24.9126 8.41046 24.7555L10.2672 22.2603C10.0694 21.8697 9.90173 21.4646 9.76553 21.0486L6.69056 20.5925C6.49946 20.5618 6.32535 20.4646 6.199 20.3179C6.07264 20.1713 6.00216 19.9848 6 19.7912V16.586C6.00216 16.3924 6.07264 16.2059 6.199 16.0592C6.32535 15.9126 6.49946 15.8154 6.69056 15.7846L9.76553 15.3286C9.90173 14.9125 10.0694 14.5075 10.2672 14.1169L8.41697 11.6217C8.30048 11.4676 8.24358 11.2766 8.25675 11.0839C8.26992 10.8911 8.35227 10.7097 8.48864 10.5728L10.7558 8.3057C10.8927 8.1681 11.0743 8.08395 11.2678 8.06843C11.4613 8.0529 11.654 8.10701 11.8112 8.22101L14.3063 10.0777C14.6969 9.87997 15.102 9.71227 15.5181 9.57608L15.9741 6.50111C16.0048 6.31001 16.1021 6.1359 16.2487 6.00954C16.3953 5.88318 16.5819 5.8127 16.7754 5.81055H19.9807C20.1742 5.8127 20.3608 5.88318 20.5074 6.00954C20.654 6.1359 20.7513 6.31001 20.782 6.50111L21.238 9.57608C21.6541 9.71227 22.0592 9.87997 22.4498 10.0777L24.9449 8.22752C25.099 8.11103 25.29 8.05413 25.4827 8.0673C25.6755 8.08047 25.857 8.16282 25.9938 8.29918L28.2609 10.5663C28.3985 10.7033 28.4827 10.8849 28.4982 11.0784C28.5137 11.2719 28.4596 11.4646 28.3456 11.6217L26.4889 14.1169C26.6855 14.508 26.8532 14.913 26.9906 15.3286L30.0655 15.7846C30.2566 15.8154 30.4307 15.9126 30.5571 16.0592C30.6834 16.2059 30.7539 16.3924 30.7561 16.586V19.7912C30.7539 19.9848 30.6834 20.1713 30.5571 20.3179C30.4307 20.4646 30.2566 20.5618 30.0655 20.5925L26.9906 21.0486C26.8532 21.4642 26.6855 21.8692 26.4889 22.2603L28.3391 24.7555C28.4556 24.9096 28.5125 25.1006 28.4993 25.2933C28.4862 25.486 28.4038 25.6675 28.2674 25.8043L26.0003 28.0715C25.8634 28.2091 25.6818 28.2932 25.4883 28.3087C25.2947 28.3243 25.1021 28.2702 24.9449 28.1562L22.4498 26.2995C22.0592 26.4972 21.6541 26.6649 21.238 26.8011L20.782 29.8761C20.7513 30.0672 20.654 30.2413 20.5074 30.3676C20.3608 30.494 20.1742 30.5645 19.9807 30.5666ZM17.2054 29.2637H19.5507L19.9937 26.2995C20.0181 26.1479 20.0849 26.0063 20.1863 25.891C20.2878 25.7757 20.4197 25.6915 20.567 25.648C21.1018 25.4878 21.6174 25.2693 22.1045 24.9965C22.2405 24.9222 22.3949 24.8882 22.5495 24.8986C22.7041 24.909 22.8526 24.9633 22.9775 25.0551L25.3814 26.8402L27.0427 25.1789L25.2576 22.7685C25.1662 22.6459 25.112 22.4997 25.1016 22.3471C25.0912 22.1946 25.125 22.0423 25.199 21.9085C25.469 21.4155 25.6873 20.8959 25.8505 20.358C25.8936 20.2112 25.9779 20.0798 26.0933 19.9793C26.2088 19.8789 26.3506 19.8136 26.5019 19.7912L29.4531 19.3612V17.0159L26.4889 16.5729C26.3373 16.5485 26.1957 16.4817 26.0804 16.3803C25.9652 16.2788 25.8809 16.1469 25.8374 15.9996C25.6762 15.4631 25.4578 14.9455 25.186 14.4556C25.1205 14.3245 25.0925 14.1779 25.1051 14.0318C25.1178 13.8858 25.1706 13.7462 25.2576 13.6283L27.0427 11.2178L25.3814 9.52396L22.9709 11.309C22.8484 11.4004 22.7021 11.4546 22.5496 11.465C22.3971 11.4754 22.2448 11.4416 22.111 11.3676C21.618 11.0976 21.0984 10.8793 20.5605 10.7162C20.4137 10.673 20.2823 10.5887 20.1818 10.4733C20.0814 10.3579 20.0161 10.2161 19.9937 10.0647L19.5507 7.1135H17.2054L16.7624 10.0777C16.738 10.2293 16.6712 10.3709 16.5697 10.4862C16.4683 10.6014 16.3363 10.6857 16.1891 10.7292C15.6543 10.8894 15.1387 11.1079 14.6516 11.3807C14.5156 11.455 14.3612 11.4889 14.2066 11.4785C14.0519 11.4682 13.9035 11.4139 13.7786 11.322L11.3747 9.52396L9.71341 11.1852L11.4985 13.5892C11.5905 13.7127 11.6449 13.8601 11.6553 14.0138C11.6657 14.1674 11.6316 14.3208 11.5571 14.4556C11.2871 14.9486 11.0688 15.4682 10.9056 16.0061C10.8625 16.153 10.7782 16.2844 10.6628 16.3848C10.5473 16.4852 10.4055 16.5505 10.2541 16.5729L7.30295 17.0159V19.3612L10.2672 19.8042C10.4185 19.8267 10.5603 19.8919 10.6758 19.9924C10.7912 20.0928 10.8755 20.2242 10.9186 20.371C11.0806 20.9073 11.299 21.4248 11.5701 21.915C11.6444 22.051 11.6784 22.2054 11.668 22.3601C11.6576 22.5147 11.6033 22.6632 11.5115 22.788L9.71341 25.192L11.3747 26.8532L13.8177 25.0682C13.9402 24.9767 14.0865 24.9226 14.239 24.9122C14.3916 24.9018 14.5439 24.9356 14.6777 25.0095C15.1707 25.2795 15.6903 25.4979 16.2282 25.661C16.375 25.7042 16.5064 25.7884 16.6068 25.9039C16.7073 26.0193 16.7725 26.1611 16.795 26.3125L17.2054 29.2637Z" fill="url(#paint1_linear)"/>
<path d="M19.9807 30.5666H16.7754C16.5819 30.5645 16.3953 30.494 16.2487 30.3676C16.1021 30.2413 16.0048 30.0672 15.9741 29.8761L15.5181 26.8011C15.102 26.6649 14.6969 26.4972 14.3063 26.2995L11.8112 28.1497C11.6571 28.2661 11.4661 28.323 11.2733 28.3099C11.0806 28.2967 10.8991 28.2144 10.7623 28.078L8.49515 25.8109C8.35756 25.6739 8.27341 25.4923 8.25788 25.2988C8.24235 25.1053 8.29646 24.9126 8.41046 24.7555L10.2672 22.2603C10.0694 21.8697 9.90173 21.4646 9.76553 21.0486L6.69056 20.5925C6.49946 20.5618 6.32535 20.4646 6.199 20.3179C6.07264 20.1713 6.00216 19.9848 6 19.7912V16.586C6.00216 16.3924 6.07264 16.2059 6.199 16.0592C6.32535 15.9126 6.49946 15.8154 6.69056 15.7846L9.76553 15.3286C9.90173 14.9125 10.0694 14.5075 10.2672 14.1169L8.41697 11.6217C8.30048 11.4676 8.24358 11.2766 8.25675 11.0839C8.26992 10.8911 8.35227 10.7097 8.48864 10.5728L10.7558 8.3057C10.8927 8.1681 11.0743 8.08395 11.2678 8.06843C11.4613 8.0529 11.654 8.10701 11.8112 8.22101L14.3063 10.0777C14.6969 9.87997 15.102 9.71227 15.5181 9.57608L15.9741 6.50111C16.0048 6.31001 16.1021 6.1359 16.2487 6.00954C16.3953 5.88318 16.5819 5.8127 16.7754 5.81055H19.9807C20.1742 5.8127 20.3608 5.88318 20.5074 6.00954C20.654 6.1359 20.7513 6.31001 20.782 6.50111L21.238 9.57608C21.6541 9.71227 22.0592 9.87997 22.4498 10.0777L24.9449 8.22752C25.099 8.11103 25.29 8.05413 25.4827 8.0673C25.6755 8.08047 25.857 8.16282 25.9938 8.29918L28.2609 10.5663C28.3985 10.7033 28.4827 10.8849 28.4982 11.0784C28.5137 11.2719 28.4596 11.4646 28.3456 11.6217L26.4889 14.1169C26.6855 14.508 26.8532 14.913 26.9906 15.3286L30.0655 15.7846C30.2566 15.8154 30.4307 15.9126 30.5571 16.0592C30.6834 16.2059 30.7539 16.3924 30.7561 16.586V19.7912C30.7539 19.9848 30.6834 20.1713 30.5571 20.3179C30.4307 20.4646 30.2566 20.5618 30.0655 20.5925L26.9906 21.0486C26.8532 21.4642 26.6855 21.8692 26.4889 22.2603L28.3391 24.7555C28.4556 24.9096 28.5125 25.1006 28.4993 25.2933C28.4862 25.486 28.4038 25.6675 28.2674 25.8043L26.0003 28.0715C25.8634 28.2091 25.6818 28.2932 25.4883 28.3087C25.2947 28.3243 25.1021 28.2702 24.9449 28.1562L22.4498 26.2995C22.0592 26.4972 21.6541 26.6649 21.238 26.8011L20.782 29.8761C20.7513 30.0672 20.654 30.2413 20.5074 30.3676C20.3608 30.494 20.1742 30.5645 19.9807 30.5666ZM17.2054 29.2637H19.5507L19.9937 26.2995C20.0181 26.1479 20.0849 26.0063 20.1863 25.891C20.2878 25.7757 20.4197 25.6915 20.567 25.648C21.1018 25.4878 21.6174 25.2693 22.1045 24.9965C22.2405 24.9222 22.3949 24.8882 22.5495 24.8986C22.7041 24.909 22.8526 24.9633 22.9775 25.0551L25.3814 26.8402L27.0427 25.1789L25.2576 22.7685C25.1662 22.6459 25.112 22.4997 25.1016 22.3471C25.0912 22.1946 25.125 22.0423 25.199 21.9085C25.469 21.4155 25.6873 20.8959 25.8505 20.358C25.8936 20.2112 25.9779 20.0798 26.0933 19.9793C26.2088 19.8789 26.3506 19.8136 26.5019 19.7912L29.4531 19.3612V17.0159L26.4889 16.5729C26.3373 16.5485 26.1957 16.4817 26.0804 16.3803C25.9652 16.2788 25.8809 16.1469 25.8374 15.9996C25.6762 15.4631 25.4578 14.9455 25.186 14.4556C25.1205 14.3245 25.0925 14.1779 25.1051 14.0318C25.1178 13.8858 25.1706 13.7462 25.2576 13.6283L27.0427 11.2178L25.3814 9.52396L22.9709 11.309C22.8484 11.4004 22.7021 11.4546 22.5496 11.465C22.3971 11.4754 22.2448 11.4416 22.111 11.3676C21.618 11.0976 21.0984 10.8793 20.5605 10.7162C20.4137 10.673 20.2823 10.5887 20.1818 10.4733C20.0814 10.3579 20.0161 10.2161 19.9937 10.0647L19.5507 7.1135H17.2054L16.7624 10.0777C16.738 10.2293 16.6712 10.3709 16.5697 10.4862C16.4683 10.6014 16.3363 10.6857 16.1891 10.7292C15.6543 10.8894 15.1387 11.1079 14.6516 11.3807C14.5156 11.455 14.3612 11.4889 14.2066 11.4785C14.0519 11.4682 13.9035 11.4139 13.7786 11.322L11.3747 9.52396L9.71341 11.1852L11.4985 13.5892C11.5905 13.7127 11.6449 13.8601 11.6553 14.0138C11.6657 14.1674 11.6316 14.3208 11.5571 14.4556C11.2871 14.9486 11.0688 15.4682 10.9056 16.0061C10.8625 16.153 10.7782 16.2844 10.6628 16.3848C10.5473 16.4852 10.4055 16.5505 10.2541 16.5729L7.30295 17.0159V19.3612L10.2672 19.8042C10.4185 19.8267 10.5603 19.8919 10.6758 19.9924C10.7912 20.0928 10.8755 20.2242 10.9186 20.371C11.0806 20.9073 11.299 21.4248 11.5701 21.915C11.6444 22.051 11.6784 22.2054 11.668 22.3601C11.6576 22.5147 11.6033 22.6632 11.5115 22.788L9.71341 25.192L11.3747 26.8532L13.8177 25.0682C13.9402 24.9767 14.0865 24.9226 14.239 24.9122C14.3916 24.9018 14.5439 24.9356 14.6777 25.0095C15.1707 25.2795 15.6903 25.4979 16.2282 25.661C16.375 25.7042 16.5064 25.7884 16.6068 25.9039C16.7073 26.0193 16.7725 26.1611 16.795 26.3125L17.2054 29.2637Z" stroke="url(#paint2_linear)" stroke-width="0.5" mask="url(#path-2-outside-1)"/>
<path d="M18.3772 23.5967H18.3774C19.8112 23.595 21.1858 23.0246 22.1997 22.0107C23.2136 20.9968 23.7839 19.6222 23.7857 18.1884V18.1883C23.7857 17.1186 23.4685 16.0729 22.8742 15.1835C22.2799 14.2941 21.4352 13.6008 20.447 13.1915C19.4587 12.7821 18.3712 12.675 17.3221 12.8837C16.2729 13.0924 15.3092 13.6075 14.5529 14.3639C13.7965 15.1203 13.2814 16.084 13.0727 17.1331C12.864 18.1823 12.9711 19.2697 13.3804 20.258C13.7898 21.2463 14.483 22.0909 15.3724 22.6852C16.2619 23.2795 17.3075 23.5967 18.3772 23.5967ZM16.2352 14.9825C16.8692 14.5589 17.6146 14.3328 18.3771 14.3327C19.3992 14.3344 20.3789 14.7412 21.1016 15.4639C21.8243 16.1866 22.2311 17.1664 22.2327 18.1885C22.2327 18.9509 22.0066 19.6963 21.583 20.3303C21.1593 20.9643 20.5572 21.4585 19.8527 21.7503C19.1482 22.0421 18.3729 22.1185 17.625 21.9697C16.8772 21.8209 16.1902 21.4537 15.651 20.9145C15.1118 20.3753 14.7446 19.6883 14.5958 18.9404C14.447 18.1925 14.5234 17.4173 14.8152 16.7128C15.107 16.0083 15.6012 15.4062 16.2352 14.9825Z" fill="url(#paint3_linear)" stroke="url(#paint4_linear)" stroke-width="0.25"/>
<path d="M8.07498 32.7909L8.07566 32.7914C11.0669 34.9714 14.6761 36.1393 18.3774 36.1249C21.8386 36.1407 25.2264 35.1271 28.1101 33.2128C30.994 31.2985 33.2436 28.5699 34.5729 25.3739C35.9022 22.1779 36.2513 18.6588 35.5756 15.264C34.9 11.8691 33.2303 8.75181 30.7786 6.30828L30.7784 6.30811C30.706 6.23623 30.6202 6.17931 30.5258 6.14061C30.4314 6.1019 30.3303 6.08216 30.2283 6.08252C30.1263 6.08288 30.0253 6.10334 29.9312 6.14271C29.8371 6.18208 29.7517 6.23961 29.6798 6.31199C29.6079 6.38439 29.551 6.47023 29.5123 6.56462C29.4736 6.659 29.4539 6.76009 29.4542 6.86211C29.4546 6.96412 29.475 7.06507 29.5144 7.15918C29.5538 7.25329 29.6113 7.33873 29.6837 7.41061L29.7718 7.32191L29.6837 7.41062C32.5398 10.246 34.2171 14.0571 34.3788 18.0784C34.5405 22.0996 33.1745 26.0331 30.5552 29.0886C27.936 32.1442 24.2575 34.0954 20.2588 34.5502C16.2601 35.0051 12.2374 33.93 8.99875 31.5409C8.83301 31.4185 8.62542 31.3668 8.42163 31.3974C8.2178 31.428 8.03446 31.5383 7.91195 31.704C7.78944 31.8698 7.73779 32.0774 7.76837 32.2812C7.79894 32.4851 7.90923 32.6684 8.07498 32.7909Z" fill="url(#paint5_linear)" stroke="url(#paint6_linear)" stroke-width="0.25"/>
<path d="M29.1903 9.70807C29.3359 9.85369 29.5334 9.93549 29.7394 9.93549C29.9453 9.93549 30.1428 9.85369 30.2884 9.70807C30.434 9.56245 30.5158 9.36495 30.5158 9.15902V7.16672H32.5081C32.7141 7.16672 32.9116 7.08491 33.0572 6.9393C33.2028 6.79368 33.2846 6.59618 33.2846 6.39025C33.2846 6.18431 33.2028 5.98681 33.0572 5.84119C32.9116 5.69558 32.7141 5.61377 32.5081 5.61377H29.7394C29.5334 5.61377 29.3359 5.69558 29.1903 5.84119C29.0447 5.98681 28.9629 6.18431 28.9629 6.39025V9.15902C28.9629 9.36495 29.0447 9.56245 29.1903 9.70807Z" fill="url(#paint7_linear)" stroke="url(#paint8_linear)" stroke-width="0.25"/>
<path d="M6.54807 30.9521L6.54807 30.9522L6.98384 30.6382L7.07186 30.7269C7.07189 30.7269 7.07191 30.7269 7.07194 30.7268C7.14468 30.6547 7.20242 30.5688 7.24183 30.4742C7.28125 30.3796 7.30154 30.2781 7.30154 30.1756C7.30154 30.0731 7.28125 29.9716 7.24183 29.877C7.20244 29.7825 7.14472 29.6966 7.07203 29.6245C4.08763 26.6358 2.41137 22.5848 2.41137 18.3611C2.41137 14.1374 4.08766 10.0864 7.0721 7.09766C9.77133 4.42342 13.3324 2.79437 17.1207 2.50077C20.9089 2.20719 24.6783 3.26807 27.7573 5.49438C27.9229 5.61662 28.1304 5.66814 28.334 5.63759C28.5378 5.60702 28.7211 5.49672 28.8436 5.33097C28.9662 5.16522 29.0178 4.9576 28.9872 4.75377C28.9567 4.54994 28.8464 4.3666 28.6806 4.24409L28.6801 4.24369C25.1241 1.64479 20.7183 0.483513 16.3432 0.991948C11.9682 1.50038 7.94615 3.64107 5.0809 6.98621C2.21566 10.3313 0.718274 14.6345 0.887999 19.0357C1.05772 23.4369 2.88206 27.612 5.99641 30.7266L5.99677 30.7269C6.06933 30.7989 6.15537 30.8558 6.24998 30.8945C6.34458 30.9331 6.44588 30.9527 6.54807 30.9521Z" fill="url(#paint9_linear)" stroke="url(#paint10_linear)" stroke-width="0.25"/>
<path d="M4.24718 31.4213H7.01595C7.22189 31.4213 7.41938 31.3395 7.565 31.1939C7.71062 31.0483 7.79243 30.8508 7.79243 30.6449V27.8761C7.79243 27.6702 7.71062 27.4727 7.565 27.327C7.41938 27.1814 7.22189 27.0996 7.01595 27.0996C6.81002 27.0996 6.61252 27.1814 6.4669 27.327C6.32128 27.4727 6.23948 27.6702 6.23948 27.8761V29.8684H4.24718C4.04125 29.8684 3.84374 29.9502 3.69813 30.0958C3.55251 30.2414 3.4707 30.4389 3.4707 30.6449C3.4707 30.8508 3.55251 31.0483 3.69813 31.1939C3.84374 31.3395 4.04125 31.4213 4.24718 31.4213Z" fill="url(#paint11_linear)" stroke="url(#paint12_linear)" stroke-width="0.25"/>
<defs>
<linearGradient id="paint0_linear" x1="20.9617" y1="-4.61487" x2="20.9617" y2="38.5743" gradientUnits="userSpaceOnUse">
<stop stop-color="#C7DAFD"/>
<stop offset="1" stop-color="#E9F1FF"/>
</linearGradient>
<linearGradient id="paint1_linear" x1="6" y1="5.81055" x2="24.5647" y2="33.2801" gradientUnits="userSpaceOnUse">
<stop stop-color="#2569E6"/>
<stop offset="1" stop-color="#3649EF"/>
</linearGradient>
<linearGradient id="paint2_linear" x1="18.378" y1="5.81055" x2="18.378" y2="30.5666" gradientUnits="userSpaceOnUse">
<stop stop-color="#2960E8"/>
<stop offset="1" stop-color="#3250ED"/>
</linearGradient>
<linearGradient id="paint3_linear" x1="13.0938" y1="12.9048" x2="21.018" y2="24.6299" gradientUnits="userSpaceOnUse">
<stop stop-color="#2569E6"/>
<stop offset="1" stop-color="#3649EF"/>
</linearGradient>
<linearGradient id="paint4_linear" x1="18.3772" y1="12.9048" x2="18.3772" y2="23.4717" gradientUnits="userSpaceOnUse">
<stop stop-color="#2960E8"/>
<stop offset="1" stop-color="#3250ED"/>
</linearGradient>
<linearGradient id="paint5_linear" x1="7.88477" y1="6.20752" x2="30.7364" y2="37.8742" gradientUnits="userSpaceOnUse">
<stop stop-color="#2569E6"/>
<stop offset="1" stop-color="#3649EF"/>
</linearGradient>
<linearGradient id="paint6_linear" x1="21.8356" y1="6.20752" x2="21.8356" y2="36.0001" gradientUnits="userSpaceOnUse">
<stop stop-color="#2960E8"/>
<stop offset="1" stop-color="#3250ED"/>
</linearGradient>
<linearGradient id="paint7_linear" x1="29.0879" y1="5.73877" x2="32.1413" y2="10.2568" gradientUnits="userSpaceOnUse">
<stop stop-color="#2569E6"/>
<stop offset="1" stop-color="#3649EF"/>
</linearGradient>
<linearGradient id="paint8_linear" x1="31.1238" y1="5.73877" x2="31.1238" y2="9.81049" gradientUnits="userSpaceOnUse">
<stop stop-color="#2960E8"/>
<stop offset="1" stop-color="#3250ED"/>
</linearGradient>
<linearGradient id="paint9_linear" x1="1" y1="1" x2="23.8944" y2="32.6542" gradientUnits="userSpaceOnUse">
<stop stop-color="#2569E6"/>
<stop offset="1" stop-color="#3649EF"/>
</linearGradient>
<linearGradient id="paint10_linear" x1="14.9354" y1="1" x2="14.9354" y2="30.8271" gradientUnits="userSpaceOnUse">
<stop stop-color="#2960E8"/>
<stop offset="1" stop-color="#3250ED"/>
</linearGradient>
<linearGradient id="paint11_linear" x1="3.5957" y1="27.2246" x2="6.64911" y2="31.7426" gradientUnits="userSpaceOnUse">
<stop stop-color="#2569E6"/>
<stop offset="1" stop-color="#3649EF"/>
</linearGradient>
<linearGradient id="paint12_linear" x1="5.63157" y1="27.2246" x2="5.63157" y2="31.2963" gradientUnits="userSpaceOnUse">
<stop stop-color="#2960E8"/>
<stop offset="1" stop-color="#3250ED"/>
</linearGradient>
</defs>
</svg>
