<svg width="47" height="47" viewBox="0 0 47 47" fill="none" xmlns="http://www.w3.org/2000/svg">
<g clip-path="url(#clip0)">
<path d="M17.9826 4.28063C17.3838 2.99797 16.2784 2.14286 14.9427 2.14286C13.0542 2.14286 11.4882 3.90652 11.4882 6.15117C11.4882 8.34239 13.0082 10.1595 14.9427 10.1595C15.219 10.1595 15.4954 10.106 15.7257 10.0526L21.2528 20.4742C21.8976 19.7794 22.7267 19.2984 23.6018 19.0847L17.8444 8.28894C17.9826 7.96828 18.1208 7.64761 18.2129 7.32695H29.2211C29.175 6.95284 29.129 6.57873 29.129 6.15117C29.129 5.50984 29.2211 4.86851 29.4053 4.28063H17.9826V4.28063ZM14.9427 7.64761C14.2518 7.64761 13.653 7.00628 13.653 6.15117C13.653 5.34951 14.2057 4.65474 14.9427 4.65474C15.6336 4.65474 16.2323 5.29607 16.2323 6.15117C16.1863 7.00628 15.6336 7.64761 14.9427 7.64761ZM33.9652 2.1963C32.0768 2.1963 30.5107 3.95996 30.5107 6.20462C30.5107 8.39583 32.0307 10.2129 33.9652 10.2129C34.2416 10.2129 34.5179 10.1595 34.7482 10.106L40.2753 20.5277C40.9202 19.8329 41.7492 19.3519 42.6244 19.1381L36.8669 8.28894C37.1894 7.70106 37.3736 6.95284 37.3736 6.20462C37.3736 3.95996 35.8536 2.1963 33.9652 2.1963ZM33.9652 7.64761C33.2743 7.64761 32.6755 7.00628 32.6755 6.15117C32.6755 5.34951 33.2282 4.65474 33.9652 4.65474C34.6561 4.65474 35.2549 5.29607 35.2549 6.15117C35.2088 7.00628 34.6561 7.64761 33.9652 7.64761ZM14.9427 47.0894C16.3245 47.0894 17.4759 46.1809 18.0287 44.8448H29.4053C29.2211 44.2569 29.129 43.6155 29.129 42.9742C29.129 42.6001 29.175 42.1726 29.2211 41.7984H18.2129C18.1208 41.4778 18.0287 41.2106 17.8905 40.9433L23.6018 30.1476C22.7267 29.9338 21.8976 29.4528 21.2528 28.7581L15.7717 39.0728C15.4954 38.9659 15.219 38.9659 14.8966 38.9659C13.0082 38.9659 11.4422 40.7296 11.4422 42.9742V43.0277V43.0811C11.4882 45.3258 13.0082 47.0894 14.9427 47.0894ZM14.9427 41.6381C15.6336 41.6381 16.1863 42.2794 16.2323 43.0277C16.1863 43.8293 15.6336 44.4172 14.9427 44.4172C14.2518 44.4172 13.6991 43.7759 13.653 43.0277C13.6991 42.2794 14.2518 41.6381 14.9427 41.6381ZM40.2753 28.8115L34.7482 39.2331C34.4719 39.1797 34.2416 39.1262 33.9652 39.1262C32.0768 39.1262 30.5107 40.8899 30.5107 43.1345C30.5107 45.3258 32.0307 47.1429 33.9652 47.1429C35.8536 47.1429 37.4197 45.3792 37.4197 43.1345C37.4197 42.3863 37.2354 41.6381 36.913 41.0502L42.6244 30.2011C41.7032 29.9338 40.9202 29.4528 40.2753 28.8115ZM33.9652 44.5775C33.2743 44.5775 32.6755 43.9362 32.6755 43.0811C32.6755 42.2794 33.2282 41.5847 33.9652 41.5847C34.6561 41.5847 35.2549 42.226 35.2549 43.0811C35.2088 43.9362 34.6561 44.5775 33.9652 44.5775ZM43.4995 20.6345C42.1638 20.6345 41.0583 21.4897 40.4596 22.7723H29.0368C29.2211 23.3602 29.3132 24.0015 29.3132 24.6429C29.3132 25.017 29.2671 25.4445 29.2211 25.8186H40.2293C40.6438 27.4754 41.9795 28.6512 43.5455 28.6512C45.434 28.6512 47 26.8875 47 24.6429C46.9539 22.4516 45.3879 20.6345 43.4995 20.6345ZM43.4995 26.1393C42.8086 26.1393 42.2098 25.498 42.2098 24.6429C42.2098 23.8412 42.7625 23.1464 43.4995 23.1464C44.1904 23.1464 44.7891 23.7878 44.7891 24.6429C44.7891 25.4445 44.1904 26.1393 43.4995 26.1393ZM24.523 20.6345C24.477 20.6345 24.477 20.6345 24.523 20.6345C22.957 20.6345 21.6213 21.8103 21.2068 23.4671H10.1986C10.2446 23.8412 10.2907 24.2153 10.2907 24.6429C10.2907 25.2842 10.1986 25.9255 10.0143 26.5134H21.4371C22.0358 27.7961 23.1412 28.6512 24.477 28.6512C24.477 28.6512 24.477 28.6512 24.523 28.6512L30.2804 39.5538C30.8332 38.7521 31.5701 38.1642 32.4452 37.8436L26.9181 27.422C27.5169 26.7272 27.8854 25.7117 27.8854 24.6429C27.8854 23.574 27.5169 22.5585 26.9181 21.8638L32.3992 11.4956C31.5241 11.1749 30.7871 10.587 30.2344 9.78538L24.523 20.6345ZM24.477 26.1393C23.7861 26.1393 23.1873 25.498 23.1873 24.6429C23.1873 23.7878 23.74 23.1464 24.477 23.1464C25.1679 23.1464 25.7666 23.7878 25.7666 24.6429C25.7666 25.498 25.1679 26.1393 24.477 26.1393ZM5.45445 28.6512L11.2119 39.5538C11.7646 38.7521 12.5015 38.1642 13.3767 37.8436L7.8956 27.422C8.49437 26.7272 8.86285 25.7117 8.86285 24.6429C8.86285 23.574 8.49437 22.5585 7.8956 21.8638L13.3767 11.4956C12.5015 11.1749 11.7646 10.587 11.2119 9.78538L5.50051 20.6345C5.50051 20.6345 5.50051 20.6345 5.45445 20.6345C3.56602 20.6345 2 22.3982 2 24.6429C2 26.8341 3.56602 28.6512 5.45445 28.6512ZM5.45445 23.1464C6.14534 23.1464 6.74411 23.7878 6.74411 24.6429C6.74411 25.498 6.1914 26.1393 5.45445 26.1393C4.7175 26.1393 4.16479 25.4445 4.16479 24.6429C4.16479 23.8412 4.76356 23.1464 5.45445 23.1464Z" fill="url(#paint0_linear)"/>
</g>
<defs>
<linearGradient id="paint0_linear" x1="11.6429" y1="2.14286" x2="26.9107" y2="43.125" gradientUnits="userSpaceOnUse">
<stop stop-color="#F4B961"/>
<stop offset="1" stop-color="#C0DC16"/>
</linearGradient>
<clipPath id="clip0">
<rect width="47" height="47" fill="white"/>
</clipPath>
</defs>
</svg>
