<svg width="48" height="48" viewBox="0 0 48 48" fill="none" xmlns="http://www.w3.org/2000/svg">
<g clip-path="url(#clip0)">
<path d="M27.4227 34.0067C27.2942 34.7939 27.0899 35.5543 26.8146 36.2815L29.2843 38.5193C28.938 39.2482 28.5436 39.9486 28.0885 40.6065L24.9175 39.5842C24.4174 40.1955 23.8574 40.7548 23.2461 41.2549L24.2684 44.4258C23.6105 44.881 22.9101 45.2746 22.1812 45.6216L19.9434 43.1519C19.2161 43.4272 18.4565 43.6315 17.6685 43.7601L16.9641 47.0225C16.5658 47.0541 16.1659 47.0833 15.7589 47.0833C15.3518 47.0833 14.9519 47.0541 14.5528 47.0225L13.8484 43.7601C13.0612 43.6315 12.3008 43.4272 11.5735 43.1519L9.33572 45.6216C8.60687 45.2754 7.90642 44.881 7.24857 44.4258L8.27085 41.2549C7.65953 40.7548 7.10028 40.1947 6.60018 39.5842L3.42923 40.6065C2.9741 39.9486 2.58049 39.2482 2.23342 38.5193L4.70313 36.2815C4.42785 35.5543 4.22355 34.7947 4.09497 34.0067L0.832527 33.3023C0.800975 32.9031 0.77179 32.5032 0.77179 32.0962C0.77179 31.6892 0.800975 31.2893 0.832527 30.8901L4.09497 30.1857C4.22355 29.3985 4.42785 28.6381 4.70313 27.9109L2.23342 25.6731C2.5797 24.9442 2.9741 24.2438 3.42923 23.5859L6.60018 24.6082C7.10028 23.9969 7.66032 23.4376 8.27164 22.9375L7.24936 19.7666C7.90721 19.3114 8.60766 18.9178 9.33651 18.5708L11.5743 21.0405C12.3016 20.7652 13.0612 20.5609 13.8492 20.4323L14.5536 17.1699C14.9519 17.1383 15.3518 17.1091 15.7589 17.1091C16.1659 17.1091 16.5658 17.1383 16.9649 17.1699L17.6693 20.4323C18.4565 20.5609 19.2169 20.7652 19.9442 21.0405L22.182 18.5708C22.9108 18.917 23.6113 19.3114 24.2691 19.7666L23.2469 22.9375C23.8582 23.4376 24.4174 23.9977 24.9175 24.609L28.0885 23.5867C28.5436 24.2446 28.9372 24.945 29.2843 25.6738L26.8146 27.9117C27.0899 28.6389 27.2942 29.3985 27.4227 30.1865L30.6852 30.8909C30.7167 31.2893 30.7459 31.6892 30.7459 32.0962C30.7459 32.5032 30.7167 32.9031 30.6852 33.3023L27.4227 34.0067ZM15.7589 24.2083C11.4024 24.2083 7.87093 27.7397 7.87093 32.0962C7.87093 36.4527 11.4024 39.9841 15.7589 39.9841C20.1154 39.9841 23.6468 36.4527 23.6468 32.0962C23.6468 27.7397 20.1154 24.2083 15.7589 24.2083V24.2083Z" fill="url(#paint0_linear)"/>
<path d="M38.3649 11.8281C38.2418 12.2359 38.0809 12.6272 37.8829 12.9956L39.1284 15.3824C38.708 15.9141 38.2284 16.3937 37.6968 16.8141L35.3099 15.5686C34.9415 15.7674 34.5503 15.9283 34.1425 16.0506L33.3347 18.622C33.0019 18.6615 32.6658 18.6867 32.3235 18.6867C31.9812 18.6867 31.6452 18.6615 31.3131 18.6228L30.5053 16.0513C30.0975 15.9291 29.7063 15.7674 29.3379 15.5694L26.951 16.8149C26.4194 16.3945 25.9398 15.9149 25.5194 15.3832L26.7649 12.9963C26.5661 12.628 26.4052 12.2367 26.2829 11.8289L23.7115 11.0212C23.672 10.6883 23.6468 10.3523 23.6468 10.01C23.6468 9.66764 23.672 9.33161 23.7107 8.99953L26.2821 8.19181C26.4044 7.784 26.5661 7.39276 26.7641 7.02439L25.5186 4.63751C25.939 4.10586 26.4186 3.62627 26.9503 3.20585L29.3371 4.45135C29.7055 4.25257 30.0967 4.09166 30.5046 3.9694L31.3123 1.39793C31.6451 1.35849 31.9812 1.33325 32.3235 1.33325C32.6658 1.33325 33.0019 1.35849 33.334 1.39714L34.1417 3.96861C34.5495 4.09087 34.9407 4.25258 35.3091 4.45056L37.696 3.20506C38.2276 3.62548 38.7072 4.10507 39.1276 4.63672L37.8821 7.0236C38.0809 7.39197 38.2418 7.78321 38.3641 8.19102L40.9356 8.99874C40.975 9.33161 41.0002 9.66764 41.0002 10.01C41.0002 10.3523 40.975 10.6883 40.9363 11.0204L38.3649 11.8281ZM32.3235 6.8548C30.5811 6.8548 29.1683 8.26753 29.1683 10.01C29.1683 11.7524 30.5811 13.1651 32.3235 13.1651C34.066 13.1651 35.4787 11.7524 35.4787 10.01C35.4787 8.26753 34.066 6.8548 32.3235 6.8548Z" fill="url(#paint1_linear)"/>
<path d="M44.7383 29.6279C44.6168 30.0657 44.4457 30.4806 44.2264 30.8679L45.0112 32.5197C44.6547 32.9748 44.2453 33.3842 43.7902 33.7407L42.1385 32.9559C41.7519 33.1752 41.3363 33.3463 40.8985 33.4678L40.2848 35.1937C40.0016 35.2284 39.7153 35.2513 39.4226 35.2513C39.13 35.2513 38.8437 35.2284 38.5605 35.1937L37.9468 33.4678C37.509 33.3463 37.0941 33.1752 36.7068 32.9559L35.0551 33.7407C34.6 33.3842 34.1906 32.9748 33.834 32.5197L34.6189 30.8679C34.3996 30.4814 34.2284 30.0657 34.107 29.6287L32.3811 29.0151C32.3464 28.7311 32.3235 28.4448 32.3235 28.1521C32.3235 27.8595 32.3464 27.5731 32.3811 27.29L34.107 26.6763C34.2284 26.2385 34.3996 25.8236 34.6189 25.4371L33.834 23.7854C34.1906 23.3302 34.6 22.9208 35.0551 22.5643L36.7068 23.3492C37.0933 23.1299 37.509 22.9587 37.9468 22.8372L38.5605 21.1113C38.8437 21.0759 39.13 21.053 39.4226 21.053C39.7153 21.053 40.0016 21.0759 40.2848 21.1106L40.8985 22.8364C41.3363 22.9579 41.7512 23.1291 42.1385 23.3484L43.7902 22.5635C44.2453 22.9201 44.6547 23.3294 45.0112 23.7846L44.2264 25.4363C44.4457 25.8228 44.6168 26.2385 44.7383 26.6763L46.4642 27.29C46.4989 27.5731 46.5218 27.8595 46.5218 28.1521C46.5218 28.4448 46.4989 28.7311 46.4642 29.0143L44.7383 29.6279ZM39.4226 25.7857C38.1156 25.7857 37.0563 26.8451 37.0563 28.1521C37.0563 29.4591 38.1156 30.5185 39.4226 30.5185C40.7297 30.5185 41.789 29.4591 41.789 28.1521C41.789 26.8451 40.7297 25.7857 39.4226 25.7857Z" fill="url(#paint2_linear)"/>
<path d="M46.6769 2.92655L41.9592 1.98315L41.0158 6.70014L42.5626 7.01013L42.9878 4.8867C43.7521 6.47691 44.156 8.22961 44.156 10.0099C44.156 12.7297 43.2583 15.2869 41.5608 17.4048L42.7921 18.3916C44.6892 16.0245 45.7335 13.0483 45.7335 10.0099C45.7335 7.94406 45.2563 5.9074 44.3484 4.06951L46.3677 4.47337L46.6769 2.92655Z" fill="url(#paint3_linear)"/>
<path d="M17.105 9.45239L15.9896 10.5677L17.0616 11.6397C16.6278 11.6121 16.1931 11.5877 15.7585 11.5877C9.65641 11.5877 3.91241 14.2782 0 18.97L1.21159 19.9804C4.82347 15.6492 10.1249 13.1652 15.7585 13.1652C16.16 13.1652 16.5607 13.1881 16.9614 13.2134L15.9896 14.1852L17.105 15.3005L20.029 12.3764L17.105 9.45239Z" fill="url(#paint4_linear)"/>
</g>
<defs>
<linearGradient id="paint0_linear" x1="15.7589" y1="17.1091" x2="15.7589" y2="47.0833" gradientUnits="userSpaceOnUse">
<stop stop-color="#AF5EE5"/>
<stop offset="1" stop-color="#9208EC"/>
</linearGradient>
<linearGradient id="paint1_linear" x1="32.3235" y1="1.33325" x2="32.3235" y2="18.6867" gradientUnits="userSpaceOnUse">
<stop stop-color="#AF5EE5"/>
<stop offset="1" stop-color="#9208EC"/>
</linearGradient>
<linearGradient id="paint2_linear" x1="39.4226" y1="21.053" x2="39.4226" y2="35.2513" gradientUnits="userSpaceOnUse">
<stop stop-color="#AF5EE5"/>
<stop offset="1" stop-color="#9208EC"/>
</linearGradient>
<linearGradient id="paint3_linear" x1="43.8464" y1="1.98315" x2="43.8464" y2="18.3916" gradientUnits="userSpaceOnUse">
<stop stop-color="#AF5EE5"/>
<stop offset="1" stop-color="#9208EC"/>
</linearGradient>
<linearGradient id="paint4_linear" x1="10.0145" y1="9.45239" x2="10.0145" y2="19.9804" gradientUnits="userSpaceOnUse">
<stop stop-color="#AF5EE5"/>
<stop offset="1" stop-color="#9208EC"/>
</linearGradient>
<clipPath id="clip0">
<rect width="48" height="48" fill="white"/>
</clipPath>
</defs>
</svg>
