<svg width="34" height="36" viewBox="0 0 34 36" fill="none" xmlns="http://www.w3.org/2000/svg">
<path d="M8.95235 29.6573C6.2188 27.9189 4.12147 25.3423 2.97407 22.3128C1.82666 19.2833 1.69084 15.9638 2.58692 12.8507C3.483 9.73765 5.36282 6.99832 7.94522 5.04244C10.5276 3.08656 13.6738 2.01926 16.9132 2.00017C20.1527 1.98108 23.3112 3.01121 25.9165 4.93651C28.5218 6.86181 30.4338 9.5788 31.3665 12.6811C32.2992 15.7834 32.2025 19.1043 31.0909 22.1471C29.9793 25.1899 27.9125 27.791 25.1996 29.5615L19.1374 20.2725C19.8442 19.8112 20.3826 19.1336 20.6722 18.3409C20.9618 17.5482 20.987 16.683 20.744 15.8748C20.501 15.0665 20.0029 14.3587 19.3242 13.8571C18.6454 13.3555 17.8226 13.0872 16.9786 13.0921C16.1347 13.0971 15.315 13.3752 14.6422 13.8847C13.9695 14.3943 13.4797 15.1079 13.2463 15.919C13.0128 16.73 13.0482 17.5948 13.3471 18.384C13.6461 19.1733 14.1925 19.8446 14.9046 20.2974L8.95235 29.6573Z" fill="url(#paint0_linear)"/>
<path d="M16.7632 11.9925C14.2569 11.9925 12.2189 14.0305 12.2189 16.5367C12.2189 19.0408 14.2569 21.081 16.7632 21.081C19.2673 21.081 21.3075 19.043 21.3075 16.5367C21.3075 14.0305 19.2673 11.9925 16.7632 11.9925ZM16.7632 18.4428C15.7123 18.4428 14.8571 17.5876 14.8571 16.5367C14.8571 15.4859 15.7123 14.6307 16.7632 14.6307C17.8141 14.6307 18.6693 15.4859 18.6693 16.5367C18.6693 17.5876 17.8141 18.4428 16.7632 18.4428Z" fill="url(#paint1_linear)"/>
<path d="M22.2103 25.4884L22.2105 25.4883C25.3605 23.5691 27.2403 20.2226 27.2403 16.5367C27.2403 10.7607 22.5412 6.05966 16.7566 6.05964L16.7521 6.05969L16.5697 6.06186C10.7992 6.06306 6.28613 10.6738 6.28613 16.5367C6.28613 20.2227 8.16821 23.5691 11.3158 25.4882L11.3166 25.4887C11.5203 25.6121 11.7436 25.6727 11.9683 25.6727C12.3911 25.6727 12.8049 25.4569 13.0404 25.0708L13.0405 25.0705C13.4002 24.4795 13.2165 23.7076 12.6231 23.3463C10.2259 21.884 8.79493 19.3406 8.79493 16.5367C8.79493 12.0597 12.2162 8.57065 16.5807 8.57068L16.5852 8.57063L16.7676 8.56846C21.1588 8.56966 24.7337 12.1432 24.7337 16.5367C24.7337 19.3406 23.3049 21.8839 20.9059 23.3461C20.3122 23.7073 20.1284 24.4794 20.4881 25.0705C20.8468 25.6616 21.6187 25.8484 22.2103 25.4884Z" fill="url(#paint2_linear)" stroke="url(#paint3_linear)" stroke-width="0.75"/>
<path d="M8.14069 30.055L8.1405 30.0549C3.43573 27.1285 0.625 22.0725 0.625 16.5367C0.625 7.76211 7.76211 0.625 16.5367 0.625H16.9896C25.7621 0.625 32.9014 7.76431 32.9014 16.5367V16.5369C32.8991 22.0726 30.0885 27.1285 25.3837 30.0549L25.3813 30.0564C24.7951 30.415 24.0239 30.242 23.6561 29.6514C23.656 29.6513 23.6559 29.6512 23.6559 29.651L23.9742 29.4529L8.14069 30.055ZM8.14069 30.055C8.34808 30.1839 8.57771 30.2434 8.80245 30.2434M8.14069 30.055L8.80245 30.2434M9.86823 29.6512C10.2358 29.063 10.0523 28.2896 9.46743 27.9236L9.46657 27.9231C5.50049 25.4566 3.13379 21.2019 3.1316 16.5367L9.86823 29.6512ZM9.86823 29.6512C9.63025 30.0332 9.22188 30.2434 8.80245 30.2434M9.86823 29.6512L8.80245 30.2434" fill="url(#paint4_linear)" stroke="url(#paint5_linear)" stroke-width="0.75"/>
<path d="M17.7217 24.0974C17.2424 23.0223 16.4488 23.0179 15.9585 24.0886L10.9877 34.0522C10.4975 35.125 11.1768 36 12.4981 36H14.4482C15.7695 36 17.9306 36 19.2519 36H21.0151C22.3342 36 23.0245 35.1206 22.5452 34.0456L17.7217 24.0974Z" fill="url(#paint6_linear)"/>
<defs>
<linearGradient id="paint0_linear" x1="19.9446" y1="-12.3075" x2="23.8952" y2="42.0141" gradientUnits="userSpaceOnUse">
<stop stop-color="#C7DAFD"/>
<stop offset="1" stop-color="#E9F1FF"/>
</linearGradient>
<linearGradient id="paint1_linear" x1="12.2189" y1="11.9925" x2="19.0345" y2="22.0772" gradientUnits="userSpaceOnUse">
<stop stop-color="#2569E6"/>
<stop offset="1" stop-color="#3649EF"/>
</linearGradient>
<linearGradient id="paint2_linear" x1="6.66113" y1="6.43466" x2="20.4215" y2="28.2429" gradientUnits="userSpaceOnUse">
<stop stop-color="#2569E6"/>
<stop offset="1" stop-color="#3649EF"/>
</linearGradient>
<linearGradient id="paint3_linear" x1="16.7632" y1="6.43466" x2="16.7632" y2="25.2977" gradientUnits="userSpaceOnUse">
<stop stop-color="#2569E6"/>
<stop offset="1" stop-color="#3649EF"/>
</linearGradient>
<linearGradient id="paint4_linear" x1="1" y1="1" x2="21.8808" y2="34.7413" gradientUnits="userSpaceOnUse">
<stop stop-color="#2569E6"/>
<stop offset="1" stop-color="#3649EF"/>
</linearGradient>
<linearGradient id="paint5_linear" x1="16.7632" y1="1" x2="16.7632" y2="29.8684" gradientUnits="userSpaceOnUse">
<stop stop-color="#2569E6"/>
<stop offset="1" stop-color="#3649EF"/>
</linearGradient>
<linearGradient id="paint6_linear" x1="10.8284" y1="23.2883" x2="20.5878" y2="36.7718" gradientUnits="userSpaceOnUse">
<stop stop-color="#2569E6"/>
<stop offset="1" stop-color="#3649EF"/>
</linearGradient>
</defs>
</svg>
