<svg width="47" height="47" viewBox="0 0 47 47" fill="none" xmlns="http://www.w3.org/2000/svg">
<g clip-path="url(#clip0)">
<path d="M1.94048 13.7552L4.10454 14.7696C3.58285 16.7985 3.46692 18.9432 3.81471 21.0976L1.57337 21.9091C0.732861 22.2183 0.298117 23.1457 0.597608 23.9959L1.45744 26.3532C1.76659 27.1937 2.69404 27.6284 3.54421 27.3289L5.78555 26.5174C6.89657 28.3916 8.36504 29.9664 10.0654 31.1837L9.05097 33.3477C8.67419 34.1592 9.02198 35.1253 9.83351 35.5118L12.1135 36.5745C12.925 36.9513 13.8911 36.6035 14.2776 35.7919L15.292 33.6182C16.7894 33.995 18.3545 34.1592 19.9389 34.0626L19.9679 33.4347C20.0065 32.5459 20.393 31.7247 21.0499 31.1257C21.6392 30.5847 22.3928 30.2755 23.1946 30.2562C23.3299 29.9181 23.4845 29.5896 23.6584 29.2611C23.4458 28.9906 23.2816 28.6911 23.1657 28.3723C22.2865 28.7298 21.3494 28.9809 20.364 29.0969C14.577 29.7732 9.3408 25.6383 8.66453 19.8513C7.98826 14.0644 12.1232 8.82814 17.9101 8.15188C23.697 7.47561 28.9333 11.6105 29.6095 17.3974C29.8414 19.4069 29.5033 21.3488 28.7014 23.0588C29.0782 23.2133 29.4163 23.4355 29.7158 23.7157C30.0539 23.5805 30.3921 23.4549 30.7495 23.3389C30.9524 21.6289 32.4499 20.3344 34.1985 20.4117L34.4304 20.4213C34.5946 19.0205 34.5656 17.5907 34.3338 16.1608L36.6717 15.3107C37.5122 15.0015 37.947 14.0741 37.6475 13.2239L36.7876 10.8666C36.4785 10.0261 35.551 9.59136 34.7009 9.89085L32.3629 10.741C31.2712 8.89577 29.8221 7.33069 28.1411 6.12307L29.1941 3.88172C29.5709 3.0702 29.2231 2.1041 28.4116 1.71766L26.1316 0.654954C25.3201 0.278176 24.354 0.625971 23.9675 1.43749L22.9241 3.66918C20.9147 3.14749 18.7796 3.03156 16.6542 3.36969L15.8233 1.07038C15.5142 0.229871 14.5867 -0.204873 13.7365 0.0946171L11.3793 0.954444C10.5388 1.2636 10.104 2.19105 10.4035 3.04122L11.2343 5.32121C9.36978 6.42256 7.78538 7.87171 6.56809 9.56238L4.39437 8.54798C3.58285 8.1712 2.61675 8.51899 2.23031 9.33052L1.16761 11.6105C0.771506 12.4027 1.1193 13.3688 1.94048 13.7552Z" fill="url(#paint0_linear)"/>
<path d="M36.6428 23.8413C36.6428 23.822 36.6428 23.8123 36.6428 23.793C36.6428 23.252 36.2177 22.7979 35.667 22.7689L34.0826 22.7013C33.5126 22.6723 33.0392 23.1167 33.0102 23.6771L32.9426 25.1842C31.6384 25.3677 30.3535 25.8218 29.1942 26.5367L28.1797 25.4257C27.7933 25.0103 27.146 24.9813 26.7306 25.3581L25.5616 26.4304C25.3394 26.6333 25.2332 26.9135 25.2332 27.184C25.2332 27.4352 25.3201 27.6767 25.5037 27.8796L26.5181 28.9906C25.6969 30.0823 25.1365 31.3189 24.837 32.6038L23.3299 32.5362C22.7599 32.5072 22.2866 32.9516 22.2576 33.5119L22.1899 35.0963C22.1899 35.1157 22.1899 35.1253 22.1899 35.1446C22.1899 35.6856 22.615 36.1397 23.1657 36.1687L24.6825 36.2363C24.8757 37.5406 25.3298 38.8158 26.0543 39.9655L24.924 40.9992C24.7018 41.2021 24.5955 41.4822 24.5955 41.7527C24.5955 42.0039 24.6825 42.2455 24.866 42.4483L25.9384 43.6173C26.3248 44.0327 26.9721 44.0617 27.3875 43.6849L28.5275 42.6416C29.6192 43.4531 30.8462 44.0038 32.1214 44.3032L32.0538 45.8587C32.0538 45.878 32.0538 45.8876 32.0538 45.907C32.0538 46.448 32.4789 46.902 33.0296 46.931L34.614 46.9987C35.184 47.0276 35.6573 46.5832 35.6863 46.0229L35.754 44.4675C37.0485 44.2839 38.3045 43.8299 39.4541 43.1149L40.5072 44.2743C40.8936 44.6897 41.5409 44.7187 41.9563 44.3419L43.1253 43.2695C43.3475 43.0666 43.4538 42.7865 43.4538 42.516C43.4538 42.2648 43.3668 42.0233 43.1833 41.8204L42.1302 40.6611C42.9417 39.579 43.5021 38.3617 43.8016 37.0865L45.357 37.1541C45.927 37.1831 46.4004 36.7387 46.4293 36.1784L46.497 34.594C46.497 34.5746 46.497 34.565 46.497 34.5457C46.497 34.0046 46.0719 33.5506 45.5212 33.5216L43.9658 33.454C43.7822 32.1594 43.3378 30.8841 42.6229 29.7345L43.7629 28.6911C43.9851 28.4882 44.0914 28.208 44.0914 27.9375C44.0914 27.6864 44.0044 27.4448 43.8209 27.242L42.7485 26.073C42.3621 25.6576 41.7148 25.6286 41.2994 26.0053L40.169 27.0391C39.0773 26.2179 37.8504 25.6479 36.5751 25.3484L36.6428 23.8413ZM38.2368 31.2899C39.1643 32.3043 39.6183 33.5796 39.6183 34.8548C39.6183 36.2846 39.0387 37.7145 37.8987 38.7482C35.7443 40.719 32.4113 40.5644 30.4404 38.4197C29.513 37.4053 29.0589 36.1301 29.0589 34.8548C29.0589 33.425 29.6386 31.9952 30.7786 30.9614C32.9233 28.9906 36.266 29.1355 38.2368 31.2899Z" fill="url(#paint1_linear)"/>
<path d="M19.1177 10.7893C14.7992 10.7893 11.2923 14.2962 11.2923 18.6147C11.2923 22.9332 14.7992 26.4401 19.1177 26.4401C23.4361 26.4401 26.9431 22.9332 26.9431 18.6147C26.9431 14.2962 23.4361 10.7893 19.1177 10.7893ZM19.1177 16.0642C17.7072 16.0642 16.5672 17.2042 16.5672 18.6147C16.5672 19.262 16.0455 19.7837 15.3982 19.7837C14.7509 19.7837 14.2292 19.262 14.2292 18.6147C14.2292 15.9193 16.4223 13.7262 19.1177 13.7262C19.765 13.7262 20.2867 14.2479 20.2867 14.8952C20.2867 15.5425 19.7553 16.0642 19.1177 16.0642Z" fill="url(#paint2_linear)"/>
</g>
<defs>
<linearGradient id="paint0_linear" x1="19.1225" y1="0" x2="19.1225" y2="36.7264" gradientUnits="userSpaceOnUse">
<stop stop-color="#FF9F5A"/>
<stop offset="1" stop-color="#D56412"/>
</linearGradient>
<linearGradient id="paint1_linear" x1="34.3435" y1="22.7" x2="34.3435" y2="47" gradientUnits="userSpaceOnUse">
<stop stop-color="#FF9F5A"/>
<stop offset="1" stop-color="#D56412"/>
</linearGradient>
<linearGradient id="paint2_linear" x1="19.1177" y1="10.7893" x2="19.1177" y2="26.4401" gradientUnits="userSpaceOnUse">
<stop stop-color="#FF9F5A"/>
<stop offset="1" stop-color="#D56412"/>
</linearGradient>
<clipPath id="clip0">
<rect width="47" height="47" fill="white"/>
</clipPath>
</defs>
</svg>
