<svg width="23" height="35" viewBox="0 0 23 35" fill="none" xmlns="http://www.w3.org/2000/svg">
<path d="M0 23.2713C0.00291444 24.2361 0.24781 25.1847 0.712264 26.0304C1.17672 26.876 1.84589 27.5916 2.65851 28.1117L3.0867 30.5319C3.30433 31.7838 3.95714 32.9186 4.92995 33.7361C5.90276 34.5536 7.13304 35.0012 8.40372 35H13.2851C14.5558 35.0012 15.7861 34.5536 16.7589 33.7361C17.7317 32.9186 18.3845 31.7838 18.6021 30.5319L19.0266 28.1154C19.694 27.6877 20.2662 27.1271 20.7076 26.4685C21.149 25.81 21.45 25.0677 21.592 24.2878C21.9759 24.2157 22.3226 24.0118 22.5721 23.7113C22.8216 23.4108 22.9583 23.0326 22.9585 22.642V20.1064C22.9572 19.7336 22.8316 19.372 22.6016 19.0786C22.3717 18.7853 22.0505 18.577 21.6888 18.4867V17.1947C22.0505 17.1044 22.3717 16.8961 22.6016 16.6027C22.8316 16.3094 22.9572 15.9477 22.9585 15.575V12.6596C22.9572 12.2842 22.8299 11.9201 22.5969 11.6258C22.364 11.3314 22.039 11.1238 21.6739 11.0362C21.6225 10.1253 21.3557 9.23965 20.8955 8.45193C20.4353 7.6642 19.7948 6.99689 19.0266 6.50479L18.6319 4.40851C18.4006 3.17291 17.7457 2.05664 16.7799 1.25195C15.8142 0.447259 14.598 0.00452643 13.341 0H8.36277C7.10368 0.000898529 5.88444 0.441528 4.91568 1.24577C3.94691 2.05001 3.28947 3.16736 3.05691 4.40479L2.66223 6.50106C1.84892 7.0207 1.17902 7.73613 0.713897 8.58181C0.248777 9.42748 0.00331474 10.3764 0 11.3415V23.2713ZM1.8617 11.3564C1.86269 10.3198 2.2749 9.32596 3.00788 8.59298C3.74085 7.86001 4.73469 7.44779 5.77128 7.44681H15.9176C16.9541 7.44779 17.948 7.86001 18.681 8.59298C19.4139 9.32596 19.8261 10.3198 19.8271 11.3564V23.2713C19.8261 24.3079 19.4139 25.3017 18.681 26.0347C17.948 26.7676 16.9541 27.1799 15.9176 27.1808H5.77128C4.73469 27.1799 3.74085 26.7676 3.00788 26.0347C2.2749 25.3017 1.86269 24.3079 1.8617 23.2713V11.3564Z" fill="url(#paint0_linear)"/>
<defs>
<linearGradient id="paint0_linear" x1="0" y1="0" x2="28.2747" y2="27.4433" gradientUnits="userSpaceOnUse">
<stop stop-color="#2569E6"/>
<stop offset="1" stop-color="#3649EF"/>
</linearGradient>
</defs>
</svg>
