<svg width="35" height="35" viewBox="0 0 35 35" fill="none" xmlns="http://www.w3.org/2000/svg">
<path d="M3.99998 7L17.5 3L31 7V26L25.5 30.5L17 32.5L9.99998 30.5L3.99998 26V7Z" fill="#D8E5FE"/>
<path d="M15.0157 12.4675V13.4974H19.9843V12.4675C19.9843 11.0977 18.8699 9.98328 17.5 9.98328C16.1302 9.98328 15.0157 11.0977 15.0157 12.4675Z" fill="#2569E6"/>
<path d="M17.5 0L1.34395 5.2971V18.8439C1.34395 27.7667 8.57726 35 17.5 35C26.4227 35 33.6561 27.7667 33.6561 18.8439V5.2971L17.5 0ZM30.6592 18.5093C30.6592 25.7653 24.756 31.6685 17.5 31.6685C10.244 31.6685 4.34082 25.7653 4.34082 18.5093V7.5922L17.5 3.27776L30.6592 7.59227V18.5093Z" fill="#2569E6"/>
<path d="M6.39159 9.07803V18.5093C6.39159 24.6345 11.3748 29.6177 17.5 29.6177C23.6252 29.6177 28.6084 24.6345 28.6084 18.5093V9.07803L17.5 5.43591L6.39159 9.07803ZM22.0351 12.4675V13.4974H24.0198V24.2861H10.9801V13.4974H12.9649V12.4675C12.9649 9.96684 14.9993 7.93247 17.5 7.93247C20.0006 7.93247 22.0351 9.96691 22.0351 12.4675Z" fill="#2569E6"/>
</svg>
