<svg width="48" height="48" viewBox="0 0 48 48" fill="none" xmlns="http://www.w3.org/2000/svg">
<path d="M43.8333 3H4.16667C3.85725 3 3.5605 3.12292 3.34171 3.34171C3.12292 3.5605 3 3.85725 3 4.16667V43.8333C3 44.1428 3.12292 44.4395 3.34171 44.6583C3.5605 44.8771 3.85725 45 4.16667 45H43.8333C44.1428 45 44.4395 44.8771 44.6583 44.6583C44.8771 44.4395 45 44.1428 45 43.8333V4.16667C45 3.85725 44.8771 3.5605 44.6583 3.34171C44.4395 3.12292 44.1428 3 43.8333 3ZM19.3333 8.83333C19.3333 9.06408 19.2649 9.28964 19.1367 9.4815C19.0085 9.67336 18.8263 9.82289 18.6131 9.91119C18.4 9.9995 18.1654 10.0226 17.9391 9.97758C17.7127 9.93257 17.5049 9.82145 17.3417 9.65829C17.1785 9.49513 17.0674 9.28725 17.0224 9.06094C16.9774 8.83463 17.0005 8.60005 17.0888 8.38687C17.1771 8.17369 17.3266 7.99148 17.5185 7.86329C17.7104 7.73509 17.9359 7.66667 18.1667 7.66667C18.4761 7.66667 18.7728 7.78958 18.9916 8.00838C19.2104 8.22717 19.3333 8.52391 19.3333 8.83333ZM14.6667 8.83333C14.6667 9.06408 14.5982 9.28964 14.47 9.4815C14.3419 9.67336 14.1596 9.82289 13.9465 9.91119C13.7333 9.9995 13.4987 10.0226 13.2724 9.97758C13.0461 9.93257 12.8382 9.82145 12.675 9.65829C12.5119 9.49513 12.4008 9.28725 12.3558 9.06094C12.3107 8.83463 12.3338 8.60005 12.4221 8.38687C12.5104 8.17369 12.66 7.99148 12.8518 7.86329C13.0437 7.73509 13.2693 7.66667 13.5 7.66667C13.8094 7.66667 14.1062 7.78958 14.325 8.00838C14.5438 8.22717 14.6667 8.52391 14.6667 8.83333ZM8.83333 7.66667C9.06408 7.66667 9.28964 7.73509 9.4815 7.86329C9.67336 7.99148 9.82289 8.17369 9.91119 8.38687C9.9995 8.60005 10.0226 8.83463 9.97758 9.06094C9.93257 9.28725 9.82145 9.49513 9.65829 9.65829C9.49513 9.82145 9.28725 9.93257 9.06094 9.97758C8.83463 10.0226 8.60005 9.9995 8.38687 9.91119C8.17369 9.82289 7.99148 9.67336 7.86329 9.4815C7.73509 9.28964 7.66667 9.06408 7.66667 8.83333C7.66667 8.52391 7.78958 8.22717 8.00838 8.00838C8.22717 7.78958 8.52391 7.66667 8.83333 7.66667ZM40.3 40.3H7.7V14.6667H20.5C20.6535 14.6676 20.8057 14.6381 20.9479 14.5801C21.09 14.522 21.2193 14.4365 21.3283 14.3283L25.645 10H40.3V40.3Z" fill="url(#paint0_linear)"/>
<path d="M21.2446 19.1321L20.4491 20.8214C20.1209 20.9727 19.8044 21.1474 19.502 21.3441L17.6079 21.1854C17.4284 21.1709 17.2485 21.2071 17.0891 21.2897C16.9298 21.3724 16.7976 21.4981 16.7082 21.6521L14.8141 24.8814C14.7181 25.0308 14.6672 25.204 14.6672 25.3808C14.6672 25.5576 14.7181 25.7307 14.8141 25.8801L15.8937 27.4108C15.8937 27.5788 15.8937 27.7561 15.8937 27.9334C15.8937 28.1108 15.8937 28.2881 15.8937 28.4561L14.8899 29.9868C14.7939 30.1361 14.7429 30.3093 14.7429 30.4861C14.7429 30.6629 14.7939 30.8361 14.8899 30.9854L16.784 34.2147C16.8734 34.3688 17.0055 34.4945 17.1649 34.5772C17.3242 34.6598 17.5042 34.696 17.6837 34.6814L19.5778 34.5227C19.8801 34.7195 20.1967 34.8941 20.5248 35.0454L21.3204 36.7347C21.3919 36.884 21.5024 37.0119 21.6405 37.1054C21.7786 37.1988 21.9393 37.2545 22.1064 37.2667H25.8946C26.0747 37.268 26.2515 37.2186 26.4041 37.1244C26.5568 37.0302 26.679 36.895 26.7564 36.7347L27.552 35.0454C27.8801 34.8941 28.1966 34.7195 28.499 34.5227L30.3931 34.6814C30.5726 34.696 30.7525 34.6598 30.9119 34.5772C31.0712 34.4945 31.2034 34.3688 31.2928 34.2147L33.1869 30.9854C33.2829 30.8361 33.3338 30.6629 33.3338 30.4861C33.3338 30.3093 33.2829 30.1361 33.1869 29.9868L32.1073 28.4561C32.1073 28.2881 32.1073 28.1108 32.1073 27.9334C32.1073 27.7561 32.1073 27.5788 32.1073 27.4108L33.1869 25.8801C33.2829 25.7307 33.3338 25.5576 33.3338 25.3808C33.3338 25.204 33.2829 25.0308 33.1869 24.8814L31.2928 21.6521C31.2034 21.4981 31.0712 21.3724 30.9119 21.2897C30.7525 21.2071 30.5726 21.1709 30.3931 21.1854L28.499 21.3441C28.1966 21.1474 27.8801 20.9727 27.552 20.8214L26.7564 19.1321C26.679 18.9719 26.5568 18.8367 26.4041 18.7425C26.2515 18.6482 26.0747 18.5989 25.8946 18.6001H22.1064C21.9263 18.5989 21.7495 18.6482 21.5969 18.7425C21.4443 18.8367 21.322 18.9719 21.2446 19.1321ZM22.1064 27.9334C22.1064 27.5642 22.2175 27.2033 22.4256 26.8964C22.6337 26.5894 22.9296 26.3501 23.2757 26.2089C23.6218 26.0676 24.0026 26.0306 24.37 26.1026C24.7375 26.1747 25.0749 26.3524 25.3398 26.6135C25.6047 26.8746 25.7851 27.2072 25.8582 27.5693C25.9313 27.9314 25.8938 28.3067 25.7504 28.6478C25.6071 28.9889 25.3643 29.2804 25.0528 29.4855C24.7413 29.6906 24.3751 29.8001 24.0005 29.8001C23.4982 29.8001 23.0164 29.6034 22.6612 29.2534C22.306 28.9033 22.1064 28.4285 22.1064 27.9334Z" fill="url(#paint1_linear)"/>
<defs>
<linearGradient id="paint0_linear" x1="12" y1="3" x2="26.25" y2="41.25" gradientUnits="userSpaceOnUse">
<stop stop-color="#38EAB5"/>
<stop offset="1" stop-color="#43BA88"/>
</linearGradient>
<linearGradient id="paint1_linear" x1="18.6672" y1="18.6001" x2="25.0005" y2="35.6001" gradientUnits="userSpaceOnUse">
<stop stop-color="#38EAB5"/>
<stop offset="1" stop-color="#43BA88"/>
</linearGradient>
</defs>
</svg>
