<svg width="27" height="35" viewBox="0 0 27 35" fill="none" xmlns="http://www.w3.org/2000/svg">
<rect x="3" y="3" width="15" height="29" fill="#D4E2FD"/>
<path d="M7.29318 5.83319C7.29318 6.6395 7.94506 7.29181 8.75137 7.29181H11.6682C12.4741 7.29181 13.1264 6.6395 13.1264 5.83319C13.1264 5.02731 12.4741 4.375 11.6682 4.375H8.75137C7.94506 4.375 7.29318 5.02731 7.29318 5.83319Z" fill="#334FED"/>
<path d="M25.3956 16.6456L20.4168 11.6668V2.91681C20.4168 1.31163 19.1034 0 17.5 0H2.91681C1.31294 0 0 1.31163 0 2.91681V29.1668C0 30.7703 1.31294 32.0832 2.91681 32.0832H10.2082V29.1668H2.91681V2.91681H17.5V26.0794L14.1877 21.3496C13.4956 20.3595 12.131 20.1189 11.1414 20.8123C10.1513 21.5062 9.912 22.869 10.6041 23.8586L18.4056 35H26.25V18.7079C26.25 17.9029 25.9241 17.1741 25.3956 16.6456Z" fill="#334FED"/>
</svg>
