<svg width="36" height="36" viewBox="0 0 36 36" fill="none" xmlns="http://www.w3.org/2000/svg">
<g clip-path="url(#clip0)">
<path d="M27 22.5C27 26.0899 27 30 18 29C8.50001 30 9.00002 26.0899 9.00002 22.5C11 19 14 17 18 16C22.5 17.5 24.5 19 27 22.5Z" fill="#D5E3FD"/>
<path d="M12 19.9517C12 22.1342 11.9986 24.108 6.5 23.5C0.695902 24.108 0.50001 23 1.00278 19.9517C2.2247 17.8239 5.05619 17.108 7.50001 16.5C10.2493 17.4119 10.4726 17.8239 12 19.9517Z" fill="#D5E3FD"/>
<path d="M24 20.4517C24 22.6342 24.0014 24.108 29.5 23.5C35.3041 24.108 35.5 23.5 34.9972 20.4517C33.7753 18.3239 30.9438 17.608 28.5 17C25.7507 17.9119 24.5 17.5 24 20.4517Z" fill="#D5E3FD"/>
<path d="M31.1349 16.6288C32.1892 15.888 32.8872 14.6557 32.8872 13.2667C32.8872 10.9945 31.0495 9.15672 28.7772 9.15672C26.5049 9.15672 24.6672 10.9945 24.6672 13.2667C24.6672 14.6557 25.3581 15.888 26.4195 16.6288C25.5148 16.9422 24.6886 17.4266 23.9905 18.0534C23.0289 17.2343 21.8963 16.6075 20.6569 16.2371C22.1599 15.3253 23.1713 13.6656 23.1713 11.778C23.1713 8.90029 20.8421 6.57104 17.9644 6.57104C15.0867 6.57104 12.7574 8.90741 12.7574 11.778C12.7574 13.6656 13.7618 15.3253 15.2719 16.2371C14.0467 16.6075 12.9284 17.2272 11.9739 18.0321C11.2758 17.4195 10.4638 16.9422 9.57341 16.6359C10.6276 15.8951 11.3257 14.6629 11.3257 13.2739C11.3257 11.0016 9.48793 9.16384 7.21567 9.16384C4.94341 9.16384 3.10566 11.0016 3.10566 13.2739C3.10566 14.6629 3.7966 15.8951 4.85793 16.6359C2.03007 17.6118 0 20.2972 0 23.4527V23.9228C0 23.9371 0.0142461 23.9513 0.0284923 23.9513H8.74001C8.69015 24.3431 8.66165 24.7491 8.66165 25.1551V25.6395C8.66165 27.7337 10.3569 29.429 12.4511 29.429H23.4919C25.5861 29.429 27.2814 27.7337 27.2814 25.6395V25.1551C27.2814 24.7491 27.2529 24.3431 27.203 23.9513H35.9715C35.9858 23.9513 36 23.9371 36 23.9228V23.4527C35.9858 20.2901 33.9628 17.6047 31.1349 16.6288ZM25.8069 13.2596C25.8069 11.6213 27.1389 10.2893 28.7772 10.2893C30.4155 10.2893 31.7475 11.6213 31.7475 13.2596C31.7475 14.8765 30.444 16.1943 28.8342 16.2299C28.8128 16.2299 28.7986 16.2299 28.7772 16.2299C28.7558 16.2299 28.7416 16.2299 28.7202 16.2299C27.1033 16.2014 25.8069 14.8837 25.8069 13.2596ZM13.8829 11.778C13.8829 9.53424 15.7064 7.71074 17.9501 7.71074C20.1939 7.71074 22.0174 9.53424 22.0174 11.778C22.0174 13.9434 20.315 15.7171 18.1852 15.8382C18.1068 15.8382 18.0285 15.8382 17.9501 15.8382C17.8718 15.8382 17.7934 15.8382 17.7151 15.8382C15.5853 15.7171 13.8829 13.9434 13.8829 11.778ZM4.22398 13.2596C4.22398 11.6213 5.556 10.2893 7.1943 10.2893C8.83261 10.2893 10.1646 11.6213 10.1646 13.2596C10.1646 14.8765 8.8611 16.1943 7.25129 16.2299C7.22992 16.2299 7.21567 16.2299 7.1943 16.2299C7.17293 16.2299 7.15869 16.2299 7.13732 16.2299C5.5275 16.2014 4.22398 14.8837 4.22398 13.2596ZM8.93945 22.8045H1.15394C1.47448 19.7701 4.03878 17.391 7.15156 17.3696C7.16581 17.3696 7.18006 17.3696 7.1943 17.3696C7.20855 17.3696 7.22279 17.3696 7.23704 17.3696C8.71864 17.3767 10.072 17.9252 11.1191 18.8156C10.0934 19.9268 9.33122 21.2944 8.93945 22.8045ZM26.1274 25.6395C26.1274 27.0997 24.9379 28.2893 23.4776 28.2893H12.4369C10.9767 28.2893 9.7871 27.0997 9.7871 25.6395V25.1551C9.7871 20.7317 13.3201 17.1132 17.7151 16.985C17.7934 16.9921 17.8789 16.9921 17.9573 16.9921C18.0356 16.9921 18.1211 16.9921 18.1994 16.985C22.5944 17.1132 26.1274 20.7317 26.1274 25.1551V25.6395ZM26.9751 22.8045C26.5833 21.3016 25.8354 19.9553 24.8168 18.8441C25.871 17.9323 27.2386 17.3839 28.7345 17.3696C28.7487 17.3696 28.763 17.3696 28.7772 17.3696C28.7915 17.3696 28.8057 17.3696 28.8199 17.3696C31.9327 17.391 34.497 19.7701 34.8176 22.8045H26.9751Z" fill="#2F56EB" stroke="#2F56EB" stroke-width="0.5"/>
</g>
<defs>
<clipPath id="clip0">
<rect width="36" height="36" fill="white"/>
</clipPath>
</defs>
</svg>
