<svg width="35" height="35" viewBox="0 0 35 35" fill="none" xmlns="http://www.w3.org/2000/svg">
<g clip-path="url(#clip0)">
<path d="M29.5312 7.33594C28.8778 7.33594 28.3477 7.86605 28.3477 8.51953C28.3477 9.17302 28.8778 9.70312 29.5312 9.70312C30.1847 9.70312 30.7148 9.17302 30.7148 8.51953C30.7148 7.86605 30.1847 7.33594 29.5312 7.33594Z" fill="#2863E7" stroke="#2863E7"/>
<path d="M5.46875 7.33594C4.81526 7.33594 4.28516 7.86605 4.28516 8.51953C4.28516 9.17302 4.81526 9.70312 5.46875 9.70312C6.12224 9.70312 6.65234 9.17302 6.65234 8.51953C6.65234 7.86605 6.12224 7.33594 5.46875 7.33594Z" fill="#2863E7" stroke="#2863E7"/>
<path d="M34.3164 17.0391H33.4988C33.2433 15.0701 32.6259 13.1937 31.657 11.4538C31.4733 11.124 31.057 11.0054 30.7271 11.1891C30.3973 11.3728 30.2788 11.7891 30.4624 12.1189C31.3175 13.6545 31.8738 15.3064 32.1203 17.0391H31.582C31.2045 17.0391 30.8984 17.3452 30.8984 17.7227V20.4571C30.8984 20.8346 31.2045 21.1407 31.582 21.1407H34.3164C34.694 21.1407 35 20.8346 35 20.4571V17.7227C35 17.3452 34.694 17.0391 34.3164 17.0391ZM33.6328 19.7735H32.2656V18.4063H32.8862C32.8864 18.4063 32.8867 18.4063 32.8869 18.4063C32.8872 18.4063 32.8874 18.4063 32.8876 18.4063H33.6328V19.7735Z" fill="#2863E7"/>
<path d="M10.5 20L17.5 7.5L24.5 20L22 26.5L22.5 28.5L22 31V34.5H13V31.5L12.5 28.5L13 26.5L12 24L10.5 20Z" fill="#D8E5FE"/>
<path d="M25.0182 20.0034C25.0178 19.9928 25.0175 19.9822 25.0167 19.9716C25.0154 19.9571 25.0134 19.9428 25.0113 19.9286C25.01 19.9199 25.009 19.9111 25.0073 19.9024C25.0042 19.8856 25 19.8692 24.9957 19.8529C24.9941 19.8466 24.9928 19.8404 24.991 19.8343C24.9849 19.8138 24.9778 19.7938 24.9698 19.7742C24.9689 19.7721 24.9683 19.7698 24.9674 19.7677C24.958 19.7449 24.9474 19.7226 24.9357 19.7012L18.0999 7.19168C17.98 6.97238 17.75 6.83594 17.5 6.83594C17.25 6.83594 17.02 6.97238 16.9001 7.19175L10.0643 19.7012C10.0526 19.7227 10.042 19.7449 10.0326 19.7678C10.0317 19.7699 10.0311 19.7721 10.0302 19.7742C10.0222 19.7939 10.0151 19.8139 10.009 19.8343C10.0072 19.8405 10.0059 19.8467 10.0043 19.8529C9.99988 19.8693 9.99585 19.8856 9.99271 19.9024C9.99106 19.9111 9.99004 19.9199 9.98867 19.9287C9.98655 19.9429 9.98457 19.9572 9.98334 19.9717C9.98245 19.9823 9.98211 19.9929 9.98177 20.0035C9.98143 20.0121 9.98047 20.0205 9.98047 20.0293C9.98047 20.0338 9.98108 20.0381 9.98115 20.0426C9.98136 20.0534 9.98204 20.064 9.98279 20.0748C9.98368 20.0884 9.98478 20.1019 9.98648 20.1153C9.98771 20.1247 9.98922 20.1341 9.99079 20.1435C9.99325 20.1583 9.99619 20.1729 9.99961 20.1873C10.0015 20.1955 10.0036 20.2036 10.0059 20.2117C10.0102 20.2273 10.0151 20.2426 10.0205 20.2577C10.022 20.262 10.0229 20.2664 10.0246 20.2707L12.4899 26.8037C12.2921 26.9017 12.1092 27.032 11.9485 27.1926C11.561 27.5801 11.3477 28.095 11.3477 28.6426C11.3477 29.5337 11.9192 30.2936 12.7148 30.5758V34.3164C12.7148 34.694 13.0209 35 13.3984 35H21.6016C21.9791 35 22.2852 34.694 22.2852 34.3164V30.5769C22.5701 30.4764 22.8315 30.3127 23.0516 30.0925C23.439 29.7051 23.6523 29.1901 23.6523 28.6426C23.6523 27.8378 23.1862 27.1402 22.5099 26.8046L24.9755 20.2707C24.9771 20.2664 24.9781 20.262 24.9796 20.2577C24.9849 20.2426 24.9899 20.2273 24.9942 20.2117C24.9964 20.2036 24.9985 20.1955 25.0005 20.1873C25.0039 20.1729 25.0067 20.1583 25.0093 20.1435C25.0108 20.1341 25.0124 20.1247 25.0136 20.1153C25.0153 20.1019 25.0164 20.0884 25.0173 20.0748C25.018 20.064 25.0187 20.0534 25.0189 20.0426C25.019 20.0382 25.0196 20.0338 25.0196 20.0293C25.0195 20.0205 25.0186 20.0121 25.0182 20.0034ZM17.5 19.3457C17.8769 19.3457 18.1836 19.6524 18.1836 20.0293C18.1836 20.4062 17.8769 20.7129 17.5 20.7129C17.1231 20.7129 16.8164 20.4062 16.8164 20.0293C16.8164 19.6524 17.1231 19.3457 17.5 19.3457ZM20.918 33.6328H14.082V30.6934H20.918V33.6328ZM22.0848 29.1257C21.9556 29.255 21.7839 29.3262 21.6016 29.3262H13.3984C13.0215 29.3262 12.7148 29.0195 12.7148 28.6426C12.7148 28.4602 12.786 28.2885 12.9152 28.1594C13.0445 28.0301 13.2161 27.959 13.3984 27.959H21.597C21.5985 27.959 21.6 27.9592 21.6015 27.9592C21.6022 27.9592 21.6031 27.9591 21.6038 27.9591C21.9797 27.9604 22.2852 28.2664 22.2852 28.6426C22.2852 28.825 22.214 28.9966 22.0848 29.1257ZM21.1289 26.5918H13.8711L11.6527 20.7129H13.3984C13.776 20.7129 14.082 20.4068 14.082 20.0293C14.082 19.6517 13.776 19.3457 13.3984 19.3457H11.8166L16.8164 10.1961V18.0961C16.0208 18.3783 15.4492 19.1381 15.4492 20.0293C15.4492 21.1601 16.3692 22.0801 17.5 22.0801C18.6308 22.0801 19.5508 21.1601 19.5508 20.0293C19.5508 19.1382 18.9792 18.3783 18.1836 18.0961V10.1961L23.1834 19.3457H21.6016C21.224 19.3457 20.918 19.6517 20.918 20.0293C20.918 20.4068 21.224 20.7129 21.6016 20.7129H23.3473L21.1289 26.5918Z" fill="#2863E7"/>
<path d="M4.2728 11.1891C3.9429 11.0053 3.52659 11.1238 3.34298 11.4537C2.37412 13.1936 1.75663 15.07 1.50117 17.039H0.683594C0.306045 17.039 0 17.3451 0 17.7226V20.457C0 20.8346 0.306045 21.1406 0.683594 21.1406H3.41797C3.79552 21.1406 4.10156 20.8346 4.10156 20.457V17.7226C4.10156 17.3451 3.79552 17.039 3.41797 17.039H2.87964C3.12621 15.3063 3.68245 13.6544 4.53749 12.1189C4.72117 11.789 4.60271 11.3727 4.2728 11.1891ZM2.73438 19.7734H1.36719V18.4062H2.11237C2.11265 18.4062 2.11285 18.4062 2.11313 18.4062C2.11333 18.4062 2.1136 18.4062 2.11381 18.4062H2.73438V19.7734Z" fill="#2863E7"/>
<path d="M32.9492 0C32.0581 0 31.2982 0.571553 31.016 1.36719H19.5508V0.683594C19.5508 0.306045 19.2447 0 18.8672 0H16.1328C15.7553 0 15.4492 0.306045 15.4492 0.683594V1.36719H3.98398C3.7018 0.571553 2.94191 0 2.05078 0C0.91998 0 0 0.91998 0 2.05078C0 3.18158 0.91998 4.10156 2.05078 4.10156C2.94191 4.10156 3.7018 3.53001 3.98398 2.73438H10.8564C9.39839 3.34448 8.06128 4.13649 6.96069 5.06434C6.67201 5.3077 6.6353 5.73897 6.87866 6.02759C7.01388 6.18803 7.20713 6.27061 7.40161 6.27061C7.5572 6.27061 7.7136 6.21783 7.84185 6.10969C9.80321 4.45621 12.6023 3.2753 15.4492 2.87923V3.41797C15.4492 3.79552 15.7553 4.10156 16.1328 4.10156H18.8672C19.2447 4.10156 19.5508 3.79552 19.5508 3.41797V2.87923C22.3977 3.2753 25.1968 4.45621 27.1582 6.10962C27.2864 6.21776 27.4428 6.27061 27.5984 6.27054C27.7929 6.27054 27.9862 6.18796 28.1213 6.02752C28.3648 5.73898 28.328 5.3077 28.0393 5.06434C26.9387 4.13649 25.6016 3.34448 24.1436 2.73438H31.016C31.2982 3.53001 32.058 4.10156 32.9492 4.10156C34.08 4.10156 35 3.18158 35 2.05078C35 0.91998 34.08 0 32.9492 0ZM2.05078 2.73438C1.67385 2.73438 1.36719 2.42771 1.36719 2.05078C1.36719 1.67385 1.67385 1.36719 2.05078 1.36719C2.42771 1.36719 2.73438 1.67385 2.73438 2.05078C2.73438 2.42771 2.42771 2.73438 2.05078 2.73438ZM18.1836 2.05078V2.1123V2.73438H16.8164V2.1123V2.05078V1.36719H18.1836V2.05078ZM32.9492 2.73438C32.5723 2.73438 32.2656 2.42771 32.2656 2.05078C32.2656 1.67385 32.5723 1.36719 32.9492 1.36719C33.3262 1.36719 33.6328 1.67385 33.6328 2.05078C33.6328 2.42771 33.3262 2.73438 32.9492 2.73438Z" fill="#2863E7"/>
</g>
<defs>
<clipPath id="clip0">
<rect width="35" height="35" fill="white"/>
</clipPath>
</defs>
</svg>
