<svg width="34" height="34" viewBox="0 0 34 34" fill="none" xmlns="http://www.w3.org/2000/svg">
<g clip-path="url(#clip0)">
<path d="M29.1999 16.0919C29.8792 17.2684 29.0646 18.7461 27.7067 18.7985C22.7484 18.9926 17.6928 20.2309 12.9263 22.6689L11.3502 23.5784C11.3502 23.5856 11.3284 23.5412 15.1654 30.2143C15.5174 30.8249 15.3084 31.6047 14.6986 31.9575L13.4554 32.6751C12.8455 33.0271 12.0649 32.8182 11.7129 32.2076L7.88564 25.5788L7.26442 25.9379C6.04393 26.642 4.48343 26.2241 3.77862 25.0036L0.908382 20.0324C0.204281 18.8119 0.622209 17.2514 1.8427 16.5466L7.50455 13.2776C11.8315 10.4786 15.4981 6.77251 18.2467 2.41289C18.9713 1.26324 20.6579 1.29653 21.3372 2.4731L23.7931 6.72746C25.2041 5.91286 27.009 6.39666 27.8236 7.8077C28.6382 9.21873 28.1544 11.0229 26.7434 11.8375L29.1999 16.0919Z" fill="url(#paint0_linear)"/>
<path d="M27.8196 7.80763C28.6342 9.21867 28.1504 11.0228 26.7393 11.8374L23.7891 6.7274C25.2001 5.91279 27.005 6.3966 27.8196 7.80763Z" fill="#D1E7FF"/>
<path d="M21.3372 2.47283C21.6761 3.06034 21.6544 3.78916 21.2794 4.35429C18.2538 8.91302 14.1987 13.0323 9.2393 16.2411L2.60559 20.0711C2.15012 20.3346 1.78957 20.6994 1.5374 21.1209L0.908382 20.0321C0.204281 18.8117 0.622209 17.2512 1.8427 16.5464L7.50455 13.2773C11.8315 10.4783 15.4981 6.77224 18.2467 2.41262C18.9713 1.26297 20.6579 1.29633 21.3372 2.47283Z" fill="#E8F3FF"/>
<path d="M7.50455 13.2775L12.9263 22.6688C11.8398 23.2957 8.34933 25.3106 7.26442 25.9378C6.04393 26.6419 4.48343 26.224 3.77862 25.0035L0.908382 20.0323C0.204281 18.8118 0.622209 17.2513 1.8427 16.5465L7.50455 13.2775Z" fill="url(#paint1_linear)"/>
<path d="M9.22159 16.2517C2.01731 20.4108 2.49473 20.1214 2.26232 20.3023C1.82463 20.6428 1.18584 20.5124 0.908382 20.0322C0.204281 18.8117 0.622209 17.2512 1.8427 16.5464L7.50455 13.2773L9.22159 16.2517Z" fill="#D1E7FF"/>
<path d="M12.3833 25.3732C10.3677 26.5404 11.8507 25.6814 8.92233 27.3715L7.88672 25.5786L11.3513 23.579L12.3833 25.3732Z" fill="url(#paint2_linear)"/>
<path d="M27.6432 11.0271C27.4094 11.348 27.1056 11.6264 26.7393 11.8375L23.7891 6.72741C24.1553 6.51561 24.5484 6.39235 24.943 6.34985C25.0914 6.60713 27.5136 10.8028 27.6432 11.0271Z" fill="#B9DCFF"/>
<path d="M27.4938 12.0046C29.7054 10.1982 28.9415 6.62585 26.178 5.88549C25.4559 5.69204 24.7084 5.73227 24.0231 5.9933L21.8274 2.19009C20.9339 0.642414 18.7178 0.6014 17.7663 2.1104C15.0656 6.39408 11.4676 10.0374 7.19598 12.8022C6.95273 12.9593 6.86256 13.284 7.00649 13.5483C7.02958 13.5906 10.6667 19.8894 10.6908 19.9312C10.8472 20.202 11.1936 20.2951 11.4649 20.1386C11.7359 19.9821 11.8287 19.6355 11.6723 19.3645L8.26155 13.4568C12.3346 10.7339 15.942 7.12907 18.7251 2.71484C19.2229 1.92524 20.3799 1.94975 20.8458 2.75677L28.7082 16.3749C29.1748 17.183 28.6154 18.1962 27.6842 18.2325C22.4596 18.4361 17.3444 19.7724 12.6676 22.1643C12.6477 22.1744 7.3453 25.2363 6.98014 25.4471C6.0323 25.9944 4.81606 25.6685 4.26893 24.7206L1.39862 19.7489C0.851418 18.8011 1.17733 17.5849 2.1251 17.0377L5.57966 15.0432C5.85068 14.8867 5.94354 14.5401 5.78707 14.2691C5.63059 13.998 5.28392 13.9052 5.01298 14.0617L1.55842 16.0562C0.0694694 16.9158 -0.442526 18.8266 0.417128 20.3156L3.28751 25.2872C4.14723 26.7763 6.05801 27.2882 7.54696 26.4285L7.67766 26.3531L11.2215 32.4912C11.7305 33.3728 12.8561 33.6748 13.7382 33.1656L14.9812 32.4479C15.8631 31.9388 16.1647 30.8131 15.6555 29.9312L13.1439 25.581C12.9875 25.31 12.6409 25.2171 12.3698 25.3736C12.0988 25.53 12.006 25.8766 12.1624 26.1477L14.674 30.4979C14.87 30.8372 14.7539 31.2705 14.4145 31.4664L13.1716 32.184C12.8322 32.3799 12.399 32.2638 12.203 31.9245L8.65922 25.7864L13.1966 23.1667C17.6366 20.8981 22.576 19.5656 27.7284 19.3649C29.514 19.2953 30.582 17.3533 29.6897 15.8081L27.4938 12.0046ZM27.332 8.09073C27.8914 9.05975 27.6905 10.2622 26.916 11.0038L24.6008 6.99363C25.6158 6.69591 26.7635 7.10605 27.332 8.09073ZM32.8745 5.57133L31.4083 6.41788C31.1371 6.57443 30.7907 6.48142 30.6342 6.21048C30.4777 5.93946 30.5706 5.59287 30.8417 5.43639L32.3079 4.58984C32.5791 4.4333 32.9256 4.5263 33.082 4.79725C33.2384 5.06826 33.1456 5.41486 32.8745 5.57133ZM26.569 2.34154L26.9265 1.00729C27.0076 0.704961 27.3181 0.525678 27.6206 0.606571C27.923 0.687607 28.1023 0.99836 28.0213 1.30061L27.6637 2.63486C27.5829 2.93641 27.2729 3.11661 26.9696 3.03558C26.6673 2.95454 26.488 2.64386 26.569 2.34154ZM33.9805 11.6223C33.9126 11.8754 33.6837 12.0424 33.4334 12.0424C33.3309 12.0424 33.4026 12.0541 31.9521 11.6654C31.6498 11.5844 31.4704 11.2737 31.5514 10.9714C31.6325 10.6691 31.9432 10.4898 32.2455 10.5707L33.5798 10.9282C33.882 11.0092 34.0615 11.32 33.9805 11.6223Z" fill="#2E58FF"/>
</g>
<defs>
<linearGradient id="paint0_linear" x1="19.8773" y1="-13.0425" x2="19.8773" y2="43.7386" gradientUnits="userSpaceOnUse">
<stop stop-color="#C7DAFD"/>
<stop offset="1" stop-color="#E9F1FF"/>
</linearGradient>
<linearGradient id="paint1_linear" x1="8.83157" y1="7.20246" x2="8.83157" y2="30.8082" gradientUnits="userSpaceOnUse">
<stop stop-color="#C7DAFD"/>
<stop offset="1" stop-color="#E9F1FF"/>
</linearGradient>
<linearGradient id="paint2_linear" x1="10.8937" y1="21.807" x2="10.8937" y2="28.6923" gradientUnits="userSpaceOnUse">
<stop stop-color="#C7DAFD"/>
<stop offset="1" stop-color="#E9F1FF"/>
</linearGradient>
<clipPath id="clip0">
<rect width="34" height="34" fill="white"/>
</clipPath>
</defs>
</svg>
