<svg width="34" height="34" viewBox="0 0 34 34" fill="none" xmlns="http://www.w3.org/2000/svg">
<path d="M18.3769 21.4809L16.4824 19.984C16.4113 19.9229 16.3287 19.8768 16.2394 19.8485C16.1501 19.8202 16.0559 19.8103 15.9627 19.8193C15.8694 19.8283 15.779 19.8561 15.6967 19.901C15.6145 19.9459 15.5422 20.007 15.4842 20.0806C15.4262 20.1541 15.3837 20.2387 15.3592 20.3291C15.3347 20.4196 15.3288 20.514 15.3418 20.6068C15.3548 20.6996 15.3864 20.7888 15.4348 20.869C15.4832 20.9493 15.5473 21.0189 15.6232 21.0737L15.6951 21.1304C14.9825 20.9061 14.3399 20.5018 13.8291 19.9567C13.3183 19.4116 12.9566 18.7441 12.7789 18.0185C12.6012 17.2929 12.6135 16.5338 12.8147 15.8144C13.0158 15.0949 13.3989 14.4395 13.9272 13.9113C14.0537 13.7803 14.1237 13.6049 14.1222 13.4228C14.1206 13.2407 14.0476 13.0665 13.9189 12.9378C13.7902 12.809 13.616 12.7359 13.4339 12.7343C13.2518 12.7327 13.0764 12.8026 12.9454 12.9291C12.2005 13.6735 11.6751 14.6088 11.427 15.6322C11.1788 16.6556 11.2175 17.7277 11.5388 18.7306C11.8601 19.7335 12.4515 20.6284 13.2481 21.3172C14.0448 22.0059 15.0158 22.4618 16.0546 22.6348L15.6216 22.9773C15.4771 23.0915 15.3838 23.2583 15.3623 23.4413C15.3408 23.6242 15.3928 23.8082 15.507 23.9527C15.6211 24.0973 15.788 24.1906 15.9709 24.2121C16.1538 24.2336 16.3378 24.1816 16.4824 24.0674L18.3769 22.5702C18.4591 22.5051 18.5256 22.4223 18.5713 22.3279C18.617 22.2335 18.6407 22.13 18.6407 22.0251C18.6407 21.9202 18.617 21.8167 18.5713 21.7223C18.5256 21.6279 18.4591 21.5451 18.3769 21.4801V21.4809Z" fill="#E30058"/>
<path d="M17.9396 11.3491L18.373 11.0062C18.4452 10.9499 18.5056 10.8799 18.5507 10.8001C18.5958 10.7204 18.6246 10.6325 18.6356 10.5416C18.6466 10.4506 18.6395 10.3584 18.6146 10.2702C18.5898 10.1821 18.5478 10.0997 18.491 10.0278C18.4342 9.95593 18.3638 9.89601 18.2837 9.85148C18.2037 9.80695 18.1156 9.77871 18.0246 9.76836C17.9336 9.75801 17.8414 9.76578 17.7534 9.7912C17.6654 9.81662 17.5833 9.85921 17.5118 9.9165L15.6193 11.4137C15.5371 11.4788 15.4706 11.5615 15.4249 11.6559C15.3792 11.7503 15.3555 11.8538 15.3555 11.9586C15.3555 12.0634 15.3792 12.1669 15.4249 12.2613C15.4706 12.3557 15.5371 12.4384 15.6193 12.5035L17.5134 14.0007C17.5849 14.058 17.667 14.1006 17.755 14.126C17.843 14.1514 17.9352 14.1592 18.0262 14.1488C18.1172 14.1385 18.2053 14.1102 18.2853 14.0657C18.3654 14.0212 18.4358 13.9613 18.4926 13.8894C18.5494 13.8175 18.5914 13.7351 18.6162 13.647C18.641 13.5588 18.6482 13.4666 18.6372 13.3756C18.6262 13.2847 18.5974 13.1968 18.5523 13.1171C18.5072 13.0373 18.4468 12.9673 18.3745 12.911L18.3027 12.8543C19.0152 13.0787 19.6578 13.483 20.1686 14.0281C20.6793 14.5732 21.041 15.2407 21.2186 15.9663C21.3963 16.6919 21.3839 17.451 21.1828 18.1704C20.9816 18.8898 20.5984 19.5452 20.0702 20.0735C20.0039 20.1375 19.951 20.2142 19.9146 20.2989C19.8782 20.3836 19.8591 20.4748 19.8583 20.567C19.8575 20.6592 19.8751 20.7506 19.9101 20.836C19.945 20.9213 19.9966 20.9988 20.0618 21.064C20.127 21.1292 20.2046 21.1808 20.2899 21.2157C20.3753 21.2506 20.4667 21.2681 20.5589 21.2673C20.6511 21.2665 20.7423 21.2473 20.827 21.2109C20.9117 21.1745 20.9883 21.1216 21.0524 21.0552C21.7974 20.3107 22.3228 19.3752 22.5709 18.3516C22.819 17.328 22.7802 16.2557 22.4587 15.2527C22.1372 14.2497 21.5455 13.3547 20.7485 12.6661C19.9516 11.9774 18.9802 11.5217 17.9412 11.3491H17.9396Z" fill="#FF6426"/>
<path d="M32.3054 19.0929V14.9067H28.9816C28.6758 13.1438 27.9825 11.4707 26.9518 10.0082L29.3026 7.6574L26.3422 4.69821L23.9918 7.04865C22.5291 6.01825 20.8561 5.32513 19.0933 5.01925V1.69458H14.9071V5.01846C13.1442 5.32426 11.4712 6.01739 10.0086 7.04786L7.65773 4.69821L4.69775 7.65819L7.0482 10.009C6.01761 11.4716 5.32435 13.1447 5.01839 14.9075H1.69531V19.0929H5.01879C5.32482 20.8558 6.01807 22.5288 7.04859 23.9914L4.69815 26.3423L7.65773 29.3019L10.0086 26.9514C11.4712 27.9819 13.1442 28.675 14.9071 28.9808V32.3047H19.0933V28.9812C20.8561 28.6753 22.5291 27.9822 23.9918 26.9518L26.3422 29.3019L29.3026 26.3419L26.9518 23.9911C27.9824 22.5286 28.6757 20.8557 28.9816 19.0929H32.3054ZM17 25.6641C15.2864 25.6641 13.6113 25.156 12.1865 24.2039C10.7617 23.2519 9.65119 21.8988 8.99543 20.3156C8.33967 18.7325 8.16809 16.9904 8.5024 15.3098C8.8367 13.6291 9.66187 12.0853 10.8736 10.8736C12.0853 9.66193 13.629 8.83676 15.3097 8.50246C16.9904 8.16815 18.7324 8.33973 20.3156 8.99549C21.8987 9.65126 23.2519 10.7618 24.2039 12.1865C25.1559 13.6113 25.664 15.2865 25.664 17C25.664 19.2979 24.7512 21.5016 23.1264 23.1265C21.5016 24.7513 19.2978 25.6641 17 25.6641Z" fill="url(#paint0_linear)"/>
<path d="M15.507 23.9535C15.6212 24.098 15.788 24.1912 15.9709 24.2127C16.1538 24.2342 16.3378 24.1822 16.4824 24.0682L18.3769 22.571C18.4591 22.5059 18.5256 22.4231 18.5713 22.3287C18.617 22.2343 18.6407 22.1308 18.6407 22.0259C18.6407 21.921 18.617 21.8175 18.5713 21.7231C18.5256 21.6287 18.4591 21.5459 18.3769 21.4809L16.4824 19.984C16.4113 19.9229 16.3287 19.8768 16.2394 19.8485C16.1501 19.8202 16.0559 19.8103 15.9627 19.8193C15.8694 19.8283 15.779 19.8561 15.6967 19.901C15.6145 19.9459 15.5422 20.007 15.4842 20.0806C15.4262 20.1541 15.3837 20.2387 15.3592 20.3291C15.3347 20.4196 15.3288 20.514 15.3418 20.6068C15.3548 20.6996 15.3864 20.7888 15.4348 20.869C15.4832 20.9493 15.5473 21.0189 15.6232 21.0737L15.6951 21.1305C14.9825 20.9061 14.3399 20.5018 13.8291 19.9567C13.3183 19.4116 12.9566 18.7441 12.7789 18.0185C12.6012 17.2929 12.6135 16.5338 12.8147 15.8144C13.0158 15.0949 13.3989 14.4395 13.9272 13.9113C14.0537 13.7803 14.1237 13.6049 14.1222 13.4228C14.1206 13.2407 14.0476 13.0665 13.9189 12.9378C13.7902 12.809 13.616 12.7359 13.4339 12.7343C13.2518 12.7327 13.0764 12.8026 12.9454 12.9291C12.2005 13.6735 11.6751 14.6088 11.427 15.6322C11.1788 16.6556 11.2175 17.7277 11.5388 18.7306C11.8601 19.7335 12.4515 20.6284 13.2481 21.3172C14.0448 22.0059 15.0158 22.4619 16.0546 22.6348L15.6216 22.9773C15.55 23.0338 15.4901 23.1039 15.4455 23.1836C15.401 23.2633 15.3725 23.351 15.3619 23.4416C15.3512 23.5323 15.3586 23.6242 15.3835 23.712C15.4083 23.7999 15.4503 23.8819 15.507 23.9535Z" fill="#2569E6"/>
<path d="M24.9158 17.9322C24.8984 18.0838 24.8761 18.2342 24.85 18.383C24.8186 18.5645 24.8607 18.751 24.9669 18.9015C25.0731 19.052 25.2347 19.1541 25.4162 19.1854C25.4556 19.1922 25.4954 19.1956 25.5353 19.1957C25.6989 19.1955 25.8572 19.1376 25.9823 19.0322C26.1075 18.9269 26.1914 18.7807 26.2194 18.6195C26.2496 18.4449 26.275 18.2688 26.2956 18.0913C26.3119 17.9108 26.257 17.7311 26.1426 17.5906C26.0282 17.45 25.8634 17.3597 25.6834 17.339C25.5033 17.3183 25.3223 17.3688 25.179 17.4797C25.0357 17.5906 24.9414 17.7531 24.9162 17.9326L24.9158 17.9322Z" fill="#2569E6"/>
<path d="M16.9983 7.64111C15.3278 7.64127 13.6878 8.08856 12.2485 8.93654C10.8093 9.78452 9.62323 11.0023 8.81351 12.4634C8.0038 13.9245 7.59994 15.5758 7.64386 17.2457C7.68778 18.9156 8.17787 20.5433 9.06327 21.9599C9.94866 23.3764 11.1971 24.5301 12.6789 25.3013C14.1608 26.0725 15.822 26.4329 17.4902 26.3453C19.1584 26.2576 20.7727 25.7251 22.1656 24.8029C23.5584 23.8807 24.6791 22.6024 25.4111 21.1009C25.4829 20.9368 25.4886 20.7513 25.4268 20.5831C25.365 20.415 25.2407 20.2772 25.0798 20.1986C24.9188 20.1199 24.7337 20.1066 24.5631 20.1612C24.3925 20.2158 24.2496 20.3343 24.1643 20.4918C23.5411 21.7708 22.5868 22.8597 21.4007 23.6453C20.2145 24.431 18.8396 24.8849 17.4188 24.9598C15.998 25.0347 14.5831 24.7279 13.3209 24.0713C12.0587 23.4147 10.9953 22.4322 10.241 21.2258C9.48675 20.0194 9.06917 18.6331 9.03162 17.2108C8.99407 15.7885 9.33792 14.3821 10.0275 13.1376C10.717 11.8931 11.7271 10.8558 12.9529 10.1335C14.1787 9.41122 15.5755 9.03021 16.9983 9.03003C18.8974 9.03977 20.7314 9.72317 22.1739 10.9586C23.6163 12.1939 24.5735 13.9011 24.875 15.7762C24.8878 15.8673 24.9185 15.955 24.9654 16.0341C25.0123 16.1133 25.0745 16.1823 25.1483 16.2372C25.2221 16.2921 25.3061 16.3318 25.3953 16.354C25.4846 16.3762 25.5774 16.3804 25.6684 16.3664C25.7593 16.3524 25.8465 16.3205 25.925 16.2725C26.0035 16.2246 26.0717 16.1615 26.1256 16.0869C26.1795 16.0123 26.218 15.9278 26.239 15.8382C26.26 15.7487 26.2629 15.6558 26.2477 15.5651C25.8939 13.3629 24.77 11.3578 23.0762 9.90676C21.3824 8.45568 19.2286 7.65281 16.9983 7.64111Z" fill="#2569E6"/>
<path d="M11.6679 6.7618C11.7736 6.76193 11.8779 6.73762 11.9727 6.69077C12.064 6.64632 12.1558 6.60307 12.2481 6.56101C12.414 6.48352 12.5426 6.34364 12.6059 6.17179C12.6692 5.99995 12.6621 5.81006 12.586 5.64345C12.51 5.47685 12.3713 5.34702 12.2 5.28223C12.0287 5.21743 11.8387 5.22292 11.6715 5.29749C11.5675 5.34471 11.4639 5.39352 11.362 5.44352C11.2209 5.51252 11.1074 5.62729 11.04 5.7691C10.9725 5.91091 10.9551 6.07139 10.9906 6.22435C11.0261 6.37731 11.1124 6.51373 11.2354 6.61134C11.3584 6.70894 11.5109 6.76199 11.6679 6.7618Z" fill="#2569E6"/>
<path d="M32.3056 14.2122H29.5532C29.2321 12.7497 28.6544 11.3558 27.8468 10.095L29.794 8.14776C29.9242 8.01754 29.9973 7.84097 29.9973 7.65688C29.9973 7.47278 29.9242 7.29622 29.794 7.166L26.8337 4.20602C26.7692 4.14147 26.6927 4.09027 26.6084 4.05534C26.5241 4.02041 26.4338 4.00242 26.3426 4.00242C26.2514 4.00242 26.161 4.02041 26.0768 4.05534C25.9925 4.09027 25.916 4.14147 25.8515 4.20602L23.9046 6.15288C22.644 5.34537 21.2502 4.76764 19.7879 4.4465V1.69446C19.7878 1.51031 19.7146 1.33373 19.5844 1.20352C19.4542 1.0733 19.2776 1.00011 19.0934 1H14.9072C14.7231 1 14.5464 1.07317 14.4162 1.2034C14.2859 1.33364 14.2128 1.51028 14.2128 1.69446V4.44769C14.0432 4.48499 13.8748 4.52573 13.7076 4.56991C13.6194 4.59336 13.5367 4.63395 13.4643 4.68936C13.3918 4.74477 13.3309 4.81391 13.2851 4.89284C13.2394 4.97178 13.2096 5.05895 13.1975 5.14939C13.1854 5.23982 13.1913 5.33175 13.2147 5.41993C13.2382 5.5081 13.2788 5.5908 13.3342 5.66329C13.3896 5.73577 13.4587 5.79664 13.5377 5.84241C13.6166 5.88817 13.7038 5.91795 13.7942 5.93002C13.8847 5.9421 13.9766 5.93625 14.0648 5.9128C14.3822 5.82946 14.7053 5.75843 15.0279 5.70247C15.1891 5.67452 15.3352 5.59057 15.4405 5.46541C15.5459 5.34025 15.6037 5.18192 15.6037 5.01833V2.38892H18.401V5.01833C18.401 5.18192 18.4588 5.34025 18.5641 5.46541C18.6694 5.59057 18.8156 5.67452 18.9768 5.70247C20.6391 5.98857 22.2165 6.64233 23.5939 7.616C23.7277 7.71016 23.8904 7.75406 24.0534 7.73998C24.2164 7.7259 24.3692 7.65473 24.4848 7.53902L26.3444 5.67946L28.323 7.65727L26.463 9.51723C26.3473 9.63282 26.2762 9.78556 26.2622 9.9485C26.2482 10.1114 26.2922 10.2741 26.3864 10.4077C27.36 11.7852 28.0135 13.3628 28.2992 15.0253C28.3271 15.1865 28.4111 15.3327 28.5364 15.4381C28.6616 15.5434 28.8201 15.6012 28.9837 15.6011H31.6131V18.3984H28.9817C28.8181 18.3983 28.6596 18.456 28.5344 18.5614C28.4092 18.6667 28.3252 18.8129 28.2972 18.9742C28.0115 20.6366 27.358 22.2142 26.3845 23.5917C26.2902 23.7254 26.2462 23.888 26.2602 24.0509C26.2742 24.2139 26.3454 24.3666 26.461 24.4822L28.323 26.3422L26.3444 28.32L24.4828 26.4604C24.4183 26.3959 24.3418 26.3448 24.2575 26.3099C24.1733 26.275 24.0829 26.257 23.9917 26.257C23.9005 26.257 23.8102 26.275 23.726 26.3099C23.6417 26.3448 23.5652 26.3959 23.5007 26.4604C23.4362 26.5249 23.385 26.6015 23.3501 26.6857C23.3152 26.77 23.2973 26.8603 23.2973 26.9515C23.2973 27.0427 23.3152 27.133 23.3501 27.2173C23.385 27.3015 23.4362 27.3781 23.5007 27.4426L25.8515 29.793C25.916 29.8576 25.9925 29.9088 26.0768 29.9437C26.161 29.9786 26.2514 29.9966 26.3426 29.9966C26.4338 29.9966 26.5241 29.9786 26.6084 29.9437C26.6927 29.9088 26.7692 29.8576 26.8337 29.793L29.794 26.833C29.9242 26.7028 29.9973 26.5263 29.9973 26.3422C29.9973 26.1581 29.9242 25.9815 29.794 25.8513L27.8468 23.9048C28.6543 22.6442 29.232 21.2504 29.5532 19.7881H32.306C32.4901 19.788 32.6667 19.7148 32.7969 19.5846C32.9272 19.4543 33.0004 19.2778 33.0005 19.0936V14.9066C33.0004 14.7224 32.9271 14.5458 32.7968 14.4155C32.6665 14.2853 32.4898 14.2122 32.3056 14.2122Z" fill="#2569E6"/>
<path d="M21.7524 27.4367C20.8668 27.8403 19.9333 28.1289 18.9745 28.2955C18.8134 28.3235 18.6674 28.4075 18.5621 28.5327C18.4569 28.6578 18.3991 28.8161 18.3991 28.9796V31.609H15.6007V28.9812C15.6006 28.8176 15.5429 28.6593 15.4375 28.5341C15.3322 28.409 15.186 28.325 15.0249 28.2971C13.3625 28.011 11.7851 27.3572 10.4077 26.3835C10.2739 26.2895 10.1112 26.2457 9.94825 26.2598C9.78531 26.2739 9.63255 26.345 9.51683 26.4605L7.65687 28.3201L5.67866 26.3423L7.53822 24.4823C7.65397 24.3668 7.72517 24.2141 7.73925 24.0511C7.75334 23.8882 7.70941 23.7255 7.6152 23.5918C6.64164 22.2143 5.98814 20.6367 5.70247 18.9743C5.67459 18.8131 5.59066 18.6669 5.46549 18.5615C5.34031 18.4562 5.18194 18.3984 5.01833 18.3985H2.38852V15.6012H5.01793C5.18161 15.6013 5.34007 15.5436 5.46533 15.4383C5.59059 15.3329 5.67458 15.1867 5.70247 15.0254C5.98814 13.3629 6.64164 11.7853 7.6152 10.4078C7.70941 10.2741 7.75334 10.1115 7.73925 9.94853C7.72517 9.7856 7.65397 9.63288 7.53822 9.51734L5.67866 7.65738L7.65687 5.67957L9.51683 7.53913C9.64783 7.6656 9.82326 7.73556 10.0053 7.73394C10.1874 7.73233 10.3616 7.65926 10.4903 7.53047C10.6191 7.40169 10.6921 7.22749 10.6936 7.04541C10.6952 6.86332 10.6251 6.68791 10.4986 6.55696L8.14815 4.20652C8.08369 4.14198 8.00714 4.09078 7.92287 4.05584C7.83861 4.02091 7.74829 4.00293 7.65707 4.00293C7.56585 4.00293 7.47553 4.02091 7.39126 4.05584C7.307 4.09078 7.23045 4.14198 7.16599 4.20652L4.20562 7.1665C4.14109 7.23093 4.08989 7.30744 4.05497 7.39167C4.02004 7.47591 4.00206 7.5662 4.00206 7.65738C4.00206 7.74857 4.02004 7.83886 4.05497 7.92309C4.08989 8.00732 4.14109 8.08384 4.20562 8.14827L6.15248 10.0951C5.3451 11.3559 4.76739 12.7496 4.4461 14.2119H1.69446C1.51028 14.2119 1.33364 14.285 1.2034 14.4153C1.07317 14.5455 1 14.7222 1 14.9063V19.0929C1 19.2771 1.07317 19.4537 1.2034 19.584C1.33364 19.7142 1.51028 19.7874 1.69446 19.7874H4.44689C4.76818 21.2496 5.34589 22.6434 6.15327 23.9041L4.20641 25.8514C4.14188 25.9158 4.09069 25.9923 4.05576 26.0766C4.02083 26.1608 4.00285 26.2511 4.00285 26.3423C4.00285 26.4335 4.02083 26.5238 4.05576 26.608C4.09069 26.6922 4.14188 26.7687 4.20641 26.8332L7.16678 29.7931C7.23124 29.8577 7.30779 29.9089 7.39206 29.9438C7.47632 29.9787 7.56664 29.9967 7.65786 29.9967C7.74908 29.9967 7.83941 29.9787 7.92367 29.9438C8.00793 29.9089 8.08448 29.8577 8.14894 29.7931L10.0958 27.8467C11.3565 28.6541 12.7503 29.2318 14.2125 29.5531V32.3059C14.2125 32.4901 14.2857 32.6667 14.416 32.7969C14.5462 32.9272 14.7228 33.0003 14.907 33.0003H19.0924C19.2766 33.0002 19.4531 32.927 19.5833 32.7968C19.7136 32.6666 19.7868 32.49 19.7869 32.3059V29.5519C20.662 29.3585 21.5143 29.0736 22.3298 28.7018C22.4975 28.6253 22.628 28.4852 22.6925 28.3124C22.757 28.1397 22.7502 27.9484 22.6736 27.7806C22.5971 27.6128 22.457 27.4824 22.2842 27.4179C22.1114 27.3534 21.9201 27.3602 21.7524 27.4367Z" fill="#2569E6"/>
<path d="M20.0686 21.0552C20.1331 21.1198 20.2096 21.171 20.2939 21.2059C20.3782 21.2408 20.4685 21.2588 20.5597 21.2588C20.6509 21.2588 20.7412 21.2408 20.8255 21.2059C20.9098 21.171 20.9863 21.1198 21.0508 21.0552C21.7958 20.3107 22.3213 19.3752 22.5694 18.3516C22.8175 17.328 22.7786 16.2557 22.4571 15.2527C22.1356 14.2497 21.5439 13.3547 20.7469 12.6661C19.95 11.9774 18.9786 11.5217 17.9396 11.3491L18.373 11.0062C18.4452 10.9499 18.5056 10.8799 18.5507 10.8001C18.5958 10.7204 18.6246 10.6325 18.6356 10.5416C18.6466 10.4506 18.6395 10.3584 18.6146 10.2702C18.5898 10.1821 18.5478 10.0997 18.491 10.0278C18.4342 9.95593 18.3638 9.89601 18.2837 9.85148C18.2037 9.80695 18.1156 9.77871 18.0246 9.76836C17.9336 9.75801 17.8414 9.76578 17.7534 9.7912C17.6654 9.81662 17.5833 9.85921 17.5118 9.9165L15.6193 11.4137C15.5371 11.4788 15.4706 11.5615 15.4249 11.6559C15.3792 11.7503 15.3555 11.8538 15.3555 11.9586C15.3555 12.0634 15.3792 12.1669 15.4249 12.2613C15.4706 12.3557 15.5371 12.4384 15.6193 12.5035L17.5134 14.0007C17.5849 14.058 17.667 14.1006 17.755 14.126C17.843 14.1514 17.9352 14.1592 18.0262 14.1488C18.1172 14.1385 18.2053 14.1102 18.2853 14.0657C18.3654 14.0212 18.4358 13.9613 18.4926 13.8894C18.5494 13.8175 18.5914 13.7351 18.6162 13.647C18.641 13.5588 18.6482 13.4666 18.6372 13.3756C18.6262 13.2847 18.5974 13.1968 18.5523 13.1171C18.5072 13.0373 18.4468 12.9673 18.3745 12.911L18.3027 12.8543C19.0152 13.0787 19.6578 13.483 20.1686 14.0281C20.6793 14.5732 21.041 15.2407 21.2186 15.9663C21.3963 16.6919 21.3839 17.451 21.1828 18.1704C20.9816 18.8898 20.5984 19.5452 20.0702 20.0735C19.9399 20.2035 19.8665 20.3799 19.8662 20.564C19.8659 20.7481 19.9387 20.9248 20.0686 21.0552Z" fill="#2569E6"/>
<defs>
<linearGradient id="paint0_linear" x1="22.1646" y1="-12.6072" x2="22.1646" y2="42.9655" gradientUnits="userSpaceOnUse">
<stop stop-color="#C7DAFD"/>
<stop offset="1" stop-color="#E9F1FF"/>
</linearGradient>
</defs>
</svg>
