<svg width="34" height="34" viewBox="0 0 34 34" fill="none" xmlns="http://www.w3.org/2000/svg">
<g clip-path="url(#clip0)">
<path d="M1.5 32.5L17 2L32.5 32.5H1.5Z" fill="url(#paint0_linear)" stroke="#2569E6" stroke-linecap="round" stroke-linejoin="round"/>
<path d="M16.9994 12.1161C16.3288 12.1161 15.7852 12.6597 15.7852 13.3303V21.83C15.7852 22.5007 16.3288 23.0443 16.9994 23.0443C17.67 23.0443 18.2137 22.5007 18.2137 21.83V13.3303C18.2137 12.6597 17.67 12.1161 16.9994 12.1161Z" fill="#2569E6"/>
<path d="M17 25C16.4477 25 16 25.4477 16 26V27C16 27.5523 16.4477 28 17 28C17.5523 28 18 27.5523 18 27V26C18 25.4477 17.5523 25 17 25Z" fill="#2569E6"/>
</g>
<defs>
<linearGradient id="paint0_linear" x1="22.23" y1="-12.2503" x2="22.23" y2="43.1224" gradientUnits="userSpaceOnUse">
<stop stop-color="#C7DAFD"/>
<stop offset="1" stop-color="#E9F1FF"/>
</linearGradient>
<clipPath id="clip0">
<rect width="34" height="34" fill="white"/>
</clipPath>
</defs>
</svg>
