<svg width="34" height="34" viewBox="0 0 34 34" fill="none" xmlns="http://www.w3.org/2000/svg">
<path d="M33.4322 0H7.93228C7.61934 0 7.36561 0.253724 7.36561 0.566665V9.06665H8.49895V1.13333H32.8656V32.2999C32.871 32.5979 32.6411 32.8475 32.3437 32.8666C32.2949 32.8666 32.2462 32.8626 32.1975 32.8615C32.0972 32.8587 31.9969 32.8564 31.8983 32.8462C31.8898 32.8462 31.8818 32.8462 31.8733 32.8428C30.0226 32.6405 28.5607 31.18 28.3566 29.3295C28.3566 29.3215 28.3538 29.313 28.3526 29.3051C28.3389 29.1705 28.3321 29.0352 28.3322 28.8999V27.7666C28.3322 27.4537 28.0785 27.1999 27.7656 27.1999H8.49895V17H7.36561V27.1999H2.83229C2.51935 27.1999 2.26562 27.4537 2.26562 27.7666V28.8999C2.26874 31.7153 4.55028 33.9968 7.36561 33.9999H32.3556C33.2751 33.9758 34.006 33.2198 33.9989 32.2999V0.566665C33.9989 0.253724 33.7452 0 33.4322 0ZM7.36561 32.8666C5.17595 32.8641 3.40144 31.0896 3.39896 28.8999V28.3333H27.1989V28.8999C27.1997 29.0868 27.2105 29.2735 27.2312 29.4592C27.2363 29.5085 27.2459 29.5561 27.2527 29.6049C27.2714 29.742 27.2941 29.8786 27.3241 30.0129C27.3343 30.0599 27.3474 30.1064 27.3593 30.1534C27.3938 30.29 27.4329 30.4243 27.4783 30.5569C27.4913 30.5948 27.5049 30.6322 27.5191 30.6702C27.5706 30.8107 27.629 30.9479 27.693 31.0833C27.7066 31.1111 27.7191 31.14 27.7327 31.1655C27.8038 31.309 27.8817 31.4486 27.9667 31.5842C27.9781 31.6024 27.9883 31.6211 27.9996 31.6409C28.092 31.7856 28.1917 31.9256 28.2982 32.0602L28.3164 32.0846C28.44 32.2399 28.5725 32.3881 28.713 32.5283C28.8351 32.6492 28.9616 32.7625 29.0927 32.8683L7.36561 32.8666Z" fill="#2569E6"/>
<path d="M18.7 15.8666C18.8503 15.8666 18.9943 15.8068 19.1006 15.7006L21.3673 13.4339C21.5885 13.2126 21.5885 12.8539 21.3673 12.6326L19.1006 10.366C18.9943 10.2597 18.8503 10.2 18.7 10.2H2.83333C1.26855 10.2 0 11.4685 0 13.0333C0 14.5981 1.26855 15.8666 2.83333 15.8666H18.7ZM17.1246 12.4666H5.66665V13.5999H17.1246L17.408 14.7333H4.53332V11.3333H17.408L17.1246 12.4666ZM20.1654 13.0333L18.5538 14.6449L18.1509 13.0333L18.5538 11.4217L20.1654 13.0333ZM1.13333 13.0333C1.13333 12.0944 1.89443 11.3333 2.83333 11.3333H3.39999V14.7333H2.83333C1.89443 14.7333 1.13333 13.9722 1.13333 13.0333Z" fill="#2569E6"/>
<path d="M13.0353 24.3665H30.0353C30.3482 24.3665 30.6019 24.1128 30.6019 23.7999V6.79992C30.6019 6.48698 30.3481 6.23333 30.0351 6.2334C29.8849 6.2334 29.7409 6.29311 29.6346 6.39929L12.6347 23.3992C12.4134 23.6206 12.4135 23.9794 12.6348 24.2006C12.741 24.3068 12.8851 24.3665 13.0353 24.3665ZM29.4686 8.16785V9.63325H28.3353V10.7666H29.4686V11.8999H28.3353V13.0332H29.4686V14.1666H28.3353V15.2999H29.4686V16.4332H28.3353V17.5666H29.4686V18.6999H28.3353V19.8332H29.4686V20.9665H28.3353V22.0999H29.4686V23.2332H28.3353V22.0999H27.2019V23.2332H26.0686V22.0999H24.9353V23.2332H23.8019V22.0999H22.6686V23.2332H21.5353V22.0999H20.402V23.2332H19.2686V22.0999H18.1353V23.2332H17.002V22.0999H15.8686V23.2332H14.4032L29.4686 8.16785Z" fill="#2569E6"/>
<path d="M21.2423 20.9665H26.6341C26.9471 20.9665 27.2008 20.7128 27.2008 20.3999V15.0081C27.2007 14.6951 26.947 14.4415 26.634 14.4415C26.4838 14.4415 26.3398 14.5012 26.2335 14.6074L20.8417 19.9992C20.6204 20.2206 20.6205 20.5794 20.8418 20.8006C20.948 20.9068 21.0921 20.9665 21.2423 20.9665ZM26.0675 16.3765V19.8332H22.6108L26.0675 16.3765Z" fill="#2569E6"/>
<path d="M10 3.3999H21.3333V4.53323H10V3.3999Z" fill="#2569E6"/>
<path d="M10 5.66675H24.7333V6.80008H10V5.66675Z" fill="#2569E6"/>
<path d="M10 17.5667H13.4V18.7H10V17.5667Z" fill="#2569E6"/>
<path d="M10 19.8333H12.2667V20.9666H10V19.8333Z" fill="#2569E6"/>
</svg>
