<svg width="165" height="80" viewBox="0 0 165 80" fill="none" xmlns="http://www.w3.org/2000/svg">
<g clip-path="url(#clip0)">
<path fill-rule="evenodd" clip-rule="evenodd" d="M57.8848 48.1418V32.7383H59.8148L68.9887 45.1345V32.7383H70.8234V48.1418H68.8934L59.7195 35.6234V48.1418H57.8848ZM85.7637 47.5306C84.5484 47.9951 83.2379 48.2396 81.8559 48.2396C76.423 48.2396 73.7066 45.5746 73.7066 40.22C73.7066 35.1589 76.3277 32.6161 81.5699 32.6161C83.0711 32.6161 84.477 32.8361 85.7637 33.2518V34.9633C84.477 34.4498 83.1426 34.2053 81.7844 34.2053C77.6859 34.2053 75.6367 36.2102 75.6367 40.1711C75.6367 44.4499 77.6621 46.577 81.6891 46.577C82.3324 46.577 83.0473 46.4792 83.8336 46.3081V41.1491H85.7637V47.5306V47.5306ZM88.8613 42.2005V32.7383H90.7914V42.2005C90.7914 45.1589 92.2211 46.6504 95.1043 46.6504C97.9637 46.6504 99.4172 45.1589 99.4172 42.2005V32.7383H101.347V42.2005C101.347 46.2347 99.2742 48.2641 95.1043 48.2641C90.9344 48.2641 88.8613 46.2347 88.8613 42.2005V42.2005ZM106.732 32.7383V46.5281H114.596V48.1418H104.802V32.7383H106.732V32.7383ZM117.384 48.1418H115.358L122.816 30.709L130.275 48.1418H128.13L126.2 43.3007H121.244L121.768 41.687H125.557L122.745 34.7188L117.384 48.1418V48.1418ZM132.348 48.1418V32.7383H138.757C141.617 32.7383 143.046 33.9608 143.046 36.4303C143.046 38.4352 141.641 39.9266 138.853 40.8802L144 48.1418H141.45L136.684 41.2225V39.9266C139.544 39.4621 140.997 38.3374 140.997 36.5281C140.997 35.11 140.211 34.4009 138.614 34.4009H134.325V48.1418H132.348V48.1418Z" fill="#344154"/>
<path fill-rule="evenodd" clip-rule="evenodd" d="M22 28.6323L37.3691 23.0088L53.1434 28.5345L50.5938 49.3904L37.3691 56.8965L24.359 49.4882L22 28.6323Z" fill="#344154"/>
<path fill-rule="evenodd" clip-rule="evenodd" d="M53.1434 28.5329L37.3691 23.0072V56.8949L50.5938 49.3888L53.1434 28.5329V28.5329Z" fill="#495970"/>
<path fill-rule="evenodd" clip-rule="evenodd" d="M37.3934 26.968L27.8145 48.8263L31.3887 48.753L33.3188 43.8141H41.8731L43.9699 48.8019L47.3773 48.8752L37.3934 26.968V26.968ZM37.4172 33.9852L40.6578 40.929H34.5816L37.4172 33.9852V33.9852Z" fill="white"/>
</g>
<defs>
<clipPath id="clip0">
<rect x="22" y="23" width="122" height="34" fill="white"/>
</clipPath>
</defs>
</svg>
