<svg width="35" height="35" viewBox="0 0 35 35" fill="none" xmlns="http://www.w3.org/2000/svg">
<path d="M1 33V1.5L2 1L14.5 0.5L18 1.5L18.5 11.5L32.5 11L34 12.5V33L33 34.5H2.5L1 33Z" fill="url(#paint0_linear)"/>
<path d="M32.375 10.2375H18.9875V2.625C18.9875 1.225 17.85 0 16.3625 0H2.625C1.1375 0 0 1.225 0 2.625V32.375C0 33.8625 1.1375 35 2.625 35H32.375C33.8625 35 35 33.8625 35 32.375V12.8625C35 11.375 33.8625 10.2375 32.375 10.2375ZM5.5125 33.25V28.2625C5.5125 27.825 5.8625 27.3875 6.3875 27.3875H8.575V33.25H5.5125ZM13.3875 33.25H10.325V27.3875H12.5125C13.0375 27.3875 13.3875 27.825 13.3875 28.2625V33.25ZM17.2375 33.25H15.225V28.2625C15.225 26.775 14.0875 25.6375 12.6 25.6375H6.475C4.9875 25.6375 3.85 26.775 3.85 28.2625V33.25H2.625C2.1875 33.25 1.75 32.9 1.75 32.375V2.625C1.75 2.1 2.1875 1.75 2.625 1.75H16.3625C16.8 1.75 17.2375 2.1 17.2375 2.625V33.25ZM33.25 32.375C33.25 32.9 32.8125 33.25 32.375 33.25H18.9875V11.9875H32.375C32.8125 11.9875 33.25 12.425 33.25 12.8625V32.375Z" fill="url(#paint1_linear)"/>
<path d="M14.2617 5.95001H4.63672C4.11172 5.95001 3.76172 5.60001 3.76172 5.07501C3.76172 4.55001 4.11172 4.20001 4.63672 4.20001H14.2617C14.7867 4.20001 15.1367 4.55001 15.1367 5.07501C15.1367 5.60001 14.7867 5.95001 14.2617 5.95001Z" fill="url(#paint2_linear)"/>
<path d="M14.2617 10.325H4.63672C4.11172 10.325 3.76172 9.97501 3.76172 9.45001C3.76172 8.92501 4.11172 8.57501 4.63672 8.57501H14.2617C14.7867 8.57501 15.1367 8.92501 15.1367 9.45001C15.1367 9.97501 14.7867 10.325 14.2617 10.325Z" fill="url(#paint3_linear)"/>
<path d="M14.2617 14.7H4.63672C4.11172 14.7 3.76172 14.35 3.76172 13.825C3.76172 13.3 4.11172 12.95 4.63672 12.95H14.2617C14.7867 12.95 15.1367 13.3 15.1367 13.825C15.1367 14.35 14.7867 14.7 14.2617 14.7Z" fill="url(#paint4_linear)"/>
<path d="M14.2617 19.075H4.63672C4.11172 19.075 3.76172 18.725 3.76172 18.2C3.76172 17.675 4.11172 17.325 4.63672 17.325H14.2617C14.7867 17.325 15.1367 17.675 15.1367 18.2C15.1367 18.725 14.7867 19.075 14.2617 19.075Z" fill="url(#paint5_linear)"/>
<path d="M30.8867 16.45H21.2617C20.7367 16.45 20.3867 16.1 20.3867 15.575C20.3867 15.05 20.7367 14.7 21.2617 14.7H30.8867C31.4117 14.7 31.7617 15.05 31.7617 15.575C31.7617 16.1 31.4117 16.45 30.8867 16.45Z" fill="url(#paint6_linear)"/>
<path d="M30.8867 20.825H21.2617C20.7367 20.825 20.3867 20.475 20.3867 19.95C20.3867 19.425 20.7367 19.075 21.2617 19.075H30.8867C31.4117 19.075 31.7617 19.425 31.7617 19.95C31.7617 20.475 31.4117 20.825 30.8867 20.825Z" fill="url(#paint7_linear)"/>
<path d="M30.8867 25.2H21.2617C20.7367 25.2 20.3867 24.85 20.3867 24.325C20.3867 23.8 20.7367 23.45 21.2617 23.45H30.8867C31.4117 23.45 31.7617 23.8 31.7617 24.325C31.7617 24.85 31.4117 25.2 30.8867 25.2Z" fill="url(#paint8_linear)"/>
<defs>
<linearGradient id="paint0_linear" x1="23.0674" y1="-15.3856" x2="23.0674" y2="46.3414" gradientUnits="userSpaceOnUse">
<stop stop-color="#C7DAFD"/>
<stop offset="1" stop-color="#E9F1FF"/>
</linearGradient>
<linearGradient id="paint1_linear" x1="0" y1="0" x2="26.2467" y2="38.8363" gradientUnits="userSpaceOnUse">
<stop stop-color="#2569E6"/>
<stop offset="1" stop-color="#3649EF"/>
</linearGradient>
<linearGradient id="paint2_linear" x1="3.76172" y1="4.20001" x2="4.05269" y2="6.99849" gradientUnits="userSpaceOnUse">
<stop stop-color="#2569E6"/>
<stop offset="1" stop-color="#3649EF"/>
</linearGradient>
<linearGradient id="paint3_linear" x1="3.76172" y1="8.57501" x2="4.05269" y2="11.3735" gradientUnits="userSpaceOnUse">
<stop stop-color="#2569E6"/>
<stop offset="1" stop-color="#3649EF"/>
</linearGradient>
<linearGradient id="paint4_linear" x1="3.76172" y1="12.95" x2="4.05269" y2="15.7485" gradientUnits="userSpaceOnUse">
<stop stop-color="#2569E6"/>
<stop offset="1" stop-color="#3649EF"/>
</linearGradient>
<linearGradient id="paint5_linear" x1="3.76172" y1="17.325" x2="4.05269" y2="20.1235" gradientUnits="userSpaceOnUse">
<stop stop-color="#2569E6"/>
<stop offset="1" stop-color="#3649EF"/>
</linearGradient>
<linearGradient id="paint6_linear" x1="20.3867" y1="14.7" x2="20.6777" y2="17.4985" gradientUnits="userSpaceOnUse">
<stop stop-color="#2569E6"/>
<stop offset="1" stop-color="#3649EF"/>
</linearGradient>
<linearGradient id="paint7_linear" x1="20.3867" y1="19.075" x2="20.6777" y2="21.8735" gradientUnits="userSpaceOnUse">
<stop stop-color="#2569E6"/>
<stop offset="1" stop-color="#3649EF"/>
</linearGradient>
<linearGradient id="paint8_linear" x1="20.3867" y1="23.45" x2="20.6777" y2="26.2485" gradientUnits="userSpaceOnUse">
<stop stop-color="#2569E6"/>
<stop offset="1" stop-color="#3649EF"/>
</linearGradient>
</defs>
</svg>
