<svg width="39" height="35" viewBox="0 0 39 35" fill="none" xmlns="http://www.w3.org/2000/svg">
<path d="M8.29301 9.32062C7.58134 9.32062 6.98828 9.91367 6.98828 10.6253C6.98828 11.337 7.58134 11.9301 8.29301 11.9301C9.00467 11.9301 9.59773 11.337 9.59773 10.6253C9.59773 9.91367 9.00467 9.32062 8.29301 9.32062Z" fill="url(#paint0_linear)"/>
<path d="M17.8399 11.8708C17.7212 11.8708 20.3307 11.8708 20.4493 11.8708V9.26135H17.8399V11.8708V11.8708Z" fill="url(#paint1_linear)"/>
<path d="M29.9981 9.32062C29.2864 9.32062 28.6934 9.91367 28.6934 10.6253C28.6934 11.337 29.2864 11.9301 29.9981 11.9301C30.7098 11.9301 31.3028 11.337 31.3028 10.6253C31.3028 9.91367 30.7098 9.32062 29.9981 9.32062Z" fill="url(#paint2_linear)"/>
<path d="M19.1456 3.09353C8.52986 -6.69191 -7.00823 9.08341 3.48888 19.5805L18.7304 34.8221C18.8491 34.9407 18.9677 35 19.1456 35C19.3235 35 19.4421 34.9407 19.5607 34.8221L34.8023 19.5805C37.2338 17.149 38.3013 14.3616 38.3013 11.6929C38.3013 3.09353 27.3298 -4.43829 19.1456 3.09353ZM29.9985 13.0569C28.8124 13.0569 27.8635 12.2266 27.567 11.1591H21.6364V12.4638C21.6364 12.8197 21.3992 13.0569 21.0434 13.0569H20.1538L24.1866 21.1225C24.3052 21.3597 24.2459 21.6562 24.068 21.8341C23.89 22.0121 23.5935 22.0121 23.3563 21.8934L21.3992 20.648V22.7237C21.3992 23.0796 21.162 23.3168 20.8061 23.3168H17.5443C17.1885 23.3168 16.9513 23.0796 16.9513 22.7237V20.648L14.9942 21.8934C14.757 22.0121 14.4604 22.0121 14.2825 21.8341C14.1046 21.6562 14.0453 21.3597 14.1639 21.1225L18.1967 13.0569H17.3071C16.9513 13.0569 16.714 12.8197 16.714 12.4638V11.1591H10.6649C10.3683 12.2266 9.41945 13.0569 8.23334 13.0569C6.8693 13.0569 5.7425 11.9301 5.7425 10.5661C5.7425 9.20202 6.8693 8.07521 8.23334 8.07521C9.41945 8.07521 10.3683 8.90549 10.6649 9.97299H16.6547V8.66827C16.6547 8.31244 16.892 8.07521 17.2478 8.07521H21.0434C21.3992 8.07521 21.6364 8.31244 21.6364 8.66827V9.97299H27.6263C27.9228 8.90549 28.8717 8.07521 30.0578 8.07521C31.4219 8.07521 32.5487 9.20202 32.5487 10.5661C32.4894 11.9894 31.3626 13.0569 29.9985 13.0569Z" fill="url(#paint3_linear)"/>
<defs>
<linearGradient id="paint0_linear" x1="7.54745" y1="9.32062" x2="8.4328" y2="11.6971" gradientUnits="userSpaceOnUse">
<stop stop-color="#FF002E"/>
<stop offset="1" stop-color="#F938AC"/>
</linearGradient>
<linearGradient id="paint1_linear" x1="18.3959" y1="9.26135" x2="19.2803" y2="11.6387" gradientUnits="userSpaceOnUse">
<stop stop-color="#FF002E"/>
<stop offset="1" stop-color="#F938AC"/>
</linearGradient>
<linearGradient id="paint2_linear" x1="29.2525" y1="9.32062" x2="30.1379" y2="11.6971" gradientUnits="userSpaceOnUse">
<stop stop-color="#FF002E"/>
<stop offset="1" stop-color="#F938AC"/>
</linearGradient>
<linearGradient id="paint3_linear" x1="8.20743" y1="4.0446e-07" x2="19.2815" y2="32.529" gradientUnits="userSpaceOnUse">
<stop stop-color="#FF002E"/>
<stop offset="1" stop-color="#F938AC"/>
</linearGradient>
</defs>
</svg>
