<svg width="49" height="35" viewBox="0 0 49 35" fill="none" xmlns="http://www.w3.org/2000/svg">
<path d="M1.16602 19.6667L4.66602 18.5L6.99935 16.1667C7.58268 15.5833 12.8327 15.5833 14.5827 15.5833C16.3327 15.5833 23.3327 15 23.916 15C24.4993 15 37.916 15 39.0827 15.5833C40.2493 16.1667 42.5827 17.9167 43.166 18.5C43.6327 18.9667 45.6938 19.0833 46.666 19.0833C46.8605 22.7778 47.2493 30.2833 47.2493 30.75C47.2493 31.2167 44.916 31.7222 43.7493 31.9167L39.0827 34.25L32.0827 34.8333C29.9438 34.25 25.5493 33.0833 25.0827 33.0833C24.616 33.0833 22.5549 34.25 21.5827 34.8333H9.91602L6.41602 31.9167L1.74935 31.3333L1.16602 19.6667Z" fill="url(#paint0_linear)"/>
<path d="M47.0444 15.2444H43.3296C42.9098 14.281 42.2182 13.4609 41.3394 12.8846C40.4605 12.3083 39.4327 12.0009 38.3818 12H10.2849C9.24783 12.0165 8.23745 12.3313 7.37446 12.9066C6.51147 13.4819 5.83234 14.2935 5.41822 15.2444H1.62222C1.19198 15.2444 0.779364 15.4154 0.475138 15.7196C0.170912 16.0238 0 16.4364 0 16.8667V29.8444C0 30.2747 0.170912 30.6873 0.475138 30.9915C0.779364 31.2958 1.19198 31.4667 1.62222 31.4667H5.33711C5.75685 32.4301 6.44849 33.2502 7.32732 33.8265C8.20614 34.4028 9.23397 34.7102 10.2849 34.7111H19.4667C19.7206 34.7096 19.9707 34.6485 20.1967 34.5327L23.1004 33.0889H25.5662L28.47 34.5327C28.696 34.6485 28.9461 34.7096 29.2 34.7111H38.3818C39.4327 34.7102 40.4605 34.4028 41.3394 33.8265C42.2182 33.2502 42.9098 32.4301 43.3296 31.4667H47.0444C47.4747 31.4667 47.8873 31.2958 48.1915 30.9915C48.4958 30.6873 48.6667 30.2747 48.6667 29.8444V16.8667C48.6667 16.4364 48.4958 16.0238 48.1915 15.7196C47.8873 15.4154 47.4747 15.2444 47.0444 15.2444ZM3.24444 18.4889H4.86667V28.2222H3.24444V18.4889ZM38.3818 31.4667H29.5893L26.6856 30.0229C26.4595 29.9071 26.2095 29.846 25.9556 29.8444H22.7111C22.4572 29.846 22.2071 29.9071 21.9811 30.0229L19.0773 31.4667H10.2849C9.70837 31.4667 9.15546 31.2376 8.7478 30.83C8.34013 30.4223 8.11111 29.8694 8.11111 29.2929V17.4182C8.11111 16.8417 8.34013 16.2888 8.7478 15.8811C9.15546 15.4735 9.70837 15.2444 10.2849 15.2444H38.3818C38.9583 15.2444 39.5112 15.4735 39.9189 15.8811C40.3265 16.2888 40.5556 16.8417 40.5556 17.4182V29.2929C40.5556 29.8694 40.3265 30.4223 39.9189 30.83C39.5112 31.2376 38.9583 31.4667 38.3818 31.4667ZM45.4222 28.2222H43.8V18.4889H45.4222V28.2222Z" fill="url(#paint1_linear)"/>
<path d="M29.1993 10.7H19.466C19.0357 10.7 18.6231 10.8709 18.3189 11.1752C18.0147 11.4794 17.8438 11.892 17.8438 12.3222C17.8438 12.7525 18.0147 13.1651 18.3189 13.4693C18.6231 13.7735 19.0357 13.9445 19.466 13.9445H29.1993C29.6295 13.9445 30.0422 13.7735 30.3464 13.4693C30.6506 13.1651 30.8215 12.7525 30.8215 12.3222C30.8215 11.892 30.6506 11.4794 30.3464 11.1752C30.0422 10.8709 29.6295 10.7 29.1993 10.7Z" fill="url(#paint2_linear)"/>
<defs>
<linearGradient id="paint0_linear" x1="31.9824" y1="5.73338" x2="31.9824" y2="41.7408" gradientUnits="userSpaceOnUse">
<stop stop-color="#C7DAFD"/>
<stop offset="1" stop-color="#E9F1FF"/>
</linearGradient>
<linearGradient id="paint1_linear" x1="0" y1="12" x2="10.5306" y2="45.3894" gradientUnits="userSpaceOnUse">
<stop stop-color="#2569E6"/>
<stop offset="1" stop-color="#3649EF"/>
</linearGradient>
<linearGradient id="paint2_linear" x1="17.8438" y1="10.7" x2="18.7052" y2="15.7988" gradientUnits="userSpaceOnUse">
<stop stop-color="#2569E6"/>
<stop offset="1" stop-color="#3649EF"/>
</linearGradient>
</defs>
</svg>
