<svg width="31" height="35" viewBox="0 0 31 35" fill="none" xmlns="http://www.w3.org/2000/svg">
<path d="M2.60961 23.2398L0.0511871 33.0277C-0.0721809 33.4996 0.0302426 34.0019 0.328281 34.3878C0.626319 34.774 1.08654 35 1.57425 35H28.5666C29.0543 35 29.5145 34.774 29.8125 34.3878C30.1106 34.0019 30.213 33.4996 30.0896 33.0277L27.5314 23.2398C27.3502 22.5471 26.7243 22.0638 26.0083 22.0638H22.3218C24.2508 19.2426 25.9106 15.6834 26.0652 11.6641C26.0771 11.4533 26.0846 11.2412 26.0846 11.0275C26.0846 4.94697 21.1377 0 15.0571 0C8.97644 0 4.02947 4.94696 4.02947 11.0275C4.02947 11.2454 4.03735 11.4616 4.0485 11.6493C4.21289 15.627 5.91661 19.2108 7.87565 22.0638H4.13266C3.41668 22.0638 2.79081 22.5471 2.60961 23.2398ZM7.19281 11.4925C7.18378 11.3386 7.17782 11.1837 7.17782 11.0275C7.17782 6.68294 10.7124 3.14835 15.0571 3.14835C19.4017 3.14835 22.9363 6.68294 22.9363 11.0275C22.9363 11.1808 22.9307 11.3326 22.9205 11.5135C22.6665 18.1134 17.2997 23.5223 15.0706 25.4921C12.8427 23.4777 7.46049 17.9625 7.19281 11.4925ZM10.353 25.2121C12.2749 27.3648 13.9299 28.6693 14.0915 28.7948C14.3754 29.0154 14.7163 29.1257 15.0571 29.1257C15.3888 29.1257 15.7207 29.0211 16.0007 28.8117C16.1652 28.6884 17.872 27.389 19.8348 25.2122H24.7927L26.5281 31.8517H3.61287L5.34827 25.2122H10.353V25.2121Z" fill="url(#paint0_linear)"/>
<path d="M20.2057 11.0275C20.2057 8.18848 17.8959 5.87872 15.0569 5.87872C12.218 5.87872 9.9082 8.18849 9.9082 11.0275C9.9082 13.8664 12.218 16.1762 15.0569 16.1762C17.8959 16.1762 20.2057 13.8664 20.2057 11.0275ZM13.0566 11.0275C13.0566 9.92446 13.9539 9.02707 15.0569 9.02707C16.1599 9.02707 17.0573 9.92446 17.0573 11.0275C17.0573 12.1305 16.1599 13.0278 15.0569 13.0278C13.9539 13.0278 13.0566 12.1305 13.0566 11.0275Z" fill="url(#paint1_linear)"/>
<defs>
<linearGradient id="paint0_linear" x1="0" y1="0" x2="27.4764" y2="35.0115" gradientUnits="userSpaceOnUse">
<stop stop-color="#2569E6"/>
<stop offset="1" stop-color="#3649EF"/>
</linearGradient>
<linearGradient id="paint1_linear" x1="9.9082" y1="5.87872" x2="17.6303" y2="17.3049" gradientUnits="userSpaceOnUse">
<stop stop-color="#2569E6"/>
<stop offset="1" stop-color="#3649EF"/>
</linearGradient>
</defs>
</svg>
