<svg width="165" height="80" viewBox="0 0 165 80" fill="none" xmlns="http://www.w3.org/2000/svg">
<path d="M82.8198 19.0118C72.1843 19.0118 72.8484 23.6425 72.8484 23.6425L72.8602 28.4401H83.0095V29.8804H68.8291C68.8291 29.8804 62.0234 29.1055 62.0234 39.8797C62.0234 50.6542 67.9636 50.2721 67.9636 50.2721H71.5086V45.2723C71.5086 45.2723 71.3175 39.3083 77.354 39.3083H87.4202C87.4202 39.3083 93.0757 39.4001 93.0757 33.8205V24.595C93.0757 24.595 93.9347 19.0118 82.8198 19.0118ZM77.2235 22.2381C77.4634 22.2379 77.7009 22.2851 77.9225 22.3772C78.1441 22.4692 78.3455 22.6043 78.5151 22.7745C78.6847 22.9448 78.8192 23.147 78.9108 23.3695C79.0025 23.592 79.0496 23.8305 79.0494 24.0713C79.0496 24.3121 79.0025 24.5505 78.9108 24.773C78.8192 24.9956 78.6847 25.1977 78.5151 25.368C78.3455 25.5383 78.1441 25.6733 77.9225 25.7653C77.7009 25.8574 77.4634 25.9047 77.2235 25.9044C76.9837 25.9047 76.7462 25.8574 76.5246 25.7653C76.303 25.6733 76.1016 25.5383 75.932 25.368C75.7624 25.1977 75.6279 24.9956 75.5362 24.773C75.4446 24.5505 75.3975 24.3121 75.3977 24.0713C75.3975 23.8305 75.4446 23.592 75.5362 23.3695C75.6279 23.147 75.7624 22.9448 75.932 22.7745C76.1016 22.6043 76.303 22.4692 76.5246 22.3772C76.7462 22.2851 76.9837 22.2379 77.2235 22.2381V22.2381Z" fill="#344154"/>
<path d="M83.1211 60.8561C93.7566 60.8561 93.0925 56.2254 93.0925 56.2254L93.0807 51.428H82.9313V49.9876H97.1116C97.1116 49.9876 103.917 50.7626 103.917 39.988C103.917 29.2136 97.9772 29.5957 97.9772 29.5957H94.4321V34.5953C94.4321 34.5953 94.6232 40.5593 88.5868 40.5593H78.5205C78.5205 40.5593 72.865 40.4676 72.865 46.0474V55.273C72.865 55.273 72.0062 60.8561 83.1209 60.8561H83.1211ZM88.7174 57.6301C88.4775 57.6304 88.24 57.5831 88.0184 57.491C87.7968 57.399 87.5954 57.264 87.4258 57.0937C87.2562 56.9234 87.1217 56.7213 87.0301 56.4988C86.9384 56.2762 86.8913 56.0378 86.8915 55.797C86.8913 55.5562 86.9383 55.3177 87.03 55.0951C87.1217 54.8726 87.2562 54.6704 87.4258 54.5001C87.5953 54.3298 87.7967 54.1948 88.0183 54.1027C88.24 54.0107 88.4775 53.9634 88.7174 53.9636C88.9572 53.9634 89.1947 54.0107 89.4163 54.1027C89.6379 54.1948 89.8393 54.3298 90.0089 54.5001C90.1785 54.6703 90.313 54.8725 90.4047 55.095C90.4963 55.3175 90.5434 55.556 90.5432 55.7968C90.5434 56.0376 90.4963 56.2761 90.4047 56.4986C90.313 56.7211 90.1785 56.9233 90.0089 57.0935C89.8393 57.2638 89.6379 57.3988 89.4163 57.4909C89.1947 57.5829 88.9572 57.6302 88.7174 57.63V57.6301Z" fill="#344154"/>
</svg>
