<svg width="165" height="80" viewBox="0 0 165 80" fill="none" xmlns="http://www.w3.org/2000/svg">
<path d="M56.1582 39.9478C56.1582 43.9579 60.1159 47.7013 66.3551 49.8114C65.1092 56.0174 66.132 61.0196 69.5477 62.9686C73.0587 64.9721 78.2893 63.5853 83.2539 59.2914C88.0932 63.4119 92.984 65.0335 96.3969 63.0788C99.9046 61.0697 100.971 55.7284 99.6909 49.3285C106.19 47.2027 109.825 44.0107 109.825 39.9478C109.825 36.0308 105.86 32.6422 99.7047 30.5456C101.083 23.8814 99.9152 19.0006 96.3578 16.971C92.9284 15.0143 87.9806 16.7198 83.0702 20.9479C77.9615 16.4601 73.0627 15.09 69.5091 17.1252C66.0828 19.0876 65.1052 24.1808 66.3551 30.5016C60.3264 32.5813 56.1582 36.0467 56.1582 39.9478Z" fill="white"/>
<path d="M98.4016 32.6276C97.8943 32.4554 97.3827 32.296 96.8673 32.1493C96.9528 31.8056 97.0318 31.4605 97.1044 31.1139C98.2658 25.5359 97.5064 21.0423 94.9133 19.5631C92.427 18.1444 88.3608 19.6236 84.254 23.1595C83.8493 23.5087 83.4536 23.868 83.0673 24.237C82.8086 23.9917 82.5453 23.7511 82.2776 23.5153C77.9736 19.7342 73.6595 18.141 71.069 19.6246C68.5851 21.0473 67.8494 25.2719 68.895 30.5582C68.999 31.0817 69.1165 31.6025 69.2472 32.1201C68.6368 32.2916 68.0473 32.4744 67.4832 32.6689C62.4374 34.4095 59.2148 37.1375 59.2148 39.967C59.2148 42.8896 62.6741 45.8209 67.93 47.5982C68.3562 47.7416 68.7859 47.8745 69.2188 47.9968C69.0781 48.5544 68.9533 49.1158 68.8444 49.6803C67.8475 54.8748 68.6261 58.9992 71.1034 60.4131C73.6622 61.8729 77.9567 60.3724 82.1386 56.7557C82.4691 56.4698 82.8009 56.1666 83.1331 55.8487C83.5515 56.2482 83.9812 56.636 84.4215 57.0118C88.4721 60.4605 92.4726 61.8531 94.9479 60.4355C97.5043 58.9712 98.3349 54.5404 97.2563 49.1496C97.174 48.7379 97.078 48.3173 96.9704 47.8891C97.2721 47.801 97.568 47.71 97.8568 47.6153C103.321 45.8243 106.875 42.9286 106.875 39.967C106.875 37.1273 103.549 34.3809 98.4016 32.6276V32.6276Z" fill="#344154"/>
<path d="M97.2176 45.7032C96.9571 45.7886 96.6896 45.871 96.4171 45.9509C95.8139 44.0616 94.9997 42.0525 94.0037 39.977C94.9543 37.9506 95.7369 35.9674 96.3233 34.0902C96.8107 34.23 97.284 34.3771 97.7401 34.5326C102.151 36.0346 104.841 38.2557 104.841 39.967C104.841 41.79 101.935 44.1566 97.2178 45.7032H97.2176ZM95.2602 49.5409C95.7371 51.9246 95.8052 54.0798 95.4893 55.7646C95.2053 57.2785 94.6346 58.2878 93.9288 58.692C92.4268 59.5523 89.2146 58.4341 85.7507 55.4848C85.3535 55.1467 84.9534 54.7857 84.5522 54.4037C85.8952 52.9504 87.2373 51.2608 88.5472 49.3846C90.8514 49.1824 93.0281 48.8516 95.0022 48.4002C95.0992 48.7884 95.1857 49.1688 95.2602 49.5409V49.5409ZM75.4645 58.5434C73.9971 59.0562 72.8283 59.0708 72.1219 58.6678C70.6185 57.8101 69.9937 54.4981 70.846 50.056C70.9474 49.531 71.0635 49.0089 71.1941 48.4904C73.1462 48.9176 75.3072 49.225 77.6169 49.4103C78.9354 51.2462 80.3163 52.9337 81.708 54.4115C81.4122 54.6946 81.1095 54.9704 80.8 55.2387C78.9508 56.8382 77.0978 57.9726 75.4647 58.5434H75.4645ZM68.5897 45.692C66.2657 44.906 64.3465 43.8847 63.0309 42.7702C61.8489 41.7685 61.252 40.774 61.252 39.967C61.252 38.2501 63.8394 36.0598 68.1548 34.5712C68.6964 34.3852 69.2435 34.2149 69.7952 34.0605C70.3917 35.9799 71.174 37.9867 72.1182 40.0161C71.1618 42.0757 70.3683 44.1144 69.7663 46.0563C69.3712 45.9444 68.9788 45.8229 68.5897 45.692V45.692ZM70.8943 30.1713C69.9985 25.642 70.5933 22.2254 72.0903 21.3681C73.6849 20.4548 77.2106 21.7571 80.9267 25.0217C81.1642 25.2304 81.4028 25.4489 81.6418 25.6749C80.2573 27.146 78.889 28.8208 77.5818 30.6461C75.3403 30.8516 73.1945 31.1818 71.2219 31.624C71.1004 31.1425 70.9912 30.658 70.8943 30.1711V30.1713ZM91.4529 35.1939C90.987 34.3977 90.5038 33.6114 90.0036 32.8357C91.5244 33.0256 92.9813 33.2781 94.3494 33.5872C93.9387 34.8897 93.4268 36.2516 92.824 37.6478C92.3835 36.8209 91.9264 36.0028 91.4529 35.1939V35.1939ZM83.0691 27.1145C84.0082 28.121 84.9487 29.2451 85.8739 30.4645C83.9972 30.3767 82.1175 30.3763 80.2408 30.4632C81.1668 29.2551 82.1153 28.1327 83.0691 27.1145V27.1145ZM74.6316 35.2077C74.164 36.0101 73.7155 36.8232 73.2863 37.6463C72.6934 36.255 72.1861 34.887 71.7718 33.5659C73.1317 33.2648 74.5818 33.0187 76.0927 32.8319C75.5869 33.6124 75.0998 34.4046 74.6316 35.2077V35.2077ZM76.1361 47.2459C74.5753 47.0735 73.1032 46.84 71.7438 46.5472C72.1646 45.2028 72.683 43.8054 73.2886 42.3841C73.7196 43.2079 74.1701 44.0214 74.6398 44.8242C75.1191 45.6431 75.618 46.4506 76.1361 47.2459V47.2459ZM83.1255 52.9619C82.1605 51.9315 81.198 50.7921 80.2579 49.5664C81.1704 49.6019 82.1008 49.6198 83.0464 49.6198C84.0179 49.6198 84.9783 49.5983 85.9234 49.5566C84.9953 50.8046 84.0582 51.9457 83.1255 52.9619ZM92.8434 42.3117C93.4804 43.7484 94.0174 45.1383 94.4439 46.46C93.0619 46.772 91.57 47.0232 89.9979 47.2098C90.5017 46.4196 90.9895 45.6196 91.4612 44.8102C91.9406 43.9876 92.4014 43.1546 92.8434 42.3117V42.3117ZM89.6974 43.8039C88.9754 45.0448 88.2128 46.2621 87.4109 47.454C85.9968 47.5539 84.5355 47.6055 83.0464 47.6055C81.5633 47.6055 80.1206 47.5598 78.7312 47.4707C77.9084 46.2816 77.1315 45.0621 76.4019 43.8149C75.6758 42.5744 74.9975 41.307 74.3686 40.0154C74.9959 38.7235 75.6721 37.4554 76.3958 36.2138V36.2143C77.1192 34.9724 77.8901 33.7582 78.7067 32.5742C80.1242 32.4682 81.5775 32.4127 83.0466 32.4127C84.5222 32.4127 85.9774 32.4686 87.3944 32.5754C88.2028 33.7576 88.9687 34.9676 89.6908 36.2032C90.417 37.442 91.1022 38.7039 91.7455 39.9868C91.1089 41.2828 90.4258 42.556 89.6976 43.8039H89.6974ZM93.8976 21.3082C95.4935 22.2189 96.1142 25.8913 95.1115 30.7074C95.0458 31.0211 94.9743 31.3337 94.8972 31.6449C92.9199 31.1935 90.7727 30.8575 88.5246 30.6488C87.2149 28.8037 85.858 27.126 84.4959 25.6739C84.8528 25.3334 85.2183 25.0018 85.5919 24.6792C89.1106 21.6494 92.3992 20.4532 93.8976 21.3082V21.3082Z" fill="white"/>
<path d="M83.045 35.7562C85.3956 35.7562 87.3009 37.6415 87.3009 39.967C87.3009 42.2927 85.3956 44.1781 83.045 44.1781C80.6946 44.1781 78.7891 42.2927 78.7891 39.967C78.7891 37.6415 80.6946 35.7562 83.045 35.7562" fill="#344154"/>
</svg>
