<svg width="165" height="80" viewBox="0 0 165 80" fill="none" xmlns="http://www.w3.org/2000/svg">
<g clip-path="url(#clip0)">
<path d="M120.042 52.449V57H128.301C129.994 57 132.898 55.7679 132.999 52.3233V50.5632C132.999 47.6214 130.575 45.8865 128.301 45.8865H124.184V43.7744H132.343V39.1982H124.512C122.492 39.1982 119.789 40.8577 119.789 43.9504V45.5344C119.789 48.6271 122.466 50.2112 124.512 50.2112C130.196 50.2363 123.148 50.2112 128.402 50.2112V52.4238L120.042 52.449ZM75.7885 51.3426C75.7885 51.3426 80.2087 50.9655 80.2087 45.283C80.2087 39.6005 74.8539 39.0725 74.8539 39.0725H65.2051V57H70.0547V52.6753L74.2477 57H81.4211L75.7885 51.3426V51.3426ZM73.9193 47.6717H70.0547V43.5732H73.9446C73.9446 43.5732 75.0307 43.9755 75.0307 45.6099C75.0307 47.2442 73.9193 47.6717 73.9193 47.6717V47.6717ZM92.1813 39.1982H87.2559C83.7449 39.1982 82.5578 42.3663 82.5578 43.875V57H87.4832V53.857H92.1056V57H96.8795V43.875C96.8795 40.0531 93.3938 39.1982 92.1813 39.1982V39.1982ZM92.1056 48.778H87.458V44.4281C87.458 44.4281 87.458 43.4475 88.9987 43.4475H90.6911C92.055 43.4475 92.0803 44.4281 92.0803 44.4281V48.778H92.1056V48.778ZM99.1275 39.1982H104.255V57H99.1275V39.1982ZM111.454 52.3987V39.1982H106.351V57H118.349V52.3987H111.454Z" fill="#344154"/>
<path d="M34.7676 57H54.7218C54.7218 57 50.9078 39.676 63.5371 32.6609C66.2903 31.3283 75.055 26.3499 89.4018 36.9102C89.8565 36.533 90.2859 36.2313 90.2859 36.2313C90.2859 36.2313 77.1514 23.1818 62.5267 24.6401C55.1765 25.2938 46.1339 31.9569 40.8296 40.7572C35.5253 49.5575 34.7676 57 34.7676 57Z" fill="black"/>
<path d="M34.7676 57H54.7218C54.7218 57 50.9078 39.676 63.5371 32.6609C66.2903 31.3283 75.055 26.3499 89.4018 36.9102C89.8565 36.533 90.2859 36.2313 90.2859 36.2313C90.2859 36.2313 77.1514 23.1818 62.5267 24.6401C55.1765 25.2938 46.1339 31.9569 40.8296 40.7572C35.5253 49.5575 34.7676 57 34.7676 57Z" fill="black"/>
<path d="M34.7676 56.9999H54.7218C54.7218 56.9999 50.9078 39.6759 63.5371 32.6608C66.2903 31.3282 75.055 26.3498 89.4018 36.9101C89.8565 36.5329 90.2859 36.2312 90.2859 36.2312C90.2859 36.2312 77.1514 23.1817 62.5267 24.64C55.1512 25.2937 46.1087 31.9568 40.8044 40.7571C35.5001 49.5573 34.7676 56.9999 34.7676 56.9999ZM76.3432 26.048L76.4442 24.3634C76.2169 24.2377 75.5854 23.936 73.9941 23.4834L73.8931 25.1429C74.7266 25.4195 75.5349 25.7212 76.3432 26.048Z" fill="#344154"/>
<path d="M73.9462 31.3786L73.8451 32.9626C74.6787 32.9878 75.5122 33.0884 76.3457 33.2644L76.4468 31.7055C75.588 31.5295 74.7545 31.4289 73.9462 31.3786ZM64.6005 23.5338H64.8531L64.3479 22C63.5649 22 62.7566 22.0503 61.9231 22.1509L62.403 23.6343C63.1355 23.5589 63.868 23.5338 64.6005 23.5338V23.5338ZM65.8129 32.7866L66.3938 34.5216C67.1263 34.1695 67.8588 33.8678 68.5913 33.6415L68.0357 31.982C67.1769 32.2335 66.4444 32.5101 65.8129 32.7866ZM54.3455 26.1739L53.2088 24.4389C52.5774 24.7658 51.9207 25.1178 51.2387 25.5201L52.4006 27.2802C53.0573 26.8779 53.6888 26.5007 54.3455 26.1739ZM59.5235 37.4885L60.7359 39.2989C61.1653 38.6703 61.6705 38.092 62.2262 37.5136L61.0895 35.8039C60.5086 36.3319 59.9782 36.9102 59.5235 37.4885ZM55.861 45.5848L57.907 47.194C58.008 46.2134 58.1848 45.2328 58.4374 44.2522L56.6188 42.819C56.2904 43.7493 56.0631 44.6796 55.861 45.5848V45.5848ZM44.7977 33.6415L43.0044 32.0826C42.3476 32.7112 41.7162 33.3398 41.1352 33.9684L43.0801 35.6279C43.6106 34.949 44.1915 34.2701 44.7977 33.6415ZM37.1696 44.8807L34.2649 43.8247C33.785 44.9059 33.2545 46.1631 33.002 46.842L35.9067 47.898C36.2351 47.0431 36.7655 45.8111 37.1696 44.8807ZM55.4821 51.9713C55.5326 53.3039 55.6589 54.3851 55.7852 55.1394L58.8163 56.2205C58.5889 55.2399 58.3616 54.1336 58.2101 52.9519L55.4821 51.9713Z" fill="#344154"/>
</g>
<defs>
<clipPath id="clip0">
<rect x="33" y="22" width="100" height="35" fill="white"/>
</clipPath>
</defs>
</svg>
