<svg width="30" height="30" viewBox="0 0 30 30" fill="none" xmlns="http://www.w3.org/2000/svg">
<rect x="1" y="7" width="28" height="22" fill="url(#paint0_linear)"/>
<path d="M29.0625 30H0.9375C0.68886 30 0.450403 29.9012 0.274587 29.7254C0.0987721 29.5496 0 29.3111 0 29.0625V0.9375C0 0.68886 0.0987721 0.450403 0.274587 0.274587C0.450403 0.0987721 0.68886 0 0.9375 0L29.0625 0C29.3111 0 29.5496 0.0987721 29.7254 0.274587C29.9012 0.450403 30 0.68886 30 0.9375V29.0625C30 29.3111 29.9012 29.5496 29.7254 29.7254C29.5496 29.9012 29.3111 30 29.0625 30ZM1.875 28.125H28.125V1.875H1.875V28.125Z" fill="url(#paint1_linear)"/>
<path d="M29.0625 5.625H0.9375V7.5H29.0625V5.625Z" fill="url(#paint2_linear)"/>
<path d="M5.625 2.8125H3.75V4.6875H5.625V2.8125Z" fill="url(#paint3_linear)"/>
<path d="M9.375 2.8125H7.5V4.6875H9.375V2.8125Z" fill="url(#paint4_linear)"/>
<path d="M13.125 2.8125H11.25V4.6875H13.125V2.8125Z" fill="url(#paint5_linear)"/>
<path d="M15 26.25C13.3312 26.25 11.6999 25.7552 10.3124 24.828C8.92484 23.9009 7.84338 22.5831 7.20477 21.0414C6.56616 19.4996 6.39907 17.8031 6.72463 16.1664C7.05019 14.5297 7.85378 13.0263 9.03379 11.8463C10.2138 10.6663 11.7172 9.86269 13.3539 9.53713C14.9906 9.21157 16.6871 9.37866 18.2289 10.0173C19.7706 10.6559 21.0884 11.7373 22.0155 13.1249C22.9427 14.5124 23.4375 16.1437 23.4375 17.8125C23.4375 20.0503 22.5486 22.1964 20.9662 23.7787C19.3839 25.3611 17.2378 26.25 15 26.25ZM15 11.25C13.7021 11.25 12.4333 11.6349 11.3541 12.356C10.2749 13.0771 9.43374 14.102 8.93704 15.3011C8.44034 16.5003 8.31038 17.8198 8.5636 19.0928C8.81682 20.3658 9.44183 21.5351 10.3596 22.4529C11.2774 23.3707 12.4467 23.9957 13.7197 24.2489C14.9927 24.5021 16.3122 24.3722 17.5114 23.8755C18.7105 23.3788 19.7354 22.5376 20.4565 21.4584C21.1776 20.3792 21.5625 19.1104 21.5625 17.8125C21.5625 16.072 20.8711 14.4028 19.6404 13.1721C18.4097 11.9414 16.7405 11.25 15 11.25Z" fill="url(#paint6_linear)"/>
<path d="M15 26.25C12.5344 26.25 11.25 22.0031 11.25 17.8125C11.25 13.6219 12.5344 9.375 15 9.375C17.4656 9.375 18.75 13.6219 18.75 17.8125C18.75 22.0031 17.4656 26.25 15 26.25ZM15 11.25C14.4562 11.25 13.125 13.5469 13.125 17.8125C13.125 22.0781 14.4562 24.375 15 24.375C15.5437 24.375 16.875 22.0781 16.875 17.8125C16.875 13.5469 15.5437 11.25 15 11.25Z" fill="url(#paint7_linear)"/>
<path d="M22.5 16.875H7.5V18.75H22.5V16.875Z" fill="url(#paint8_linear)"/>
<defs>
<linearGradient id="paint0_linear" x1="18.0991" y1="-3.40541" x2="18.0991" y2="37.027" gradientUnits="userSpaceOnUse">
<stop stop-color="#C7DAFD"/>
<stop offset="1" stop-color="#E9F1FF"/>
</linearGradient>
<linearGradient id="paint1_linear" x1="0" y1="0" x2="22.4972" y2="33.2882" gradientUnits="userSpaceOnUse">
<stop stop-color="#2569E6"/>
<stop offset="1" stop-color="#3649EF"/>
</linearGradient>
<linearGradient id="paint2_linear" x1="0.9375" y1="5.625" x2="1.07378" y2="8.64964" gradientUnits="userSpaceOnUse">
<stop stop-color="#2569E6"/>
<stop offset="1" stop-color="#3649EF"/>
</linearGradient>
<linearGradient id="paint3_linear" x1="3.75" y1="2.8125" x2="5.15607" y2="4.89302" gradientUnits="userSpaceOnUse">
<stop stop-color="#2569E6"/>
<stop offset="1" stop-color="#3649EF"/>
</linearGradient>
<linearGradient id="paint4_linear" x1="7.5" y1="2.8125" x2="8.90607" y2="4.89302" gradientUnits="userSpaceOnUse">
<stop stop-color="#2569E6"/>
<stop offset="1" stop-color="#3649EF"/>
</linearGradient>
<linearGradient id="paint5_linear" x1="11.25" y1="2.8125" x2="12.6561" y2="4.89302" gradientUnits="userSpaceOnUse">
<stop stop-color="#2569E6"/>
<stop offset="1" stop-color="#3649EF"/>
</linearGradient>
<linearGradient id="paint6_linear" x1="6.5625" y1="9.375" x2="19.2172" y2="28.0996" gradientUnits="userSpaceOnUse">
<stop stop-color="#2569E6"/>
<stop offset="1" stop-color="#3649EF"/>
</linearGradient>
<linearGradient id="paint7_linear" x1="11.25" y1="9.375" x2="23.7725" y2="17.6101" gradientUnits="userSpaceOnUse">
<stop stop-color="#2569E6"/>
<stop offset="1" stop-color="#3649EF"/>
</linearGradient>
<linearGradient id="paint8_linear" x1="7.5" y1="16.875" x2="7.75422" y2="19.8843" gradientUnits="userSpaceOnUse">
<stop stop-color="#2569E6"/>
<stop offset="1" stop-color="#3649EF"/>
</linearGradient>
</defs>
</svg>
