<svg width="36" height="35" viewBox="0 0 36 35" fill="none" xmlns="http://www.w3.org/2000/svg">
<path d="M11.5 0.5H17.5L24 1V5.5H31.5L34.5 12V16.5L32.5 18V34.5H3V17.5L1 16.5V12L5.5 5.5H11.5V0.5Z" fill="url(#paint0_linear)"/>
<path d="M35.7586 12.6631C35.7644 12.6094 35.7644 12.5553 35.7586 12.5016V12.4753C35.7457 12.4274 35.7281 12.3808 35.706 12.3364V12.3138L31.9882 5.21245C31.9245 5.09125 31.829 4.98976 31.7118 4.91894C31.5947 4.84812 31.4604 4.81067 31.3235 4.81062H24.7178V0.751073C24.7178 0.551876 24.6387 0.360838 24.4978 0.219984C24.357 0.0791306 24.1659 0 23.9667 0H11.7618C11.5626 0 11.3716 0.0791306 11.2307 0.219984C11.0899 0.360838 11.0107 0.551876 11.0107 0.751073V4.81062H5.16363C5.03599 4.81037 4.91039 4.84265 4.79868 4.90441C4.68698 4.96617 4.59286 5.05539 4.52521 5.16363L0.082618 12.2613V12.2876C0.0581891 12.3305 0.0380628 12.3758 0.0225322 12.4227V12.4716C0.0104533 12.5183 0.00290771 12.5661 0 12.6143C0 12.6143 0 12.6406 0 12.6518C0 12.6631 0 12.6518 0 12.6518V14.5558C0.00149028 15.3268 0.249342 16.0771 0.707384 16.6973C1.16543 17.3175 1.80968 17.775 2.54614 18.0032C2.54614 18.0258 2.54614 18.0445 2.54614 18.0671V34.2489C2.54614 34.4481 2.62527 34.6392 2.76612 34.78C2.90698 34.9209 3.09801 35 3.29721 35H32.4689C32.6681 35 32.8591 34.9209 33 34.78C33.1408 34.6392 33.22 34.4481 33.22 34.2489V18.0783C33.22 18.0558 33.22 18.037 33.22 18.0145C33.9567 17.7868 34.6013 17.3294 35.0594 16.7091C35.5176 16.0888 35.7652 15.3382 35.7661 14.5671L35.7586 12.6631ZM12.5129 1.50215H23.2157V5.55794V8.2618H12.5129V1.50215ZM5.58047 6.31277H11.0107V9.01288C11.0107 9.21207 11.0899 9.40311 11.2307 9.54396C11.3716 9.68482 11.5626 9.76395 11.7618 9.76395H23.9667C24.1659 9.76395 24.357 9.68482 24.4978 9.54396C24.6387 9.40311 24.7178 9.21207 24.7178 9.01288V6.31277H30.8353L33.7682 11.912H2.09174L5.58047 6.31277ZM28.5408 14.5746V15.2092C28.5408 15.6109 28.4617 16.0087 28.3079 16.3798C28.1542 16.7509 27.9289 17.0881 27.6449 17.3721C27.3609 17.6561 27.0237 17.8814 26.6526 18.0351C26.2815 18.1889 25.8837 18.268 25.482 18.268C25.0804 18.268 24.6826 18.1889 24.3115 18.0351C23.9404 17.8814 23.6032 17.6561 23.3192 17.3721C23.0351 17.0881 22.8098 16.7509 22.6561 16.3798C22.5024 16.0087 22.4233 15.6109 22.4233 15.2092V13.4142H28.5408V14.5746ZM20.9211 15.2017C20.9211 16.0129 20.5989 16.791 20.0253 17.3646C19.4516 17.9382 18.6736 18.2605 17.8624 18.2605C17.0512 18.2605 16.2732 17.9382 15.6995 17.3646C15.1259 16.791 14.8036 16.0129 14.8036 15.2017V13.4142H20.9211V15.2017ZM13.3015 15.2017C13.2737 15.9944 12.9393 16.7453 12.3687 17.2963C11.7981 17.8472 11.0359 18.1551 10.2428 18.1551C9.44959 18.1551 8.6874 17.8472 8.11681 17.2963C7.54622 16.7453 7.21179 15.9944 7.18401 15.2017V13.4142H13.3053L13.3015 15.2017ZM1.4721 14.5671V13.4142H5.68562V14.5671C5.68562 15.1258 5.46366 15.6617 5.06857 16.0568C4.67347 16.4519 4.13761 16.6738 3.57886 16.6738C3.02012 16.6738 2.48425 16.4519 2.08916 16.0568C1.69406 15.6617 1.4721 15.1258 1.4721 14.5671ZM15.0703 33.4979V24.3986H20.6583V33.4979H15.0703ZM22.1604 33.4979V23.6475C22.1604 23.4483 22.0813 23.2573 21.9404 23.1164C21.7996 22.9756 21.6085 22.8965 21.4093 22.8965H14.3192C14.12 22.8965 13.929 22.9756 13.7881 23.1164C13.6473 23.2573 13.5681 23.4483 13.5681 23.6475V33.4979H4.01073V18.1459C4.80723 18.0499 5.54877 17.6903 6.11749 17.1245C6.45923 17.8611 6.99184 18.4929 7.66008 18.9544C8.32831 19.4158 9.10783 19.6901 9.91778 19.7487C10.7277 19.8073 11.5386 19.6481 12.2663 19.2877C12.994 18.9273 13.6121 18.3788 14.0563 17.699C14.4701 18.3321 15.0351 18.852 15.7003 19.2119C16.3655 19.5718 17.1099 19.7603 17.8661 19.7603C18.6224 19.7603 19.3668 19.5718 20.032 19.2119C20.6972 18.852 21.2622 18.3321 21.676 17.699C22.1205 18.3779 22.7384 18.9255 23.4656 19.2853C24.1929 19.6451 25.0032 19.8039 25.8125 19.7453C26.6218 19.6867 27.4007 19.4128 28.0686 18.952C28.7364 18.4912 29.269 17.8603 29.6111 17.1245C30.1803 17.689 30.9218 18.0471 31.7178 18.1422V33.4979H22.1604ZM34.2564 14.5671C34.2564 15.1258 34.0345 15.6617 33.6394 16.0568C33.2443 16.4519 32.7084 16.6738 32.1497 16.6738C31.5909 16.6738 31.0551 16.4519 30.66 16.0568C30.2649 15.6617 30.0429 15.1258 30.0429 14.5671V13.4142H34.2564V14.5671Z" fill="url(#paint1_linear)"/>
<path d="M10.9676 22.8964H6.73154C6.53234 22.8964 6.34131 22.9756 6.20045 23.1164C6.0596 23.2573 5.98047 23.4483 5.98047 23.6475V27.8835C5.98047 28.0827 6.0596 28.2738 6.20045 28.4146C6.34131 28.5555 6.53234 28.6346 6.73154 28.6346H10.9676C11.1668 28.6346 11.3578 28.5555 11.4987 28.4146C11.6395 28.2738 11.7187 28.0827 11.7187 27.8835V23.6475C11.7187 23.4483 11.6395 23.2573 11.4987 23.1164C11.3578 22.9756 11.1668 22.8964 10.9676 22.8964ZM10.2165 27.1325H7.48261V24.3986H10.2165V27.1325Z" fill="url(#paint2_linear)"/>
<path d="M28.9949 22.8964H24.7589C24.5597 22.8964 24.3686 22.9756 24.2278 23.1164C24.0869 23.2573 24.0078 23.4483 24.0078 23.6475V27.8835C24.0078 28.0827 24.0869 28.2738 24.2278 28.4146C24.3686 28.5555 24.5597 28.6346 24.7589 28.6346H28.9949C29.1941 28.6346 29.3852 28.5555 29.526 28.4146C29.6669 28.2738 29.746 28.0827 29.746 27.8835V23.6475C29.746 23.4483 29.6669 23.2573 29.526 23.1164C29.3852 22.9756 29.1941 22.8964 28.9949 22.8964ZM28.2439 27.1325H25.51V24.3986H28.2439V27.1325Z" fill="url(#paint3_linear)"/>
<path d="M21.197 3.94312H14.5312V5.44526H21.197V3.94312Z" fill="url(#paint4_linear)"/>
<defs>
<linearGradient id="paint0_linear" x1="23.4018" y1="-15.3856" x2="23.4018" y2="46.3414" gradientUnits="userSpaceOnUse">
<stop stop-color="#C7DAFD"/>
<stop offset="1" stop-color="#E9F1FF"/>
</linearGradient>
<linearGradient id="paint1_linear" x1="0" y1="0" x2="26.0304" y2="39.3593" gradientUnits="userSpaceOnUse">
<stop stop-color="#2569E6"/>
<stop offset="1" stop-color="#3649EF"/>
</linearGradient>
<linearGradient id="paint2_linear" x1="5.98047" y1="22.8964" x2="10.2836" y2="29.2636" gradientUnits="userSpaceOnUse">
<stop stop-color="#2569E6"/>
<stop offset="1" stop-color="#3649EF"/>
</linearGradient>
<linearGradient id="paint3_linear" x1="24.0078" y1="22.8964" x2="28.3109" y2="29.2636" gradientUnits="userSpaceOnUse">
<stop stop-color="#2569E6"/>
<stop offset="1" stop-color="#3649EF"/>
</linearGradient>
<linearGradient id="paint4_linear" x1="14.5313" y1="3.94312" x2="14.8927" y2="6.31616" gradientUnits="userSpaceOnUse">
<stop stop-color="#2569E6"/>
<stop offset="1" stop-color="#3649EF"/>
</linearGradient>
</defs>
</svg>
