<svg width="165" height="80" viewBox="0 0 165 80" fill="none" xmlns="http://www.w3.org/2000/svg">
<g clip-path="url(#clip0)">
<path d="M92.8127 29.7865L84.8623 32.4181L77.9455 35.5125L76.0104 36.0304C75.5176 36.5055 75.0008 36.9868 74.4419 37.4741C73.829 38.0101 73.2581 38.4975 72.8193 38.8508C72.3326 39.2407 71.6115 39.9716 71.2449 40.4345C70.698 41.1289 70.2654 41.866 70.0791 42.4325C69.7485 43.456 69.9108 44.4915 70.5478 45.4479C71.3651 46.6662 72.9937 47.9088 74.8926 48.7555C75.8602 49.1881 77.4887 49.7424 78.7146 50.053C80.7517 50.5769 84.694 51.1434 86.8633 51.2288C87.3019 51.247 87.8909 51.247 87.9149 51.2288C87.963 51.1982 88.2996 50.5465 88.6902 49.7364C90.0243 46.9768 90.9858 44.3879 91.5086 42.1768C91.8211 40.8367 92.0674 39.0518 92.2296 36.9382C92.2718 36.3473 92.2897 34.3675 92.2537 33.6974C92.1996 32.6009 92.1034 31.7116 91.9533 30.8405C91.9292 30.7126 91.9231 30.5968 91.9352 30.5907C91.9592 30.5725 92.0313 30.5481 93.0109 30.2618L92.8126 29.7867V29.7866H92.8127V29.7865ZM90.9979 30.8648C91.07 30.8648 91.2622 32.7348 91.3103 33.9167C91.3224 34.1664 91.3163 34.3308 91.3043 34.3308C91.2563 34.3308 90.2887 33.7522 89.5977 33.3136C88.9968 32.9299 87.855 32.1623 87.6747 32.0161C87.6145 31.9735 87.6205 31.9674 88.1134 31.7968C88.9486 31.5105 90.9318 30.8648 90.9979 30.8648V30.8648ZM86.9475 32.2171C87.0017 32.2171 87.1398 32.2962 87.4703 32.5034C88.7082 33.2892 90.3909 34.2395 91.112 34.5563C91.3344 34.6537 91.3583 34.6171 90.8476 34.9705C89.7539 35.7258 88.3897 36.469 86.7191 37.2182C86.4246 37.3523 86.1783 37.4558 86.1723 37.4558C86.1603 37.4558 86.1963 37.3036 86.2443 37.1208C86.647 35.6039 86.8754 34.0689 86.8874 32.8384C86.8934 32.2292 86.8934 32.2292 86.9475 32.211C86.9355 32.2171 86.9414 32.2171 86.9475 32.2171V32.2171ZM86.1123 32.5399C86.1482 32.5764 86.1242 33.941 86.0761 34.3125C85.968 35.2019 85.7997 36.0303 85.5234 36.9624C85.4572 37.1877 85.397 37.3766 85.3852 37.3888C85.361 37.4192 84.5377 36.6029 84.2673 36.2862C83.7985 35.7379 83.432 35.1897 83.1616 34.6537C83.0234 34.3795 82.8071 33.8435 82.8251 33.8252C82.9212 33.7582 86.0882 32.5156 86.1123 32.5399ZM82.182 34.1054C82.188 34.1054 82.194 34.1054 82.2001 34.1115C82.2121 34.1237 82.2542 34.2212 82.2903 34.3308C82.4825 34.8608 82.9151 35.6405 83.2878 36.14C83.6964 36.6883 84.2313 37.273 84.6759 37.6568C84.8202 37.7786 84.9523 37.8943 84.9703 37.9126C85.0064 37.9492 85.0184 37.943 84.0389 38.3208C82.9032 38.7593 81.6652 39.1979 80.2469 39.6608C79.9082 39.7715 79.5697 39.8832 79.2315 39.9959C79.1773 40.0142 79.1954 39.9837 79.3516 39.734C80.0547 38.6192 81.1243 36.4324 81.7253 34.8851C81.8275 34.6171 81.9296 34.3491 81.9477 34.2882C81.9718 34.2028 82.0018 34.1724 82.0798 34.1298C82.1219 34.1177 82.164 34.1054 82.182 34.1054V34.1054ZM80.9802 34.611C80.9982 34.6233 80.6917 35.275 80.3913 35.872C79.8083 37.0232 79.1713 38.1563 78.318 39.533C78.1738 39.7705 78.0356 39.9899 78.0176 40.0142C77.9876 40.0569 77.9755 40.0447 77.8793 39.8559C77.675 39.4477 77.5067 38.9238 77.4166 38.4426C77.3264 37.9674 77.3445 37.139 77.4467 36.6273C77.5247 36.2497 77.5188 36.2558 77.699 36.1644C78.4682 35.7685 80.9562 34.5867 80.9802 34.611V34.611ZM91.3464 35.0375V35.2933C91.3464 36.6517 91.2022 38.5157 90.9918 39.8742C90.9558 40.1117 90.9256 40.3066 90.9197 40.3127C90.9197 40.3127 90.7455 40.2641 90.5411 40.2031C89.6398 39.9167 88.6602 39.4964 87.7768 39.0031C87.1938 38.6802 86.3465 38.1502 86.3706 38.1258C86.3765 38.1198 86.629 37.9858 86.9234 37.8274C88.1014 37.2061 89.231 36.536 90.2106 35.872C90.5772 35.6222 91.13 35.2203 91.2503 35.1106L91.3464 35.0375ZM76.443 36.8405C76.4671 36.8405 76.4611 36.8892 76.425 37.1085C76.401 37.2669 76.3709 37.5593 76.359 37.7602C76.3108 38.6496 76.4551 39.3076 76.8878 40.2091C77.008 40.4588 77.1042 40.666 77.0981 40.672C77.056 40.7086 73.0779 41.8904 71.8278 42.2376C71.4552 42.3411 71.1308 42.4325 71.1066 42.4385C71.0647 42.4507 71.0586 42.4447 71.0766 42.341C71.2148 41.4457 71.8879 40.2761 72.8253 39.2892C73.4504 38.6314 73.9492 38.2476 74.8025 37.7541C75.4154 37.4009 76.3589 36.871 76.431 36.8466C76.4311 36.8405 76.4371 36.8405 76.443 36.8405V36.8405ZM85.8178 38.54C85.8237 38.5339 85.968 38.6132 86.1422 38.7167C87.4283 39.4721 89.219 40.1726 90.7453 40.532L90.8837 40.5625L90.6913 40.672C89.8921 41.1228 87.266 42.2314 84.5798 43.2488C84.1891 43.3949 83.8046 43.5412 83.7324 43.5716C83.6603 43.602 83.5942 43.6203 83.5942 43.6142C83.5942 43.6081 83.7024 43.3949 83.8405 43.133C84.5917 41.7076 85.3489 39.9715 85.7335 38.7654C85.7817 38.6497 85.8117 38.5462 85.8178 38.54V38.54ZM84.8623 38.8568C84.8684 38.863 84.8202 38.9908 84.7601 39.137C84.2373 40.4223 83.5521 41.8234 82.6748 43.395C82.4525 43.7971 82.2662 44.12 82.2601 44.12C82.2542 44.12 82.0738 44.0102 81.8575 43.8762C80.5834 43.0843 79.4537 42.1097 78.7146 41.1655L78.6064 41.0315L79.1532 40.8792C81.1123 40.3371 82.7768 39.7523 84.4295 39.0335C84.6639 38.936 84.8563 38.8568 84.8623 38.8568V38.8568ZM90.7996 40.9584C90.7996 40.9584 90.8056 40.9645 90.7996 40.9584C90.8056 41.0985 90.4991 42.3534 90.2466 43.2609C90.0363 44.0223 89.856 44.6194 89.5255 45.6731C89.3813 46.1362 89.2552 46.5198 89.2491 46.5198C89.2431 46.5198 89.2071 46.5138 89.171 46.5017C87.3862 46.1726 85.7877 45.7158 84.2854 45.1067C83.8646 44.9361 83.2637 44.6619 83.2277 44.6315C83.2157 44.6192 83.5763 44.4488 84.033 44.2477C86.7673 43.0355 89.6037 41.6588 90.5772 41.068C90.6913 40.9949 90.7815 40.9584 90.7996 40.9584V40.9584ZM77.0921 41.4335C77.1041 41.4457 76.3409 42.5605 75.2712 44.0772C74.8986 44.6072 74.466 45.2285 74.3038 45.46C74.1415 45.6915 73.8951 46.057 73.7569 46.2763L73.5044 46.6722L73.234 46.4408C72.9154 46.1727 72.3626 45.6001 72.1163 45.2833C71.5994 44.6316 71.2509 43.9433 71.1127 43.3159C71.0466 43.0235 71.0466 42.8772 71.1066 42.859C71.1967 42.8347 72.8013 42.4509 74.3037 42.0975C75.139 41.9026 76.1065 41.6712 76.455 41.5859C76.8036 41.5005 77.0861 41.4335 77.0921 41.4335V41.4335ZM77.8613 41.732L78.0535 41.9513C78.919 42.932 79.8023 43.6571 80.872 44.2904C81.0644 44.4002 81.2085 44.4975 81.1965 44.5038C81.1545 44.5342 77.4826 45.8559 75.782 46.4529C74.8266 46.794 74.0393 47.0681 74.0333 47.0681C74.0274 47.0681 73.9732 47.0316 73.9131 46.9889L73.8049 46.9097L73.9792 46.6539C74.544 45.8255 75.2533 44.9179 76.7977 43.0295L77.8613 41.732ZM82.6569 45.2102C82.6628 45.2042 82.9272 45.3016 83.2517 45.4235C84.033 45.722 84.6518 45.9108 85.4812 46.124C86.5028 46.386 87.9811 46.6418 88.8525 46.7149C88.9848 46.727 89.0569 46.7393 89.0328 46.7575C88.9907 46.7819 88.1074 47.0804 87.4584 47.2875C86.4246 47.6164 83.2698 48.5606 80.6978 49.3099C80.223 49.45 79.8143 49.5657 79.7903 49.5718C79.7303 49.584 79.5319 49.5291 79.5319 49.5047C79.5319 49.4926 79.6761 49.3038 79.8504 49.0967C80.7157 48.0489 81.5751 46.8794 82.2903 45.7707C82.4885 45.466 82.6569 45.2163 82.6569 45.2102ZM81.5991 45.2408C81.6051 45.2468 81.1785 45.9412 80.4334 47.1351C80.1148 47.6407 79.7602 48.2133 79.634 48.4144C79.5138 48.6093 79.3336 48.9139 79.2314 49.0844L79.0571 49.3951L78.967 49.3707C78.7506 49.3098 77.2303 48.7676 76.8276 48.6032C76.3288 48.4021 75.812 48.1585 75.4274 47.9514C74.9467 47.6895 74.3458 47.2996 74.3938 47.2875C74.4058 47.2814 75.2291 47.0559 76.2206 46.7819C78.8528 46.0569 80.313 45.6366 81.2686 45.3321C81.4429 45.2772 81.5931 45.2346 81.5991 45.2408ZM89.0808 47.0194H89.0868C89.1109 47.0804 88.1374 49.8215 87.7827 50.6865C87.7047 50.8814 87.6747 50.9302 87.6326 50.924C87.5304 50.918 86.1183 50.717 85.2588 50.589C83.7626 50.3576 81.2506 49.9128 80.6196 49.7667L80.4754 49.7363L81.3707 49.529C83.2938 49.0904 84.2192 48.8529 85.1566 48.5605C86.3405 48.195 87.5124 47.7381 88.6962 47.1778C88.8825 47.0925 89.0388 47.0255 89.0808 47.0194Z" fill="#344154"/>
<path d="M84.6171 11.0003C84.4849 10.9821 82.3515 11.7618 80.9753 12.3282C79.1184 13.0958 77.6762 13.8269 76.7868 14.4602C76.4563 14.6979 76.0416 15.1182 75.9756 15.2826C75.9515 15.3435 75.9395 15.4166 75.9395 15.4897L76.7448 16.2633L78.6617 16.8847L83.2229 17.7131L88.439 18.6208L88.4932 18.1639C88.4752 18.1639 88.4631 18.1579 88.4452 18.1579L87.76 18.0482L87.6218 17.7984C86.9127 16.5314 86.1315 14.9598 85.6748 13.8998C85.3203 13.0775 84.9837 12.1273 84.7974 11.445C84.6952 11.0308 84.6832 11.0064 84.6172 11.0004V11.0002H84.6171V11.0003ZM84.5208 11.311H84.527C84.5329 11.317 84.557 11.4877 84.581 11.6886C84.6831 12.5415 84.8695 13.3638 85.164 14.2532C85.3863 14.9232 85.3863 14.8867 85.1279 14.8075C84.5149 14.637 81.7686 14.1557 79.7795 13.8755C79.461 13.8329 79.1906 13.7903 79.1906 13.7842C79.1665 13.7598 80.6268 12.9861 81.2698 12.6816C82.0931 12.2978 84.3526 11.3414 84.5208 11.311V11.311ZM78.7278 14.04L78.9622 14.1191C80.2361 14.5577 83.4391 15.1791 85.206 15.3253C85.4042 15.3436 85.5726 15.3619 85.5785 15.3619C85.5844 15.3679 85.4163 15.4593 85.1999 15.5628C84.3466 15.9953 83.4091 16.5253 82.7601 16.9335C82.5679 17.0552 82.3935 17.1528 82.3695 17.1528C82.3455 17.1528 82.2193 17.1284 82.0871 17.1101L81.8467 17.0735L81.2459 16.4765C80.1882 15.4349 79.3589 14.6309 79.0403 14.3262L78.7278 14.04V14.04ZM78.4875 14.2288L79.3348 15.3009C79.7975 15.8918 80.2662 16.4705 80.3685 16.5983C80.4705 16.7263 80.5547 16.8299 80.5487 16.836C80.5247 16.8543 79.3229 16.6166 78.6858 16.4705C78.0307 16.3182 77.7603 16.2451 77.3577 16.1172L77.0272 16.0075V15.9222C77.0332 15.514 77.544 14.9049 78.4093 14.2837L78.4875 14.2288ZM85.6867 15.6908C85.7108 15.6908 85.7408 15.7456 85.8129 15.91C86.0172 16.3669 86.6543 17.5974 86.8104 17.8349C86.8586 17.9142 86.9426 17.9203 86.0954 17.7802C84.0582 17.445 83.4031 17.3355 83.4031 17.3233C83.4031 17.3173 83.4633 17.2746 83.5414 17.2319C84.1724 16.8787 84.8093 16.4279 85.3743 15.9466C85.5125 15.8309 85.6387 15.7212 85.6627 15.7029C85.6687 15.6908 85.6807 15.6847 85.6867 15.6908Z" fill="#344154"/>
<path d="M76.0166 15.1973C76.0166 15.1973 75.8845 15.4106 76.0106 15.7274C76.0888 15.9223 76.3171 16.1598 76.5755 16.4035C76.5755 16.4035 79.2497 19.0472 79.5742 19.4249C81.0525 21.1548 81.6955 22.8605 81.7556 25.2118C81.7917 26.7225 81.5091 28.0505 80.8061 29.5916C79.5561 32.3572 76.918 35.4091 72.8496 38.796L73.4446 38.5949C73.8292 38.3025 74.3521 37.9919 75.5779 37.3096C78.4083 35.7379 81.5933 34.2943 85.4995 32.808C91.1242 30.6637 100.373 28.1539 105.637 27.3378L106.184 27.2524L106.1 27.1184C105.619 26.363 105.288 25.894 104.892 25.3945C103.738 23.9447 102.338 22.7691 100.625 21.7945C98.2694 20.4605 95.2225 19.4188 91.3646 18.6452C90.6375 18.4989 89.039 18.2188 87.7409 18.0178C84.9886 17.5854 83.2098 17.2868 81.2508 16.9457C80.5477 16.8238 79.496 16.6411 78.7989 16.4889C78.4384 16.4096 77.7473 16.2451 77.2065 16.0563C76.7738 15.8857 76.1488 15.7151 76.0166 15.1973V15.1973ZM77.5671 16.7203C77.573 16.7143 77.6692 16.7507 77.7954 16.7934C78.0238 16.8725 78.3182 16.9639 78.6669 17.0614C78.9306 17.1349 79.195 17.206 79.4601 17.2746C79.8206 17.3659 80.1211 17.4512 80.1271 17.4512C80.1692 17.4939 80.7762 19.4613 80.9805 20.2167C81.0585 20.503 81.1187 20.7466 81.1127 20.7466C81.1065 20.7528 81.0405 20.6492 80.9624 20.5091C80.2593 19.2542 79.1476 17.9811 77.8615 16.9577C77.6933 16.836 77.5671 16.7263 77.5671 16.7203ZM80.5237 17.5487C80.5538 17.5487 80.686 17.567 80.8482 17.6035C81.8698 17.835 83.7027 18.1883 84.8745 18.3893C85.0728 18.4198 85.2291 18.4564 85.2291 18.4685C85.2291 18.4807 85.1569 18.5233 85.0667 18.5721C84.8685 18.6756 84.0692 19.1568 83.8049 19.3396C83.1378 19.7903 82.5369 20.2776 82.1042 20.7162C81.9299 20.8929 81.7796 21.0391 81.7796 21.0391C81.7796 21.0391 81.7437 20.9356 81.7135 20.8076C81.4973 19.9608 81.0465 18.706 80.6379 17.8228C80.5717 17.6827 80.5176 17.5547 80.5176 17.5426C80.5176 17.5548 80.5176 17.5487 80.5237 17.5487V17.5487ZM85.7278 18.5538C85.7639 18.5659 85.824 18.7731 85.9441 19.2299C86.1665 20.1132 86.2687 21.1 86.2327 22.0199C86.2206 22.2757 86.2086 22.5132 86.1965 22.5438L86.1785 22.6046L85.8661 22.5011C85.223 22.294 84.1774 21.9833 83.2821 21.7275C82.7712 21.5874 82.3567 21.4594 82.3567 21.4473C82.3567 21.4107 83.1018 20.6553 83.4203 20.3691C84.0271 19.8269 85.6737 18.5355 85.7278 18.5538V18.5538ZM86.1425 18.6146C86.1605 18.5965 88.6304 19.0289 89.7542 19.2482C90.5895 19.4126 91.8034 19.6685 91.8755 19.699C91.9115 19.7112 91.7853 19.7842 91.3826 19.967C89.7962 20.6919 88.6183 21.3436 87.4466 22.1356C87.1401 22.3427 86.8817 22.5132 86.8757 22.5132C86.8697 22.5132 86.8637 22.3366 86.8637 22.1234C86.8637 20.9661 86.6353 19.7965 86.2146 18.8096C86.1725 18.7122 86.1365 18.6208 86.1425 18.6146V18.6146ZM92.5305 19.8939C92.5485 19.9122 92.4704 20.4057 92.3982 20.698C92.1819 21.6056 91.599 22.952 90.884 24.2189C90.7577 24.4443 90.6435 24.6271 90.6314 24.6331C90.6195 24.6392 90.4573 24.5478 90.2709 24.4382C89.5739 24.0239 88.7807 23.6341 87.9153 23.2686C87.675 23.165 87.4646 23.0797 87.4586 23.0676C87.4164 23.031 89.3515 21.7335 90.3731 21.1122C91.1844 20.6127 92.5064 19.8695 92.5305 19.8939V19.8939ZM92.9871 19.967C93.0413 19.967 94.135 20.2716 94.7058 20.4422C96.1181 20.8686 97.7406 21.4716 98.7982 21.9589L99.2369 22.16L98.9305 22.2331C96.3465 22.8361 94.135 23.5306 92.0016 24.4078C91.8273 24.4808 91.6711 24.5418 91.6592 24.5418C91.6471 24.5418 91.7072 24.4017 91.7853 24.2311C92.4283 22.8483 92.843 21.4046 92.9451 20.1741C92.9512 20.0583 92.9691 19.967 92.9871 19.967V19.967ZM82.0982 22.5011C82.1162 22.4828 82.9515 22.6839 83.4022 22.8117C84.0873 23.0067 85.5415 23.5 85.5415 23.5366C85.5415 23.5427 85.3793 23.6828 85.1871 23.8534C84.3998 24.5174 83.6426 25.2178 82.7351 26.1072C82.4647 26.3692 82.2364 26.5824 82.2244 26.5824C82.2123 26.5824 82.2064 26.5458 82.2123 26.4971C82.3505 25.4737 82.3206 24.158 82.1282 22.8239C82.1102 22.6533 82.0922 22.5072 82.0982 22.5011V22.5011ZM99.6517 22.5194C99.6636 22.5315 99.267 23.165 99.0146 23.5244C98.6541 24.0483 98.1251 24.7428 96.9293 26.2657C96.2984 27.0697 95.5892 27.9774 95.3549 28.2819C95.1144 28.5865 94.9162 28.8423 94.9101 28.8423C94.9041 28.8423 94.8261 28.7327 94.7419 28.5987C94.0688 27.5753 93.2635 26.6798 92.308 25.8758C92.1278 25.7234 91.9296 25.559 91.8634 25.5102C91.7973 25.4615 91.7432 25.4128 91.7432 25.4067C91.7432 25.3885 92.7647 24.9437 93.5401 24.627C94.8982 24.0666 96.7489 23.3965 98.1372 22.964C98.8644 22.7326 99.6396 22.5072 99.6517 22.5194V22.5194ZM100.114 22.6412C100.138 22.6351 100.283 22.7082 100.457 22.8117C101.917 23.6584 103.347 24.7488 104.477 25.8697C104.796 26.1865 105.583 27.0149 105.571 27.021C105.571 27.021 105.294 27.0453 104.97 27.0697C102.44 27.2647 99.201 27.8067 96.0881 28.5681C95.8778 28.6168 95.6915 28.6595 95.6794 28.6595C95.6675 28.6595 95.9018 28.422 96.1963 28.1357C98.0231 26.3509 98.8585 25.224 99.844 23.2137C99.9821 22.9153 100.102 22.6595 100.114 22.6412C100.108 22.6412 100.108 22.6412 100.114 22.6412V22.6412ZM86.7314 24.0301C86.8156 24.0483 87.5968 24.42 88.1857 24.7184C88.7265 24.9924 89.5379 25.4311 89.5799 25.4676C89.5859 25.4737 89.2974 25.626 88.943 25.8027C87.8131 26.3753 86.8456 26.9173 85.836 27.5387C85.5476 27.7154 85.3072 27.8617 85.3012 27.8617C85.2772 27.8617 85.2831 27.8372 85.4454 27.5387C85.9863 26.5398 86.4189 25.3458 86.6654 24.1823C86.6893 24.091 86.7134 24.0301 86.7314 24.0301V24.0301ZM85.9501 24.1762C85.9682 24.1946 85.7639 24.9437 85.6377 25.3519C85.3913 26.1255 84.9766 27.0941 84.5741 27.825C84.4778 27.9955 84.3336 28.2453 84.2555 28.3854L84.1053 28.629L83.7688 28.3002C83.3782 27.9164 83.0596 27.6788 82.6511 27.4656C82.4887 27.3804 82.3626 27.3072 82.3626 27.2951C82.3626 27.2464 83.3902 26.3022 84.1774 25.6199C84.7423 25.1265 85.9321 24.158 85.9501 24.1762V24.1762ZM90.7277 26.1682L91.0222 26.3631C91.6951 26.8078 92.4883 27.3986 93.0954 27.9164C93.4379 28.2026 94.0989 28.8058 94.2312 28.952L94.3032 29.0312L93.8165 29.1713C91.0642 29.9449 88.9369 30.6332 86.455 31.5592C86.1785 31.6627 85.9441 31.748 85.9261 31.748C85.8901 31.748 85.86 31.7784 86.479 31.1997C88.0656 29.7196 89.4717 28.0869 90.5173 26.4971L90.7277 26.1682V26.1682ZM89.4717 26.4849C89.4837 26.4971 88.6604 27.6727 88.1676 28.3367C87.5787 29.1286 86.533 30.4565 85.8119 31.3215C85.5115 31.6809 85.2532 31.9794 85.2411 31.9855C85.223 31.9916 85.217 31.9002 85.217 31.7601C85.217 31.023 85.0308 30.2372 84.7062 29.5672C84.568 29.287 84.544 29.22 84.5741 29.1895C84.6883 29.0859 86.437 28.0747 87.5427 27.4717C88.2878 27.0697 89.4536 26.4728 89.4717 26.4849V26.4849ZM81.8758 28.3733C81.8938 28.3733 82.0321 28.4464 82.1883 28.5317C82.5729 28.7449 82.9155 28.9824 83.2219 29.2383C83.2339 29.2505 83.0777 29.3784 82.8734 29.5306C82.3025 29.9449 81.4371 30.6089 80.9324 31.017C80.4035 31.4434 80.3856 31.4556 80.4456 31.3643C80.8423 30.749 81.0405 30.4018 81.2509 29.9571C81.4371 29.5612 81.6234 29.0921 81.7556 28.684C81.8037 28.5073 81.8638 28.3733 81.8758 28.3733ZM83.901 29.9814C83.931 29.9754 83.9671 30.0302 84.1293 30.2739C84.4719 30.7915 84.7363 31.4861 84.8025 32.0465L84.8144 32.1684L83.9912 32.4912C82.5188 33.0699 81.1608 33.6425 80.2412 34.0688C79.9829 34.1907 79.5321 34.41 79.2377 34.5563C78.9432 34.7085 78.7029 34.8242 78.7029 34.8181C78.7029 34.8121 78.8891 34.672 79.1175 34.5013C80.9144 33.1796 82.4708 31.7297 83.6366 30.28C83.7628 30.1276 83.877 29.9875 83.8889 29.9815L83.901 29.9814V29.9814ZM82.9696 30.2129C82.9936 30.2373 82.3086 31.0231 81.8398 31.5043C80.68 32.7044 79.5322 33.6425 78.1079 34.5563C77.9277 34.672 77.7654 34.7755 77.7474 34.7877C77.7053 34.8121 77.7593 34.7511 78.3843 34.0628C78.781 33.6303 79.0814 33.2648 79.424 32.8141C79.6523 32.5156 79.6944 32.473 80.025 32.2353C80.9084 31.5896 82.9455 30.1885 82.9696 30.2129Z" fill="#344154"/>
<path d="M56.9464 55.436C56.8356 55.436 56.7247 55.4468 56.6148 55.4468C54.3757 55.5677 52.8655 56.5666 51.9826 58.5172C51.2274 60.2814 51.3098 62.5874 51.991 64.3624C52.7832 66.0967 54.0632 67.012 56.1997 67.3578C56.6518 67.4328 56.9549 67.6844 57.8304 68.7206L58.9077 70H60.8616L59.5624 68.6724C58.8442 67.9445 58.2633 67.3106 58.2633 67.2549C58.2633 67.1993 58.5381 67.0773 58.8706 66.9745C59.9669 66.6382 60.8773 65.7797 61.5141 64.464C62.0295 63.4074 62.1035 63.0808 62.1774 61.7662C62.3707 57.8533 60.3355 55.407 56.9463 55.4349L56.9464 55.436V55.436ZM58.6594 65.6685C57.7089 66.1352 56.3287 66.2284 55.4277 65.8933C54.4962 65.5465 53.5943 64.5659 53.1886 63.4557C52.7377 62.2417 52.8021 60.0021 53.3175 58.9935C54.1466 57.3877 55.2429 56.649 56.845 56.649C59.2213 56.649 60.5731 58.1243 60.7495 60.897C60.889 63.2116 60.1243 64.9481 58.6605 65.6676L58.6594 65.6685V65.6685ZM92.4114 58.7784C91.5919 58.7784 90.9645 59.1146 90.542 59.7771L90.2104 60.3018V58.9378H88.792V67.117H90.2094V64.5027C90.2094 62.1121 90.2389 61.8327 90.5684 61.1785C91.0226 60.2814 91.8041 59.834 92.5593 60.0481L93.0662 60.198V58.7805H92.4114V58.7784V58.7784ZM84.0785 58.7034C83.8007 58.7034 83.506 58.7409 83.2126 58.8063C81.3146 59.3093 80.2447 61.1507 80.3102 63.0456C80.3102 64.6323 80.6143 65.4255 81.3696 66.2574C82.9168 67.5441 84.3162 67.6469 86.2045 66.9565C86.5267 66.8173 86.8773 66.6567 86.8773 66.6567V65.3699L86.2045 65.7232C84.6763 66.3976 83.5251 66.3976 82.603 65.6032C82.0149 64.9962 81.756 64.2682 81.6368 63.4376H87.3557V62.3347C87.3557 60.0866 86.0207 58.667 84.0774 58.7034H84.0785ZM81.7656 62.2898C81.7656 62.2898 81.9768 60.8874 82.7605 60.3371C83.1376 60.0673 83.5705 59.9367 83.994 59.9367C84.4186 59.9367 84.8421 60.0758 85.1917 60.3468C85.9099 60.9067 86.0303 62.2792 86.0303 62.2792H81.7656V62.2898H81.7656ZM47.5711 60.8146C46.0334 59.8703 45.3511 59.1894 45.4345 58.3865C45.6732 56.1651 48.3812 56.4723 49.8808 57.3128L49.8915 55.8183C49.8915 55.8183 49.0624 55.4543 47.8742 55.435C46.0513 55.4072 44.8727 56.0131 44.3204 57.2464C43.5092 59.0663 44.2274 60.4387 46.8235 61.9697C48.2809 62.8293 48.9251 63.5756 48.9251 64.3892C48.9251 66.07 46.9258 66.6567 44.8633 65.6021C44.4388 65.388 44.0796 65.2092 44.0606 65.2092C43.9867 65.6857 44.0248 66.8258 44.0248 66.8258C44.0248 66.8258 44.6585 67.0956 45.6089 67.2817C47.9661 67.7581 50.1112 66.6373 50.314 64.8173C50.4904 63.1088 49.8809 62.2126 47.5712 60.8134L47.5711 60.8146V60.8146ZM104.965 58.6842C104.688 58.6842 104.394 58.7227 104.088 58.788C102.192 59.2911 101.124 61.1326 101.197 63.0275C101.197 64.612 101.5 65.3977 102.256 66.2284C103.803 67.5164 105.202 67.6202 107.1 66.9287C107.421 66.7895 107.771 66.6312 107.771 66.6312V65.3422L107.099 65.6975C105.568 66.3699 104.416 66.3699 103.498 65.5755C102.906 64.9696 102.65 64.2501 102.53 63.4097H108.24V62.307C108.24 60.0696 106.905 58.6489 104.961 58.6864L104.965 58.6842V58.6842ZM102.652 62.2705C102.652 62.2705 102.865 60.8702 103.648 60.3092C104.024 60.0384 104.457 59.9077 104.88 59.9077C105.303 59.9077 105.728 60.0469 106.078 60.3188C106.796 60.8788 106.916 62.2609 106.916 62.2609H102.653L102.652 62.2705V62.2705ZM76.6539 60.8328C75.1162 59.8907 74.4359 59.2076 74.5184 58.4046C74.757 56.1821 77.465 56.4905 78.9647 57.3309L78.9753 55.8365C78.9753 55.8365 78.1462 55.4724 76.958 55.4553C75.1351 55.4275 73.9565 56.0334 73.4032 57.2667C72.5931 59.0866 73.3208 60.4591 75.9083 61.99C77.3637 62.8487 78.0079 63.5852 78.0079 64.3988C78.0079 66.0796 76.0097 66.6759 73.947 65.6117C73.5246 65.3976 73.1655 65.2209 73.1444 65.2209C73.0704 65.6973 73.1086 66.8375 73.1086 66.8375C73.1086 66.8375 73.7348 67.0977 74.6821 67.2935C77.0415 67.771 79.1876 66.6512 79.3894 64.8312C79.5647 63.1311 78.9564 62.2351 76.6539 60.8348V60.8328H76.6539ZM113.299 58.7591C112.479 58.7591 111.844 59.0962 111.429 59.759L111.098 60.2814V58.9197H109.679V67.0967H111.097V64.4824C111.097 62.0929 111.125 61.8124 111.456 61.1593C111.91 60.2633 112.691 59.8148 113.446 60.0299L113.953 60.1797V58.7592H113.299V58.7591ZM65.3744 60.7857V55.5762H63.9444V67.1149H69.9581V65.7521H65.3744V60.7857H65.3744ZM98.4441 62.4097L97.2654 65.5186L96.1321 62.3925L94.9809 58.9282H93.5172C94.4656 61.6539 95.4973 64.4266 96.5377 67.1149C96.9887 67.1255 97.4407 67.1149 97.8916 67.1149L99.4833 63.0638L101.104 58.9293H99.7051C99.7051 58.9293 99.0872 60.5715 98.443 62.4107L98.4441 62.4097V62.4097ZM68.6695 52.432C68.8997 52.432 69.0919 52.3571 69.2504 52.1965C69.4066 52.038 69.489 51.8517 69.489 51.6184C69.489 51.385 69.4066 51.1901 69.2504 51.0402C69.0919 50.8904 68.9092 50.8154 68.68 50.8154C68.4477 50.8154 68.2555 50.8904 68.0991 51.0488C67.9407 51.2073 67.8689 51.4021 67.8689 51.627C67.8689 51.8625 67.9429 52.0573 68.0991 52.2051C68.247 52.3549 68.4393 52.4299 68.6695 52.4299V52.432V52.432ZM68.1626 51.1045C68.2998 50.9654 68.4667 50.9011 68.6801 50.9011C68.8808 50.9011 69.0477 50.9654 69.1871 51.1045C69.3244 51.2437 69.3983 51.4128 69.3983 51.6184C69.3983 51.8239 69.3244 52.0017 69.1871 52.1408C69.0477 52.2799 68.8808 52.3463 68.6801 52.3463C68.4762 52.3463 68.3104 52.2821 68.1732 52.1408C68.0359 52.0017 67.9619 51.8239 67.9619 51.6184C67.9619 51.4128 68.0253 51.2437 68.1626 51.1045ZM68.5037 51.6934H68.5966C68.6621 51.6934 68.7265 51.7575 68.7814 51.8796L68.8924 52.1322H69.0666L68.9294 51.8516C68.8734 51.7393 68.8185 51.674 68.754 51.6557C68.8354 51.6364 68.8997 51.6087 68.9463 51.5529C68.9926 51.5048 69.0096 51.4395 69.0096 51.3656C69.0096 51.28 68.9832 51.2158 68.9273 51.1686C68.8639 51.1151 68.7625 51.0862 68.6314 51.0862H68.338V52.1322H68.4858V51.6933L68.5037 51.6934V51.6934ZM68.5037 51.2073H68.6326C68.7255 51.2073 68.791 51.2265 68.8269 51.2543C68.8618 51.2822 68.8713 51.3187 68.8713 51.385C68.8713 51.5059 68.7972 51.5627 68.66 51.5627H68.5017V51.2073H68.5037V51.2073ZM44.8821 51.6002C44.8821 51.2362 44.8716 50.9654 44.8631 50.8058H44.8716C44.9085 50.9941 44.9539 51.1345 44.9909 51.2276L46.3638 54.3365H46.5941L47.967 51.1998C48.0041 51.1142 48.041 50.9857 48.0864 50.8069H48.0969C48.0695 51.1174 48.06 51.3871 48.06 51.6023V54.3462H48.5299V50.2673H47.9406L46.6786 53.1043C46.6321 53.2167 46.5676 53.3849 46.4853 53.6075H46.4662C46.4388 53.4972 46.3743 53.3291 46.2825 53.1236L45.0489 50.2576H44.4226V54.3364H44.8746V51.6022L44.8821 51.6002V51.6002ZM49.5597 51.6078H49.9654V54.1481H49.5597V51.6078V51.6078ZM49.7625 50.6763C49.8471 50.6763 49.9189 50.6473 49.9737 50.5907C50.0298 50.5349 50.0668 50.4622 50.0668 50.3766C50.0668 50.293 50.0392 50.2181 49.9749 50.1625C49.9178 50.1057 49.8449 50.0767 49.7615 50.0767C49.6792 50.0767 49.6053 50.1057 49.5502 50.1625C49.4944 50.2181 49.4574 50.293 49.4574 50.3766C49.4574 50.4697 49.4859 50.5349 49.5502 50.5907C49.6137 50.6473 49.6791 50.6763 49.7615 50.6763H49.7625ZM52.8571 54.2039V53.7563C52.6352 53.9244 52.3965 54.008 52.1494 54.008C51.8538 54.008 51.6139 53.9052 51.4386 53.7083C51.2644 53.5135 51.1715 53.2425 51.1715 52.9053C51.1715 52.552 51.2644 52.2714 51.4566 52.0573C51.6414 51.8518 51.8812 51.749 52.1748 51.749C52.4146 51.749 52.6447 51.824 52.8571 51.974V51.4976C52.6639 51.3948 52.4432 51.3476 52.1938 51.3476C51.7333 51.3476 51.3743 51.4976 51.1061 51.7867C50.8399 52.0757 50.7026 52.4686 50.7026 52.9429C50.7026 53.3647 50.8219 53.7191 51.0702 53.99C51.3289 54.2682 51.6596 54.4096 52.0651 54.4096C52.3786 54.4008 52.6352 54.3344 52.8571 54.2039V54.2039ZM54.0177 52.8496C54.0177 52.5145 54.0916 52.2437 54.2289 52.0573C54.3578 51.8893 54.5141 51.8047 54.6989 51.8047C54.8552 51.8047 54.9661 51.8336 55.0474 51.8989V51.4128C54.9841 51.385 54.8922 51.3754 54.7728 51.3754C54.607 51.3754 54.4592 51.432 54.3293 51.536C54.192 51.6461 54.0822 51.8143 54.0177 52.0284H54.0072V51.4321H53.5478V54.344H54.0083V52.8496H54.0177V52.8496ZM56.6612 54.4018C57.0943 54.4018 57.4428 54.2605 57.7015 53.9801C57.9591 53.7016 58.088 53.327 58.088 52.8601C58.088 52.3839 57.9698 52.0198 57.729 51.7489C57.4903 51.4782 57.1586 51.3474 56.7256 51.3474C56.2925 51.3474 55.944 51.4781 55.6853 51.7307C55.4086 52.0092 55.2628 52.402 55.2628 52.9063C55.2628 53.3452 55.3811 53.7093 55.6304 53.9801C55.8881 54.2605 56.2292 54.4008 56.6612 54.4008V54.4018V54.4018ZM56.0064 52.0295C56.1817 51.8421 56.4121 51.7489 56.6971 51.7489C56.9929 51.7489 57.2147 51.8421 57.3794 52.0295C57.5452 52.2254 57.6277 52.5049 57.6277 52.8784C57.6277 53.2338 57.5537 53.5133 57.3974 53.7006C57.2411 53.8966 57.0109 54.0003 56.7066 54.0003C56.4109 54.0003 56.1817 53.8965 56.0064 53.7006C55.8322 53.5036 55.7487 53.2338 55.7487 52.8784C55.7308 52.5252 55.8227 52.2362 56.0064 52.0295ZM60.1043 54.1481C60.2796 53.9898 60.3726 53.7949 60.3726 53.5507C60.3726 53.3366 60.2986 53.1589 60.1613 53.0186C60.0493 52.9063 59.8762 52.8045 59.6259 52.7018C59.404 52.6077 59.2668 52.524 59.1928 52.4587C59.1189 52.3838 59.0735 52.2908 59.0735 52.159C59.0735 52.0381 59.12 51.9449 59.2108 51.87C59.3038 51.7951 59.4221 51.7587 59.5805 51.7587C59.8287 51.7587 60.0409 51.825 60.2352 51.9653V51.4985C60.0493 51.4044 59.8476 51.3594 59.6174 51.3594C59.3217 51.3594 59.0724 51.4419 58.8886 51.6013C58.6953 51.7599 58.6035 51.9654 58.6035 52.2072C58.6035 52.4213 58.6668 52.5991 58.7871 52.7296C58.8885 52.841 59.0619 52.9546 59.3025 53.0562C59.5329 53.159 59.6891 53.2521 59.7725 53.327C59.8549 53.402 59.8918 53.495 59.8918 53.6054C59.8918 53.8773 59.7081 54.0176 59.349 54.0176C59.0723 54.0176 58.8242 53.9255 58.6023 53.7393V54.2423C58.803 54.3645 59.0438 54.4201 59.3099 54.4201C59.6511 54.4019 59.9182 54.3173 60.102 54.1492L60.1043 54.1481V54.1481ZM62.2968 51.3475C61.8637 51.3475 61.5152 51.4782 61.2565 51.7308C60.9819 52.0093 60.834 52.4021 60.834 52.9064C60.834 53.3453 60.9535 53.7094 61.2016 53.9802C61.4604 54.2606 61.8004 54.4009 62.2335 54.4009C62.677 54.4009 63.015 54.2596 63.2737 53.979C63.5325 53.7007 63.6613 53.326 63.6613 52.8592C63.6613 52.3828 63.5409 52.0188 63.3022 51.748C63.0531 51.4771 62.7213 51.3465 62.2989 51.3465L62.2968 51.3475V51.3475ZM63.1903 52.8785C63.1903 53.2338 63.1163 53.5133 62.9601 53.7007C62.8037 53.8966 62.5735 54.0004 62.2693 54.0004C61.9734 54.0004 61.7443 53.8965 61.569 53.7007C61.3948 53.5037 61.3113 53.2338 61.3113 52.8785C61.3113 52.5038 61.4033 52.2148 61.5881 52.0198C61.7623 51.8336 61.9926 51.7393 62.2788 51.7393C62.5639 51.7393 62.7931 51.8335 62.9589 52.0198C63.1068 52.2254 63.1892 52.5048 63.1892 52.8785H63.1903V52.8785ZM64.4345 54.3355H64.8939V51.8144H65.5666V51.4225H64.8938V50.9728C64.8938 50.564 65.0501 50.3584 65.3733 50.3584C65.4821 50.3584 65.593 50.3862 65.6754 50.4334V50.0127C65.593 49.9752 65.4821 49.9667 65.3436 49.9667C65.0955 49.9667 64.8928 50.0417 64.7269 50.2C64.5336 50.3863 64.4312 50.6283 64.4312 50.956V51.4334H63.9453V51.8252H64.4312V54.3369L64.4345 54.3355V54.3355ZM66.3217 53.5411C66.3217 54.1107 66.57 54.4008 67.0769 54.4008C67.2607 54.4008 67.399 54.3709 67.5099 54.3045V53.9041C67.4254 53.9684 67.3251 53.9984 67.2142 53.9984C67.058 53.9984 66.9481 53.9608 66.8836 53.8762C66.8181 53.7928 66.7812 53.6514 66.7812 53.4565V51.8133H67.5098V51.4214H66.7812V50.5629C66.6228 50.6185 66.4676 50.6657 66.3207 50.7127V51.4214H65.8243V51.8132H66.3207V53.5401L66.3217 53.5411V53.5411ZM115.749 58.9089C115.593 58.7591 115.408 58.6841 115.179 58.6841C114.946 58.6841 114.754 58.7591 114.598 58.9196C114.441 59.077 114.367 59.2729 114.367 59.4978C114.367 59.7312 114.441 59.9261 114.596 60.0758C114.753 60.2257 114.945 60.3008 115.177 60.3008C115.407 60.3008 115.6 60.2257 115.758 60.0673C115.914 59.9067 115.996 59.7215 115.996 59.4893C115.987 59.2537 115.904 59.0588 115.748 58.909L115.749 58.9089V58.9089ZM115.675 60.0117C115.538 60.1508 115.371 60.215 115.168 60.215C114.967 60.215 114.8 60.1508 114.661 60.0117C114.524 59.8703 114.45 59.6937 114.45 59.487C114.45 59.2836 114.513 59.1146 114.653 58.9732C114.79 58.8341 114.956 58.7698 115.168 58.7698C115.369 58.7698 115.536 58.8341 115.675 58.9732C115.812 59.1146 115.886 59.2836 115.886 59.487C115.886 59.7034 115.823 59.8703 115.675 60.0117V60.0117ZM115.261 59.5352C115.343 59.516 115.409 59.4785 115.454 59.4325C115.501 59.3843 115.518 59.3189 115.518 59.2441C115.518 59.1606 115.491 59.0942 115.435 59.0482C115.372 58.9946 115.269 58.9657 115.14 58.9657H114.846V60.0105H114.994V59.5716H115.086C115.149 59.5716 115.213 59.6358 115.269 59.7579L115.379 60.0094H115.555L115.417 59.7289C115.37 59.6068 115.315 59.5511 115.259 59.5329L115.261 59.5352V59.5352ZM115.159 59.4411H115.001V59.0878H115.131C115.223 59.0878 115.287 59.1049 115.324 59.1339C115.361 59.1616 115.37 59.1981 115.37 59.2645C115.37 59.3854 115.296 59.4412 115.159 59.4412L115.159 59.4411ZM89.4648 51.3015H89.5937V50.2556H89.9347V50.1249H89.1237V50.2556H89.4649V51.3015H89.4648V51.3015ZM90.2464 50.5157C90.2464 50.4139 90.2464 50.3305 90.239 50.2835C90.2474 50.3391 90.2664 50.3766 90.2749 50.4044L90.671 51.3015H90.7344L91.1314 50.3958C91.142 50.368 91.1505 50.3316 91.1684 50.2835C91.1599 50.3766 91.1599 50.4514 91.1599 50.5082V51.3005H91.2973V50.1249H91.1314L90.7724 50.9365C90.7639 50.9654 90.7353 51.0221 90.7174 51.0864H90.7068C90.6994 51.0488 90.6805 51.0114 90.6541 50.9473L90.295 50.125H90.1091V51.3027H90.239V50.5169L90.2464 50.5157V50.5157Z" fill="#344154"/>
</g>
<defs>
<clipPath id="clip0">
<rect x="44" y="11" width="72" height="59" fill="white"/>
</clipPath>
</defs>
</svg>
