<svg width="47" height="43" viewBox="0 0 47 43" fill="none" xmlns="http://www.w3.org/2000/svg">
<path d="M19.2273 13.9407H16.5569H14.9546L11.7501 14.4748L8.01142 16.0771L3.73869 19.2816L1.60233 23.0202L1.06824 27.8271L1.60233 31.0316L4.27278 34.2362V37.4407V40.1112L4.80687 41.1793L6.94324 40.6452L8.54551 39.043H10.6819H15.4887C15.916 39.043 18.1591 39.399 19.2273 39.5771L25.6364 36.3725L28.3069 33.7021L29.3751 31.0316L30.4432 28.3612V25.1566L29.9091 23.0202L28.841 20.8839L27.2387 18.2134L24.5682 16.6112C23.8561 16.0771 22.3251 15.0089 21.8978 15.0089C21.4705 15.0089 19.9395 14.2968 19.2273 13.9407Z" fill="#D4E2FD"/>
<path d="M23.5 9.48438C22.9933 9.48438 22.582 9.89567 22.582 10.4023C22.582 10.909 22.9933 11.3203 23.5 11.3203C24.0067 11.3203 24.418 10.909 24.418 10.4023C24.418 9.89567 24.0067 9.48438 23.5 9.48438Z" fill="#2F56EB"/>
<path d="M8.26172 26.0078C8.76839 26.0078 9.17969 25.5965 9.17969 25.0898C9.17969 24.5832 8.76839 24.1719 8.26172 24.1719C7.75504 24.1719 7.34375 24.5832 7.34375 25.0898C7.34375 25.5965 7.75504 26.0078 8.26172 26.0078Z" fill="#2F56EB"/>
<path d="M30.8438 0.304688C22.5795 0.304688 15.7966 6.00255 15.272 13.1796C7.40148 13.5744 0 19.2496 0 26.9258C0 30.1337 1.26938 33.2418 3.58008 35.7046C4.03727 37.5893 3.48219 39.5869 2.10487 40.9642C1.84239 41.2267 1.76386 41.6215 1.90586 41.9647C2.04786 42.3075 2.38242 42.5312 2.75391 42.5312C5.37191 42.5312 7.89489 41.5046 9.76955 39.6956C11.5958 40.3181 13.9786 40.6953 16.1562 40.6953C24.4194 40.6953 31.2016 34.9989 31.7277 27.8233C33.6497 27.738 35.6487 27.383 37.2304 26.844C39.1051 28.6531 41.6281 29.6797 44.2461 29.6797C44.6176 29.6797 44.9521 29.4559 45.0941 29.1131C45.2361 28.77 45.1576 28.3752 44.8951 28.1127C43.5178 26.7354 42.9627 24.7377 43.4199 22.853C45.7306 20.3903 47 17.2821 47 14.0742C47 6.09829 39.0284 0.304688 30.8438 0.304688ZM16.1562 38.8594C13.9897 38.8594 11.5209 38.4341 9.86709 37.7761C9.51281 37.6348 9.10797 37.7277 8.85015 38.0092C7.74178 39.2208 6.30064 40.0656 4.73041 40.454C5.59566 38.7963 5.81655 36.842 5.29015 34.9903C5.24856 34.8443 5.17146 34.7109 5.06568 34.6023C2.98304 32.4573 1.83594 29.731 1.83594 26.9258C1.83594 20.457 8.39368 14.9922 16.1562 14.9922C23.4864 14.9922 29.9258 20.0894 29.9258 26.9258C29.9258 33.5061 23.7489 38.8594 16.1562 38.8594ZM41.9343 21.7507C41.8285 21.8597 41.7514 21.9931 41.7098 22.1387C41.1834 23.9904 41.4043 25.9447 42.2696 27.6024C40.6994 27.2144 39.2582 26.3693 38.1498 25.1576C37.892 24.8765 37.4872 24.7833 37.1329 24.9245C35.6997 25.4947 33.655 25.8895 31.7248 25.9849C31.4566 22.5134 29.725 19.2507 26.7645 16.8281H38.7383C39.2453 16.8281 39.6562 16.4172 39.6562 15.9102C39.6562 15.4031 39.2453 14.9922 38.7383 14.9922H23.9443C21.8606 13.9315 19.5208 13.313 17.1126 13.1831C17.6401 7.01769 23.5972 2.14062 30.8438 2.14062C38.6063 2.14062 45.1641 7.60541 45.1641 14.0742C45.1641 16.8794 44.017 19.6057 41.9343 21.7507Z" fill="#2F56EB"/>
<path d="M23.5 24.1719H11.9336C11.4266 24.1719 11.0156 24.5828 11.0156 25.0898C11.0156 25.5969 11.4266 26.0078 11.9336 26.0078H23.5C24.007 26.0078 24.418 25.5969 24.418 25.0898C24.418 24.5828 24.007 24.1719 23.5 24.1719Z" fill="#2F56EB"/>
<path d="M23.5 29.6797H8.26172C7.75468 29.6797 7.34375 30.0906 7.34375 30.5977C7.34375 31.1047 7.75468 31.5156 8.26172 31.5156H23.5C24.007 31.5156 24.418 31.1047 24.418 30.5977C24.418 30.0906 24.007 29.6797 23.5 29.6797Z" fill="#2F56EB"/>
<path d="M38.7383 9.48438H27.1719C26.6648 9.48438 26.2539 9.89531 26.2539 10.4023C26.2539 10.9094 26.6648 11.3203 27.1719 11.3203H38.7383C39.2453 11.3203 39.6562 10.9094 39.6562 10.4023C39.6562 9.89531 39.2453 9.48438 38.7383 9.48438Z" fill="#2F56EB"/>
</svg>
