<svg width="40" height="43" viewBox="0 0 40 43" fill="none" xmlns="http://www.w3.org/2000/svg">
<path d="M18.6779 35.0101L25.2501 31.4888V32.9879C25.2501 33.105 25.2197 33.2065 25.1665 33.3002C25.1133 33.3939 25.0222 33.472 24.893 33.5423L21.8766 35.135C21.7474 35.2053 21.6183 35.26 21.4739 35.3068C21.3296 35.3537 21.1852 35.4005 21.018 35.4395C21.1776 35.4786 21.3296 35.5254 21.4739 35.5723C21.6183 35.6191 21.7474 35.6816 21.8766 35.744L24.893 37.3368C25.0222 37.4071 25.1133 37.4852 25.1665 37.5789C25.2197 37.6726 25.2501 37.7741 25.2501 37.8912V39.3903L18.6779 35.8612V35.0101Z" fill="#2F56EB"/>
<path d="M27.2074 41.2172C27.1542 41.35 27.0934 41.4593 27.0174 41.5608C26.9414 41.6545 26.8503 41.7403 26.7515 41.8028C26.6527 41.8653 26.5464 41.9199 26.4324 41.9512C26.3184 41.9824 26.212 42.0058 26.1057 42.0058H25.2395L30.087 29.2636C30.1782 29.0215 30.3149 28.842 30.4973 28.717C30.6721 28.5921 30.8848 28.5219 31.1355 28.5219H32.0093L27.2074 41.2172Z" fill="#2F56EB"/>
<path d="M32.6272 39.3978V37.8987C32.6272 37.7816 32.6576 37.6801 32.7108 37.5864C32.764 37.4927 32.8551 37.4147 32.9843 37.3444L36.0007 35.7516C36.2438 35.6267 36.5326 35.5252 36.8593 35.4471C36.6997 35.4081 36.5478 35.3612 36.4034 35.3144C36.259 35.2675 36.1299 35.2051 36.0007 35.1426L32.9843 33.5576C32.8551 33.4874 32.764 33.4093 32.7108 33.3156C32.6576 33.2219 32.6272 33.1204 32.6272 33.0033V31.5042L39.1994 35.0255V35.8765L32.6272 39.3978Z" fill="#2F56EB"/>
<circle cx="16.7985" cy="9.79952" r="8.39956" fill="#D5E3FD"/>
<path d="M15.8691 19.1133C18.422 19.1133 20.6406 18.1686 22.4489 16.3104C24.2573 14.4521 25.1766 12.1801 25.1766 9.54886C25.1766 6.92546 24.2573 4.6456 22.4489 2.78736C20.633 0.944736 18.422 0 15.8691 0C13.3162 0 11.0976 0.944736 9.28926 2.80298C7.48094 4.66122 6.56158 6.93327 6.56158 9.56448C6.56158 12.1879 7.48094 14.4677 9.28926 16.326C11.0976 18.1764 13.3086 19.1133 15.8691 19.1133ZM10.8924 4.4426C12.2829 3.01379 13.9088 2.3267 15.8691 2.3267C17.8294 2.3267 19.4553 3.02159 20.8458 4.4426C22.2362 5.87142 22.9048 7.54227 22.9048 9.55667C22.9048 11.5711 22.2286 13.2419 20.8458 14.6707C19.4553 16.0996 17.8294 16.7866 15.8691 16.7866C13.9088 16.7866 12.2829 16.0917 10.8924 14.6707C9.502 13.2419 8.83338 11.5711 8.83338 9.55667C8.82578 7.54227 9.502 5.87142 10.8924 4.4426Z" fill="#2F56EB"/>
<path d="M31.2353 25.4845C30.9845 24.6881 30.6426 23.8917 30.2247 23.1344C29.7917 22.3458 29.275 21.6665 28.7051 21.0965C28.1049 20.511 27.3679 20.0347 26.5169 19.6911C25.6736 19.3476 24.7314 19.168 23.7285 19.168C23.3334 19.168 22.9535 19.332 22.2165 19.8317C21.7606 20.1284 21.2363 20.4797 20.6437 20.8701C20.1346 21.2058 19.4508 21.5104 18.6074 21.7914C17.7793 22.0725 16.9435 22.2052 16.1153 22.2052C15.2871 22.2052 14.4438 22.0725 13.6232 21.7914C12.7722 21.5104 12.0884 21.2058 11.5869 20.8701C10.9943 20.4875 10.47 20.1362 10.0065 19.8317C9.26953 19.332 8.88963 19.168 8.49454 19.168C7.4916 19.168 6.55705 19.3476 5.70608 19.6911C4.85511 20.0347 4.1257 20.511 3.51786 21.0965C2.94801 21.6665 2.43895 22.3458 1.99827 23.1344C1.58038 23.8917 1.24607 24.6881 0.995335 25.4845C0.752199 26.2653 0.547054 27.1085 0.395095 28.0064C0.235537 28.8965 0.129166 29.7397 0.0835777 30.5205C0.0303919 31.2778 0 32.0664 0 32.8628C0 34.9318 0.645828 36.6105 1.90709 37.8441C3.15316 39.0699 4.80952 39.6868 6.81538 39.6868H20.0663C19.9523 39.5696 19.8535 39.4759 19.7699 39.3979C19.3748 39.0309 19.0557 38.2033 18.843 37.3601H6.81538C5.38696 37.3601 4.29286 36.9697 3.46468 36.1577C2.65929 35.3691 2.2642 34.2916 2.2642 32.8628C2.2642 32.1133 2.28699 31.3793 2.34018 30.6766C2.38576 29.9896 2.47694 29.2244 2.6213 28.4202C2.75806 27.6238 2.94042 26.8743 3.14556 26.195C3.35071 25.5469 3.62423 24.9067 3.96614 24.2821C4.29286 23.6965 4.67275 23.189 5.08305 22.783C5.47814 22.4004 5.96441 22.0881 6.54186 21.8539C7.07371 21.6353 7.67395 21.5182 8.31978 21.4947C8.40336 21.5416 8.54012 21.6197 8.76806 21.7758C9.23914 22.0881 9.771 22.4473 10.3636 22.8299C11.0323 23.2671 11.8984 23.6653 12.9242 24.0088C13.9727 24.3602 15.044 24.5319 16.1153 24.5319C17.179 24.5319 18.2503 24.3602 19.2989 24.0088C20.3322 23.6653 21.1908 23.2671 21.8594 22.8299C22.4672 22.4317 22.9915 22.0881 23.455 21.7758C23.6829 21.6275 23.8197 21.5416 23.9032 21.4947C24.5491 21.5182 25.1493 21.6353 25.6888 21.8539C26.2586 22.0881 26.7525 22.4004 27.14 22.783C27.5503 23.189 27.9302 23.6965 28.2569 24.2821C28.5988 24.9067 28.8723 25.5469 29.0775 26.195C29.1686 26.4995 29.2598 26.8118 29.3358 27.1397C29.8676 26.9914 30.673 26.7571 31.5164 26.5229C31.4328 26.1638 31.334 25.8202 31.2353 25.4845Z" fill="#2F56EB"/>
</svg>
