<svg width="44" height="42" viewBox="0 0 44 42" fill="none" xmlns="http://www.w3.org/2000/svg">
<path d="M15.347 14.5954C14.8909 14.1348 14.451 13.6887 14.0079 13.2448C13.5072 12.7428 12.9914 12.7433 12.4869 13.2442C12.1052 13.6231 11.7234 14.0015 11.3438 14.382C10.8932 14.834 10.8991 15.3661 11.3568 15.8213C11.7697 16.2324 12.1778 16.6479 12.5962 17.0531C12.706 17.1595 12.7222 17.2358 12.6393 17.3712C12.2252 18.0479 11.921 18.774 11.7304 19.543C11.6863 19.7215 11.6044 19.7688 11.4354 19.7666C10.8614 19.7591 10.2869 19.7618 9.71297 19.7639C9.05934 19.7661 8.69591 20.1289 8.69483 20.777C8.69375 21.3499 8.69106 21.9234 8.69537 22.4963C8.69967 23.0617 9.06957 23.44 9.63867 23.4486C10.2395 23.4578 10.841 23.4572 11.4418 23.4476C11.6163 23.4449 11.689 23.4981 11.732 23.6722C11.921 24.4321 12.2139 25.1534 12.6285 25.8198C12.727 25.9784 12.6899 26.0643 12.5698 26.1804C12.1638 26.5722 11.767 26.9742 11.3681 27.3741C10.8964 27.847 10.884 28.3635 11.3444 28.8375C11.7315 29.2363 12.1262 29.6276 12.5251 30.014C12.993 30.4665 13.5072 30.4595 13.9702 30.0022C14.3778 29.5991 14.7865 29.196 15.1854 28.7843C15.3055 28.6607 15.3949 28.6424 15.5499 28.736C16.2133 29.1369 16.9234 29.4368 17.6772 29.6201C17.8748 29.6679 17.9292 29.7571 17.9249 29.95C17.913 30.5052 17.9184 31.0604 17.9217 31.6156C17.9254 32.2997 18.2867 32.6571 18.9721 32.6587C19.5105 32.6598 20.0484 32.6609 20.5868 32.6587C21.2571 32.6561 21.6206 32.2965 21.6233 31.6328C21.6254 31.0685 21.6308 30.5041 21.62 29.9404C21.6168 29.7587 21.6642 29.6711 21.8532 29.6249C22.6069 29.4411 23.3193 29.1476 23.9821 28.7451C24.1425 28.6473 24.2378 28.6527 24.3692 28.7897C24.766 29.2035 25.1757 29.605 25.5838 30.0081C26.0345 30.4536 26.5595 30.4633 27.0096 30.0264C27.4209 29.627 27.8269 29.2213 28.228 28.8117C28.6431 28.3877 28.6415 27.8465 28.2275 27.4273C27.8118 27.0065 27.394 26.5878 26.9708 26.1751C26.8604 26.0676 26.8184 25.9875 26.9132 25.8354C27.3321 25.1614 27.6309 24.4332 27.8194 23.6631C27.863 23.4852 27.947 23.4454 28.1166 23.4486C28.6997 23.4588 29.2828 23.4562 29.8659 23.4513C30.4861 23.4459 30.8512 23.0821 30.8576 22.4619C30.8636 21.889 30.863 21.3155 30.8582 20.7426C30.8528 20.1428 30.4807 19.7709 29.8804 19.7655C29.2973 19.7602 28.7142 19.7586 28.1311 19.7688C27.9507 19.772 27.8592 19.729 27.814 19.5377C27.6341 18.774 27.3251 18.0602 26.9207 17.389C26.8362 17.2487 26.8351 17.1665 26.9584 17.0482C27.3854 16.6387 27.7994 16.2163 28.2172 15.7982C28.6442 15.3709 28.6458 14.8254 28.2189 14.396C27.821 13.9956 27.4209 13.5973 27.0193 13.2002C26.5751 12.7611 26.0361 12.7579 25.593 13.1943C25.1714 13.6092 24.7515 14.0257 24.3385 14.4492C24.2335 14.5567 24.1581 14.576 24.0208 14.4933C23.3413 14.0832 22.6161 13.7763 21.8435 13.5898C21.6685 13.5474 21.6173 13.47 21.62 13.2969C21.6297 12.7149 21.627 12.1328 21.6227 11.5508C21.6179 10.9316 21.2474 10.5624 20.6337 10.5592C20.0597 10.556 19.4852 10.5554 18.9113 10.5581C18.3147 10.5608 17.9335 10.93 17.9238 11.5287C17.9141 12.1194 17.9276 12.7106 17.9147 13.3018C17.9125 13.391 17.8404 13.5393 17.7731 13.5576C16.9272 13.7822 16.1287 14.116 15.347 14.5954ZM14.1269 21.6208C14.1296 18.4966 16.6338 15.9852 19.7614 15.9701C22.8541 15.9551 25.4293 18.4988 25.4282 21.5676C25.4272 24.7197 22.9031 27.2483 19.7603 27.2456C16.6591 27.243 14.1242 24.7121 14.1269 21.6208Z" fill="url(#paint0_linear)"/>
<path d="M5.08481 30.0881C2.46219 25.178 2.08045 20.1422 4.16789 14.9752C5.87144 10.7579 9.23707 7.72194 12.4207 6.21442C12.6964 7.2318 12.9699 8.24165 13.2617 9.31922C15.0407 7.07648 16.7797 4.88426 18.55 2.65227C15.9533 1.76872 13.3877 0.895376 10.7565 0C11.0655 1.15603 11.3611 2.26316 11.6632 3.3934C11.4656 3.49283 11.2744 3.5858 11.0871 3.68469C5.01536 6.88569 1.35682 11.8516 0.252529 18.6228C-0.387108 22.5451 0.213228 26.3271 1.8597 29.9451C1.94908 30.1413 2.05353 30.2213 2.27644 30.2294C2.93061 30.2536 3.58479 30.2923 4.23573 30.3595C4.56686 30.3933 4.8296 30.3025 5.08481 30.0881Z" fill="url(#paint1_linear)"/>
<path d="M12.6439 33.2418C9.80862 32.8274 7.03794 32.4227 4.20856 32.0089C4.74159 34.7079 5.26493 37.358 5.79904 40.063C6.64705 39.2015 7.45521 38.3808 8.25476 37.5687C8.85347 37.9353 9.3935 38.2878 9.95346 38.6049C13.3062 40.5026 16.9168 41.398 20.7627 41.211C25.7888 40.9664 30.1408 39.0929 33.7956 35.6286C34.7152 34.7568 35.5266 33.7905 36.2658 32.7624C36.3681 32.6205 36.3837 32.5109 36.3024 32.3512C35.9595 31.6821 35.6445 30.998 35.2886 30.3358C35.1911 30.1547 34.9871 30.0311 34.8143 29.8645C31.5902 34.9589 27.0627 37.8815 21.0755 38.3652C17.2113 38.6769 13.6524 37.6633 10.3438 35.5404C11.1094 34.7746 11.8551 34.0297 12.6439 33.2418Z" fill="url(#paint2_linear)"/>
<path d="M19.705 4.16726C25.6325 4.40427 30.3829 6.81792 33.8099 11.6549C36.4767 15.4186 37.0996 19.7697 36.7782 22.4483C35.7568 22.1774 34.7408 21.9082 33.6554 21.6206C34.7134 24.2761 35.7498 26.8779 36.8024 29.5215C38.8753 27.7157 40.9181 25.9357 43.0039 24.1181C42.4057 23.9569 41.8582 23.8086 41.3101 23.6618C40.8685 23.5436 40.4249 23.4307 39.9845 23.3087C39.5295 23.1824 39.5839 23.2862 39.6194 22.7745C39.6932 21.7104 39.712 20.6484 39.6076 19.5832C39.1865 15.2772 37.5734 11.4732 34.7134 8.22977C31.2858 4.34086 26.9624 2.11961 21.807 1.49672C21.3494 1.44136 21.0866 1.53165 20.8578 1.93473C20.5531 2.47056 20.1902 2.97468 19.8327 3.47934C19.6776 3.69754 19.6566 3.91574 19.705 4.16726Z" fill="url(#paint3_linear)"/>
<defs>
<linearGradient id="paint0_linear" x1="19.7775" y1="10.5564" x2="19.7775" y2="32.66" gradientUnits="userSpaceOnUse">
<stop offset="0.166667" stop-color="#AF5CE6"/>
<stop offset="1" stop-color="#9613EC"/>
</linearGradient>
<linearGradient id="paint1_linear" x1="9.27584" y1="0" x2="9.27584" y2="30.3664" gradientUnits="userSpaceOnUse">
<stop offset="0.166667" stop-color="#AF5CE6"/>
<stop offset="1" stop-color="#9613EC"/>
</linearGradient>
<linearGradient id="paint2_linear" x1="20.2815" y1="29.8645" x2="20.2815" y2="41.2352" gradientUnits="userSpaceOnUse">
<stop offset="0.166667" stop-color="#AF5CE6"/>
<stop offset="1" stop-color="#9613EC"/>
</linearGradient>
<linearGradient id="paint3_linear" x1="31.3429" y1="1.48193" x2="31.3429" y2="29.5215" gradientUnits="userSpaceOnUse">
<stop offset="0.166667" stop-color="#AF5CE6"/>
<stop offset="1" stop-color="#9613EC"/>
</linearGradient>
</defs>
</svg>
