<svg width="48" height="42" viewBox="0 0 48 42" fill="none" xmlns="http://www.w3.org/2000/svg">
<path d="M11.8193 20.9999C15.879 19.0895 24.0701 15.2686 24.3566 15.2686L35.8193 21.3581L23.6402 26.373L11.8193 20.9999Z" fill="url(#paint0_linear)"/>
<path d="M23.9983 33.1875C27.9582 33.1875 31.967 31.8995 31.967 29.4375V24.1093L35.717 22.4426V32.25C35.717 32.7677 36.1369 33.1875 36.6545 33.1875C37.1722 33.1875 37.592 32.7677 37.592 32.25V21C37.592 20.5844 37.3323 20.2677 37.018 20.1357L24.379 14.5184C24.1366 14.4105 23.8599 14.4105 23.6175 14.5184L10.9612 20.1434C10.6228 20.2938 10.4045 20.6295 10.4045 21C10.4045 21.3705 10.6227 21.7063 10.9612 21.8567L16.0295 24.1093V29.4375C16.0295 31.8995 20.0383 33.1875 23.9983 33.1875ZM30.092 29.4375C30.092 29.9983 28.0188 31.3125 23.9983 31.3125C19.9778 31.3125 17.9045 29.9983 17.9045 29.4375V24.9427L23.6175 27.4818C23.7387 27.5356 23.8685 27.5625 23.9983 27.5625C24.128 27.5625 24.2579 27.5356 24.3791 27.4818L30.092 24.9426V29.4375ZM13.6503 21.0001L23.9983 16.401L34.3463 21.0001L23.9983 25.5991L13.6503 21.0001Z" fill="url(#paint1_linear)"/>
<path d="M47.0625 0.375H0.9375C0.419719 0.375 0 0.794719 0 1.3125V40.6875C0 41.2052 0.419719 41.625 0.9375 41.625H19.7812C20.299 41.625 20.7188 41.2052 20.7188 40.6875C20.7188 40.1698 20.299 39.75 19.7812 39.75H1.875V10.6875H46.125V39.75H28.2188C27.7011 39.75 27.2812 40.1698 27.2812 40.6875C27.2812 41.2052 27.7011 41.625 28.2188 41.625H47.0625C47.5802 41.625 48 41.2052 48 40.6875V1.3125C48 0.794719 47.5802 0.375 47.0625 0.375ZM46.125 8.8125H1.875V2.25H28.6875V4.125C28.6875 4.64269 29.1073 5.0625 29.625 5.0625C30.1427 5.0625 30.5625 4.64269 30.5625 4.125V2.25H34.3125V4.125C34.3125 4.64269 34.7323 5.0625 35.25 5.0625C35.7677 5.0625 36.1875 4.64269 36.1875 4.125V2.25H39.9375V4.125C39.9375 4.64269 40.3573 5.0625 40.875 5.0625C41.3927 5.0625 41.8125 4.64269 41.8125 4.125V2.25H46.125V8.8125Z" fill="url(#paint2_linear)"/>
<path d="M24 41.625C24.5178 41.625 24.9375 41.2053 24.9375 40.6875C24.9375 40.1697 24.5178 39.75 24 39.75C23.4822 39.75 23.0625 40.1697 23.0625 40.6875C23.0625 41.2053 23.4822 41.625 24 41.625Z" fill="url(#paint3_linear)"/>
<defs>
<linearGradient id="paint0_linear" x1="23.8193" y1="15.2686" x2="24.3566" y2="32.4626" gradientUnits="userSpaceOnUse">
<stop stop-color="#37B0F8"/>
<stop offset="1" stop-color="#1466D2"/>
</linearGradient>
<linearGradient id="paint1_linear" x1="23.9983" y1="14.4375" x2="23.9983" y2="33.1875" gradientUnits="userSpaceOnUse">
<stop stop-color="#37B0F8"/>
<stop offset="1" stop-color="#1466D2"/>
</linearGradient>
<linearGradient id="paint2_linear" x1="24" y1="0.375" x2="24" y2="41.625" gradientUnits="userSpaceOnUse">
<stop stop-color="#37B0F8"/>
<stop offset="1" stop-color="#1466D2"/>
</linearGradient>
<linearGradient id="paint3_linear" x1="24" y1="39.75" x2="24" y2="41.625" gradientUnits="userSpaceOnUse">
<stop stop-color="#37B0F8"/>
<stop offset="1" stop-color="#1466D2"/>
</linearGradient>
</defs>
</svg>
