<svg width="41" height="42" viewBox="0 0 41 42" fill="none" xmlns="http://www.w3.org/2000/svg">
<path d="M8.67442 20.8295H2.88844H2.30984L1.73125 22.5653L1.15265 25.4583V32.4015V39.3446L3.46704 39.9232H8.09582C8.5587 39.9232 10.9888 39.5375 12.146 39.3446L15.6176 39.9232L23.1394 40.5018H30.6611L34.1327 38.766L35.8685 35.873L37.6043 32.4015L38.1829 28.9299L38.7615 26.6155V24.8797L38.1829 23.1439V20.8295L37.6043 19.0937V17.3579L35.2899 16.2007H30.0825L25.4537 17.3579L24.2965 16.7793V15.6221V13.3077L24.8751 10.4148L26.0323 7.52177V4.62878L25.4537 2.89299L24.2965 1.73579L21.9822 1.1572L20.825 2.09742V4.62878C20.825 5.20738 20.2464 6.94317 20.2464 7.52177C20.2464 7.98465 18.3177 11.1862 17.3534 12.7291L13.8818 17.9365L12.146 20.8295L9.83161 21.4081L8.67442 20.8295Z" fill="#D5E3FD"/>
<path d="M39.2807 28.3215C40.1345 27.2326 40.5439 26.0652 40.4917 24.863C40.4394 23.5388 39.847 22.5021 39.3591 21.8662C39.9254 20.4549 40.1432 18.2334 38.2528 16.5085C36.8676 15.2454 34.5155 14.6791 31.2573 14.8359C28.9662 14.9404 27.0496 15.3673 26.9712 15.3847H26.9625C26.5269 15.4631 26.0652 15.559 25.5948 15.6635C25.5599 15.106 25.6558 13.7208 26.6837 10.6021C27.9034 6.8909 27.8337 4.05091 26.4572 2.15177C25.0111 0.156809 22.7025 0 22.023 0C21.3696 0 20.7685 0.270061 20.3417 0.766623C19.3747 1.89042 19.4879 3.96379 19.6099 4.92207C18.4599 8.00599 15.2366 15.5677 12.5099 17.6672C12.4576 17.702 12.4141 17.7456 12.3705 17.7891C11.569 18.6342 11.0289 19.5489 10.663 20.3504C10.149 20.0716 9.56537 19.9148 8.93813 19.9148H3.62404C1.62036 19.9148 0 21.5439 0 23.5388V37.6952C0 39.6989 1.62907 41.3193 3.62404 41.3193H8.93813C9.71347 41.3193 10.4365 41.0753 11.0289 40.6572L13.0762 40.9011C13.3898 40.9447 18.9652 41.6503 24.6888 41.5371C25.7254 41.6155 26.7011 41.659 27.6072 41.659C29.1665 41.659 30.5256 41.5371 31.6581 41.2931C34.3238 40.7269 36.1446 39.5944 37.068 37.9304C37.7736 36.6585 37.7736 35.3954 37.6604 34.5939C39.394 33.0258 39.6989 31.2922 39.6379 30.0725C39.6031 29.3669 39.4463 28.7658 39.2807 28.3215ZM3.62404 38.9671C2.9184 38.9671 2.35214 38.3922 2.35214 37.6952V23.5301C2.35214 22.8245 2.92711 22.2582 3.62404 22.2582H8.93813C9.64377 22.2582 10.21 22.8332 10.21 23.5301V37.6865C10.21 38.3922 9.63506 38.9584 8.93813 38.9584H3.62404V38.9671ZM37.0506 27.3022C36.6847 27.6856 36.615 28.2692 36.8937 28.7222C36.8937 28.731 37.2509 29.3408 37.2945 30.1771C37.3555 31.3183 36.8066 32.3289 35.6567 33.1913C35.2473 33.5049 35.0817 34.0451 35.256 34.5329C35.256 34.5416 35.6306 35.6916 35.0207 36.7805C34.4371 37.8259 33.139 38.5751 31.1702 38.9933C29.5934 39.333 27.4503 39.394 24.8194 39.1849C24.7846 39.1849 24.741 39.1849 24.6975 39.1849C19.0959 39.3069 13.4333 38.5751 13.3724 38.5664H13.3636L12.4838 38.4618C12.536 38.2179 12.5622 37.9566 12.5622 37.6952V23.5301C12.5622 23.1555 12.5012 22.7896 12.3966 22.4499C12.5535 21.8662 12.989 20.5682 14.017 19.4618C17.9285 16.3604 21.7529 5.89777 21.9185 5.44477C21.9882 5.26182 22.0056 5.06146 21.9707 4.86109C21.8226 3.88539 21.8749 2.69189 22.084 2.33472C22.5457 2.34343 23.7915 2.4741 24.5407 3.51079C25.4292 4.73913 25.3944 6.93446 24.4361 9.84414C22.9726 14.2784 22.8506 16.6131 24.0093 17.6411C24.5842 18.155 25.3508 18.1812 25.9084 17.9808C26.4398 17.8588 26.9451 17.7543 27.4242 17.6759C27.4591 17.6672 27.5026 17.6585 27.5375 17.6498C30.2119 17.0661 35.0033 16.7089 36.6673 18.2247C38.0785 19.5141 37.0767 21.2215 36.9634 21.4045C36.6411 21.8923 36.7369 22.5283 37.1725 22.9203C37.1812 22.929 38.096 23.7915 38.1395 24.9501C38.1744 25.7254 37.8085 26.5182 37.0506 27.3022Z" fill="#2F56EB"/>
</svg>
