<svg width="49" height="50" viewBox="0 0 49 50" fill="none" xmlns="http://www.w3.org/2000/svg">
<path d="M35.9138 6.69923C36.721 6.69923 37.4503 6.6714 38.1796 6.7048C39.6716 6.77717 40.7739 7.57883 41.197 8.9706C41.3473 9.46607 41.3306 10.0228 41.3417 10.5572C41.3695 11.988 41.3584 11.9824 42.817 11.988C44.1085 11.988 45.4001 11.988 46.6861 12.0047C48.0333 12.0214 48.1892 12.6059 48.1781 13.3185C48.1614 14.109 47.6214 14.5154 46.5915 14.5154C45.0995 14.521 43.6075 14.5154 42.1211 14.5154C41.8817 14.5154 41.6423 14.5154 41.3306 14.5154C41.3306 15.3282 41.3306 16.0798 41.3306 16.8313C41.3306 17.5662 41.3306 18.2955 41.3306 19.1361C42.0543 19.1361 42.739 19.1361 43.4238 19.1361C44.5595 19.1361 45.6952 19.1305 46.8253 19.1472C47.4265 19.1584 47.9944 19.2697 48.1391 19.999C48.3006 20.7895 47.9999 21.0345 47.4098 21.5745C46.6471 22.2648 45.8288 22.0922 44.9993 22.1089C44.0696 22.1312 43.1399 22.1145 42.1712 22.1145C42.1712 23.7289 42.1712 25.2766 42.1712 26.9356C42.5219 26.9356 42.8448 26.9356 43.1677 26.9356C44.7042 26.9356 46.2407 26.9356 47.7717 26.9356C48.3228 26.9356 48.7181 27.2362 48.8962 27.715C49.0911 28.2438 49.0354 28.8061 48.5232 29.1457C48.2894 29.3016 47.9498 29.3573 47.6603 29.3573C46.0793 29.3795 44.5038 29.3962 42.9227 29.3517C42.2881 29.335 42.1155 29.5521 42.1378 30.1589C42.1823 31.2723 42.1935 32.3857 42.1322 33.4936C42.0988 34.1561 42.366 34.2786 42.945 34.2674C44.5038 34.2396 46.0626 34.2563 47.6158 34.2618C48.2504 34.2618 48.7571 34.4678 48.9296 35.1414C49.1523 36.0099 48.6457 36.6947 47.7271 36.7114C46.1461 36.7392 44.565 36.7281 42.9896 36.7336C42.7279 36.7336 42.4663 36.7336 42.1211 36.7336C42.1211 37.5576 42.1434 38.3091 42.1155 39.0551C42.0543 40.7976 40.7683 42.0836 39.0202 42.1504C38.4635 42.1727 37.9068 42.2116 37.3557 42.1615C36.8435 42.117 36.6932 42.3007 36.6988 42.7906C36.7155 44.3939 36.7099 45.9973 36.6932 47.595C36.6821 48.5136 36.2423 49.009 35.474 49.0146C34.6668 49.0202 34.2437 48.5303 34.2381 47.5449C34.2325 45.9861 34.227 44.4273 34.2437 42.8741C34.2492 42.3842 34.1323 42.1448 33.5701 42.1671C32.3898 42.2061 31.2096 42.2005 30.035 42.1727C29.5172 42.1615 29.3279 42.323 29.3335 42.8574C29.3613 44.483 29.3502 46.103 29.3391 47.7286C29.3335 48.5581 28.9215 49.0035 28.1756 49.0146C27.424 49.0257 26.9174 48.5191 26.9118 47.7063C26.9007 46.1253 26.9118 44.5442 26.9118 42.9688C26.9118 42.7294 26.9118 42.4956 26.9118 42.2172C25.2807 42.2172 23.7386 42.2172 22.0907 42.2172C22.0907 42.9632 22.0907 43.6925 22.0907 44.4162C22.0907 45.5074 22.0963 46.5985 22.0852 47.6896C22.074 48.4802 21.612 48.9812 20.9049 49.0202C20.0866 49.0592 19.6691 48.6862 19.6468 47.7565C19.6078 46.1754 19.6078 44.5944 19.6356 43.0189C19.6468 42.4009 19.4853 42.1393 18.8062 42.1727C17.6983 42.2228 16.5793 42.2061 15.4715 42.156C14.9092 42.1337 14.7255 42.3341 14.731 42.8686C14.7477 44.4496 14.7366 46.0307 14.731 47.6061C14.731 48.5414 14.3247 49.009 13.523 49.0202C12.7826 49.0313 12.2871 48.4913 12.2815 47.6117C12.2704 46.0529 12.2593 44.4941 12.3038 42.9409C12.3205 42.3174 12.109 42.1671 11.5077 42.1615C10.6281 42.156 9.69841 42.1671 8.88561 41.8999C7.59962 41.4768 6.9093 40.4636 6.8759 39.0718C6.8592 38.3369 6.87033 37.6077 6.87033 36.7949C6.59198 36.7726 6.33589 36.7392 6.08537 36.7392C4.52659 36.7336 2.96781 36.7448 1.41459 36.7336C0.462619 36.7281 0.0172528 36.3328 0.000551544 35.5701C-0.0161497 34.7518 0.345711 34.3175 1.18634 34.3008C2.8342 34.2618 4.47649 34.2563 6.12434 34.273C6.65321 34.2785 6.8759 34.1505 6.85363 33.566C6.80909 32.3857 6.81466 31.2055 6.85363 30.0309C6.87033 29.4797 6.66435 29.3517 6.15774 29.3573C4.48762 29.3795 2.82306 29.374 1.15294 29.3461C0.301174 29.335 0.0116857 29.001 0.0116857 28.1548C0.0172528 27.3809 0.401381 26.9578 1.18634 26.9467C2.81193 26.9244 4.43752 26.93 6.05754 26.93C6.29692 26.93 6.53074 26.93 6.80353 26.93C6.80353 25.3044 6.80353 23.7568 6.80353 22.1423C6.55301 22.1312 6.31919 22.1089 6.0798 22.1089C4.43195 22.1033 2.78409 22.1089 1.1418 22.0922C0.340143 22.0811 0.000551543 21.6858 0.0116857 20.8619C0.0228199 20.0101 0.317875 19.6872 1.16407 19.6761C2.81193 19.6594 4.45422 19.6538 6.10207 19.6817C6.65321 19.6928 6.8592 19.5202 6.84806 18.9635C6.82023 17.761 6.82023 16.5585 6.84806 15.356C6.8592 14.8828 6.68105 14.7325 6.23012 14.7381C4.64906 14.7548 3.06801 14.7437 1.49253 14.7437C0.395814 14.7437 0.028387 14.4486 0.0172528 13.5801C0.00611862 12.6671 0.412516 12.3053 1.46469 12.2997C3.15152 12.2941 4.84391 12.2997 6.64208 12.2997C6.64208 11.6317 6.63095 11.0249 6.64765 10.4125C6.66992 9.53844 6.80909 8.69781 7.42704 8.00193C8.08395 7.26707 8.86891 6.86068 9.86542 6.87738C10.5112 6.88851 11.1514 6.87738 11.864 6.87738C11.8918 6.56006 11.9364 6.2817 11.9419 6.00335C11.9642 4.40003 11.9809 2.80228 11.992 1.19896C11.9976 0.324924 12.5933 -0.0146679 13.2613 0.0243017C13.9795 0.0632712 14.4583 0.553174 14.4694 1.327C14.4805 2.90805 14.475 4.4891 14.475 6.06458C14.475 6.30397 14.475 6.54892 14.475 6.86068C15.8556 6.86068 17.1861 6.87738 18.5111 6.83284C18.628 6.82727 18.8284 6.45428 18.8284 6.2483C18.8563 4.55591 18.8451 2.86351 18.8507 1.17669C18.8507 0.636681 19.0455 0.213582 19.6022 0.0799725C20.1979 -0.0647716 20.7769 -0.0313692 21.1109 0.58101C21.2278 0.798126 21.2668 1.08761 21.2668 1.3437C21.2835 2.92475 21.2779 4.5058 21.2779 6.08129C21.2779 6.32067 21.2779 6.56006 21.2779 6.83284C22.898 6.83284 24.4456 6.83284 26.0601 6.83284C26.0712 6.59346 26.0879 6.35407 26.0935 6.12026C26.099 4.51694 26.0935 2.91362 26.099 1.31586C26.099 0.759156 26.3217 0.27482 26.8506 0.107808C27.3572 -0.0536374 27.9584 -0.0981741 28.2925 0.441833C28.4762 0.731321 28.543 1.13772 28.5485 1.49401C28.5764 3.00826 28.5931 4.5225 28.5485 6.03118C28.5318 6.71037 28.749 6.91635 29.4226 6.88295C30.5304 6.82727 31.6494 6.83841 32.7573 6.88295C33.3362 6.90521 33.4698 6.6881 33.4643 6.15366C33.442 4.55034 33.4476 2.94702 33.4698 1.34927C33.481 0.369461 33.8373 0.0298688 34.7391 0.0410029C35.5018 0.0521371 35.9027 0.514205 35.9082 1.41607C35.9194 2.90805 35.9138 4.40003 35.9138 5.88644C35.9138 6.13696 35.9138 6.37634 35.9138 6.69923ZM34.0934 24.1409C34.0934 21.8751 34.021 19.6037 34.1156 17.3379C34.1991 15.3894 32.6404 14.07 30.9146 14.1034C26.3106 14.187 21.7066 14.187 17.1082 14.1257C15.3824 14.1034 14.0574 15.5565 14.0741 17.182C14.1242 21.8083 14.0908 26.4345 14.0908 31.0552C14.0908 32.9369 15.2711 34.1282 17.1416 34.1338C21.7678 34.1338 26.3941 34.1338 31.0148 34.1338C32.8964 34.1338 34.0878 32.948 34.0934 31.083C34.0934 28.7671 34.0934 26.4568 34.0934 24.1409Z" fill="url(#paint0_linear)"/>
<path d="M31.5436 30.8215C31.5548 31.406 31.3711 31.5842 30.7865 31.5842C26.3328 31.5731 21.8847 31.5898 17.4367 31.6176C16.8465 31.6176 16.6183 31.4617 16.6239 30.8271C16.635 26.3734 16.6239 21.9253 16.5905 17.4772C16.5849 16.8648 16.7686 16.6644 17.3754 16.6644C21.8903 16.6811 26.4108 16.6811 30.9257 16.6644C31.4601 16.6588 31.5436 16.876 31.5436 17.338C31.5269 19.5871 31.5325 21.8307 31.5325 24.0798C31.5325 26.3289 31.5158 28.5724 31.5436 30.8215Z" fill="url(#paint1_linear)"/>
<defs>
<linearGradient id="paint0_linear" x1="24.5" y1="0" x2="24.5" y2="49.0229" gradientUnits="userSpaceOnUse">
<stop stop-color="#F38F46"/>
<stop offset="1" stop-color="#DB6C1C"/>
</linearGradient>
<linearGradient id="paint1_linear" x1="24.0672" y1="16.6643" x2="24.0672" y2="31.6176" gradientUnits="userSpaceOnUse">
<stop stop-color="#F38F46"/>
<stop offset="1" stop-color="#DB6C1C"/>
</linearGradient>
</defs>
</svg>
