<svg width="48" height="48" viewBox="0 0 48 48" fill="none" xmlns="http://www.w3.org/2000/svg">
<path d="M45.5089 42.1876C44.9969 42.1879 44.4976 42.3473 44.0801 42.6437C43.6626 42.9401 43.3475 43.3589 43.1785 43.8422H40.9878L39.5814 41.7285C39.5056 41.6149 39.4029 41.5218 39.2823 41.4576C39.1618 41.3933 39.0272 41.3599 38.8907 41.3604H36.4088V43.0149H38.4481L39.8544 45.1286C39.9303 45.2422 40.033 45.3353 40.1535 45.3996C40.2741 45.4638 40.4086 45.4972 40.5452 45.4968H43.1785C43.3303 45.9261 43.5973 46.3054 43.9503 46.5932C44.3033 46.8809 44.7286 47.066 45.1798 47.1281C45.6309 47.1902 46.0904 47.127 46.5081 46.9454C46.9257 46.7638 47.2853 46.4708 47.5475 46.0985C47.8097 45.7262 47.9645 45.2889 47.9947 44.8345C48.025 44.3801 47.9297 43.9261 47.7192 43.5223C47.5087 43.1184 47.1911 42.7803 46.8013 42.5449C46.4114 42.3095 45.9643 42.1859 45.5089 42.1876Z" fill="url(#paint0_linear)"/>
<path d="M45.5089 34.7422C44.9969 34.7425 44.4976 34.9018 44.0801 35.1982C43.6626 35.4946 43.3475 35.9135 43.1785 36.3968H36.4088V38.0513H43.1785C43.3303 38.4807 43.5973 38.86 43.9503 39.1477C44.3033 39.4355 44.7286 39.6205 45.1798 39.6827C45.6309 39.7448 46.0904 39.6816 46.5081 39.5C46.9257 39.3184 47.2853 39.0254 47.5475 38.6531C47.8097 38.2807 47.9645 37.8434 47.9947 37.389C48.025 36.9346 47.9297 36.4807 47.7192 36.0768C47.5087 35.673 47.1911 35.3349 46.8013 35.0995C46.4114 34.8641 45.9643 34.7405 45.5089 34.7422Z" fill="url(#paint1_linear)"/>
<path d="M43.1785 28.9512H40.5452C40.4091 28.9512 40.275 28.9848 40.1549 29.049C40.0349 29.1132 39.9325 29.2061 39.8569 29.3193L38.4481 31.433H36.4088V33.0876H38.8907C39.0268 33.0876 39.1609 33.054 39.281 32.9898C39.401 32.9256 39.5034 32.8327 39.579 32.7195L40.9878 30.6058H43.1785C43.3736 31.1577 43.7576 31.623 44.2626 31.9192C44.7676 32.2154 45.361 32.3236 45.9381 32.2246C46.5151 32.1256 47.0385 31.8258 47.4159 31.3782C47.7933 30.9305 48.0002 30.3639 48.0002 29.7785C48.0002 29.193 47.7933 28.6264 47.4159 28.1788C47.0385 27.7312 46.5151 27.4314 45.9381 27.3324C45.361 27.2334 44.7676 27.3415 44.2626 27.6378C43.7576 27.934 43.3736 28.3992 43.1785 28.9512Z" fill="url(#paint2_linear)"/>
<path d="M2.4913 34.7422C2.0359 34.7405 1.5888 34.8641 1.19896 35.0995C0.809114 35.3349 0.491556 35.673 0.281053 36.0768C0.0705494 36.4807 -0.0247838 36.9346 0.00549125 37.389C0.0357663 37.8434 0.190482 38.2807 0.4527 38.6531C0.714917 39.0254 1.07453 39.3184 1.49215 39.5C1.90978 39.6816 2.36932 39.7448 2.82047 39.6827C3.27161 39.6205 3.69696 39.4355 4.04995 39.1477C4.40294 38.86 4.66995 38.4807 4.82175 38.0513H11.5914V36.3968H4.82175C4.65268 35.9135 4.3376 35.4946 3.92011 35.1982C3.50261 34.9018 3.00332 34.7425 2.4913 34.7422Z" fill="url(#paint3_linear)"/>
<path d="M13.2476 43.8424H34.7569V22.333H13.2476V43.8424ZM14.9021 24.8149C14.9021 24.5954 14.9893 24.385 15.1444 24.2299C15.2996 24.0747 15.51 23.9876 15.7294 23.9876H32.2751C32.4945 23.9876 32.7049 24.0747 32.86 24.2299C33.0152 24.385 33.1023 24.5954 33.1023 24.8149V41.3605C33.1023 41.5799 33.0152 41.7903 32.86 41.9455C32.7049 42.1006 32.4945 42.1878 32.2751 42.1878H15.7294C15.51 42.1878 15.2996 42.1006 15.1444 41.9455C14.9893 41.7903 14.9021 41.5799 14.9021 41.3605V24.8149Z" fill="url(#paint4_linear)"/>
<path d="M31.4493 25.6421H16.5582V40.5332H31.4493V25.6421ZM19.0401 28.9512C18.8765 28.9512 18.7165 28.9027 18.5805 28.8118C18.4444 28.7209 18.3384 28.5917 18.2758 28.4405C18.2132 28.2894 18.1968 28.123 18.2287 27.9625C18.2606 27.8021 18.3394 27.6547 18.4551 27.539C18.5708 27.4233 18.7182 27.3445 18.8787 27.3126C19.0392 27.2806 19.2055 27.297 19.3567 27.3596C19.5078 27.4222 19.637 27.5283 19.7279 27.6643C19.8188 27.8004 19.8674 27.9603 19.8674 28.1239C19.8674 28.3433 19.7802 28.5538 19.6251 28.7089C19.4699 28.8641 19.2595 28.9512 19.0401 28.9512Z" fill="url(#paint5_linear)"/>
<path d="M36.4098 24.8148H39.7189C41.6936 24.8148 43.5874 24.0303 44.9837 22.634C46.38 21.2377 47.1645 19.3439 47.1645 17.3692C47.1645 15.3946 46.38 13.5007 44.9837 12.1044C43.5874 10.7081 41.6936 9.92369 39.7189 9.92369C39.4174 9.92443 39.1163 9.94377 38.8172 9.9816C38.6123 10.0069 38.4054 9.95481 38.2371 9.83542C38.0687 9.71603 37.951 9.53801 37.9072 9.33631C37.6624 8.20887 37.1265 7.16521 36.3529 6.30925C35.5794 5.45328 34.5951 4.81487 33.4981 4.45757C32.4011 4.10027 31.2296 4.03655 30.1004 4.27274C28.9711 4.50894 27.9233 5.03682 27.0615 5.80382C26.9637 5.89211 26.8462 5.95577 26.7189 5.9895C26.5915 6.02322 26.4579 6.02604 26.3293 5.99772C26.2006 5.96939 26.0805 5.91074 25.9791 5.82665C25.8777 5.74256 25.7978 5.63546 25.7461 5.51427C24.9204 3.5884 23.4554 2.00648 21.5985 1.03565C19.7415 0.0648207 17.6065 -0.235427 15.5538 0.18561C13.5011 0.606646 11.6566 1.72317 10.3318 3.34662C9.007 4.97008 8.28303 7.00099 8.28218 9.0964C8.28176 9.30611 8.20655 9.50879 8.07007 9.66801C7.93359 9.82724 7.7448 9.93256 7.53762 9.96505C5.64465 10.1652 3.90022 11.0827 2.66278 12.5292C1.42535 13.9756 0.788905 15.841 0.884227 17.7422C0.979549 19.6433 1.7994 21.4357 3.17531 22.7511C4.55122 24.0665 6.37868 24.805 8.28218 24.8148H11.5913V21.5056C11.5913 21.2862 11.6785 21.0758 11.8336 20.9207C11.9888 20.7655 12.1992 20.6784 12.4186 20.6784H17.3823V18.6432L15.2727 17.2286C15.1589 17.1537 15.0654 17.0518 15.0004 16.932C14.9355 16.8122 14.9011 16.6782 14.9004 16.5419V14.7716C14.1206 14.5702 13.441 14.0913 12.9889 13.4247C12.5369 12.7581 12.3435 11.9495 12.445 11.1505C12.5465 10.3515 12.9359 9.61698 13.5402 9.08455C14.1445 8.55212 14.9223 8.25838 15.7277 8.25838C16.5331 8.25838 17.3109 8.55212 17.9153 9.08455C18.5196 9.61698 18.909 10.3515 19.0105 11.1505C19.112 11.9495 18.9186 12.7581 18.4665 13.4247C18.0145 14.0913 17.3349 14.5702 16.555 14.7716V16.0952L18.6646 17.5099C18.7784 17.5848 18.8719 17.6867 18.9369 17.8065C19.0018 17.9263 19.0361 18.0603 19.0369 18.1965V20.6784H23.1733V14.7716C22.3934 14.5702 21.7138 14.0913 21.2617 13.4247C20.8097 12.7581 20.6163 11.9495 20.7178 11.1505C20.8193 10.3515 21.2087 9.61698 21.813 9.08455C22.4174 8.55212 23.1951 8.25838 24.0006 8.25838C24.806 8.25838 25.5837 8.55212 26.1881 9.08455C26.7924 9.61698 27.1818 10.3515 27.2833 11.1505C27.3848 11.9495 27.1914 12.7581 26.7394 13.4247C26.2873 14.0913 25.6077 14.5702 24.8278 14.7716V20.6784H28.9642V18.1965C28.965 18.0603 28.9993 17.9263 29.0643 17.8065C29.1292 17.6867 29.2227 17.5848 29.3365 17.5099L31.4461 16.0952V14.7716C30.6663 14.5702 29.9866 14.0913 29.5346 13.4247C29.0825 12.7581 28.8891 11.9495 28.9906 11.1505C29.0921 10.3515 29.4815 9.61698 30.0858 9.08455C30.6902 8.55212 31.468 8.25838 32.2734 8.25838C33.0788 8.25838 33.8566 8.55212 34.4609 9.08455C35.0652 9.61698 35.4547 10.3515 35.5561 11.1505C35.6576 11.9495 35.4642 12.7581 35.0122 13.4247C34.5601 14.0913 33.8805 14.5702 33.1007 14.7716V16.5419C33.1 16.6782 33.0656 16.8122 33.0007 16.932C32.9357 17.0518 32.8422 17.1537 32.7284 17.2286L30.6188 18.6432V20.6784H35.5825C35.8019 20.6784 36.0123 20.7655 36.1675 20.9207C36.3226 21.0758 36.4098 21.2862 36.4098 21.5056V24.8148Z" fill="url(#paint6_linear)"/>
<path d="M32.2753 13.2327C33.1891 13.2327 33.9299 12.4919 33.9299 11.5781C33.9299 10.6644 33.1891 9.92358 32.2753 9.92358C31.3615 9.92358 30.6207 10.6644 30.6207 11.5781C30.6207 12.4919 31.3615 13.2327 32.2753 13.2327Z" fill="url(#paint7_linear)"/>
<path d="M15.7309 13.2327C16.6447 13.2327 17.3854 12.4919 17.3854 11.5781C17.3854 10.6644 16.6447 9.92358 15.7309 9.92358C14.8171 9.92358 14.0763 10.6644 14.0763 11.5781C14.0763 12.4919 14.8171 13.2327 15.7309 13.2327Z" fill="url(#paint8_linear)"/>
<path d="M24.0008 13.2327C24.9145 13.2327 25.6553 12.4919 25.6553 11.5781C25.6553 10.6644 24.9145 9.92358 24.0008 9.92358C23.087 9.92358 22.3462 10.6644 22.3462 11.5781C22.3462 12.4919 23.087 13.2327 24.0008 13.2327Z" fill="url(#paint9_linear)"/>
<path d="M8.1433 29.3193C8.06773 29.2061 7.96537 29.1132 7.8453 29.049C7.72523 28.9848 7.59116 28.9512 7.455 28.9512H4.82176C4.62661 28.3992 4.2426 27.934 3.73762 27.6378C3.23264 27.3415 2.63919 27.2334 2.06216 27.3324C1.48514 27.4314 0.961687 27.7312 0.584328 28.1788C0.206969 28.6264 0 29.193 0 29.7785C0 30.3639 0.206969 30.9305 0.584328 31.3782C0.961687 31.8258 1.48514 32.1256 2.06216 32.2246C2.63919 32.3236 3.23264 32.2154 3.73762 31.9192C4.2426 31.623 4.62661 31.1577 4.82176 30.6058H7.0124L8.41878 32.7195C8.49459 32.8331 8.59734 32.9262 8.71788 32.9904C8.83842 33.0546 8.97298 33.088 9.10956 33.0876H11.5914V31.433H9.55216L8.1433 29.3193Z" fill="url(#paint10_linear)"/>
<path d="M8.42127 41.7285L7.0124 43.8422H4.82176C4.62661 43.2902 4.2426 42.825 3.73762 42.5288C3.23264 42.2325 2.63919 42.1244 2.06216 42.2234C1.48514 42.3224 0.961687 42.6222 0.584328 43.0698C0.206969 43.5174 0 44.084 0 44.6695C0 45.2549 0.206969 45.8215 0.584328 46.2692C0.961687 46.7168 1.48514 47.0166 2.06216 47.1156C2.63919 47.2146 3.23264 47.1064 3.73762 46.8102C4.2426 46.514 4.62661 46.0487 4.82176 45.4968H7.455C7.59116 45.4968 7.72523 45.4632 7.8453 45.399C7.96537 45.3348 8.06773 45.2419 8.1433 45.1286L9.55216 43.0149H11.5914V41.3604H9.10956C8.9734 41.3603 8.83934 41.3939 8.71927 41.4581C8.5992 41.5224 8.49684 41.6152 8.42127 41.7285Z" fill="url(#paint11_linear)"/>
<defs>
<linearGradient id="paint0_linear" x1="42.2045" y1="41.3604" x2="42.2045" y2="47.1513" gradientUnits="userSpaceOnUse">
<stop stop-color="#E40908"/>
<stop offset="1" stop-color="#FA6058"/>
</linearGradient>
<linearGradient id="paint1_linear" x1="42.2045" y1="34.7422" x2="42.2045" y2="39.7059" gradientUnits="userSpaceOnUse">
<stop stop-color="#E40908"/>
<stop offset="1" stop-color="#FA6058"/>
</linearGradient>
<linearGradient id="paint2_linear" x1="42.2045" y1="27.2966" x2="42.2045" y2="33.0876" gradientUnits="userSpaceOnUse">
<stop stop-color="#E40908"/>
<stop offset="1" stop-color="#FA6058"/>
</linearGradient>
<linearGradient id="paint3_linear" x1="5.7957" y1="34.7422" x2="5.7957" y2="39.7059" gradientUnits="userSpaceOnUse">
<stop stop-color="#E40908"/>
<stop offset="1" stop-color="#FA6058"/>
</linearGradient>
<linearGradient id="paint4_linear" x1="24.0022" y1="22.333" x2="24.0022" y2="43.8424" gradientUnits="userSpaceOnUse">
<stop stop-color="#E40908"/>
<stop offset="1" stop-color="#FA6058"/>
</linearGradient>
<linearGradient id="paint5_linear" x1="24.0038" y1="25.6421" x2="24.0038" y2="40.5332" gradientUnits="userSpaceOnUse">
<stop stop-color="#E40908"/>
<stop offset="1" stop-color="#FA6058"/>
</linearGradient>
<linearGradient id="paint6_linear" x1="24.0197" y1="0" x2="24.0197" y2="24.8148" gradientUnits="userSpaceOnUse">
<stop stop-color="#E40908"/>
<stop offset="1" stop-color="#FA6058"/>
</linearGradient>
<linearGradient id="paint7_linear" x1="32.2753" y1="9.92358" x2="32.2753" y2="13.2327" gradientUnits="userSpaceOnUse">
<stop stop-color="#E40908"/>
<stop offset="1" stop-color="#FA6058"/>
</linearGradient>
<linearGradient id="paint8_linear" x1="15.7309" y1="9.92358" x2="15.7309" y2="13.2327" gradientUnits="userSpaceOnUse">
<stop stop-color="#E40908"/>
<stop offset="1" stop-color="#FA6058"/>
</linearGradient>
<linearGradient id="paint9_linear" x1="24.0008" y1="9.92358" x2="24.0008" y2="13.2327" gradientUnits="userSpaceOnUse">
<stop stop-color="#E40908"/>
<stop offset="1" stop-color="#FA6058"/>
</linearGradient>
<linearGradient id="paint10_linear" x1="5.79571" y1="27.2966" x2="5.79571" y2="33.0876" gradientUnits="userSpaceOnUse">
<stop stop-color="#E40908"/>
<stop offset="1" stop-color="#FA6058"/>
</linearGradient>
<linearGradient id="paint11_linear" x1="5.79571" y1="41.3604" x2="5.79571" y2="47.1513" gradientUnits="userSpaceOnUse">
<stop stop-color="#E40908"/>
<stop offset="1" stop-color="#FA6058"/>
</linearGradient>
</defs>
</svg>
