<svg width="58" height="64" viewBox="0 0 58 64" fill="none" xmlns="http://www.w3.org/2000/svg">
<path d="M15 41.5H21L22.5 41V39.5V37.5L23 36L24.5 35.5L26.5 36L27.5 36.5V37.5V39.5V41L28 41.5H29.5H30.5H33H35.5V40V36V34L36 33.5H37.5L39 34L40.5 33.5L41 33L41.5 32.5V31V30L41 28.5L40 28H38.5L37.5 28.5L36 28L35.5 27.3125V26V22.5V21L36 20.5L43.5 20L53 20.5L56 21.5L56.5 27V46V60C56.5 60.4 55.8333 61.5 55.5 62L52.5 62.5H30H17.5L15.5 61.5L14.5 60V44.5L15 41.5Z" fill="#D4E2FD"/>
<mask id="path-2-outside-1" maskUnits="userSpaceOnUse" x="13.0166" y="18.9354" width="45" height="45" fill="black">
<rect fill="white" x="13.0166" y="18.9354" width="45" height="45"/>
<path d="M35.0545 41.0054C35.0545 38.9196 35.0434 36.8561 35.0545 34.7926C35.0545 33.6437 35.8117 32.796 36.8806 32.7848C37.2814 32.7848 37.7379 32.9187 38.0942 33.1195C39.1297 33.7106 40.0984 33.5099 40.7442 32.5172C41.39 31.5021 41.3232 30.041 40.5661 29.1375C39.9092 28.3567 39.0073 28.2005 38.161 28.7471C37.4818 29.1933 36.7804 29.2825 36.0678 28.8809C35.344 28.4906 35.0545 27.8436 35.0545 27.0294C35.0657 25.1555 35.0545 23.2816 35.0545 21.4078C35.0545 20.4262 35.5445 19.9354 36.5131 19.9354C42.0581 19.9354 47.6142 19.9354 53.1592 19.9354C55.4306 19.9354 57.0005 21.5193 57.0005 23.7836C57.0005 29.3271 57.0005 34.8706 56.9894 40.4142C56.9894 40.7153 56.8781 41.0165 56.8224 41.3065C56.8113 41.3957 56.789 41.485 56.8001 41.5631C56.8558 41.9423 56.9894 42.3215 56.9894 42.7008C57.0005 48.1885 57.0005 53.6875 57.0005 59.1752C57.0005 61.0826 55.8203 62.5549 54.0165 62.9118C53.727 62.9676 53.4264 62.9788 53.1369 62.9788C47.6142 62.9788 42.0915 62.9788 36.5688 62.9788C36.2682 62.9788 35.9676 62.8672 35.6669 62.8114C35.5779 62.8003 35.4888 62.778 35.4108 62.7891C35.0323 62.8449 34.6537 62.9788 34.2751 62.9788C28.797 62.9899 23.3077 62.9899 17.8295 62.9899C15.9812 62.9899 14.556 61.8857 14.1329 60.1568C14.055 59.8333 14.0216 59.4875 14.0216 59.1529C14.0104 53.6094 14.0216 48.0658 14.0216 42.5223C14.0216 41.4961 14.5115 41.0054 15.5247 41.0054C17.373 41.0054 19.2102 40.9942 21.0585 41.0054C21.5039 41.0054 21.8936 40.905 22.1274 40.4923C22.3724 40.0573 22.2499 39.678 21.9938 39.2876C21.2033 38.0607 21.4928 36.5661 22.6619 35.6403C23.9869 34.5918 26.0356 34.603 27.3606 35.6514C28.5409 36.5884 28.797 38.0607 27.9842 39.3323C27.7503 39.7003 27.6501 40.0684 27.8728 40.47C28.0844 40.8715 28.4407 41.0054 28.886 41.0054C30.9348 41.0054 32.9724 41.0054 35.0545 41.0054ZM56.0764 50.9213C56.0764 48.1328 56.0764 45.3331 56.0764 42.5446C56.0764 42.0204 55.9873 41.9423 55.464 41.9423C53.6157 41.9423 51.7785 41.9423 49.9302 41.9423C49.4737 41.9423 49.1062 42.0761 48.8835 42.5C48.672 42.9015 48.7833 43.2696 49.0171 43.6377C49.7966 44.8535 49.5627 46.3035 48.4604 47.2404C47.102 48.3893 44.9308 48.3782 43.5724 47.2293C42.4812 46.3035 42.2474 44.8646 43.0157 43.66C43.2606 43.2808 43.372 42.9015 43.1493 42.4888C42.9155 42.0538 42.5258 41.9423 42.0581 41.9423C40.2432 41.9534 38.4283 41.9423 36.6022 41.9423C36.0455 41.9423 35.9676 42.0204 35.9676 42.5669C35.9676 44.4185 35.9564 46.2589 35.9676 48.1105C35.9676 48.9247 35.6781 49.5605 34.9543 49.9509C34.2417 50.3413 33.5291 50.252 32.861 49.8059C32.0594 49.2705 31.1909 49.3932 30.5339 50.107C29.5987 51.122 29.6098 52.9178 30.5562 53.9217C31.202 54.6132 32.0482 54.7248 32.8499 54.2005C33.5291 53.7655 34.2306 53.6652 34.9432 54.0444C35.6781 54.4459 35.9676 55.0929 35.9676 55.9183C35.9564 57.7364 35.9676 59.5545 35.9676 61.3837C35.9676 61.986 36.0344 62.0641 36.6356 62.0641C42.1138 62.0641 47.5919 62.0641 53.0701 62.0641C54.9073 62.0641 56.0652 60.893 56.0652 59.0414C56.0764 56.3533 56.0764 53.6317 56.0764 50.9213ZM14.9568 50.9547C14.9568 53.6986 14.9568 56.4314 14.9568 59.1752C14.9568 60.8706 16.126 62.0753 17.8184 62.0753C23.3634 62.0864 28.9194 62.0753 34.4644 62.0753C34.9655 62.0753 35.0545 61.986 35.0545 61.4841C35.0545 59.6326 35.0545 57.7921 35.0545 55.9406C35.0545 55.4944 34.9432 55.1152 34.5201 54.8809C34.097 54.6579 33.7295 54.7806 33.351 55.0148C32.1484 55.7844 30.7232 55.5502 29.7879 54.4571C28.6522 53.1186 28.63 50.9436 29.7545 49.5939C30.6787 48.4674 32.1484 48.222 33.3398 48.9916C33.7184 49.237 34.097 49.3597 34.5089 49.1366C34.9432 48.9135 35.0545 48.512 35.0545 48.0435C35.0434 46.2031 35.0545 44.3739 35.0545 42.5335C35.0545 41.9981 34.9766 41.9311 34.4421 41.9311C32.5938 41.9311 30.7566 41.92 28.9083 41.9311C28.0955 41.9311 27.4608 41.6411 27.06 40.9161C26.6703 40.2023 26.7594 39.4884 27.1936 38.808C27.7392 37.9603 27.5944 37.0791 26.8373 36.4211C25.8352 35.5622 24.1428 35.5622 23.1407 36.4434C22.4058 37.0903 22.2722 37.9826 22.8066 38.7969C23.252 39.4773 23.3411 40.18 22.9625 40.905C22.5617 41.6411 21.9047 41.9311 21.0808 41.92C19.2547 41.9088 17.4176 41.92 15.5804 41.92C15.0237 41.92 14.9568 41.9869 14.9568 42.5558C14.9568 45.3666 14.9568 48.1551 14.9568 50.9547ZM44.9865 20.8835C42.1806 20.8835 39.3858 20.8835 36.58 20.8835C36.0566 20.8835 35.9787 20.9727 35.9787 21.497C35.9787 23.3262 35.9787 25.1667 35.9787 26.9959C35.9787 27.4421 36.09 27.8325 36.502 28.0555C36.914 28.2898 37.2926 28.1782 37.6711 27.944C38.8848 27.1744 40.2877 27.3863 41.2342 28.4682C42.4255 29.8402 42.4033 32.1045 41.2008 33.4541C40.2655 34.4914 38.8625 34.7033 37.6934 33.956C37.3148 33.7106 36.9474 33.5879 36.5243 33.811C36.09 34.0452 35.9787 34.4356 35.9787 34.9041C35.9898 36.7222 35.9787 38.5515 35.9787 40.3696C35.9787 40.9384 36.0455 41.0054 36.6022 41.0054C38.4283 41.0054 40.2655 41.0165 42.0915 41.0054C42.9155 41.0054 43.5724 41.2842 43.9732 42.0204C44.3741 42.7565 44.2739 43.4704 43.8173 44.1619C43.3386 44.8869 43.4165 45.6789 43.9844 46.3147C44.9976 47.4301 47.0352 47.4412 48.0484 46.3258C48.6274 45.69 48.7165 44.8869 48.2377 44.1731C47.7701 43.4704 47.6699 42.7454 48.0818 41.9981C48.4938 41.2619 49.1619 40.9942 49.9747 41.0054C51.7562 41.0165 53.5266 41.0054 55.3081 41.0054C56.043 41.0054 56.0652 40.983 56.0652 40.2692C56.0652 34.8149 56.0652 29.3717 56.0652 23.9174C56.0652 22.0435 54.9184 20.8835 53.0478 20.8835C50.3755 20.8835 47.681 20.8835 44.9865 20.8835Z"/>
</mask>
<path d="M35.0545 41.0054C35.0545 38.9196 35.0434 36.8561 35.0545 34.7926C35.0545 33.6437 35.8117 32.796 36.8806 32.7848C37.2814 32.7848 37.7379 32.9187 38.0942 33.1195C39.1297 33.7106 40.0984 33.5099 40.7442 32.5172C41.39 31.5021 41.3232 30.041 40.5661 29.1375C39.9092 28.3567 39.0073 28.2005 38.161 28.7471C37.4818 29.1933 36.7804 29.2825 36.0678 28.8809C35.344 28.4906 35.0545 27.8436 35.0545 27.0294C35.0657 25.1555 35.0545 23.2816 35.0545 21.4078C35.0545 20.4262 35.5445 19.9354 36.5131 19.9354C42.0581 19.9354 47.6142 19.9354 53.1592 19.9354C55.4306 19.9354 57.0005 21.5193 57.0005 23.7836C57.0005 29.3271 57.0005 34.8706 56.9894 40.4142C56.9894 40.7153 56.8781 41.0165 56.8224 41.3065C56.8113 41.3957 56.789 41.485 56.8001 41.5631C56.8558 41.9423 56.9894 42.3215 56.9894 42.7008C57.0005 48.1885 57.0005 53.6875 57.0005 59.1752C57.0005 61.0826 55.8203 62.5549 54.0165 62.9118C53.727 62.9676 53.4264 62.9788 53.1369 62.9788C47.6142 62.9788 42.0915 62.9788 36.5688 62.9788C36.2682 62.9788 35.9676 62.8672 35.6669 62.8114C35.5779 62.8003 35.4888 62.778 35.4108 62.7891C35.0323 62.8449 34.6537 62.9788 34.2751 62.9788C28.797 62.9899 23.3077 62.9899 17.8295 62.9899C15.9812 62.9899 14.556 61.8857 14.1329 60.1568C14.055 59.8333 14.0216 59.4875 14.0216 59.1529C14.0104 53.6094 14.0216 48.0658 14.0216 42.5223C14.0216 41.4961 14.5115 41.0054 15.5247 41.0054C17.373 41.0054 19.2102 40.9942 21.0585 41.0054C21.5039 41.0054 21.8936 40.905 22.1274 40.4923C22.3724 40.0573 22.2499 39.678 21.9938 39.2876C21.2033 38.0607 21.4928 36.5661 22.6619 35.6403C23.9869 34.5918 26.0356 34.603 27.3606 35.6514C28.5409 36.5884 28.797 38.0607 27.9842 39.3323C27.7503 39.7003 27.6501 40.0684 27.8728 40.47C28.0844 40.8715 28.4407 41.0054 28.886 41.0054C30.9348 41.0054 32.9724 41.0054 35.0545 41.0054ZM56.0764 50.9213C56.0764 48.1328 56.0764 45.3331 56.0764 42.5446C56.0764 42.0204 55.9873 41.9423 55.464 41.9423C53.6157 41.9423 51.7785 41.9423 49.9302 41.9423C49.4737 41.9423 49.1062 42.0761 48.8835 42.5C48.672 42.9015 48.7833 43.2696 49.0171 43.6377C49.7966 44.8535 49.5627 46.3035 48.4604 47.2404C47.102 48.3893 44.9308 48.3782 43.5724 47.2293C42.4812 46.3035 42.2474 44.8646 43.0157 43.66C43.2606 43.2808 43.372 42.9015 43.1493 42.4888C42.9155 42.0538 42.5258 41.9423 42.0581 41.9423C40.2432 41.9534 38.4283 41.9423 36.6022 41.9423C36.0455 41.9423 35.9676 42.0204 35.9676 42.5669C35.9676 44.4185 35.9564 46.2589 35.9676 48.1105C35.9676 48.9247 35.6781 49.5605 34.9543 49.9509C34.2417 50.3413 33.5291 50.252 32.861 49.8059C32.0594 49.2705 31.1909 49.3932 30.5339 50.107C29.5987 51.122 29.6098 52.9178 30.5562 53.9217C31.202 54.6132 32.0482 54.7248 32.8499 54.2005C33.5291 53.7655 34.2306 53.6652 34.9432 54.0444C35.6781 54.4459 35.9676 55.0929 35.9676 55.9183C35.9564 57.7364 35.9676 59.5545 35.9676 61.3837C35.9676 61.986 36.0344 62.0641 36.6356 62.0641C42.1138 62.0641 47.5919 62.0641 53.0701 62.0641C54.9073 62.0641 56.0652 60.893 56.0652 59.0414C56.0764 56.3533 56.0764 53.6317 56.0764 50.9213ZM14.9568 50.9547C14.9568 53.6986 14.9568 56.4314 14.9568 59.1752C14.9568 60.8706 16.126 62.0753 17.8184 62.0753C23.3634 62.0864 28.9194 62.0753 34.4644 62.0753C34.9655 62.0753 35.0545 61.986 35.0545 61.4841C35.0545 59.6326 35.0545 57.7921 35.0545 55.9406C35.0545 55.4944 34.9432 55.1152 34.5201 54.8809C34.097 54.6579 33.7295 54.7806 33.351 55.0148C32.1484 55.7844 30.7232 55.5502 29.7879 54.4571C28.6522 53.1186 28.63 50.9436 29.7545 49.5939C30.6787 48.4674 32.1484 48.222 33.3398 48.9916C33.7184 49.237 34.097 49.3597 34.5089 49.1366C34.9432 48.9135 35.0545 48.512 35.0545 48.0435C35.0434 46.2031 35.0545 44.3739 35.0545 42.5335C35.0545 41.9981 34.9766 41.9311 34.4421 41.9311C32.5938 41.9311 30.7566 41.92 28.9083 41.9311C28.0955 41.9311 27.4608 41.6411 27.06 40.9161C26.6703 40.2023 26.7594 39.4884 27.1936 38.808C27.7392 37.9603 27.5944 37.0791 26.8373 36.4211C25.8352 35.5622 24.1428 35.5622 23.1407 36.4434C22.4058 37.0903 22.2722 37.9826 22.8066 38.7969C23.252 39.4773 23.3411 40.18 22.9625 40.905C22.5617 41.6411 21.9047 41.9311 21.0808 41.92C19.2547 41.9088 17.4176 41.92 15.5804 41.92C15.0237 41.92 14.9568 41.9869 14.9568 42.5558C14.9568 45.3666 14.9568 48.1551 14.9568 50.9547ZM44.9865 20.8835C42.1806 20.8835 39.3858 20.8835 36.58 20.8835C36.0566 20.8835 35.9787 20.9727 35.9787 21.497C35.9787 23.3262 35.9787 25.1667 35.9787 26.9959C35.9787 27.4421 36.09 27.8325 36.502 28.0555C36.914 28.2898 37.2926 28.1782 37.6711 27.944C38.8848 27.1744 40.2877 27.3863 41.2342 28.4682C42.4255 29.8402 42.4033 32.1045 41.2008 33.4541C40.2655 34.4914 38.8625 34.7033 37.6934 33.956C37.3148 33.7106 36.9474 33.5879 36.5243 33.811C36.09 34.0452 35.9787 34.4356 35.9787 34.9041C35.9898 36.7222 35.9787 38.5515 35.9787 40.3696C35.9787 40.9384 36.0455 41.0054 36.6022 41.0054C38.4283 41.0054 40.2655 41.0165 42.0915 41.0054C42.9155 41.0054 43.5724 41.2842 43.9732 42.0204C44.3741 42.7565 44.2739 43.4704 43.8173 44.1619C43.3386 44.8869 43.4165 45.6789 43.9844 46.3147C44.9976 47.4301 47.0352 47.4412 48.0484 46.3258C48.6274 45.69 48.7165 44.8869 48.2377 44.1731C47.7701 43.4704 47.6699 42.7454 48.0818 41.9981C48.4938 41.2619 49.1619 40.9942 49.9747 41.0054C51.7562 41.0165 53.5266 41.0054 55.3081 41.0054C56.043 41.0054 56.0652 40.983 56.0652 40.2692C56.0652 34.8149 56.0652 29.3717 56.0652 23.9174C56.0652 22.0435 54.9184 20.8835 53.0478 20.8835C50.3755 20.8835 47.681 20.8835 44.9865 20.8835Z" fill="#334FED"/>
<path d="M35.0545 41.0054C35.0545 38.9196 35.0434 36.8561 35.0545 34.7926C35.0545 33.6437 35.8117 32.796 36.8806 32.7848C37.2814 32.7848 37.7379 32.9187 38.0942 33.1195C39.1297 33.7106 40.0984 33.5099 40.7442 32.5172C41.39 31.5021 41.3232 30.041 40.5661 29.1375C39.9092 28.3567 39.0073 28.2005 38.161 28.7471C37.4818 29.1933 36.7804 29.2825 36.0678 28.8809C35.344 28.4906 35.0545 27.8436 35.0545 27.0294C35.0657 25.1555 35.0545 23.2816 35.0545 21.4078C35.0545 20.4262 35.5445 19.9354 36.5131 19.9354C42.0581 19.9354 47.6142 19.9354 53.1592 19.9354C55.4306 19.9354 57.0005 21.5193 57.0005 23.7836C57.0005 29.3271 57.0005 34.8706 56.9894 40.4142C56.9894 40.7153 56.8781 41.0165 56.8224 41.3065C56.8113 41.3957 56.789 41.485 56.8001 41.5631C56.8558 41.9423 56.9894 42.3215 56.9894 42.7008C57.0005 48.1885 57.0005 53.6875 57.0005 59.1752C57.0005 61.0826 55.8203 62.5549 54.0165 62.9118C53.727 62.9676 53.4264 62.9788 53.1369 62.9788C47.6142 62.9788 42.0915 62.9788 36.5688 62.9788C36.2682 62.9788 35.9676 62.8672 35.6669 62.8114C35.5779 62.8003 35.4888 62.778 35.4108 62.7891C35.0323 62.8449 34.6537 62.9788 34.2751 62.9788C28.797 62.9899 23.3077 62.9899 17.8295 62.9899C15.9812 62.9899 14.556 61.8857 14.1329 60.1568C14.055 59.8333 14.0216 59.4875 14.0216 59.1529C14.0104 53.6094 14.0216 48.0658 14.0216 42.5223C14.0216 41.4961 14.5115 41.0054 15.5247 41.0054C17.373 41.0054 19.2102 40.9942 21.0585 41.0054C21.5039 41.0054 21.8936 40.905 22.1274 40.4923C22.3724 40.0573 22.2499 39.678 21.9938 39.2876C21.2033 38.0607 21.4928 36.5661 22.6619 35.6403C23.9869 34.5918 26.0356 34.603 27.3606 35.6514C28.5409 36.5884 28.797 38.0607 27.9842 39.3323C27.7503 39.7003 27.6501 40.0684 27.8728 40.47C28.0844 40.8715 28.4407 41.0054 28.886 41.0054C30.9348 41.0054 32.9724 41.0054 35.0545 41.0054ZM56.0764 50.9213C56.0764 48.1328 56.0764 45.3331 56.0764 42.5446C56.0764 42.0204 55.9873 41.9423 55.464 41.9423C53.6157 41.9423 51.7785 41.9423 49.9302 41.9423C49.4737 41.9423 49.1062 42.0761 48.8835 42.5C48.672 42.9015 48.7833 43.2696 49.0171 43.6377C49.7966 44.8535 49.5627 46.3035 48.4604 47.2404C47.102 48.3893 44.9308 48.3782 43.5724 47.2293C42.4812 46.3035 42.2474 44.8646 43.0157 43.66C43.2606 43.2808 43.372 42.9015 43.1493 42.4888C42.9155 42.0538 42.5258 41.9423 42.0581 41.9423C40.2432 41.9534 38.4283 41.9423 36.6022 41.9423C36.0455 41.9423 35.9676 42.0204 35.9676 42.5669C35.9676 44.4185 35.9564 46.2589 35.9676 48.1105C35.9676 48.9247 35.6781 49.5605 34.9543 49.9509C34.2417 50.3413 33.5291 50.252 32.861 49.8059C32.0594 49.2705 31.1909 49.3932 30.5339 50.107C29.5987 51.122 29.6098 52.9178 30.5562 53.9217C31.202 54.6132 32.0482 54.7248 32.8499 54.2005C33.5291 53.7655 34.2306 53.6652 34.9432 54.0444C35.6781 54.4459 35.9676 55.0929 35.9676 55.9183C35.9564 57.7364 35.9676 59.5545 35.9676 61.3837C35.9676 61.986 36.0344 62.0641 36.6356 62.0641C42.1138 62.0641 47.5919 62.0641 53.0701 62.0641C54.9073 62.0641 56.0652 60.893 56.0652 59.0414C56.0764 56.3533 56.0764 53.6317 56.0764 50.9213ZM14.9568 50.9547C14.9568 53.6986 14.9568 56.4314 14.9568 59.1752C14.9568 60.8706 16.126 62.0753 17.8184 62.0753C23.3634 62.0864 28.9194 62.0753 34.4644 62.0753C34.9655 62.0753 35.0545 61.986 35.0545 61.4841C35.0545 59.6326 35.0545 57.7921 35.0545 55.9406C35.0545 55.4944 34.9432 55.1152 34.5201 54.8809C34.097 54.6579 33.7295 54.7806 33.351 55.0148C32.1484 55.7844 30.7232 55.5502 29.7879 54.4571C28.6522 53.1186 28.63 50.9436 29.7545 49.5939C30.6787 48.4674 32.1484 48.222 33.3398 48.9916C33.7184 49.237 34.097 49.3597 34.5089 49.1366C34.9432 48.9135 35.0545 48.512 35.0545 48.0435C35.0434 46.2031 35.0545 44.3739 35.0545 42.5335C35.0545 41.9981 34.9766 41.9311 34.4421 41.9311C32.5938 41.9311 30.7566 41.92 28.9083 41.9311C28.0955 41.9311 27.4608 41.6411 27.06 40.9161C26.6703 40.2023 26.7594 39.4884 27.1936 38.808C27.7392 37.9603 27.5944 37.0791 26.8373 36.4211C25.8352 35.5622 24.1428 35.5622 23.1407 36.4434C22.4058 37.0903 22.2722 37.9826 22.8066 38.7969C23.252 39.4773 23.3411 40.18 22.9625 40.905C22.5617 41.6411 21.9047 41.9311 21.0808 41.92C19.2547 41.9088 17.4176 41.92 15.5804 41.92C15.0237 41.92 14.9568 41.9869 14.9568 42.5558C14.9568 45.3666 14.9568 48.1551 14.9568 50.9547ZM44.9865 20.8835C42.1806 20.8835 39.3858 20.8835 36.58 20.8835C36.0566 20.8835 35.9787 20.9727 35.9787 21.497C35.9787 23.3262 35.9787 25.1667 35.9787 26.9959C35.9787 27.4421 36.09 27.8325 36.502 28.0555C36.914 28.2898 37.2926 28.1782 37.6711 27.944C38.8848 27.1744 40.2877 27.3863 41.2342 28.4682C42.4255 29.8402 42.4033 32.1045 41.2008 33.4541C40.2655 34.4914 38.8625 34.7033 37.6934 33.956C37.3148 33.7106 36.9474 33.5879 36.5243 33.811C36.09 34.0452 35.9787 34.4356 35.9787 34.9041C35.9898 36.7222 35.9787 38.5515 35.9787 40.3696C35.9787 40.9384 36.0455 41.0054 36.6022 41.0054C38.4283 41.0054 40.2655 41.0165 42.0915 41.0054C42.9155 41.0054 43.5724 41.2842 43.9732 42.0204C44.3741 42.7565 44.2739 43.4704 43.8173 44.1619C43.3386 44.8869 43.4165 45.6789 43.9844 46.3147C44.9976 47.4301 47.0352 47.4412 48.0484 46.3258C48.6274 45.69 48.7165 44.8869 48.2377 44.1731C47.7701 43.4704 47.6699 42.7454 48.0818 41.9981C48.4938 41.2619 49.1619 40.9942 49.9747 41.0054C51.7562 41.0165 53.5266 41.0054 55.3081 41.0054C56.043 41.0054 56.0652 40.983 56.0652 40.2692C56.0652 34.8149 56.0652 29.3717 56.0652 23.9174C56.0652 22.0435 54.9184 20.8835 53.0478 20.8835C50.3755 20.8835 47.681 20.8835 44.9865 20.8835Z" stroke="#334FED" stroke-width="0.4" mask="url(#path-2-outside-1)"/>
<path d="M21.3694 3.94706L21.3806 3.95239L21.3901 3.96027C21.498 4.04953 21.6112 4.13921 21.7256 4.22989C21.9489 4.4068 22.177 4.58756 22.3803 4.77659L22.3803 4.77659L22.3812 4.77747C22.7758 5.15395 23.1587 5.54626 23.5413 5.93815C23.7464 6.14825 23.9513 6.35823 24.1579 6.56559L24.158 6.56563C25.8222 8.23807 27.4877 9.90804 29.1532 11.5781L29.1533 11.5782C30.8188 13.2481 32.4843 14.9182 34.1486 16.5906C34.4916 16.9307 34.6851 17.2954 34.7051 17.665C34.7253 18.0367 34.5689 18.3944 34.2504 18.7161L34.2504 18.7162C32.8536 20.1245 31.4521 21.5177 30.0407 22.9057L30.0406 22.9059C29.5303 23.4058 28.8949 23.5797 28.1968 23.4278L28.1961 23.4277C27.7508 23.3273 27.4006 23.1271 27.1368 22.8389C26.8737 22.5514 26.7015 22.1817 26.6024 21.7495L26.6022 21.7484C26.4895 21.231 26.2418 20.8477 25.9013 20.6156C25.5611 20.3836 25.1174 20.2952 24.5985 20.3876L24.5981 20.3877C23.4763 20.5821 22.7218 21.2651 22.3632 22.3321C22.1674 22.9194 22.2136 23.4682 22.4513 23.8928C22.6884 24.3165 23.1224 24.6278 23.7252 24.7303L23.7264 24.7305C24.5128 24.8741 25.0429 25.39 25.2615 26.1595C25.4805 26.9305 25.2913 27.6278 24.7246 28.1876C23.3744 29.5311 22.0292 30.8648 20.6842 32.1983L20.6828 32.1997L20.6823 32.2002C20.3039 32.5696 19.9284 32.7704 19.5413 32.7705C19.1537 32.7707 18.7807 32.5698 18.4073 32.1959L18.407 32.1956C17.1046 30.8804 15.7923 29.5601 14.48 28.2396L14.4788 28.2385L14.478 28.2377C14.3244 28.0796 14.1691 27.9661 14.0044 27.9073C13.8418 27.8493 13.6636 27.8421 13.4579 27.907C13.2583 27.9701 13.116 28.0732 13.013 28.2074C12.9089 28.3428 12.8411 28.5152 12.8 28.7216L12.7997 28.7231C12.496 30.1351 11.3691 31.0248 9.92341 30.9506L9.9231 30.9505C8.34319 30.8645 7.21713 30.0203 6.55416 28.6253L6.55409 28.6252C5.62357 26.6598 6.6502 24.6313 8.58744 24.3197C8.96215 24.2577 9.20056 24.02 9.28654 23.7307C9.37303 23.4397 9.30733 23.0881 9.05191 22.7994C9.02226 22.7665 8.99115 22.7356 8.95776 22.7026L8.95685 22.7016C8.92472 22.6698 8.89044 22.6358 8.85716 22.5991C7.83579 21.5641 6.80471 20.5323 5.77665 19.5035C5.52891 19.2556 5.28135 19.0078 5.03414 18.7602C4.65121 18.3816 4.44394 18.0034 4.444 17.6113C4.44406 17.2193 4.65144 16.8407 5.03492 16.4613C5.7786 15.7182 6.52345 14.9788 7.26817 14.2396L7.26835 14.2394C8.01323 13.5 8.75796 12.7608 9.50149 12.0178L9.50183 12.0174C11.955 9.58987 14.3931 7.16705 16.8364 4.7343L16.8365 4.73424C18.0855 3.49298 19.8304 3.21295 21.3694 3.94706ZM22.6034 25.5704L22.5936 25.5675L22.5847 25.5627C21.248 24.8432 20.7181 23.2631 21.3813 21.7107C21.9565 20.3546 22.9986 19.4896 24.4839 19.2575C26.0571 19.0087 27.3743 19.9409 27.7183 21.4806L27.7184 21.4809C27.8083 21.8888 27.9823 22.1825 28.3687 22.2943C28.564 22.3498 28.738 22.3438 28.8981 22.2905C29.0597 22.2367 29.213 22.1326 29.3624 21.9832C30.2395 21.1 31.1257 20.2211 32.0116 19.3426C32.4542 18.9036 32.8967 18.4647 33.3381 18.0254C33.4178 17.9432 33.4736 17.8789 33.5097 17.8241C33.5455 17.7698 33.5572 17.7319 33.5579 17.7016C33.5587 17.6721 33.5494 17.6365 33.5169 17.5861C33.4836 17.5344 33.4299 17.4734 33.3501 17.395L33.3493 17.3942C32.348 16.3879 31.3464 15.3807 30.3443 14.3731C27.3956 11.4079 24.4435 8.43939 21.4856 5.48183C20.3817 4.38962 18.7486 4.4321 17.6111 5.56834L17.6108 5.56865C15.3592 7.79786 13.1175 10.0271 10.8769 12.2553C9.54391 13.5809 8.2113 14.9062 6.87722 16.2308C6.58327 16.5305 6.27442 16.8349 5.96629 17.1385C5.83327 17.2725 5.73935 17.3676 5.6779 17.4458C5.61621 17.5244 5.60068 17.5698 5.60097 17.6037C5.60126 17.6381 5.61803 17.685 5.68213 17.7661C5.74579 17.8466 5.84305 17.9452 5.98095 18.0833L5.98097 18.0833C6.37211 18.4752 6.76383 18.8663 7.15539 19.2573C8.06275 20.1633 8.96927 21.0685 9.86577 21.9806L9.86597 21.9808C10.7502 22.8856 10.6881 24.2649 9.71486 25.017C9.44764 25.224 9.10207 25.3577 8.77569 25.444L8.77421 25.4443C8.24493 25.5756 7.85454 25.8349 7.61961 26.186C7.385 26.5366 7.29798 26.9897 7.39598 27.5234L7.39602 27.5237C7.59666 28.6317 8.56745 29.5961 9.66968 29.7813L9.67034 29.7814C10.1974 29.8736 10.6492 29.7884 10.9965 29.5592C11.3436 29.3303 11.5973 28.9504 11.7151 28.4325C11.8007 28.0304 11.9561 27.684 12.1942 27.4076C12.433 27.1305 12.7508 26.9286 13.153 26.8102C13.9815 26.5659 14.6829 26.8279 15.2735 27.4201L15.2738 27.4203C16.5764 28.7358 17.8743 30.0363 19.1822 31.342L19.1828 31.3426C19.2834 31.4449 19.3595 31.5161 19.4231 31.5619C19.4863 31.6074 19.5276 31.6206 19.5594 31.6211C19.5908 31.6216 19.6305 31.61 19.6913 31.5676C19.7529 31.5247 19.8261 31.4575 19.9234 31.3606L19.9235 31.3605C20.3925 30.8952 20.861 30.4277 21.33 29.9597C22.1552 29.1362 22.9818 28.3115 23.8139 27.4953L23.8149 27.4943C24.1255 27.1979 24.2914 26.8834 24.1776 26.4789C24.1171 26.265 24.0065 26.1165 23.8608 26.0102C23.713 25.9025 23.5242 25.8348 23.3035 25.7929L23.3022 25.7927C23.1757 25.7669 23.0549 25.7271 22.9399 25.6863C22.9111 25.6761 22.8828 25.666 22.8549 25.6559C22.7693 25.6251 22.6871 25.5955 22.6034 25.5704ZM24.0871 6.63615L24.0871 6.63614L24.0871 6.63615Z" fill="#334FED" stroke="#334FED" stroke-width="0.2"/>
</svg>
