<svg width="37" height="35" viewBox="0 0 37 35" fill="none" xmlns="http://www.w3.org/2000/svg">
<path d="M31.3158 0H5.52632C4.06065 0 2.65501 0.582235 1.61862 1.61862C0.582235 2.65501 0 4.06065 0 5.52632V22.1053C0 23.5709 0.582235 24.9766 1.61862 26.013C2.65501 27.0493 4.06065 27.6316 5.52632 27.6316H16.5789V31.3158H11.0526V35H25.7895V31.3158H20.2632V27.6316H31.3158C32.7815 27.6316 34.1871 27.0493 35.2235 26.013C36.2599 24.9766 36.8421 23.5709 36.8421 22.1053V5.52632C36.8421 4.06065 36.2599 2.65501 35.2235 1.61862C34.1871 0.582235 32.7815 0 31.3158 0ZM23.7447 15.6947C22.8197 16.6149 21.5679 17.1314 20.2632 17.1314C18.9584 17.1314 17.7066 16.6149 16.7816 15.6947L15.6211 14.5342C15.3761 14.2912 15.045 14.1549 14.7 14.1549C14.355 14.1549 14.0239 14.2912 13.7789 14.5342L8.67632 19.7289L6.06053 17.1132L11.2553 11.9368C12.1803 11.0167 13.4321 10.5001 14.7368 10.5001C16.0416 10.5001 17.2934 11.0167 18.2184 11.9368L19.3789 13.0974C19.4963 13.2246 19.6387 13.3262 19.7972 13.3957C19.9557 13.4652 20.1269 13.501 20.3 13.501C20.4731 13.501 20.6443 13.4652 20.8028 13.3957C20.9613 13.3262 21.1037 13.2246 21.2211 13.0974L28.2395 6.07895L30.8553 8.69474L23.7447 15.6947Z" fill="url(#paint0_linear)"/>
<defs>
<linearGradient id="paint0_linear" x1="7.89474" y1="4.0446e-07" x2="19.3117" y2="32.2583" gradientUnits="userSpaceOnUse">
<stop stop-color="#34C8DC"/>
<stop offset="1" stop-color="#19CDC2"/>
</linearGradient>
</defs>
</svg>
