<svg width="165" height="80" viewBox="0 0 165 80" fill="none" xmlns="http://www.w3.org/2000/svg">
<g clip-path="url(#clip0)">
<path d="M104.995 39.9893C104.995 43.9886 104.992 47.9883 105 51.9876C105 52.3194 104.885 52.5303 104.589 52.6962C102.094 54.0976 99.6051 55.5083 97.1154 56.9181C95.1064 58.0558 93.0985 59.1949 91.0906 60.3346C88.5739 61.7634 86.0578 63.1942 83.5416 64.6235C83.3905 64.7097 83.2429 64.7997 83.1247 64.9284C83.0623 64.9959 82.992 65.0341 82.9102 64.9621C82.3661 64.486 81.7018 64.1954 81.0818 63.8396C78.8933 62.584 76.6939 61.348 74.4979 60.1051C70.9459 58.0944 67.3934 56.0848 63.8413 54.0736C63.0164 53.6063 62.1955 53.1312 61.3666 52.6707C61.1047 52.5254 61 52.3287 61 52.0366C61.0045 44.0042 61.0045 35.9729 61 27.9416C61 27.6382 61.1122 27.441 61.38 27.2903C63.6438 26.0165 65.9031 24.736 68.1634 23.4564C71.3135 21.6733 74.4645 19.8911 77.6136 18.1066C79.1632 17.2282 80.7093 16.345 82.2569 15.4637C82.386 15.3898 82.5127 15.3125 82.6135 15.2014C82.8578 14.9338 83.1406 14.9338 83.385 15.2019C83.4803 15.3066 83.598 15.3825 83.7202 15.452C86.2802 16.9048 88.8407 18.3571 91.4013 19.8089C93.5314 21.0171 95.6615 22.2252 97.7921 23.4319C100.059 24.7159 102.326 26.0014 104.597 27.2775C104.884 27.4385 104.999 27.6445 104.999 27.9665C104.992 31.9741 104.995 35.9817 104.995 39.9893ZM84.3476 36.6648C84.5745 36.6956 84.7785 36.8048 84.9456 36.9354C85.1451 37.091 85.2992 37.0524 85.4822 36.9452C85.779 36.772 86.0847 36.6124 86.3755 36.4299C86.7001 36.2264 87.0612 36.0815 87.3595 35.8374C88.1894 35.8334 89.0188 35.8261 89.8487 35.829C90.0033 35.8295 90.0587 35.7948 90.0711 35.6313C90.1065 35.1768 90.0776 34.7187 90.1509 34.2666C90.1749 34.2607 90.2018 34.2602 90.2228 34.2485C91.514 33.5194 92.8052 32.7903 94.095 32.0588C95.7717 31.1075 97.447 30.1543 99.1233 29.2021C99.8539 28.7871 100.589 28.379 101.313 27.9533C101.619 27.7732 101.595 27.1528 101.289 26.9756C100.968 26.7897 100.644 26.6091 100.321 26.4271C98.7647 25.5478 97.2061 24.6714 95.6511 23.7896C93.9099 22.8021 92.1733 21.8069 90.4317 20.8199C88.7545 19.8691 87.0692 18.9321 85.3989 17.9705C85.1471 17.8252 84.967 17.8418 84.7426 17.9842C84.4279 18.1839 84.0738 18.2994 83.7097 18.384C83.3162 18.4755 82.9167 18.4114 82.5207 18.4305C81.9526 18.4579 81.4494 18.2548 80.9686 17.9911C80.8369 17.9187 80.7382 17.8986 80.6065 17.9744C80.1497 18.2372 79.6873 18.4917 79.2285 18.7515C78.0744 19.4052 76.9218 20.0614 75.7682 20.7152C74.679 21.3327 73.5887 21.9488 72.4985 22.5648C71.2576 23.266 70.0147 23.9643 68.7749 24.667C67.6567 25.3002 66.546 25.9466 65.4223 26.5705C64.7436 26.9472 64.7401 26.9331 64.7396 27.6891C64.7396 27.9112 64.8263 28.0443 65.0248 28.1539C65.9914 28.6873 66.952 29.2314 67.9126 29.7756C68.9878 30.3848 70.0596 30.9989 71.1339 31.6091C72.3728 32.3132 73.6122 33.0159 74.851 33.7191C74.7518 33.7225 74.6525 33.7288 74.5533 33.7288C73.277 33.7293 72.0002 33.7332 70.724 33.7249C70.5404 33.7239 70.4726 33.765 70.4871 33.9525C70.5015 34.1379 70.4826 34.3253 70.4786 34.5123C70.297 34.4149 70.113 34.3214 69.934 34.2196C68.8078 33.583 67.6826 32.9454 66.5575 32.3073C65.5615 31.7422 64.5645 31.1789 63.5715 30.6084C63.397 30.5081 63.2648 30.5056 63.1087 30.6475C62.996 30.7503 62.8513 30.8369 62.7052 30.8814C62.4114 30.9715 62.3466 31.1579 62.3466 31.4373C62.3526 37.1952 62.3511 42.9532 62.3511 48.7106C62.3511 48.7678 62.3501 48.8246 62.3516 48.8814C62.3561 49.0477 62.4174 49.1666 62.5855 49.2444C62.8628 49.3727 63.1201 49.5434 63.3476 49.7426C64.18 50.4722 64.6628 51.3657 64.5874 52.4882C64.565 52.8239 64.7076 53.0079 64.9924 53.163C65.9256 53.6724 66.8497 54.1979 67.7739 54.7225C69.0851 55.4663 70.3923 56.2174 71.704 56.9607C73.2596 57.8424 74.8181 58.7183 76.3742 59.5981C77.7657 60.385 79.1542 61.1762 80.5477 61.9596C81.008 62.2185 81.5776 61.8794 81.5776 61.3568C81.5776 55.5176 81.5766 49.6785 81.5821 43.8388C81.5826 43.5697 81.4913 43.4156 81.2454 43.281C80.4005 42.8191 79.7711 42.1639 79.4759 41.2371C80.0524 40.6504 80.436 39.9668 80.5916 39.1594C80.7302 38.4416 80.7347 37.7242 80.6399 37.0034C80.7741 37.0895 80.8833 37.0269 81.0035 36.9599C81.2294 36.8341 81.4399 36.6682 81.7177 36.6604C81.7202 36.7255 81.7242 36.7906 81.7242 36.8552C81.7247 40.4042 81.7262 43.9529 81.7202 47.5019C81.7197 47.6967 81.7546 47.7657 81.9721 47.7603C82.6519 47.7447 83.3326 47.7437 84.0124 47.7603C84.2613 47.7662 84.3431 47.7148 84.3411 47.4506C84.3276 45.6601 84.3336 43.8692 84.3356 42.0787C84.3356 41.9701 84.2773 41.8248 84.4952 41.8292C85.0837 41.8404 85.6727 41.8394 86.2612 41.8434C85.8897 42.457 85.4019 42.9595 84.7511 43.2839C84.4967 43.4107 84.4159 43.5751 84.4159 43.8428C84.4214 48.9166 84.4199 53.9899 84.4199 59.0638C84.4199 59.8536 84.4184 60.6438 84.4204 61.4336C84.4214 61.736 84.9466 62.1412 85.2433 62.0717C85.2747 62.0643 85.3047 62.0482 85.3326 62.0321C86.5156 61.3622 87.6976 60.6903 88.8806 60.0209C90.0352 59.3677 91.1913 58.7178 92.3459 58.0646C93.4646 57.4319 94.5822 56.7972 95.6999 56.1626C96.7029 55.5935 97.7059 55.0239 98.7088 54.4538C99.5323 53.986 100.355 53.5158 101.18 53.0504C101.344 52.9584 101.411 52.8273 101.405 52.6487C101.401 52.5347 101.402 52.4207 101.404 52.3067C101.43 50.9189 102.111 49.9236 103.327 49.2655C103.531 49.1554 103.602 49.0428 103.602 48.8168C103.596 42.9776 103.596 37.1385 103.602 31.2993C103.602 31.0395 103.571 30.8487 103.29 30.7513C103.17 30.7097 103.059 30.6206 102.964 30.5325C102.864 30.4396 102.78 30.4557 102.675 30.5105C102.245 30.7361 101.819 30.97 101.393 31.2015C100.335 31.775 99.2939 32.3773 98.2535 32.9811C97.9213 33.1739 97.5528 33.3114 97.269 33.5816C97.1198 33.5752 96.9707 33.5742 96.8221 33.5625C95.8914 33.4891 94.9643 33.5018 94.0551 33.7328C92.2955 34.18 91.0397 35.2355 90.8861 37.1478C90.3714 37.4423 89.8582 37.7384 89.3425 38.031C88.5475 38.4822 87.751 38.9309 86.9545 39.3796C86.7944 39.4696 86.6677 39.5763 86.7081 39.7828C85.9695 39.7852 85.2313 39.7867 84.4927 39.7926C84.3795 39.7936 84.3296 39.7652 84.3306 39.6429C84.3406 38.6505 84.3431 37.6576 84.3476 36.6648Z" fill="#344154"/>
<path d="M81.7179 36.6606C81.4401 36.6684 81.2291 36.8348 81.0037 36.9601C80.8835 37.0271 80.7743 37.0897 80.6401 37.0036C80.5499 36.6582 80.4611 36.3122 80.2915 35.9927C79.689 34.8599 78.692 34.2585 77.4631 33.9669C76.6043 33.7628 75.729 33.733 74.8517 33.7197C73.6124 33.0166 72.373 32.3139 71.1346 31.6098C70.0603 30.9991 68.988 30.3855 67.9132 29.7763C66.9527 29.2321 65.9926 28.6875 65.0255 28.1546C64.827 28.045 64.7397 27.9114 64.7402 27.6898C64.7407 26.9337 64.7442 26.9479 65.423 26.5712C66.5467 25.9473 67.6574 25.3013 68.7756 24.6677C70.0159 23.965 71.2583 23.2667 72.4992 22.5655C73.5894 21.9495 74.6797 21.3334 75.7689 20.7159C76.923 20.0621 78.0756 19.4059 79.2292 18.7522C79.688 18.4924 80.1499 18.2379 80.6072 17.9751C80.7389 17.8993 80.8376 17.9193 80.9693 17.9918C81.4496 18.255 81.9533 18.4581 82.5214 18.4312C82.9174 18.4121 83.3169 18.4762 83.7104 18.3847C84.0745 18.3 84.4281 18.1846 84.7433 17.9849C84.9677 17.8425 85.1473 17.8259 85.3996 17.9712C87.0699 18.9327 88.7552 19.8703 90.4324 20.8206C92.174 21.8075 93.9106 22.8028 95.6518 23.7903C97.2068 24.6726 98.7654 25.5489 100.322 26.4278C100.645 26.6103 100.969 26.7909 101.29 26.9763C101.595 27.1535 101.62 27.7739 101.313 27.954C100.589 28.3797 99.8542 28.7873 99.124 29.2028C97.4477 30.155 95.7725 31.1087 94.0957 32.0595C92.8059 32.791 91.5142 33.5201 90.2234 34.2492C90.203 34.2609 90.1756 34.2614 90.1516 34.2673C90.1491 34.2189 90.1446 34.1699 90.1451 34.1215C90.1501 33.7741 90.1506 33.7741 89.7985 33.7741C87.1926 33.7741 84.5862 33.7765 81.9802 33.7692C81.7728 33.7687 81.7184 33.8205 81.7209 34.0241C81.7294 34.9024 81.7204 35.7818 81.7179 36.6606Z" fill="#4B5769"/>
<path d="M97.2701 33.5817C97.5539 33.3116 97.9224 33.1741 98.2546 32.9813C99.295 32.378 100.336 31.7756 101.394 31.2016C101.82 30.9702 102.246 30.7363 102.676 30.5107C102.781 30.4554 102.865 30.4397 102.965 30.5327C103.06 30.6208 103.171 30.7093 103.291 30.7514C103.572 30.8488 103.604 31.0396 103.603 31.2995C103.596 37.1386 103.597 42.9778 103.603 48.8169C103.604 49.0425 103.532 49.155 103.328 49.2656C102.112 49.9238 101.431 50.9191 101.405 52.3068C101.403 52.4208 101.402 52.5348 101.406 52.6489C101.412 52.8279 101.345 52.9586 101.181 53.0506C100.356 53.5159 99.5334 53.9862 98.7099 54.454C97.707 55.0236 96.704 55.5931 95.701 56.1627C94.5833 56.7969 93.4657 57.4315 92.347 58.0647C91.1924 58.718 90.0363 59.3678 88.8817 60.0211C87.6987 60.6905 86.5167 61.3618 85.3337 62.0322C85.3053 62.0483 85.2753 62.0645 85.2444 62.0718C84.9482 62.1413 84.4225 61.7362 84.4215 61.4338C84.4195 60.644 84.421 59.8537 84.421 59.0639C84.421 53.9901 84.4225 48.9167 84.417 43.8429C84.4165 43.5752 84.4978 43.4108 84.7521 43.2841C85.403 42.9597 85.8908 42.4566 86.2623 41.8435C86.3531 41.8401 86.4444 41.8332 86.5352 41.8332C87.5396 41.8323 88.5446 41.8283 89.549 41.8367C89.7351 41.8381 89.7929 41.7872 89.7889 41.6037C89.7775 41.0826 89.7745 40.561 89.7899 40.0399C89.7964 39.8309 89.7266 39.7854 89.5246 39.7869C88.5865 39.7947 87.6488 39.7864 86.7107 39.7834C86.6703 39.5769 86.797 39.4703 86.9571 39.3802C87.7536 38.9315 88.5501 38.4823 89.3451 38.0316C89.8608 37.739 90.3745 37.443 90.8887 37.1484C90.8897 37.2213 90.8932 37.2947 90.8912 37.3676C90.8413 39.0602 91.6258 40.2449 93.1749 40.9539C93.936 41.3023 94.7489 41.5059 95.5489 41.7461C96.1494 41.9262 96.7614 42.0676 97.3065 42.4038C98.5079 43.1451 98.1533 44.9047 97.301 45.4053C96.6706 45.7758 95.9943 45.8521 95.2921 45.8257C94.0018 45.7767 92.7993 45.4053 91.6592 44.8269C91.5066 44.7496 91.4403 44.7511 91.3879 44.9356C91.2313 45.4831 91.0597 46.0268 90.8787 46.5675C90.8238 46.7314 90.8548 46.8063 91.0119 46.8895C91.9186 47.3695 92.8796 47.6851 93.8976 47.8304C95.2851 48.0286 96.6636 48.0179 98.0002 47.5535C99.1768 47.1449 100.101 46.4452 100.524 45.2394C100.803 44.4438 100.814 43.6296 100.667 42.806C100.505 41.9047 100.058 41.1854 99.294 40.653C98.7204 40.2537 98.093 39.9625 97.4322 39.7404C96.492 39.4243 95.5419 39.1366 94.6043 38.8131C93.9893 38.6012 93.6452 38.1574 93.6248 37.5076C93.6038 36.8343 93.7769 36.2485 94.4472 35.9119C94.9749 35.6467 95.5439 35.6168 96.1185 35.6207C97.2401 35.6286 98.2965 35.9212 99.3154 36.3557C99.5209 36.4433 99.5942 36.4081 99.671 36.2074C99.8575 35.7206 100.066 35.2415 100.277 34.7644C100.342 34.6176 100.336 34.5403 100.176 34.462C99.6855 34.2208 99.1802 34.0221 98.6536 33.8704C98.1982 33.7402 97.7294 33.6835 97.2701 33.5817Z" fill="#4B5769"/>
<path d="M79.476 41.2378C79.7707 42.1645 80.4006 42.8197 81.2455 43.2817C81.4919 43.4162 81.5827 43.5704 81.5822 43.8395C81.5767 49.6787 81.5782 55.5178 81.5777 61.3574C81.5777 61.8805 81.0081 62.2196 80.5478 61.9603C79.1548 61.1769 77.7658 60.3851 76.3743 59.5988C74.8177 58.719 73.2592 57.8426 71.7041 56.9613C70.3924 56.218 69.0857 55.4669 67.774 54.7231C66.8493 54.1986 65.9257 53.673 64.9925 53.1636C64.7077 53.008 64.5651 52.8245 64.5875 52.4889C64.6628 51.3668 64.1801 50.4728 63.3477 49.7432C63.1202 49.5441 62.8629 49.3738 62.5856 49.2451C62.417 49.1673 62.3557 49.0484 62.3517 48.882C62.3502 48.8253 62.3512 48.768 62.3512 48.7113C62.3512 42.9533 62.3527 37.1954 62.3467 31.438C62.3462 31.1586 62.4115 30.9721 62.7053 30.8821C62.8514 30.8376 62.9965 30.7505 63.1088 30.6482C63.2649 30.5058 63.397 30.5087 63.5716 30.6091C64.5646 31.1796 65.5616 31.7428 66.5576 32.308C67.6827 32.9461 68.8079 33.5837 69.934 34.2203C70.1131 34.3216 70.2971 34.4155 70.4787 34.5129C70.4822 34.9607 70.4881 35.4079 70.4881 35.8556C70.4891 39.7316 70.4906 43.6076 70.4832 47.484C70.4827 47.7145 70.5515 47.7654 70.7734 47.761C71.4622 47.7473 72.151 47.7483 72.8397 47.7605C73.0427 47.7639 73.1045 47.715 73.103 47.5075C73.0941 45.879 73.1006 44.2505 73.0946 42.6216C73.0941 42.4415 73.121 42.3647 73.335 42.3808C74.3783 42.4606 75.4232 42.4826 76.4661 42.3789C77.5743 42.2678 78.6146 41.9771 79.476 41.2378ZM65.7945 40.769C65.7945 42.9998 65.798 45.2307 65.7895 47.461C65.7885 47.6846 65.8259 47.7688 66.0803 47.762C66.7765 47.7424 67.4742 47.7439 68.171 47.7615C68.4014 47.7673 68.4378 47.6939 68.4373 47.4889C68.4303 45.03 68.4328 42.5717 68.4328 40.1128C68.4328 38.0855 68.4288 36.0582 68.4388 34.0314C68.4398 33.8083 68.3745 33.7642 68.162 33.7682C67.4568 33.7814 66.7511 33.7819 66.0463 33.7682C65.8324 33.7638 65.79 33.8308 65.7905 34.0285C65.797 36.275 65.7945 38.522 65.7945 40.769Z" fill="#4B5769"/>
<path d="M79.4758 41.2378C78.6145 41.9771 77.5741 42.2678 76.4669 42.3784C75.424 42.4826 74.3787 42.4606 73.3358 42.3804C73.1223 42.3642 73.0949 42.441 73.0954 42.6211C73.1014 44.2496 73.0949 45.8781 73.1039 47.507C73.1049 47.714 73.0435 47.7635 72.8405 47.76C72.1518 47.7478 71.4625 47.7468 70.7742 47.7605C70.5528 47.7649 70.4835 47.7145 70.484 47.4836C70.492 43.6076 70.49 39.7316 70.489 35.8552C70.489 35.4074 70.4825 34.9602 70.4795 34.5124C70.484 34.326 70.5029 34.1381 70.488 33.9526C70.473 33.7652 70.5413 33.7241 70.7249 33.7251C72.0012 33.7334 73.2779 33.7295 74.5542 33.729C74.6535 33.729 74.7527 33.7227 74.852 33.7192C75.7292 33.7325 76.6045 33.7623 77.4634 33.9664C78.6918 34.2585 79.6888 34.8594 80.2917 35.9922C80.4618 36.3117 80.5501 36.6577 80.6404 37.0031C80.7351 37.7244 80.7306 38.4413 80.592 39.1591C80.4359 39.9675 80.0523 40.6511 79.4758 41.2378ZM78.0688 38.8288C78.1846 38.4134 78.1836 37.9886 78.1257 37.5703C78.0389 36.9429 77.7362 36.4424 77.1646 36.1086C76.7113 35.8439 76.221 35.7074 75.7033 35.6893C74.9577 35.6629 74.2111 35.6692 73.465 35.6643C73.0695 35.6614 73.0695 35.6638 73.1138 36.0714C73.1089 36.4937 73.0999 36.9165 73.0994 37.3388C73.0974 38.3395 73.0979 39.3402 73.1004 40.3408C73.1004 40.4353 73.0515 40.5698 73.234 40.5669C74.2191 40.5508 75.2086 40.6506 76.1866 40.4637C77.1382 40.2816 77.8394 39.8148 78.0688 38.8288Z" fill="#FEFEFE"/>
<path d="M97.2705 33.5818C97.7299 33.6831 98.1987 33.7404 98.6525 33.871C99.1792 34.0227 99.6844 34.2214 100.175 34.4626C100.335 34.5414 100.341 34.6182 100.276 34.765C100.064 35.2421 99.8565 35.7212 99.67 36.2081C99.5932 36.4087 99.5203 36.4439 99.3144 36.3563C98.2954 35.9218 97.2391 35.6292 96.1174 35.6214C95.5424 35.6174 94.9733 35.6473 94.4462 35.9125C93.7763 36.2492 93.6028 36.8349 93.6237 37.5082C93.6442 38.1575 93.9883 38.6014 94.6033 38.8137C95.5409 39.1372 96.491 39.4249 97.4311 39.741C98.092 39.9632 98.7194 40.2538 99.2929 40.6536C100.057 41.186 100.504 41.9053 100.666 42.8066C100.814 43.6297 100.802 44.4444 100.523 45.2401C100.099 46.4458 99.1757 47.146 97.9992 47.5541C96.6621 48.018 95.2835 48.0292 93.8965 47.8311C92.8786 47.6852 91.9175 47.3696 91.0108 46.8901C90.8537 46.8069 90.8228 46.732 90.8777 46.5681C91.0587 46.0279 91.2303 45.4838 91.3869 44.9362C91.4397 44.7517 91.5056 44.7498 91.6582 44.8276C92.7983 45.406 94.0013 45.7774 95.291 45.8263C95.9928 45.8527 96.6695 45.7764 97.3 45.406C98.1523 44.9049 98.5069 43.1458 97.3054 42.4044C96.7608 42.0683 96.1484 41.9268 95.5479 41.7468C94.7479 41.5065 93.9349 41.3029 93.1739 40.9545C91.6248 40.245 90.8408 39.0608 90.8901 37.3683C90.8921 37.2953 90.8886 37.2219 90.8876 37.149C91.0408 35.2367 92.2966 34.1813 94.0566 33.734C94.9658 33.5031 95.8925 33.4903 96.8237 33.5637C96.9723 33.5745 97.1214 33.576 97.2705 33.5818Z" fill="#FEFEFE"/>
<path d="M86.7097 39.7829C87.6478 39.7853 88.5859 39.7941 89.5236 39.7863C89.7256 39.7848 89.7949 39.8304 89.7889 40.0393C89.7734 40.5604 89.7764 41.0821 89.7879 41.6032C89.7919 41.7872 89.734 41.8381 89.548 41.8361C88.5435 41.8278 87.5386 41.8317 86.5341 41.8327C86.4433 41.8327 86.3521 41.8395 86.2613 41.843C85.6728 41.839 85.0838 41.8405 84.4953 41.8288C84.2773 41.8244 84.3362 41.9702 84.3357 42.0783C84.3337 43.8693 84.3277 45.6597 84.3411 47.4502C84.3431 47.7149 84.2614 47.7663 84.0125 47.7599C83.3327 47.7433 82.6519 47.7443 81.9721 47.7599C81.7552 47.7648 81.7203 47.6963 81.7203 47.5015C81.7263 43.9525 81.7248 40.4038 81.7243 36.8548C81.7243 36.7897 81.7198 36.7246 81.7178 36.6595C81.7203 35.7802 81.7292 34.9009 81.7198 34.0215C81.7173 33.8185 81.7716 33.7661 81.9791 33.7666C84.585 33.7739 87.1914 33.7715 89.7974 33.7715C90.1495 33.7715 90.149 33.7715 90.144 34.1189C90.1435 34.1674 90.148 34.2163 90.1505 34.2647C90.0772 34.7169 90.1061 35.1749 90.0707 35.6295C90.0582 35.7924 90.0029 35.8277 89.8482 35.8272C89.0183 35.8242 88.1889 35.8316 87.359 35.8355C86.4004 35.8321 85.4419 35.8296 84.4833 35.8228C84.3591 35.8218 84.3277 35.8741 84.3317 35.9833C84.3407 36.2098 84.3421 36.4364 84.3471 36.6629C84.3426 37.6558 84.3402 38.6491 84.3322 39.642C84.3312 39.7643 84.381 39.7927 84.4943 39.7917C85.2329 39.7868 85.971 39.7858 86.7097 39.7829Z" fill="#FEFEFE"/>
<path d="M84.3478 36.6644C84.3428 36.4379 84.3413 36.2113 84.3324 35.9847C84.3284 35.8756 84.3593 35.8233 84.484 35.8242C85.4426 35.8311 86.4011 35.8335 87.3597 35.837C87.0615 36.0816 86.7004 36.2265 86.3757 36.4295C86.0849 36.6121 85.7792 36.7711 85.4825 36.9448C85.2994 37.0515 85.1453 37.0906 84.9458 36.935C84.7787 36.8044 84.5747 36.6947 84.3478 36.6644Z" fill="#4B5769"/>
<path d="M65.7946 40.7689C65.7946 38.5219 65.797 36.2749 65.7901 34.0279C65.7896 33.8307 65.832 33.7637 66.0459 33.7676C66.7511 33.7813 67.4569 33.7813 68.1616 33.7676C68.374 33.7637 68.4394 33.8077 68.4384 34.0308C68.4284 36.0581 68.4324 38.0854 68.4324 40.1122C68.4324 42.5711 68.4299 45.0294 68.4369 47.4883C68.4374 47.6933 68.401 47.7667 68.1706 47.7609C67.4738 47.7433 66.7761 47.7418 66.0798 47.7614C65.8255 47.7687 65.7886 47.6845 65.7891 47.4604C65.7975 45.2306 65.7946 42.9997 65.7946 40.7689Z" fill="#FEFEFE"/>
<path d="M78.0689 38.8286C77.8395 39.8146 77.1383 40.2815 76.1867 40.4635C75.2086 40.6504 74.2191 40.5506 73.2341 40.5667C73.0516 40.5697 73.1009 40.4351 73.1005 40.3407C73.098 39.34 73.0975 38.3393 73.0995 37.3386C73.1005 36.9159 73.1089 36.4936 73.1139 36.0713C73.5418 36.2093 73.9039 36.4706 74.289 36.6854C75.5548 37.39 76.8096 38.1128 78.0689 38.8286Z" fill="#4B5769"/>
<path d="M78.0687 38.8289C76.8094 38.1131 75.5546 37.3903 74.2892 36.6852C73.9037 36.4709 73.5421 36.2091 73.1142 36.0711C73.0698 35.6635 73.0698 35.661 73.4653 35.664C74.2114 35.6694 74.9581 35.6625 75.7037 35.6889C76.2209 35.707 76.7116 35.8436 77.165 36.1083C77.7366 36.442 78.0393 36.9426 78.1261 37.5699C78.1834 37.9893 78.1844 38.4135 78.0687 38.8289Z" fill="#4B5769"/>
</g>
<defs>
<clipPath id="clip0">
<rect x="61" y="15" width="44" height="50" fill="white"/>
</clipPath>
</defs>
</svg>
