<svg width="165" height="80" viewBox="0 0 165 80" fill="none" xmlns="http://www.w3.org/2000/svg">
<path d="M71.6988 35.6794C71.3485 35.5604 70.6419 35.4472 69.9412 35.4472C67.8332 35.4472 65.6065 37.0905 65.6065 39.2042V49.1889H60.8027V31.4522H65.369V33.2145C66.4259 31.9225 68.4151 31.1009 70.5231 31.1009C71.2238 31.1009 71.58 31.22 72.162 31.22L71.6988 35.6794ZM77.0904 22.0569C78.7293 22.0569 80.1366 23.3489 80.1366 25.1112C80.1366 26.8736 78.7293 28.1656 76.9717 28.1656C75.214 28.1656 73.8068 26.8736 73.8068 25.1112C73.9255 23.3489 75.3328 22.0569 77.0904 22.0569ZM79.43 49.1889H74.6262V31.4522H79.43V49.1889ZM93.485 31.1009C91.4958 31.1009 89.7382 31.8034 88.3309 32.8632V31.4522H83.6459V57.9947H88.4497V47.8969C89.8569 48.9567 91.3771 49.5402 93.2534 49.5402C95.8305 49.5402 98.4075 48.3672 99.9276 46.4858C101.335 44.8425 102.154 42.7289 102.154 40.264C102.154 35.096 98.2888 31.1009 93.485 31.1009ZM92.9031 45.1938C89.9757 45.1938 87.9865 43.1992 87.9865 40.264C87.9865 37.3287 89.9757 35.3341 92.9031 35.3341C95.4801 35.3341 97.4693 37.5668 97.4693 40.264C97.4693 43.0802 95.3614 45.1938 92.9031 45.1938ZM126.28 23.1167H131.084V49.1889H126.28V23.1167ZM150.412 46.3667C148.654 48.3613 145.846 49.5402 143.15 49.5402C137.877 49.5402 133.898 45.9023 133.898 40.264C133.898 35.3341 137.295 30.9878 142.568 30.9878C147.484 30.9878 151 35.096 151 40.0318C151 40.5021 151 40.9725 150.881 41.4428H138.465C138.696 43.9078 140.691 45.6701 143.268 45.6701C145.258 45.6701 146.897 44.4972 147.722 43.6755L150.412 46.3667ZM145.958 38.0312C145.84 36.507 144.438 34.8578 142.443 34.8578C140.448 34.8578 138.815 36.382 138.696 38.0312H145.958ZM114.802 31.1009C112.813 31.1009 111.055 31.8034 109.648 32.8632V31.4522H105.082V57.9947H109.886V47.8969C111.293 48.9567 112.813 49.5402 114.689 49.5402C117.266 49.5402 119.843 48.3672 121.364 46.4858C122.771 44.8425 123.59 42.7289 123.59 40.264C123.471 35.096 119.606 31.1009 114.802 31.1009ZM114.22 45.1938C111.293 45.1938 109.304 43.1992 109.304 40.264C109.304 37.3287 111.293 35.3341 114.22 35.3341C116.797 35.3341 118.786 37.5668 118.786 40.264C118.786 43.0802 116.678 45.1938 114.22 45.1938Z" fill="#344154"/>
<mask id="mask0" mask-type="alpha" maskUnits="userSpaceOnUse" x="15" y="21" width="35" height="38">
<path d="M37.6818 21.9954C33.2585 24.7731 32.9703 29.4534 35.2613 33.2416C36.1571 35.3866 34.7741 37.3119 32.4788 37.4395C29.9625 37.4328 29.2798 34.5379 27.3906 33.2843C24.3992 30.8199 20.0084 31.2601 17.3089 33.9841C9.30013 43.5822 24.2386 53.3306 30.0364 42.5314C32.2419 40.0193 35.8555 42.3134 35.229 45.2754C31.166 53.2182 36.9594 58.0994 41.7222 58.0249C49.1392 57.6622 51.8247 48.6692 46.4513 44.2105C42.8463 41.0738 38.6453 44.1837 38.1129 39.6371C38.0427 38.099 38.9696 36.9504 40.2769 36.5804C54.9412 36.4125 49.8872 16.3705 37.6818 21.9954Z" fill="#344154"/>
</mask>
<g mask="url(#mask0)">
<path d="M37.4547 3.80054L42.4964 8.84294L1.31584 50.0235L-3.72656 44.9818V3.80054H37.4547Z" fill="#344154"/>
<path d="M42.4963 8.84253L1.31543 50.0234L1.6712 50.3792L42.8521 9.1983L42.4963 8.84253Z" fill="#344154"/>
<path d="M42.8518 9.19849L1.6709 50.3794L2.02667 50.7352L43.2076 9.55426L42.8518 9.19849Z" fill="#344154"/>
<path d="M43.2083 9.5537L2.02734 50.7346L2.38311 51.0904L43.564 9.90947L43.2083 9.5537Z" fill="#344154"/>
<path d="M43.5637 9.90966L2.38281 51.0906L2.73858 51.4463L43.9195 10.2654L43.5637 9.90966Z" fill="#344154"/>
<path d="M43.9192 10.2651L2.73828 51.446L3.09405 51.8018L44.275 10.6209L43.9192 10.2651Z" fill="#344154"/>
<path d="M44.2747 10.6206L3.09375 51.8015L3.44952 52.1573L44.6304 10.9764L44.2747 10.6206Z" fill="#344154"/>
<path d="M44.6301 10.9766L3.44922 52.1575L3.80499 52.5132L44.9859 11.3323L44.6301 10.9766Z" fill="#344154"/>
<path d="M44.9866 11.3318L3.80566 52.5127L4.16143 52.8685L45.3423 11.6876L44.9866 11.3318Z" fill="#344154"/>
<path d="M45.3411 11.6877L4.16016 52.8687L4.51593 53.2244L45.6968 12.0435L45.3411 11.6877Z" fill="#344154"/>
<path d="M45.6965 12.0434L4.51562 53.2244L4.8714 53.5801L46.0523 12.3992L45.6965 12.0434Z" fill="#344154"/>
<path d="M46.053 12.3987L4.87207 53.5796L5.22784 53.9354L46.4088 12.7544L46.053 12.3987Z" fill="#344154"/>
<path d="M46.4084 12.7546L5.22754 53.9355L5.58331 54.2913L46.7642 13.1104L46.4084 12.7546Z" fill="#344154"/>
<path d="M46.7639 13.1099L5.58301 54.2908L5.93878 54.6465L47.1197 13.4656L46.7639 13.1099Z" fill="#344154"/>
<path d="M47.1194 13.4658L5.93848 54.6467L6.29425 55.0025L47.4752 13.8216L47.1194 13.4658Z" fill="#344154"/>
<path d="M47.4749 13.8218L6.29395 55.0027L6.64972 55.3585L47.8306 14.1775L47.4749 13.8218Z" fill="#344154"/>
<path d="M47.8313 14.1768L6.65039 55.3577L7.00616 55.7134L48.1871 14.5325L47.8313 14.1768Z" fill="#344154"/>
<path d="M48.1858 14.533L7.00488 55.7139L7.36065 56.0696L48.5416 14.8887L48.1858 14.533Z" fill="#344154"/>
<path d="M48.5413 14.8882L7.36035 56.0691L7.71612 56.4249L48.897 15.244L48.5413 14.8882Z" fill="#344154"/>
<path d="M48.8977 15.2441L7.7168 56.425L8.07257 56.7808L49.2535 15.5999L48.8977 15.2441Z" fill="#344154"/>
<path d="M49.2532 15.5996L8.07227 56.7805L8.42804 57.1363L49.609 15.9554L49.2532 15.5996Z" fill="#344154"/>
<path d="M49.6087 15.9548L8.42773 57.1357L8.7835 57.4915L49.9644 16.3106L49.6087 15.9548Z" fill="#344154"/>
<path d="M49.9641 16.3108L8.7832 57.4917L9.13897 57.8475L50.3199 16.6665L49.9641 16.3108Z" fill="#344154"/>
<path d="M50.3196 16.666L9.13867 57.8469L9.49444 58.2027L50.6754 17.0218L50.3196 16.666Z" fill="#344154"/>
<path d="M50.676 17.022L9.49512 58.2029L9.85089 58.5587L51.0318 17.3777L50.676 17.022Z" fill="#344154"/>
<path d="M51.0305 17.3777L9.84961 58.5586L10.2054 58.9144L51.3863 17.7334L51.0305 17.3777Z" fill="#344154"/>
<path d="M51.387 17.7329L10.2061 58.9138L10.5618 59.2696L51.7427 18.0887L51.387 17.7329Z" fill="#344154"/>
<path d="M51.7424 18.0889L10.5615 59.2698L10.9173 59.6255L52.0982 18.4446L51.7424 18.0889Z" fill="#344154"/>
<path d="M52.0979 18.4443L10.917 59.6252L11.2728 59.981L52.4537 18.8001L52.0979 18.4443Z" fill="#344154"/>
<path d="M52.4544 18.8003L11.2734 59.9812L11.6292 60.337L52.8101 19.1561L52.4544 18.8003Z" fill="#344154"/>
<path d="M52.8088 19.156L11.6279 60.3369L11.9837 60.6927L53.1646 19.5118L52.8088 19.156Z" fill="#344154"/>
<path d="M53.1643 19.511L11.9834 60.6919L12.3392 61.0477L53.5201 19.8668L53.1643 19.511Z" fill="#344154"/>
<path d="M53.5207 19.8672L12.3398 61.0481L12.6956 61.4039L53.8765 20.2229L53.5207 19.8672Z" fill="#344154"/>
<path d="M53.8762 20.2224L12.6953 61.4033L13.0511 61.7591L54.232 20.5782L53.8762 20.2224Z" fill="#344154"/>
<path d="M54.2317 20.5784L13.0508 61.7593L13.4066 62.115L54.5875 20.9341L54.2317 20.5784Z" fill="#344154"/>
<path d="M54.5872 20.9336L13.4062 62.1145L13.762 62.4703L54.9429 21.2894L54.5872 20.9336Z" fill="#344154"/>
<path d="M54.9426 21.2891L13.7617 62.47L14.1175 62.8257L55.2984 21.6448L54.9426 21.2891Z" fill="#344154"/>
<path d="M55.2981 21.645L14.1172 62.8259L14.473 63.1817L55.6539 22.0008L55.2981 21.645Z" fill="#344154"/>
<path d="M55.6536 22.0002L14.4727 63.1812L14.8284 63.5369L56.0093 22.356L55.6536 22.0002Z" fill="#344154"/>
<path d="M56.01 22.3564L14.8291 63.5374L15.1849 63.8931L56.3658 22.7122L56.01 22.3564Z" fill="#344154"/>
<path d="M56.3655 22.7114L15.1846 63.8923L15.5403 64.2481L56.7213 23.0672L56.3655 22.7114Z" fill="#344154"/>
<path d="M56.72 23.0671L15.5391 64.248L15.8948 64.6038L57.0758 23.4229L56.72 23.0671Z" fill="#344154"/>
<path d="M57.0764 23.4233L15.8955 64.6042L16.2513 64.96L57.4322 23.7791L57.0764 23.4233Z" fill="#344154"/>
<path d="M57.4319 23.7786L16.251 64.9595L16.6067 65.3152L57.7877 24.1343L57.4319 23.7786Z" fill="#344154"/>
<path d="M57.7874 24.1343L16.6064 65.3152L16.9329 65.6416L58.1138 24.4607L57.7874 24.1343Z" fill="#344154"/>
<path d="M58.1145 24.4609L16.9336 65.6418L17.26 65.9683L58.4409 24.7873L58.1145 24.4609Z" fill="#344154"/>
<path d="M58.4417 24.7876L17.2607 65.9685L17.5872 66.2949L58.7681 25.114L58.4417 24.7876Z" fill="#344154"/>
<path d="M58.7678 25.114L17.5869 66.2949L17.9133 66.6213L59.0942 25.4404L58.7678 25.114Z" fill="#344154"/>
<path d="M59.095 25.4407L17.9141 66.6216L18.2405 66.948L59.4214 25.7671L59.095 25.4407Z" fill="#344154"/>
<path d="M59.4211 25.7673L18.2402 66.9482L18.5666 67.2747L59.7476 26.0937L59.4211 25.7673Z" fill="#344154"/>
<path d="M59.7473 26.094L18.5664 67.2749L18.8928 67.6013L60.0737 26.4204L59.7473 26.094Z" fill="#344154"/>
<path d="M60.0745 26.4207L18.8936 67.6016L19.22 67.928L60.4009 26.7471L60.0745 26.4207Z" fill="#344154"/>
<path d="M60.4006 26.7471L19.2197 67.928L19.5461 68.2544L60.7271 27.0735L60.4006 26.7471Z" fill="#344154"/>
<path d="M60.7278 27.0737L19.5469 68.2546L19.8733 68.581L61.0542 27.4002L60.7278 27.0737Z" fill="#344154"/>
<path d="M61.053 27.4004L19.8721 68.5813L20.1985 68.9077L61.3794 27.7268L61.053 27.4004Z" fill="#344154"/>
<path d="M61.3801 27.727L20.1992 68.908L20.5256 69.2344L61.7065 28.0535L61.3801 27.727Z" fill="#344154"/>
<path d="M61.7073 28.0537L20.5264 69.2346L20.8528 69.561L62.0337 28.3801L61.7073 28.0537Z" fill="#344154"/>
<path d="M62.0334 28.3801L20.8525 69.561L21.179 69.8874L62.3599 28.7065L62.0334 28.3801Z" fill="#344154"/>
<path d="M62.3606 28.707L21.1797 69.8879L21.5061 70.2144L62.687 29.0334L62.3606 28.707Z" fill="#344154"/>
<path d="M62.6868 29.0337L21.5059 70.2146L21.8323 70.541L63.0132 29.3601L62.6868 29.0337Z" fill="#344154"/>
<path d="M63.0129 29.3601L21.832 70.541L22.1584 70.8674L63.3394 29.6865L63.0129 29.3601Z" fill="#344154"/>
<path d="M63.3401 29.6868L22.1592 70.8677L22.4856 71.1941L63.6665 30.0132L63.3401 29.6868Z" fill="#344154"/>
<path d="M63.6672 30.0134L22.4863 71.1943L22.8127 71.5207L63.9937 30.3398L63.6672 30.0134Z" fill="#344154"/>
<path d="M63.9934 30.3401L22.8125 71.521L23.1389 71.8474L64.3198 30.6665L63.9934 30.3401Z" fill="#344154"/>
<path d="M64.3206 30.6667L23.1396 71.8477L23.4661 72.1741L64.647 30.9932L64.3206 30.6667Z" fill="#344154"/>
<path d="M64.6467 30.9932L23.4658 72.1741L23.7922 72.5005L64.9731 31.3196L64.6467 30.9932Z" fill="#344154"/>
<path d="M64.9729 31.3198L23.792 72.5007L24.1184 72.8271L65.2993 31.6462L64.9729 31.3198Z" fill="#344154"/>
<path d="M65.3 31.6465L24.1191 72.8274L24.4456 73.1538L65.6265 31.9729L65.3 31.6465Z" fill="#344154"/>
<path d="M65.6262 31.9731L24.4453 73.1541L24.7717 73.4805L65.9527 32.2995L65.6262 31.9731Z" fill="#344154"/>
<path d="M65.9534 32.2998L24.7725 73.4807L25.0989 73.8071L66.2798 32.6262L65.9534 32.2998Z" fill="#344154"/>
<path d="M66.2796 32.6262L25.0986 73.8071L25.425 74.1335L66.606 32.9526L66.2796 32.6262Z" fill="#344154"/>
<path d="M66.6067 32.9531L25.4258 74.134L25.7522 74.4604L66.9331 33.2795L66.6067 32.9531Z" fill="#344154"/>
<path d="M66.9329 33.2795L25.752 74.4604L26.0784 74.7869L67.2593 33.606L66.9329 33.2795Z" fill="#344154"/>
<path d="M67.26 33.6062L26.0791 74.7871L26.4055 75.1135L67.5864 33.9326L67.26 33.6062Z" fill="#344154"/>
<path d="M67.5862 33.9326L26.4053 75.1135L26.7317 75.4399L67.9126 34.259L67.5862 33.9326Z" fill="#344154"/>
<path d="M67.9137 34.2595L68.0498 34.3963V34.7761L27.249 75.5769H26.8692L26.7324 75.4408L67.9137 34.2595Z" fill="#344154"/>
<path d="M27.249 75.5767L68.0498 34.7759V75.5767H27.249Z" fill="#344154"/>
<path d="M32.2346 3.80054L68.0504 39.7617L32.2346 75.5775L-3.72656 39.7617L32.2346 3.80054Z" fill="#344154"/>
</g>
</svg>
