<svg width="165" height="80" viewBox="0 0 165 80" fill="none" xmlns="http://www.w3.org/2000/svg">
<g clip-path="url(#clip0)">
<path d="M2.01902 40.0892C2.01902 38.3565 2.0382 36.6239 2.00943 34.9011C1.99984 34.307 2.15327 33.9308 2.68068 33.6239C5.55744 31.9407 8.42461 30.2377 11.263 28.4852C11.7904 28.1585 12.1644 28.1684 12.6439 28.4852C13.5069 29.0298 14.3987 29.5546 15.2905 30.0793C15.9617 30.4753 16.0193 30.7922 15.2713 31.2278C12.5863 32.812 9.94929 34.4654 7.25473 36.0298C6.52595 36.4654 6.21909 36.9308 6.25745 37.812C6.33416 39.3169 6.33416 40.8318 6.24786 42.3367C6.19991 43.2377 6.52595 43.7031 7.25473 44.0991C8.61639 44.8318 9.95888 45.5942 11.2342 46.4654C11.7808 46.8417 12.1452 46.7724 12.6247 46.4852C14.0631 45.6041 15.5014 44.713 16.9686 43.8813C17.4672 43.5942 17.5919 43.2377 17.5823 42.7031C17.5535 41.2377 17.6207 39.7724 17.5535 38.307C17.5152 37.4753 17.8124 37.0001 18.5029 36.6338C19.3755 36.1684 20.2097 35.614 21.0536 35.0991C21.533 34.812 21.8303 34.7823 21.8303 35.5249C21.8111 38.8516 21.8111 42.1783 21.8207 45.5149C21.8207 46.0595 21.533 46.2971 21.1399 46.5248C18.3207 48.2179 15.5014 49.9209 12.6918 51.6338C12.1644 51.9605 11.7137 51.9902 11.1479 51.6338C8.30954 49.8813 5.46155 48.1585 2.59437 46.4654C2.05738 46.1387 1.99025 45.713 1.99984 45.1486C2.01902 43.4555 2.00943 41.7724 2.01902 40.0892C2.00943 40.0892 2.00943 40.0892 2.01902 40.0892Z" fill="#344154"/>
<path d="M57.0032 34.6437C59.8416 32.3764 62.632 32.9605 64.5691 34.5645C66.8705 36.4754 67.7143 40.2774 66.5444 43.1684C64.8088 47.4655 60.8676 48.5942 56.7347 45.8714C56.7347 47.5942 56.6867 49.2476 56.7539 50.8912C56.7826 51.7724 56.5045 52.0298 55.6607 52.01C53.5031 51.9605 53.5031 52.01 53.5031 49.7427C53.5031 44.7724 53.5415 39.8021 53.4743 34.8318C53.4552 33.713 53.8196 33.4259 54.7881 33.5546C55.21 33.6041 55.6511 33.5942 56.073 33.5546C56.7059 33.4952 56.7539 33.9308 56.7826 34.3962C56.7634 34.4952 56.7347 34.6041 56.7059 34.7031C56.8018 34.6734 56.9073 34.6536 57.0032 34.6437ZM56.5812 40.2377C56.5621 42.5744 58.058 44.2774 60.1293 44.2873C62.1526 44.2972 63.8019 42.5051 63.8019 40.3071C63.8019 38.0892 62.1813 36.3269 60.1293 36.3368C58.0963 36.3566 56.6004 37.9902 56.5812 40.2377Z" fill="#344154"/>
<path d="M140.018 34.8812C139.74 33.5347 140.392 33.4456 141.216 33.5347C141.638 33.5743 142.079 33.5743 142.501 33.5446C143.105 33.505 143.307 33.7228 143.307 34.3763C143.278 38.3169 143.278 42.2674 143.297 46.208C143.297 46.8614 143.172 47.2278 142.453 47.1288C142.07 47.0792 141.677 47.109 141.293 47.1387C140.468 47.2179 139.749 47.1684 139.96 45.901C135.818 48.8119 132.797 47.109 131.004 44.7129C129.028 42.0693 129.297 37.505 131.531 35.099C133.775 32.6832 136.93 32.5248 140.018 34.8812ZM136.575 44.2872C138.598 44.2872 140.181 42.5248 140.19 40.2674C140.2 38.0891 138.646 36.3862 136.623 36.3565C134.523 36.3268 132.989 37.9802 132.97 40.2872C132.96 42.5347 134.542 44.2872 136.575 44.2872Z" fill="#344154"/>
<path d="M118.873 34.8516C120.168 34.0199 121.232 33.1882 122.632 33.1783C125.346 33.1585 127.168 34.7526 127.283 37.5546C127.408 40.4754 127.312 43.4061 127.34 46.3269C127.35 46.9605 127.13 47.1387 126.516 47.1585C124.023 47.218 124.032 47.2378 124.023 44.7229C124.013 42.7724 124.023 40.8219 123.936 38.8714C123.869 37.3863 123.15 36.515 122.076 36.3665C120.992 36.218 119.823 36.9704 119.353 38.1783C119.027 39.0001 118.873 39.8714 118.883 40.7724C118.892 42.5447 118.854 44.317 118.902 46.0892C118.921 46.8714 118.758 47.1585 117.924 47.1585C115.728 47.1486 115.718 47.1981 115.728 44.9605C115.728 39.8219 115.757 34.6734 115.718 29.5348C115.709 28.614 115.805 28.218 116.869 28.2873C118.892 28.4259 118.902 28.3467 118.902 30.515C118.883 31.8714 118.873 33.2378 118.873 34.8516Z" fill="#344154"/>
<path d="M77.294 41.3268C75.9227 41.3268 74.5419 41.3862 73.1706 41.307C71.9816 41.2377 72.1158 41.7624 72.5281 42.5248C73.5925 44.5149 76.1049 45.109 78.1378 43.8416C78.9721 43.3268 80.8899 43.604 81.4653 44.3367C81.8105 44.7723 81.3598 44.9802 81.1776 45.208C79.5666 47.2476 76.1816 48.0495 73.4775 47.0495C70.5144 45.9604 68.8075 43.1684 69.0185 39.7723C69.2199 36.5347 71.4158 33.703 74.4747 33.2377C78.9337 32.5644 82.5968 35.3466 82.6831 40.4258C82.6927 41.109 82.4913 41.3664 81.8009 41.3367C80.305 41.2872 78.7995 41.3268 77.294 41.3268ZM75.7789 38.6634C75.7789 38.6634 75.7789 38.6733 75.7789 38.6634C76.757 38.6733 77.7447 38.6535 78.7228 38.6733C79.3173 38.6931 79.4419 38.3961 79.1447 37.9703C78.368 36.8614 77.3899 36.0793 75.9515 36.0892C74.5035 36.0991 73.4199 36.7129 72.624 37.9307C72.2021 38.5743 72.5377 38.6733 73.0843 38.6634C73.9953 38.6535 74.8871 38.6634 75.7789 38.6634Z" fill="#344154"/>
<path d="M12.3466 39.515C12.3466 38.3665 12.4617 37.1982 12.3178 36.0595C12.1356 34.5645 12.7206 33.713 13.948 33.0199C16.4987 31.5843 19.0015 30.0397 21.5043 28.515C22.0125 28.2081 22.4153 28.0199 23.0194 28.4061C25.129 29.7526 27.2578 31.0793 29.4345 32.3071C30.3455 32.812 30.2305 33.2477 29.751 33.9605C29.3482 34.5744 28.9647 35.2279 28.7154 35.9209C28.4085 36.7625 27.9674 36.6932 27.3729 36.3368C25.9249 35.4754 24.4673 34.6338 23.0385 33.7427C22.5303 33.4259 22.1468 33.4061 21.6289 33.7328C20.2769 34.5843 18.8864 35.3764 17.5056 36.1784C16.8919 36.5348 16.6234 36.9902 16.6617 37.7625C16.7289 39.218 16.6617 40.6833 16.6905 42.1487C16.7001 42.6833 16.5658 43.0793 16.096 43.3566C15.2138 43.8912 14.3507 44.4655 13.4589 44.9902C12.7589 45.3962 12.337 45.2477 12.3562 44.2972C12.3849 42.7031 12.3658 41.109 12.3658 39.515C12.3562 39.515 12.3562 39.515 12.3466 39.515Z" fill="#344154"/>
<path d="M43.9046 33.1782C47.769 33.1683 50.828 36.3367 50.828 40.3466C50.8376 44.2377 47.769 47.4357 43.9909 47.4852C40.2895 47.5347 37.1346 44.2674 37.125 40.3763C37.1154 36.4357 40.184 33.1782 43.9046 33.1782ZM47.5868 40.2872C47.5773 38.0396 46.0622 36.3565 44.058 36.3466C41.9867 36.3367 40.3949 38.0792 40.4141 40.3367C40.4333 42.5644 41.9963 44.3169 43.9525 44.2971C46.0238 44.2872 47.5964 42.5347 47.5868 40.2872Z" fill="#344154"/>
<path d="M88.6 34.8119C90.5274 33.3762 92.3398 32.6139 94.4398 33.6139C96.0508 34.3762 96.8659 35.7228 96.8946 37.5049C96.9522 40.4356 96.9042 43.3663 96.933 46.297C96.9426 46.9307 96.7508 47.1188 96.1275 47.1485C93.6247 47.2673 93.6343 47.2871 93.6247 44.703C93.6151 42.6634 93.5576 40.6238 93.548 38.5841C93.5384 37.5643 93.011 36.901 92.1768 36.5247C91.3617 36.1485 90.5658 36.3861 89.8945 36.9604C88.9644 37.7525 88.6 38.8119 88.5904 40.0198C88.5808 42.0594 88.5424 44.1089 88.6 46.1485C88.6192 46.9901 88.3602 47.1782 87.5739 47.1584C85.3109 47.1089 85.3109 47.1485 85.3109 44.7525C85.3109 41.3762 85.3492 38 85.2821 34.6337C85.2629 33.6931 85.5602 33.4554 86.3753 33.5544C86.7589 33.604 87.1616 33.6238 87.5356 33.5544C88.4178 33.3861 88.7055 33.8119 88.6 34.8119Z" fill="#344154"/>
<path d="M155.581 34.9307C157.614 33.3465 159.455 32.5742 161.593 33.6534C163.06 34.396 163.943 35.5643 163.962 37.297C163.991 40.2673 163.971 43.2475 164.01 46.2178C164.019 46.9109 163.818 47.1584 163.137 47.1287C160.251 47.0198 160.893 47.594 160.807 44.8118C160.749 42.8217 160.941 40.8217 160.711 38.8316C160.558 37.5742 160.107 36.594 158.784 36.3663C157.69 36.1782 156.482 37.0495 156.022 38.3168C155.725 39.1188 155.715 39.9604 155.706 40.8118C155.696 42.5841 155.677 44.3663 155.715 46.1386C155.734 46.8911 155.495 47.1188 154.766 47.1386C152.388 47.198 152.397 47.2376 152.397 44.8614C152.397 41.6237 152.455 38.3762 152.368 35.1386C152.34 33.901 152.57 33.2772 153.874 33.5346C154.123 33.5841 154.392 33.5445 154.651 33.5247C155.379 33.4752 155.964 33.5841 155.581 34.9307Z" fill="#344154"/>
<path d="M106.388 33.1486C108.862 33.1882 110.732 33.8912 112.238 35.5348C112.717 36.0595 112.736 36.4061 112.055 36.713C111.701 36.8714 111.355 37.0496 111.049 37.2773C110.377 37.7922 109.879 37.7229 109.188 37.1585C107.491 35.7724 104.825 36.1783 103.521 37.8912C102.255 39.5546 102.476 42.0199 104.01 43.3863C105.276 44.5051 107.664 44.7229 109.044 43.5249C109.994 42.7031 110.531 43.0199 111.288 43.6239C112.727 44.7823 112.794 44.8714 111.279 45.9704C108.795 47.7724 106.081 47.9506 103.329 46.7229C100.788 45.5942 99.6183 43.3566 99.3114 40.6635C99.0142 38.0892 101.028 34.9011 103.473 33.8813C104.49 33.4457 105.544 32.9902 106.388 33.1486Z" fill="#344154"/>
<path d="M30.1824 46.921C30.1824 47.3468 30.0002 47.4557 29.8276 47.5844C27.6413 49.1784 25.1673 50.2775 22.9042 51.7329C22.5111 51.9804 22.1371 51.9507 21.7152 51.6735C20.7754 51.0695 19.8261 50.4854 18.8288 49.9804C18.0041 49.5646 18.2918 49.2477 18.8384 48.921C21.6385 47.2378 24.4577 45.5745 27.2481 43.8616C27.881 43.4755 28.2262 43.6339 28.5906 44.2279C29.166 45.1586 29.5112 46.2279 30.1824 46.921Z" fill="#344154"/>
<path d="M149.491 40.3367C149.491 42.1981 149.453 44.0595 149.51 45.9208C149.539 46.7921 149.376 47.1684 148.408 47.1585C146.192 47.1189 146.192 47.1783 146.192 44.8515C146.192 41.4852 146.212 38.109 146.173 34.7426C146.164 33.8713 146.317 33.4951 147.276 33.5149C149.501 33.5545 149.501 33.4951 149.491 35.8218C149.482 37.3268 149.491 38.8317 149.491 40.3367Z" fill="#344154"/>
<path d="M149.846 30.1783C149.837 31.3961 149.002 32.307 147.881 32.3268C146.749 32.3466 145.781 31.3268 145.79 30.1189C145.8 28.9704 146.711 28.01 147.804 28.0001C149.05 27.9902 149.846 28.8417 149.846 30.1783Z" fill="#344154"/>
<path d="M56.7061 34.6832C56.7348 34.5841 56.754 34.4752 56.7828 34.3762L56.7061 34.6832Z" fill="#344154"/>
</g>
<defs>
<clipPath id="clip0">
<rect x="2" y="28" width="162" height="24" fill="white"/>
</clipPath>
</defs>
</svg>
