<svg width="32" height="35" viewBox="0 0 32 35" fill="none" xmlns="http://www.w3.org/2000/svg">
<path d="M21.8326 34.9999H25.918L27.143 32.3793L20.6182 32.3687L21.8326 34.9999Z" fill="url(#paint0_linear)"/>
<path d="M5.67288 34.9999H9.75293L10.9727 32.3793L4.45312 32.3687L5.67288 34.9999Z" fill="url(#paint1_linear)"/>
<path d="M0 0.0266582V31.8947H31.8947V0H0V0.0266582ZM27.8626 27.9958H3.89362V3.93091H27.8626V27.9958Z" fill="url(#paint2_linear)"/>
<path d="M13.5877 15.9154C13.5869 15.5113 13.6935 15.1142 13.8967 14.7649L11.7661 12.6343C11.0127 13.5764 10.6015 14.7463 10.5996 15.9526C10.5982 17.1395 10.998 18.2921 11.7341 19.2231L13.8647 17.0552C13.6786 16.7044 13.5833 16.3125 13.5877 15.9154Z" fill="url(#paint3_linear)"/>
<path d="M15.894 13.6248C16.2861 13.623 16.6717 13.724 17.0126 13.9178L19.1431 11.7872C18.2104 11.0663 17.0649 10.6753 15.886 10.6753C14.7072 10.6753 13.5617 11.0663 12.6289 11.7872L14.7595 13.9178C15.106 13.7239 15.4969 13.6229 15.894 13.6248Z" fill="url(#paint4_linear)"/>
<path d="M15.8945 18.2216C15.4964 18.2225 15.1045 18.1236 14.7546 17.934L12.624 20.0646C13.5639 20.8063 14.7264 21.2098 15.9238 21.2098C17.1211 21.2098 18.2836 20.8063 19.2235 20.0646L17.013 17.9233C16.6716 18.1162 16.2866 18.2189 15.8945 18.2216Z" fill="url(#paint5_linear)"/>
<path d="M17.8965 14.7916C18.0865 15.1378 18.1872 15.5259 18.1894 15.9208C18.1907 16.3081 18.0936 16.6893 17.9071 17.0287L20.075 19.1966C20.7983 18.257 21.1875 17.1028 21.1807 15.9171C21.1739 14.7313 20.7717 13.5817 20.0377 12.6504L17.8965 14.7916Z" fill="url(#paint6_linear)"/>
<path d="M26.3659 5.43311H5.41699V26.5045H26.3659V5.43311ZM22.1526 18.5788C21.8083 19.3844 21.3129 20.1166 20.6932 20.736C20.0781 21.3608 19.3448 21.857 18.536 22.1954C16.8742 22.8927 15.004 22.9037 13.3341 22.2259C11.6643 21.5482 10.3307 20.2369 9.62488 18.5788C8.92353 16.8836 8.92353 14.9795 9.62488 13.2843C9.97734 12.4911 10.472 11.769 11.0843 11.1538C12.0418 10.1973 13.263 9.5484 14.5915 9.29028C15.92 9.03217 17.2954 9.17652 18.5413 9.70492C19.3486 10.0415 20.0816 10.5338 20.6985 11.1538C21.3109 11.769 21.8055 12.4911 22.158 13.2843C22.8576 14.9802 22.8557 16.8843 22.1526 18.5788Z" fill="url(#paint7_linear)"/>
<path d="M15.8889 17.5133C16.7391 17.5133 17.4283 16.8241 17.4283 15.9739C17.4283 15.1238 16.7391 14.4346 15.8889 14.4346C15.0388 14.4346 14.3496 15.1238 14.3496 15.9739C14.3496 16.8241 15.0388 17.5133 15.8889 17.5133Z" fill="url(#paint8_linear)"/>
<defs>
<linearGradient id="paint0_linear" x1="22.0164" y1="32.3687" x2="22.4173" y2="35.0373" gradientUnits="userSpaceOnUse">
<stop stop-color="#38EAB5"/>
<stop offset="1" stop-color="#43BA88"/>
</linearGradient>
<linearGradient id="paint1_linear" x1="5.85017" y1="32.3687" x2="6.25142" y2="35.0372" gradientUnits="userSpaceOnUse">
<stop stop-color="#38EAB5"/>
<stop offset="1" stop-color="#43BA88"/>
</linearGradient>
<linearGradient id="paint2_linear" x1="6.83457" y1="3.68575e-07" x2="17.656" y2="29.0469" gradientUnits="userSpaceOnUse">
<stop stop-color="#38EAB5"/>
<stop offset="1" stop-color="#43BA88"/>
</linearGradient>
<linearGradient id="paint3_linear" x1="11.3061" y1="12.6343" x2="14.5793" y2="17.0308" gradientUnits="userSpaceOnUse">
<stop stop-color="#38EAB5"/>
<stop offset="1" stop-color="#43BA88"/>
</linearGradient>
<linearGradient id="paint4_linear" x1="14.0248" y1="10.6753" x2="14.6277" y2="13.9263" gradientUnits="userSpaceOnUse">
<stop stop-color="#38EAB5"/>
<stop offset="1" stop-color="#43BA88"/>
</linearGradient>
<linearGradient id="paint5_linear" x1="14.0382" y1="17.9233" x2="14.6495" y2="21.2183" gradientUnits="userSpaceOnUse">
<stop stop-color="#38EAB5"/>
<stop offset="1" stop-color="#43BA88"/>
</linearGradient>
<linearGradient id="paint6_linear" x1="18.6003" y1="12.6504" x2="21.8498" y2="17.0266" gradientUnits="userSpaceOnUse">
<stop stop-color="#38EAB5"/>
<stop offset="1" stop-color="#43BA88"/>
</linearGradient>
<linearGradient id="paint7_linear" x1="9.90603" y1="5.43311" x2="17.0868" y2="24.5957" gradientUnits="userSpaceOnUse">
<stop stop-color="#38EAB5"/>
<stop offset="1" stop-color="#43BA88"/>
</linearGradient>
<linearGradient id="paint8_linear" x1="15.0093" y1="14.4346" x2="16.0539" y2="17.2384" gradientUnits="userSpaceOnUse">
<stop stop-color="#38EAB5"/>
<stop offset="1" stop-color="#43BA88"/>
</linearGradient>
</defs>
</svg>
