<svg width="38" height="36" viewBox="0 0 38 36" fill="none" xmlns="http://www.w3.org/2000/svg">
<path d="M5.25031 7.28125H33.2502H35.0002L36.1668 7.86458C36.3613 10.9757 36.7502 17.3145 36.7502 17.7812V29.4478L35.5835 30.6145L14.5836 31.1978L12.8336 30.0311V28.2812L11.667 25.3645H2.91699V22.4478L4.08365 20.1145V16.6145V9.61457L5.25031 7.28125Z" fill="url(#paint0_linear)"/>
<path d="M11.7815 31.5979V31.7229H11.9065H34.0329C35.96 31.7229 37.5439 30.1503 37.5439 28.21V9.4733C37.5439 7.53606 35.9721 5.96045 34.0329 5.96045H6.78834C4.86123 5.96045 3.27734 7.53299 3.27734 9.4733V19.6783V19.8033H3.40234H5.10317H5.22817V19.6783V9.4733C5.22817 8.61535 5.93369 7.91128 6.78834 7.91128H34.0329C34.8931 7.91128 35.5931 8.61185 35.5931 9.4733V28.21C35.5931 29.068 34.8875 29.772 34.0329 29.772H11.9065H11.7815V29.897V31.5979Z" fill="url(#paint1_linear)" stroke="url(#paint2_linear)" stroke-width="0.25"/>
<path d="M2.5593 33.1741C2.14688 33.1741 1.82583 32.8531 1.82583 32.4511V27.3437C1.82583 26.943 2.14654 26.6207 2.5593 26.6207H11.0473C11.4597 26.6207 11.7808 26.9417 11.7808 27.3437V32.4511C11.7808 32.8518 11.4601 33.1741 11.0473 33.1741H2.5593ZM11.0473 24.6699H2.5593C1.06785 24.6699 -0.125 25.8668 -0.125 27.3437V32.4511C-0.125 33.9386 1.07761 35.1249 2.5593 35.1249H11.0473C12.5388 35.1249 13.7316 33.928 13.7316 32.4511V27.3437C13.7316 25.8562 12.529 24.6699 11.0473 24.6699Z" fill="url(#paint3_linear)" stroke="url(#paint4_linear)" stroke-width="0.25"/>
<path d="M3.52526 25.6454V25.7704H3.40026H1.69943H1.57443V25.6454V23.0942C1.57443 20.2071 3.91485 17.8667 6.80191 17.8667C8.46361 17.8667 9.99722 18.6485 10.9782 19.9497C11.3025 20.3799 11.2167 20.9915 10.7865 21.3158C10.3564 21.6401 9.74477 21.5543 9.42047 21.1241C8.80415 20.3066 7.84452 19.8175 6.80191 19.8175C4.99226 19.8175 3.52526 21.2845 3.52526 23.0942V25.6454Z" fill="url(#paint5_linear)" stroke="url(#paint6_linear)" stroke-width="0.25"/>
<path d="M37.5425 14.5894V14.4644H37.4175H29.7796C27.3347 14.4644 25.3867 16.424 25.3867 18.8414C25.3867 21.2759 27.3542 23.2185 29.7796 23.2185H37.4175H37.5425V23.0935V21.3927V21.2677H37.4175H29.7796C28.422 21.2677 27.3375 20.1889 27.3375 18.8414C27.3375 17.4957 28.4178 16.4152 29.7796 16.4152H37.4175H37.5425V16.2902V14.5894Z" fill="url(#paint7_linear)" stroke="url(#paint8_linear)" stroke-width="0.25"/>
<path d="M32.1618 7.70424L32.1613 7.82924L32.2863 7.82971L33.9872 7.83615L34.1122 7.83662L34.1126 7.71163L34.1158 6.86122L34.1288 3.43962C34.1334 2.21866 33.6324 1.2055 32.8255 0.574429C32.0186 -0.0566895 30.9153 -0.298047 29.7309 0.00525129L5.97368 6.08881L5.92269 6.10187L5.8964 6.14747L4.70909 8.20722L4.56086 8.46436L4.84839 8.39073L30.2149 1.8951C30.7945 1.74667 31.2835 1.84462 31.625 2.11213C31.9667 2.37973 32.1803 2.83224 32.178 3.43224L32.165 6.85383L32.1618 7.70424Z" fill="url(#paint9_linear)" stroke="url(#paint10_linear)" stroke-width="0.25"/>
<defs>
<linearGradient id="paint0_linear" x1="23.5783" y1="-4.03063" x2="23.5783" y2="39.9241" gradientUnits="userSpaceOnUse">
<stop stop-color="#C7DAFD"/>
<stop offset="1" stop-color="#E9F1FF"/>
</linearGradient>
<linearGradient id="paint1_linear" x1="3.40234" y1="6.08545" x2="20.0325" y2="38.8948" gradientUnits="userSpaceOnUse">
<stop stop-color="#2569E6"/>
<stop offset="1" stop-color="#3649EF"/>
</linearGradient>
<linearGradient id="paint2_linear" x1="20.4106" y1="6.08545" x2="20.4106" y2="31.5979" gradientUnits="userSpaceOnUse">
<stop stop-color="#2960E8"/>
<stop offset="1" stop-color="#3250ED"/>
</linearGradient>
<linearGradient id="paint3_linear" x1="0" y1="24.7949" x2="6.65205" y2="37.9186" gradientUnits="userSpaceOnUse">
<stop stop-color="#2569E6"/>
<stop offset="1" stop-color="#3649EF"/>
</linearGradient>
<linearGradient id="paint4_linear" x1="6.80331" y1="24.7949" x2="6.80331" y2="34.9999" gradientUnits="userSpaceOnUse">
<stop stop-color="#2960E8"/>
<stop offset="1" stop-color="#3250ED"/>
</linearGradient>
<linearGradient id="paint5_linear" x1="11.0498" y1="17.9917" x2="5.80953" y2="27.4644" gradientUnits="userSpaceOnUse">
<stop stop-color="#2569E6"/>
<stop offset="1" stop-color="#3649EF"/>
</linearGradient>
<linearGradient id="paint6_linear" x1="6.37462" y1="17.9917" x2="6.37462" y2="25.6454" gradientUnits="userSpaceOnUse">
<stop stop-color="#2960E8"/>
<stop offset="1" stop-color="#3250ED"/>
</linearGradient>
<linearGradient id="paint7_linear" x1="25.5117" y1="14.5894" x2="30.8934" y2="25.7377" gradientUnits="userSpaceOnUse">
<stop stop-color="#2569E6"/>
<stop offset="1" stop-color="#3649EF"/>
</linearGradient>
<linearGradient id="paint8_linear" x1="31.4646" y1="14.5894" x2="31.4646" y2="23.0935" gradientUnits="userSpaceOnUse">
<stop stop-color="#2960E8"/>
<stop offset="1" stop-color="#3250ED"/>
</linearGradient>
<linearGradient id="paint9_linear" x1="4.81738" y1="0" x2="7.2865" y2="12.8944" gradientUnits="userSpaceOnUse">
<stop stop-color="#2569E6"/>
<stop offset="1" stop-color="#3649EF"/>
</linearGradient>
<linearGradient id="paint10_linear" x1="19.4106" y1="0" x2="19.4106" y2="8.26964" gradientUnits="userSpaceOnUse">
<stop stop-color="#2960E8"/>
<stop offset="1" stop-color="#3250ED"/>
</linearGradient>
</defs>
</svg>
