<svg width="165" height="80" viewBox="0 0 165 80" fill="none" xmlns="http://www.w3.org/2000/svg">
<g clip-path="url(#clip0)">
<path d="M55.1646 33.194C54.9874 33.7821 54.8117 34.3687 54.6345 34.9569C53.4033 39.0367 52.053 43.0776 50.7371 47.131C50.4815 47.9167 50.2196 48.701 49.9765 49.4898C49.909 49.7092 49.8118 49.7964 49.5703 49.7886C48.9696 49.7699 48.3689 49.7668 47.7682 49.7901C47.5157 49.7995 47.4326 49.6921 47.362 49.4836C46.3833 46.5568 45.3937 43.6346 44.4182 40.7078C43.6183 38.3069 42.8341 35.8998 42.039 33.4958C42.0092 33.4071 42.0186 33.2873 41.8335 33.2111C41.8335 34.1898 41.8492 35.1374 41.8304 36.0834C41.7504 40.3064 41.6657 44.5293 41.57 48.7507C41.5622 49.0822 41.6877 49.5225 41.4744 49.7217C41.2626 49.9208 40.8266 49.7746 40.4894 49.7793C40.1397 49.7839 39.6833 49.8913 39.4684 49.7186C39.2426 49.5365 39.401 49.0682 39.4104 48.7274C39.5092 44.8545 39.6158 40.9817 39.7162 37.1073C39.768 35.1452 39.8197 33.1831 39.8558 31.2194C39.8621 30.9098 39.9076 30.7713 40.2793 30.7837C41.283 30.8164 42.2899 30.8086 43.2952 30.7868C43.6073 30.7806 43.7453 30.8662 43.8457 31.1665C44.7585 33.9237 45.6917 36.6763 46.6155 39.4304C47.3824 41.7192 48.1446 44.0112 48.9115 46.3016C48.9382 46.381 48.9194 46.5148 49.0323 46.521C49.1813 46.5303 49.1546 46.3763 49.1797 46.2907C50.6054 41.1762 52.3039 36.1457 53.9131 31.0887C53.9805 30.8771 54.0652 30.7853 54.3098 30.79C55.3669 30.8055 56.4256 30.8055 57.4827 30.7915C57.743 30.7884 57.8089 30.8646 57.8151 31.1167C57.87 33.8677 57.9328 36.6171 58.0002 39.3681C58.0818 42.6995 58.1665 46.0293 58.2637 49.3607C58.2731 49.6874 58.2119 49.8135 57.8449 49.7948C57.1407 49.7606 56.435 49.7777 55.7292 49.7886C55.5096 49.7917 55.4077 49.7606 55.4046 49.5007C55.3591 46.0138 55.2901 42.5252 55.2493 39.0383C55.2258 37.0995 55.2446 35.1607 55.2446 33.2235C55.2164 33.2111 55.1897 33.2033 55.1646 33.194Z" fill="#344154"/>
<path d="M118.947 37.7405C119.956 36.7213 121.098 36.1658 122.406 35.948C123.17 35.8204 123.936 35.8142 124.703 35.9558C126.063 36.2094 126.888 37.0216 127.263 38.3209C127.503 39.1533 127.508 40.006 127.509 40.8587C127.514 43.703 127.506 46.5458 127.519 49.3902C127.52 49.7138 127.432 49.8056 127.108 49.7901C126.521 49.7621 125.931 49.7636 125.345 49.7901C125.014 49.8056 124.906 49.7341 124.907 49.3746C124.918 46.5054 124.91 43.6361 124.892 40.7669C124.887 40.1492 124.848 39.5268 124.669 38.9261C124.445 38.173 123.941 37.7078 123.163 37.574C122.036 37.381 120.975 37.5895 120.028 38.2322C119.31 38.7176 118.962 39.4241 118.947 40.2783C118.927 41.4282 118.922 42.5781 118.921 43.7295C118.916 45.6169 118.911 47.5043 118.927 49.3917C118.93 49.7216 118.831 49.8056 118.511 49.7916C117.898 49.7667 117.283 49.7745 116.67 49.7885C116.429 49.7947 116.331 49.7465 116.333 49.4742C116.341 42.9982 116.341 36.5221 116.333 30.0461C116.333 29.7878 116.407 29.7147 116.662 29.7225C117.302 29.7396 117.942 29.7427 118.582 29.7209C118.875 29.71 118.954 29.7925 118.952 30.0866C118.94 32.4781 118.944 34.8697 118.944 37.2612C118.947 37.3857 118.947 37.5117 118.947 37.7405Z" fill="#344154"/>
<path d="M113.304 47.1948C113.304 47.811 113.293 48.3665 113.309 48.9204C113.315 49.1631 113.132 49.1834 112.987 49.2425C111.472 49.8649 109.882 50.1387 108.254 50.159C106.634 50.1792 105.052 49.952 103.604 49.1616C101.894 48.2295 100.837 46.7638 100.332 44.9464C99.4431 41.7442 99.4384 38.5264 100.594 35.3833C101.676 32.4409 103.907 30.8647 107.01 30.4866C108.968 30.2469 110.889 30.4586 112.774 31.0327C113.063 31.1199 113.207 31.2334 113.182 31.5664C113.146 32.0535 113.173 32.5451 113.173 33.0882C112.453 32.7708 111.767 32.4938 111.041 32.3429C109.423 32.0068 107.804 31.8916 106.225 32.5109C104.769 33.0804 103.893 34.2023 103.353 35.612C102.685 37.3625 102.6 39.1892 102.644 41.0315C102.68 42.5517 102.87 44.0455 103.513 45.449C104.379 47.3411 105.891 48.2949 107.966 48.4022C109.724 48.4941 111.389 48.1471 112.959 47.3535C113.052 47.3068 113.144 47.2679 113.304 47.1948Z" fill="#344154"/>
<path d="M71.1249 48.2529C69.4938 49.966 67.5177 50.3628 65.3361 50.0111C63.887 49.7777 62.9287 48.7461 62.6777 47.2788C62.5335 46.4339 62.4864 45.5843 62.4833 44.7317C62.4723 42.018 62.4848 39.3044 62.4707 36.5907C62.4692 36.2608 62.5664 36.1799 62.8848 36.1939C63.498 36.2188 64.1128 36.2157 64.7245 36.1955C64.9989 36.1862 65.0726 36.2655 65.0711 36.5378C65.0601 39.071 65.0601 41.6026 65.0679 44.1357C65.0695 44.8981 65.0977 45.659 65.1871 46.4168C65.333 47.6585 65.8929 48.284 67.1131 48.438C68.2345 48.5796 69.2633 48.3011 70.1479 47.5807C70.8364 47.0205 71.0732 46.2752 71.0701 45.4147C71.0638 42.6233 71.0732 39.8334 71.0748 37.042C71.0763 36.2002 71.0748 36.2002 71.9201 36.2002C72.3765 36.2002 72.8345 36.2204 73.2909 36.1924C73.5888 36.1753 73.6563 36.2686 73.6547 36.5565C73.6422 38.9605 73.6516 41.3629 73.6469 43.7669C73.6422 45.6793 73.6547 47.59 73.8884 49.493C73.9151 49.7093 73.8711 49.7902 73.6328 49.7855C72.9537 49.7715 72.2746 49.7746 71.5955 49.784C71.3947 49.7871 71.321 49.7139 71.299 49.5226C71.2536 49.118 71.1892 48.7134 71.1249 48.2529Z" fill="#344154"/>
<path d="M155.321 37.9942C156.878 36.2639 158.784 35.64 161.001 35.931C162.665 36.1488 163.627 37.1664 163.845 38.8531C163.944 39.6093 163.988 40.3702 163.989 41.1326C163.994 43.8852 163.984 46.6377 163.999 49.3903C164 49.7186 163.904 49.8042 163.584 49.7902C162.998 49.7653 162.408 49.7622 161.822 49.7902C161.486 49.8057 161.384 49.7279 161.386 49.3747C161.403 46.7513 161.401 44.1279 161.39 41.5045C161.387 40.8728 161.34 40.241 161.299 39.6109C161.197 38.0331 160.277 37.42 158.723 37.4807C157.258 37.5383 156.003 38.4283 155.573 39.7027C155.373 40.2986 155.385 40.9257 155.385 41.545C155.383 44.1559 155.376 46.7669 155.394 49.3763C155.398 49.7357 155.288 49.8042 154.958 49.7902C154.372 49.7637 153.782 49.7653 153.196 49.7902C152.888 49.8026 152.802 49.717 152.804 49.4058C152.818 47.2088 152.81 45.0117 152.811 42.8147C152.813 40.7094 152.821 38.6026 152.571 36.5067C152.543 36.2748 152.581 36.1893 152.841 36.197C153.494 36.2157 154.148 36.2157 154.8 36.197C155.046 36.1893 155.117 36.2888 155.139 36.5004C155.195 36.9844 155.258 37.4667 155.321 37.9942Z" fill="#344154"/>
<path d="M139.143 47.9759C138.671 48.6247 138.185 49.1335 137.555 49.4945C135.737 50.5308 133.069 50.2134 131.747 48.827C130.433 47.4484 130.237 44.4609 131.857 43.1321C132.668 42.4661 133.623 42.1549 134.631 41.9651C135.972 41.7114 137.329 41.6912 138.687 41.7737C138.985 41.7923 139.073 41.7208 139.054 41.4267C139.021 40.9117 139.055 40.392 139.01 39.8785C138.87 38.3054 137.998 37.5071 136.405 37.476C135.048 37.4496 133.769 37.7623 132.553 38.3489C132.404 38.4205 132.254 38.4921 132.039 38.5932C132.039 38.0082 132.039 37.4745 132.039 36.9408C132.039 36.74 132.221 36.7385 132.34 36.6887C133.593 36.1659 134.906 35.92 136.259 35.8625C137.097 35.8267 137.931 35.8625 138.748 36.0507C140.436 36.4413 141.333 37.4667 141.526 39.1705C141.603 39.8536 141.599 40.5367 141.601 41.2213C141.604 43.2363 141.603 45.2513 141.618 47.2679C141.624 48.1081 141.744 48.9375 142.007 49.7824C141.203 49.7824 140.436 49.7777 139.669 49.7855C139.474 49.787 139.44 49.6828 139.402 49.5287C139.283 49.051 139.203 48.5687 139.143 47.9759ZM139.023 44.4935C139.03 44.4935 139.037 44.4935 139.045 44.4935C139.045 44.0921 139.041 43.6922 139.046 43.2908C139.048 43.1429 139.027 43.0465 138.839 43.0434C137.584 43.0278 136.33 42.9936 135.122 43.4199C133.831 43.8758 133.215 44.7674 133.304 46.1133C133.369 47.0749 133.737 47.8903 134.697 48.2715C136.49 48.9841 138.928 47.7751 139.019 45.6528C139.037 45.2684 139.023 44.881 139.023 44.4935Z" fill="#344154"/>
<path d="M87.9114 42.1718C87.9114 43.5022 87.9082 44.8341 87.9129 46.1645C87.9145 46.5659 87.9788 46.9596 88.076 47.3517C88.225 47.9461 88.6391 48.2308 89.2115 48.3211C89.8248 48.4175 90.4364 48.3584 91.034 48.1997C91.2379 48.1452 91.3194 48.1577 91.3084 48.3926C91.2928 48.7536 91.299 49.1162 91.3069 49.4787C91.31 49.6359 91.2551 49.7028 91.0936 49.7355C89.9204 49.9751 88.7442 50.0902 87.5616 49.8102C86.3179 49.5145 85.6012 48.6556 85.4224 47.2552C85.3612 46.7822 85.3251 46.3045 85.3267 45.8253C85.3314 43.2143 85.3236 40.6034 85.3361 37.9924C85.3377 37.6921 85.2671 37.591 84.9534 37.6112C84.4986 37.6392 84.0391 37.6096 83.5827 37.6221C83.3741 37.6283 83.2737 37.5879 83.291 37.3529C83.3114 37.0573 83.3082 36.7585 83.2925 36.4613C83.2816 36.2544 83.3537 36.1952 83.5576 36.1999C84.0406 36.2124 84.5237 36.189 85.0068 36.2092C85.264 36.2201 85.3377 36.1346 85.3471 35.8872C85.3847 34.9193 85.4569 33.9531 85.4835 32.9852C85.4914 32.6865 85.5902 32.6165 85.8725 32.6258C86.4465 32.646 87.0221 32.6429 87.5961 32.6274C87.8361 32.6211 87.9082 32.6943 87.9051 32.9323C87.8925 33.9017 87.9098 34.8711 87.8925 35.8405C87.8878 36.119 87.9427 36.2217 88.2517 36.2124C89.0218 36.1875 89.7918 36.2108 90.5635 36.1999C90.7768 36.1968 90.8709 36.245 90.8568 36.4769C90.8379 36.7725 90.8379 37.0713 90.8568 37.3685C90.8693 37.5832 90.7846 37.6252 90.587 37.6221C89.8028 37.6127 89.0202 37.6299 88.236 37.6112C87.9647 37.605 87.8894 37.6719 87.8925 37.9473C87.9082 39.3555 87.9004 40.7652 87.9004 42.1734C87.902 42.1718 87.9067 42.1718 87.9114 42.1718Z" fill="#344154"/>
<path d="M80.6271 39.7912C80.6271 42.9965 80.6224 46.2003 80.6334 49.4056C80.635 49.7028 80.5691 49.8024 80.2523 49.79C79.5998 49.7635 78.9474 49.7744 78.2934 49.7869C78.0911 49.79 77.9986 49.7355 78.0268 49.527C78.0331 49.4757 78.0284 49.4243 78.0284 49.3714C78.0284 42.9623 78.0315 36.5516 78.0205 30.1425C78.0205 29.8048 78.0927 29.6975 78.4455 29.7177C79.0446 29.7504 79.6469 29.7441 80.246 29.7192C80.5518 29.7068 80.6334 29.7908 80.6334 30.0989C80.6224 33.3291 80.6271 36.5609 80.6271 39.7912Z" fill="#344154"/>
<path d="M145.868 43.0089C145.868 40.8648 145.874 38.719 145.86 36.5749C145.859 36.2621 145.95 36.1859 146.252 36.1968C146.891 36.2186 147.532 36.2123 148.171 36.1999C148.39 36.1952 148.459 36.2575 148.459 36.4815C148.453 40.8227 148.453 45.164 148.459 49.5067C148.459 49.7261 148.392 49.7946 148.169 49.7899C147.517 49.7775 146.863 49.7728 146.212 49.7915C145.937 49.7993 145.86 49.7183 145.862 49.4461C145.873 47.2988 145.868 45.1546 145.868 43.0089Z" fill="#344154"/>
<path d="M96.2193 42.9684C96.2193 45.1126 96.213 47.2583 96.2256 49.4025C96.2271 49.6997 96.1613 49.8039 95.8429 49.7915C95.2171 49.765 94.5898 49.7697 93.964 49.7899C93.6833 49.7992 93.6205 49.7106 93.6221 49.4445C93.6315 46.8086 93.6284 44.1728 93.6284 41.5385C93.6284 39.872 93.6346 38.2056 93.6221 36.5391C93.6205 36.2715 93.6801 36.1859 93.9609 36.1968C94.5866 36.2201 95.214 36.2201 95.8398 36.1968C96.1425 36.1859 96.2303 36.2637 96.2287 36.5749C96.2115 38.705 96.2193 40.8367 96.2193 42.9684Z" fill="#344154"/>
<path d="M94.97 30.463C95.9471 30.4646 96.3172 30.7976 96.4035 31.7545C96.4082 31.8058 96.4161 31.8572 96.4176 31.9085C96.4819 33.298 95.3355 34.0511 94.0557 33.4396C93.3797 33.116 93.4017 32.464 93.4205 31.8587C93.4377 31.2877 93.5726 30.7493 94.236 30.5486C94.4776 30.4755 94.7207 30.4599 94.97 30.463Z" fill="#344154"/>
<path d="M145.654 32.1219C145.654 30.6842 146.871 29.9669 148.066 30.6266C148.694 30.9736 148.662 31.6069 148.645 32.2028C148.631 32.7272 148.498 33.2173 147.949 33.4414C147.423 33.6561 146.878 33.6483 146.343 33.4601C145.926 33.3138 145.766 32.9621 145.692 32.5654C145.659 32.3895 145.661 32.2059 145.654 32.1219Z" fill="#344154"/>
<path d="M31.8952 36.7064C29.861 28.858 22.1055 23.857 14.0833 25.2232C7.42088 26.3575 2.27351 31.5172 1.21016 38.1223C1.1584 38.4475 1.07058 38.7665 1 39.0902C1 40.072 1 41.0554 1 42.0372C1.1835 42.0854 1.12076 42.2473 1.13331 42.3577C1.94572 49.0205 6.88136 54.356 13.5187 55.7408C13.917 55.8248 14.3358 55.8202 14.7153 55.9991C15.97 55.9991 17.2231 55.9991 18.4778 55.9991C18.4967 55.9384 18.5437 55.9338 18.597 55.9291C19.6039 55.842 20.5779 55.607 21.5361 55.302C29.3905 52.8047 33.945 44.6248 31.8952 36.7064ZM13.1862 32.7464C13.3916 33.1338 13.5955 33.5228 13.7571 33.9289C13.9735 34.4735 13.5893 35.0026 12.9509 34.9979C12.7251 35.0072 12.5055 34.8812 12.3455 34.6556C12.1056 34.3179 11.8672 33.9787 11.646 33.6286C11.3449 33.151 11.4594 32.6048 11.9001 32.3418C12.3597 32.0695 12.9164 32.236 13.1862 32.7464ZM15.0227 40.1591C15.2768 40.1762 15.4729 40.2665 15.4713 40.5372C15.4697 40.8064 15.2705 40.8998 15.0196 40.9169C13.9531 40.99 12.8882 41.0725 11.8217 41.141C11.4343 41.1659 11.1442 40.9029 11.1348 40.5528C11.1254 40.198 11.3967 39.9382 11.7872 39.932C11.8782 39.9304 11.9691 39.932 12.0601 39.932C12.0601 39.9351 12.0601 39.9382 12.0601 39.9428C13.0466 40.0144 14.0347 40.0907 15.0227 40.1591ZM10.8289 29.3543C11.4469 29.3621 11.9534 29.8569 11.955 30.4544C11.9566 31.0768 11.4312 31.5856 10.8038 31.5701C10.1812 31.5545 9.69814 31.0581 9.70598 30.4466C9.71383 29.8289 10.2094 29.3466 10.8289 29.3543ZM4.96169 41.628C4.35473 41.6327 3.84972 41.1238 3.85599 40.5155C3.86226 39.9148 4.34532 39.4496 4.96012 39.4527C5.5608 39.4558 6.05483 39.946 6.05327 40.5357C6.05013 41.1223 5.54982 41.6249 4.96169 41.628ZM8.18154 41.3899C7.57615 41.421 7.14955 41.0663 7.14955 40.5419C7.15112 39.9926 7.59026 39.627 8.20349 39.6659C8.5799 39.6908 8.95787 39.7079 9.33271 39.7452C9.8142 39.7935 10.1294 40.1218 10.1247 40.545C10.12 40.9729 9.80009 41.2841 9.31076 41.323C8.93592 41.3526 8.55794 41.3681 8.18154 41.3899ZM10.8336 51.6937C10.2455 51.7077 9.73578 51.2067 9.73108 50.6107C9.72637 50.007 10.1985 49.5293 10.8101 49.5184C11.4296 49.5075 11.9331 50.0101 11.9221 50.6278C11.9111 51.1942 11.4139 51.6812 10.8336 51.6937ZM13.7069 47.2124C13.5155 47.6061 13.3367 48.0075 13.1266 48.3919C12.9258 48.756 12.5337 48.9131 12.1667 48.8136C11.7496 48.7 11.5018 48.3872 11.4986 47.9531C11.4814 47.7788 11.5472 47.6123 11.6492 47.4583C11.8844 47.1051 12.1166 46.7488 12.3675 46.4064C12.6326 46.0454 13.0827 45.9661 13.4418 46.1948C13.7884 46.4173 13.8966 46.825 13.7069 47.2124ZM16.2272 42.087C15.7395 43.0859 15.2501 44.0849 14.7545 45.0792C14.742 45.1041 14.7279 45.1274 14.7138 45.1492C14.6087 45.3017 14.4424 45.3764 14.2433 45.381C14.0582 45.3873 13.9108 45.3281 13.7963 45.2099C13.7775 45.1896 13.7586 45.1694 13.743 45.1461C13.7257 45.1227 13.71 45.0994 13.6943 45.073C13.5532 44.8318 13.6002 44.5999 13.7492 44.3805C14.1993 43.7177 14.6542 43.0564 15.1059 42.3951C15.2596 42.171 15.4117 41.9454 15.567 41.7229C15.6971 41.5377 15.8759 41.4771 16.0767 41.5875C16.279 41.6996 16.3276 41.8816 16.2272 42.087ZM16.0798 39.4807C15.8351 39.6145 15.6595 39.4869 15.5215 39.2847C14.9286 38.4195 14.3327 37.556 13.7414 36.6908C13.5924 36.473 13.5438 36.238 13.6786 35.9969C13.7947 35.7899 13.9813 35.6841 14.2291 35.6732C14.4942 35.6888 14.6887 35.8117 14.8079 36.0575C15.2705 37.0098 15.7379 37.9605 16.2037 38.9112C16.3151 39.1337 16.326 39.3453 16.0798 39.4807ZM22.5634 29.3839C23.1672 29.3855 23.6785 29.8771 23.677 30.4544C23.6754 31.0426 23.1735 31.5421 22.5791 31.5483C21.98 31.5545 21.4765 31.0628 21.4765 30.47C21.4765 29.8631 21.958 29.3823 22.5634 29.3839ZM22.256 40.5808C22.2309 40.9356 21.9753 41.1643 21.5926 41.1394C20.5261 41.0725 19.4612 40.9931 18.3947 40.9185C18.1532 40.9013 17.9446 40.8251 17.9368 40.5466C17.9273 40.2369 18.1485 40.1762 18.4088 40.1576C19.3969 40.0891 20.385 40.0129 21.4781 39.9304C21.4766 39.9304 21.5816 39.9242 21.6851 39.932C22.0459 39.96 22.2811 40.2276 22.256 40.5808ZM19.629 34.0239C19.8313 33.5368 20.0682 33.0607 20.3301 32.6032C20.5246 32.2656 20.948 32.1567 21.326 32.2812C21.6742 32.3947 21.9141 32.7371 21.9063 33.1121C21.9063 33.1385 21.9141 33.1665 21.9047 33.1883C21.6412 33.862 21.2789 34.4782 20.6845 34.9092C20.4446 35.0835 20.1262 35.0197 19.8847 34.8159C19.6416 34.6089 19.5035 34.3273 19.629 34.0239ZM17.1777 38.9844C17.6654 37.9761 18.1563 36.9709 18.6566 35.9688C18.7554 35.7712 18.9531 35.6872 19.1805 35.6794C19.4142 35.6934 19.6039 35.7915 19.72 36C19.8533 36.2411 19.8015 36.473 19.6525 36.6908C19.2071 37.3412 18.7617 37.9901 18.3163 38.6389C18.1563 38.8723 17.9995 39.1057 17.8379 39.3376C17.7093 39.5196 17.5337 39.5881 17.3298 39.4823C17.1243 39.3749 17.082 39.182 17.1777 38.9844ZM18.7617 45.2348C18.6958 45.1741 18.6425 45.0978 18.5986 45.0107C18.1297 44.06 17.6701 43.1046 17.2043 42.1524C17.0945 41.9283 17.0836 41.7136 17.3298 41.5844C17.5525 41.4677 17.7313 41.5766 17.863 41.768C18.4716 42.6549 19.0895 43.5356 19.6808 44.4334C19.7341 44.5143 19.767 44.5968 19.7827 44.6793C19.7874 44.7073 19.7906 44.7337 19.7921 44.7618C19.7937 44.7898 19.7937 44.8162 19.7906 44.8427C19.789 44.8691 19.7843 44.8956 19.778 44.9205C19.7216 45.1756 19.4941 45.3779 19.1852 45.3841C19.0111 45.3904 18.8715 45.3344 18.7617 45.2348ZM20.3332 48.479C20.0493 48.034 19.8141 47.5579 19.6306 47.0646C19.5051 46.7239 19.6384 46.4298 19.9286 46.2182C20.247 45.9863 20.6124 45.9785 20.937 46.324C21.3307 46.7441 21.6632 47.228 21.8906 47.7679C21.9141 47.8255 21.9079 47.894 21.911 47.9189C21.9141 48.353 21.682 48.6688 21.2915 48.798C20.9402 48.9162 20.5371 48.8011 20.3332 48.479ZM22.5681 51.6968C21.9722 51.6952 21.4765 51.2004 21.475 50.6076C21.4734 50.0132 21.9769 49.5122 22.565 49.52C23.23 49.6133 23.6613 49.9525 23.677 50.6232C23.6895 51.2098 23.1625 51.6999 22.5681 51.6968ZM25.2296 41.3915C24.8407 41.3681 24.4502 41.3541 24.0628 41.3183C23.6033 41.2763 23.2927 40.962 23.2802 40.5544C23.2676 40.1358 23.5876 39.7966 24.0628 39.7499C24.4376 39.7126 24.814 39.6954 25.1904 39.669C25.8052 39.627 26.2193 39.9553 26.235 40.4968C26.2506 41.0725 25.868 41.4164 25.2296 41.3915ZM28.426 41.628C27.8347 41.6093 27.3187 41.0896 27.3532 40.5092C27.3924 39.865 27.8002 39.4901 28.4746 39.4605C29.0737 39.4356 29.5568 39.96 29.5473 40.5606C29.5379 41.141 29.0078 41.6451 28.426 41.628Z" fill="#344154"/>
</g>
<defs>
<clipPath id="clip0">
<rect x="1" y="25" width="163" height="31" fill="white"/>
</clipPath>
</defs>
</svg>
