<svg width="31" height="35" viewBox="0 0 31 35" fill="none" xmlns="http://www.w3.org/2000/svg">
<path d="M15.1587 4.37483H1.12563C0.978556 4.37127 0.832261 4.39727 0.69542 4.45129C0.55858 4.50531 0.433979 4.58626 0.329006 4.68934C0.224032 4.79241 0.140823 4.91552 0.0843117 5.05135C0.0278 5.18718 -0.000863756 5.33298 1.98225e-05 5.48009V34.9998H16.2636V5.48009C16.2668 5.3341 16.2405 5.18896 16.1861 5.05342C16.1317 4.91789 16.0505 4.79478 15.9472 4.6915C15.844 4.58822 15.7209 4.50692 15.5854 4.45249C15.4499 4.39807 15.3047 4.37165 15.1587 4.37483ZM6.27719 31.6344C6.27719 31.8362 6.19703 32.0297 6.05434 32.1724C5.91165 32.3151 5.71812 32.3953 5.51632 32.3953C5.31453 32.3953 5.121 32.3151 4.97831 32.1724C4.83562 32.0297 4.75545 31.8362 4.75545 31.6344V27.2839C4.75545 27.0821 4.83562 26.8885 4.97831 26.7458C5.121 26.6031 5.31453 26.523 5.51632 26.523C5.71812 26.523 5.91165 26.6031 6.05434 26.7458C6.19703 26.8885 6.27719 27.0821 6.27719 27.2839V31.6344ZM6.27719 24.7866C6.27719 24.9884 6.19703 25.1819 6.05434 25.3246C5.91165 25.4673 5.71812 25.5475 5.51632 25.5475C5.31453 25.5475 5.121 25.4673 4.97831 25.3246C4.83562 25.1819 4.75545 24.9884 4.75545 24.7866V20.436C4.75545 20.2342 4.83562 20.0407 4.97831 19.898C5.121 19.7553 5.31453 19.6752 5.51632 19.6752C5.71812 19.6752 5.91165 19.7553 6.05434 19.898C6.19703 20.0407 6.27719 20.2342 6.27719 20.436V24.7866ZM6.27719 17.8803C6.27719 18.0821 6.19703 18.2756 6.05434 18.4183C5.91165 18.561 5.71812 18.6411 5.51632 18.6411C5.31453 18.6411 5.121 18.561 4.97831 18.4183C4.83562 18.2756 4.75545 18.0821 4.75545 17.8803V13.5297C4.75545 13.3279 4.83562 13.1344 4.97831 12.9917C5.121 12.849 5.31453 12.7688 5.51632 12.7688C5.71812 12.7688 5.91165 12.849 6.05434 12.9917C6.19703 13.1344 6.27719 13.3279 6.27719 13.5297V17.8803ZM6.27719 10.974C6.27719 11.1757 6.19703 11.3693 6.05434 11.512C5.91165 11.6547 5.71812 11.7348 5.51632 11.7348C5.31453 11.7348 5.121 11.6547 4.97831 11.512C4.83562 11.3693 4.75545 11.1757 4.75545 10.974V6.62339C4.75545 6.4216 4.83562 6.22807 4.97831 6.08538C5.121 5.94269 5.31453 5.86252 5.51632 5.86252C5.71812 5.86252 5.91165 5.94269 6.05434 6.08538C6.19703 6.22807 6.27719 6.4216 6.27719 6.62339V10.974ZM11.5082 31.6344C11.5082 31.8362 11.428 32.0297 11.2853 32.1724C11.1426 32.3151 10.9491 32.3953 10.7473 32.3953C10.5455 32.3953 10.352 32.3151 10.2093 32.1724C10.0666 32.0297 9.98643 31.8362 9.98643 31.6344V27.2839C9.98643 27.0821 10.0666 26.8885 10.2093 26.7458C10.352 26.6031 10.5455 26.523 10.7473 26.523C10.9491 26.523 11.1426 26.6031 11.2853 26.7458C11.428 26.8885 11.5082 27.0821 11.5082 27.2839V31.6344ZM11.5082 24.7866C11.5082 24.9884 11.428 25.1819 11.2853 25.3246C11.1426 25.4673 10.9491 25.5475 10.7473 25.5475C10.5455 25.5475 10.352 25.4673 10.2093 25.3246C10.0666 25.1819 9.98643 24.9884 9.98643 24.7866V20.436C9.98643 20.2342 10.0666 20.0407 10.2093 19.898C10.352 19.7553 10.5455 19.6752 10.7473 19.6752C10.9491 19.6752 11.1426 19.7553 11.2853 19.898C11.428 20.0407 11.5082 20.2342 11.5082 20.436V24.7866ZM11.5082 17.8803C11.5082 18.0821 11.428 18.2756 11.2853 18.4183C11.1426 18.561 10.9491 18.6411 10.7473 18.6411C10.5455 18.6411 10.352 18.561 10.2093 18.4183C10.0666 18.2756 9.98643 18.0821 9.98643 17.8803V13.5297C9.98643 13.3279 10.0666 13.1344 10.2093 12.9917C10.352 12.849 10.5455 12.7688 10.7473 12.7688C10.9491 12.7688 11.1426 12.849 11.2853 12.9917C11.428 13.1344 11.5082 13.3279 11.5082 13.5297V17.8803ZM11.5082 10.974C11.5082 11.1757 11.428 11.3693 11.2853 11.512C11.1426 11.6547 10.9491 11.7348 10.7473 11.7348C10.5455 11.7348 10.352 11.6547 10.2093 11.512C10.0666 11.3693 9.98643 11.1757 9.98643 10.974V6.62339C9.98643 6.4216 10.0666 6.22807 10.2093 6.08538C10.352 5.94269 10.5455 5.86252 10.7473 5.86252C10.9491 5.86252 11.1426 5.94269 11.2853 6.08538C11.428 6.22807 11.5082 6.4216 11.5082 6.62339V10.974Z" fill="url(#paint0_linear)"/>
<path d="M12.459 1.1297C12.459 0.50037 11.9128 2.88747e-06 11.2835 2.88747e-06H4.90531C4.75818 -0.000334337 4.61249 0.0288698 4.47686 0.0858838C4.34124 0.142898 4.21844 0.226561 4.11575 0.331915C4.01305 0.437268 3.93256 0.562167 3.87903 0.699207C3.82551 0.836247 3.80004 0.982638 3.80414 1.1297V2.85326H12.459V1.1297Z" fill="url(#paint1_linear)"/>
<path d="M29.6894 13.5051H17.7852V34.9997H30.815V14.6163C30.8161 14.4688 30.7875 14.3227 30.7312 14.1865C30.6748 14.0502 30.5917 13.9267 30.4867 13.8231C30.3818 13.7196 30.2572 13.6381 30.1203 13.5834C29.9833 13.5288 29.8368 13.5022 29.6894 13.5051ZM22.6357 33.1618C22.6357 33.3636 22.5555 33.5571 22.4128 33.6998C22.2702 33.8425 22.0766 33.9227 21.8748 33.9227C21.673 33.9227 21.4795 33.8425 21.3368 33.6998C21.1941 33.5571 21.114 33.3636 21.114 33.1618V28.8112C21.114 28.6094 21.1941 28.4159 21.3368 28.2732C21.4795 28.1305 21.673 28.0504 21.8748 28.0504C22.0766 28.0504 22.2702 28.1305 22.4128 28.2732C22.5555 28.4159 22.6357 28.6094 22.6357 28.8112V33.1618ZM22.6357 26.6359C22.6357 26.8377 22.5555 27.0312 22.4128 27.1739C22.2702 27.3166 22.0766 27.3968 21.8748 27.3968C21.673 27.3968 21.4795 27.3166 21.3368 27.1739C21.1941 27.0312 21.114 26.8377 21.114 26.6359V22.2852C21.114 22.0835 21.1941 21.8899 21.3368 21.7472C21.4795 21.6045 21.673 21.5244 21.8748 21.5244C22.0766 21.5244 22.2702 21.6045 22.4128 21.7472C22.5555 21.8899 22.6357 22.0835 22.6357 22.2852V26.6359ZM22.6357 20.11C22.6357 20.3118 22.5555 20.5053 22.4128 20.648C22.2702 20.7907 22.0766 20.8709 21.8748 20.8709C21.673 20.8709 21.4795 20.7907 21.3368 20.648C21.1941 20.5053 21.114 20.3118 21.114 20.11V15.7592C21.114 15.5574 21.1941 15.3639 21.3368 15.2212C21.4795 15.0785 21.673 14.9983 21.8748 14.9983C22.0766 14.9983 22.2702 15.0785 22.4128 15.2212C22.5555 15.3639 22.6357 15.5574 22.6357 15.7592V20.11ZM27.8667 33.1618C27.8667 33.3636 27.7865 33.5571 27.6438 33.6998C27.5011 33.8425 27.3076 33.9227 27.1058 33.9227C26.904 33.9227 26.7105 33.8425 26.5678 33.6998C26.4251 33.5571 26.3449 33.3636 26.3449 33.1618V28.8112C26.3449 28.6094 26.4251 28.4159 26.5678 28.2732C26.7105 28.1305 26.904 28.0504 27.1058 28.0504C27.3076 28.0504 27.5011 28.1305 27.6438 28.2732C27.7865 28.4159 27.8667 28.6094 27.8667 28.8112V33.1618ZM27.8667 26.6359C27.8667 26.8377 27.7865 27.0312 27.6438 27.1739C27.5011 27.3166 27.3076 27.3968 27.1058 27.3968C26.904 27.3968 26.7105 27.3166 26.5678 27.1739C26.4251 27.0312 26.3449 26.8377 26.3449 26.6359V22.2852C26.3449 22.0835 26.4251 21.8899 26.5678 21.7472C26.7105 21.6045 26.904 21.5244 27.1058 21.5244C27.3076 21.5244 27.5011 21.6045 27.6438 21.7472C27.7865 21.8899 27.8667 22.0835 27.8667 22.2852V26.6359ZM27.8667 20.11C27.8667 20.3118 27.7865 20.5053 27.6438 20.648C27.5011 20.7907 27.3076 20.8709 27.1058 20.8709C26.904 20.8709 26.7105 20.7907 26.5678 20.648C26.4251 20.5053 26.3449 20.3118 26.3449 20.11V15.7592C26.3449 15.5574 26.4251 15.3639 26.5678 15.2212C26.7105 15.0785 26.904 14.9983 27.1058 14.9983C27.3076 14.9983 27.5011 15.0785 27.6438 15.2212C27.7865 15.3639 27.8667 15.5574 27.8667 15.7592V20.11Z" fill="url(#paint2_linear)"/>
<defs>
<linearGradient id="paint0_linear" x1="3.48511" y1="4.37451" x2="18.4179" y2="25.6608" gradientUnits="userSpaceOnUse">
<stop stop-color="#FF002E"/>
<stop offset="1" stop-color="#F938AC"/>
</linearGradient>
<linearGradient id="paint1_linear" x1="5.65842" y1="3.29723e-08" x2="6.01644" y2="2.91519" gradientUnits="userSpaceOnUse">
<stop stop-color="#FF002E"/>
<stop offset="1" stop-color="#F938AC"/>
</linearGradient>
<linearGradient id="paint2_linear" x1="20.5773" y1="13.5049" x2="30.5217" y2="29.6859" gradientUnits="userSpaceOnUse">
<stop stop-color="#FF002E"/>
<stop offset="1" stop-color="#F938AC"/>
</linearGradient>
</defs>
</svg>
