<svg width="165" height="80" viewBox="0 0 165 80" fill="none" xmlns="http://www.w3.org/2000/svg">
<g clip-path="url(#clip0)">
<path d="M32.571 17.1962C32.7943 16.8795 33.1266 17.0414 33.4007 17.0414C37.9619 17.0288 42.5248 17.045 47.086 17.018C47.6816 17.0144 47.9848 17.1944 48.2699 17.7036C50.6267 21.8963 53.0162 26.0693 55.4003 30.2566C55.1297 30.5391 54.8138 30.4006 54.5396 30.4024C50.0674 30.4132 45.5971 30.424 41.1249 30.3952C40.4985 30.3916 40.1626 30.5841 39.8612 31.1221C37.6514 35.0558 35.409 38.9714 33.1738 42.8906C33.014 43.1695 32.8469 43.4448 32.6835 43.7165C32.3767 43.6176 32.3276 43.3585 32.2151 43.1605C29.9036 39.1117 27.5958 35.063 25.2989 31.0052C25.1773 30.7892 24.7959 30.5841 25.1246 30.2494C25.3225 30.5031 25.6076 30.4545 25.8727 30.4545C30.3376 30.4563 34.8007 30.4581 39.2656 30.4528C40.0845 30.451 40.1408 30.3088 39.7177 29.5782C38.7191 27.8489 37.7494 26.1017 36.7399 24.3796C35.3454 21.9899 34.098 19.5139 32.571 17.1962Z" fill="#344154"/>
<path d="M48.0267 63.804C47.8397 64.1117 47.5347 63.9624 47.2914 63.9624C42.6685 63.9732 38.0456 63.9696 33.4227 63.9714C33.0305 63.9714 32.7055 63.9875 32.4549 63.5395C30.0563 59.2676 27.625 55.0137 25.1992 50.7471C25.4643 50.4628 25.7821 50.6014 26.0544 50.6014C30.5266 50.5906 34.9988 50.5798 39.4691 50.6086C40.0956 50.6122 40.4297 50.4178 40.7311 49.8816C42.9554 45.921 45.2123 41.9802 47.462 38.0322C47.6073 37.7785 47.7634 37.5319 47.9123 37.2854C48.2137 37.388 48.2646 37.6453 48.3772 37.8432C50.6886 41.892 53 45.9408 55.297 49.9986C55.4204 50.2145 55.7999 50.4178 55.4713 50.7543C55.1844 50.4268 54.7976 50.5528 54.4508 50.5528C50.1675 50.5456 45.8842 50.5438 41.6026 50.5546C41.2885 50.5546 40.8654 50.3836 40.6784 50.7004C40.4714 51.053 40.8328 51.368 40.998 51.6631C42.2563 53.8962 43.5146 56.1293 44.8183 58.3373C45.895 60.1565 46.8065 62.0693 48.0267 63.804Z" fill="#344154"/>
<path opacity="0.8" d="M48.027 63.8038C46.805 62.0692 45.8935 60.1545 44.8186 58.3353C43.5149 56.1291 42.2566 53.8942 40.9983 51.6611C40.8312 51.366 40.4717 51.0511 40.6787 50.6984C40.8657 50.3799 41.2888 50.5526 41.6029 50.5526C45.8863 50.5418 50.1696 50.5436 54.4511 50.5508C54.7979 50.5508 55.1847 50.4249 55.4716 50.7524C53.0494 55.1358 50.5818 59.4941 48.027 63.8038Z" fill="#344154"/>
<path opacity="0.8" d="M32.5718 17.196C34.0988 19.5137 35.3462 21.9898 36.7462 24.3795C37.7557 26.1034 38.7253 27.8488 39.724 29.5781C40.1452 30.3087 40.0908 30.4508 39.2719 30.4526C34.8069 30.458 30.3439 30.4562 25.8789 30.4544C25.612 30.4544 25.327 30.503 25.1309 30.2493C27.5531 25.8658 30.0188 21.5075 32.5718 17.196Z" fill="#344154"/>
<path d="M129.984 33.9276C129.889 35.4013 129.889 35.3816 128.589 35.4103C127.787 35.4283 126.721 35.0595 126.261 35.5741C125.866 36.0186 126.127 37.0478 126.125 37.8198C126.118 40.7763 126.103 43.731 126.138 46.6875C126.145 47.3317 126.018 47.6574 125.31 47.5279C125.194 47.5063 125.067 47.5081 124.949 47.5279C124.202 47.6484 123.934 47.4361 123.948 46.603C124.008 43.1714 123.946 39.7362 123.994 36.3029C124.004 35.5525 123.816 35.3168 123.058 35.3888C122.31 35.4607 121.548 35.3816 120.794 35.4121C120.313 35.4319 120.19 35.2574 120.182 34.7949C120.161 33.4849 120.139 33.4849 121.433 33.4849C124.727 33.4849 128.021 33.4993 131.313 33.4705C131.881 33.4651 132.146 33.6397 132.373 34.1543C133.17 35.9466 134.031 37.7118 134.935 39.6337C135.807 37.7712 136.611 36.051 137.417 34.3325C137.753 33.6163 139.102 33.134 139.811 33.5065C140.223 33.7225 139.843 33.9708 139.752 34.1579C138.67 36.3515 137.592 38.5468 136.46 40.7169C136.088 41.4295 135.903 42.1295 135.93 42.9285C135.974 44.2115 135.901 45.4981 135.959 46.7793C135.988 47.4325 135.761 47.6251 135.151 47.5333C134.944 47.5027 134.725 47.5027 134.518 47.5333C134.009 47.6089 133.928 47.3623 133.935 46.9251C133.958 45.4333 133.947 43.9398 133.94 42.4462C133.938 42.1547 133.975 41.8668 133.826 41.5735C132.575 39.1028 131.34 36.6286 129.984 33.9276Z" fill="#344154"/>
<path d="M104.178 40.4901C104.178 38.4333 104.217 36.3747 104.159 34.3197C104.137 33.5802 104.391 33.438 105.063 33.4668C106.238 33.5172 107.416 33.4794 108.593 33.4812C111.857 33.4848 113.762 35.2698 113.913 38.4927C113.985 40.0384 113.974 41.5859 113.849 43.1317C113.648 45.5825 111.609 47.4864 109.114 47.5169C107.667 47.5349 106.218 47.5008 104.77 47.5313C104.287 47.5421 104.166 47.3892 104.171 46.9285C104.191 44.7836 104.178 42.6368 104.178 40.4901ZM106.301 40.5135C106.301 42.0016 106.299 43.4916 106.303 44.9797C106.303 45.2352 106.223 45.5339 106.672 45.5196C107.574 45.489 108.487 45.5591 109.379 45.4494C110.693 45.2874 111.569 44.4057 111.71 43.0921C111.897 41.3754 111.915 39.6443 111.687 37.9276C111.503 36.5493 110.385 35.5902 108.972 35.5236C108.311 35.493 107.643 35.556 106.984 35.5056C106.396 35.4606 106.277 35.6999 106.29 36.2254C106.323 37.6541 106.301 39.0847 106.301 40.5135Z" fill="#344154"/>
<path d="M85.3775 40.5352C85.3775 41.4278 85.412 42.3221 85.3702 43.2128C85.2576 45.6781 83.2549 47.5837 80.7273 47.6701C78.1454 47.7583 75.9973 46.0002 75.7195 43.5098C75.4907 41.4638 75.4907 39.4052 75.7268 37.361C76.0028 34.9767 78.1671 33.2942 80.7836 33.3644C83.2004 33.4274 85.2413 35.3312 85.3647 37.6813C85.4156 38.6314 85.3738 39.5851 85.3738 40.5371C85.3756 40.5353 85.3756 40.5352 85.3775 40.5352ZM83.3093 40.2707C83.3093 39.9918 83.3239 39.4844 83.3039 38.9805C83.2894 38.5954 83.244 38.2086 83.1859 37.8271C82.9825 36.5117 81.9148 35.5634 80.5984 35.5184C79.2965 35.4734 78.1145 36.3551 77.9075 37.6849C77.6133 39.5725 77.6043 41.4836 77.9148 43.3694C78.1272 44.6614 79.3546 45.5647 80.6329 45.5089C81.9366 45.4514 83.0079 44.4779 83.1913 43.1679C83.3148 42.2825 83.3656 41.3918 83.3093 40.2707Z" fill="#344154"/>
<path d="M68.8137 47.6771C67.0379 47.6699 65.4582 47.1894 64.0365 46.1853C63.5989 45.8776 63.4555 45.6095 63.9239 45.2316C63.9693 45.1938 64.0075 45.1452 64.0383 45.093C64.5177 44.3031 64.9644 44.0709 65.8904 44.7134C67.047 45.5159 68.456 45.712 69.8814 45.372C70.969 45.1128 71.5246 44.4866 71.5228 43.5347C71.521 42.6062 70.9146 41.953 69.8342 41.7496C69.1533 41.6219 68.4651 41.5373 67.7824 41.4149C65.52 41.0119 64.1509 39.4463 64.2326 37.3698C64.3234 35.0737 65.7833 33.5603 68.1637 33.3768C69.7997 33.2508 71.3285 33.6395 72.7503 34.4672C73.1988 34.7282 73.2151 34.9297 72.9264 35.349C72.1293 36.506 72.1602 36.5024 70.8873 36.0022C69.8996 35.6135 68.8846 35.3454 67.8042 35.6531C66.909 35.9086 66.4133 36.5186 66.3806 37.4004C66.3498 38.2731 66.88 38.8165 67.708 39.1044C68.4288 39.3546 69.186 39.3762 69.925 39.5093C72.4561 39.9646 73.7035 41.4167 73.6091 43.7848C73.5183 46.0917 72.1638 47.3945 69.5909 47.6411C69.3221 47.6663 69.0498 47.6663 68.8137 47.6771Z" fill="#344154"/>
<path d="M88.1021 40.4684C88.1021 38.4116 88.133 36.3548 88.084 34.298C88.0676 33.6214 88.2547 33.3623 88.9319 33.4757C89.1081 33.5045 89.2969 33.5045 89.473 33.4757C90.0994 33.3731 90.2738 33.6034 90.2683 34.2368C90.2338 37.7242 90.2701 41.2115 90.2356 44.6989C90.2284 45.3503 90.3627 45.5572 91.06 45.5338C92.7777 45.4762 94.499 45.5356 96.2167 45.5032C96.7741 45.4924 97.0683 45.595 96.9666 46.2158C96.9248 46.4767 96.9375 46.7539 96.9648 47.0184C97.0029 47.4017 96.8704 47.5312 96.4654 47.5294C93.8708 47.5132 91.2779 47.5096 88.6832 47.5312C88.1838 47.5348 88.0876 47.3549 88.0912 46.9068C88.113 44.7619 88.1021 42.6151 88.1021 40.4684Z" fill="#344154"/>
<path d="M118.75 40.4991C118.75 42.6189 118.727 44.7387 118.766 46.8566C118.777 47.4271 118.607 47.6178 118.064 47.5224C118.035 47.517 118.004 47.5224 117.973 47.5224C116.628 47.5314 116.628 47.5314 116.628 46.2358C116.628 42.2662 116.649 38.2948 116.608 34.3252C116.6 33.5892 116.838 33.3769 117.515 33.4777C117.663 33.4993 117.82 33.5011 117.968 33.4777C118.583 33.3751 118.783 33.5802 118.768 34.2316C118.719 36.319 118.75 38.41 118.75 40.4991Z" fill="#344154"/>
<path d="M101.225 40.5477C101.225 42.6027 101.192 44.6595 101.243 46.7126C101.261 47.3982 101.06 47.6268 100.393 47.5278C100.128 47.4882 99.8505 47.5026 99.5817 47.526C99.224 47.5566 99.126 47.4126 99.126 47.0689C99.1351 42.6909 99.1369 38.311 99.126 33.9329C99.126 33.5856 99.2367 33.4992 99.5835 33.4722C101.227 33.3445 101.225 33.3319 101.225 34.919C101.225 36.794 101.225 38.6709 101.225 40.5477Z" fill="#344154"/>
</g>
<defs>
<clipPath id="clip0">
<rect x="25" y="17" width="115" height="47" fill="white"/>
</clipPath>
</defs>
</svg>
