<svg width="165" height="80" viewBox="0 0 165 80" fill="none" xmlns="http://www.w3.org/2000/svg">
<g clip-path="url(#clip0)">
<path d="M99.8822 53.6409C99.5404 53.9204 99.2669 54.162 98.9798 54.3752C95.1425 57.1891 89.8878 56.1185 87.1579 51.9971C84.706 48.2974 84.3505 41.708 87.4541 37.7051C89.8468 34.6212 92.996 33.2995 96.7604 33.4132C97.5625 33.4369 98.36 33.5411 99.1211 33.8206C99.5677 33.9864 99.7045 33.9201 99.6999 33.3895C99.6771 30.7983 99.7045 28.2118 99.6771 25.6206C99.6726 25.109 99.8093 24.9906 100.283 25C102.138 25.0284 103.998 25.0237 105.857 25.0048C106.244 25 106.386 25.0806 106.386 25.5306C106.372 35.2844 106.372 45.0335 106.386 54.7873C106.386 55.2089 106.285 55.3321 105.871 55.3273C104.107 55.3037 102.339 55.3084 100.57 55.3273C100.201 55.3321 100.046 55.2231 100.037 54.8299C100.023 54.4557 99.9414 54.091 99.8822 53.6409ZM99.6862 43.3707C99.6862 42.2907 99.6634 41.4048 99.6953 40.519C99.709 40.1258 99.5632 39.9363 99.2305 39.8131C97.8496 39.3157 96.455 39.2305 95.0513 39.6663C94.2219 39.9221 93.5565 40.4479 93.0734 41.1917C91.8338 43.1055 91.6925 45.1803 92.3853 47.3121C92.9959 49.1927 94.5136 50.0928 96.4596 49.8607C98.2598 49.6475 99.3763 48.449 99.6224 46.4594C99.7546 45.3746 99.6452 44.2755 99.6862 43.3707Z" fill="#344154"/>
<path d="M124.473 53.8257C123.781 54.4036 123.07 54.9199 122.249 55.2468C120.189 56.0758 118.093 56.1706 115.987 55.4979C112.861 54.4936 111.184 51.6181 111.667 48.1742C112.123 44.9056 114.215 42.6602 117.633 41.7554C119.693 41.2106 121.784 41.3053 123.876 41.4001C124.551 41.4285 124.574 41.4238 124.41 40.7416C124.136 39.5905 123.316 39.0031 122.277 38.8089C120.367 38.4488 118.503 38.6525 116.739 39.5336C116.279 39.761 115.832 40.0168 115.404 40.3011C115.181 40.4479 115.071 40.4384 114.926 40.2111C114.11 38.9368 113.294 37.6625 112.46 36.3976C112.25 36.085 112.437 35.976 112.638 35.8244C114.183 34.6686 115.887 33.9106 117.756 33.5222C119.843 33.0911 121.944 32.9443 124.05 33.3138C127.75 33.9627 130.006 36.2697 130.74 40.1068C130.904 40.9643 130.986 41.8264 130.986 42.6981C130.986 46.7057 130.977 50.7133 130.995 54.7163C130.995 55.1805 130.89 55.3273 130.425 55.3179C128.698 55.2894 126.966 55.2847 125.234 55.3179C124.742 55.3273 124.592 55.1568 124.606 54.6784C124.624 54.4178 124.615 54.1288 124.473 53.8257ZM124.496 47.0373C124.496 46.9236 124.482 46.8099 124.501 46.6962C124.587 46.1657 124.382 45.962 123.863 45.9478C122.988 45.9193 122.117 45.8814 121.247 45.962C120.54 46.0283 119.834 46.1562 119.21 46.5352C118.426 47.0089 118.093 47.7431 118.134 48.6716C118.17 49.5338 118.489 50.2207 119.305 50.5475C121.288 51.3529 124.692 50.4386 124.496 47.0373Z" fill="#344154"/>
<path d="M34 44.0103C34.1595 40.2395 35.9916 36.8145 39.756 34.7207C43.4521 32.6648 47.1664 32.8921 50.7713 35.1281C51.1496 35.3602 51.1678 35.4786 50.8032 35.7676C49.1944 37.0514 48.0277 38.6952 47.3077 40.6658C47.1801 41.0116 47.0889 41.0685 46.7471 40.8932C44.9652 39.9789 42.9234 40.4432 41.7203 41.997C40.5034 43.565 40.4989 45.7772 41.7112 47.3405C42.9189 48.9038 44.9652 49.368 46.738 48.4585C47.057 48.2974 47.1709 48.3021 47.3077 48.6764C48.0277 50.647 49.1808 52.3003 50.7986 53.5746C51.2589 53.9346 51.0402 54.0388 50.7257 54.2473C46.1638 57.2885 39.9885 56.2701 36.5112 51.9024C34.8659 49.8417 33.9955 47.3215 34 44.0103Z" fill="#344154"/>
<path d="M74.3931 35.9524C74.9035 35.5071 75.3274 35.0903 75.7922 34.735C77.7929 33.1954 80.0078 33.1907 82.3002 33.8065C82.5691 33.8776 82.6283 34.0244 82.5782 34.3039C82.2501 36.123 81.9311 37.942 81.6303 39.7659C81.5756 40.1069 81.448 40.1306 81.1654 40.0406C80.1537 39.728 79.1146 39.6664 78.0846 39.8511C75.815 40.2538 74.507 41.9971 74.4933 44.6025C74.4797 47.8332 74.4888 51.064 74.4888 54.2947C74.4888 55.3085 74.4888 55.3085 73.5226 55.3085C71.7771 55.3085 70.0271 55.2943 68.2816 55.318C67.8669 55.3227 67.7666 55.1948 67.7666 54.7779C67.7803 47.9754 67.7803 41.1728 67.7666 34.3702C67.7666 33.977 67.8258 33.8065 68.2634 33.8112C70.0818 33.8397 71.9047 33.8349 73.7231 33.8112C74.1333 33.8065 74.2609 33.9344 74.2655 34.3513C74.2746 34.8629 74.343 35.365 74.3931 35.9524Z" fill="#344154"/>
<path d="M61.5862 44.6878C61.5862 47.0374 59.7632 48.937 57.4936 48.9512C55.2149 48.9654 53.3646 47.0421 53.3691 44.6641C53.3783 42.3002 55.1921 40.4101 57.4571 40.4006C59.7495 40.3959 61.5907 42.305 61.5862 44.6878Z" fill="#344154"/>
</g>
<defs>
<clipPath id="clip0">
<rect x="34" y="25" width="97" height="31" fill="white"/>
</clipPath>
</defs>
</svg>
