<svg width="165" height="80" viewBox="0 0 165 80" fill="none" xmlns="http://www.w3.org/2000/svg">
<path d="M69.4438 28.1816C69.4438 26.4908 69.4415 24.7978 69.4461 23.107C69.4507 21.1737 70.3246 19.7141 71.99 18.7441C74.932 17.0352 77.8923 15.3558 80.8503 13.674C82.5729 12.6949 84.3184 12.6791 86.0411 13.6536C89.038 15.3467 92.0234 17.0556 95.002 18.7781C96.688 19.7549 97.4979 21.2871 97.5276 23.1705C97.578 26.5158 97.578 29.861 97.5299 33.2063C97.5025 35.2303 96.5828 36.785 94.7618 37.8072C91.893 39.4187 89.0471 41.0732 86.1875 42.7005C84.3962 43.7204 82.5912 43.7476 80.7885 42.7186C77.8992 41.0686 75.0098 39.4187 72.1181 37.7709C70.3154 36.742 69.4141 35.2121 69.4369 33.1429C69.4575 31.4883 69.4438 29.8338 69.4438 28.1816ZM78.0113 26.2959C78.0113 27.9278 78.0296 29.342 77.9998 30.754C77.9907 31.2118 78.2217 31.4294 78.5695 31.6266C80.0496 32.4629 81.532 33.2947 82.9984 34.1537C83.3347 34.3509 83.591 34.3713 83.9318 34.1696C85.1855 33.4262 86.4552 32.71 87.8415 31.9099C84.5587 30.0356 81.3902 28.2247 78.0113 26.2959ZM88.9167 30.133C88.9167 28.5714 88.887 27.2184 88.9305 25.8698C88.9488 25.2987 88.736 24.9995 88.2464 24.7343C86.8509 23.9796 85.4852 23.175 84.1103 22.384C83.7763 22.1914 83.472 22.001 83.0648 22.2412C81.786 22.996 80.4957 23.728 79.1048 24.5303C82.4151 26.4206 85.5858 28.2315 88.9167 30.133ZM78.009 22.7512C81.3559 20.8383 84.5129 19.0342 87.7866 17.1644C86.6908 16.5388 85.778 16.0017 84.8492 15.494C83.9547 15.0045 83.0167 14.9841 82.1291 15.4736C80.7725 16.2238 79.0842 16.7564 78.2194 17.8896C77.4668 18.8755 78.073 20.5777 78.0113 21.9602C78.0021 22.1438 78.009 22.3274 78.009 22.7512ZM71.6034 30.0242C71.6034 31.1756 71.6057 32.1411 71.6034 33.1066C71.6011 34.3395 72.1181 35.2711 73.2117 35.8853C74.3006 36.4972 75.385 37.1159 76.4671 37.7392C76.7667 37.9115 77.0413 38.095 77.4119 37.8797C78.6816 37.1386 79.9581 36.4111 81.365 35.602C78.0913 33.7321 74.9503 31.9371 71.6034 30.0242ZM79.1391 39.2713C80.2395 39.8923 81.2072 40.4544 82.1909 40.987C83.0991 41.4789 84.0119 41.4109 84.8995 40.91C86.0502 40.2595 87.2009 39.6045 88.3494 38.9495C88.6056 38.8044 88.9144 38.7093 88.9144 38.324C88.9099 36.8462 88.9122 35.3708 88.9122 33.6959C85.5698 35.602 82.4357 37.3902 79.1391 39.2713ZM91.0717 26.3752C91.0717 30.099 91.0717 33.6891 91.0717 37.3925C92.1378 36.7805 93.0986 36.2638 94.0229 35.6903C94.8076 35.2053 95.2651 34.4619 95.2948 33.5463C95.3406 32.123 95.3063 30.6974 95.3109 29.2718C95.3109 29.0066 95.3177 28.7641 95.0272 28.6032C93.7232 27.8824 92.4261 27.1413 91.0717 26.3752ZM95.3086 26.3911C95.3086 25.2193 95.288 24.2833 95.3131 23.3473C95.3475 22.1007 94.8259 21.1805 93.7415 20.5618C92.6594 19.943 91.575 19.3243 90.4907 18.7101C90.2047 18.5469 89.9462 18.3135 89.5641 18.5378C88.2739 19.2926 86.9745 20.0269 85.563 20.8338C88.8481 22.7036 91.98 24.4918 95.3086 26.3911ZM75.8997 19.0251C74.8588 19.6144 73.9666 20.0994 73.095 20.6162C72.1044 21.2032 71.6171 22.0916 71.608 23.2294C71.5988 24.4669 71.6103 25.7044 71.6011 26.9418C71.5988 27.3249 71.5988 27.6603 72.0198 27.8915C73.2986 28.5896 74.5568 29.3216 75.8997 30.0854C75.8997 26.3571 75.8997 22.767 75.8997 19.0251Z" fill="#344154"/>
<path d="M106.256 66.1106C103.559 69.014 99.4273 68.2116 97.4965 66.2784C94.9869 63.7671 94.8725 59.3453 97.3066 56.7547C99.6332 54.2775 103.394 54.2276 106.329 56.7207C106.329 54.6605 106.37 52.6864 106.309 50.7124C106.284 49.8942 106.464 49.5043 107.359 49.6494C107.693 49.7038 108.043 49.6811 108.384 49.6517C108.864 49.6109 109.047 49.7695 109.047 50.2749C109.031 55.9161 109.033 61.5573 109.045 67.1985C109.045 67.6405 108.892 67.8173 108.452 67.7719C108.301 67.7561 108.148 67.7697 107.997 67.7697C106.403 67.7787 106.403 67.7787 106.256 66.1106ZM106.284 61.4372C106.29 59.164 104.588 57.4709 102.269 57.4369C100.123 57.4052 98.3292 59.2274 98.3429 61.4259C98.3567 63.6311 100.134 65.4534 102.264 65.4375C104.577 65.4216 106.277 63.7286 106.284 61.4372Z" fill="#344154"/>
<path d="M63.9692 60.7163C64.1317 59.2137 63.7267 58.1779 62.5852 57.6861C60.4851 56.7818 58.6686 57.4028 57.0855 58.9304C56.9597 58.8103 56.8476 58.7128 56.7424 58.604C55.3606 57.1784 55.3766 56.9087 57.1405 55.8616C59.3458 54.5516 61.7044 54.4949 64.0333 55.4174C65.8269 56.1268 66.6802 57.6589 66.7442 59.5129C66.8334 62.0286 66.7648 64.5466 66.7946 67.0647C66.8014 67.5905 66.6642 67.8398 66.0991 67.7718C65.836 67.7401 65.5661 67.7469 65.303 67.7695C64.4405 67.8421 63.681 67.8194 64.2758 66.1853C62.5783 67.8511 60.858 68.1344 59.0072 67.9916C56.1545 67.7741 54.4524 65.5779 55.1204 62.9624C55.5299 61.3623 57.0855 60.2404 59.1902 60.0953C60.0207 60.0387 60.8694 60.0115 61.6907 60.118C62.4639 60.22 63.2097 60.5101 63.9692 60.7163ZM60.1328 65.5529C61.4162 65.528 62.6264 65.2628 63.6078 64.3903C64.4108 63.6763 64.2323 62.8899 63.2166 62.5771C62.1986 62.2643 61.1622 62.0535 60.0824 62.1238C58.6343 62.219 57.6437 62.9851 57.6552 64.014C57.6666 65.0339 58.5359 65.5733 60.1328 65.5529Z" fill="#344154"/>
<path d="M82.9561 62.3688C81.5492 62.3688 80.1399 62.421 78.7376 62.3484C77.8454 62.3031 77.7905 62.6249 78.0513 63.3185C78.9869 65.8116 82.6656 66.5119 84.7634 64.6013C85.0196 64.3678 85.1317 63.8262 85.6076 63.9826C86.2138 64.182 86.8223 64.4336 87.3554 64.7758C87.7351 65.0206 87.3005 65.2971 87.1586 65.4988C85.802 67.4525 82.78 68.4928 80.2383 67.9035C77.5617 67.2825 75.6377 65.3288 75.2305 62.8153C74.6106 58.9941 76.4659 55.9299 79.9272 55.0505C84.4225 53.9104 88.3414 57.0857 88.1217 61.664C88.0966 62.1898 87.9593 62.3892 87.4011 62.3756C85.921 62.3462 84.4385 62.3688 82.9561 62.3688ZM81.5789 60.4492C82.6381 60.4492 83.6973 60.4401 84.7565 60.4537C85.1958 60.4605 85.4634 60.4673 85.317 59.8531C84.9556 58.3414 83.5646 57.2263 81.8351 57.1719C80.0233 57.1152 78.3647 58.2144 77.9689 59.699C77.8019 60.3245 78.0284 60.4809 78.6301 60.4582C79.6115 60.4197 80.5975 60.4492 81.5789 60.4492Z" fill="#344154"/>
<path d="M45.7657 60.8024C47.1498 59.1252 48.4126 57.6928 49.5565 56.1698C50.1604 55.3652 50.8078 54.9663 51.8282 55.0955C52.4252 55.1703 53.0429 55.1091 53.6354 55.1091C53.8573 55.4717 53.5256 55.6009 53.3746 55.7731C52.0569 57.2803 50.7598 58.8079 49.3826 60.2607C48.7764 60.8999 48.6986 61.2897 49.3437 61.9878C51.0252 63.8054 52.5991 65.7183 54.3698 67.7695C53.2076 67.7695 52.2765 67.7377 51.3455 67.7808C50.8261 67.8057 50.6088 67.468 50.3457 67.1598C48.8793 65.4328 47.4175 63.7035 45.7635 61.7475C45.7635 63.5221 45.7063 65.0679 45.784 66.609C45.8298 67.5179 45.6239 67.8488 44.6288 67.7921C43.0228 67.6992 43.0182 67.7695 43.0182 66.1784C43.0182 61.0268 43.0434 55.8751 42.9953 50.7235C42.9862 49.8146 43.2584 49.5087 44.1323 49.6492C44.3176 49.6787 44.5167 49.6809 44.702 49.6492C45.5278 49.5109 45.8046 49.7806 45.7863 50.6623C45.7246 53.7061 45.7635 56.7522 45.7635 59.7984C45.7657 60.0477 45.7657 60.2924 45.7657 60.8024Z" fill="#344154"/>
<path d="M124.999 61.4354C124.99 65.2453 122.171 68.0194 118.31 68.0149C114.464 68.0126 111.632 65.2067 111.632 61.4036C111.632 57.5665 114.411 54.8604 118.342 54.8672C122.272 54.8763 125.008 57.5756 124.999 61.4354ZM122.265 61.4784C122.293 59.2075 120.696 57.5507 118.41 57.485C116.129 57.417 114.318 59.1531 114.32 61.4014C114.322 63.6452 116.113 65.4493 118.33 65.4379C120.542 65.4266 122.238 63.72 122.265 61.4784Z" fill="#344154"/>
<path d="M72.6529 58.6152C72.6529 61.3191 72.6163 64.0252 72.6735 66.7268C72.6918 67.5699 72.4722 67.9144 71.6075 67.7739C71.349 67.7308 71.0699 67.7308 70.8114 67.7739C70.0244 67.9054 69.8871 67.5405 69.8917 66.8379C69.9214 62.2936 69.9077 57.7494 69.9077 53.2029C69.9077 52.5638 69.9077 51.9269 69.9077 51.2877C69.9077 49.64 69.91 49.6944 71.5571 49.6219C72.4562 49.5834 72.6987 49.835 72.6758 50.7257C72.6118 53.3547 72.6529 55.9861 72.6529 58.6152Z" fill="#344154"/>
<path d="M90.495 61.4438C90.495 59.6397 90.5293 57.8333 90.479 56.0292C90.4584 55.3017 90.6506 54.9821 91.4124 55.1022C91.6343 55.1362 91.8722 55.1362 92.0941 55.1022C92.9657 54.9708 93.254 55.2654 93.238 56.1879C93.1785 59.685 93.1785 63.1821 93.238 66.6793C93.254 67.5836 92.9955 67.9122 92.1056 67.774C91.8448 67.7332 91.5702 67.74 91.3094 67.774C90.6689 67.8578 90.4676 67.6176 90.4813 66.9716C90.5225 65.1313 90.495 63.2864 90.495 61.4438Z" fill="#344154"/>
<path d="M91.8046 49.2594C92.8067 49.2458 93.6737 50.0482 93.6714 50.9842C93.6668 51.8976 92.8913 52.6364 91.9053 52.6682C90.8301 52.7022 90.0431 52.0154 90.0202 51.0273C89.9928 50.0391 90.766 49.2753 91.8046 49.2594Z" fill="#344154"/>
</svg>
