<svg width="165" height="80" viewBox="0 0 165 80" fill="none" xmlns="http://www.w3.org/2000/svg">
<g clip-path="url(#clip0)">
<path d="M112.618 38.242C112.618 39.5678 112.618 40.8389 112.618 42.1114C112.618 45.3818 112.601 48.6536 112.634 51.924C112.64 52.5567 112.551 52.8612 111.804 52.7882C111.075 52.7153 110.331 52.7503 109.596 52.784C109.137 52.8051 108.98 52.6802 108.993 52.2046C109.029 50.8268 109.006 49.4477 109.006 48.0699C109.006 41.6919 109.013 35.3139 108.99 28.9359C108.989 28.3536 109.134 28.1656 109.737 28.2091C110.498 28.2638 111.266 28.2246 112.031 28.2232C112.274 28.2232 112.496 28.2049 112.604 28.5066C113.36 30.6139 114.123 32.7198 114.896 34.82C115.857 37.4282 116.83 40.0308 117.927 42.6165C117.927 42.3738 117.927 42.1311 117.927 41.8883C117.927 37.5657 117.936 33.2445 117.917 28.9218C117.914 28.3971 118.013 28.167 118.612 28.2105C119.373 28.2652 120.144 28.2568 120.906 28.2133C121.46 28.1811 121.64 28.334 121.631 28.9022C121.595 31.1217 121.615 33.3413 121.615 35.5608C121.615 41.0508 121.602 46.5421 121.634 52.032C121.638 52.6802 121.439 52.8303 120.83 52.7854C120.141 52.7349 119.442 52.7405 118.751 52.7854C118.276 52.8163 118.088 52.6227 117.937 52.2158C116.305 47.7922 114.658 43.3741 113.009 38.9575C112.922 38.7246 112.891 38.4594 112.618 38.242Z" fill="#344154"/>
<path d="M30.2542 39.8596C32.2152 40.8851 32.6646 42.5926 32.666 44.4993C32.666 45.8504 32.7579 47.2056 32.3947 48.5371C31.7156 51.0358 30.069 52.4458 27.4417 52.6886C25.439 52.8724 23.4291 52.732 21.4221 52.7755C21.1048 52.7826 20.9842 52.6717 21.0144 52.3729C21.0259 52.2578 21.0158 52.14 21.0158 52.0221C21.0158 44.3379 21.023 36.6537 21 28.9695C20.9986 28.3536 21.1421 28.1838 21.781 28.2063C23.5957 28.2694 25.4175 28.1782 27.2264 28.2904C30.3762 28.4855 32.4521 30.6012 32.6402 33.6765C32.6703 34.1662 32.6502 34.6572 32.6718 35.1469C32.7579 37.1223 32.2195 38.8017 30.2542 39.8596ZM24.6307 45.2639C24.6307 45.9177 24.6307 46.5715 24.6307 47.2239C24.6307 49.442 24.6307 49.442 26.9263 49.1839C28.0217 49.0604 28.8185 48.4473 29.0468 47.3965C29.3497 45.9963 29.3382 44.575 29.0626 43.165C28.9391 42.5365 28.6089 41.8953 27.9873 41.7887C26.7584 41.5782 26.8904 40.7799 26.9235 39.955C26.9378 39.6056 26.9565 39.2521 26.9177 38.9055C26.866 38.4383 26.9938 38.1942 27.515 38.0974C28.2471 37.9599 28.7037 37.4731 28.9535 36.7786C29.3181 35.7572 29.321 34.712 29.1372 33.6751C28.9104 32.397 28.273 31.8597 26.9522 31.624C26.3564 31.5173 25.7592 31.5861 25.1677 31.5356C24.6954 31.4949 24.6193 31.6955 24.6236 32.101C24.6422 33.9684 24.6394 35.8358 24.6236 37.7031C24.6207 38.0876 24.658 38.3569 25.149 38.2728C25.5438 38.2054 25.6285 38.4061 25.6199 38.7498C25.6012 39.4723 25.5984 40.1977 25.6199 40.9202C25.63 41.2583 25.5682 41.4702 25.1619 41.4057C24.6925 41.3313 24.6135 41.5684 24.6221 41.9725C24.6465 43.0696 24.6307 44.1668 24.6307 45.2639Z" fill="#344154"/>
<path d="M43.0031 40.5668C43.0046 38.2995 42.9902 36.0323 43.0074 33.7664C43.0304 30.7135 45.3303 28.3074 48.4629 28.0282C51.6112 27.7476 54.3576 29.6823 54.9678 32.6258C55.1199 33.361 55.1085 34.1102 55.1185 34.858C55.1228 35.1989 54.9879 35.2985 54.6519 35.2929C53.7188 35.2775 52.7856 35.2831 51.8539 35.2957C51.5495 35.2999 51.4232 35.1989 51.4404 34.8902C51.4619 34.5171 51.4547 34.1425 51.4447 33.7693C51.4074 32.5009 50.4843 31.61 49.152 31.5483C47.89 31.4908 46.855 32.3157 46.6884 33.5125C46.6698 33.6514 46.6468 33.7903 46.6468 33.9306C46.6439 38.3009 46.6568 42.6713 46.6396 47.0416C46.631 49.1152 48.6179 49.7831 49.9631 49.2836C50.8819 48.9427 51.4117 48.2833 51.4346 47.3264C51.4705 45.8308 51.4289 44.3352 51.4547 42.8396C51.4619 42.43 51.2796 42.3808 50.9437 42.3907C50.322 42.4061 49.699 42.378 49.0788 42.4019C48.6969 42.4173 48.5806 42.277 48.5921 41.9165C48.615 41.1687 48.6136 40.4209 48.595 39.6731C48.5863 39.3434 48.6883 39.2241 49.0371 39.2269C50.9264 39.2409 52.8157 39.2395 54.7065 39.2297C55.0194 39.2283 55.1214 39.3321 55.1171 39.6324C55.0711 42.4117 55.252 45.1981 55.0281 47.9718C54.7366 51.5733 50.7226 53.8784 46.9885 52.6564C44.5909 51.8721 43.0247 49.7522 43.0074 47.2296C42.9902 45.0073 43.0017 42.7863 43.0031 40.5668Z" fill="#344154"/>
<path d="M98.3901 52.7714C96.5525 52.7714 96.5582 52.77 96.2294 50.9952C96.0428 49.9851 95.8131 48.9833 95.6423 47.9704C95.5748 47.5761 95.3824 47.499 95.0163 47.5046C93.8204 47.5228 92.6217 47.5593 91.4301 47.492C90.7683 47.4541 90.5974 47.7206 90.5012 48.2748C90.2744 49.5852 89.9844 50.8844 89.7447 52.1934C89.6657 52.6297 89.4934 52.8135 89.0053 52.7855C88.1956 52.7392 87.3787 52.7546 86.5676 52.7799C86.1312 52.7939 85.9689 52.7111 86.0795 52.2341C87.5812 45.7326 89.0656 39.2283 90.5558 32.724C90.863 31.3827 91.1947 30.0457 91.4703 28.6988C91.5493 28.3116 91.7014 28.1993 92.0805 28.2148C92.7251 28.2386 93.374 28.2555 94.0157 28.2106C94.4952 28.1783 94.6761 28.3663 94.7723 28.7984C95.6853 32.8727 96.6085 36.9442 97.5387 41.0143C98.3743 44.6761 99.2156 48.3366 100.07 51.9942C100.196 52.5329 100.233 52.9047 99.4654 52.7813C99.1151 52.7251 98.7476 52.7714 98.3901 52.7714ZM93.1471 35.5917C93.0151 35.61 92.9792 35.7012 92.9605 35.791C92.4336 38.4454 91.9125 41.1013 91.3799 43.7558C91.3181 44.0602 91.3899 44.1753 91.723 44.1683C92.6073 44.1528 93.4931 44.1374 94.376 44.1739C94.8311 44.1921 94.8311 43.9859 94.7665 43.6674C94.2267 40.975 93.6869 38.2827 93.1471 35.5917Z" fill="#344154"/>
<path d="M58.0251 40.5049C58.0251 38.2615 58.0193 36.0196 58.0265 33.7762C58.0366 30.3332 60.4212 28.0042 63.9198 28.0112C67.2405 28.0183 69.6739 30.4637 69.6767 33.7972C69.6782 35.2858 69.6782 35.2858 68.1636 35.2858C68.1162 35.2858 68.0674 35.2858 68.02 35.2858C67.4228 35.2816 66.7136 35.4724 66.257 35.2213C65.7675 34.9519 66.1379 34.1999 66.0417 33.6653C65.7574 32.0884 64.6405 31.3111 63.1417 31.6422C62.3105 31.826 61.986 32.4096 61.8051 33.1168C61.6773 33.6148 61.6357 34.1269 61.6371 34.6446C61.6429 38.6404 61.6386 42.6347 61.6415 46.6304C61.6415 46.9335 61.6472 47.2407 61.6989 47.5368C61.9315 48.8696 62.6306 49.4897 63.8308 49.4491C65.087 49.407 65.934 48.5988 66.056 47.3235C66.069 47.1846 66.0618 47.0429 66.0632 46.9026C66.0704 45.7521 66.0704 45.7521 67.2146 45.7536C67.4544 45.7536 67.6941 45.7423 67.9324 45.7564C68.4995 45.7928 69.2503 45.5094 69.582 45.877C69.8605 46.1857 69.6782 46.9012 69.6767 47.4357C69.6667 50.8128 66.458 53.4546 63.0068 52.9355C59.7435 52.4444 58.0595 50.5532 58.0294 47.3039C58.0079 45.0366 58.0251 42.7708 58.0251 40.5049Z" fill="#344154"/>
<path d="M72.5701 40.4966C72.5701 36.6412 72.5845 32.7844 72.5557 28.9289C72.5514 28.3284 72.7309 28.1699 73.3195 28.2106C74.0574 28.2625 74.804 28.2541 75.5419 28.2106C76.0745 28.1783 76.2339 28.3312 76.2281 28.8672C76.2009 31.8345 76.2339 34.8033 76.198 37.7706C76.1894 38.4398 76.3057 38.8046 77.0752 38.6503C77.747 38.5156 77.9294 38.82 77.8734 39.4388C77.8203 40.0182 77.8361 40.6075 77.8705 41.1897C77.8949 41.598 77.7413 41.7397 77.3436 41.6934C77.1785 41.6737 77.0063 41.7102 76.8426 41.6878C76.3387 41.6204 76.2009 41.8168 76.2037 42.3107C76.2267 45.5586 76.1994 48.808 76.2296 52.0559C76.2353 52.6494 76.0616 52.8248 75.4701 52.7841C74.7566 52.735 74.033 52.7322 73.3195 52.7827C72.7323 52.8248 72.5514 52.6648 72.5557 52.0643C72.583 48.2089 72.5701 44.3521 72.5701 40.4966Z" fill="#344154"/>
<path d="M84.2495 40.5202C84.2495 44.3757 84.2366 48.2325 84.2624 52.088C84.2667 52.6506 84.1017 52.8175 83.5403 52.781C82.8254 52.7347 82.1032 52.7305 81.3897 52.7824C80.7753 52.8259 80.5815 52.666 80.5886 52.0234C80.6274 48.8218 80.5915 45.6201 80.6188 42.4185C80.6231 41.8615 80.5197 41.5753 79.8938 41.6889C79.3239 41.7914 79.0712 41.6076 79.1372 40.9902C79.1975 40.4122 79.186 39.8201 79.1372 39.2393C79.0956 38.7328 79.2851 38.5589 79.7718 38.6472C80.4709 38.7735 80.6346 38.4901 80.626 37.8195C80.5843 34.8283 80.6174 31.8371 80.5973 28.8459C80.5944 28.3689 80.7107 28.1837 81.2261 28.2089C82.0128 28.2482 82.8067 28.2552 83.592 28.2075C84.1505 28.1725 84.2653 28.3703 84.2624 28.881C84.2395 32.7617 84.2495 36.641 84.2495 40.5202Z" fill="#344154"/>
<path d="M142.424 35.9172C143.434 36.505 143.829 37.3637 143.923 38.3977C144.045 39.7305 144.068 41.0535 143.559 42.3289C143.081 43.5284 142.129 44.185 140.883 44.4011C139.466 44.6466 138.023 44.5161 136.592 44.5442C136.087 44.554 136.161 44.2215 136.16 43.9269C136.157 41.2191 136.156 38.5113 136.156 35.8021C136.156 33.4675 136.173 31.1329 136.143 28.7984C136.136 28.2652 136.295 28.1179 136.828 28.1404C137.781 28.1824 138.738 28.1516 139.695 28.1516C142.316 28.1544 143.789 29.4746 143.974 32.0309C144.032 32.8207 143.999 33.6092 143.753 34.3851C143.542 35.0599 143.021 35.4528 142.424 35.9172ZM141.669 39.5832C141.735 39.0304 141.653 38.5688 141.542 38.1171C141.397 37.5236 141.014 37.1153 140.382 37.0311C139.913 36.968 139.432 36.9891 138.957 36.9722C138.678 36.9624 138.591 37.1069 138.592 37.3622C138.598 38.8298 138.598 40.2959 138.593 41.7634C138.592 42.009 138.657 42.1507 138.949 42.1619C140.578 42.218 141.539 41.9921 141.669 40.129C141.682 39.9199 141.669 39.7109 141.669 39.5832ZM138.593 32.5864C138.593 33.0536 138.592 33.5194 138.593 33.9866C138.595 34.8818 138.596 34.893 139.528 34.8649C140.28 34.8425 141.064 34.7934 141.406 33.9894C141.786 33.0971 141.804 32.167 141.414 31.2634C141.103 30.5395 140.015 30.1256 138.902 30.4258C138.24 30.604 138.711 31.255 138.606 31.6787C138.536 31.9663 138.593 32.2834 138.593 32.5864Z" fill="#344154"/>
<path d="M36.1116 40.4235C36.1116 36.5919 36.1259 32.7589 36.0972 28.9274C36.0929 28.3255 36.2824 28.1754 36.8624 28.209C37.6721 28.2567 38.4876 28.2329 39.3001 28.216C39.6346 28.209 39.7954 28.3086 39.7567 28.6524C39.7409 28.7913 39.7552 28.933 39.7552 29.0733C39.7552 36.6901 39.7423 44.3084 39.7753 51.9253C39.7782 52.6605 39.5629 52.8471 38.8623 52.7867C38.1976 52.7292 37.5214 52.7348 36.8552 52.7839C36.2681 52.8274 36.0915 52.6562 36.0958 52.0614C36.1245 48.1821 36.1116 44.3028 36.1116 40.4235Z" fill="#344154"/>
<path d="M102.04 40.4964C102.04 36.6409 102.053 32.7855 102.026 28.9315C102.022 28.3408 102.203 28.1683 102.785 28.2089C103.476 28.2566 104.175 28.2608 104.864 28.2089C105.503 28.1612 105.703 28.3394 105.7 29.0002C105.671 35.0051 105.682 41.0099 105.682 47.0133C105.682 48.7193 105.658 50.4254 105.697 52.13C105.71 52.6758 105.529 52.8091 105.008 52.7796C104.268 52.7389 103.523 52.7347 102.785 52.7824C102.203 52.8203 102.02 52.6519 102.024 52.0599C102.053 48.6492 102.039 45.2371 102.039 41.8264C102.04 41.3845 102.04 40.9397 102.04 40.4964Z" fill="#344154"/>
<path d="M126.183 36.3142C126.183 33.8154 126.203 31.3181 126.168 28.8193C126.16 28.2357 126.366 28.1221 126.902 28.1417C127.904 28.1782 128.909 28.1473 129.912 28.1529C132.347 28.1641 133.925 29.6401 133.957 32.028C133.994 34.8298 133.99 37.6316 133.957 40.4334C133.925 43.0499 132.408 44.4543 129.579 44.5385C128.648 44.5666 127.714 44.5245 126.784 44.554C126.307 44.5694 126.174 44.4024 126.177 43.9493C126.196 41.4042 126.185 38.8592 126.185 36.3142C126.184 36.3142 126.183 36.3142 126.183 36.3142ZM128.574 36.2819C128.574 38.0553 128.597 39.8273 128.561 41.5992C128.55 42.1717 128.754 42.3611 129.304 42.2951C129.516 42.2699 129.734 42.2979 129.947 42.2755C130.891 42.1745 131.292 41.8125 131.459 40.8879C131.512 40.5919 131.529 40.286 131.53 39.9844C131.536 37.6049 131.538 35.2254 131.533 32.8474C131.532 32.4293 131.538 32.0112 131.426 31.5973C131.213 30.806 130.788 30.4412 129.973 30.4033C129.687 30.3907 129.397 30.4244 129.114 30.3949C128.65 30.3458 128.561 30.5577 128.566 30.9631C128.586 32.7365 128.576 34.5085 128.574 36.2819Z" fill="#344154"/>
</g>
<defs>
<clipPath id="clip0">
<rect x="21" y="28" width="123" height="25" fill="white"/>
</clipPath>
</defs>
</svg>
