<svg width="165" height="80" viewBox="0 0 165 80" fill="none" xmlns="http://www.w3.org/2000/svg">
<path d="M53.272 36.8243L49.7892 36.0727L52.141 33.3557C50.0931 31.34 45.6954 30.8112 41.1763 32.2678C40.533 32.4748 39.9022 32.7183 39.2871 32.9971C39.3627 32.3369 39.4005 31.6731 39.4002 31.0088C39.4002 26.2949 37.5341 22.3092 34.9688 21L33.0908 24.0585L31.2942 21.0047C28.7334 22.3187 26.8719 26.3005 26.8719 31.0088C26.8715 31.6731 26.9092 32.3371 26.9847 32.9971C26.3696 32.7183 25.7389 32.4748 25.0956 32.2678C20.5764 30.8112 16.1788 31.34 14.1308 33.3557L16.4827 36.0729L13 36.8241C13.4685 39.6461 16.7107 42.6328 21.2244 44.0879C21.8575 44.2922 22.5017 44.461 23.1539 44.5933C22.7054 45.08 22.285 45.5914 21.8946 46.1251C19.1015 49.9385 18.2497 54.2513 19.5493 56.8063L22.8808 55.427L22.5249 58.9452C25.3751 59.3753 29.2403 57.2392 32.03 53.4301C32.4317 52.8823 32.801 52.3119 33.1361 51.7217C33.4711 52.3119 33.8404 52.8825 34.242 53.4303C37.0319 57.2392 40.8969 59.3753 43.7471 58.9454L43.3912 55.427L46.7229 56.8063C48.0224 54.2512 47.1703 49.9387 44.3775 46.1251C43.987 45.5914 43.5666 45.08 43.1181 44.5933C43.7704 44.4609 44.4146 44.2921 45.0476 44.0877C49.5615 42.6328 52.8036 39.6461 53.272 36.8241V36.8243Z" fill="#344154"/>
<path fill-rule="evenodd" clip-rule="evenodd" d="M43.0956 44.7281L33.1362 51.8788L23.1768 44.7281L26.9851 33.1541H39.2873L43.0956 44.7281Z" stroke="white" stroke-width="1.438"/>
<path d="M27.1709 45.2676L33.0797 45.7851M33.0797 45.7851L38.9887 45.2676L33.0797 45.7851Z" stroke="white" stroke-width="1.445"/>
<path d="M33.0797 48.652L29.6685 43.8312M38.9887 45.2676L33.0797 48.652L27.1709 45.2676V38.4991L33.0797 35.1147L38.9887 38.4991V45.2676ZM38.9885 38.4818L33.0797 37.9695L38.9885 38.4818ZM27.1709 38.4991L33.0797 37.9695L27.1709 38.4991ZM38.9887 38.4991L36.4912 43.8312L38.9887 38.4991ZM33.0797 48.652L36.4912 43.8312L33.0797 48.652ZM27.1709 38.4991L29.6685 43.8312L27.1709 38.4991Z" stroke="white" stroke-width="1.438"/>
<path fill-rule="evenodd" clip-rule="evenodd" d="M36.4909 43.8312L33.0793 37.9695L29.668 43.8312H36.4909Z" stroke="white" stroke-width="1.438"/>
<path d="M33.0797 45.741V48.6519M29.6684 39.8791L33.0797 45.741L36.4912 39.8791H29.6684ZM27.1709 38.499L29.6685 39.879L27.1709 38.499ZM36.4912 39.8791L38.9887 38.499L36.4912 39.8791Z" stroke="white" stroke-width="1.438"/>
<path d="M33.0787 49.0595C33.3061 49.0595 33.4904 48.8766 33.4904 48.6511C33.4904 48.4255 33.3061 48.2427 33.0787 48.2427C32.8513 48.2427 32.667 48.4255 32.667 48.6511C32.667 48.8766 32.8513 49.0595 33.0787 49.0595Z" fill="white" stroke="white" stroke-width="1.438"/>
<path d="M27.1695 38.9052C27.3969 38.9052 27.5812 38.7224 27.5812 38.4968C27.5812 38.2712 27.3969 38.0884 27.1695 38.0884C26.9421 38.0884 26.7578 38.2712 26.7578 38.4968C26.7578 38.7224 26.9421 38.9052 27.1695 38.9052Z" fill="white" stroke="white" stroke-width="1.438"/>
<path d="M29.6676 44.2397C29.8949 44.2397 30.0792 44.0568 30.0792 43.8313C30.0792 43.6057 29.8949 43.4229 29.6676 43.4229C29.4402 43.4229 29.2559 43.6057 29.2559 43.8313C29.2559 44.0568 29.4402 44.2397 29.6676 44.2397Z" fill="white" stroke="white" stroke-width="1.438"/>
<path d="M36.4908 44.2397C36.7182 44.2397 36.9025 44.0568 36.9025 43.8313C36.9025 43.6057 36.7182 43.4229 36.4908 43.4229C36.2634 43.4229 36.0791 43.6057 36.0791 43.8313C36.0791 44.0568 36.2634 44.2397 36.4908 44.2397Z" fill="white" stroke="white" stroke-width="1.438"/>
<path d="M33.0787 38.3779C33.3061 38.3779 33.4904 38.195 33.4904 37.9695C33.4904 37.7439 33.3061 37.561 33.0787 37.561C32.8513 37.561 32.667 37.7439 32.667 37.9695C32.667 38.195 32.8513 38.3779 33.0787 38.3779Z" fill="white" stroke="white" stroke-width="1.438"/>
<path d="M38.9879 38.9077C39.2152 38.9077 39.3996 38.7248 39.3996 38.4992C39.3996 38.2737 39.2152 38.0908 38.9879 38.0908C38.7605 38.0908 38.5762 38.2737 38.5762 38.4992C38.5762 38.7248 38.7605 38.9077 38.9879 38.9077Z" fill="white" stroke="white" stroke-width="1.438"/>
<path d="M39.2873 33.145L33.0791 35.1148M38.9881 45.2677L36.4906 39.8793L38.9881 45.2677ZM33.0791 35.1148L36.4906 39.8791L33.0791 35.1148ZM27.1703 45.2677L29.6679 39.8793L27.1703 45.2677ZM33.0791 35.1148L29.6679 39.8791L33.0791 35.1148ZM33.0791 48.652L28.1537 48.2732L33.0791 48.652ZM38.0037 48.3553L33.0791 48.652L38.0037 48.3553ZM25.0691 38.991L27.1703 38.4992L25.0691 38.991ZM41.2032 38.991L38.9879 38.4992L41.2032 38.991ZM27.1703 45.2677L23.1768 44.7192L27.1703 45.2677ZM38.9881 45.2677L43.0956 44.7192L38.9881 45.2677ZM26.9851 33.145L33.0791 35.1148L26.9851 33.145Z" stroke="white" stroke-width="1.438"/>
<path d="M33.1365 51.8788L43.3917 55.4273M33.1365 33.154L33.0912 24.0586L33.1365 33.154ZM25.0693 38.9909L16.4834 36.0728L25.0693 38.9909ZM22.8812 55.4271L28.1537 48.2732L22.8812 55.4271ZM43.3917 55.4271L38.0039 48.3552L43.3917 55.4271ZM49.7895 36.0728L41.2034 38.9909L49.7895 36.0728ZM43.0958 44.7282L49.7895 36.0728L43.0958 44.7282ZM39.2875 33.154L49.7895 36.073L39.2875 33.154ZM26.9853 33.154L33.0912 24.0586L26.9853 33.154ZM39.2875 33.154L33.0912 24.0586L39.2875 33.154ZM23.1542 44.5936L16.4834 36.0728L23.1542 44.5936ZM26.9853 33.154L16.4834 36.073L26.9853 33.154ZM23.1542 44.5936L22.8812 55.4273L23.1542 44.5936ZM33.1365 51.8788L22.8812 55.4273L33.1365 51.8788ZM43.0958 44.7282L43.3917 55.4271L43.0958 44.7282Z" stroke="white" stroke-width="1.438"/>
<path d="M62.3926 24.0549L64.3761 24.0442L64.3939 27.3714L68.2472 27.3512L68.2292 24.0238L70.2127 24.0137L70.26 32.9377L68.2766 32.9478L68.2561 29.0911L64.4029 29.1113L64.4233 32.9681L62.4399 32.9789L62.3926 24.0549ZM74.1566 29.1108L70.7465 24.011L73.2133 23.9979L75.1385 27.3283L77.1424 23.9776L79.4948 23.9655L76.1402 29.1005L76.1599 32.9072L74.1765 32.9173L74.1566 29.1108ZM80.0285 23.9623L83.3727 23.9453C83.8168 23.9404 84.26 23.9804 84.696 24.0645C85.0839 24.1356 85.4541 24.2812 85.7858 24.4931C86.0999 24.7022 86.3551 24.9872 86.5273 25.3212C86.7252 25.7314 86.8214 26.1825 86.8078 26.6371C86.8242 27.0874 86.7397 27.5357 86.5604 27.9498C86.4058 28.2867 86.1666 28.5786 85.8656 28.7975C85.5494 29.0183 85.1909 29.1724 84.8122 29.2503C84.378 29.3439 83.9348 29.3907 83.4904 29.3899L82.0407 29.3975L82.0594 32.8763L80.0758 32.8864L80.0283 23.9623H80.0285ZM82.0324 27.7335L83.355 27.7265C83.5278 27.7262 83.7002 27.7086 83.8695 27.6738C84.0266 27.6422 84.1769 27.5836 84.3136 27.5007C84.4453 27.4193 84.554 27.3061 84.6295 27.1716C84.7144 27.0102 84.7553 26.8298 84.7477 26.6478C84.7559 26.4527 84.6991 26.2604 84.586 26.1005C84.4786 25.9618 84.338 25.852 84.1768 25.7811C84.0013 25.7041 83.8143 25.6561 83.6233 25.639C83.429 25.6197 83.2338 25.6103 83.0385 25.6111L82.0209 25.6161L82.0324 27.7335ZM87.9885 23.9211L94.1044 23.8895L94.1141 25.7042L89.9816 25.7257L89.9905 27.3897L93.8941 27.3688L93.9038 29.1838L90 29.2046L90.0097 31.02L94.3711 30.9973L94.3805 32.8121L88.0358 32.845L87.9885 23.9211ZM95.7951 23.8804L99.2795 23.8622C99.7173 23.8577 100.154 23.8997 100.583 23.9877C100.968 24.0636 101.336 24.2112 101.666 24.4227C101.98 24.6318 102.236 24.9168 102.408 25.2509C102.605 25.6569 102.701 26.1037 102.688 26.554C102.708 27.1292 102.537 27.6949 102.201 28.164C101.848 28.6218 101.33 28.9252 100.755 29.0099L103.064 32.7667L100.686 32.7793L98.7865 29.2219L97.8072 29.227L97.8258 32.7939L95.8422 32.8047L95.795 23.8807L95.7951 23.8804ZM97.7985 27.5629L98.9688 27.5571C99.1576 27.5557 99.3463 27.5483 99.5346 27.535C99.7194 27.5243 99.9015 27.4852 100.074 27.4189C100.232 27.3569 100.37 27.2538 100.473 27.1203C100.587 26.9534 100.641 26.7538 100.628 26.5527C100.637 26.3621 100.587 26.1734 100.486 26.0113C100.395 25.8801 100.272 25.7743 100.128 25.7042C99.9718 25.6301 99.804 25.582 99.6317 25.5616C99.4504 25.5378 99.2676 25.5264 99.0846 25.5273L97.7877 25.5337L97.7985 27.5629ZM103.983 23.8374L105.967 23.8273L106.005 30.9363L109.679 30.9173L109.689 32.7322L104.031 32.7613L103.983 23.8374ZM110.684 23.8025L116.8 23.7708L116.81 25.5857L112.677 25.6072L112.686 27.2711L116.59 27.251L116.6 29.0657L112.696 29.0859L112.705 30.9015L117.067 30.8786L117.076 32.6935L110.732 32.7265L110.684 23.8025ZM118.491 23.762L121.466 23.746C122.158 23.7393 122.848 23.816 123.522 23.9744C124.135 24.1149 124.713 24.3758 125.223 24.7416C125.716 25.1049 126.113 25.5803 126.381 26.1278C126.686 26.778 126.835 27.4892 126.818 28.206C126.836 28.8657 126.697 29.5204 126.415 30.1178C126.153 30.656 125.776 31.1311 125.31 31.5097C124.832 31.8932 124.286 32.1846 123.7 32.3689C123.08 32.5672 122.432 32.6684 121.781 32.6688L118.538 32.686L118.491 23.762ZM120.512 30.861L121.543 30.8552C121.973 30.856 122.401 30.8072 122.82 30.71C123.189 30.6264 123.536 30.4677 123.841 30.2439C124.133 30.0217 124.366 29.7306 124.516 29.3968C124.691 28.9926 124.773 28.5553 124.758 28.1159C124.765 27.7214 124.678 27.3309 124.503 26.9764C124.344 26.6628 124.115 26.39 123.832 26.1792C123.535 25.963 123.2 25.8044 122.844 25.7118C122.456 25.6075 122.056 25.5566 121.654 25.5605L120.484 25.5667L120.512 30.861ZM136.21 31.963C135.634 32.2659 135.019 32.4898 134.382 32.6288C133.743 32.7668 133.092 32.8378 132.438 32.8407C131.775 32.8505 131.116 32.7429 130.491 32.5229C129.918 32.3204 129.392 32.0034 128.948 31.5914C128.506 31.1772 128.159 30.6744 127.928 30.1164C127.676 29.5003 127.55 28.8409 127.556 28.1761C127.543 27.5119 127.662 26.8518 127.908 26.2337C128.132 25.6733 128.474 25.1667 128.911 24.7473C129.352 24.3309 129.874 24.0087 130.445 23.8007C131.067 23.5733 131.725 23.4588 132.388 23.4627C133.06 23.4526 133.73 23.536 134.379 23.7099C134.976 23.8734 135.525 24.1753 135.98 24.5908L134.589 26.1108C134.328 25.843 134.016 25.6301 133.67 25.4848C133.264 25.3323 132.832 25.2618 132.398 25.2775C132.004 25.2737 131.613 25.3486 131.248 25.4976C130.916 25.6357 130.616 25.841 130.367 26.1005C130.119 26.3651 129.928 26.6774 129.807 27.0181C129.548 27.764 129.552 28.5751 129.819 29.3183C129.945 29.6549 130.139 29.9625 130.389 30.2224C130.64 30.4799 130.942 30.6825 131.276 30.8172C131.643 30.9618 132.034 31.0326 132.428 31.0252C132.807 31.0303 133.184 30.9795 133.547 30.8742C133.805 30.7986 134.056 30.6981 134.295 30.5743L134.287 29.1247L132.672 29.133L132.663 27.3174L136.185 27.2991L136.21 31.963ZM137.857 23.6611L143.973 23.6289L143.983 25.4436L139.85 25.4651L139.859 27.1291L143.763 27.1089L143.772 28.9236L139.869 28.944L139.878 30.7594L144.24 30.7367L144.249 32.5515L137.904 32.5851L137.857 23.6611ZM145.664 23.6198L149.147 23.6021C149.585 23.5974 150.023 23.6395 150.451 23.7277C150.837 23.8036 151.205 23.9512 151.535 24.1627C151.849 24.3715 152.104 24.6565 152.276 24.9908C152.473 25.3967 152.57 25.8435 152.557 26.2939C152.577 26.8692 152.405 27.435 152.069 27.904C151.716 28.3614 151.198 28.6648 150.624 28.7499L152.933 32.5064L150.555 32.5185L148.655 28.9618L147.675 28.9668L147.694 32.5338L145.711 32.5439L145.664 23.6199V23.6198ZM147.666 27.3029L148.837 27.2965C149.026 27.2953 149.214 27.2881 149.402 27.275C149.587 27.2645 149.769 27.2251 149.942 27.1583C150.1 27.0968 150.238 26.9937 150.341 26.8602C150.455 26.6936 150.51 26.4938 150.497 26.2927C150.505 26.1021 150.456 25.9134 150.354 25.7513C150.263 25.6203 150.14 25.5146 149.996 25.4443C149.84 25.3698 149.672 25.3216 149.5 25.3015C149.318 25.2776 149.135 25.2659 148.952 25.2667L147.655 25.2738L147.666 27.3029Z" fill="#344154"/>
<path d="M62.3926 37.9212H64.7765V55.3618H62.3926V37.9212ZM68.6377 37.9212H74.8207C79.3153 37.9212 80.4575 40.6064 80.4575 42.7986C80.4575 45.0157 78.7938 47.1096 76.1368 47.4052L81.128 55.3618H78.1482L73.6787 47.6761H71.0216V55.3618H68.6377V37.9212ZM71.0216 45.6069H74.1504C76.0375 45.6069 77.9246 45.1635 77.9246 42.7986C77.9246 40.4339 76.0375 39.9905 74.1504 39.9905H71.0216V45.6069ZM82.0565 46.6415C82.0565 41.4685 85.8556 37.4778 91.2192 37.4778C96.5829 37.4778 100.382 41.4685 100.382 46.6415C100.382 51.8145 96.5829 55.8052 91.2192 55.8052C85.8556 55.8052 82.0565 51.8145 82.0565 46.6415ZM97.8492 46.6415C97.8492 42.8233 95.2419 39.6949 91.2193 39.6949C87.1966 39.6949 84.5892 42.8233 84.5892 46.6415C84.5892 50.4597 87.1966 53.5883 91.2193 53.5883C95.2419 53.5883 97.8492 50.4597 97.8492 46.6415ZM103.26 37.9212H105.643V45.1635H114.756V37.9212H117.14V55.3618H114.756V47.3805H105.643V55.3618H103.26V37.9212ZM126.715 37.9212H128.876L136.399 55.3618H133.618L131.855 51.0508H123.487L121.749 55.3618H118.968L126.715 37.9212ZM130.986 48.9817L127.708 40.9758H127.659L124.332 48.9817H130.986H130.986Z" fill="#344154"/>
</svg>
