<svg width="165" height="80" viewBox="0 0 165 80" fill="none" xmlns="http://www.w3.org/2000/svg">
<g clip-path="url(#clip0)">
<path d="M26.904 25C27.6884 25 28.4662 25.1288 29.2176 25.3537C29.4573 25.4254 29.6922 25.4928 29.8729 25.5385C31.7939 26.0296 33.5309 26.858 35.1292 27.9911C37.2401 29.4882 37.2099 29.4615 35.3704 31.2337C34.7281 31.8521 34.3602 31.8462 33.6575 31.2751C29.7402 28.0888 24.0106 27.5651 19.8701 29.9379C15.1537 32.6391 12.895 37.2308 13.6881 42.5089C14.3938 47.2071 18.3623 51.3343 23.329 52.2752C26.9779 52.9675 30.4067 52.3284 33.4133 50.0237C33.7993 49.7278 34.1581 48.9497 34.7492 49.3935C35.5302 49.9793 36.2057 50.7308 36.8028 51.5059C37.0139 51.7781 36.456 52.0414 36.2087 52.2544C34.2094 53.9675 31.9145 55.1124 29.315 55.6746C28.6773 55.8116 28.0738 56.0799 27.4289 56.1782C26.2021 56.3652 24.0729 56.5646 22.6656 56.003C22.2582 55.8404 22.0022 55.6095 21.6554 55.5118C16.6585 54.1095 13.1815 51.0592 11.0947 46.4142C10.8828 45.9427 10.6029 45.2219 10.3791 44.6279C10.1236 43.9496 10 43.23 10 42.5052V37.9247C10 37.4033 10.3454 36.9652 10.5006 36.4675C12.316 30.6391 16.2333 26.9615 22.2404 25.4083C22.7471 25.2742 23.3296 25 23.8537 25C24.8447 25 26.0374 25 26.904 25Z" fill="#344154"/>
<path d="M155 48.0297C152.008 47.8463 152.008 47.8463 152.008 44.793C152.008 43.6599 152.027 42.5297 152.005 41.3965C151.972 39.6717 150.983 38.6332 149.379 38.6036C147.838 38.5741 146.677 39.6628 146.626 41.3078C146.571 43.1747 146.532 45.0504 146.641 46.9143C146.71 48.1303 145.992 48.006 145.232 47.9646C144.506 47.9261 143.568 48.3078 143.64 46.9261C143.734 45.1096 143.685 43.2871 143.658 41.4646C143.631 39.6865 142.633 38.58 141.125 38.6036C139.418 38.6303 138.462 39.6155 138.423 41.4823C138.384 43.2516 138.33 45.0297 138.441 46.796C138.52 48.0179 137.868 48.0386 136.985 47.9735C136.204 47.9143 135.275 48.3019 135.323 46.8492C135.423 43.8522 135.32 40.8463 135.38 37.8462C135.392 37.2752 134.795 36.1865 136.182 36.2575C137.141 36.3078 138.604 35.648 138.357 37.6362C141.475 35.3492 143.764 35.5504 146.107 38.2693C146.701 37.8344 147.006 37.0741 147.778 36.8403C148.48 37.1273 148.993 36.9616 149.27 36.2397C149.469 36.2249 149.665 36.2102 149.864 36.1954C150.443 36.6924 151.052 36.6155 151.671 36.2812C153.64 36.651 154.367 38.1599 154.997 39.7605C155 42.5178 155 45.2723 155 48.0297Z" fill="#344154"/>
<path d="M63.4912 39.6599C63.4972 37.367 64.9266 35.1836 67.5985 33.8463C70.4935 32.3996 73.3161 32.7191 75.9819 34.5209C76.5579 34.9085 76.6544 35.1925 76.0935 35.7516C75.2582 36.5889 74.7395 37.1806 73.3674 36.228C71.3348 34.8167 68.4941 35.7369 67.2758 37.8404C65.9158 40.1866 66.6305 43.3079 68.7112 44.6984C70.5236 45.9114 72.2576 45.6451 73.8589 44.5209C75.412 43.4321 75.6381 45.0564 76.193 45.586C76.9167 46.2753 75.7919 46.5179 75.418 46.7546C72.8939 48.3582 70.213 48.5002 67.5774 47.1008C64.8965 45.6777 63.5184 43.3907 63.4912 39.6599Z" fill="#344154"/>
<path d="M101.512 38.0384C103.493 35.9703 105.444 35.5946 107.495 36.5236C109.57 37.4644 110.115 39.3283 110.07 41.4378C110.031 43.3046 110.007 45.1715 110.079 47.0354C110.13 48.3638 109.193 47.9348 108.553 47.9466C107.896 47.9555 106.988 48.3253 107.045 47.0117C107.13 45.1478 107.088 43.281 107.061 41.4141C107.036 39.7366 106.071 38.6478 104.633 38.6005C102.89 38.5472 101.714 39.636 101.678 41.4082C101.641 43.275 101.608 45.1419 101.69 47.0058C101.753 48.4585 100.713 47.8963 100.055 47.9466C99.3768 47.9969 98.5625 48.2603 98.5957 46.9821C98.6771 43.7425 98.653 40.4999 98.6017 37.2573C98.5867 36.3904 98.9003 36.0916 99.7085 36.2484C100.55 36.4171 102.127 35.5265 101.512 38.0384Z" fill="#344154"/>
<path d="M89.8175 43.8875C88.7892 46.9378 86.0691 48.5058 82.6253 48.0384C80.0741 47.6922 77.9601 45.42 77.749 42.7987C77.4957 39.6597 79.1513 37.1922 82.0553 36.3786C85.083 35.5295 88.2012 36.8283 89.5642 39.5088C89.6276 39.633 89.6095 39.7958 89.6276 39.9407C89.6758 41.2544 89.329 42.5887 89.8175 43.8875ZM86.8622 42.0473C86.8562 40.068 85.5384 38.6035 83.7652 38.6094C81.9528 38.6153 80.6259 40.1745 80.6139 42.1952C80.6048 43.9348 82.2001 45.8135 83.6989 45.8609C85.3544 45.9082 86.8713 43.9733 86.8622 42.0473Z" fill="#344154"/>
<path d="M113.408 43.2042C113.408 42.1244 113.426 41.0445 113.402 39.9646C113.387 39.3492 113.707 38.5889 112.507 38.5415C111.825 38.5149 112.199 37.7397 112.172 37.3107C112.151 36.938 111.904 36.3019 112.609 36.2752C113.303 36.2516 113.375 35.9528 113.42 35.3699C113.592 33.0652 114.385 32.1983 116.738 31.7013C117.232 31.5977 118.08 31.1007 118.167 32.0267C118.23 32.7042 118.827 33.7782 117.531 34.1096C116.768 34.3048 116.484 34.7752 116.46 35.4942C116.445 35.9498 116.545 36.3196 117.093 36.2309C118.342 36.0297 118.251 36.7812 118.303 37.6244C118.36 38.5741 117.899 38.7013 117.148 38.6007C116.358 38.4942 116.412 39.009 116.415 39.5208C116.421 41.9735 116.34 44.432 116.448 46.8818C116.508 48.222 115.682 47.9646 114.922 47.9616C114.162 47.9616 113.264 48.2309 113.387 46.8818C113.496 45.6658 113.408 44.432 113.408 43.2042Z" fill="#344154"/>
<path d="M129.572 38.074C130.139 37.5119 130.389 37.2072 130.697 36.9705C131.369 36.4527 132.283 35.787 132.95 36.3196C133.532 36.7841 133.17 37.8876 133.116 38.7042C133.076 39.29 132.518 39.077 132.16 39.1184C130.356 39.3285 129.581 40.0918 129.533 41.8669C129.488 43.5829 129.482 45.3018 129.542 47.0148C129.593 48.4438 128.547 47.9024 127.88 47.9527C127.187 48.003 126.367 48.2427 126.397 46.9764C126.469 43.9379 126.409 40.8965 126.43 37.8551C126.436 37.1095 126.038 36.077 127.546 36.2279C128.616 36.3344 130.055 35.8107 129.572 38.074Z" fill="#344154"/>
<path d="M95.3264 36.5148C95.3626 40.0503 95.3927 43.5829 95.435 47.1184C95.45 48.4468 94.4247 47.9083 93.8095 47.9379C93.2185 47.9675 92.3289 48.3462 92.3439 47.1154C92.3801 43.7722 92.3681 40.429 92.347 37.0858C92.3439 36.4468 92.5701 36.1923 93.2185 36.2397C93.8186 36.284 94.4187 36.2811 95.0218 36.3018C95.1213 36.3728 95.2239 36.4438 95.3264 36.5148Z" fill="#344154"/>
<path d="M120.435 47.4526C120.435 47.2425 120.435 47.0354 120.438 46.8254C120.769 43.6893 120.769 40.5532 120.438 37.4171C120.438 37.207 120.438 36.9999 120.438 36.7899C120.504 36.636 120.573 36.4851 120.64 36.3313C121.445 36.1804 122.25 36.2159 123.058 36.3106C123.131 36.3757 123.206 36.4408 123.278 36.5058C123.287 40.1508 123.296 43.7958 123.305 47.4408C123.218 47.5887 123.131 47.7396 123.043 47.8875C122.241 47.9999 121.442 48.0236 120.64 47.8757C120.57 47.7366 120.501 47.5946 120.435 47.4526Z" fill="#344154"/>
<path d="M42.4422 34.9436C42.3608 35.4289 41.9477 35.6655 41.631 35.9703C40.7384 36.8283 39.9031 38.2484 38.917 38.3608C37.9037 38.4762 37.2041 36.8075 36.224 36.0886C35.1203 35.275 35.2741 34.701 36.218 33.8223C38.9532 31.275 38.917 31.2306 41.622 33.9229C41.9296 34.2306 42.3367 34.4732 42.4422 34.9436Z" fill="#344154"/>
<path d="M43 46C42.4904 46.3195 41.7092 46.932 41.287 47.3374C38.8806 49.6421 38.8896 49.6569 36.4801 47.3019C34.7522 45.6125 34.9784 46.0711 36.4982 44.5563C38.8293 42.2309 38.8595 42.2397 41.2056 44.5593C41.6489 44.9971 42.4451 44.9734 43 46Z" fill="#344154"/>
<path d="M22.3374 39.997C22.4128 39.9083 22.4852 39.8165 22.5606 39.7278C22.7536 39.7396 22.9496 39.7544 23.1426 39.7662C23.7065 39.068 23.9598 39.8728 24.1106 40.068C24.9248 41.1213 25.5581 40.8757 26.3361 40.0059C27.1926 39.0473 28.2058 38.2219 29.0834 37.2781C29.9157 36.3816 30.2715 37.2396 30.7359 37.642C31.2245 38.0621 31.7643 38.4556 30.9802 39.1686C29.2553 40.7367 27.5967 42.3728 25.9079 43.9793C25.5943 43.9645 25.2837 43.9467 24.9701 43.9319C24.0021 43.1509 23.1185 42.287 22.3193 41.3373C22.3284 40.8905 22.3314 40.4438 22.3374 39.997Z" fill="#344154"/>
<path d="M48.045 40.4319C47.9305 40.9644 47.46 41.2218 47.1162 41.5561C46.2688 42.3845 45.4305 43.7662 44.5077 43.8342C43.4191 43.9141 42.7436 42.2958 41.7665 41.5561C40.7774 40.8076 40.8347 40.2307 41.7334 39.3757C44.5258 36.7159 44.4957 36.6774 47.2399 39.4112C47.5414 39.7218 47.9636 39.9526 48.045 40.4319Z" fill="#344154"/>
<path d="M123.712 33.281C123.58 34.352 122.956 34.9969 121.855 34.9614C120.739 34.9259 120.094 34.1685 120.139 33.1271C120.184 32.0975 120.83 31.3934 121.991 31.4437C123.136 31.4969 123.64 32.1981 123.712 33.281Z" fill="#344154"/>
<path d="M93.9275 31.4202C94.9859 31.5385 95.6795 32.0858 95.6524 33.1983C95.6253 34.2989 94.9678 34.8995 93.8249 34.858C92.7544 34.8196 92.1814 34.219 92.1573 33.1805C92.1271 32.0533 92.7544 31.4912 93.9275 31.4202Z" fill="#344154"/>
<path d="M120.435 37.4172C120.766 40.5533 120.766 43.6894 120.435 46.8255C120.435 43.6894 120.435 40.5533 120.435 37.4172Z" fill="#344154"/>
<path d="M89.8177 43.8877C89.3291 42.5918 89.6759 41.2546 89.6247 39.938C90.3182 41.225 90.2429 42.5475 89.8177 43.8877Z" fill="#344154"/>
<path d="M151.674 36.284C151.052 36.6183 150.446 36.6952 149.867 36.1982C150.479 35.9822 151.079 36.0917 151.674 36.284Z" fill="#344154"/>
<path d="M149.27 36.2427C148.99 36.9646 148.477 37.1273 147.777 36.8433C148.181 36.4202 148.703 36.2752 149.27 36.2427Z" fill="#344154"/>
<path d="M22.3374 39.9971C22.3343 40.4438 22.3283 40.8906 22.3253 41.3373C21.505 40.8817 21.6588 40.4379 22.3374 39.9971Z" fill="#344154"/>
<path d="M120.637 36.3342C120.571 36.4881 120.501 36.639 120.435 36.7928C120.405 36.5975 120.278 36.3609 120.637 36.3342Z" fill="#344154"/>
<path d="M24.9727 43.9319C25.2863 43.9467 25.5969 43.9615 25.9105 43.9792C25.5758 44.3964 25.2652 44.355 24.9727 43.9319Z" fill="#344154"/>
<path d="M120.434 47.4526C120.504 47.5946 120.57 47.7367 120.639 47.8787C120.284 47.8698 120.407 47.639 120.434 47.4526Z" fill="#344154"/>
<path d="M123.041 47.8935C123.128 47.7456 123.216 47.5947 123.303 47.4468C123.346 47.6657 123.412 47.9024 123.041 47.8935Z" fill="#344154"/>
<path d="M95.3271 36.5148C95.2246 36.4438 95.1221 36.3728 95.0195 36.3018C95.2095 36.2515 95.3452 36.2782 95.3271 36.5148Z" fill="#344154"/>
<path d="M123.279 36.5089C123.206 36.4438 123.131 36.3787 123.059 36.3136C123.255 36.2426 123.33 36.3048 123.279 36.5089Z" fill="#344154"/>
<path d="M22.877 39.3817C23.0217 39.213 23.1906 39.142 23.3414 39.3521C23.5012 39.5769 23.3293 39.6805 23.1393 39.7545C23.0519 39.6302 22.9644 39.5059 22.877 39.3817Z" fill="#344154"/>
<path d="M23.1416 39.7662C22.9486 39.7543 22.7526 39.7396 22.5596 39.7277C22.6651 39.6123 22.7707 39.4999 22.8762 39.3845C22.9637 39.5088 23.0511 39.633 23.1386 39.7573C23.1386 39.7543 23.1416 39.7662 23.1416 39.7662Z" fill="#344154"/>
</g>
<defs>
<clipPath id="clip0">
<rect x="10" y="25" width="145" height="31" fill="white"/>
</clipPath>
</defs>
</svg>
