<svg width="36" height="35" viewBox="0 0 36 35" fill="none" xmlns="http://www.w3.org/2000/svg">
<path d="M8.75033 5.83317L14.5837 3.49984H15.7503L16.917 5.24984L19.2503 4.08317L20.417 2.9165L24.5003 4.08317L28.0003 6.99984L30.3337 9.9165L31.5003 13.4165V15.7498L30.3337 16.9165V18.6665C30.3337 19.1332 31.1114 19.8762 31.5003 20.1893L30.917 23.3332L29.7503 25.6665C28.5837 26.6387 26.2503 28.6998 26.2503 29.1665C26.2503 29.6332 24.4715 30.5276 23.5822 30.9165L21.5837 31.4998H19.8337L19.2503 30.9165L16.917 30.3332L15.7503 32.0832H14.5837L10.5003 30.3332L7.58366 28.5832L4.08366 23.3332L2.91699 20.1893L4.08366 19.2498L4.66699 17.4998L4.08366 15.7498L2.91699 13.4165L5.25033 8.74984L8.75033 5.83317Z" fill="url(#paint0_linear)"/>
<path d="M35.0085 17.5C35.008 16.8693 34.7975 16.2566 34.4102 15.7588C34.0229 15.261 33.4809 14.9063 32.8696 14.7507C32.3075 11.6096 30.7965 8.7162 28.5401 6.45985C26.2838 4.2035 23.3904 2.69255 20.2493 2.13038C20.0921 1.5207 19.7367 0.980568 19.239 0.594923C18.7414 0.209279 18.1296 0 17.5 0C16.8704 0 16.2586 0.209279 15.761 0.594923C15.2633 0.980568 14.9079 1.5207 14.7507 2.13038C11.6096 2.69255 8.7162 4.2035 6.45985 6.45985C4.2035 8.7162 2.69255 11.6096 2.13038 14.7507C1.5207 14.9079 0.980568 15.2633 0.594923 15.761C0.209279 16.2586 0 16.8704 0 17.5C0 18.1296 0.209279 18.7414 0.594923 19.239C0.980568 19.7367 1.5207 20.0921 2.13038 20.2493C2.69255 23.3904 4.2035 26.2838 6.45985 28.5401C8.7162 30.7965 11.6096 32.3075 14.7507 32.8696C14.9079 33.4793 15.2633 34.0194 15.761 34.4051C16.2586 34.7907 16.8704 35 17.5 35C18.1296 35 18.7414 34.7907 19.239 34.4051C19.7367 34.0194 20.0921 33.4793 20.2493 32.8696C23.3904 32.3075 26.2838 30.7965 28.5401 28.5401C30.7965 26.2838 32.3075 23.3904 32.8696 20.2493C33.4809 20.0937 34.0229 19.739 34.4102 19.2412C34.7975 18.7434 35.008 18.1307 35.0085 17.5ZM17.5 1.88431C17.7454 1.88416 17.9812 1.97931 18.1578 2.14969C18.3343 2.32008 18.4378 2.55237 18.4464 2.79759C18.4438 2.82909 18.4438 2.86074 18.4464 2.89223C18.4464 3.14323 18.3467 3.38396 18.1692 3.56144C17.9917 3.73893 17.751 3.83864 17.5 3.83864C17.249 3.83864 17.0083 3.73893 16.8308 3.56144C16.6533 3.38396 16.5536 3.14323 16.5536 2.89223C16.5559 2.86073 16.5559 2.8291 16.5536 2.79759C16.5622 2.55237 16.6657 2.32008 16.8422 2.14969C17.0188 1.97931 17.2546 1.88416 17.5 1.88431ZM2.79759 16.5536H2.89223C3.14323 16.5536 3.38396 16.6533 3.56144 16.8308C3.73893 17.0083 3.83864 17.249 3.83864 17.5C3.83864 17.751 3.73893 17.9917 3.56144 18.1692C3.38396 18.3467 3.14323 18.4464 2.89223 18.4464H2.79759C2.54659 18.4464 2.30587 18.3467 2.12838 18.1692C1.9509 17.9917 1.85119 17.751 1.85119 17.5C1.85119 17.249 1.9509 17.0083 2.12838 16.8308C2.30587 16.6533 2.54659 16.5536 2.79759 16.5536ZM13.7144 25.5444C13.4634 25.5444 13.2227 25.4447 13.0452 25.2673C12.8677 25.0898 12.768 24.849 12.768 24.598V10.4256C12.768 10.1746 12.8677 9.9339 13.0452 9.75641C13.2227 9.57892 13.4634 9.47921 13.7144 9.47921H21.2856C21.5366 9.47921 21.7773 9.57892 21.9548 9.75641C22.1323 9.9339 22.232 10.1746 22.232 10.4256V24.598C22.232 24.849 22.1323 25.0898 21.9548 25.2673C21.7773 25.4447 21.5366 25.5444 21.2856 25.5444H13.7144ZM17.5 33.1157C17.2546 33.1158 17.0188 33.0207 16.8422 32.8503C16.6657 32.6799 16.5622 32.4476 16.5536 32.2024C16.5562 32.1709 16.5562 32.1393 16.5536 32.1078C16.5536 31.8568 16.6533 31.616 16.8308 31.4386C17.0083 31.2611 17.249 31.1614 17.5 31.1614C17.751 31.1614 17.9917 31.2611 18.1692 31.4386C18.3467 31.616 18.4464 31.8568 18.4464 32.1078C18.4441 32.1393 18.4441 32.1709 18.4464 32.2024C18.4378 32.4476 18.3343 32.6799 18.1578 32.8503C17.9812 33.0207 17.7454 33.1158 17.5 33.1157ZM20.0648 30.9674C19.7401 30.2829 19.1586 29.754 18.4464 29.4957V27.4373H21.2856C22.0386 27.4373 22.7608 27.1381 23.2933 26.6057C23.8257 26.0732 24.1248 25.351 24.1248 24.598V10.4256C24.1248 9.67261 23.8257 8.95045 23.2933 8.41799C22.7608 7.88553 22.0386 7.5864 21.2856 7.5864H13.7144C12.9614 7.5864 12.2392 7.88553 11.7067 8.41799C11.1743 8.95045 10.8752 9.67261 10.8752 10.4256V24.598C10.8752 25.351 11.1743 26.0732 11.7067 26.6057C12.2392 27.1381 12.9614 27.4373 13.7144 27.4373H16.5536V29.5194C16.1999 29.6455 15.8748 29.8405 15.597 30.0931C15.3192 30.3457 15.0943 30.6509 14.9352 30.991C12.2383 30.4788 9.75798 29.1668 7.81688 27.2257C5.87579 25.2846 4.56379 22.8043 4.05158 20.1073C4.53675 19.877 4.94662 19.5137 5.23361 19.0597C5.5206 18.6057 5.67294 18.0797 5.67294 17.5426C5.67294 17.0055 5.5206 16.4794 5.23361 16.0255C4.94662 15.5715 4.53675 15.2082 4.05158 14.9778C4.56379 12.2809 5.87579 9.80057 7.81688 7.85947C9.75798 5.91838 12.2383 4.60638 14.9352 4.09417C15.1662 4.57804 15.5294 4.98665 15.9828 5.2727C16.4363 5.55875 16.9615 5.71056 17.4976 5.71056C18.0338 5.71056 18.559 5.55875 19.0124 5.2727C19.4659 4.98665 19.8291 4.57804 20.06 4.09417C22.7567 4.60699 25.2367 5.91918 27.1777 7.86017C29.1187 9.80117 30.4309 12.2812 30.9437 14.9778C30.4598 15.2087 30.0512 15.5719 29.7652 16.0254C29.4791 16.4789 29.3273 17.0041 29.3273 17.5402C29.3273 18.0764 29.4791 18.6016 29.7652 19.055C30.0512 19.5085 30.4598 19.8717 30.9437 20.1026C30.4278 22.7952 29.1148 25.2706 27.1749 27.2079C25.2351 29.1452 22.758 30.4549 20.0648 30.9674ZM32.2024 18.4464H32.1078C31.8568 18.4464 31.616 18.3467 31.4386 18.1692C31.2611 17.9917 31.1614 17.751 31.1614 17.5C31.1614 17.249 31.2611 17.0083 31.4386 16.8308C31.616 16.6533 31.8568 16.5536 32.1078 16.5536H32.2024C32.4534 16.5536 32.6941 16.6533 32.8716 16.8308C33.0491 17.0083 33.1488 17.249 33.1488 17.5C33.1488 17.751 33.0491 17.9917 32.8716 18.1692C32.6941 18.3467 32.4534 18.4464 32.2024 18.4464Z" fill="url(#paint1_linear)"/>
<path d="M14.6603 17.0271H20.3387C20.5897 17.0271 20.8304 16.9274 21.0079 16.7499C21.1854 16.5724 21.2851 16.3317 21.2851 16.0807C21.2851 15.8297 21.1854 15.589 21.0079 15.4115C20.8304 15.234 20.5897 15.1343 20.3387 15.1343H14.6603C14.4093 15.1343 14.1685 15.234 13.9911 15.4115C13.8136 15.589 13.7139 15.8297 13.7139 16.0807C13.7139 16.3317 13.8136 16.5724 13.9911 16.7499C14.1685 16.9274 14.4093 17.0271 14.6603 17.0271Z" fill="url(#paint2_linear)"/>
<path d="M14.6603 14.1877H16.5531C16.8041 14.1877 17.0448 14.088 17.2223 13.9105C17.3998 13.7331 17.4995 13.4923 17.4995 13.2413C17.4995 12.9903 17.3998 12.7496 17.2223 12.5721C17.0448 12.3946 16.8041 12.2949 16.5531 12.2949H14.6603C14.4093 12.2949 14.1685 12.3946 13.9911 12.5721C13.8136 12.7496 13.7139 12.9903 13.7139 13.2413C13.7139 13.4923 13.8136 13.7331 13.9911 13.9105C14.1685 14.088 14.4093 14.1877 14.6603 14.1877Z" fill="url(#paint3_linear)"/>
<path d="M14.6603 19.8664H20.3387C20.5897 19.8664 20.8304 19.7667 21.0079 19.5892C21.1854 19.4118 21.2851 19.171 21.2851 18.92C21.2851 18.669 21.1854 18.4283 21.0079 18.2508C20.8304 18.0733 20.5897 17.9736 20.3387 17.9736H14.6603C14.4093 17.9736 14.1685 18.0733 13.9911 18.2508C13.8136 18.4283 13.7139 18.669 13.7139 18.92C13.7139 19.171 13.8136 19.4118 13.9911 19.5892C14.1685 19.7667 14.4093 19.8664 14.6603 19.8664Z" fill="url(#paint4_linear)"/>
<path d="M20.3387 20.8125H14.6603C14.4093 20.8125 14.1685 20.9122 13.9911 21.0897C13.8136 21.2672 13.7139 21.5079 13.7139 21.7589C13.7139 22.0099 13.8136 22.2506 13.9911 22.4281C14.1685 22.6056 14.4093 22.7053 14.6603 22.7053H20.3387C20.5897 22.7053 20.8304 22.6056 21.0079 22.4281C21.1854 22.2506 21.2851 22.0099 21.2851 21.7589C21.2851 21.5079 21.1854 21.2672 21.0079 21.0897C20.8304 20.9122 20.5897 20.8125 20.3387 20.8125Z" fill="url(#paint5_linear)"/>
<defs>
<linearGradient id="paint0_linear" x1="20.3724" y1="-10.8785" x2="20.3724" y2="42.7251" gradientUnits="userSpaceOnUse">
<stop stop-color="#C7DAFD"/>
<stop offset="1" stop-color="#E9F1FF"/>
</linearGradient>
<linearGradient id="paint1_linear" x1="0" y1="0" x2="26.2443" y2="38.8422" gradientUnits="userSpaceOnUse">
<stop stop-color="#2569E6"/>
<stop offset="1" stop-color="#3649EF"/>
</linearGradient>
<linearGradient id="paint2_linear" x1="13.7139" y1="15.1343" x2="14.2165" y2="18.1089" gradientUnits="userSpaceOnUse">
<stop stop-color="#2569E6"/>
<stop offset="1" stop-color="#3649EF"/>
</linearGradient>
<linearGradient id="paint3_linear" x1="13.7139" y1="12.2949" x2="14.6418" y2="15.0409" gradientUnits="userSpaceOnUse">
<stop stop-color="#2569E6"/>
<stop offset="1" stop-color="#3649EF"/>
</linearGradient>
<linearGradient id="paint4_linear" x1="13.7139" y1="17.9736" x2="14.2165" y2="20.9483" gradientUnits="userSpaceOnUse">
<stop stop-color="#2569E6"/>
<stop offset="1" stop-color="#3649EF"/>
</linearGradient>
<linearGradient id="paint5_linear" x1="13.7139" y1="20.8125" x2="14.2165" y2="23.7872" gradientUnits="userSpaceOnUse">
<stop stop-color="#2569E6"/>
<stop offset="1" stop-color="#3649EF"/>
</linearGradient>
</defs>
</svg>
