<svg width="165" height="80" viewBox="0 0 165 80" fill="none" xmlns="http://www.w3.org/2000/svg">
<path d="M37.9396 64.5847C35.8363 63.0737 36.8014 59.8879 39.36 59.8879C40.8715 59.8879 41.955 60.9711 41.955 62.473C41.955 63.0646 41.9368 63.1374 41.4724 63.9839C41.3905 64.1296 41.09 64.4027 40.8077 64.5938C40.2978 64.9397 40.2978 64.9397 39.3691 64.9397H38.4313L37.9396 64.5847Z" fill="#344154"/>
<path d="M28.7983 64.0294C28.2884 63.7472 27.906 63.3649 27.6601 62.8734C27.3687 62.2817 27.4325 61.3715 27.8058 60.8254C28.516 59.7968 29.8454 59.4601 30.765 60.0699C30.9562 60.1973 31.1565 60.2975 31.2112 60.2975C31.2658 60.2975 31.3751 60.4431 31.457 60.616C31.539 60.789 31.6391 60.9346 31.6755 60.9346C31.712 60.9346 31.7939 61.144 31.8485 61.3988C32.0853 62.3819 31.7484 63.2921 30.9289 63.8473C30.5192 64.1204 30.3735 64.1659 29.809 64.1932C29.2809 64.2205 29.0987 64.1841 28.7983 64.0294Z" fill="#344154"/>
<path d="M49.6768 63.2739C48.3929 62.7915 47.7009 61.8813 47.619 60.5523C47.5917 60.0244 47.619 59.7422 47.7465 59.3964C47.8375 59.1415 47.9468 58.9321 47.9832 58.9321C48.0196 58.9321 48.0561 58.8684 48.0561 58.7865C48.0561 58.6227 48.7936 57.8945 49.1487 57.7124C50.0137 57.2664 51.5798 57.3484 52.2718 57.8763C52.4812 58.031 52.8181 58.3678 53.0184 58.6227C53.3462 59.0141 53.4191 59.187 53.5101 59.7696C53.7559 61.2714 53.1641 62.5093 51.9258 63.0828C51.2793 63.3922 50.2322 63.4742 49.6768 63.2739Z" fill="#344154"/>
<path d="M33.0509 60.425C32.4773 60.1428 32.1859 59.7878 31.9856 59.0869C31.7853 58.4043 31.9492 57.4394 32.3225 57.0389C33.3332 55.9467 34.7172 55.9194 35.7278 56.957C36.0374 57.2847 36.1194 57.4394 36.2013 57.9219C36.4016 59.0687 36.0192 59.9335 35.1087 60.3977C34.4167 60.7436 33.7429 60.7527 33.0509 60.425Z" fill="#344154"/>
<path d="M42.4743 59.6058C41.9462 59.4146 41.582 59.087 41.2269 58.5135C40.9355 58.022 40.9082 57.931 40.9082 57.2483C40.9082 56.6475 40.9537 56.4291 41.1267 56.0923C41.7459 54.8817 43.1572 54.3447 44.4319 54.8453C44.9874 55.0638 45.4153 55.437 45.7613 56.0195C45.9707 56.3745 45.998 56.5292 46.0071 57.2028C46.0071 57.9401 45.9889 58.0129 45.6885 58.5135C45.3243 59.1052 44.9691 59.4146 44.4046 59.6149C43.922 59.7787 42.9478 59.7787 42.4743 59.6058Z" fill="#344154"/>
<path d="M25.3201 59.4327C24.5462 59.0959 24.0454 58.213 24.1638 57.412C24.3095 56.4289 25.2655 55.6734 26.2307 55.7736C27.7786 55.9283 28.5525 57.7397 27.5782 58.9047C27.1958 59.3599 26.7497 59.5692 26.1669 59.5692C25.8573 59.5601 25.4749 59.5055 25.3201 59.4327Z" fill="#344154"/>
<path d="M29.7542 55.9009C29.1714 55.6187 28.9438 55.4094 28.7617 54.9998C28.097 53.4706 29.2716 51.9323 30.8832 52.2327C31.3749 52.3237 32.0578 52.9154 32.1944 53.3614C32.3583 53.9075 32.331 54.5811 32.1306 55.0453C31.8848 55.6096 31.1837 56.0192 30.4735 56.0192C30.2003 56.0101 29.8816 55.9646 29.7542 55.9009Z" fill="#344154"/>
<path d="M37.1382 55.191C36.1822 54.7177 35.7907 53.8075 36.0365 52.6515C36.1731 52.0052 36.5555 51.5319 37.2111 51.1952C37.8484 50.8766 39.0503 50.9949 39.4054 51.4136C39.4692 51.4955 39.5693 51.5592 39.624 51.5592C39.9153 51.5683 40.316 52.5332 40.316 53.234C40.316 53.9622 40.0883 54.5175 39.6422 54.8816C38.8409 55.5369 38.0305 55.637 37.1382 55.191Z" fill="#344154"/>
<path d="M23.2525 54.9272C22.7335 54.7725 22.1963 53.9442 22.1963 53.307C22.1963 52.9338 22.5605 52.3149 22.9247 52.06C23.6167 51.5776 24.4271 51.6595 25.1009 52.2784L25.4742 52.6243V53.3525C25.4742 54.0534 25.4651 54.0898 25.1555 54.4539C24.7093 54.9727 23.9991 55.1457 23.2525 54.9272Z" fill="#344154"/>
<path d="M91.8062 54.0169C91.4056 53.9714 90.7136 53.8531 90.2583 53.7439C89.8122 53.6437 89.3478 53.5345 89.2294 53.5072C88.8197 53.4253 87.0351 52.5697 86.7437 52.3239C86.6708 52.2511 86.5616 52.1965 86.5161 52.1965C86.4159 52.1965 85.6875 51.6139 85.1138 51.0769C84.522 50.5126 83.3838 49.2109 83.3838 49.0835C83.3838 49.0471 83.2473 48.8013 83.0834 48.5374C82.619 47.8001 82.0636 46.5167 81.754 45.4608C81.0074 42.9213 80.9983 38.707 81.7449 36.3495C81.8906 35.8762 82.0181 35.4483 82.0181 35.3937C82.0181 35.2299 82.8831 33.4368 83.1471 33.0545C83.2746 32.8633 83.3838 32.6813 83.3838 32.6358C83.3838 32.5993 83.5295 32.4082 83.7025 32.2079C83.8755 32.0168 84.0212 31.8257 84.0212 31.7892C84.0212 31.7164 85.5509 30.169 85.6328 30.169C85.6602 30.169 85.8423 30.0234 86.0335 29.8505C86.2247 29.6775 86.5525 29.45 86.771 29.3407C86.9895 29.2315 87.2263 29.095 87.2991 29.0313C87.3719 28.9584 87.5996 28.8492 87.7999 28.7764C88.0002 28.7036 88.4099 28.5397 88.7104 28.4123C89.3478 28.1392 90.231 27.939 91.5786 27.7387C93.6182 27.4475 96.2587 27.8207 98.1435 28.6672C98.7353 28.9311 99.2907 29.2133 99.3727 29.2952C99.4455 29.3771 99.5548 29.4409 99.6003 29.4409C99.8188 29.4409 101.476 30.8972 102.05 31.5981C102.405 32.0168 102.687 32.3991 102.687 32.4355C102.687 32.4719 102.769 32.5811 102.86 32.6904C103.097 32.9361 103.834 34.3652 104.062 34.9932C104.909 37.3507 105.264 39.8356 105.073 42.0566C104.936 43.5676 104.463 45.925 104.235 46.2345C104.189 46.2891 104.107 46.5076 104.044 46.7351C103.898 47.2449 103.197 48.5738 102.851 49.0198C102.714 49.2018 102.596 49.3839 102.596 49.4203C102.596 49.5113 101.74 50.5217 101.339 50.904C100.911 51.3136 99.8097 52.1965 99.7278 52.1965C99.6823 52.1965 99.5184 52.3057 99.3454 52.4331C99.1815 52.5606 98.6352 52.8427 98.1344 53.0612C96.3953 53.8349 93.7912 54.2263 91.8062 54.0169ZM95.3846 52.2966C95.9036 52.1874 96.5956 51.978 96.9234 51.8324C97.242 51.6777 97.5516 51.5593 97.5972 51.5593C97.9158 51.5593 100.684 49.3475 100.684 49.0926C100.684 49.0562 100.784 48.9106 100.911 48.7649C101.203 48.4373 101.722 47.6272 101.949 47.1447C102.45 46.0798 102.596 45.7248 102.678 45.4062C102.723 45.2151 102.878 44.6598 103.024 44.1865C103.279 43.3309 103.279 43.3127 103.279 40.8187C103.27 38.3429 103.27 38.3065 103.015 37.4964C102.878 37.0503 102.733 36.5315 102.696 36.3586C102.541 35.6304 101.758 34.1376 100.893 32.9088C100.192 31.9258 98.3165 30.3966 97.3513 30.0507C97.1601 29.9779 96.7322 29.8141 96.4044 29.6866C95.685 29.4136 94.1372 29.1678 93.1174 29.1678C92.0156 29.1678 90.231 29.4864 89.4571 29.8232C88.6376 30.169 88.1368 30.4239 87.8545 30.6424C87.7362 30.7334 87.5996 30.8062 87.5541 30.8062C87.463 30.8062 87.3082 30.9427 86.3248 31.8439C85.8514 32.2808 84.7861 33.6006 84.6768 33.8828C84.6495 33.9738 84.4856 34.2469 84.3217 34.5108C84.1578 34.7748 84.0212 35.057 84.0212 35.1571C84.0212 35.2481 83.9848 35.3573 83.9393 35.4119C83.6843 35.6941 83.1198 37.7421 82.9286 39.1348C82.7283 40.5729 82.8739 42.803 83.2473 44.1865C83.3201 44.4596 83.3838 44.7599 83.3838 44.851C83.3838 45.0239 83.9119 46.3619 84.176 46.8717C84.6859 47.8729 84.8316 48.1096 85.2049 48.6011C85.8514 49.4749 87.3719 50.9222 87.6269 50.9222C87.6815 50.9222 87.7908 50.9859 87.8545 51.0769C87.9911 51.2316 89.0382 51.7414 89.8031 52.0144C90.1855 52.151 90.8866 52.3057 92.0338 52.506C92.5528 52.597 94.5014 52.4787 95.3846 52.2966Z" fill="#344154"/>
<path d="M68.7246 40.8642V28.2576H69.5441H70.3635V40.8642V53.4708H69.5441H68.7246V40.8642Z" fill="#344154"/>
<path d="M120.169 41.5924V29.7139H115.753H111.337V28.9857V28.2576H120.988H130.64V28.9857V29.7139H126.27H121.899V41.5924V53.4708H121.034H120.169V41.5924Z" fill="#344154"/>
<path d="M134.101 53.3798C134.101 53.3343 134.183 53.1158 134.283 52.9065C134.529 52.3512 135.093 50.9586 135.284 50.4124C135.375 50.1576 135.557 49.7207 135.685 49.4294C135.812 49.1472 135.922 48.8742 135.922 48.8287C135.922 48.7831 136.049 48.4646 136.204 48.1278C136.359 47.791 136.541 47.3359 136.623 47.1083C136.696 46.8808 136.85 46.4894 136.969 46.2345C137.078 45.9888 137.224 45.6156 137.287 45.4153C137.351 45.2151 137.524 44.8055 137.661 44.5142C137.806 44.2138 137.925 43.9225 137.925 43.8588C137.925 43.7951 138.052 43.4674 138.207 43.1215C138.362 42.7848 138.544 42.3387 138.608 42.1385C138.753 41.7107 139.354 40.2452 139.691 39.5079C139.819 39.2258 139.928 38.9527 139.928 38.8981C139.928 38.8526 140.074 38.4521 140.256 38.0152C141.075 36.04 141.194 35.7578 141.248 35.5576C141.285 35.4392 141.449 35.0387 141.622 34.6656C141.795 34.2924 141.931 33.9283 141.931 33.8646C141.931 33.8008 141.986 33.6279 142.059 33.4823C142.286 33.0089 142.541 32.3991 142.614 32.1715C142.65 32.0441 142.805 31.6891 142.942 31.3705C143.087 31.0611 143.206 30.7607 143.206 30.7061C143.206 30.6606 143.288 30.433 143.388 30.2054C143.752 29.3953 143.907 29.0222 144.025 28.649L144.144 28.2576H145.072H146.001L146.293 28.8947C146.447 29.2497 146.575 29.5774 146.575 29.632C146.575 29.6866 146.684 29.9597 146.812 30.2419C146.939 30.524 147.139 31.0247 147.258 31.3523C147.476 31.9713 147.686 32.5083 148.15 33.5824C148.296 33.9374 148.514 34.4835 148.623 34.8112C148.851 35.4574 149.079 36.04 149.543 37.1141C149.716 37.5055 149.853 37.8877 149.853 37.9515C149.853 38.0152 149.989 38.3702 150.162 38.7434C150.326 39.1075 150.49 39.5079 150.526 39.6354C150.563 39.7628 150.727 40.1906 150.891 40.5911C151.455 41.9565 151.601 42.3205 151.774 42.8212C151.874 43.0942 151.992 43.4037 152.038 43.5038C152.329 44.141 152.493 44.5506 152.493 44.6325C152.493 44.6871 152.63 45.0421 152.803 45.4335C152.976 45.8249 153.185 46.3437 153.267 46.5986C153.358 46.8444 153.522 47.2631 153.64 47.527C153.759 47.7819 153.859 48.0368 153.859 48.0914C153.859 48.1369 154.005 48.5101 154.178 48.9106C154.351 49.302 154.496 49.6843 154.496 49.7389C154.496 49.8026 154.642 50.1576 154.815 50.5308C154.988 50.904 155.161 51.3227 155.197 51.4592C155.225 51.5866 155.37 51.9598 155.525 52.2875C155.671 52.6152 155.808 53.0157 155.835 53.1795L155.889 53.4708H154.979H154.068L153.95 53.0885C153.886 52.8701 153.704 52.3785 153.531 51.9871C153.358 51.5957 153.222 51.2134 153.222 51.1406C153.222 51.0769 153.112 50.7856 152.985 50.4944C152.848 50.2031 152.675 49.7389 152.584 49.4658C152.493 49.1927 152.293 48.6375 152.129 48.237C151.437 46.5349 151.218 45.9523 151.218 45.8522C151.218 45.7885 151.073 45.4335 150.9 45.0421C150.727 44.6598 150.581 44.2866 150.581 44.2229C150.581 44.1228 150.463 43.8315 150.035 42.8667C149.962 42.7028 149.78 42.1931 149.288 40.8187C149.197 40.5456 149.024 40.1178 148.906 39.8629C148.787 39.6172 148.669 39.3077 148.633 39.1803C148.542 38.8708 147.904 37.2142 147.522 36.2949C147.349 35.8853 147.212 35.503 147.212 35.4483C147.212 35.3846 147.066 35.0114 146.893 34.6018C146.72 34.2013 146.575 33.819 146.575 33.7553C146.575 33.6916 146.456 33.373 146.302 33.0454C146.156 32.7086 145.974 32.2444 145.901 32.0077C145.828 31.771 145.673 31.3523 145.555 31.0793C145.428 30.8062 145.3 30.4967 145.264 30.3966C145.209 30.251 145.136 30.3329 144.881 30.879C144.708 31.2522 144.572 31.5981 144.572 31.6709C144.572 31.7346 144.408 32.1442 144.207 32.572C144.007 32.9998 143.843 33.4003 143.843 33.455C143.843 33.546 143.67 33.992 142.878 35.8762C142.705 36.2858 142.568 36.668 142.568 36.7227C142.568 36.7682 142.487 36.9866 142.386 37.2051C142.195 37.6147 141.567 39.1803 141.276 39.9995C141.175 40.2725 140.975 40.755 140.829 41.0735C140.684 41.3921 140.565 41.7016 140.565 41.7744C140.565 41.8381 140.42 42.2022 140.247 42.5754C140.074 42.9486 139.928 43.3036 139.928 43.3673C139.928 43.431 139.764 43.8497 139.564 44.2957C139.363 44.7508 139.2 45.1695 139.2 45.2242C139.2 45.2879 139.09 45.5609 138.963 45.834C138.826 46.1071 138.644 46.5713 138.544 46.8626C138.444 47.1629 138.271 47.609 138.143 47.8638C138.025 48.1096 137.925 48.3644 137.925 48.4282C137.925 48.4828 137.761 48.9015 137.561 49.3566C137.36 49.8026 137.196 50.2122 137.196 50.2668C137.196 50.3123 137.051 50.6673 136.878 51.0496C136.705 51.441 136.559 51.8051 136.559 51.8688C136.559 51.9416 136.404 52.3239 136.222 52.7335L135.885 53.4708H134.993C134.474 53.4708 134.101 53.4344 134.101 53.3798Z" fill="#344154"/>
<path d="M45.1423 51.9324C44.8327 51.632 44.7325 51.3135 44.8145 50.8948C44.9328 50.2576 45.725 49.9208 46.4261 50.2212C46.8449 50.3941 47.0453 50.9767 46.8723 51.5137C46.6993 52.0325 46.4625 52.1964 45.8889 52.1964C45.47 52.1964 45.3608 52.16 45.1423 51.9324Z" fill="#344154"/>
<path d="M27.823 51.4683C26.4936 51.0679 26.2296 49.12 27.4041 48.4282C28.4603 47.8093 29.7351 48.4464 29.899 49.6661C29.9536 50.0211 29.9172 50.1849 29.7169 50.5945C29.5165 51.0132 29.3982 51.1316 29.0066 51.3227C28.5241 51.5685 28.2509 51.5958 27.823 51.4683Z" fill="#344154"/>
<path d="M47.8186 51.0679C47.4635 50.722 47.418 50.6218 47.418 50.276C47.418 49.5387 47.9461 49.0107 48.6836 49.0107C49.0842 49.0107 49.1935 49.0563 49.5031 49.3293C50.0858 49.8573 50.0858 50.5126 49.5122 51.1134C49.2026 51.441 49.1389 51.4683 48.6927 51.4683C48.2466 51.4683 48.1828 51.441 47.8186 51.0679Z" fill="#344154"/>
<path d="M22.8336 50.9676C22.8336 50.8766 22.7425 50.8311 22.5695 50.8311C22.3783 50.8311 22.2053 50.7219 21.8866 50.376C21.5133 49.9755 21.4678 49.8845 21.4678 49.4931C21.4678 48.956 21.7045 48.4736 22.096 48.2461C22.4785 48.0276 23.2342 48.0094 23.6621 48.2188C24.2267 48.5009 24.4634 49.4021 24.1538 50.1302C24.0172 50.467 23.5256 50.8311 23.2069 50.8311C23.0976 50.8311 23.0157 50.8857 23.0157 50.9676C23.0157 51.0405 22.9792 51.1042 22.9246 51.1042C22.8791 51.1042 22.8336 51.0405 22.8336 50.9676Z" fill="#344154"/>
<path d="M33.924 50.7492C33.5325 50.6217 32.9316 50.1029 32.795 49.7661C32.6402 49.4111 32.6402 48.4372 32.7859 48.0276C32.9225 47.6544 33.5871 47.1265 34.006 47.0446C34.6434 46.9262 35.2534 47.0446 35.6631 47.3722C36.6465 48.1641 36.6465 49.6569 35.654 50.4215C35.2989 50.7037 35.135 50.7583 34.698 50.7947C34.4066 50.8129 34.0606 50.7856 33.924 50.7492Z" fill="#344154"/>
<path d="M50.8968 49.6478C50.4779 49.3929 50.2412 48.956 50.2412 48.4372C50.2412 47.9457 50.3232 47.7545 50.6601 47.4177C51.5251 46.553 53.0638 47.1811 53.0638 48.3917C53.0638 48.9014 52.7361 49.5113 52.3627 49.6842C51.9348 49.8844 51.2701 49.8753 50.8968 49.6478Z" fill="#344154"/>
<path d="M42.5744 49.1109C42.2193 48.7832 42.192 48.7286 42.192 48.2462C42.1829 47.7456 42.2011 47.7092 42.5653 47.3633C42.9113 47.0447 42.9933 47.0083 43.4395 47.0083C43.8856 47.0083 43.9585 47.0447 44.268 47.3451C44.8508 47.9276 44.8417 48.5648 44.2407 49.1291C43.9129 49.4295 43.8219 49.4659 43.4121 49.4659C43.0024 49.4659 42.9113 49.4295 42.5744 49.1109Z" fill="#344154"/>
<path d="M45.6241 47.6455C45.4602 47.5545 45.2417 47.2996 45.1324 47.0902C44.5406 45.9251 45.706 44.6417 46.9352 45.1059C47.4542 45.2971 47.782 45.8068 47.782 46.4167C47.782 46.9719 47.4998 47.4816 47.09 47.6819C46.653 47.8821 45.9883 47.873 45.6241 47.6455Z" fill="#344154"/>
<path d="M27.1683 47.418C27.141 47.3451 27.0499 47.2814 26.968 47.2814C26.4763 47.2814 25.848 46.5077 25.8389 45.8979C25.8298 44.9057 26.8678 44.1958 27.8057 44.5508C28.4521 44.7965 28.871 45.6248 28.6707 46.2802C28.5432 46.708 28.0879 47.1722 27.7237 47.2541C27.578 47.2814 27.4415 47.3634 27.4141 47.4271C27.3504 47.5909 27.2411 47.5909 27.1683 47.418Z" fill="#344154"/>
<path d="M54.5208 47.4634C54.5208 47.3814 54.3387 47.2631 54.0746 47.163C53.3007 46.8899 52.7999 46.0889 52.9365 45.3607C53.0366 44.8146 53.4282 44.3049 53.8652 44.1319C54.6028 43.8589 55.5406 44.0591 55.923 44.5779C56.0869 44.7964 56.1142 44.9693 56.1142 45.6611V46.4803L55.75 46.7898C55.5497 46.9627 55.2492 47.1357 55.0762 47.1812C54.9123 47.2358 54.7211 47.345 54.6483 47.436C54.5481 47.5635 54.5299 47.5726 54.5208 47.4634Z" fill="#344154"/>
<path d="M22.1332 46.9901C21.8327 46.7808 21.5596 46.2528 21.5596 45.9069C21.5596 45.6612 21.769 45.2789 22.0421 45.024C22.288 44.7965 22.9071 44.7146 23.3988 44.8511C23.9451 44.9967 24.2911 45.9798 23.9907 46.5259C23.6356 47.1631 22.7068 47.3906 22.1332 46.9901Z" fill="#344154"/>
<path d="M39.2959 46.8535C38.9408 46.7989 38.4855 46.189 38.4309 45.6884C38.3945 45.3971 38.4309 45.1878 38.5948 44.8692C38.8952 44.2684 39.05 44.1865 39.8695 44.1865H40.5706L40.8984 44.5688C41.3537 45.0968 41.381 45.7976 40.9713 46.3893C40.6435 46.8535 40.17 46.9809 39.2959 46.8535Z" fill="#344154"/>
<path d="M31.284 45.8887C30.8833 45.5429 30.7559 45.2425 30.7559 44.6599C30.7559 44.1957 30.9106 43.5495 31.0108 43.5495C31.0472 43.5495 31.1838 43.4493 31.3204 43.3219C31.7028 42.976 32.2855 42.8577 32.8319 43.0397C33.9336 43.4129 34.3524 44.7237 33.6513 45.6248C33.2416 46.1527 33.1505 46.1891 32.3584 46.1891C31.6573 46.1891 31.6026 46.1709 31.284 45.8887Z" fill="#344154"/>
<path d="M12.1354 45.4425C11.6164 45.2604 10.9244 44.7143 10.5693 44.2046C10.2233 43.7039 10.2233 43.6948 10.196 42.6936C10.1687 41.6741 10.2597 41.2099 10.5602 40.8914C10.6239 40.8276 10.7514 40.6638 10.8334 40.5273C10.9973 40.2815 11.1247 40.1905 11.9533 39.7718C12.6089 39.4441 13.5376 39.4532 14.2843 39.7809C14.5847 39.9174 14.8215 40.063 14.8215 40.0995C14.8215 40.145 14.8761 40.1814 14.9398 40.1814C15.0855 40.1814 15.4588 40.5637 15.4588 40.7093C15.4588 40.773 15.4953 40.8185 15.5408 40.8185C15.5772 40.8185 15.7229 41.0552 15.8595 41.3556C16.2601 42.2476 16.1508 43.5674 15.6227 44.15C15.5317 44.2501 15.4588 44.3775 15.4588 44.4321C15.4588 44.596 14.6485 45.2058 14.175 45.3788C13.6742 45.5699 12.5998 45.6063 12.1354 45.4425Z" fill="#344154"/>
<path d="M49.239 45.4426C49.239 45.3516 49.1024 45.2515 48.9021 45.1786C47.7913 44.8237 47.3724 43.7405 47.937 42.721C48.2283 42.2113 48.6563 42.002 49.3756 42.002C50.2315 42.0111 50.796 42.4935 50.9144 43.3218C50.9963 43.8588 50.7141 44.8237 50.4773 44.8237C50.4227 44.8237 50.277 44.9056 50.1495 45.0057C50.0221 45.1058 49.8491 45.1877 49.7671 45.1877C49.6761 45.1877 49.5304 45.2788 49.4211 45.388C49.2754 45.5427 49.239 45.5609 49.239 45.4426Z" fill="#344154"/>
<path d="M42.0918 44.2139C41.6093 44.0865 41.1449 43.3219 41.1358 42.6574C41.1267 41.374 42.6017 40.5912 43.6762 41.3012C44.532 41.8655 44.6413 43.1034 43.922 43.8862C43.6397 44.1957 43.5942 44.2139 42.9477 44.2412C42.5744 44.2503 42.192 44.2412 42.0918 44.2139Z" fill="#344154"/>
<path d="M22.8617 44.0317C22.3518 43.5675 22.2426 43.0032 22.5613 42.4844C22.8982 41.92 23.8633 41.8927 24.2913 42.4297C24.6828 42.9304 24.6373 43.4037 24.1547 43.8861C23.9088 44.1319 23.7905 44.1865 23.4536 44.1865C23.1895 44.1865 22.9801 44.1319 22.8617 44.0317Z" fill="#344154"/>
<path d="M26.5863 43.5038C26.1037 43.2945 25.8852 42.5208 26.1129 41.8472C26.2494 41.4649 26.8413 41.1463 27.3056 41.2101C27.9976 41.3011 28.4165 41.7562 28.4165 42.4025C28.4165 43.3673 27.5151 43.9043 26.5863 43.5038Z" fill="#344154"/>
<path d="M56.5962 43.422C56.2411 43.2945 55.713 42.894 55.5308 42.6028C55.3761 42.3752 55.3032 41.5742 55.3761 41.0554C55.5035 40.2544 56.4869 39.5626 57.3701 39.6628C59.0728 39.8721 59.6919 41.9929 58.3717 43.0852C57.8254 43.5403 57.2335 43.6495 56.5962 43.422Z" fill="#344154"/>
<path d="M31.3015 42.1839C31.3015 42.1384 31.2105 42.0929 31.0921 42.0929C30.7734 42.0929 30.2271 41.6651 30.0723 41.301C29.6444 40.2816 30.2726 39.2712 31.3289 39.2712C32.1665 39.2712 32.7584 39.8629 32.7584 40.7094C32.7584 41.1827 32.7402 41.2282 32.3122 41.6469C32.0664 41.9018 31.7932 42.0929 31.6749 42.0929C31.5747 42.0929 31.4836 42.1384 31.4836 42.1839C31.4836 42.2386 31.4472 42.275 31.3926 42.275C31.3471 42.275 31.3015 42.2386 31.3015 42.1839Z" fill="#344154"/>
<path d="M51.3969 41.4193C50.9052 41.2828 50.3771 40.8368 50.1859 40.3908C49.9856 39.9175 50.022 39.0163 50.2679 38.6158C50.6685 37.9514 51.4151 37.5782 52.1618 37.6601C53.3272 37.7966 54.083 39.0072 53.7461 40.1632C53.4456 41.1645 52.4531 41.6924 51.3969 41.4193Z" fill="#344154"/>
<path d="M18.4271 40.3364C17.8171 40.0997 17.289 39.5718 16.9976 38.9256C16.7336 38.3248 16.7609 37.4146 17.0613 36.8502C17.5986 35.8308 18.2359 35.4485 19.4014 35.4485C20.3028 35.4485 20.5396 35.5213 21.0221 35.9309C21.7506 36.559 22.0783 37.3327 21.9873 38.2156C21.8143 39.9268 20.0479 40.9736 18.4271 40.3364Z" fill="#344154"/>
<path d="M44.5506 40.3908C43.7129 39.9539 43.2758 39.0346 43.4943 38.1972C43.6127 37.7876 44.068 37.1777 44.4322 36.9593C44.7418 36.7681 45.9528 36.759 46.317 36.9502C46.6539 37.1231 47.1274 37.7603 47.2457 38.2154C47.4643 39.0164 47.0454 39.9448 46.3079 40.3271C45.798 40.5911 44.9785 40.6184 44.5506 40.3908Z" fill="#344154"/>
<path d="M58.1624 38.2791C57.4431 37.9878 56.8968 37.1322 56.8877 36.3039C56.8877 35.5211 57.261 34.8293 57.9257 34.3833C58.2626 34.1558 58.381 34.1376 59.1276 34.1376C60.029 34.1285 60.2566 34.2195 60.7483 34.7565C61.3038 35.3664 61.5041 36.3494 61.2127 37.0503C61.0488 37.4417 60.457 38.179 60.3022 38.179C60.2384 38.179 60.0654 38.2427 59.9289 38.3155C59.5738 38.4975 58.6723 38.4793 58.1624 38.2791Z" fill="#344154"/>
<path d="M24.8189 37.4599C24.4638 37.3871 23.7991 36.8592 23.5624 36.4587C23.4622 36.2857 23.4258 35.958 23.4258 35.3027V34.3833L23.7718 33.9646C24.3818 33.2183 25.4107 32.9725 26.4123 33.3275C27.8783 33.8554 28.1787 35.9398 26.9495 37.0412C26.4396 37.4963 25.7385 37.6328 24.8189 37.4599Z" fill="#344154"/>
<path d="M39.1413 36.9775C38.595 36.6862 38.3856 36.2766 38.422 35.6303C38.4675 35.0114 38.6678 34.7019 39.205 34.4379C40.1611 33.9646 41.2264 34.6746 41.2264 35.7942C41.2264 36.4495 40.6255 37.0776 39.9426 37.1504C39.6421 37.1777 39.4418 37.1413 39.1413 36.9775Z" fill="#344154"/>
<path d="M53.0275 36.313C52.4811 36.1218 52.2444 35.9033 51.9348 35.3117C51.3885 34.274 51.6617 33.0999 52.5904 32.4354C52.991 32.1441 53.0457 32.135 53.8378 32.135C54.4388 32.135 54.7301 32.1714 54.9305 32.2806C55.3129 32.4991 55.7681 32.9997 55.932 33.382C56.105 33.7916 56.1141 34.7201 55.9411 35.1115C55.759 35.5575 55.1581 36.14 54.721 36.3038C54.2476 36.4859 53.51 36.4859 53.0275 36.313Z" fill="#344154"/>
<path d="M30.7095 36.2038C30.6093 36.1856 30.4363 36.1492 30.3271 36.131C30.0175 36.0582 29.5622 35.6304 29.3801 35.2208C29.0614 34.529 29.2344 33.4003 29.7261 32.9816C30.0084 32.7359 30.7095 32.4446 31.0191 32.4446C31.8203 32.4446 32.6398 32.9725 32.831 33.6097C33.3136 35.2026 32.221 36.5315 30.7095 36.2038Z" fill="#344154"/>
<path d="M35.4086 36.1765C35.0899 36.131 34.926 36.0309 34.6893 35.7578C34.316 35.33 34.2158 35.0933 34.2158 34.6291C34.2158 34.174 34.3524 33.8281 34.6529 33.5004C34.9898 33.1455 35.3904 32.9907 35.9731 32.9907C36.392 32.9907 36.5195 33.0362 36.8837 33.3184C37.3845 33.7098 37.5301 34.0739 37.4755 34.8203C37.4391 35.3027 37.3936 35.4028 37.084 35.7214C36.8928 35.9216 36.6651 36.1037 36.5923 36.1219C36.2372 36.2129 35.7728 36.2402 35.4086 36.1765Z" fill="#344154"/>
<path d="M46.5353 35.4576C45.7705 35.2573 45.124 34.2925 45.124 33.355C45.124 32.0351 46.0163 31.1704 47.373 31.1704C48.1743 31.1704 48.8208 31.5527 49.2942 32.2991C49.5128 32.6541 49.531 33.9921 49.3124 34.4017C49.1394 34.7112 48.6569 35.1936 48.3473 35.3574C48.0741 35.494 46.9269 35.5577 46.5353 35.4576Z" fill="#344154"/>
<path d="M15.9597 34.2104C15.4498 34.0284 14.9764 33.6188 14.685 33.0999C14.4938 32.7723 14.4209 32.5083 14.3845 31.9713C14.3481 31.3341 14.3663 31.2249 14.6121 30.6969C14.7942 30.3147 15.0128 30.0143 15.2586 29.8231C16.2511 29.0403 17.8354 29.0859 18.6913 29.9324C19.3014 30.5331 19.4652 30.9427 19.4652 31.8074C19.4652 32.6721 19.2922 33.0999 18.6913 33.6916C18.0721 34.3014 16.8611 34.529 15.9597 34.2104Z" fill="#344154"/>
<path d="M39.8613 32.4174C39.1602 32.1716 38.9144 31.225 39.3696 30.5332C39.579 30.2146 39.6519 30.1782 40.098 30.1145C40.444 30.0781 40.7081 30.0963 40.9357 30.1873C41.2271 30.2965 41.2908 30.3785 41.4365 30.7881C41.6641 31.4798 41.5276 31.9623 41.0177 32.2899C40.6079 32.5539 40.353 32.5812 39.8613 32.4174Z" fill="#344154"/>
<path d="M22.2146 31.3068C21.7138 31.0883 21.3223 30.7334 21.0674 30.2509C20.8397 29.8413 20.8124 29.7139 20.8397 29.0859C20.8761 28.4305 20.9035 28.3486 21.2221 27.939C21.7411 27.2654 22.1873 27.0378 23.0159 27.0378C23.6168 27.0287 23.7534 27.0652 24.1996 27.32C25.7748 28.2302 25.4925 30.7425 23.7534 31.3341C23.3346 31.4797 22.5788 31.4615 22.2146 31.3068Z" fill="#344154"/>
<path d="M36.5831 30.8244C36.1369 30.6059 35.9184 30.1053 35.9639 29.4226C36.0277 28.5761 36.5831 28.1119 37.4663 28.1847C37.9033 28.2211 38.0126 28.2757 38.3313 28.6034C38.6591 28.922 38.7137 29.0312 38.741 29.459C38.8048 30.351 38.2129 30.9791 37.3115 30.9791C37.0839 30.9791 36.7561 30.9063 36.5831 30.8244Z" fill="#344154"/>
<path d="M53.7919 30.1052C53.4004 30.0414 52.6902 29.4316 52.3897 28.8946C52.1347 28.4485 52.1074 28.312 52.1074 27.6657C52.1074 26.8648 52.2076 26.5917 52.763 25.9272C53.191 25.3993 53.8374 25.1262 54.6569 25.1262C55.7951 25.1262 56.5599 25.6268 57.0516 26.6918C57.2337 27.0923 57.261 27.2835 57.2337 27.7841C57.2155 28.1209 57.1244 28.5578 57.0243 28.758C56.7784 29.2586 56.0409 29.9595 55.6312 30.0778C55.3125 30.1598 54.2745 30.178 53.7919 30.1052Z" fill="#344154"/>
<path d="M27.7333 29.978C27.3782 29.7777 26.923 29.2589 26.841 28.9676C26.6134 28.1757 26.8865 26.9378 27.3145 26.8195C27.4055 26.8013 27.4784 26.7558 27.4784 26.7194C27.4784 26.5646 28.1613 26.3462 28.6439 26.3462C29.7183 26.3553 30.4831 27.1381 30.4831 28.2395C30.4831 28.8402 30.2555 29.3135 29.7456 29.7504C29.3723 30.069 29.3359 30.0781 28.6257 30.0781C28.2159 30.0781 27.8153 30.0326 27.7333 29.978Z" fill="#344154"/>
<path d="M32.5136 29.905C32.3588 29.8048 32.113 29.5409 31.9855 29.3042C31.7761 28.9492 31.7396 28.8127 31.7761 28.3576C31.8489 27.3927 32.5955 26.7465 33.5425 26.8193C34.6442 26.9103 35.2725 27.9571 34.8992 29.0767C34.6715 29.7684 34.2072 30.0779 33.4059 30.0779C32.9689 30.0779 32.723 30.0324 32.5136 29.905Z" fill="#344154"/>
<path d="M47.1906 29.1861C46.5532 28.9312 46.0706 28.4579 45.7246 27.757C45.5152 27.311 45.4879 27.1745 45.5243 26.6192C45.5607 26.1095 45.6336 25.8819 45.8794 25.4723C46.0524 25.1902 46.3165 24.8807 46.4622 24.7715C46.617 24.6622 46.7535 24.553 46.7808 24.5075C46.8901 24.3619 47.6458 24.1616 48.092 24.1616C48.6565 24.1616 49.3394 24.3801 49.5671 24.6258C49.649 24.7169 49.7765 24.7988 49.8493 24.7988C49.9131 24.7988 50.0041 24.8716 50.0314 24.9626C50.0679 25.0445 50.1862 25.2357 50.2955 25.3722C50.5595 25.6908 50.6961 26.1641 50.6961 26.7649C50.6961 27.2109 50.4958 27.9664 50.3501 28.0756C50.3137 28.1029 50.1771 28.2667 50.0496 28.4397C49.9131 28.6217 49.558 28.8857 49.2393 29.0586C48.7749 29.2953 48.5655 29.3499 48.1102 29.3408C47.8006 29.3408 47.3909 29.2771 47.1906 29.1861Z" fill="#344154"/>
<path d="M41.1175 28.667C40.644 28.403 40.471 27.7477 40.7259 27.1469C40.8261 26.883 40.9262 26.8101 41.2722 26.71C41.773 26.5644 42.3467 26.71 42.5652 27.0377C43.1934 27.9934 42.119 29.204 41.1175 28.667Z" fill="#344154"/>
<path d="M38.7498 26.7466C38.4129 26.5736 38.2217 26.1731 38.2217 25.6907C38.2308 24.9534 38.6769 24.5256 39.4509 24.5256C40.2248 24.5256 40.671 24.9534 40.6801 25.6907C40.6801 26.1822 40.4798 26.5736 40.1338 26.7557C39.7969 26.9286 39.0685 26.9286 38.7498 26.7466Z" fill="#344154"/>
<path d="M21.2406 25.6726C20.6214 25.3813 20.239 24.9444 20.066 24.3527C19.8839 23.7247 19.8839 23.6154 20.0842 22.9419C20.3574 21.9952 21.1313 21.4309 22.1511 21.4309C22.7976 21.4309 23.2893 21.6403 23.7445 22.0863C24.2635 22.596 24.473 23.5244 24.2544 24.2981C24.0541 24.9717 23.5989 25.4632 22.9615 25.709C22.3059 25.9456 21.8051 25.9365 21.2406 25.6726Z" fill="#344154"/>
<path d="M35.7266 25.3266C35.4261 25.1536 35.1348 24.7713 35.0346 24.4072C34.725 23.315 35.6993 22.4139 36.8739 22.7142C37.2472 22.8144 37.3656 22.8963 37.5841 23.2422C38.0211 23.8884 37.9483 24.4892 37.3747 25.099C37.0742 25.4176 37.0378 25.4358 36.4824 25.4358C36.1637 25.4358 35.8177 25.3812 35.7266 25.3266Z" fill="#344154"/>
<path d="M27.1956 24.5256C26.3488 24.2708 25.8389 23.5699 25.8389 22.6506C25.8389 21.9861 26.0847 21.5219 26.6401 21.0941C27.0043 20.821 27.0863 20.7937 27.6872 20.7937C28.3974 20.8028 28.5613 20.8665 29.0621 21.3125C29.4628 21.6857 29.6084 22.1954 29.5447 22.9509C29.481 23.6063 29.3353 23.8612 28.8527 24.1979C28.2973 24.5802 27.7419 24.6986 27.1956 24.5256Z" fill="#344154"/>
<path d="M31.9848 24.5073C31.2746 24.2525 30.8558 23.6517 30.8467 22.8689C30.8467 22.4047 30.8831 22.3137 31.2109 21.9041C31.5387 21.4763 31.6024 21.4399 32.0759 21.3853C32.8498 21.2851 33.3233 21.3853 33.642 21.7311C34.0426 22.1498 34.1246 22.3592 34.1246 22.9326C34.1246 23.5334 33.9789 23.8429 33.5327 24.1887C33.0137 24.5983 32.522 24.6985 31.9848 24.5073Z" fill="#344154"/>
<path d="M46.3172 21.8496C45.4978 21.5583 44.915 21.0122 44.5326 20.2021C43.9954 19.037 44.3323 17.526 45.2974 16.725C46.0259 16.1152 46.1989 16.0605 47.3097 16.0605H48.3022L48.8394 16.4064C49.8228 17.0436 50.2416 17.8082 50.2416 18.9551C50.2416 19.6468 50.0322 20.4205 49.7681 20.7118C49.668 20.8301 49.5223 21.0122 49.4585 21.1214C49.3857 21.2215 49.0306 21.4582 48.6664 21.6402C48.0654 21.9406 47.9198 21.977 47.3188 21.977C46.9455 21.9679 46.4993 21.9133 46.3172 21.8496Z" fill="#344154"/>
</svg>
