<svg width="31" height="35" viewBox="0 0 31 35" fill="none" xmlns="http://www.w3.org/2000/svg">
<path d="M2.25793 1.12891H15.2417H17.4998L18.6288 2.25793L19.1933 9.0321L27.661 8.46758L29.3546 9.59661V19.1933C29.3546 21.903 29.7309 23.7094 29.9191 24.274L28.7901 25.403L25.9675 23.1449H18.0643C17.6127 23.1449 13.7364 22.3922 11.8547 22.0159L11.2901 15.2417L4.51599 15.8063L1.12891 17.4998V3.38696L2.25793 1.12891Z" fill="url(#paint0_linear)"/>
<path d="M5.6869 25.8417C7.66797 25.8417 9.2742 24.2358 9.2742 22.2544C9.2742 20.2733 7.66797 18.6675 5.6869 18.6675C3.70584 18.6675 2.09961 20.2733 2.09961 22.2544C2.09999 24.2358 3.70584 25.8417 5.6869 25.8417ZM5.6869 19.7882C7.04701 19.7882 8.15345 20.8947 8.15345 22.2544C8.15345 23.6145 7.04701 24.7209 5.6869 24.7209C4.3268 24.7209 3.22036 23.6145 3.22036 22.2544C3.22036 20.8947 4.3268 19.7882 5.6869 19.7882Z" fill="url(#paint1_linear)"/>
<path fill-rule="evenodd" clip-rule="evenodd" d="M1.53418 22.2546V22.2545C1.53418 19.9615 3.39323 18.103 5.68599 18.103C7.97875 18.103 9.8378 19.9615 9.8378 22.2545C9.8378 24.5477 7.97879 26.4063 5.68599 26.4063C3.39309 26.4063 1.53462 24.5476 1.53418 22.2546ZM2.09869 22.2545C2.09869 20.2734 3.70492 18.6675 5.68599 18.6675C7.66705 18.6675 9.27328 20.2734 9.27328 22.2545C9.27328 24.2359 7.66705 25.8418 5.68599 25.8418C3.70492 25.8418 2.09907 24.2359 2.09869 22.2545ZM7.58802 22.2545C7.58802 21.2066 6.73437 20.3528 5.68599 20.3528C4.6376 20.3528 3.78395 21.2066 3.78395 22.2545C3.78395 23.3028 4.63766 24.1565 5.68599 24.1565C6.73432 24.1565 7.58802 23.3028 7.58802 22.2545ZM8.15254 22.2545C8.15254 20.8947 7.04609 19.7883 5.68599 19.7883C4.32589 19.7883 3.21944 20.8947 3.21944 22.2545C3.21944 23.6146 4.32589 24.721 5.68599 24.721C7.04609 24.721 8.15254 23.6146 8.15254 22.2545Z" fill="url(#paint2_linear)"/>
<path d="M10.7754 32.9681L9.97866 29.2201C9.79877 28.4543 9.11533 27.9131 8.32878 27.9131H3.04229C2.25574 27.9131 1.57268 28.4543 1.39241 29.2201L0.595693 32.9681C0.419565 33.7174 0.987842 34.4355 1.75784 34.4355H9.61323C10.3832 34.4355 10.9519 33.7174 10.7754 32.9681ZM9.67081 33.2873C9.64898 33.3151 9.62414 33.3151 9.61361 33.3151H1.75784C1.7473 33.3151 1.72246 33.3151 1.70063 33.2873C1.67843 33.2594 1.68408 33.2353 1.68671 33.2248L1.68934 33.2131L1.69198 33.2011L2.48531 29.4681C2.54966 29.2122 2.77735 29.0342 3.04229 29.0342H8.32915C8.5941 29.0342 8.82178 29.2122 8.88614 29.4681L9.67947 33.2011L9.6821 33.2131L9.68474 33.2248C9.687 33.2349 9.69264 33.2594 9.67081 33.2873Z" fill="url(#paint3_linear)"/>
<path fill-rule="evenodd" clip-rule="evenodd" d="M9.97994 29.2202L10.7767 32.9682C10.9532 33.7175 10.3845 34.4355 9.61451 34.4355H1.75912C0.989123 34.4355 0.420846 33.7175 0.596974 32.9682L1.39369 29.2202C1.57396 28.4543 2.25702 27.9131 3.04358 27.9131H8.33006C9.11661 27.9131 9.80005 28.4543 9.97994 29.2202ZM9.68338 33.2132L9.68075 33.2011L8.88742 29.4682C8.82306 29.2123 8.59538 29.0343 8.33043 29.0343H3.04358C2.77863 29.0343 2.55094 29.2123 2.48659 29.4682L1.69326 33.2011L1.69062 33.2132L1.68799 33.2248C1.68536 33.2354 1.67971 33.2595 1.70192 33.2873C1.72374 33.3152 1.74858 33.3152 1.75912 33.3152H9.61489C9.62543 33.3152 9.65026 33.3152 9.67209 33.2873C9.69376 33.2597 9.68836 33.2354 9.68607 33.2251L9.68338 33.2132ZM9.00789 32.7507L8.33892 29.6029C8.33871 29.6024 8.33904 29.6031 8.33892 29.6029C8.33853 29.6023 8.33755 29.6008 8.33699 29.6004C8.33644 29.6 8.33582 29.5996 8.3351 29.5994C8.33453 29.5992 8.33316 29.5988 8.33043 29.5988H3.04358C3.04085 29.5988 3.03947 29.5992 3.03891 29.5994C3.03818 29.5996 3.03756 29.6 3.03701 29.6004C3.03646 29.6008 3.03599 29.6014 3.03561 29.6019C3.03548 29.6021 3.03582 29.6015 3.03561 29.6019L2.36612 32.7507H9.00789ZM10.5321 29.1028L11.3277 32.8453C11.5828 33.9467 10.7462 35 9.61451 35H1.75912C0.627059 35 -0.208654 33.9464 0.0459382 32.8454L0.844064 29.0908C1.08431 28.0701 1.99491 27.3486 3.04358 27.3486H8.33006C9.37852 27.3486 10.2897 28.07 10.5295 29.0911L10.5321 29.1028Z" fill="url(#paint4_linear)"/>
<path d="M0.808594 3.36896V17.2206C0.808594 17.5345 0.979453 17.8235 1.25418 17.9752C1.38402 18.0467 1.52741 18.0824 1.67042 18.0824C1.83036 18.0824 1.98993 18.038 2.12993 17.9496L5.39244 15.8963H11.1121V20.8711C11.1121 22.4175 12.3702 23.6756 13.9166 23.6756L25.5388 23.6779L28.7934 25.729C28.9334 25.817 29.0926 25.8614 29.2525 25.8614C29.3959 25.8614 29.5393 25.8257 29.6692 25.7542C29.9439 25.6025 30.1144 25.3135 30.1144 24.9996V11.1487C30.1144 9.60231 28.8563 8.3442 27.3099 8.3442H19.8109V3.36896C19.8109 1.82257 18.5528 0.564453 17.0064 0.564453H3.6131C2.06671 0.564453 0.808594 1.82257 0.808594 3.36896ZM19.8109 13.0918V9.46457H27.3099C28.2383 9.46457 28.9936 10.2199 28.9936 11.1487V24.5314L26.1357 22.7303C25.9539 22.6159 25.7447 22.5556 25.5301 22.5556H13.9162C12.9878 22.5556 12.2325 21.8003 12.2325 20.8719V15.8966H17.006C18.5528 15.8966 19.8109 14.6385 19.8109 13.0918ZM12.2328 14.7759V11.1487C12.2328 10.2203 12.9882 9.46457 13.9166 9.46457H18.6901V13.0918C18.6901 14.0202 17.9348 14.7759 17.0064 14.7759H12.2328ZM18.6901 3.36896V8.34382H13.9166C12.3702 8.34382 11.1121 9.60194 11.1121 11.1483V14.7755H5.39244C5.17755 14.7755 4.96793 14.8361 4.78653 14.9505L1.92896 16.7513V3.36858C1.92896 2.44014 2.68428 1.68482 3.61272 1.68482H17.006C17.9348 1.6852 18.6901 2.44052 18.6901 3.36896Z" fill="url(#paint5_linear)"/>
<path fill-rule="evenodd" clip-rule="evenodd" d="M0.982391 18.4694C0.527984 18.2186 0.245117 17.7404 0.245117 17.2207V3.36902C0.245117 1.51085 1.75597 0 3.61413 0H17.0074C18.8656 0 20.3764 1.51085 20.3764 3.36902V7.77975H27.3109C29.1691 7.77975 30.6799 9.2906 30.6799 11.1488V24.9997C30.6799 25.5189 30.3978 25.9974 29.943 26.2484C29.7286 26.3665 29.4909 26.426 29.2536 26.426C28.9889 26.426 28.7253 26.3524 28.4939 26.2069L25.3767 24.2424L13.9176 24.2402C12.0595 24.2401 10.5486 22.7293 10.5486 20.8712V16.4608H5.55634L2.43246 18.4269M5.39348 15.8963L2.13097 17.9496C1.99097 18.0381 1.8314 18.0825 1.67145 18.0825C1.52844 18.0825 1.38506 18.0467 1.25522 17.9752C0.98049 17.8236 0.809631 17.5345 0.809631 17.2207V3.36902C0.809631 1.82263 2.06774 0.564514 3.61413 0.564514H17.0074C18.5538 0.564514 19.8119 1.82263 19.8119 3.36902V8.34426H27.3109C28.8573 8.34426 30.1154 9.60237 30.1154 11.1488V24.9997C30.1154 25.3135 29.9449 25.6026 29.6702 25.7542C29.5404 25.8257 29.397 25.8615 29.2536 25.8615C29.0936 25.8615 28.9344 25.8171 28.7944 25.729L25.5398 23.678L13.9176 23.6757C12.3712 23.6757 11.1131 22.4176 11.1131 20.8712V15.8963H5.39348ZM26.1367 22.7303L28.9947 24.5315V11.1488C28.9947 10.22 28.2393 9.46463 27.3109 9.46463H19.8119V13.0918C19.8119 14.6386 18.5538 15.8967 17.007 15.8967H12.2335V20.8719C12.2335 21.8004 12.9888 22.5557 13.9173 22.5557H25.5312C25.7457 22.5557 25.9549 22.6159 26.1367 22.7303ZM12.798 16.4612V20.8719C12.798 21.4886 13.3006 21.9912 13.9173 21.9912H25.5312C25.8519 21.9912 26.1654 22.0814 26.4374 22.2526L28.4301 23.5084V11.1488C28.4301 10.5316 27.9275 10.0291 27.3109 10.0291H20.3764V13.0918C20.3764 14.9504 18.8656 16.4612 17.007 16.4612H12.798ZM0.982391 18.4694C1.19667 18.5875 1.43439 18.647 1.67145 18.647L0.982391 18.4694ZM1.67145 18.647C1.93558 18.647 2.20055 18.5732 2.43246 18.4269L1.67145 18.647ZM12.7984 11.1488V14.2114H17.0074C17.6239 14.2114 18.1266 13.7086 18.1266 13.0918V10.0291H13.9176C13.3011 10.0291 12.7984 10.5319 12.7984 11.1488ZM18.1266 7.77937V3.36902C18.1266 2.75255 17.6243 2.24977 17.007 2.2494H3.61376C2.99709 2.2494 2.49452 2.75198 2.49452 3.36864V15.7284L4.48642 14.4731C4.75801 14.3019 5.07217 14.2111 5.39348 14.2111H10.5486V11.1484C10.5486 9.29023 12.0595 7.77937 13.9176 7.77937H18.1266ZM1.93 16.7514V3.36864C1.93 2.4402 2.68532 1.68488 3.61376 1.68488H17.007C17.9358 1.68526 18.6912 2.44058 18.6912 3.36902V8.34389H13.9176C12.3712 8.34389 11.1131 9.602 11.1131 11.1484V14.7756H5.39348C5.17859 14.7756 4.96897 14.8362 4.78757 14.9506L1.93 16.7514ZM12.2339 14.776H17.0074C17.9358 14.776 18.6912 14.0203 18.6912 13.0918V9.46463H13.9176C12.9892 9.46463 12.2339 10.2203 12.2339 11.1488V14.776Z" fill="url(#paint6_linear)"/>
<defs>
<linearGradient id="paint0_linear" x1="18.9144" y1="-10.3521" x2="18.9144" y2="34.2597" gradientUnits="userSpaceOnUse">
<stop stop-color="#C7DAFD"/>
<stop offset="1" stop-color="#E9F1FF"/>
</linearGradient>
<linearGradient id="paint1_linear" x1="2.09961" y1="18.6675" x2="7.47948" y2="26.6283" gradientUnits="userSpaceOnUse">
<stop stop-color="#2569E6"/>
<stop offset="1" stop-color="#3649EF"/>
</linearGradient>
<linearGradient id="paint2_linear" x1="1.53418" y1="18.103" x2="7.76072" y2="27.3166" gradientUnits="userSpaceOnUse">
<stop stop-color="#2569E6"/>
<stop offset="1" stop-color="#3649EF"/>
</linearGradient>
<linearGradient id="paint3_linear" x1="0.563477" y1="27.9131" x2="4.39128" y2="36.8089" gradientUnits="userSpaceOnUse">
<stop stop-color="#2569E6"/>
<stop offset="1" stop-color="#3649EF"/>
</linearGradient>
<linearGradient id="paint4_linear" x1="0" y1="27.3486" x2="4.65982" y2="37.5979" gradientUnits="userSpaceOnUse">
<stop stop-color="#2569E6"/>
<stop offset="1" stop-color="#3649EF"/>
</linearGradient>
<linearGradient id="paint5_linear" x1="0.808594" y1="0.564453" x2="18.6062" y2="31.0721" gradientUnits="userSpaceOnUse">
<stop stop-color="#2569E6"/>
<stop offset="1" stop-color="#3649EF"/>
</linearGradient>
<linearGradient id="paint6_linear" x1="0.245117" y1="0" x2="18.8905" y2="31.7741" gradientUnits="userSpaceOnUse">
<stop stop-color="#2569E6"/>
<stop offset="1" stop-color="#3649EF"/>
</linearGradient>
</defs>
</svg>
