<svg width="37" height="35" viewBox="0 0 37 35" fill="none" xmlns="http://www.w3.org/2000/svg">
<path d="M1.16699 0.583496H29.167V16.9168C21.712 18.3596 19.4744 20.6021 18.667 26.8335H1.16699V0.583496Z" fill="url(#paint0_linear)"/>
<path d="M29.7142 4.22924V1.13283C29.7142 0.832387 29.5948 0.544246 29.3824 0.331799C29.17 0.119352 28.8818 0 28.5814 0H1.13283C0.832387 0 0.544246 0.119352 0.331799 0.331799C0.119352 0.544246 0 0.832387 0 1.13283V26.4516C0 26.7521 0.119352 27.0402 0.331799 27.2527C0.544246 27.4651 0.832387 27.5845 1.13283 27.5845H17.6873C18.0209 29.1857 18.7702 30.6708 19.8598 31.8905C20.9494 33.1103 22.341 34.0216 23.8946 34.533C25.4482 35.0443 27.109 35.1377 28.71 34.8036C30.3111 34.4695 31.796 33.7197 33.0154 32.6297C34.2348 31.5397 35.1458 30.1479 35.6567 28.5941C36.1675 27.0404 36.2603 25.3796 35.9258 23.7786C35.5912 22.1776 34.841 20.693 33.7506 19.4739C32.6602 18.2548 31.2681 17.3443 29.7142 16.8339V4.22924ZM2.26567 2.26567H27.4485V4.22924H2.26567V2.26567ZM33.8641 25.6775C33.8649 27.0721 33.4521 28.4355 32.6778 29.5953C31.9036 30.7552 30.8028 31.6594 29.5147 32.1936C28.2265 32.7278 26.8089 32.8679 25.4411 32.5963C24.0733 32.3247 22.8167 31.6536 21.8304 30.6678C20.844 29.6819 20.1722 28.4258 19.8999 27.0581C19.6276 25.6904 19.767 24.2727 20.3004 22.9843C20.8339 21.6958 21.7375 20.5946 22.897 19.8197C24.0564 19.0449 25.4196 18.6313 26.8141 18.6313C28.6833 18.6333 30.4753 19.3767 31.797 20.6984C33.1187 22.0201 33.8621 23.8122 33.8641 25.6813V25.6775ZM27.4448 16.3883C27.2333 16.3883 27.0218 16.3657 26.8104 16.3657C25.404 16.3642 24.0158 16.6832 22.7511 17.2984H14.4436V19.564H19.7981C18.3982 21.1632 17.5903 23.1949 17.5098 25.3188H2.26567V6.49491H27.4485L27.4448 16.3883Z" fill="url(#paint1_linear)"/>
<path d="M26.0056 10.0293H14.4658V12.295H26.0056V10.0293Z" fill="url(#paint2_linear)"/>
<path d="M12.5447 9.433L10.9285 7.84326L7.23548 11.6118L5.34365 9.7502L3.75391 11.3664L7.26569 14.8177L12.5447 9.433Z" fill="url(#paint3_linear)"/>
<path d="M7.23548 18.8848L5.34365 17.0231L3.75391 18.6393L7.26569 22.0907L12.5447 16.7022L10.9285 15.1162L7.23548 18.8848Z" fill="url(#paint4_linear)"/>
<path d="M23.8466 24.5749L22.2568 26.1911L25.7686 29.6424L31.0476 24.2539L29.4314 22.668L25.7384 26.4365L23.8466 24.5749Z" fill="url(#paint5_linear)"/>
<defs>
<linearGradient id="paint0_linear" x1="19.8909" y1="-11.6811" x2="19.8909" y2="35.9757" gradientUnits="userSpaceOnUse">
<stop stop-color="#C7DAFD"/>
<stop offset="1" stop-color="#E9F1FF"/>
</linearGradient>
<linearGradient id="paint1_linear" x1="18.0614" y1="0" x2="18.0614" y2="35" gradientUnits="userSpaceOnUse">
<stop stop-color="#2863E8"/>
<stop offset="1" stop-color="#3251EC"/>
</linearGradient>
<linearGradient id="paint2_linear" x1="20.2357" y1="10.0293" x2="20.2357" y2="12.295" gradientUnits="userSpaceOnUse">
<stop stop-color="#2863E8"/>
<stop offset="1" stop-color="#3251EC"/>
</linearGradient>
<linearGradient id="paint3_linear" x1="8.1493" y1="7.84326" x2="8.1493" y2="14.8177" gradientUnits="userSpaceOnUse">
<stop stop-color="#2863E8"/>
<stop offset="1" stop-color="#3251EC"/>
</linearGradient>
<linearGradient id="paint4_linear" x1="8.1493" y1="15.1162" x2="8.1493" y2="22.0907" gradientUnits="userSpaceOnUse">
<stop stop-color="#2863E8"/>
<stop offset="1" stop-color="#3251EC"/>
</linearGradient>
<linearGradient id="paint5_linear" x1="26.6522" y1="22.668" x2="26.6522" y2="29.6424" gradientUnits="userSpaceOnUse">
<stop stop-color="#2863E8"/>
<stop offset="1" stop-color="#3251EC"/>
</linearGradient>
</defs>
</svg>
