<svg width="35" height="35" viewBox="0 0 35 35" fill="none" xmlns="http://www.w3.org/2000/svg">
<path d="M17.5 0C7.84737 0 0 7.84737 0 17.5C0 27.1526 7.84737 35 17.5 35C27.1526 35 35 27.1526 35 17.5C35 7.84737 27.1526 0 17.5 0ZM25.0158 8.62105L27.8158 5.82105C28.2947 6.22632 28.7368 6.70526 29.1789 7.18421L26.3789 9.98421C26.1947 10.1684 25.9368 10.2789 25.7158 10.2789C25.4579 10.2789 25.2368 10.2053 25.0526 9.98421C24.6474 9.61579 24.6474 9.02632 25.0158 8.62105ZM1.95263 18.4579C1.91579 18.1263 1.91579 17.8316 1.91579 17.5C1.91579 17.1684 1.95263 16.8737 1.95263 16.5421H5.93158C6.44737 16.5421 6.88947 16.9474 6.88947 17.5C6.88947 18.0158 6.44737 18.4579 5.93158 18.4579H1.95263ZM9.98421 26.3421L7.18421 29.1789C6.70526 28.7737 6.26316 28.2947 5.82105 27.8158L8.62105 25.0158C8.98947 24.6474 9.61579 24.6474 9.98421 25.0158C10.3526 25.3842 10.3526 25.9737 9.98421 26.3421ZM9.98421 9.98421C9.8 10.1684 9.5421 10.2789 9.32105 10.2789C9.06316 10.2789 8.8421 10.2053 8.6579 9.98421L5.85789 7.18421C6.26316 6.70526 6.74211 6.26316 7.22105 5.82105L10.0211 8.62105C10.3526 9.02632 10.3526 9.61579 9.98421 9.98421ZM18.4579 33.0474C18.1263 33.0842 17.8316 33.0842 17.5 33.0842C17.1684 33.0842 16.8737 33.0474 16.5421 33.0474V29.0684C16.5421 28.5526 16.9842 28.1105 17.5 28.1105C18.0526 28.1105 18.4579 28.5526 18.4579 29.0684V33.0474ZM23.9842 18.4579H19.7842C19.4158 19.3421 18.5316 19.9684 17.5 19.9684C16.1368 19.9684 15.0316 18.8632 15.0316 17.5C15.0316 16.4684 15.6579 15.5842 16.5421 15.2158V5.12105C16.5421 4.56842 16.9842 4.16316 17.5 4.16316C18.0526 4.16316 18.4579 4.56842 18.4579 5.12105V15.2526C19.0474 15.5105 19.5263 15.9895 19.7842 16.5789H23.9842C24.5 16.5789 24.9421 16.9842 24.9421 17.5368C24.9421 18.0158 24.5 18.4579 23.9842 18.4579ZM27.8158 29.1421L25.0158 26.3421C24.6474 25.9737 24.6474 25.3474 25.0158 24.9789C25.3842 24.6105 25.9737 24.6105 26.3789 24.9789L29.1789 27.7789C28.7368 28.2947 28.2947 28.7368 27.8158 29.1421ZM29.0684 18.4579C28.5158 18.4579 28.1105 18.0158 28.1105 17.5C28.1105 16.9474 28.5158 16.5421 29.0684 16.5421H33.0474C33.0842 16.8737 33.0842 17.1684 33.0842 17.5C33.0842 17.8316 33.0474 18.1263 33.0474 18.4579H29.0684Z" fill="url(#paint0_linear)"/>
<defs>
<linearGradient id="paint0_linear" x1="7.5" y1="4.0446e-07" x2="19.375" y2="31.875" gradientUnits="userSpaceOnUse">
<stop stop-color="#7561F4"/>
<stop offset="1" stop-color="#3E16DC"/>
</linearGradient>
</defs>
</svg>
