<svg width="35" height="35" viewBox="0 0 35 35" fill="none" xmlns="http://www.w3.org/2000/svg">
<path d="M34.8833 30.3333C34.3 33.0167 31.9667 35 29.1667 35H5.83333C3.03333 35 0.7 33.0167 0.116667 30.3333C1.63333 31.85 3.73333 32.6667 5.83333 32.6667H29.1667C31.2667 32.6667 33.3667 31.85 34.8833 30.3333ZM7 26.8333V30.3333H28V26.8333C28 24.0333 25.9 21.5833 23.1 21.1167C19.95 24.0333 15.05 24.0333 11.9 21.1167C9.1 21.5833 7 24.0333 7 26.8333ZM17.5 21C20.7667 21 23.3333 18.4333 23.3333 15.1667V14C23.3333 10.7333 20.7667 8.16667 17.5 8.16667C14.2333 8.16667 11.6667 10.7333 11.6667 14V15.1667C11.6667 18.4333 14.2333 21 17.5 21ZM29.1667 0H5.83333C2.56667 0 0 2.56667 0 5.83333V24.5C0 27.3 1.98333 29.6333 4.66667 30.2167V26.8333C4.66667 23.3333 7 20.1833 10.3833 19.1333C9.68333 17.85 9.33333 16.5667 9.33333 15.1667V14C9.33333 9.45 12.95 5.83333 17.5 5.83333C22.05 5.83333 25.6667 9.45 25.6667 14V15.1667C25.6667 16.5667 25.3167 17.85 24.6167 19.1333C28 20.1833 30.3333 23.3333 30.3333 26.8333V30.2167C33.0167 29.6333 35 27.3 35 24.5V5.83333C35 2.56667 32.4333 0 29.1667 0Z" fill="url(#paint0_linear)"/>
<defs>
<linearGradient id="paint0_linear" x1="7.5" y1="4.0446e-07" x2="19.375" y2="31.875" gradientUnits="userSpaceOnUse">
<stop stop-color="#359EEB"/>
<stop offset="1" stop-color="#1F3DDA"/>
</linearGradient>
</defs>
</svg>
