<svg width="165" height="80" viewBox="0 0 165 80" fill="none" xmlns="http://www.w3.org/2000/svg">
<path d="M30.5528 64.769C30.5528 65.0484 30.3165 65.2758 30.0343 65.2758H20.0437C20.2931 67.7188 22.1508 69.9474 24.7633 69.9474C26.5487 69.9474 27.8747 69.2717 28.8724 67.8618C29.0168 67.6669 29.2334 67.5434 29.5091 67.6604C29.6601 67.7253 29.7651 67.8618 29.7914 68.0177C29.8176 68.1802 29.7717 68.2711 29.7257 68.3621C28.7214 70.0969 26.7194 70.948 24.7567 70.948C21.3959 70.948 19 67.9722 19 64.7885C19 61.6048 21.3959 58.6291 24.7567 58.6291C28.1175 58.6226 30.5463 61.5918 30.5528 64.769ZM29.4829 64.2882C29.2663 61.8452 27.3758 59.6167 24.7633 59.6167C22.1508 59.6167 20.2931 61.8452 20.0437 64.2882H29.4829ZM42.6767 58.8695C42.9655 58.8695 43.1756 59.1164 43.1756 59.3633C43.1756 59.6491 42.959 59.8571 42.6767 59.8571H39.9986V70.2593C39.9986 70.5062 39.7819 70.7531 39.4997 70.7531C39.2109 70.7531 39.0008 70.5062 39.0008 70.2593V59.8571H36.4277C36.1389 59.8571 35.9288 59.6426 35.9288 59.3633C35.9288 59.1164 36.1454 58.8695 36.4277 58.8695H39.0008V55.062C39.0008 54.8216 39.1649 54.6007 39.4012 54.5617C39.736 54.5097 39.9986 54.7372 39.9986 55.049V58.8695H42.6767ZM59.0148 63.8984V70.2008C59.0148 70.4867 58.7653 70.6946 58.5159 70.6946C58.2271 70.6946 58.017 70.4802 58.017 70.2008V63.8984C58.017 61.7738 56.8027 59.6491 54.4068 59.6491C51.3348 59.6491 50.0088 62.3066 50.1861 65.0289C50.1861 65.1004 50.2189 65.4188 50.2189 65.4513V70.1813C50.2189 70.4217 50.0548 70.6426 49.8185 70.6816C49.4837 70.7336 49.2211 70.5062 49.2211 70.1943V49.4938C49.2211 49.2469 49.4377 49 49.72 49C50.0088 49 50.2189 49.2469 50.2189 49.4938V61.2085C51.0788 59.6881 52.6148 58.6615 54.4002 58.6615C57.3344 58.6615 59.0148 61.2085 59.0148 63.8984ZM76.9282 64.769C76.9282 65.0484 76.6919 65.2758 76.4096 65.2758H66.4125C66.6619 67.7188 68.5196 69.9474 71.1321 69.9474C72.9175 69.9474 74.2435 69.2717 75.2412 67.8618C75.3856 67.6669 75.6023 67.5434 75.8779 67.6604C76.0289 67.7253 76.1339 67.8618 76.1602 68.0177C76.1865 68.1802 76.1405 68.2711 76.0946 68.3621C75.0903 70.0969 73.0882 70.948 71.1255 70.948C67.7647 70.948 65.3688 67.9722 65.3688 64.7885C65.3688 61.6048 67.7647 58.6291 71.1255 58.6291C74.4929 58.6226 76.9216 61.5918 76.9282 64.769ZM75.8517 64.2882C75.6351 61.8452 73.7446 59.6167 71.1321 59.6167C68.5196 59.6167 66.6619 61.8452 66.4125 64.2882H75.8517ZM89.1899 59.3308C89.1899 59.6491 89.0127 59.8246 88.7239 59.8636C85.7897 60.2859 84.4704 62.6574 84.4704 65.4188V70.1488C84.4704 70.3892 84.3063 70.6102 84.0699 70.6491C83.7352 70.7011 83.4726 70.4737 83.4726 70.1618V59.3828C83.4726 59.1423 83.6367 58.9214 83.873 58.8825C84.2078 58.8305 84.4704 59.0579 84.4704 59.3698V61.5659C85.2909 60.1884 86.9385 58.876 88.6517 58.876C88.9011 58.8695 89.1899 59.0514 89.1899 59.3308ZM105.6 64.769C105.6 65.0484 105.364 65.2758 105.082 65.2758H95.0911C95.3405 67.7188 97.1982 69.9474 99.8107 69.9474C101.596 69.9474 102.922 69.2717 103.92 67.8618C104.064 67.6669 104.281 67.5434 104.557 67.6604C104.707 67.7253 104.813 67.8618 104.839 68.0177C104.865 68.1802 104.819 68.2711 104.773 68.3621C103.769 70.0969 101.767 70.948 99.8041 70.948C96.4433 70.948 94.0474 67.9722 94.0474 64.7885C94.0474 61.6048 96.4433 58.6291 99.8041 58.6291C103.165 58.6226 105.594 61.5918 105.6 64.769ZM104.53 64.2882C104.314 61.8452 102.423 59.6167 99.8107 59.6167C97.1982 59.6167 95.3405 61.8452 95.0911 64.2882H104.53ZM121.728 59.4542V70.2593C121.728 70.5452 121.479 70.7531 121.229 70.7531C120.941 70.7531 120.73 70.5387 120.73 70.2593V68.2061C119.91 69.837 118.44 71 116.582 71C113.615 71 111.967 68.453 111.967 65.7631V59.4282C111.967 59.1813 112.184 58.9344 112.466 58.9344C112.755 58.9344 112.965 59.1813 112.965 59.4282V65.7631C112.965 67.8878 114.179 70.0124 116.575 70.0124C119.936 70.0124 120.724 66.9002 120.724 63.4631V59.4282C120.724 59.1423 121.013 58.85 121.367 58.9539C121.584 59.0254 121.728 59.2333 121.728 59.4542ZM147 63.8594V70.1943C147 70.4802 146.751 70.6881 146.501 70.6881C146.212 70.6881 146.002 70.4737 146.002 70.1943V63.8594C146.002 61.7348 144.788 59.6491 142.392 59.6491C139.386 59.6491 138.243 62.8328 138.243 65.3083V70.1943C138.243 70.4802 137.994 70.6881 137.745 70.6881C137.456 70.6881 137.246 70.4737 137.246 70.1943V63.8594C137.246 61.7348 136.031 59.6491 133.635 59.6491C130.596 59.6491 129.343 62.0207 129.454 65.1719C129.454 65.2434 129.487 65.3863 129.454 65.4188V70.1813C129.454 70.4217 129.29 70.6426 129.047 70.6816C128.712 70.7336 128.45 70.5062 128.45 70.1943V59.3828C128.45 59.1423 128.614 58.9214 128.85 58.8825C129.185 58.8305 129.448 59.0579 129.448 59.3698V61.176C130.307 59.6556 131.843 58.6615 133.629 58.6615C135.664 58.6615 137.239 59.935 137.882 61.8128C138.703 59.974 140.311 58.6615 142.385 58.6615C145.32 58.6615 147 61.1695 147 63.8594Z" fill="#344154"/>
<g opacity="0.6">
<path opacity="0.6" d="M83.003 19.6328L68.3945 26.2912L83.003 34.9407L97.6056 26.2912L83.003 19.6328Z" fill="#010101"/>
</g>
<path opacity="0.8" d="M68.3945 26.2913L83.0031 34.9408V2L68.3945 26.2913Z" fill="#344154"/>
<path d="M83.002 2V34.9408L97.6051 26.2913L83.002 2Z" fill="#344154"/>
<g opacity="0.8">
<path d="M68.3945 29.0652L83.0031 49.6907V37.7148L68.3945 29.0652Z" fill="#344154"/>
</g>
<path d="M83.002 37.7148V49.6907L97.6164 29.0652L83.002 37.7148Z" fill="#344154"/>
</svg>
