<svg width="165" height="80" viewBox="0 0 165 80" fill="none" xmlns="http://www.w3.org/2000/svg">
<g clip-path="url(#clip0)">
<path d="M100.534 25.3682C100.339 25.2852 100.265 25.402 100.191 25.5679C99.3792 27.332 98.5642 29.093 97.7493 30.857C96.1996 34.2038 94.6499 37.5506 93.1034 40.8974C93.0354 41.048 92.9367 41.1187 92.7669 41.134C89.4021 41.4352 86.0403 41.7395 82.6786 42.0468C80.4776 42.2496 78.2797 42.4555 76.0786 42.6553C75.8564 42.6768 75.7422 42.7321 75.6773 42.978C75.5261 43.5373 74.8191 43.8785 74.3036 43.6848C73.6307 43.4298 73.3189 42.7782 73.6183 42.1636C73.7325 41.93 73.6831 41.7917 73.5535 41.6104C71.0962 38.1591 68.6452 34.7017 66.1879 31.2473C65.3822 30.1133 64.5704 28.9793 63.7554 27.8514C63.635 27.6824 63.6288 27.5441 63.7122 27.3627C66.0768 22.2611 68.4353 17.1595 70.7999 12.0579C70.8801 11.8889 70.8956 11.7751 70.7412 11.6246C70.4017 11.2926 70.3584 10.8685 70.5221 10.4475C70.6826 10.0387 71.0129 9.80518 71.4543 9.77137C71.9205 9.73449 72.3033 9.90967 72.5193 10.3276C72.6274 10.5335 72.7416 10.5766 72.9546 10.5551C75.1834 10.343 77.4122 10.1402 79.641 9.93733C82.1754 9.70376 84.7098 9.47327 87.2473 9.2397C88.0654 9.16594 88.8834 9.09218 89.7015 9.00613C89.9454 8.98155 90.0905 9.05838 90.2355 9.26429C93.4738 13.8434 96.7213 18.4165 99.9688 22.9926C100.065 23.1278 100.142 23.2261 100.352 23.1708C100.805 23.0509 101.197 23.1985 101.485 23.5642C101.772 23.933 101.799 24.3448 101.593 24.7597C101.376 25.1807 101.006 25.3528 100.534 25.3682ZM76.5911 23.5058C76.6003 23.555 76.6096 23.6041 76.6189 23.6502C77.0016 25.5833 77.3875 27.5164 77.761 29.4526C77.8043 29.68 77.9154 29.7814 78.1253 29.8521C79.8695 30.4391 81.6136 31.0322 83.3547 31.6284C83.4997 31.6776 83.6047 31.6684 83.7313 31.567C84.2746 31.1244 84.8179 30.6819 85.3458 30.2178C86.2811 29.3972 87.235 28.592 88.1858 27.7899C88.3278 27.6701 88.3864 27.5656 88.337 27.3658C88.1889 26.7327 88.0654 26.0965 87.9543 25.4573C87.7536 24.2925 87.5066 23.1339 87.306 21.9692C87.2844 21.8401 87.2257 21.7663 87.093 21.7171C85.1451 21.0257 83.2003 20.328 81.2555 19.6304C81.1104 19.5782 80.9962 19.5935 80.8758 19.698C79.499 20.8874 78.1191 22.0736 76.7392 23.2599C76.6652 23.3275 76.5787 23.3859 76.5911 23.5058ZM71.4265 20.9919C71.3308 20.9796 71.2845 21.0564 71.2321 21.1056C68.9446 23.1892 66.6602 25.276 64.3728 27.3566C64.2092 27.5041 64.1752 27.584 64.4037 27.71C66.9751 29.1299 69.5435 30.5589 72.1149 31.9849C72.1736 32.0187 72.2415 32.0833 72.3033 32.0402C72.3866 31.9849 72.3218 31.8958 72.3094 31.822C72.1427 30.9615 71.9575 30.1041 71.8155 29.2374C71.763 28.9178 71.6797 28.7488 71.3154 28.7027C70.8122 28.6412 70.4727 28.2079 70.4511 27.7162C70.4264 27.1753 70.7135 26.7235 71.2197 26.5883C71.4482 26.5268 71.479 26.41 71.479 26.2103C71.4729 24.563 71.4759 22.9157 71.4729 21.2685C71.4636 21.1824 71.4975 21.081 71.4265 20.9919ZM92.8687 31.2381C92.7329 31.2473 92.6835 31.3334 92.6218 31.3887C92.0044 31.9296 91.3932 32.4766 90.7727 33.0114C90.6183 33.1466 90.5751 33.2511 90.6677 33.457C90.8807 33.9334 90.7109 34.4835 90.3035 34.7724C89.862 35.0828 89.3033 35.0736 88.9112 34.7078C88.7538 34.5634 88.6519 34.5726 88.4821 34.671C86.9695 35.553 85.4538 36.4258 83.9381 37.3047C83.8702 37.3447 83.7591 37.3662 83.7621 37.4461C83.7621 37.5537 83.8887 37.5506 83.969 37.5783C86.7658 38.5648 89.5657 39.5482 92.3656 40.5317C92.6928 40.6454 92.699 40.6454 92.7051 40.3165C92.7298 39.2624 92.7484 38.2083 92.773 37.1572C92.8039 35.7282 92.844 34.3022 92.8718 32.8762C92.878 32.3353 92.8687 31.7975 92.8687 31.2381ZM91.8408 18.6654C91.9025 18.5886 91.8778 18.5332 91.8655 18.4749C91.1956 15.5553 90.5226 12.6387 89.862 9.71605C89.8095 9.49171 89.7416 9.49785 89.5688 9.59312C89.0532 9.88508 88.5284 10.1648 88.0098 10.4506C86.0774 11.5108 84.1449 12.5711 82.2125 13.6375C82.1415 13.6744 82.0149 13.6898 82.0365 13.8004C82.0519 13.8926 82.1693 13.868 82.2403 13.8865C83.1015 14.1446 83.9659 14.3966 84.8271 14.6579C84.9846 14.707 85.0772 14.6702 85.1667 14.5257C85.4631 14.0494 86.0342 13.8926 86.5404 14.1293C87.0436 14.3628 87.3153 14.9406 87.13 15.4661C87.0529 15.6813 87.1239 15.7581 87.2875 15.8564C88.6519 16.6954 90.0133 17.5406 91.3746 18.3827C91.5259 18.481 91.6864 18.5732 91.8408 18.6654ZM64.6475 28.2909C64.6444 28.4968 64.7525 28.5828 64.8235 28.6812C65.4378 29.5417 66.0583 30.396 66.6695 31.2566C68.1358 33.3187 69.5991 35.3809 71.0623 37.443C72.0069 38.7707 72.9484 40.1014 73.8961 41.4291C73.9455 41.4997 73.9826 41.6411 74.1122 41.5797C74.2141 41.5305 74.1462 41.4198 74.1431 41.3369C74.1431 41.3061 74.1338 41.2785 74.1277 41.2508C73.5905 38.4726 73.0534 35.6944 72.5224 32.9161C72.4854 32.7164 72.3989 32.5873 72.2137 32.4859C70.2288 31.3949 68.247 30.2916 66.2651 29.1944C65.7403 28.8994 65.2155 28.6074 64.6475 28.2909ZM91.7204 40.7929C91.6957 40.6761 91.6062 40.6823 91.5352 40.6577C88.8402 39.705 86.1422 38.7553 83.4504 37.7995C83.2837 37.7411 83.1509 37.7534 83.0027 37.8395C82.3792 38.2052 81.7525 38.5617 81.1259 38.9213C79.3663 39.9324 77.6098 40.9435 75.8502 41.9546C75.7638 42.0038 75.6218 42.0283 75.6711 42.1789C75.7175 42.3172 75.8409 42.2896 75.9459 42.2804C76.162 42.2619 76.3781 42.2373 76.5972 42.2189C81.45 41.7733 86.2996 41.3307 91.1524 40.882C91.3407 40.8697 91.5413 40.8912 91.7204 40.7929ZM64.4994 26.6098C64.6599 26.6098 64.7031 26.536 64.7617 26.4838C66.9319 24.5077 69.099 22.5316 71.2722 20.5585C71.4173 20.4264 71.4667 20.2912 71.4667 20.1006C71.4543 17.5375 71.4512 14.9744 71.4389 12.4113C71.4389 12.273 71.5469 12.0456 71.337 12.0026C71.1703 11.9688 71.1518 12.2023 71.0932 12.3253C69.0774 16.6739 67.0677 21.0226 65.0581 25.3743C64.8791 25.7708 64.7 26.1703 64.4994 26.6098ZM93.128 39.8771C93.2021 39.7295 93.2423 39.6558 93.2793 39.5759C95.1315 35.5776 96.9837 31.5793 98.8359 27.5809C99.1754 26.8464 99.515 26.115 99.8515 25.3805C99.8885 25.3006 99.9966 25.2022 99.8916 25.1162C99.762 25.0086 99.7002 25.1653 99.6292 25.2237C99.4378 25.3774 99.2557 25.5495 99.0705 25.7124C97.2029 27.3627 95.3383 29.0131 93.4707 30.6603C93.3688 30.7525 93.2731 30.8294 93.2701 30.9984C93.2515 32.3076 93.2207 33.6199 93.1898 34.9291C93.1713 35.7066 93.1404 36.4842 93.1311 37.2617C93.1219 38.1099 93.128 38.9551 93.128 39.8771ZM90.4424 10.3399C90.3837 10.4383 90.4331 10.5335 90.4516 10.6227C91.0659 13.321 91.6833 16.0224 92.2976 18.7207C92.3409 18.9143 92.4304 19.0465 92.6063 19.1571C94.8907 20.5616 97.1689 21.9753 99.4502 23.3829C99.5428 23.4412 99.6539 23.5918 99.7558 23.4843C99.8546 23.3798 99.6941 23.2784 99.6323 23.1923C96.641 18.9697 93.6436 14.7501 90.6461 10.5305C90.5967 10.4567 90.572 10.3399 90.4424 10.3399ZM88.834 9.50707C88.7569 9.44868 88.6643 9.48556 88.584 9.49171C86.1885 9.70991 83.7899 9.93426 81.3944 10.1555C79.107 10.3676 76.8164 10.5766 74.529 10.7856C73.9671 10.8378 73.4053 10.8931 72.8435 10.9484C72.7848 10.9546 72.7107 10.9423 72.6922 11.013C72.6675 11.1113 72.7632 11.1113 72.8188 11.1359C72.8558 11.1513 72.8929 11.1666 72.9299 11.1759C75.665 11.9749 78.4 12.7709 81.1351 13.5761C81.3111 13.6283 81.4531 13.616 81.6136 13.5269C83.9782 12.2238 86.3459 10.9269 88.7137 9.62693C88.7631 9.60234 88.834 9.59312 88.834 9.50707ZM78.5575 35.4208C78.5482 35.3686 78.542 35.3286 78.5359 35.2887C78.184 33.5185 77.832 31.7514 77.4832 29.9812C77.4493 29.8029 77.3659 29.7138 77.193 29.6554C75.7885 29.179 74.3839 28.6965 72.9855 28.2017C72.7323 28.1126 72.5533 28.0573 72.4082 28.3493C72.3557 28.4537 72.2322 28.5459 72.1211 28.5982C71.9359 28.6812 71.9205 28.801 71.9544 28.9762C72.1582 29.9904 72.3588 31.0076 72.5502 32.0249C72.5842 32.2093 72.6768 32.3138 72.8373 32.4029C74.0999 33.1036 75.3594 33.8104 76.6219 34.5173C77.1992 34.84 77.7796 35.1658 78.3599 35.4884C78.4494 35.5345 78.5637 35.6237 78.5575 35.4208ZM88.513 33.9057C88.5778 33.6599 88.5192 33.5461 88.3 33.4724C86.9139 33.0022 85.531 32.5197 84.1511 32.031C83.9659 31.9665 83.8424 31.9941 83.6973 32.1201C82.302 33.3187 80.9036 34.5081 79.5052 35.7036C79.2613 35.9126 79.2644 35.931 79.5793 36.0416C80.7554 36.4565 81.9346 36.8622 83.1077 37.2832C83.3176 37.3601 83.4781 37.3355 83.6634 37.2279C85.1235 36.3766 86.5898 35.5345 88.053 34.6863C88.3679 34.5019 88.8063 34.3882 88.513 33.9057ZM71.6735 23.5734C71.6735 24.3632 71.6889 25.15 71.6673 25.9398C71.6581 26.2963 71.655 26.6036 72.0995 26.6805C72.1458 26.6897 72.189 26.7235 72.2261 26.7573C72.3279 26.8464 72.4051 26.8311 72.507 26.745C73.6893 25.7247 74.8716 24.7074 76.057 23.6902C76.1527 23.6072 76.2052 23.5242 76.1774 23.3859C75.8162 21.5696 75.4551 19.7533 75.1001 17.934C75.0568 17.7127 74.9982 17.6666 74.8099 17.8418C73.8313 18.7453 72.8435 19.6427 71.8556 20.537C71.7167 20.663 71.6673 20.7921 71.6673 20.9734C71.6766 21.837 71.6704 22.7067 71.6735 23.5734ZM86.349 16.3297C86.3583 16.3666 86.3645 16.3943 86.3706 16.4219C86.6732 18.0108 86.9788 19.5966 87.2751 21.1855C87.3091 21.3637 87.4079 21.4313 87.556 21.4836C89.2601 22.0859 90.9672 22.6914 92.6712 23.2968C92.7545 23.3275 92.8533 23.4013 92.9212 23.3491C93.0077 23.2784 92.9367 23.1647 92.915 23.0725C92.631 21.8247 92.3378 20.577 92.06 19.3261C92.0106 19.1079 91.9241 18.9604 91.7266 18.8406C90.2911 17.9647 88.8526 17.095 87.4418 16.1822C87.0776 15.9456 86.8028 15.8995 86.4632 16.1638C86.3953 16.2129 86.3459 16.2498 86.349 16.3297ZM75.6835 17.2363C75.7514 17.2671 75.7823 17.2824 75.8162 17.2947C77.5666 17.9186 79.32 18.5363 81.0672 19.1663C81.2339 19.2278 81.3203 19.1602 81.4315 19.0649C82.5829 18.0692 83.7344 17.0734 84.8951 16.09C85.0988 15.9179 85.2439 15.7857 85.0494 15.5184C84.9691 15.4077 84.9599 15.251 84.9784 15.1158C85.0031 14.9529 84.9383 14.8884 84.7901 14.8453C83.8486 14.5749 82.907 14.3075 81.9717 14.0186C81.7402 13.9479 81.5642 13.9756 81.3605 14.0893C79.7583 14.9744 78.1531 15.8441 76.5479 16.7262C76.2669 16.886 75.9675 17.012 75.6835 17.2363ZM93.0169 25.4604C93.0262 25.4604 93.0354 25.4604 93.0478 25.4604C93.0478 25.1162 93.0509 24.772 93.0447 24.4247C93.0447 24.3602 93.0725 24.2802 92.9891 24.2434C92.9181 24.2126 92.8842 24.2803 92.841 24.3141C91.458 25.4942 90.075 26.6774 88.6921 27.8575C88.5964 27.9374 88.5809 28.0173 88.6025 28.1403C88.8896 29.6093 89.1674 31.0814 89.4453 32.5535C89.47 32.6887 89.5163 32.7625 89.6706 32.7655C89.8713 32.7686 90.075 32.8086 90.2294 32.9407C90.3899 33.0759 90.4856 32.996 90.6091 32.8915C91.3252 32.2707 92.0075 31.61 92.7545 31.023C92.8533 30.9462 92.9058 30.8509 92.9058 30.7187C92.9089 30.4821 92.9243 30.2455 92.9305 30.0119C92.9613 28.4937 92.9891 26.9786 93.0169 25.4604ZM72.7478 33.0052C72.8496 33.5431 72.9515 34.0747 73.0565 34.6064C73.4763 36.7854 73.8961 38.9612 74.3221 41.1402C74.3468 41.2723 74.3067 41.5028 74.5043 41.4844C74.7451 41.4629 75.0074 41.6903 75.2328 41.3276C76.2793 39.6404 77.3597 37.9778 78.4402 36.309C78.5698 36.1092 78.5482 36.0201 78.3383 35.9064C77.0819 35.2149 75.8317 34.5081 74.5784 33.8074C74.0505 33.5123 73.5257 33.2173 72.9947 32.9253C72.8959 32.8762 72.7509 32.744 72.7478 33.0052ZM75.3069 16.9659C75.347 16.9474 75.3933 16.929 75.4365 16.9044C77.2486 15.9118 79.0637 14.9222 80.8758 13.9295C80.9314 13.8988 81.024 13.8834 81.0178 13.8004C81.0116 13.7144 80.9159 13.7205 80.8542 13.7021C79.888 13.4163 78.9187 13.1335 77.9493 12.8508C76.2515 12.3529 74.5506 11.855 72.8527 11.3603C72.7478 11.3295 72.6027 11.2404 72.5471 11.4063C72.4885 11.5723 72.2045 11.6399 72.3557 11.9042C73.288 13.5423 74.211 15.1834 75.1402 16.8245C75.1711 16.8891 75.1988 16.972 75.3069 16.9659ZM93.3194 30.4852C93.3935 30.4391 93.4367 30.4176 93.4738 30.3868C95.4958 28.5982 97.5147 26.8065 99.5428 25.024C99.7712 24.8211 99.5335 24.6921 99.5243 24.5292C99.5181 24.3632 99.4008 24.3417 99.2557 24.3294C97.4097 24.2003 95.5637 24.0682 93.7177 23.9238C93.4954 23.9053 93.4213 23.9545 93.4182 24.1819C93.4121 24.981 93.3935 25.7769 93.375 26.576C93.3596 27.3443 93.3349 28.1126 93.3225 28.8809C93.3102 29.4003 93.3194 29.9197 93.3194 30.4852ZM87.1547 21.1824C87.1486 21.1547 87.1455 21.1363 87.1393 21.1179C86.846 19.5689 86.5497 18.02 86.2595 16.4711C86.2286 16.3051 86.1515 16.2406 85.9848 16.2406C85.7718 16.2406 85.5742 16.1668 85.4075 16.0347C85.2902 15.9425 85.2254 15.9579 85.1111 16.0562C83.9535 17.0612 82.7928 18.0569 81.629 19.0557C81.3759 19.2739 81.3759 19.2708 81.6815 19.3815C82.8916 19.8148 84.0986 20.2481 85.3087 20.6815C85.8582 20.8781 86.4077 21.0718 86.9572 21.2685C87.0529 21.3023 87.1578 21.3514 87.1547 21.1824ZM72.6675 27.7377C72.5811 27.9405 72.7478 27.9928 72.9145 28.0511C74.3098 28.5306 75.702 29.0131 77.0973 29.4925C77.3906 29.5939 77.3968 29.5909 77.335 29.2805C76.9893 27.5195 76.6374 25.7616 76.2978 23.9975C76.2484 23.7455 76.1867 23.7271 75.9953 23.893C74.884 24.8611 73.7696 25.823 72.6459 26.7757C72.4854 26.911 72.4545 27.0124 72.5656 27.1906C72.6583 27.3443 72.686 27.5256 72.6675 27.7377ZM77.9 30.1348C77.9771 30.5067 78.0636 30.9216 78.1438 31.3365C78.4093 32.6795 78.6779 34.0225 78.9403 35.3655C78.9804 35.5714 79.036 35.596 79.1965 35.4577C80.5393 34.3052 81.8853 33.1589 83.2281 32.0095C83.4534 31.8159 83.4442 31.7882 83.1478 31.6868C82.3884 31.4317 81.6259 31.1859 80.8665 30.9277C79.9497 30.6173 79.0329 30.2977 78.116 29.9842C78.0111 29.9473 77.8753 29.8582 77.9 30.1348ZM92.8687 23.7824C92.5384 23.6625 92.2606 23.5611 91.9859 23.4628C90.5504 22.9526 89.1181 22.4424 87.6795 21.9354C87.5746 21.8985 87.3832 21.7571 87.4418 22.0614C87.7752 23.8039 88.1117 25.5464 88.4389 27.289C88.479 27.501 88.55 27.4764 88.6766 27.3658C89.044 27.0493 89.4113 26.7358 89.7787 26.4192C90.7943 25.5557 91.8068 24.689 92.8687 23.7824ZM71.6457 16.1638C71.6704 17.2179 71.6087 18.5394 71.6735 19.8609C71.6766 19.9347 71.6334 20.0361 71.7229 20.073C71.8124 20.1098 71.8587 20.0115 71.9143 19.9623C72.8496 19.111 73.7788 18.2536 74.7204 17.4115C74.8747 17.2732 74.8963 17.1749 74.7914 16.9935C73.8714 15.3832 72.9608 13.7666 72.047 12.1501C71.9915 12.0517 71.9606 11.9196 71.7939 11.9565C71.6118 11.9964 71.6426 12.1347 71.6426 12.2607C71.6457 13.4747 71.6457 14.6855 71.6457 16.1638ZM75.452 17.7311C75.4581 17.7772 75.4612 17.808 75.4674 17.8356C75.8101 19.5566 76.1558 21.2746 76.4892 22.9987C76.5509 23.3091 76.659 23.1647 76.7825 23.0571C78.079 21.9415 79.3724 20.8259 80.6752 19.7165C80.8727 19.5505 80.8542 19.486 80.6165 19.4061C79.7676 19.111 78.9217 18.8037 78.0728 18.5025C77.2795 18.2198 76.4892 17.9401 75.6958 17.6635C75.6032 17.6328 75.4674 17.5252 75.452 17.7311ZM82.8515 37.6459C82.8268 37.5537 82.7311 37.5567 82.6663 37.5322C81.5117 37.1234 80.351 36.7208 79.1996 36.3059C78.9958 36.2322 78.9001 36.2906 78.7952 36.4596C78.045 37.6428 77.2887 38.8199 76.5324 40C76.1867 40.5409 75.8409 41.0787 75.4952 41.6196C75.4551 41.6841 75.381 41.7518 75.4427 41.8317C75.5199 41.93 75.6032 41.8562 75.6773 41.8132C75.8656 41.7057 76.0539 41.5981 76.2422 41.4875C78.3846 40.2551 80.527 39.0227 82.6693 37.7903C82.7373 37.7534 82.8237 37.735 82.8515 37.6459ZM89.3527 32.661C89.3496 32.6426 89.3434 32.6242 89.3403 32.6026C89.0656 31.1797 88.7939 29.7568 88.5223 28.3308C88.4852 28.1372 88.442 28.0634 88.2506 28.2263C86.9263 29.3665 85.5927 30.4975 84.2622 31.6346C84.0307 31.8313 84.04 31.862 84.3271 31.9634C85.6637 32.4305 87.0035 32.8885 88.337 33.3648C88.5315 33.4324 88.6365 33.4232 88.7384 33.2296C88.831 33.0544 89.0007 32.9407 89.1891 32.8608C89.2786 32.827 89.3804 32.7963 89.3527 32.661ZM92.4643 19.3108C92.4736 19.4061 92.4705 19.4552 92.4798 19.5013C92.7669 20.7491 93.0632 21.9937 93.3349 23.2476C93.3874 23.4843 93.4892 23.5457 93.7084 23.5611C95.5452 23.6871 97.3788 23.8254 99.2156 23.9545C99.336 23.9637 99.4965 24.059 99.5582 23.8408C99.6138 23.6472 99.444 23.6287 99.3514 23.5703C97.3017 22.298 95.2488 21.0287 93.196 19.7595C92.9675 19.615 92.7329 19.4737 92.4643 19.3108Z" fill="#344154"/>
<path d="M125.103 65.9844C125.103 67.06 125.1 68.1326 125.106 69.2082C125.109 69.4018 125.047 69.5155 124.868 69.5985C122.679 70.6434 120.373 71.0061 117.981 70.668C114.659 70.2009 112.424 67.7546 112.184 64.4047C112.082 62.9695 112.276 61.5896 112.955 60.3019C113.81 58.6761 115.147 57.6159 116.9 57.1057C119.068 56.4788 121.21 56.6048 123.303 57.4561C123.781 57.6497 124.201 57.9539 124.599 58.2858C124.726 58.3903 124.741 58.4672 124.621 58.5962C124.022 59.2385 123.426 59.887 122.843 60.5447C122.698 60.7076 122.611 60.6891 122.469 60.5447C120.926 59.0265 117.589 59.0572 116.132 60.9872C114.777 62.782 115.036 65.7324 116.718 67.1276C117.595 67.856 118.626 68.0957 119.744 68.0465C120.515 68.0127 121.25 67.8252 121.951 67.5087C122.133 67.4257 122.222 67.3274 122.216 67.1092C122.198 66.5683 122.204 66.0243 122.213 65.4834C122.216 65.2867 122.151 65.2253 121.96 65.2283C121.336 65.2376 120.71 65.2253 120.086 65.2345C119.876 65.2376 119.79 65.1976 119.793 64.961C119.802 64.2203 119.793 63.4827 119.778 62.7421C119.774 62.5515 119.833 62.487 120.031 62.4901C121.617 62.4931 123.201 62.487 124.788 62.4716C125.013 62.4685 125.072 62.5392 125.069 62.7574C125.059 63.8331 125.062 64.9056 125.062 65.9813C125.075 65.9844 125.09 65.9844 125.103 65.9844Z" fill="#344154"/>
<path d="M98.6567 64.457C98.6567 62.6223 98.6598 60.7906 98.6567 58.9559C98.6567 58.4427 98.6443 57.9325 98.632 57.4193C98.6289 57.2595 98.6752 57.1888 98.8512 57.1888C100.672 57.1918 102.497 57.0966 104.318 57.2164C105.849 57.3178 107.319 57.6651 108.594 58.5748C110.202 59.7181 110.94 61.3254 111.066 63.2462C111.14 64.3894 111.039 65.5142 110.551 66.5714C109.714 68.3785 108.27 69.4849 106.405 70.0934C105.485 70.3946 104.537 70.5267 103.568 70.5298C102.062 70.5329 100.558 70.5513 99.0518 70.579C98.7956 70.5851 98.6968 70.5144 98.6999 70.2563C98.7092 69.783 98.6937 69.3097 98.6906 68.8364C98.6906 67.3766 98.6906 65.9168 98.6906 64.4601C98.6814 64.457 98.669 64.457 98.6567 64.457ZM101.626 66.5038C101.642 66.5038 101.657 66.5038 101.676 66.5038C101.676 66.8573 101.685 67.2138 101.673 67.5672C101.666 67.7639 101.741 67.8253 101.932 67.8192C102.506 67.8007 103.08 67.813 103.655 67.7823C104.593 67.7362 105.507 67.5795 106.328 67.0847C107.791 66.2027 108.436 64.0237 107.739 62.3058C107.201 60.9812 106.127 60.3419 104.791 60.0408C103.871 59.8348 102.935 59.9332 102.009 59.8994C101.719 59.8871 101.62 59.9547 101.623 60.2682C101.636 62.3457 101.626 64.4232 101.626 66.5038Z" fill="#344154"/>
<path d="M67.8641 67.6102C67.8641 68.5568 67.858 69.5033 67.8672 70.4499C67.8703 70.665 67.8148 70.7419 67.5863 70.7388C66.7652 70.7265 65.941 70.7296 65.1198 70.7388C64.9192 70.7419 64.8451 70.6712 64.8698 70.4837C64.8729 70.4653 64.8698 70.4438 64.8698 70.4253C64.8605 68.0773 64.8543 65.7324 64.8451 63.3845C64.8358 61.4821 64.8235 59.5798 64.8019 57.6774C64.7988 57.4285 64.8698 57.364 65.1167 57.367C66.2373 57.3762 67.3579 57.367 68.4754 57.3578C69.2872 57.3517 70.0991 57.3025 70.911 57.3732C71.6148 57.4346 72.3063 57.5545 72.9577 57.8403C74.069 58.3259 74.7728 59.1495 75.0136 60.3419C75.1957 61.2578 75.171 62.1644 74.8129 63.0433C74.39 64.076 73.6183 64.7183 72.5409 64.9887C72.2785 65.0563 72.2816 65.127 72.4082 65.336C73.4454 67.014 74.4765 68.7012 75.5044 70.3854C75.5538 70.4653 75.665 70.5452 75.6125 70.6435C75.56 70.7388 75.4334 70.6865 75.3377 70.6865C74.3468 70.6896 73.3559 70.6804 72.365 70.6958C72.1643 70.6988 72.0686 70.6404 71.976 70.4714C71.195 68.987 70.38 67.5211 69.6299 66.0213C69.3829 65.5265 69.1051 65.2807 68.5495 65.3882C68.4167 65.4128 68.2716 65.4067 68.1327 65.3882C67.8888 65.3575 67.8117 65.4405 67.8178 65.6925C67.8364 66.3317 67.824 66.974 67.824 67.6164C67.8394 67.6102 67.8518 67.6102 67.8641 67.6102ZM67.8055 61.3838C67.8117 61.3838 67.8178 61.3838 67.824 61.3838C67.824 61.8079 67.824 62.232 67.824 62.653C67.824 62.7637 67.8148 62.8712 67.9845 62.8682C68.9045 62.8497 69.8275 62.9296 70.7412 62.7852C71.8093 62.6162 72.3218 61.6973 71.8927 60.7445C71.621 60.1391 71.0623 59.9609 70.4603 59.8933C69.6422 59.8011 68.818 59.8533 67.9969 59.8625C67.8302 59.8656 67.7993 59.9393 67.8024 60.0807C67.8086 60.514 67.8055 60.9504 67.8055 61.3838Z" fill="#344154"/>
<path d="M150 70.2747C148.827 70.3331 147.709 70.2931 146.592 70.3085C146.403 70.3116 146.369 70.1641 146.308 70.0504C145.684 68.8856 145.064 67.7177 144.44 66.5499C144.202 66.1074 143.955 65.6679 143.733 65.2161C143.644 65.0348 143.533 64.9795 143.341 64.9887C143.045 65.0041 142.745 65.0102 142.449 64.9887C142.199 64.9703 142.156 65.0717 142.159 65.2929C142.18 66.8419 142.18 68.3877 142.208 69.9366C142.214 70.2348 142.146 70.3485 141.822 70.3423C141.02 70.3239 140.217 70.3392 139.414 70.3485C139.26 70.3515 139.192 70.2931 139.211 70.1395C139.214 70.1088 139.211 70.0811 139.211 70.0504C139.201 67.9882 139.195 65.9291 139.183 63.867C139.171 61.6665 139.161 59.4691 139.14 57.2687C139.137 57.0228 139.205 56.9583 139.452 56.9583C141.316 56.9675 143.178 56.9521 145.042 56.9705C145.746 56.9767 146.44 57.1119 147.104 57.367C148.333 57.8434 149.114 58.7039 149.361 60.01C149.506 60.7875 149.503 61.562 149.265 62.3211C148.895 63.5043 148.114 64.2788 146.897 64.5861C146.647 64.6506 146.601 64.7152 146.746 64.9518C147.799 66.6452 148.836 68.3478 149.879 70.0504C149.92 70.1088 149.947 70.1702 150 70.2747ZM142.146 60.9566C142.153 60.9566 142.159 60.9566 142.165 60.9566C142.165 61.3899 142.165 61.8232 142.165 62.2566C142.165 62.361 142.134 62.4871 142.31 62.484C143.267 62.4686 144.233 62.5516 145.181 62.3764C145.851 62.2535 146.252 61.8478 146.339 61.27C146.474 60.3911 146.027 59.7365 145.144 59.5613C144.202 59.3738 143.249 59.4906 142.301 59.4599C142.134 59.4537 142.143 59.5705 142.143 59.6812C142.146 60.1083 142.146 60.5325 142.146 60.9566Z" fill="#344154"/>
<path d="M15.0062 64.2882C15.0062 62.1676 15.0093 60.0501 15 57.9296C15 57.6929 15.0525 57.6038 15.3087 57.6069C16.1021 57.6223 16.8954 57.6223 17.6857 57.6069C17.9203 57.6038 17.9882 57.6684 17.9851 57.905C17.9789 59.3556 17.9944 60.8031 17.9882 62.2537C17.9882 62.4842 18.0283 62.5856 18.2938 62.5825C20.0194 62.5671 21.742 62.561 23.4676 62.5671C23.7269 62.5671 23.7516 62.4626 23.7485 62.2506C23.7269 60.7908 23.7176 59.3341 23.6929 57.8743C23.6899 57.6499 23.7423 57.5639 23.9862 57.5639C24.829 57.5731 25.6717 57.5577 26.5114 57.5485C26.6379 57.5454 26.6997 57.5884 26.6966 57.7144C26.6966 57.7636 26.6966 57.8128 26.6966 57.862C26.7028 60.0716 26.7028 62.2782 26.7151 64.4879C26.7244 66.5286 26.7398 68.5692 26.7676 70.6099C26.7707 70.8772 26.6873 70.9387 26.4311 70.9356C25.6501 70.9264 24.866 70.9356 24.085 70.9571C23.8349 70.9633 23.767 70.8803 23.767 70.6375C23.767 68.9226 23.7485 67.2078 23.7454 65.4898C23.7454 65.2562 23.6991 65.161 23.4398 65.164C21.7173 65.1917 19.9917 65.204 18.2691 65.2132C18.0746 65.2132 18.0129 65.2777 18.016 65.4683C18.0314 67.1832 18.0345 68.8981 18.0592 70.6129C18.0623 70.8865 18.0129 71.0002 17.7104 70.9909C16.9294 70.9725 16.1453 70.9787 15.3612 70.9879C15.1389 70.9909 15.0525 70.9418 15.0556 70.6959C15.0648 68.5569 15.0617 66.4179 15.0617 64.2759C15.0432 64.2882 15.0247 64.2882 15.0062 64.2882Z" fill="#344154"/>
<path d="M87.0039 64.0269C87.0039 61.977 87.0039 59.924 87.0039 57.8742C87.0039 57.2503 87.0008 57.2534 87.6306 57.2503C90.3471 57.238 93.0606 57.2288 95.7771 57.2042C96.0549 57.2011 96.1537 57.2626 96.1475 57.5576C96.129 58.2583 96.1414 58.959 96.1599 59.6567C96.1661 59.8902 96.0982 59.9609 95.8574 59.9578C94.0144 59.9517 92.1715 59.9671 90.3286 59.9609C90.0662 59.9609 89.9612 60.0132 89.9767 60.3021C90.0075 60.9229 90.0075 61.5437 90.0045 62.1645C90.0045 62.3642 90.06 62.441 90.273 62.441C92.0264 62.4226 93.7798 62.4165 95.5332 62.398C95.7617 62.3949 95.8419 62.441 95.8388 62.6869C95.8265 63.4153 95.8389 64.1467 95.8512 64.8751C95.8543 65.0748 95.7987 65.1517 95.5857 65.1517C93.8416 65.1547 92.0974 65.1732 90.3533 65.1732C90.0909 65.1732 90.0137 65.2408 90.0199 65.5051C90.0384 66.1843 90.0384 66.8665 90.0199 67.5457C90.0137 67.807 90.0909 67.8838 90.3533 67.8807C92.295 67.8592 94.2367 67.8561 96.1784 67.8315C96.4809 67.8285 96.5643 67.9053 96.555 68.2096C96.5303 68.9103 96.5365 69.611 96.5519 70.3086C96.5581 70.536 96.4871 70.5852 96.2679 70.5852C93.5144 70.5883 90.7577 70.6036 88.0041 70.6159C87.7849 70.6159 87.5688 70.6221 87.3527 70.6436C87.1366 70.662 87.0564 70.5944 87.0595 70.367C87.0626 69.2545 87.0502 68.1389 87.0471 67.0233C87.044 66.0275 87.0471 65.0318 87.0471 64.0361C87.0286 64.0268 87.0163 64.0269 87.0039 64.0269Z" fill="#344154"/>
<path d="M131.216 57.0075C131.889 57.0075 132.565 57.0106 133.238 57.0075C134.278 57.0014 135.318 56.9983 136.359 56.9799C136.575 56.9768 136.652 57.029 136.649 57.2565C136.643 57.9756 136.649 58.6947 136.67 59.4139C136.677 59.6567 136.612 59.7335 136.359 59.7304C134.645 59.7243 132.929 59.7366 131.216 59.7458C131.098 59.7458 130.978 59.7704 130.861 59.7581C130.561 59.7274 130.475 59.8472 130.49 60.1453C130.521 60.7446 130.518 61.347 130.509 61.9493C130.506 62.1767 130.577 62.229 130.796 62.2259C132.531 62.2075 134.263 62.2106 135.997 62.189C136.266 62.186 136.356 62.2536 136.349 62.5332C136.328 63.2432 136.328 63.9531 136.352 64.663C136.359 64.8996 136.288 64.9396 136.078 64.9396C134.343 64.9396 132.611 64.958 130.876 64.955C130.604 64.955 130.518 65.0226 130.527 65.2992C130.549 65.9691 130.546 66.6391 130.527 67.3091C130.521 67.5734 130.583 67.6625 130.87 67.6594C132.821 67.6379 134.775 67.641 136.726 67.6195C136.985 67.6164 137.069 67.6779 137.062 67.9453C137.044 68.6644 137.05 69.3835 137.059 70.1058C137.062 70.3178 136.991 70.3701 136.788 70.3701C135.519 70.3701 134.25 70.3793 132.985 70.3854C131.29 70.3946 129.595 70.3977 127.903 70.4192C127.632 70.4223 127.576 70.3393 127.579 70.0873C127.585 68.5876 127.579 67.0909 127.57 65.5911C127.551 62.8621 127.533 60.13 127.502 57.4009C127.499 57.112 127.555 57.0167 127.869 57.0229C128.987 57.0444 130.107 57.0321 131.228 57.0321C131.216 57.0229 131.216 57.0137 131.216 57.0075Z" fill="#344154"/>
<path d="M57.9927 70.7911C56.5048 70.7911 55.0199 70.785 53.532 70.7973C53.3036 70.7973 53.2264 70.7419 53.2295 70.5053C53.2357 69.3528 53.2233 68.1973 53.2171 67.0448C53.2079 65.419 53.2264 63.7902 53.1894 62.1645C53.1554 60.6862 53.2048 59.208 53.1492 57.7297C53.14 57.4931 53.211 57.4224 53.4456 57.4316C53.8314 57.447 54.2173 57.4193 54.6032 57.4163C56.7919 57.407 58.9836 57.3978 61.1754 57.3886C61.4717 57.3886 61.7712 57.3855 62.0675 57.3671C62.2497 57.3579 62.3052 57.4193 62.3052 57.6037C62.3052 58.3444 62.3114 59.082 62.3299 59.8226C62.3361 60.0562 62.2682 60.1269 62.0305 60.1238C60.8019 60.1177 59.5732 60.13 58.3446 60.1361C57.6994 60.1392 57.0573 60.1515 56.4122 60.1453C56.2208 60.1423 56.1498 60.1976 56.1529 60.3943C56.1683 61.0642 56.1745 61.7342 56.1652 62.4042C56.1621 62.6316 56.2825 62.6285 56.443 62.6255C58.1656 62.607 59.8912 62.5916 61.6137 62.5763C61.9965 62.5732 61.9965 62.5763 61.9965 62.9635C61.9965 63.6642 61.9842 64.3649 62.0058 65.0625C62.012 65.2869 61.941 65.3238 61.7434 65.3207C60.2277 65.3207 58.712 65.3268 57.1932 65.3361C56.9246 65.3361 56.6591 65.3576 56.3906 65.3576C56.2362 65.3576 56.1806 65.416 56.1806 65.5666C56.1837 66.3257 56.1837 67.0848 56.1806 67.8439C56.1806 67.9975 56.2424 68.0528 56.3936 68.0498C57.8106 68.0344 59.2275 68.0252 60.6444 68.016C61.268 68.0098 61.8916 68.0098 62.5182 68.0037C62.6633 68.0006 62.7065 68.0651 62.7065 68.1973C62.7034 68.9871 62.7004 69.7739 62.7065 70.5637C62.7096 70.8003 62.5429 70.7419 62.4194 70.7419C60.9439 70.745 59.4652 70.745 57.9896 70.745C57.9927 70.7635 57.9927 70.7757 57.9927 70.7911Z" fill="#344154"/>
<path d="M41.298 64.3126C41.298 62.2719 41.2949 60.2313 41.3042 58.1876C41.3042 57.9632 41.1344 57.6651 41.3567 57.5237C41.5234 57.4162 41.7981 57.4715 42.0266 57.4715C43.1163 57.4684 44.2091 57.4746 45.2988 57.4684C46.0829 57.4623 46.8639 57.4346 47.6449 57.536C48.6235 57.662 49.5526 57.911 50.3028 58.5994C51.2597 59.4783 51.4758 60.6185 51.4233 61.8417C51.3925 62.57 51.235 63.2646 50.8276 63.8885C50.204 64.8442 49.2625 65.2684 48.1851 65.4743C47.0275 65.6955 45.8544 65.631 44.6875 65.6341C44.3788 65.6341 44.3109 65.7201 44.314 66.0152C44.3356 67.5241 44.3295 69.0331 44.348 70.5421C44.3511 70.7879 44.2832 70.8617 44.0331 70.8555C43.2305 70.8402 42.4279 70.8432 41.6253 70.8555C41.4153 70.8586 41.3567 70.7941 41.3567 70.5851C41.3598 69.6293 41.3474 68.6735 41.3443 67.7147C41.3413 66.5806 41.3443 65.4466 41.3443 64.3126C41.3227 64.3126 41.3104 64.3126 41.298 64.3126ZM44.2739 61.5466C44.2801 61.5466 44.2831 61.5466 44.2893 61.5466C44.2893 62.0015 44.2893 62.4533 44.2893 62.9081C44.2893 63.0187 44.2739 63.1355 44.4437 63.1324C45.3235 63.114 46.2094 63.2123 47.08 63.028C47.861 62.8651 48.3086 62.3272 48.3302 61.5866C48.3518 60.849 47.9505 60.345 47.1633 60.1206C47.012 60.0776 46.8546 60.05 46.7003 60.0284C45.9625 59.9178 45.2185 59.9977 44.4745 59.9823C44.314 59.9793 44.2708 60.0438 44.2739 60.1913C44.277 60.64 44.2739 61.0949 44.2739 61.5466Z" fill="#344154"/>
<path d="M32.546 68.0097C32.546 67.1523 32.5429 66.2948 32.5491 65.4374C32.5522 65.2591 32.4904 65.1178 32.3947 64.9733C30.8142 62.61 29.2337 60.2436 27.6593 57.8741C27.6037 57.788 27.4741 57.702 27.5358 57.5975C27.5945 57.493 27.7365 57.5545 27.8384 57.5545C28.8601 57.5453 29.8788 57.5483 30.9006 57.533C31.0951 57.5299 31.2032 57.5944 31.2989 57.7634C32.1354 59.2294 32.9813 60.6923 33.824 62.1551C34.0278 62.5116 34.0278 62.5116 34.2346 62.1674C35.1051 60.7076 35.9787 59.254 36.84 57.788C36.9542 57.5944 37.0715 57.5114 37.3061 57.5145C38.2662 57.5207 39.2293 57.5022 40.1894 57.4991C40.2727 57.4991 40.3839 57.4531 40.4394 57.5391C40.4981 57.6313 40.3931 57.6989 40.3468 57.7696C39.359 59.2939 38.3619 60.8152 37.374 62.3395C36.7999 63.2246 36.2349 64.119 35.6608 65.0041C35.5651 65.1546 35.5404 65.3083 35.5404 65.4804C35.5527 67.1676 35.5527 68.8518 35.5774 70.539C35.5836 70.8525 35.4817 70.917 35.1915 70.9109C34.4198 70.8955 33.645 70.9047 32.8732 70.9232C32.6324 70.9293 32.5738 70.8494 32.5769 70.6189C32.5892 69.7522 32.583 68.8825 32.583 68.0158C32.5676 68.0097 32.5583 68.0097 32.546 68.0097Z" fill="#344154"/>
<path d="M77.0296 62.8039C77.0296 61.0675 77.0358 59.3341 77.0234 57.5977C77.0234 57.3519 77.0852 57.2812 77.3321 57.2843C78.1348 57.2996 78.9374 57.2966 79.74 57.2873C79.9468 57.2843 80.0116 57.3427 80.0116 57.5516C80.0086 58.4275 80.024 59.3065 80.0271 60.1824C80.0332 62.4197 80.0363 64.657 80.0425 66.8944C80.0425 67.1402 80.0734 67.3892 80.0579 67.6319C80.0425 67.8655 80.1382 67.9085 80.3481 67.9055C81.9533 67.8932 83.5586 67.8993 85.1638 67.8809C85.4509 67.8778 85.5342 67.9577 85.5281 68.2435C85.5065 68.9534 85.5096 69.6634 85.5281 70.3733C85.5342 70.6038 85.4478 70.6314 85.2564 70.6314C84.3859 70.6314 83.5123 70.6468 82.6417 70.6499C80.9069 70.656 79.1751 70.656 77.4402 70.6714C77.184 70.6745 77.0852 70.6284 77.0883 70.3395C77.0944 68.4064 77.079 66.4764 77.0697 64.5433C77.0667 63.9625 77.0697 63.3816 77.0697 62.8008C77.0574 62.8038 77.042 62.8039 77.0296 62.8039Z" fill="#344154"/>
</g>
<defs>
<clipPath id="clip0">
<rect x="15" y="9" width="135" height="62" fill="white"/>
</clipPath>
</defs>
</svg>
