<svg width="35" height="35" viewBox="0 0 35 35" fill="none" xmlns="http://www.w3.org/2000/svg">
<rect x="11.7627" y="1.43457" width="11.4754" height="10.3279" fill="url(#paint0_linear)"/>
<rect x="1.43457" y="23.2378" width="11.4754" height="10.3279" fill="url(#paint1_linear)"/>
<rect x="23.2373" y="23.2378" width="11.4754" height="10.3279" fill="url(#paint2_linear)"/>
<path d="M33.8074 22.03H29.2776V19.3121C29.2768 18.5916 28.9902 17.9007 28.4807 17.3912C27.9712 16.8817 27.2803 16.5951 26.5598 16.5943H18.4062V12.9705H22.9359C23.1762 12.9705 23.4067 12.875 23.5766 12.7051C23.7465 12.5352 23.8419 12.3048 23.8419 12.0645V1.19306C23.8419 0.952789 23.7465 0.722356 23.5766 0.552457C23.4067 0.382558 23.1762 0.287109 22.9359 0.287109H12.0645C11.8242 0.287109 11.5938 0.382558 11.4239 0.552457C11.254 0.722356 11.1586 0.952789 11.1586 1.19306V12.0645C11.1586 12.3048 11.254 12.5352 11.4239 12.7051C11.5938 12.875 11.8242 12.9705 12.0645 12.9705H16.5943V16.5943H8.44069C7.72012 16.5951 7.02929 16.8817 6.51977 17.3912C6.01025 17.9007 5.72364 18.5916 5.72283 19.3121V22.03H1.19306C0.952789 22.03 0.722356 22.1254 0.552457 22.2953C0.382558 22.4652 0.287109 22.6957 0.287109 22.9359V33.8074C0.287109 34.0477 0.382558 34.2781 0.552457 34.448C0.722356 34.6179 0.952789 34.7133 1.19306 34.7133H12.0645C12.3048 34.7133 12.5352 34.6179 12.7051 34.448C12.875 34.2781 12.9705 34.0477 12.9705 33.8074V22.9359C12.9705 22.6957 12.875 22.4652 12.7051 22.2953C12.5352 22.1254 12.3048 22.03 12.0645 22.03H7.53474V19.3121C7.53522 19.072 7.63082 18.8418 7.80061 18.6721C7.97041 18.5023 8.20056 18.4067 8.44069 18.4062H26.5598C26.7999 18.4067 27.03 18.5023 27.1998 18.6721C27.3696 18.8418 27.4652 19.072 27.4657 19.3121V22.03H22.9359C22.6957 22.03 22.4652 22.1254 22.2953 22.2953C22.1254 22.4652 22.03 22.6957 22.03 22.9359V33.8074C22.03 34.0477 22.1254 34.2781 22.2953 34.448C22.4652 34.6179 22.6957 34.7133 22.9359 34.7133H33.8074C34.0477 34.7133 34.2781 34.6179 34.448 34.448C34.6179 34.2781 34.7133 34.0477 34.7133 33.8074V22.9359C34.7133 22.6957 34.6179 22.4652 34.448 22.2953C34.2781 22.1254 34.0477 22.03 33.8074 22.03ZM12.9705 2.09902H22.03V11.1586H12.9705V2.09902ZM11.1586 32.9014H2.09902V23.8419H11.1586V32.9014ZM32.9014 32.9014H23.8419V23.8419H32.9014V32.9014Z" fill="url(#paint3_linear)"/>
<path fill-rule="evenodd" clip-rule="evenodd" d="M29.2774 19.3119V22.0298H33.8072C34.0474 22.0298 34.2779 22.1252 34.4478 22.2951C34.6177 22.465 34.7131 22.6954 34.7131 22.9357V33.8072C34.7131 34.0474 34.6177 34.2779 34.4478 34.4478C34.2779 34.6177 34.0474 34.7131 33.8072 34.7131H22.9357C22.6954 34.7131 22.465 34.6177 22.2951 34.4478C22.1252 34.2779 22.0298 34.0474 22.0298 33.8072V22.9357C22.0298 22.6954 22.1252 22.465 22.2951 22.2951C22.465 22.1252 22.6954 22.0298 22.9357 22.0298H27.4655V19.3119C27.465 19.0718 27.3694 18.8416 27.1996 18.6718C27.0298 18.502 26.7997 18.4064 26.5595 18.406H8.44047C8.20034 18.4064 7.97018 18.502 7.80039 18.6718C7.63059 18.8416 7.53499 19.0718 7.53451 19.3119V22.0298H12.0643C12.3046 22.0298 12.535 22.1252 12.7049 22.2951C12.8748 22.465 12.9702 22.6954 12.9702 22.9357V33.8072C12.9702 34.0474 12.8748 34.2779 12.7049 34.4478C12.535 34.6177 12.3046 34.7131 12.0643 34.7131H1.19284C0.952565 34.7131 0.722132 34.6177 0.552233 34.4478C0.382334 34.2779 0.286885 34.0474 0.286885 33.8072V22.9357C0.286885 22.6954 0.382334 22.465 0.552233 22.2951C0.722132 22.1252 0.952565 22.0298 1.19284 22.0298H5.72261V19.3119C5.72342 18.5913 6.01003 17.9005 6.51955 17.391C7.02907 16.8815 7.71989 16.5949 8.44047 16.594H16.594V12.9702H12.0643C11.824 12.9702 11.5936 12.8748 11.4237 12.7049C11.2538 12.535 11.1583 12.3046 11.1583 12.0643V1.19284C11.1583 0.952565 11.2538 0.722132 11.4237 0.552233C11.5936 0.382334 11.824 0.286885 12.0643 0.286885H22.9357C23.176 0.286885 23.4064 0.382334 23.5763 0.552233C23.7462 0.722132 23.8417 0.952565 23.8417 1.19284V12.0643C23.8417 12.3046 23.7462 12.535 23.5763 12.7049C23.4064 12.8748 23.176 12.9702 22.9357 12.9702H18.406V16.594H26.5595C27.2801 16.5949 27.9709 16.8815 28.4805 17.391C28.99 17.9005 29.2766 18.5913 29.2774 19.3119ZM18.6928 16.3072H26.5595C27.3561 16.3081 28.1201 16.6249 28.6833 17.1881C29.2466 17.7514 29.5634 18.515 29.5643 19.3116V21.7429H33.8072C34.1235 21.7429 34.4269 21.8686 34.6506 22.0923C34.8743 22.316 35 22.6194 35 22.9357V33.8072C35 34.1235 34.8743 34.4269 34.6506 34.6506C34.4269 34.8743 34.1235 35 33.8072 35H22.9357C22.6194 35 22.316 34.8743 22.0923 34.6506C21.8686 34.4269 21.7429 34.1235 21.7429 33.8072V22.9357C21.7429 22.6194 21.8686 22.316 22.0923 22.0923C22.316 21.8686 22.6194 21.7429 22.9357 21.7429H27.1786V19.3125C27.1783 19.1482 27.1129 18.9908 26.9968 18.8747C26.8806 18.7586 26.7232 18.6932 26.559 18.6928H8.44104C8.2768 18.6932 8.11938 18.7586 8.00325 18.8747C7.88717 18.9908 7.82179 19.1481 7.8214 19.3122C7.8214 19.3123 7.8214 19.3121 7.8214 19.3122V21.7429H12.0643C12.3806 21.7429 12.684 21.8686 12.9077 22.0923C13.1314 22.316 13.2571 22.6194 13.2571 22.9357V33.8072C13.2571 34.1235 13.1314 34.4269 12.9077 34.6506C12.684 34.8743 12.3806 35 12.0643 35H1.19284C0.876479 35 0.573075 34.8743 0.349375 34.6506C0.125674 34.4269 0 34.1235 0 33.8072V22.9357C0 22.6194 0.125674 22.316 0.349375 22.0923C0.573075 21.8686 0.876479 21.7429 1.19284 21.7429H5.43572V19.3119C5.43662 18.5154 5.75345 17.7514 6.31669 17.1881C6.87993 16.6249 7.6436 16.3081 8.44014 16.3072H16.3072V13.2571H12.0643C11.7479 13.2571 11.4445 13.1314 11.2208 12.9077C10.9971 12.684 10.8714 12.3806 10.8714 12.0643V1.19284C10.8714 0.876479 10.9971 0.573075 11.2208 0.349374C11.4445 0.125674 11.7479 0 12.0643 0H22.9357C23.2521 0 23.5555 0.125674 23.7792 0.349374C24.0029 0.573075 24.1286 0.876479 24.1286 1.19284V12.0643C24.1286 12.3806 24.0029 12.684 23.7792 12.9077C23.5555 13.1314 23.2521 13.2571 22.9357 13.2571H18.6928V16.3072ZM21.7429 2.38568H13.2571V10.8714H21.7429V2.38568ZM2.38568 32.6143H10.8714V24.1286H2.38568V32.6143ZM24.1286 32.6143H32.6143V24.1286H24.1286V32.6143ZM12.9702 2.09879V11.1583H22.0298V2.09879H12.9702ZM11.1583 32.9012V23.8417H2.09879V32.9012H11.1583ZM32.9012 32.9012V23.8417H23.8417V32.9012H32.9012Z" fill="url(#paint4_linear)"/>
<defs>
<linearGradient id="paint0_linear" x1="18.7705" y1="-3.45023" x2="18.7705" y2="15.5307" gradientUnits="userSpaceOnUse">
<stop stop-color="#C7DAFD"/>
<stop offset="1" stop-color="#E9F1FF"/>
</linearGradient>
<linearGradient id="paint1_linear" x1="8.44241" y1="18.353" x2="8.44241" y2="37.3339" gradientUnits="userSpaceOnUse">
<stop stop-color="#C7DAFD"/>
<stop offset="1" stop-color="#E9F1FF"/>
</linearGradient>
<linearGradient id="paint2_linear" x1="30.2451" y1="18.353" x2="30.2451" y2="37.3339" gradientUnits="userSpaceOnUse">
<stop stop-color="#C7DAFD"/>
<stop offset="1" stop-color="#E9F1FF"/>
</linearGradient>
<linearGradient id="paint3_linear" x1="0.287109" y1="0.287109" x2="26.1035" y2="38.4867" gradientUnits="userSpaceOnUse">
<stop stop-color="#2569E6"/>
<stop offset="1" stop-color="#3649EF"/>
</linearGradient>
<linearGradient id="paint4_linear" x1="0" y1="0" x2="26.2467" y2="38.8363" gradientUnits="userSpaceOnUse">
<stop stop-color="#2569E6"/>
<stop offset="1" stop-color="#3649EF"/>
</linearGradient>
</defs>
</svg>
