<svg width="160" height="160" viewBox="0 0 160 160" fill="none" xmlns="http://www.w3.org/2000/svg">
<circle cx="80" cy="80" r="80" fill="#0755E9"/>
<path d="M120.086 57.0121C122.753 57.0884 125.425 57.1647 128.092 57.241C128.41 57.3253 128.723 57.4377 129.044 57.4859C131.684 57.8794 134.355 58.1765 136.862 59.1282C138.244 59.6542 139.891 60.0116 140.181 61.9028C140.124 62.4328 140.064 62.9669 140.008 63.4969C139.361 63.3724 138.774 62.9669 138.075 63.1074C132.535 64.2036 126.879 63.7218 121.315 64.3602C119.262 64.5971 117.181 64.4004 115.176 64.814C110.926 65.6933 106.683 65.5729 102.421 65.095C102.401 64.6694 102.497 64.2157 102.067 63.9145C102.015 63.2319 101.963 62.5493 101.915 61.8667C101.931 61.6097 101.951 61.3527 101.967 61.0957C104.189 58.5299 107.395 58.5259 110.355 57.8834C110.926 57.7589 111.577 57.9758 112.067 57.4939C114.734 57.3333 117.41 57.1727 120.086 57.0121Z" fill="white"/>
<path d="M39.7897 57C42.4693 57.1486 45.1449 57.2971 47.8245 57.4457C50.227 58.1886 52.8101 58.0842 55.1643 59.0599C56.6749 59.6863 58.1292 60.3328 58.2336 62.2802C57.6712 63.8261 58.1653 65.4002 58.085 66.9461C57.8319 71.7445 58.8202 72.1781 53.6257 73.5474C51.7134 74.0533 49.7529 74.3866 47.8165 74.7962C46.8563 74.6958 45.9082 74.6797 45.0083 75.1134C44.2129 75.1334 43.4174 75.1495 42.622 75.1696C41.6819 75.1856 40.7419 75.2017 39.7978 75.2178C37.1141 75.1134 34.4265 75.013 31.7429 74.9086C31.4697 74.8765 31.1965 74.8484 30.9233 74.8162C30.4011 74.7801 29.8788 74.744 29.3525 74.7078C27.4121 74.2661 25.4235 73.969 23.5434 73.3506C20.3174 72.2865 20.1205 71.877 20.1045 68.484C20.1045 67.7612 20.0362 67.0304 20 66.3036C20.0362 65.1713 20.1848 64.0309 20.0884 62.9106C19.9197 60.9551 20.92 59.9955 22.6113 59.3651C25.5762 58.2648 28.6896 57.9075 31.771 57.3734C34.4466 57.249 37.1182 57.1245 39.7897 57Z" fill="white"/>
<path d="M102.063 63.9144C102.493 64.2156 102.397 64.6733 102.417 65.0949C102.421 66.0305 102.345 66.9741 102.449 67.8937C102.57 68.9216 102.907 69.9335 104.233 69.8813C106.021 69.813 107.8 70.0298 109.608 69.6122C112.951 68.8413 116.422 68.4036 119.792 68.8975C122.267 69.2589 124.738 69.0461 127.052 68.8212C131.282 68.4076 135.549 68.5562 139.747 67.8937C139.839 68.5602 139.526 69.291 140.072 69.8813C140.353 71.4192 139.241 71.9974 138.18 72.5836C135.549 74.0492 132.548 74.1215 129.703 74.7841C129.45 74.8001 129.193 74.8162 128.94 74.8322C128.651 74.8965 128.361 74.9607 128.072 75.029C127.819 75.0531 127.566 75.0772 127.313 75.1013C127.048 75.1133 126.787 75.1294 126.521 75.1414C124.372 75.1735 122.223 75.2057 120.069 75.2378C119.133 75.2177 118.193 75.1936 117.257 75.1735C116.731 75.1615 116.201 75.1454 115.674 75.1334C114.473 75.021 113.268 74.9125 112.067 74.8001C109.512 74.1617 106.84 74.0251 104.357 73.0655C102.811 72.4672 101.794 71.5477 101.971 69.6685C102.088 68.4277 101.947 67.1589 101.923 65.9061C101.963 65.2435 102.015 64.577 102.063 63.9144Z" fill="white"/>
<path d="M139.743 67.8977C135.541 68.5642 131.278 68.4157 127.048 68.8252C124.734 69.0501 122.263 69.2629 119.788 68.9015C116.418 68.4076 112.947 68.8453 109.604 69.6163C107.8 70.0299 106.021 69.817 104.229 69.8853C102.903 69.9335 102.562 68.9216 102.445 67.8977C102.337 66.9742 102.417 66.0305 102.413 65.099C106.68 65.5768 110.922 65.6973 115.168 64.8179C117.173 64.4003 119.254 64.5971 121.307 64.3642C126.871 63.7257 132.528 64.2076 138.068 63.1114C138.771 62.9708 139.357 63.3764 140.004 63.5009C140.016 64.7095 140.024 65.9181 140.036 67.1267C139.944 67.3797 139.843 67.6407 139.743 67.8977Z" fill="white"/>
<path d="M140.04 67.1228C140.052 68.0423 140.06 68.9659 140.072 69.8854C139.522 69.2951 139.835 68.5643 139.747 67.8978C139.843 67.6408 139.944 67.3798 140.04 67.1228Z" fill="white"/>
<path d="M112.453 78.3176C113.654 78.5144 114.847 78.8316 116.084 78.6428C116.478 78.6509 116.868 78.6589 117.261 78.6669C117.531 78.675 117.804 78.683 118.073 78.691C121.427 78.9159 124.77 78.8155 128.104 78.3698C131.515 78.3296 134.837 77.8478 137.971 76.4143C138.666 76.7677 139.654 75.0451 140.161 76.7235C140.148 78.9199 139.972 81.1324 140.173 83.3127C140.382 85.5654 139.245 86.6375 137.401 87.3281C136.653 87.6092 135.894 87.8742 135.115 88.0428C124.714 90.2794 114.361 90.2272 104.068 87.3763C102.353 86.5572 101.682 85.216 101.967 83.3408C102.035 82.8911 101.923 82.4173 101.895 81.9555C101.899 80.2088 101.903 78.4581 101.907 76.7115C101.975 76.587 101.979 76.4625 101.919 76.334C102.485 75.6153 102.992 76.4986 103.534 76.3902C106.358 77.7032 109.367 78.1891 112.453 78.3176Z" fill="white"/>
<path d="M88.7459 66.3077C89.6417 67.2673 90.5215 68.2391 91.4415 69.1787C93.2976 71.0779 93.3056 71.4594 91.4656 73.3828C91.1965 73.6638 90.9635 73.9851 90.7104 74.2862C89.3726 75.3583 88.1553 76.5509 87.1108 77.9121C86.3033 78.41 85.6766 79.0886 85.1302 79.8515C84.0455 80.229 83.3826 81.0722 82.768 81.9676C82.3903 81.9114 82.0127 81.8592 81.635 81.803C81.5909 79.438 81.5507 77.0729 81.5065 74.7078C81.39 74.5954 81.2735 74.483 81.157 74.3705C80.7512 74.3665 80.3455 74.3585 79.9437 74.3545C79.8112 74.3545 79.6786 74.3545 79.55 74.3545C77.1356 74.3545 74.7211 74.3545 72.3107 74.3545C72.1781 74.3545 72.0455 74.3545 71.9129 74.3545C71.3907 74.3384 70.8684 74.3183 70.3461 74.3023C70.318 72.8487 70.3702 71.3871 70.2457 69.9416C70.1332 68.6366 70.7117 68.1427 71.9049 68.1146C74.693 68.1628 77.4851 68.1909 80.2731 68.2712C81.3578 68.3033 81.6391 67.7773 81.615 66.8096C81.5708 65.2155 81.5909 63.6214 81.5989 62.0273C81.6029 61.4852 81.6592 60.9311 82.2939 60.7383C82.8242 60.5737 83.1657 60.9391 83.5031 61.2603C84.9936 62.6778 86.476 64.1032 87.9625 65.5207C88.2156 65.7776 88.4807 66.0427 88.7459 66.3077Z" fill="white"/>
<path d="M39.7938 104C37.2507 103.859 34.7077 103.719 32.1647 103.574C29.228 103.024 26.2913 102.474 23.3545 101.924C21.8279 101.133 19.9598 100.659 20.0121 98.3825C20.0482 95.7043 20.0804 93.026 20.1165 90.3477C20.8155 90.2955 21.39 90.677 22.0167 90.8858C25.1825 91.9298 28.3964 92.7249 31.7589 92.7208C34.543 93.3673 37.3632 93.1545 40.1754 93.0782C42.618 93.3954 45.0124 92.7409 47.4349 92.6847C50.3716 92.6084 53.2601 92.0342 55.9558 90.9822C57.9685 90.1952 57.9203 90.9501 57.9564 92.5C58.0047 94.588 57.4864 96.7161 58.2577 98.772C58.2497 99.037 58.2457 99.298 58.2377 99.563C58.093 99.8281 57.9484 100.093 57.8078 100.358C57.4221 100.627 57.0405 100.896 56.6548 101.169C56.3294 101.177 56.0361 101.258 55.8473 101.551C53.2119 102.293 50.5403 102.876 47.8286 103.253C45.149 103.498 42.4734 103.747 39.7938 104Z" fill="white"/>
<path d="M41.8023 78.679C43.2767 78.7232 44.7471 78.8035 46.2094 78.5224C49.4957 78.1209 52.8502 78.0245 55.8954 76.4786C57.3015 75.9446 58.567 75.6354 58.2456 77.9161C57.5184 79.4781 58.113 81.0481 58.2094 82.6141C58.4023 85.7501 57.88 86.5532 55.0236 87.4968C50.9339 88.854 46.6875 89.3037 42.425 89.5005C36.1338 89.7936 29.8988 89.2435 23.7361 87.9546C20.9199 87.3442 20.1566 86.4849 20.1084 83.9191C20.1003 83.3931 20.0401 82.8671 20.0039 82.3411C20.0401 81.3613 20.1003 80.3816 20.1043 79.3978C20.1164 76.0851 20.1084 76.0851 23.1576 77.0006C23.3424 77.0568 23.5473 77.0408 23.7401 77.0608C24.8168 77.3138 25.8974 77.5668 26.9741 77.8198C27.2312 77.8519 27.4883 77.884 27.7454 77.9161C28.9225 78.2976 30.1318 78.414 31.3611 78.3257C34.8201 79.0886 38.3193 78.663 41.8023 78.679Z" fill="white"/>
<path d="M63.8862 68.1266C67.06 68.4237 67.064 68.4237 67.056 71.7244C67.0519 72.5716 67.0118 73.4229 66.9917 74.2701C65.9552 74.3022 64.9147 74.3344 63.8782 74.3705C63.6331 74.3384 63.3921 74.3063 63.147 74.2741C61.5682 72.0295 61.8976 69.3031 63.8862 68.1266Z" fill="white"/>
<path d="M136.143 102.048C133.331 102.558 130.519 103.068 127.703 103.574C125.16 103.715 122.621 103.855 120.078 103.996C117.265 103.739 114.453 103.482 111.641 103.225C109.058 102.827 106.523 102.217 104.008 101.502L103.839 101.53C103.638 101.39 103.433 101.245 103.233 101.105C102.827 100.727 102.421 100.35 102.011 99.9725C101.967 99.31 101.923 98.6474 101.879 97.9849C101.883 95.5676 101.887 93.1504 101.891 90.7331C102.084 90.4159 102.393 90.3798 102.722 90.3878C103.502 91.0222 104.382 91.3234 105.394 91.2069C105.603 91.3154 105.808 91.4238 106.017 91.5322C106.555 91.6607 107.089 91.7852 107.628 91.9136C108.829 92.0943 110.026 92.279 111.227 92.4597C120.431 93.7246 129.555 93.6483 138.477 90.7171C139.751 90.2995 140.12 90.3918 140.1 91.7771C140.06 94.2385 140.152 96.7 140.185 99.1654C139.457 100.984 137.613 101.253 136.143 102.048Z" fill="white"/>
<path d="M91.092 90.3436C91.1202 90.0826 91.1684 89.8216 91.1724 89.5606C91.2648 86.0913 91.9277 85.6617 95.4349 86.8181C96.2383 87.8902 95.8727 89.1832 96.1138 90.3597C96.0375 90.8375 95.9651 91.3153 95.8888 91.7932C94.776 92.9697 93.3177 92.7729 91.9759 92.6083C90.5658 92.4356 91.4737 91.0784 91.092 90.3436Z" fill="white"/>
<path d="M87.9102 86.4567C87.9745 87.7537 88.0388 89.0467 88.103 90.3436C88.0388 91.0985 87.9745 91.8574 87.9102 92.6123C85.2507 92.6525 82.5912 92.6966 79.9316 92.7368C76.6816 92.5682 76.6735 92.5682 76.6856 95.7764C76.6896 96.6438 76.7298 97.5071 76.7579 98.3744C76.5731 98.9807 76.9427 99.852 76.1914 100.165C75.3036 100.535 74.946 99.6031 74.468 99.1373C71.475 96.2221 68.5222 93.2668 65.5533 90.3236C65.3284 89.2153 65.8707 88.4484 66.622 87.7095C68.4137 85.9508 70.3421 84.3206 71.9049 82.333V82.3249C72.9253 81.3733 73.9417 80.4216 74.9661 79.478C75.2996 79.1688 75.6129 78.695 76.1432 78.9239C76.6333 79.1327 76.6655 79.6467 76.6655 80.1285C76.6615 81.5941 76.7699 83.0718 76.6293 84.5213C76.4646 86.2078 77.2279 86.5089 78.7103 86.4688C81.7716 86.3764 84.8409 86.4487 87.9102 86.4567Z" fill="white"/>
</svg>
