<svg width="160" height="160" viewBox="0 0 160 160" fill="none" xmlns="http://www.w3.org/2000/svg">
<circle cx="80" cy="80" r="80" fill="#0755E9"/>
<path d="M26 89.1382C26 88.2822 26 87.4262 26 86.5702C26.2226 86.4029 26.1768 86.176 26.1237 85.9569C26.1091 85.8961 26.0364 85.9098 26 85.971C26 85.8568 26 85.7429 26 85.6286C26.0124 85.7117 26.0728 85.7694 26.125 85.6941C26.1768 85.6196 26.1755 85.5049 26.1887 85.4069C26.3903 83.8884 26.7486 82.4092 27.3204 80.9866C28.8162 77.2668 31.2691 74.3466 34.6708 72.2246C35.0136 72.0106 34.9897 72.0423 34.8531 71.7029C33.2182 67.6467 32.8287 63.4814 33.7789 59.2044C35.6711 50.686 42.9004 44.1774 51.5772 43.1721C51.6756 43.1605 51.7783 43.1519 51.8686 43.116C51.9328 43.0903 51.9204 43.0304 51.8511 43C53.2776 43 54.7046 43 56.1311 43C56.1217 43.0107 56.1024 43.0231 56.1041 43.0312C56.1336 43.184 56.2663 43.1451 56.3588 43.1528C56.8142 43.1905 57.2644 43.2628 57.7134 43.3433C60.4265 43.8299 62.9491 44.8066 65.268 46.299C67.2158 47.5522 68.915 49.0819 70.3543 50.8983C70.5842 51.1885 70.5867 51.1859 70.8517 50.9184C71.4949 50.2683 72.1819 49.6669 72.918 49.1255C76.8269 46.2498 81.1955 45.0137 86.034 45.4687C88.4937 45.6998 90.8105 46.4133 92.98 47.5856C96.1284 49.2869 98.6043 51.6944 100.436 54.7674C100.704 55.2159 100.619 55.1693 101.081 54.9724C104.743 53.4119 108.561 52.888 112.507 53.3006C115.372 53.6002 118.101 54.4109 120.631 55.7929C127.054 59.3012 131.03 64.6541 132.581 71.8064C132.696 72.3359 132.786 72.87 132.843 73.4093C132.86 73.5638 132.865 73.5634 133 73.6443C133 75.5844 133 77.5249 133 79.465C132.959 79.3965 132.908 79.4043 132.884 79.468C132.855 79.5468 132.843 79.6332 132.832 79.7175C132.656 80.9759 132.39 82.2149 131.997 83.4232C130.012 89.5281 126.197 94.115 120.529 97.1281C117.5 98.7382 114.248 99.5681 110.815 99.6841C109.171 99.7397 107.54 99.6392 105.919 99.3447C105.375 99.2458 105.515 99.1739 105.222 99.6554C103.403 102.653 100.923 104.925 97.7227 106.367C93.4624 108.287 89.1268 108.396 84.7453 106.786C84.3447 106.639 83.954 106.464 83.5641 106.29C83.4134 106.222 83.3227 106.243 83.2653 106.399C83.2456 106.452 83.2182 106.503 83.1947 106.554C81.9021 109.414 80.0241 111.82 77.5661 113.767C75.2027 115.64 72.5418 116.888 69.5869 117.502C69.1268 117.598 68.6663 117.692 68.1976 117.742C68.0748 117.755 68.0757 117.761 68.029 117.899C66.4313 117.899 64.8331 117.899 63.2354 117.899C63.3035 117.857 63.2936 117.809 63.2303 117.783C63.1657 117.757 63.0933 117.746 63.0231 117.737C61.6912 117.561 60.3922 117.247 59.1305 116.785C55.4403 115.434 52.4332 113.171 50.1057 110.005C49.1213 108.666 48.3304 107.22 47.729 105.671C47.5989 105.336 47.5951 105.331 47.2446 105.397C46.4031 105.556 45.5557 105.643 44.6992 105.685C42.5674 105.791 40.4753 105.54 38.4663 104.846C32.6121 102.821 28.7452 98.8247 26.8414 92.9337C26.4772 91.8059 26.2628 90.6431 26.1524 89.4618C26.1421 89.3497 26.2315 89.1583 26 89.1382ZM84.0973 75.0408C84.1427 75.1868 84.0999 75.3096 84.0772 75.435C83.9484 76.1498 83.8221 76.8649 83.6933 77.5801C83.3526 79.4723 83.0149 81.3653 82.6678 83.2562C82.5621 83.8319 82.4003 84.393 82.1298 84.9169C81.8645 85.4309 81.4502 85.7027 80.8664 85.7215C80.5505 85.7318 80.2351 85.7348 79.9389 85.6162C79.7249 85.5306 79.6222 85.6042 79.5533 85.8028C79.4412 86.1255 79.3128 86.4427 79.2019 86.7663C79.0889 87.0967 79.115 87.1429 79.4613 87.2533C79.9988 87.4245 80.5522 87.4498 81.1103 87.4194C82.4996 87.3445 83.4605 86.6507 84.031 85.3945C84.0781 85.2909 84.1187 85.1844 84.1603 85.0782C84.4243 84.3986 84.596 83.6932 84.7235 82.9772C85.1733 80.4533 85.627 77.9302 86.0636 75.4042C86.1436 74.9407 86.1958 75.0181 86.5566 75.016C87.0557 75.013 87.5547 75.0113 88.0533 75.0164C88.2335 75.0181 88.3598 74.9646 88.3936 74.7729C88.4604 74.3941 88.5254 74.0153 88.5922 73.6365C88.6281 73.4315 88.5344 73.3447 88.3358 73.3464C88.1792 73.3476 88.0221 73.3447 87.8654 73.3447C87.4661 73.3438 87.0672 73.3429 86.6679 73.3434C86.5147 73.3434 86.4214 73.3001 86.4603 73.1174C86.5493 72.6992 86.6183 72.2734 86.792 71.8813C87.0617 71.2731 87.5136 70.9068 88.2087 70.8892C88.5246 70.8811 88.8353 70.8901 89.1392 70.9838C89.3408 71.0459 89.458 70.9787 89.5244 70.7724C89.6335 70.4338 89.7679 70.1034 89.883 69.7666C89.9853 69.4674 89.9691 69.4357 89.666 69.3429C88.9988 69.1387 88.3157 69.1366 87.6335 69.2286C86.3473 69.4019 85.4768 70.1205 84.9696 71.3022C84.8344 71.6173 84.7205 71.9391 84.6422 72.2725C84.5801 72.5357 84.5108 72.7998 84.4804 73.0673C84.4552 73.2924 84.3477 73.3524 84.1436 73.3472C83.8157 73.3382 83.4874 73.3536 83.16 73.3434C82.9315 73.3361 82.8198 73.4371 82.7847 73.6554C82.7325 73.9785 82.6695 74.3004 82.6139 74.6231C82.5531 74.9775 82.5797 75.0049 82.9554 75.0164C83.3377 75.0271 83.7216 74.9847 84.0973 75.0408ZM58.1033 79.3152C58.0994 79.3152 58.096 79.3152 58.0922 79.3152C58.0922 78.3458 58.12 77.3755 58.0862 76.407C58.0224 74.5721 57.0521 73.4867 55.302 73.2265C54.301 73.0776 53.3119 73.1533 52.3296 73.3665C51.813 73.4786 51.3122 73.6365 50.8457 73.8955C50.6476 74.0055 50.5941 74.1454 50.6745 74.3543C50.7927 74.6599 50.8971 74.9706 51.0178 75.2754C51.1346 75.5698 51.1633 75.5839 51.4599 75.4341C52.146 75.0875 52.8809 74.927 53.6371 74.8619C54.1636 74.8165 54.6917 74.8217 55.1976 75.0203C55.5884 75.1739 55.8884 75.4213 56.0151 75.8347C56.1075 76.1365 56.1324 76.4485 56.1294 76.7648C56.1277 76.9398 56.0545 76.9809 55.891 76.9608C55.4951 76.9124 55.0983 76.8649 54.7007 76.8414C53.706 76.7823 52.7311 76.8821 51.8267 77.3336C50.7939 77.8489 50.1674 78.6694 50.0925 79.8438C49.9966 81.3525 50.6536 82.473 52.1558 82.9412C52.5235 83.0559 52.9035 83.1189 53.2883 83.1518C54.8154 83.2828 56.2984 83.0093 57.7733 82.6656C58.099 82.5898 58.102 82.5744 58.1033 82.2239C58.1054 81.2541 58.1033 80.2846 58.1033 79.3152ZM69.1914 78.6955C70.1326 78.6955 71.0742 78.6981 72.0154 78.6942C72.3591 78.6925 72.3621 78.6758 72.4126 78.339C72.4943 77.7967 72.4545 77.257 72.3882 76.7186C72.1485 74.7677 70.8743 73.3391 68.8876 73.17C66.5011 72.9667 64.7146 74.2165 64.1299 76.3291C63.8201 77.4479 63.7905 78.5834 64.0242 79.7175C64.4021 81.5515 65.7097 82.7679 67.5659 83.082C68.3628 83.2169 69.1585 83.1985 69.9537 83.1313C70.594 83.0773 71.2214 82.9361 71.8082 82.657C72.0894 82.5235 72.1095 82.4794 72.0162 82.1952C71.9276 81.9247 71.8254 81.6581 71.7278 81.3906C71.5737 80.9694 71.5724 80.9682 71.1525 81.1205C70.2238 81.4578 69.2651 81.5558 68.2897 81.4398C66.9029 81.275 66.1163 80.416 66.0452 79.0242C66.029 78.704 66.029 78.6981 66.3675 78.6968C67.3091 78.6938 68.2503 78.6959 69.1914 78.6955ZM118.83 78.6955C119.786 78.6955 120.742 78.6985 121.697 78.6938C122.021 78.6921 122.035 78.6801 122.081 78.3676C122.169 77.7693 122.124 77.1731 122.039 76.5778C121.781 74.781 120.548 73.3485 118.586 73.1726C116.127 72.9517 114.273 74.2764 113.741 76.5491C113.503 77.5639 113.481 78.5851 113.671 79.6058C114.024 81.5079 115.334 82.7572 117.25 83.0838C118.061 83.222 118.871 83.1967 119.68 83.1261C120.277 83.0739 120.862 82.9352 121.415 82.6896C121.759 82.5363 121.783 82.485 121.666 82.1392C121.579 81.8828 121.484 81.629 121.39 81.3752C121.241 80.972 121.236 80.9682 120.844 81.112C119.902 81.4582 118.93 81.5614 117.94 81.4377C116.445 81.2511 115.816 80.333 115.708 79.0062C115.684 78.7062 115.694 78.6985 116.006 78.6972C116.947 78.6938 117.889 78.6959 118.83 78.6955ZM88.7801 78.1725C88.8032 78.6484 88.8195 79.1475 88.923 79.6384C89.1773 80.8428 89.7264 81.858 90.7942 82.5368C91.5141 82.9943 92.3111 83.1629 93.1542 83.1848C95.4402 83.2443 97.0956 81.9466 97.5707 79.7094C97.7107 79.0494 97.7655 78.3822 97.7175 77.7107C97.6615 76.9244 97.5215 76.1536 97.156 75.4431C96.3753 73.9246 95.0918 73.2158 93.4213 73.1525C91.1734 73.0673 89.5286 74.3149 88.9799 76.4977C88.8426 77.0417 88.8058 77.5942 88.7801 78.1725ZM77.2361 73.1229C76.8342 73.1105 76.1614 73.2167 75.5399 73.5377C74.4956 74.077 73.9499 74.9415 73.9534 76.1206C73.9568 77.2655 74.571 78.0038 75.578 78.4661C75.929 78.627 76.2911 78.7524 76.657 78.8718C77.1715 79.04 77.6847 79.2108 78.197 79.3846C78.4285 79.4633 78.6395 79.5832 78.8253 79.7424C79.1334 80.0064 79.225 80.3583 79.094 80.746C78.9588 81.1453 78.6622 81.3765 78.2774 81.4976C77.6727 81.6876 77.064 81.6089 76.4606 81.4826C75.7967 81.3435 75.1924 81.0649 74.6275 80.6917C74.2512 80.443 74.2016 80.4644 74.0505 80.871C73.9512 81.1381 73.8554 81.4064 73.7616 81.6752C73.6354 82.0369 73.6435 82.0625 73.9658 82.2569C75.3786 83.1099 76.907 83.3876 78.5278 83.1304C79.1852 83.026 79.7814 82.7572 80.271 82.2843C81.5512 81.0486 81.3573 79.0054 79.8674 78.0509C79.5537 77.8498 79.219 77.6927 78.8681 77.5711C78.3027 77.3755 77.7352 77.1864 77.1693 76.9929C76.8578 76.8863 76.5577 76.7541 76.2954 76.5521C75.7852 76.1596 75.7818 75.4945 76.2851 75.0905C76.4546 74.9544 76.6523 74.879 76.8633 74.8285C77.3645 74.7083 77.8563 74.8046 78.3472 74.8876C78.9412 74.9882 79.4989 75.2047 80.0446 75.4551C80.2899 75.5677 80.3284 75.5518 80.4298 75.307C80.5334 75.0571 80.619 74.7998 80.7132 74.5465C80.8972 74.0513 80.8981 74.0491 80.417 73.8048C79.5096 73.3438 78.5424 73.1384 77.2361 73.1229ZM45.3939 73.1285C44.6034 73.1294 43.9785 73.2424 43.4422 73.5184C42.4022 74.0534 41.8385 74.8923 41.8274 76.0821C41.8162 77.2566 42.433 77.9953 43.4508 78.4682C43.8009 78.6309 44.1638 78.7537 44.5298 78.8731C45.0442 79.0405 45.5574 79.2117 46.0693 79.3867C46.2863 79.4612 46.4836 79.575 46.6642 79.718C46.9634 79.9551 47.0601 80.2611 46.989 80.63C46.9116 81.0315 46.6522 81.2806 46.297 81.4394C46.0616 81.5447 45.8112 81.596 45.5505 81.6025C44.6321 81.6247 43.7713 81.409 42.965 80.9741C42.7771 80.8727 42.6008 80.7507 42.4172 80.6416C42.1124 80.4601 42.0739 80.4691 41.9511 80.7854C41.8325 81.0906 41.7225 81.3996 41.6172 81.7094C41.5077 82.0313 41.5248 82.0703 41.8334 82.2564C43.2458 83.1086 44.7733 83.3881 46.3945 83.1304C47.037 83.0281 47.6118 82.7568 48.1095 82.3181C49.126 81.4218 49.5305 79.0691 47.738 78.0488C47.4149 77.8647 47.0883 77.6931 46.7374 77.5711C46.1724 77.3751 45.6049 77.1868 45.0391 76.9933C44.7138 76.8821 44.4056 76.737 44.1296 76.5285C43.8193 76.2944 43.7277 75.9751 43.812 75.6165C43.919 75.1615 44.267 74.9501 44.6903 74.8379C45.2034 74.7018 45.711 74.8011 46.2156 74.8876C46.8093 74.989 47.367 75.2043 47.9127 75.4555C48.1609 75.5698 48.1904 75.557 48.2957 75.3062C48.4006 75.0571 48.4896 74.8011 48.5838 74.5473C48.7652 74.059 48.7601 74.044 48.2799 73.8013C47.3725 73.3425 46.4057 73.1379 45.3939 73.1285ZM110.309 83.1698C111.104 83.1728 111.92 83.0611 112.707 82.7812C112.984 82.6827 112.998 82.6481 112.905 82.3754C112.801 82.0651 112.688 81.757 112.572 81.4509C112.443 81.112 112.424 81.0957 112.071 81.2198C111.382 81.4625 110.674 81.4877 109.96 81.4287C108.86 81.3375 108.043 80.6677 107.728 79.6028C107.49 78.7944 107.488 77.9726 107.637 77.1483C107.719 76.6937 107.897 76.2782 108.15 75.8908C108.489 75.3717 108.971 75.0695 109.565 74.9377C109.929 74.8568 110.3 74.8319 110.671 74.8717C111.124 74.9201 111.577 74.9544 112.019 75.0879C112.331 75.1825 112.356 75.1568 112.482 74.8298C112.584 74.564 112.682 74.2965 112.777 74.0277C112.922 73.6173 112.908 73.5805 112.492 73.4581C111.51 73.1692 110.506 73.0801 109.489 73.194C107.551 73.4118 106.203 74.5615 105.681 76.4378C105.34 77.6632 105.354 78.8949 105.721 80.1079C106.145 81.5091 107.034 82.4863 108.457 82.931C109.047 83.1159 109.655 83.1822 110.309 83.1698ZM62.1256 76.184C62.1256 74.1022 62.1256 72.0204 62.1252 69.9382C62.1252 69.8244 62.1261 69.7101 62.1192 69.5962C62.1115 69.4648 62.0417 69.3792 61.9052 69.378C61.392 69.3741 60.8789 69.3745 60.3653 69.3758C60.2031 69.3763 60.1406 69.476 60.1359 69.6241C60.1333 69.7097 60.1329 69.7953 60.1329 69.8809C60.1329 74.0731 60.1324 78.2653 60.1329 82.4576C60.1329 82.5573 60.1333 82.6575 60.1384 82.7568C60.1457 82.8886 60.2133 82.9746 60.3503 82.9759C60.8635 82.9798 61.3766 82.9806 61.8898 82.9768C62.0447 82.9755 62.1192 82.8805 62.1222 82.7289C62.1243 82.6151 62.1248 82.5008 62.1248 82.3865C62.1256 80.3189 62.1256 78.2512 62.1256 76.184ZM101.341 74.1193C101.341 73.9794 101.337 73.8142 101.342 73.6494C101.348 73.4559 101.268 73.3592 101.066 73.3613C100.61 73.3661 100.153 73.3669 99.697 73.3605C99.5027 73.3579 99.4013 73.4337 99.4009 73.6318C99.4009 73.7174 99.3979 73.803 99.3979 73.8882C99.3979 76.7395 99.3979 79.5909 99.3979 82.4422C99.3979 82.5419 99.3991 82.6416 99.4056 82.7414C99.4158 82.892 99.4959 82.9785 99.6504 82.9793C100.149 82.9815 100.648 82.981 101.147 82.9815C101.325 82.9815 101.405 82.8852 101.407 82.7144C101.408 82.6147 101.409 82.5149 101.409 82.4152C101.409 80.9896 101.412 79.5639 101.408 78.1382C101.406 77.7376 101.428 77.3387 101.509 76.9475C101.719 75.9336 102.316 75.0939 103.65 75.0673C103.866 75.0631 104.079 75.0763 104.289 75.1127C104.515 75.1517 104.633 75.0708 104.7 74.8546C104.785 74.5829 104.895 74.3192 104.992 74.0517C105.201 73.4765 105.199 73.4705 104.616 73.3549C103.48 73.1298 102.432 73.2834 101.538 74.0842C101.498 74.1193 101.46 74.1673 101.341 74.1193Z" fill="white"/>
<path d="M26 85.9711C26.0364 85.9099 26.1091 85.8966 26.1237 85.9569C26.1768 86.1756 26.2226 86.4029 26 86.5703C26 86.3704 26 86.1709 26 85.9711Z" fill="#0755E9"/>
<path d="M84.0972 75.0408C83.7214 74.9848 83.3375 75.0271 82.9553 75.0156C82.5795 75.004 82.553 74.9766 82.6138 74.6223C82.6694 74.2995 82.7323 73.9777 82.7845 73.6545C82.8201 73.4363 82.9318 73.3353 83.1599 73.3425C83.4873 73.3528 83.8156 73.3374 84.1434 73.3464C84.348 73.352 84.455 73.2916 84.4803 73.0665C84.5102 72.799 84.58 72.5349 84.6421 72.2717C84.7208 71.9383 84.8342 71.6164 84.9695 71.3014C85.4767 70.1197 86.3472 69.4011 87.6333 69.2278C88.3156 69.1357 88.9986 69.1379 89.6659 69.342C89.9689 69.4349 89.9852 69.4666 89.8829 69.7658C89.7678 70.1026 89.6329 70.433 89.5242 70.7716C89.4579 70.9778 89.3406 71.045 89.139 70.983C88.8352 70.8892 88.524 70.8807 88.2086 70.8884C87.5131 70.9059 87.0615 71.2723 86.7919 71.8805C86.6181 72.2725 86.5492 72.6984 86.4602 73.1166C86.4212 73.2993 86.5145 73.3425 86.6678 73.3425C87.0671 73.3421 87.466 73.343 87.8653 73.3438C88.022 73.3442 88.179 73.3468 88.3357 73.3455C88.5343 73.3438 88.628 73.4307 88.592 73.6357C88.5253 74.0145 88.4602 74.3933 88.3935 74.7721C88.3596 74.9638 88.2334 75.0173 88.0532 75.0156C87.5542 75.0104 87.0551 75.0122 86.5565 75.0152C86.1957 75.0173 86.1435 74.9398 86.0634 75.4033C85.6269 77.9294 85.1736 80.4524 84.7234 82.9764C84.5958 83.6924 84.4246 84.3977 84.1601 85.0774C84.119 85.1835 84.0779 85.2901 84.0309 85.3937C83.4603 86.6499 82.4995 87.3432 81.1102 87.4185C80.5521 87.4485 79.9983 87.4237 79.4611 87.2525C79.1149 87.1421 79.0888 87.0958 79.2018 86.7654C79.3126 86.4423 79.441 86.1251 79.5532 85.802C79.6221 85.6034 79.7248 85.5298 79.9388 85.6154C80.235 85.7339 80.5504 85.7309 80.8663 85.7207C81.45 85.7018 81.8643 85.4296 82.1297 84.916C82.4002 84.3917 82.5624 83.8311 82.6677 83.2554C83.0144 81.3641 83.3525 79.4715 83.6932 77.5793C83.822 76.8645 83.9483 76.1489 84.0771 75.4342C84.0998 75.3096 84.1426 75.1864 84.0972 75.0408Z" fill="#0755E9"/>
<path d="M58.1033 79.3153C58.1033 80.2847 58.1054 81.2542 58.102 82.224C58.1007 82.5745 58.0977 82.5895 57.772 82.6657C56.2971 83.0094 54.8141 83.2829 53.287 83.1519C52.9023 83.119 52.5222 83.056 52.1545 82.9413C50.6527 82.4735 49.9953 81.3526 50.0912 79.8439C50.1656 78.6695 50.7926 77.849 51.8254 77.3337C52.7298 76.8822 53.7047 76.7824 54.6994 76.8415C55.0975 76.865 55.4942 76.9125 55.8897 76.9609C56.0532 76.981 56.1264 76.9395 56.1281 76.7649C56.1311 76.449 56.1062 76.1366 56.0138 75.8348C55.8871 75.4214 55.5871 75.174 55.1963 75.0204C54.6909 74.8218 54.1623 74.8166 53.6358 74.862C52.8796 74.9271 52.1443 75.0876 51.4586 75.4342C51.162 75.584 51.1333 75.5699 51.0165 75.2755C50.8958 74.9711 50.7914 74.66 50.6732 74.3544C50.5928 74.146 50.6463 74.0056 50.8444 73.8956C51.3105 73.6366 51.8117 73.4787 52.3283 73.3666C53.3106 73.1534 54.3001 73.0777 55.3008 73.2266C57.0508 73.4868 58.0211 74.5723 58.0849 76.4071C58.1187 77.3752 58.0909 78.3459 58.0909 79.3153C58.0956 79.3153 58.0994 79.3153 58.1033 79.3153ZM56.1298 79.9637C56.1298 79.5794 56.1238 79.1951 56.1324 78.8112C56.1366 78.6224 56.0801 78.5321 55.8756 78.5094C55.2524 78.4409 54.6292 78.3913 54.0022 78.4277C53.6881 78.4461 53.3812 78.5064 53.0876 78.6198C52.3501 78.9045 52.0582 79.3847 52.1049 80.2231C52.1413 80.8767 52.5072 81.285 53.2378 81.4836C53.3063 81.502 53.3773 81.5101 53.4467 81.5247C54.2761 81.6971 55.0885 81.514 55.9042 81.407C56.078 81.3843 56.1371 81.2884 56.1328 81.1159C56.1234 80.7324 56.1298 80.3481 56.1298 79.9637Z" fill="#0755E9"/>
<path d="M69.1916 78.6958C68.2504 78.6958 67.3088 78.6937 66.3677 78.6971C66.0287 78.6984 66.0287 78.7044 66.0454 79.0245C66.1164 80.4168 66.9031 81.2758 68.2898 81.4401C69.2652 81.5561 70.2239 81.4581 71.1527 81.1208C71.5726 80.9685 71.5738 80.9698 71.7279 81.3909C71.8259 81.6584 71.9278 81.925 72.0164 82.1955C72.1097 82.4797 72.0896 82.5238 71.8084 82.6574C71.222 82.936 70.5946 83.0776 69.9539 83.1316C69.1586 83.1988 68.3634 83.2172 67.5661 83.0824C65.7098 82.7682 64.4023 81.5518 64.0244 79.7179C63.7907 78.5837 63.8202 77.4482 64.1301 76.3294C64.7147 74.2168 66.5012 72.967 68.8877 73.1703C70.8749 73.3394 72.1486 74.7681 72.3883 76.7189C72.4547 77.2573 72.4945 77.797 72.4127 78.3393C72.3622 78.6757 72.3588 78.6928 72.0155 78.6945C71.0744 78.6984 70.1332 78.6954 69.1916 78.6958ZM66.0621 77.1002C66.211 77.1948 66.357 77.1593 66.4952 77.1593C67.6615 77.1623 68.8278 77.161 69.9937 77.161C70.0788 77.161 70.1644 77.1567 70.2496 77.1601C70.3964 77.1661 70.4499 77.0981 70.4388 76.9534C70.4144 76.6388 70.3506 76.3324 70.2321 76.0418C69.5777 74.4359 67.474 74.5344 66.7169 75.4713C66.3296 75.9515 66.1383 76.504 66.0621 77.1002Z" fill="#0755E9"/>
<path d="M118.83 78.696C117.889 78.696 116.947 78.6938 116.006 78.6977C115.694 78.6989 115.684 78.7067 115.708 79.0067C115.816 80.3335 116.445 81.2515 117.94 81.4381C118.93 81.5618 119.902 81.4587 120.844 81.1124C121.236 80.9682 121.241 80.9725 121.39 81.3756C121.484 81.6295 121.579 81.8833 121.666 82.1396C121.783 82.4854 121.759 82.5372 121.414 82.69C120.862 82.9357 120.277 83.0744 119.68 83.1266C118.871 83.1972 118.061 83.2225 117.25 83.0842C115.333 82.7577 114.024 81.5083 113.671 79.6063C113.481 78.5855 113.503 77.5643 113.741 76.5495C114.273 74.2769 116.127 72.9522 118.586 73.1731C120.547 73.3494 121.781 74.7819 122.039 76.5782C122.124 77.1736 122.168 77.7698 122.081 78.3681C122.035 78.6805 122.021 78.6925 121.697 78.6942C120.742 78.6985 119.786 78.6955 118.83 78.696ZM115.726 77.1359C117.209 77.1359 118.656 77.1359 120.122 77.1359C120.102 76.8252 120.07 76.5435 119.981 76.2726C119.713 75.4586 119.186 74.9317 118.309 74.8281C117.4 74.7207 116.645 74.9809 116.153 75.8027C115.916 76.199 115.789 76.6334 115.726 77.1359Z" fill="#0755E9"/>
<path d="M88.7802 78.1725C88.8058 77.5943 88.8431 77.0418 88.9796 76.4978C89.5283 74.315 91.1731 73.0674 93.4209 73.1525C95.0914 73.2159 96.3754 73.9246 97.1557 75.4432C97.5207 76.1537 97.6607 76.9245 97.7172 77.7107C97.7651 78.3822 97.7108 79.0495 97.5704 79.7095C97.0953 81.9462 95.4402 83.2443 93.1539 83.1848C92.3103 83.163 91.5134 82.9939 90.7939 82.5368C89.726 81.8584 89.1769 80.8432 88.9227 79.6384C88.8195 79.1475 88.8033 78.6485 88.7802 78.1725ZM95.6264 78.223C95.6136 77.953 95.6131 77.6812 95.5853 77.4124C95.5284 76.8564 95.4034 76.3184 95.1171 75.8284C94.886 75.4325 94.5637 75.1466 94.1318 74.9861C92.8093 74.4943 91.5698 75.0875 91.144 76.4297C90.8996 77.2001 90.8551 77.9936 90.9283 78.7957C90.9775 79.3375 91.0721 79.8683 91.3113 80.363C91.5288 80.812 91.8331 81.1715 92.3094 81.3692C93.587 81.9 94.8547 81.359 95.3367 80.0703C95.5592 79.4745 95.6213 78.8535 95.6264 78.223Z" fill="#0755E9"/>
<path d="M77.2361 73.123C78.5423 73.1389 79.5096 73.3439 80.4161 73.8048C80.8976 74.0496 80.8963 74.0514 80.7123 74.5466C80.6181 74.8004 80.5321 75.0576 80.4289 75.3071C80.3275 75.5519 80.289 75.5682 80.0437 75.4552C79.4981 75.2044 78.9404 74.9882 78.3463 74.8877C77.8554 74.8046 77.3636 74.7083 76.8624 74.8286C76.6514 74.8791 76.4537 74.9544 76.2842 75.0905C75.7809 75.4946 75.7843 76.1597 76.2945 76.5522C76.5568 76.7542 76.8569 76.8864 77.1685 76.993C77.7347 77.1864 78.3022 77.3756 78.8672 77.5712C79.2181 77.6928 79.5528 77.8498 79.8666 78.051C81.3564 79.0054 81.5503 81.0487 80.2702 82.2843C79.7805 82.7568 79.1839 83.0261 78.5269 83.1305C76.9061 83.3881 75.3777 83.1099 73.9649 82.2569C73.6426 82.0626 73.6349 82.037 73.7607 81.6753C73.8545 81.4065 73.9503 81.1382 74.0496 80.8711C74.2007 80.4645 74.2504 80.4431 74.6266 80.6918C75.1915 81.0654 75.7959 81.344 76.4597 81.4827C77.0636 81.609 77.6718 81.6877 78.2765 81.4977C78.6613 81.3766 78.9579 81.1454 79.0932 80.7461C79.2246 80.3583 79.1325 80.0065 78.8244 79.7425C78.6386 79.5832 78.4276 79.4634 78.1961 79.3846C77.6838 79.2109 77.1702 79.0397 76.6561 78.8719C76.2906 78.7525 75.9281 78.6271 75.5772 78.4662C74.5701 78.0039 73.9555 77.2656 73.9525 76.1207C73.9491 74.9412 74.4948 74.0766 75.5391 73.5378C76.1614 73.2168 76.8346 73.1106 77.2361 73.123Z" fill="#0755E9"/>
<path d="M45.3939 73.1285C46.4057 73.138 47.3726 73.3425 48.2799 73.8014C48.7601 74.044 48.7653 74.059 48.5838 74.5474C48.4896 74.8012 48.4002 75.0571 48.2958 75.3062C48.1905 75.557 48.1609 75.5698 47.9127 75.4556C47.367 75.2043 46.8093 74.989 46.2157 74.8876C45.7106 74.8016 45.2035 74.7019 44.6903 74.838C44.267 74.9501 43.919 75.1615 43.812 75.6165C43.7277 75.9752 43.8193 76.2944 44.1296 76.5286C44.4057 76.737 44.7138 76.8821 45.0391 76.9934C45.6049 77.1868 46.1729 77.3751 46.7374 77.5712C47.0879 77.6931 47.4149 77.8648 47.7381 78.0488C49.5305 79.0696 49.1261 81.4219 48.1096 82.3181C47.6118 82.7568 47.0366 83.0286 46.3946 83.1304C44.7733 83.3881 43.2462 83.1086 41.8334 82.2565C41.5248 82.0703 41.5081 82.0313 41.6173 81.7095C41.7226 81.3996 41.833 81.0906 41.9511 80.7854C42.0739 80.4691 42.1125 80.4601 42.4172 80.6416C42.6008 80.7512 42.7771 80.8732 42.965 80.9742C43.7714 81.409 44.6317 81.6247 45.5506 81.6025C45.8112 81.5961 46.0616 81.5447 46.297 81.4394C46.6522 81.2802 46.9116 81.0315 46.9891 80.6301C47.0605 80.2616 46.9638 79.9551 46.6642 79.718C46.4836 79.5751 46.2863 79.4612 46.0693 79.3867C45.5574 79.2117 45.0442 79.0405 44.5298 78.8731C44.1639 78.7541 43.8005 78.6309 43.4508 78.4682C42.433 77.9953 41.8167 77.2566 41.8274 76.0822C41.8385 74.8927 42.4022 74.0534 43.4423 73.5184C43.9785 73.2424 44.6034 73.1294 45.3939 73.1285Z" fill="#0755E9"/>
<path d="M110.309 83.1698C109.655 83.1822 109.047 83.1158 108.457 82.9314C107.035 82.4867 106.146 81.5096 105.722 80.1083C105.355 78.8949 105.34 77.6636 105.681 76.4382C106.204 74.5619 107.552 73.4118 109.49 73.1944C110.506 73.0801 111.51 73.1696 112.493 73.4585C112.909 73.5809 112.922 73.6177 112.778 74.0282C112.683 74.2969 112.585 74.5644 112.483 74.8302C112.356 75.1572 112.332 75.1829 112.019 75.0883C111.578 74.9548 111.124 74.9205 110.671 74.8722C110.3 74.8328 109.93 74.8576 109.566 74.9381C108.971 75.0699 108.49 75.3725 108.15 75.8912C107.897 76.2786 107.72 76.6937 107.637 77.1487C107.488 77.9734 107.49 78.7952 107.729 79.6033C108.043 80.6681 108.86 81.3379 109.96 81.4291C110.674 81.4882 111.383 81.4629 112.071 81.2202C112.424 81.0957 112.444 81.1124 112.572 81.4514C112.689 81.7574 112.801 82.0655 112.906 82.3758C112.998 82.6489 112.985 82.6831 112.708 82.7816C111.92 83.0611 111.104 83.1728 110.309 83.1698Z" fill="#0755E9"/>
<path d="M62.1257 76.1841C62.1257 78.2517 62.1257 80.3194 62.1257 82.3871C62.1257 82.5013 62.1257 82.6152 62.1231 82.7295C62.1201 82.881 62.0457 82.976 61.8907 82.9773C61.3776 82.9811 60.8644 82.9803 60.3512 82.9764C60.2147 82.9756 60.1466 82.8895 60.1394 82.7573C60.1338 82.6575 60.1338 82.5578 60.1338 82.4581C60.1338 78.2659 60.1338 74.0736 60.1338 69.8814C60.1338 69.7958 60.1338 69.7102 60.1368 69.6246C60.1415 69.4765 60.204 69.3768 60.3662 69.3763C60.8794 69.3755 61.3925 69.3751 61.9061 69.3785C62.0427 69.3793 62.112 69.4649 62.1201 69.5968C62.127 69.7106 62.1261 69.8249 62.1261 69.9387C62.1257 72.0201 62.1257 74.1019 62.1257 76.1841Z" fill="#0755E9"/>
<path d="M101.341 74.1193C101.459 74.1676 101.497 74.1197 101.538 74.0833C102.432 73.2825 103.48 73.1289 104.616 73.354C105.199 73.4696 105.201 73.476 104.992 74.0508C104.895 74.3183 104.785 74.5819 104.701 74.8537C104.633 75.0698 104.515 75.1507 104.289 75.1118C104.08 75.0754 103.866 75.0621 103.651 75.0664C102.317 75.093 101.72 75.9327 101.509 76.9466C101.429 77.3382 101.407 77.7367 101.408 78.1373C101.412 79.563 101.409 80.9886 101.409 82.4143C101.409 82.514 101.408 82.6137 101.407 82.7135C101.405 82.8842 101.325 82.981 101.147 82.9805C100.648 82.9801 100.149 82.9805 99.6507 82.9784C99.4962 82.9775 99.4157 82.8911 99.4058 82.7404C99.399 82.6411 99.3981 82.541 99.3981 82.4413C99.3977 79.5899 99.3977 76.7386 99.3981 73.8873C99.3981 73.8017 99.4011 73.7161 99.4011 73.6309C99.4016 73.4328 99.503 73.3566 99.6973 73.3596C100.154 73.366 100.61 73.3651 101.066 73.3604C101.268 73.3583 101.348 73.4554 101.342 73.6485C101.337 73.8141 101.341 73.9789 101.341 74.1193Z" fill="#0755E9"/>
<path d="M56.1298 79.9636C56.1298 80.3479 56.1234 80.7322 56.1328 81.1162C56.1371 81.2886 56.0776 81.3845 55.9042 81.4072C55.088 81.5142 54.2761 81.6974 53.4467 81.5249C53.3773 81.5103 53.3058 81.5022 53.2378 81.4838C52.5076 81.2852 52.1413 80.8769 52.1049 80.2234C52.0582 79.3849 52.3501 78.9051 53.0876 78.6201C53.3812 78.5067 53.6881 78.4463 54.0022 78.4279C54.6292 78.3911 55.2524 78.4407 55.8756 78.5097C56.0801 78.5323 56.1366 78.6226 56.1324 78.8114C56.1234 79.1953 56.1298 79.5796 56.1298 79.9636Z" fill="white"/>
<path d="M66.0619 77.1004C66.1381 76.5042 66.329 75.9516 66.7167 75.4722C67.4743 74.5354 69.5775 74.4365 70.2319 76.0428C70.3504 76.3334 70.4142 76.6398 70.4386 76.9544C70.4497 77.0986 70.3967 77.1667 70.2494 77.1611C70.1643 77.1577 70.0787 77.162 69.9935 77.162C68.8272 77.162 67.6609 77.1633 66.495 77.1603C66.3568 77.1594 66.2113 77.1949 66.0619 77.1004Z" fill="white"/>
<path d="M115.726 77.1358C115.789 76.6333 115.916 76.1989 116.153 75.8026C116.645 74.9808 117.4 74.7206 118.309 74.828C119.186 74.9316 119.713 75.458 119.981 76.2725C120.07 76.5434 120.102 76.8251 120.122 77.1358C118.655 77.1358 117.208 77.1358 115.726 77.1358Z" fill="white"/>
<path d="M95.6265 78.223C95.6209 78.8534 95.5593 79.4744 95.3367 80.0702C94.8548 81.3589 93.5875 81.8995 92.3095 81.3692C91.8336 81.1714 91.5288 80.8119 91.3114 80.3629C91.0717 79.8682 90.9776 79.3379 90.9284 78.7956C90.8552 77.9935 90.8997 77.2 91.1441 76.4296C91.5699 75.0874 92.8094 74.4942 94.1319 74.986C94.5638 75.1465 94.8861 75.4324 95.1172 75.8283C95.4035 76.3184 95.5285 76.8564 95.5854 77.4123C95.6132 77.6811 95.6137 77.9529 95.6265 78.223Z" fill="white"/>
</svg>
