<svg width="160" height="160" viewBox="0 0 160 160" fill="none" xmlns="http://www.w3.org/2000/svg">
<circle cx="80" cy="80" r="80" fill="#0755E9"/>
<path d="M59.3663 67.7389C60.5919 65.1362 61.6914 62.8046 62.7889 60.4709C63.2586 59.4759 63.7412 58.4874 64.1853 57.4817C64.3796 57.0398 64.5888 56.9159 65.0756 57.1038C67.5588 58.0646 70.074 58.94 72.5379 59.9457C73.9791 60.5328 74.7307 61.7157 74.7307 63.2999C74.7371 71.9066 74.7413 80.5133 74.7285 89.1201C74.7243 91.4986 73.0033 93.5867 70.5821 93.9625C69.6384 94.1077 69.5957 94.4878 69.5978 95.2393C69.6192 103.419 69.5914 111.599 69.6384 119.778C69.6448 120.788 69.3416 120.98 68.4043 120.974C62.3213 120.933 56.2383 120.936 50.1575 120.972C49.3248 120.976 49.0985 120.769 49.1027 119.924C49.1369 111.673 49.1177 103.421 49.1326 95.171C49.1348 94.4685 49.107 94.1034 48.191 93.9668C45.6865 93.5974 44.0062 91.4772 44.004 88.945C43.9976 80.445 43.9998 71.9451 44.004 63.4451C44.004 61.658 44.8496 60.4303 46.547 59.7791C48.8337 58.9037 51.1439 58.0817 53.4178 57.1743C54.1267 56.8924 54.3893 57.0995 54.6797 57.7315C56.1743 60.9855 57.7116 64.2181 59.3663 67.7389Z" fill="white"/>
<path d="M83.7088 70.1836C82.6199 70.0427 81.5331 69.8612 80.44 69.7737C79.8571 69.7267 79.8549 69.4022 79.8549 68.9858C79.8592 67.2094 79.8699 65.433 79.8549 63.6566C79.8229 60.2339 78.4073 57.5586 75.4608 55.7651C74.9036 55.4256 74.7007 55.0477 74.7242 54.4029C74.7733 52.9467 74.7605 51.4885 74.7306 50.0323C74.7178 49.4366 74.9185 49.2274 75.5249 49.2316C78.403 49.2551 81.2833 49.2615 84.1615 49.2295C84.8362 49.2231 85.0091 49.4729 84.9963 50.1006C84.9643 51.6998 84.9728 53.299 84.9921 54.8983C85.0241 57.7508 86.792 60.266 89.5826 61.3527C92.4778 62.478 95.215 62.4054 97.5722 60.0823C98.7103 58.9593 99.8525 57.8383 100.959 56.6854C101.375 56.2519 101.644 56.1067 102.146 56.6213C104.178 58.7095 106.256 60.7528 108.318 62.811C108.604 63.0971 108.914 63.3768 108.485 63.7804C107.428 64.7732 106.531 65.9347 105.338 66.7845C105.304 66.6842 105.282 66.5731 105.229 66.4835C105.047 66.176 105.107 65.6892 104.537 65.6721C103.907 65.6529 104.238 66.1739 104.072 66.381C103.632 66.9276 102.968 66.7375 102.376 66.7141C102.165 66.7055 101.894 66.571 101.988 66.3255C102.15 65.8942 102.645 66.2422 102.919 66.0159C102.961 65.9817 102.963 65.8984 103.072 65.5824C95.6869 65.6678 88.3912 65.465 81.089 65.8472C81.7467 66.208 82.447 66.0458 83.1238 66.1077C83.3758 66.1312 83.8007 65.9732 83.7878 66.3981C83.7772 66.7311 83.3907 66.7397 83.1003 66.7418C82.6733 66.7461 82.2463 66.7375 81.8193 66.7461C79.8891 66.776 80.1176 66.4514 80.0663 68.5246C80.0492 69.2271 80.2264 69.479 80.9972 69.5602C81.9047 69.6563 82.9295 69.462 83.7088 70.1836ZM80.2329 65.5504C80.2072 65.6081 80.1517 65.6764 80.1667 65.7169C80.1816 65.7575 80.2713 65.7703 80.3289 65.7959C80.3546 65.7383 80.4101 65.67 80.3951 65.6294C80.378 65.5888 80.2905 65.576 80.2329 65.5504Z" fill="white"/>
<path d="M59.4261 39C63.28 39.0043 66.1667 41.8525 66.1902 45.7086C66.1944 46.4281 66.2863 47.0494 66.7154 47.69C67.4392 48.7639 67.1232 50.0749 65.9318 50.9546C65.208 51.4905 64.7725 52.1417 64.4394 52.9424C64.1832 53.5616 63.8501 54.1594 63.4786 54.7167C61.4545 57.7422 57.2846 57.7358 55.2562 54.7124C54.9615 54.2726 54.6925 53.805 54.4811 53.3203C54.0541 52.3403 53.5524 51.4884 52.6449 50.8073C51.4685 49.9233 51.3425 48.5846 52.1966 47.4124C52.5574 46.9171 52.536 46.4345 52.5382 45.9135C52.5595 41.829 55.38 38.9957 59.4261 39Z" fill="white"/>
<path d="M83.7087 70.1835C82.9294 69.4597 81.9046 69.654 80.995 69.56C80.2242 69.4789 80.047 69.2269 80.0641 68.5245C80.1132 66.4513 79.8847 66.7758 81.817 66.7459C82.244 66.7395 82.6711 66.7459 83.0981 66.7416C83.3863 66.7395 83.7749 66.731 83.7856 66.3979C83.7984 65.9751 83.3735 66.131 83.1216 66.1075C82.4447 66.0456 81.7444 66.2079 81.0868 65.847C88.3868 65.467 95.6847 65.6677 103.07 65.5823C102.961 65.8983 102.959 65.9794 102.916 66.0157C102.643 66.242 102.15 65.8961 101.985 66.3253C101.891 66.5708 102.163 66.7054 102.374 66.7139C102.965 66.7374 103.627 66.9274 104.069 66.3808C104.236 66.1758 103.905 65.6549 104.535 65.672C105.105 65.689 105.045 66.1758 105.227 66.4833C105.28 66.573 105.299 66.684 105.335 66.7844L105.312 66.7694C105.12 66.81 105.062 66.953 105.039 67.1217C104.955 67.205 104.874 67.2861 104.791 67.3694C104.552 67.4014 104.424 67.5423 104.4 67.7815L104.383 67.8049C104.321 67.8754 104.261 67.948 104.2 68.0185C104.142 68.0953 104.086 68.1722 104.029 68.2491C103.834 68.3131 103.779 68.4668 103.766 68.6505L103.76 68.6633C103.7 68.7593 103.642 68.8554 103.583 68.9536C103.595 69.0092 103.58 69.0561 103.536 69.0924C102.893 69.2462 103.213 69.7757 103.123 70.145L103.119 70.1579C102.308 71.2041 102.859 72.4147 102.714 73.542C102.675 73.8495 102.852 74.0801 103.136 74.2146C103.175 74.253 103.183 74.2957 103.162 74.347C103.136 74.5434 103.145 74.7249 103.331 74.8509C103.371 74.8978 103.384 74.9491 103.369 75.0089C103.346 75.2117 103.375 75.3911 103.574 75.4999C103.617 75.5256 103.623 75.5597 103.597 75.6024C103.583 75.7092 103.568 75.8159 103.555 75.9206C102.28 76.3412 101.012 75.8416 99.767 75.7583C97.4632 75.6046 95.232 75.9035 92.9795 76.164C92.766 76.1875 92.7083 76.3625 92.6741 76.544C91.4529 74.9235 90.0415 73.4929 88.3975 72.2994C88.3057 72.2332 88.2139 72.1691 88.1221 72.103C88.0004 72.0304 87.8786 71.9578 87.7548 71.8852C87.6737 71.7101 87.5221 71.6588 87.3449 71.6503L87.3321 71.6439C87.2317 71.5863 87.1335 71.5265 87.0331 71.4688H86.9605L86.9029 71.4261C86.8388 70.9543 86.4972 71.0183 86.1727 71.0482L86.1044 71.0525L86.0488 71.0119C85.9421 70.9521 85.8375 70.8923 85.7307 70.8326L85.6752 70.8539C85.6752 70.8539 85.6282 70.8197 85.6261 70.8197C85.5087 70.6126 85.3165 70.5934 85.1094 70.6212L85.0389 70.6276L84.9813 70.587C84.7272 70.0596 84.2617 70.1621 83.8176 70.1963L83.76 70.2176L83.7087 70.1835ZM86.1748 66.1054C86.0446 66.1054 85.9698 66.0904 85.9015 66.1075C85.5599 66.1929 84.945 65.8855 84.9236 66.3787C84.9023 66.8698 85.5129 66.7032 85.8759 66.7438C85.9464 66.7523 86.019 66.7523 86.0873 66.7438C86.4844 66.6925 87.1677 66.9061 87.1634 66.4C87.1634 65.8534 86.478 66.2271 86.1748 66.1054ZM89.5312 66.7438C89.828 66.6178 90.5646 66.9829 90.5796 66.3744C90.5903 65.8855 89.8857 66.1951 89.5099 66.1054C89.4437 66.0883 89.3647 66.0883 89.2985 66.1054C88.9633 66.1972 88.3462 65.8727 88.3441 66.3979C88.342 66.8676 88.9526 66.7054 89.322 66.7438C89.354 66.7481 89.3903 66.7438 89.5312 66.7438ZM99.8354 66.1054C99.703 66.1054 99.6283 66.0904 99.5621 66.1075C99.2205 66.1929 98.6055 65.8833 98.5884 66.3851C98.5735 66.8676 99.1863 66.7054 99.5514 66.7438C99.6219 66.7502 99.6945 66.7523 99.7628 66.7438C100.16 66.6947 100.845 66.9039 100.835 66.3936C100.828 65.8577 100.143 66.2228 99.8354 66.1054ZM96.3615 66.1054C96.1779 66.1054 96.0669 66.0883 95.9644 66.1097C95.6804 66.1652 95.1851 65.941 95.1658 66.3552C95.1445 66.8399 95.6633 66.7096 95.9921 66.7459C96.0626 66.7523 96.1352 66.7566 96.2035 66.7459C96.6305 66.6776 97.3842 66.9466 97.3949 66.4257C97.4099 65.7808 96.6583 66.2762 96.3615 66.1054ZM92.9752 66.1054C92.798 66.1054 92.6186 66.084 92.4457 66.1097C92.1916 66.1459 91.7646 65.9645 91.7454 66.3531C91.7261 66.7822 92.1681 66.731 92.4734 66.7416C92.8257 66.7545 93.1823 66.7545 93.5346 66.731C93.7823 66.7139 94.0748 66.6562 94.0278 66.3253C93.9894 66.0456 93.7011 66.1267 93.5047 66.1097C93.3296 66.0947 93.1524 66.1054 92.9752 66.1054Z" fill="white"/>
<path d="M92.6746 76.544C92.7087 76.3625 92.7685 76.1874 92.9799 76.164C95.2324 75.9035 97.4637 75.6046 99.7675 75.7583C101.012 75.8416 102.28 76.3433 103.555 75.9206C103.626 75.9227 103.694 75.9248 103.764 75.9227L103.767 75.927C103.767 76.1084 103.818 76.2622 103.999 76.3433C104.689 77.2764 105.406 78.1838 106.335 78.8969C106.431 78.9631 106.527 79.0293 106.625 79.0976C106.683 79.0912 106.73 79.1104 106.766 79.1574C106.85 79.2108 106.935 79.2663 107.018 79.3197C109.399 80.3339 111.91 79.894 114.372 79.9709C115.721 80.0115 115.723 79.9794 115.725 81.3609C115.728 84.0212 115.708 86.6816 115.745 89.3398C115.753 90.0316 115.552 90.2601 114.848 90.2451C112.862 90.2046 110.877 90.2344 108.891 90.2366C109.162 89.9014 109.544 90.0145 109.886 90.0124C111.344 90.0017 112.805 89.9569 114.259 90.0252C115.2 90.07 115.625 89.8394 115.531 88.8039C115.439 87.7812 115.439 86.7371 115.529 85.7144C115.623 84.6468 115.196 84.429 114.203 84.4376C108.583 84.4824 102.966 84.4611 97.3462 84.4568C96.9918 84.4568 96.6053 84.5144 96.2893 84.3991C95.542 84.1258 95.4502 84.4739 95.4353 85.0952C95.4097 86.0325 95.6744 87.0232 95.0232 87.8709C95.3243 85.4752 95.3221 83.0924 94.577 80.7673C94.2674 79.7979 93.8617 78.8606 93.5009 77.9084C93.4453 77.8165 93.392 77.7247 93.3365 77.6351C93.2895 77.603 93.2724 77.5582 93.2852 77.5027C93.2233 77.4023 93.1635 77.3041 93.1016 77.2059L93.0995 77.2016C93.0952 77.0159 93.0418 76.86 92.8475 76.7895C92.7877 76.7063 92.7322 76.6251 92.6746 76.544Z" fill="white"/>
<path d="M85.8824 111.88C85.8354 111.983 85.7885 112.085 85.7415 112.188C85.5707 112.194 85.3999 112.203 85.2291 112.209C83.5615 112.207 81.8876 112.124 80.2265 112.224C78.465 112.329 76.712 111.78 74.957 112.205C74.957 109.999 74.957 107.794 74.9548 105.588C84.6291 105.588 94.3055 105.586 103.98 105.586C104.93 105.586 105.857 105.449 106.76 105.153C106.852 105.125 106.943 105.099 107.035 105.072C107.035 105.072 107.037 105.086 107.035 105.086C107.033 105.236 107.106 105.306 107.253 105.302L107.259 105.298C107.185 105.657 107.323 105.795 107.682 105.716C107.682 105.716 107.678 105.725 107.676 105.725C107.671 105.874 107.744 105.945 107.893 105.941L107.84 106.015L107.889 105.938C107.885 106.088 107.958 106.158 108.107 106.154L108.049 106.19L108.101 106.146C108.096 106.372 108.248 106.432 108.434 106.453L108.446 106.466C108.468 106.686 108.487 106.906 108.508 107.126L108.513 107.113C108.44 107.19 108.365 107.266 108.293 107.341C108.293 107.341 108.303 107.33 108.301 107.33C108.165 107.343 108.09 107.418 108.077 107.555L108.088 107.544C107.951 107.557 107.876 107.632 107.866 107.768C107.866 107.768 107.876 107.758 107.874 107.758C107.738 107.77 107.663 107.845 107.65 107.982L107.661 107.971C107.524 107.986 107.451 108.061 107.439 108.197L107.449 108.187C107.313 108.199 107.238 108.276 107.225 108.411L107.238 108.4C106.971 108.428 106.826 108.575 106.798 108.84H106.805C106.719 108.823 106.632 108.806 106.546 108.789C105.6 108.697 104.68 109.483 103.901 109.286C102.131 108.838 100.382 109.109 98.6291 109.009C97.9822 108.972 97.395 108.4 96.7032 108.797C96.4641 108.81 96.2271 108.823 95.988 108.836C95.9367 108.844 95.8962 108.825 95.8684 108.782C95.7275 108.456 95.4286 108.304 95.1254 108.232C93.3767 107.813 91.6387 107.749 89.9328 108.445C89.0659 108.799 88.135 109.045 87.6097 109.933L87.5521 109.91L87.6119 109.923C87.4688 109.916 87.392 109.984 87.3749 110.123L87.3834 110.113C87.3044 110.183 87.2275 110.256 87.1485 110.326L87.1635 110.313C86.9051 110.35 86.7578 110.495 86.7237 110.755L86.7365 110.74C86.4781 110.792 86.3116 110.92 86.3415 111.212L86.2796 111.172L86.3457 111.201C85.97 111.274 85.9358 111.586 85.8824 111.88Z" fill="white"/>
<path d="M95.0207 87.8731C95.6719 87.0255 95.4093 86.0348 95.4328 85.0975C95.4499 84.474 95.5395 84.1281 96.2868 84.4014C96.605 84.5167 96.9893 84.4591 97.3437 84.4591C102.963 84.4612 108.581 84.4847 114.201 84.4398C115.193 84.4313 115.62 84.6512 115.526 85.7167C115.437 86.7394 115.435 87.7835 115.529 88.8062C115.623 89.8417 115.198 90.0723 114.256 90.0275C112.802 89.9592 111.342 90.004 109.883 90.0147C109.542 90.0168 109.162 89.9036 108.888 90.2388C108.442 90.4951 107.945 90.5762 107.449 90.6659C107.255 90.6616 107.074 90.6872 106.975 90.8879L106.992 90.8773C106.916 90.8773 106.839 90.8773 106.762 90.8773C106.021 90.762 105.585 89.9741 104.765 90.0061C101.868 90.1278 98.9579 89.7713 96.0669 90.2196C95.5609 90.2986 95.1787 90.0659 94.8008 89.7969C94.7965 89.6581 94.7944 89.5214 94.7901 89.3827C94.7816 89.2759 94.773 89.167 94.7645 89.0603C94.7303 89.0176 94.7367 88.9791 94.7837 88.9492C95.0741 88.7549 95.0036 88.4646 94.9823 88.1891C94.9951 88.0802 95.0079 87.9777 95.0207 87.8731Z" fill="white"/>
<path d="M74.7796 101.324C74.6665 99.6399 74.6665 99.6399 76.319 100.016C82.8184 101.495 89.1875 98.8947 92.8215 93.2793C92.973 93.0445 93.1503 92.8267 93.3168 92.6003C93.3317 92.9996 93.2229 93.3391 92.9965 93.6914C92.7382 94.0928 92.1553 94.4921 92.3731 94.9661C92.6699 95.6109 93.3275 95.0429 93.8186 95.1283C94.0598 95.171 94.3054 95.2116 94.5509 95.2201C95.3772 95.2479 96.2248 95.3803 97.0298 95.2543C98.4454 95.0344 99.8781 95.0237 101.257 95.2031C102.175 95.3226 102.931 95.5618 103.559 94.7013C102.938 96.3753 102.891 98.1218 102.906 99.8747C102.953 100.195 103.076 100.473 103.341 100.675C103.384 100.703 103.395 100.739 103.371 100.786C103.429 100.891 103.484 100.996 103.542 101.1C103.589 101.132 103.608 101.177 103.595 101.233C103.58 101.333 103.565 101.433 103.548 101.532C102.641 101.687 102.011 100.876 101.121 100.878C92.672 100.897 84.2233 100.889 75.7746 100.891C75.433 100.891 75.0273 100.801 74.9483 101.32C74.8949 101.324 74.8373 101.324 74.7796 101.324Z" fill="white"/>
<path d="M103.562 94.7033C102.934 95.5617 102.178 95.3247 101.26 95.2051C99.8806 95.0236 98.4479 95.0364 97.0324 95.2563C96.2274 95.3823 95.3819 95.2499 94.5535 95.2222C94.3079 95.2136 94.0624 95.1731 93.8211 95.1304C93.33 95.0428 92.6724 95.6129 92.3756 94.9681C92.1579 94.4941 92.7408 94.0948 92.9991 93.6934C93.2254 93.3433 93.3343 93.0016 93.3194 92.6024L93.3322 92.5767C93.7827 92.5084 93.7336 92.1732 93.7165 91.8551C93.6994 91.7932 93.7186 91.7441 93.7742 91.712C94.2439 91.633 94.1478 91.2765 94.1414 90.9647L94.1222 90.9049L94.1692 90.8622C94.7136 90.7042 94.4489 90.0658 94.8033 89.7947C95.1833 90.0637 95.5634 90.2964 96.0694 90.2174C98.9582 89.7691 101.868 90.1256 104.768 90.0039C105.588 89.9698 106.023 90.7576 106.764 90.8729C106.764 90.9263 106.762 90.9797 106.762 91.0331C106.734 91.0886 106.69 91.1099 106.628 91.0928C106.529 91.159 106.433 91.2273 106.335 91.2935L106.339 91.2893C106.265 91.3448 106.19 91.4024 106.115 91.4579C106.04 91.6159 105.921 91.7099 105.746 91.727C105.658 91.7996 105.573 91.8743 105.485 91.9469L105.5 91.9341C105.423 92.0067 105.347 92.0793 105.27 92.1497L105.276 92.1433C105.203 92.2202 105.131 92.297 105.06 92.3739L105.073 92.359C104.999 92.438 104.926 92.517 104.851 92.596C104.851 92.596 104.868 92.5725 104.868 92.5746C104.794 92.6728 104.719 92.771 104.644 92.8714C104.638 93.0337 104.576 93.1554 104.411 93.2087C103.98 93.2386 103.982 93.5482 103.993 93.8621L103.999 93.8557C103.493 93.9005 103.572 94.272 103.583 94.6051L103.606 94.6606L103.562 94.7033Z" fill="white"/>
<path d="M85.2291 112.211C85.3999 112.205 85.5708 112.196 85.7416 112.19C84.7872 114.159 85.0284 116.272 85.0156 118.35C85.0007 120.987 85.0135 120.987 82.3766 120.987C80.1091 120.987 77.8395 120.965 75.5719 121C74.8738 121.01 74.5663 120.818 74.7499 120.099C74.8054 120.109 74.8631 120.116 74.9207 120.122C74.9079 120.839 75.4225 120.754 75.8837 120.754C77.9377 120.754 79.9917 120.754 82.0478 120.754C84.8 120.754 84.8 120.754 84.7808 117.963C84.7786 116.689 84.7765 115.414 84.7743 114.142C84.8277 114.071 84.879 114.001 84.9323 113.93C85.0327 113.356 85.1309 112.784 85.2291 112.211Z" fill="white"/>
<path d="M74.9208 120.12C74.8632 120.113 74.8076 120.107 74.75 120.096C74.7585 113.838 74.7692 107.58 74.7778 101.324C74.8354 101.324 74.8931 101.324 74.9486 101.324C74.9507 102.746 74.9507 104.168 74.9528 105.59C74.9528 107.796 74.9528 110.002 74.955 112.207C74.9528 114.197 74.9528 116.189 74.9507 118.179C74.9422 118.826 74.9315 119.473 74.9208 120.12Z" fill="white"/>
<path d="M87.6118 109.933C88.1349 109.047 89.0658 108.799 89.9348 108.445C91.6408 107.749 93.3788 107.813 95.1275 108.232C95.4307 108.304 95.7296 108.456 95.8705 108.782C92.9027 107.623 90.1846 108.259 87.6118 109.933Z" fill="white"/>
<path d="M103.134 74.2146C102.85 74.0801 102.673 73.8495 102.712 73.542C102.855 72.4147 102.306 71.204 103.117 70.1578C102.837 71.5115 102.889 72.863 103.134 74.2146Z" fill="white"/>
<path d="M95.99 108.836C96.2291 108.823 96.4661 108.81 96.7053 108.797C96.8718 109.062 97.0362 109.325 97.2027 109.589L97.143 109.651C96.7586 109.38 96.3743 109.109 95.99 108.836Z" fill="white"/>
<path d="M94.8006 89.7948C94.4462 90.0659 94.7088 90.7043 94.1665 90.8623C94.3266 90.367 94.4846 89.8695 94.6448 89.3741C94.6939 89.3784 94.743 89.3806 94.7921 89.3827C94.7942 89.5193 94.7985 89.656 94.8006 89.7948Z" fill="white"/>
<path d="M102.131 113.554C101.875 113.932 101.625 114.347 101.208 113.697L101.266 113.638C101.565 113.757 101.808 113.621 102.052 113.473C102.077 113.501 102.105 113.527 102.131 113.554Z" fill="white"/>
<path d="M83.822 70.1942C84.264 70.16 84.7295 70.0575 84.9857 70.5849C84.5565 70.5764 84.1722 70.4312 83.822 70.1942Z" fill="white"/>
<path d="M103.121 70.1451C103.213 69.7758 102.891 69.2463 103.533 69.0925C103.459 69.4683 103.375 69.8398 103.121 70.1451Z" fill="white"/>
<path d="M103.777 101.525C103.988 101.811 104.2 102.099 104.411 102.386L104.362 102.433C103.948 102.298 103.852 101.927 103.724 101.576L103.777 101.525Z" fill="white"/>
<path d="M103.344 100.678C103.079 100.475 102.955 100.197 102.908 99.8768C103.25 100.037 103.373 100.317 103.344 100.678Z" fill="white"/>
<path d="M108.51 107.13C108.489 106.91 108.47 106.69 108.448 106.47C108.811 106.658 109.034 106.859 108.51 107.13Z" fill="white"/>
<path d="M86.1772 71.0483C86.5018 71.0184 86.8434 70.9544 86.9075 71.4262C86.6064 71.407 86.3779 71.2533 86.1772 71.0483Z" fill="white"/>
<path d="M93.7142 91.855C93.7334 92.1731 93.7803 92.5062 93.3298 92.5767C93.3704 92.2884 93.4985 92.0493 93.7142 91.855Z" fill="white"/>
<path d="M103.991 93.8621C103.98 93.5482 103.978 93.2386 104.409 93.2087C104.345 93.4756 104.223 93.7041 103.991 93.8621Z" fill="white"/>
<path d="M103.581 94.6051C103.57 94.2721 103.491 93.9027 103.997 93.8557C103.944 94.1525 103.8 94.4002 103.581 94.6051Z" fill="white"/>
<path d="M94.139 90.9647C94.1454 91.2765 94.2415 91.633 93.7717 91.712C93.8038 91.4195 93.9212 91.1676 94.139 90.9647Z" fill="white"/>
<path d="M107.684 105.721C107.326 105.8 107.187 105.661 107.262 105.302C107.475 105.37 107.616 105.509 107.684 105.721Z" fill="white"/>
<path d="M85.8823 111.881C85.9378 111.584 85.9699 111.274 86.3521 111.204C86.2752 111.486 86.1343 111.723 85.8823 111.881Z" fill="white"/>
<path d="M86.728 110.757C86.7601 110.497 86.9074 110.352 87.1679 110.315C87.0846 110.527 86.9373 110.672 86.728 110.757Z" fill="white"/>
<path d="M104.398 67.7837C104.422 67.5445 104.55 67.4057 104.789 67.3716C104.733 67.5808 104.599 67.7132 104.398 67.7837Z" fill="white"/>
<path d="M106.8 108.844C106.828 108.579 106.975 108.432 107.24 108.404C107.172 108.629 107.024 108.776 106.8 108.844Z" fill="white"/>
<path d="M105.545 110.136C105.402 110.277 105.261 110.42 105.118 110.561C105.09 110.535 105.064 110.508 105.037 110.482C105.18 110.339 105.321 110.198 105.464 110.055C105.489 110.083 105.517 110.108 105.545 110.136Z" fill="white"/>
<path d="M86.3477 111.214C86.3178 110.922 86.4822 110.794 86.7427 110.743C86.6872 110.965 86.5484 111.114 86.3477 111.214Z" fill="white"/>
<path d="M94.9824 88.1848C95.0037 88.4602 95.0721 88.7506 94.7838 88.9449C94.7796 88.6738 94.7689 88.4005 94.9824 88.1848Z" fill="white"/>
<path d="M103.405 112.275C103.264 112.416 103.126 112.557 102.985 112.698C102.957 112.673 102.931 112.645 102.904 112.619C103.047 112.476 103.188 112.333 103.331 112.192C103.356 112.22 103.382 112.248 103.405 112.275Z" fill="white"/>
<path d="M103.835 111.844C103.692 111.987 103.549 112.132 103.406 112.275C103.382 112.248 103.356 112.22 103.331 112.192C103.472 112.049 103.615 111.906 103.756 111.763C103.783 111.791 103.809 111.816 103.835 111.844Z" fill="white"/>
<path d="M105.037 67.1239C105.062 66.9552 105.12 66.81 105.31 66.7716C105.297 66.9488 105.212 67.0727 105.037 67.1239Z" fill="white"/>
<path d="M103.574 75.5C103.373 75.3911 103.346 75.2117 103.369 75.0089C103.531 75.1327 103.574 75.3078 103.574 75.5Z" fill="white"/>
<path d="M103.764 68.6526C103.777 68.469 103.832 68.3153 104.027 68.2512C103.939 68.3836 103.851 68.5181 103.764 68.6526Z" fill="white"/>
<path d="M106.976 90.8857C107.074 90.685 107.255 90.6594 107.45 90.6636C107.339 90.8366 107.166 90.8793 106.976 90.8857Z" fill="white"/>
<path d="M85.1138 70.619C85.3209 70.5913 85.513 70.6105 85.6305 70.8176C85.4319 70.8197 85.2483 70.7813 85.1138 70.619Z" fill="white"/>
<path d="M103.999 76.3434C103.819 76.2622 103.766 76.1085 103.766 75.927C103.928 76.0188 103.995 76.164 103.999 76.3434Z" fill="white"/>
<path d="M92.843 76.7875C93.0373 76.8579 93.0907 77.0138 93.095 77.1996C92.9199 77.1184 92.8686 76.9604 92.843 76.7875Z" fill="white"/>
<path d="M87.3472 71.6482C87.5244 71.6567 87.676 71.708 87.7571 71.8831C87.5799 71.8745 87.4347 71.8126 87.3472 71.6482Z" fill="white"/>
<path d="M108.436 106.457C108.25 106.436 108.098 106.376 108.103 106.15C108.273 106.19 108.391 106.284 108.436 106.457Z" fill="white"/>
<path d="M103.328 74.8509C103.143 74.7271 103.134 74.5435 103.16 74.347C103.32 74.4794 103.348 74.6588 103.328 74.8509Z" fill="white"/>
<path d="M97.4761 109.961C97.3651 109.858 97.2541 109.756 97.1431 109.653L97.2028 109.592C97.3288 109.679 97.4548 109.767 97.5808 109.854C97.5466 109.888 97.5103 109.922 97.4761 109.961Z" fill="white"/>
<path d="M104.413 102.385C104.513 102.499 104.614 102.61 104.714 102.723C104.682 102.755 104.65 102.787 104.618 102.821C104.533 102.693 104.449 102.563 104.364 102.435L104.413 102.385Z" fill="white"/>
<path d="M101.208 113.697C101.102 113.589 100.995 113.482 100.888 113.373C100.927 113.339 100.963 113.305 100.997 113.268C101.087 113.39 101.176 113.514 101.266 113.636L101.208 113.697Z" fill="white"/>
<path d="M87.0354 71.4668C87.1358 71.5244 87.234 71.5842 87.3343 71.6419C87.234 71.5842 87.1358 71.5244 87.0354 71.4668Z" fill="white"/>
<path d="M88.1223 72.103C88.2141 72.1692 88.3059 72.2333 88.3977 72.2995C88.3059 72.2333 88.2141 72.1671 88.1223 72.103Z" fill="white"/>
<path d="M103.764 75.9227C103.694 75.9227 103.625 75.9227 103.555 75.9206C103.57 75.8138 103.585 75.7092 103.598 75.6024C103.655 75.7092 103.709 75.8159 103.764 75.9227Z" fill="white"/>
<path d="M93.0991 77.2039C93.161 77.3021 93.2208 77.4024 93.2827 77.5006C93.2208 77.4024 93.161 77.3042 93.0991 77.2039Z" fill="white"/>
<path d="M93.334 77.635C93.3895 77.7268 93.4429 77.8186 93.4984 77.9083C93.4429 77.8186 93.3895 77.7268 93.334 77.635Z" fill="white"/>
<path d="M106.625 79.0956C106.529 79.0294 106.433 78.9632 106.335 78.8949C106.433 78.9632 106.529 79.0294 106.625 79.0956Z" fill="white"/>
<path d="M107.018 79.3199C106.935 79.2665 106.85 79.211 106.766 79.1576C106.85 79.211 106.935 79.2643 107.018 79.3199Z" fill="white"/>
<path d="M94.7901 89.3805C94.741 89.3784 94.6919 89.3762 94.6428 89.372C94.6834 89.2673 94.724 89.1627 94.7645 89.0581C94.7731 89.1649 94.7816 89.2738 94.7901 89.3805Z" fill="white"/>
<path d="M106.76 91.0331C106.76 90.9797 106.762 90.9263 106.762 90.8729C106.839 90.8729 106.916 90.8729 106.992 90.8729C106.913 90.9284 106.837 90.9797 106.76 91.0331Z" fill="white"/>
<path d="M106.333 91.2935C106.431 91.2273 106.527 91.159 106.625 91.0928C106.527 91.159 106.431 91.2273 106.333 91.2935Z" fill="white"/>
<path d="M106.113 91.458C106.188 91.4025 106.262 91.3448 106.337 91.2893C106.262 91.347 106.188 91.4025 106.113 91.458Z" fill="white"/>
<path d="M105.483 91.949C105.57 91.8764 105.656 91.8017 105.743 91.7291C105.658 91.8017 105.57 91.8743 105.483 91.949Z" fill="white"/>
<path d="M105.267 92.1518C105.344 92.0792 105.421 92.0066 105.498 91.9362C105.421 92.0066 105.344 92.0792 105.267 92.1518Z" fill="white"/>
<path d="M105.058 92.376C105.131 92.2991 105.203 92.2223 105.274 92.1454C105.201 92.2223 105.129 92.2991 105.058 92.376Z" fill="white"/>
<path d="M107.255 105.306C107.108 105.311 107.035 105.238 107.037 105.091C107.11 105.161 107.183 105.234 107.255 105.306Z" fill="white"/>
<path d="M105.57 103.577C105.641 103.647 105.711 103.718 105.784 103.79C105.752 103.822 105.718 103.854 105.686 103.889C105.615 103.818 105.543 103.746 105.472 103.675C105.504 103.641 105.536 103.609 105.57 103.577Z" fill="white"/>
<path d="M107.898 105.945C107.748 105.951 107.676 105.879 107.68 105.729C107.753 105.802 107.825 105.872 107.898 105.945Z" fill="white"/>
<path d="M108.111 106.158C107.962 106.165 107.889 106.092 107.893 105.943C107.966 106.013 108.039 106.086 108.111 106.158Z" fill="white"/>
<path d="M105.357 103.361C105.427 103.434 105.498 103.504 105.568 103.577C105.536 103.609 105.502 103.641 105.47 103.673C105.4 103.603 105.329 103.53 105.257 103.46C105.291 103.428 105.325 103.395 105.357 103.361Z" fill="white"/>
<path d="M108.295 107.345C108.368 107.269 108.442 107.192 108.515 107.117C108.442 107.194 108.368 107.271 108.295 107.345Z" fill="white"/>
<path d="M108.081 107.561C108.094 107.424 108.169 107.35 108.305 107.337C108.231 107.412 108.156 107.486 108.081 107.561Z" fill="white"/>
<path d="M107.868 107.775C107.88 107.638 107.955 107.563 108.09 107.55C108.017 107.625 107.942 107.7 107.868 107.775Z" fill="white"/>
<path d="M107.652 107.986C107.667 107.852 107.742 107.777 107.876 107.762C107.802 107.837 107.727 107.911 107.652 107.986Z" fill="white"/>
<path d="M105.146 103.148C105.216 103.22 105.286 103.291 105.359 103.363C105.327 103.395 105.293 103.43 105.259 103.462C105.188 103.391 105.116 103.319 105.045 103.248C105.077 103.214 105.111 103.18 105.146 103.148Z" fill="white"/>
<path d="M107.441 108.199C107.454 108.063 107.528 107.988 107.663 107.973C107.588 108.05 107.516 108.125 107.441 108.199Z" fill="white"/>
<path d="M107.227 108.415C107.24 108.278 107.315 108.204 107.451 108.191C107.377 108.264 107.302 108.34 107.227 108.415Z" fill="white"/>
<path d="M106.211 104.215C106.281 104.286 106.354 104.356 106.424 104.427C106.39 104.459 106.358 104.493 106.324 104.527C106.254 104.457 106.181 104.384 106.111 104.314C106.145 104.282 106.179 104.247 106.211 104.215Z" fill="white"/>
<path d="M104.93 102.934C105.003 103.005 105.073 103.077 105.146 103.148C105.114 103.182 105.079 103.214 105.045 103.246C104.975 103.176 104.902 103.103 104.832 103.033C104.864 103.001 104.898 102.968 104.93 102.934Z" fill="white"/>
<path d="M104.714 102.721C104.787 102.791 104.857 102.864 104.93 102.934C104.898 102.966 104.864 103.001 104.832 103.033C104.761 102.962 104.689 102.889 104.618 102.819C104.648 102.787 104.682 102.755 104.714 102.721Z" fill="white"/>
<path d="M106.548 108.791C106.634 108.808 106.719 108.825 106.807 108.842C106.741 108.917 106.676 108.989 106.61 109.064C106.583 109.039 106.553 109.011 106.525 108.985C106.538 108.921 106.546 108.855 106.548 108.791Z" fill="white"/>
<path d="M106.61 109.064C106.54 109.135 106.467 109.207 106.397 109.278C106.369 109.252 106.343 109.224 106.315 109.199C106.386 109.128 106.454 109.056 106.525 108.985C106.552 109.011 106.58 109.039 106.61 109.064Z" fill="white"/>
<path d="M106.395 109.28C106.324 109.352 106.254 109.423 106.183 109.496C106.155 109.47 106.13 109.442 106.102 109.417C106.173 109.346 106.243 109.273 106.316 109.203C106.341 109.226 106.369 109.252 106.395 109.28Z" fill="white"/>
<path d="M106.183 109.493C106.113 109.564 106.042 109.636 105.97 109.707C105.942 109.681 105.914 109.654 105.889 109.626C105.959 109.555 106.03 109.483 106.102 109.412C106.13 109.44 106.156 109.468 106.183 109.493Z" fill="white"/>
<path d="M104.198 68.0206C104.259 67.9502 104.319 67.8776 104.381 67.8071C104.319 67.8776 104.257 67.948 104.198 68.0206Z" fill="white"/>
<path d="M105.97 109.707C105.899 109.777 105.827 109.85 105.756 109.92C105.728 109.893 105.701 109.867 105.675 109.839C105.746 109.769 105.816 109.696 105.889 109.626C105.916 109.653 105.944 109.681 105.97 109.707Z" fill="white"/>
<path d="M87.3792 110.125C87.3962 109.987 87.4731 109.916 87.6161 109.925C87.5371 109.991 87.4582 110.059 87.3792 110.125Z" fill="white"/>
<path d="M97.6896 110.172C97.6191 110.102 97.5465 110.029 97.4761 109.959C97.5102 109.923 97.5465 109.886 97.5807 109.852C97.6512 109.923 97.7237 109.995 97.7942 110.066C97.76 110.102 97.7237 110.136 97.6896 110.172Z" fill="white"/>
<path d="M105.759 109.922C105.688 109.993 105.615 110.065 105.545 110.136C105.519 110.108 105.492 110.083 105.464 110.055C105.534 109.984 105.605 109.912 105.677 109.841C105.703 109.869 105.731 109.895 105.759 109.922Z" fill="white"/>
<path d="M87.1528 110.328C87.2318 110.258 87.3087 110.185 87.3877 110.115C87.3087 110.185 87.2318 110.258 87.1528 110.328Z" fill="white"/>
<path d="M97.903 110.388C97.8326 110.315 97.7621 110.243 97.6917 110.172C97.7258 110.136 97.7621 110.1 97.7984 110.066C97.8689 110.136 97.9393 110.209 98.0119 110.279C97.9714 110.315 97.9372 110.352 97.903 110.388Z" fill="white"/>
<path d="M106.425 104.427C106.495 104.497 106.568 104.57 106.638 104.64C106.604 104.672 106.572 104.706 106.538 104.741C106.467 104.67 106.395 104.6 106.324 104.527C106.358 104.493 106.39 104.459 106.425 104.427Z" fill="white"/>
<path d="M103.58 68.9537C103.64 68.8576 103.698 68.7615 103.758 68.6633C103.698 68.7615 103.638 68.8576 103.58 68.9537Z" fill="white"/>
<path d="M98.1166 110.602C98.0461 110.531 97.9735 110.459 97.9031 110.388C97.9372 110.352 97.9735 110.315 98.0098 110.279C98.0803 110.35 98.1529 110.422 98.2233 110.493C98.187 110.529 98.1508 110.565 98.1166 110.602Z" fill="white"/>
<path d="M98.3281 110.817C98.2576 110.745 98.1872 110.674 98.1167 110.602C98.1509 110.565 98.1872 110.529 98.2235 110.493C98.2939 110.563 98.3644 110.636 98.437 110.706C98.3985 110.742 98.3644 110.779 98.3281 110.817Z" fill="white"/>
<path d="M105.118 110.561C105.047 110.631 104.975 110.704 104.904 110.774C104.877 110.749 104.851 110.721 104.823 110.695C104.894 110.625 104.966 110.552 105.037 110.482C105.065 110.51 105.09 110.535 105.118 110.561Z" fill="white"/>
<path d="M106.64 104.64C106.711 104.713 106.781 104.783 106.852 104.856C106.818 104.888 106.786 104.922 106.751 104.954C106.681 104.884 106.61 104.811 106.54 104.741C106.572 104.706 106.606 104.672 106.64 104.64Z" fill="white"/>
<path d="M98.5416 111.028C98.4712 110.958 98.3986 110.885 98.3281 110.815C98.3623 110.779 98.3986 110.74 98.4349 110.706C98.5053 110.777 98.5779 110.849 98.6484 110.92C98.6121 110.956 98.5779 110.992 98.5416 111.028Z" fill="white"/>
<path d="M104.904 110.774C104.834 110.845 104.763 110.918 104.693 110.988C104.665 110.962 104.637 110.935 104.612 110.907C104.682 110.836 104.755 110.764 104.825 110.693C104.849 110.723 104.877 110.749 104.904 110.774Z" fill="white"/>
<path d="M98.7574 111.24C98.6869 111.169 98.6143 111.099 98.5417 111.029C98.5759 110.992 98.6122 110.956 98.6485 110.92C98.719 110.99 98.7916 111.063 98.862 111.133C98.8279 111.167 98.7916 111.204 98.7574 111.24Z" fill="white"/>
<path d="M104.691 110.99C104.62 111.061 104.548 111.133 104.477 111.204C104.45 111.178 104.422 111.15 104.396 111.123C104.467 111.052 104.539 110.98 104.61 110.909C104.638 110.937 104.663 110.962 104.691 110.99Z" fill="white"/>
<path d="M103.553 101.536C103.568 101.435 103.583 101.335 103.6 101.237C103.659 101.333 103.719 101.429 103.779 101.527L103.726 101.578C103.67 101.553 103.613 101.54 103.553 101.536Z" fill="white"/>
<path d="M98.9708 111.453C98.9004 111.383 98.8278 111.31 98.7573 111.24C98.7915 111.204 98.8278 111.167 98.8641 111.133C98.9345 111.204 99.0071 111.276 99.0776 111.347C99.0413 111.381 99.005 111.417 98.9708 111.453Z" fill="white"/>
<path d="M104.477 111.204C104.407 111.274 104.334 111.347 104.264 111.417C104.236 111.392 104.21 111.364 104.183 111.338C104.253 111.268 104.326 111.195 104.396 111.125C104.424 111.15 104.45 111.176 104.477 111.204Z" fill="white"/>
<path d="M99.1845 111.667C99.114 111.596 99.0414 111.524 98.9709 111.453C99.0051 111.417 99.0393 111.381 99.0756 111.347C99.146 111.417 99.2186 111.49 99.2891 111.56C99.2549 111.594 99.2186 111.631 99.1845 111.667Z" fill="white"/>
<path d="M104.264 111.417C104.193 111.488 104.121 111.56 104.05 111.631C104.022 111.605 103.997 111.577 103.971 111.552C104.042 111.481 104.112 111.409 104.185 111.338C104.21 111.364 104.236 111.389 104.264 111.417Z" fill="white"/>
<path d="M99.3978 111.883C99.3274 111.81 99.2569 111.74 99.1843 111.667C99.2185 111.631 99.2527 111.594 99.289 111.56C99.3594 111.631 99.432 111.703 99.5025 111.774C99.4662 111.808 99.432 111.844 99.3978 111.883Z" fill="white"/>
<path d="M104.05 111.629C103.98 111.699 103.907 111.772 103.837 111.842C103.811 111.814 103.783 111.789 103.758 111.763C103.828 111.693 103.901 111.62 103.971 111.55C103.997 111.577 104.022 111.603 104.05 111.629Z" fill="white"/>
<path d="M99.6115 112.094C99.541 112.024 99.4684 111.951 99.3979 111.881C99.4321 111.844 99.4684 111.808 99.5047 111.774C99.5752 111.844 99.6478 111.917 99.7182 111.987C99.6798 112.021 99.6456 112.058 99.6115 112.094Z" fill="white"/>
<path d="M105.995 104.002C106.066 104.072 106.138 104.145 106.209 104.215C106.177 104.247 106.143 104.279 106.111 104.311C106.04 104.241 105.968 104.171 105.897 104.098C105.931 104.068 105.963 104.036 105.995 104.002Z" fill="white"/>
<path d="M103.544 101.102C103.486 100.998 103.431 100.893 103.373 100.788C103.431 100.893 103.489 100.998 103.544 101.102Z" fill="white"/>
<path d="M99.8248 112.308C99.7544 112.237 99.6839 112.165 99.6113 112.094C99.6455 112.058 99.6797 112.021 99.716 111.987C99.7864 112.058 99.859 112.13 99.9295 112.201C99.8932 112.235 99.859 112.271 99.8248 112.308Z" fill="white"/>
<path d="M104.642 92.8736C104.717 92.7754 104.791 92.6771 104.866 92.5768C104.791 92.675 104.717 92.7732 104.642 92.8736Z" fill="white"/>
<path d="M100.036 112.523C99.9659 112.45 99.8954 112.378 99.825 112.307C99.8591 112.271 99.8954 112.235 99.9296 112.201C100 112.271 100.07 112.344 100.143 112.414C100.107 112.45 100.07 112.487 100.036 112.523Z" fill="white"/>
<path d="M107.035 105.074C106.943 105.101 106.852 105.127 106.76 105.155C106.76 105.086 106.755 105.02 106.749 104.952C106.783 104.92 106.815 104.886 106.849 104.854C106.911 104.928 106.973 105.001 107.035 105.074Z" fill="white"/>
<path d="M100.25 112.737C100.179 112.666 100.107 112.594 100.036 112.523C100.07 112.487 100.107 112.451 100.143 112.414C100.213 112.485 100.286 112.557 100.356 112.628C100.32 112.664 100.284 112.7 100.25 112.737Z" fill="white"/>
<path d="M100.463 112.952C100.393 112.88 100.322 112.809 100.25 112.737C100.284 112.7 100.32 112.664 100.356 112.628C100.427 112.698 100.499 112.771 100.57 112.841C100.533 112.877 100.497 112.914 100.463 112.952Z" fill="white"/>
<path d="M102.985 112.698C102.914 112.769 102.844 112.841 102.771 112.912C102.744 112.886 102.718 112.858 102.69 112.833C102.761 112.762 102.833 112.69 102.904 112.619C102.931 112.647 102.959 112.673 102.985 112.698Z" fill="white"/>
<path d="M100.677 113.166C100.606 113.095 100.534 113.023 100.463 112.952C100.497 112.916 100.534 112.878 100.57 112.843C100.64 112.914 100.713 112.986 100.783 113.057C100.747 113.091 100.711 113.127 100.677 113.166Z" fill="white"/>
<path d="M102.774 112.914C102.703 112.984 102.631 113.057 102.56 113.127C102.532 113.102 102.507 113.074 102.479 113.048C102.549 112.978 102.622 112.905 102.693 112.835C102.718 112.86 102.746 112.886 102.774 112.914Z" fill="white"/>
<path d="M100.886 113.373C100.816 113.302 100.747 113.234 100.677 113.164C100.711 113.127 100.745 113.091 100.784 113.055C100.854 113.125 100.927 113.198 100.997 113.268C100.961 113.305 100.924 113.341 100.886 113.373Z" fill="white"/>
<path d="M102.56 113.127C102.49 113.198 102.417 113.271 102.347 113.341C102.319 113.315 102.293 113.288 102.265 113.262C102.336 113.192 102.408 113.119 102.479 113.048C102.505 113.074 102.532 113.1 102.56 113.127Z" fill="white"/>
<path d="M85.7329 70.8306C85.8397 70.8903 85.9443 70.9501 86.051 71.0099C85.9464 70.9523 85.8397 70.8925 85.7329 70.8306Z" fill="white"/>
<path d="M102.346 113.341C102.274 113.411 102.203 113.484 102.131 113.554C102.105 113.527 102.077 113.501 102.052 113.475C102.122 113.405 102.195 113.332 102.265 113.262C102.291 113.288 102.319 113.313 102.346 113.341Z" fill="white"/>
<path d="M104.849 92.5981C104.923 92.5191 104.996 92.4401 105.071 92.3611C104.996 92.4401 104.921 92.5191 104.849 92.5981Z" fill="white"/>
<path d="M105.782 103.788C105.853 103.859 105.925 103.931 105.996 104.002C105.964 104.034 105.929 104.066 105.897 104.098C105.827 104.027 105.754 103.955 105.684 103.884C105.718 103.855 105.75 103.82 105.782 103.788Z" fill="white"/>
<path d="M80.2329 65.5503C80.2906 65.5759 80.3781 65.5887 80.3952 65.6293C80.4123 65.6699 80.3546 65.7382 80.329 65.7958C80.2714 65.7702 80.1838 65.7574 80.1667 65.7168C80.1518 65.6763 80.2094 65.6079 80.2329 65.5503Z" fill="white"/>
<path d="M86.1749 66.1054C86.4781 66.2271 87.1635 65.8534 87.1678 66.4C87.1721 66.9061 86.4867 66.6925 86.0917 66.7438C86.0212 66.7523 85.9486 66.7523 85.8803 66.7438C85.5173 66.7032 84.9067 66.8719 84.928 66.3787C84.9494 65.8855 85.5622 66.1908 85.9059 66.1075C85.97 66.0904 86.0447 66.1054 86.1749 66.1054Z" fill="white"/>
<path d="M89.5316 66.7439C89.3906 66.7439 89.3543 66.746 89.3202 66.7439C88.9529 66.7055 88.3402 66.8677 88.3423 66.398C88.3466 65.8728 88.9615 66.1973 89.2967 66.1055C89.3629 66.0884 89.4397 66.0884 89.5081 66.1055C89.8839 66.1952 90.5906 65.8856 90.5778 66.3745C90.565 66.983 89.8283 66.6179 89.5316 66.7439Z" fill="white"/>
<path d="M99.8356 66.1054C100.143 66.225 100.828 65.8577 100.837 66.3936C100.846 66.9039 100.16 66.6947 99.7652 66.7438C99.6947 66.7523 99.6221 66.7523 99.5538 66.7438C99.1887 66.7054 98.5759 66.8676 98.5908 66.3851C98.6079 65.8833 99.2228 66.1929 99.5645 66.1075C99.6307 66.0905 99.7032 66.1054 99.8356 66.1054Z" fill="white"/>
<path d="M96.3617 66.1055C96.6563 66.2763 97.41 65.781 97.3972 66.4236C97.3865 66.9446 96.6328 66.6777 96.2058 66.7439C96.1375 66.7546 96.0649 66.7525 95.9944 66.7439C95.6656 66.7097 95.1468 66.8379 95.1681 66.3532C95.1852 65.939 95.6827 66.1653 95.9667 66.1076C96.067 66.0884 96.178 66.1055 96.3617 66.1055Z" fill="white"/>
<path d="M92.9753 66.1054C93.1525 66.1054 93.3297 66.0947 93.5048 66.1097C93.7013 66.1267 93.9874 66.0456 94.0279 66.3253C94.0749 66.6562 93.7803 66.7139 93.5347 66.731C93.1824 66.7545 92.828 66.7523 92.4736 66.7417C92.1682 66.731 91.7263 66.7844 91.7455 66.3531C91.7626 65.9666 92.1917 66.146 92.4458 66.1097C92.6187 66.084 92.7981 66.1054 92.9753 66.1054Z" fill="white"/>
<path d="M105.686 103.887C105.756 103.957 105.829 104.03 105.899 104.1C105.97 104.171 106.042 104.241 106.113 104.314C106.183 104.384 106.256 104.457 106.326 104.527C106.397 104.598 106.469 104.668 106.54 104.741C106.61 104.811 106.681 104.884 106.751 104.954C106.758 105.023 106.76 105.089 106.762 105.157C105.859 105.454 104.932 105.59 103.984 105.59C94.3098 105.588 84.6334 105.59 74.9591 105.593C74.957 104.171 74.957 102.749 74.9548 101.327C75.0338 100.808 75.4395 100.897 75.7811 100.897C84.2298 100.895 92.6785 100.904 101.127 100.885C102.018 100.883 102.647 101.694 103.555 101.538C103.615 101.542 103.672 101.557 103.728 101.579C103.854 101.929 103.952 102.3 104.366 102.435C104.452 102.563 104.535 102.693 104.62 102.821C104.691 102.892 104.763 102.964 104.834 103.035C104.904 103.105 104.977 103.178 105.047 103.248C105.118 103.319 105.19 103.391 105.261 103.462C105.331 103.532 105.402 103.605 105.474 103.675C105.543 103.744 105.613 103.816 105.686 103.887Z" fill="white"/>
<path d="M74.9526 118.179C74.9548 116.189 74.9548 114.197 74.9569 112.207C76.712 111.782 78.4649 112.331 80.2264 112.226C81.8875 112.126 83.5615 112.209 85.229 112.211C85.1308 112.784 85.0326 113.356 84.9344 113.928C84.881 113.998 84.8297 114.069 84.7764 114.139C84.7785 115.414 84.7806 116.689 84.7806 117.961C84.1657 118.211 83.5145 118.299 82.8761 118.444C81.5843 118.738 80.3374 118.239 79.0991 118.439C77.6792 118.67 76.3063 118.745 74.9526 118.179Z" fill="white"/>
<path d="M102.265 113.26C102.195 113.33 102.122 113.403 102.052 113.473C101.808 113.621 101.565 113.757 101.266 113.638C101.176 113.514 101.087 113.392 100.997 113.268C100.926 113.198 100.854 113.125 100.783 113.055C100.713 112.984 100.64 112.912 100.57 112.841C100.499 112.771 100.427 112.698 100.356 112.628C100.286 112.557 100.213 112.485 100.143 112.414C100.072 112.344 100.002 112.271 99.9294 112.201C99.8589 112.13 99.7863 112.058 99.7159 111.987C99.6454 111.917 99.5728 111.844 99.5023 111.774C99.4319 111.703 99.3593 111.631 99.2888 111.56C99.2184 111.49 99.1458 111.417 99.0753 111.347C99.0049 111.276 98.9323 111.204 98.8618 111.133C98.7913 111.063 98.7187 110.99 98.6483 110.92C98.5778 110.849 98.5052 110.777 98.4348 110.706C98.3643 110.636 98.2939 110.563 98.2213 110.493C98.1508 110.422 98.0782 110.35 98.0077 110.279C97.9373 110.209 97.8668 110.136 97.7942 110.066C97.7238 109.995 97.6512 109.923 97.5807 109.852C97.4548 109.765 97.3288 109.677 97.2028 109.589C97.0363 109.325 96.8719 109.06 96.7053 108.797C97.395 108.402 97.9821 108.972 98.6312 109.009C100.384 109.109 102.133 108.838 103.903 109.286C104.682 109.483 105.6 108.699 106.548 108.789C106.546 108.855 106.538 108.919 106.525 108.983C106.454 109.054 106.386 109.126 106.316 109.197C106.245 109.267 106.175 109.34 106.102 109.41C106.032 109.481 105.961 109.553 105.889 109.624C105.818 109.694 105.745 109.767 105.675 109.837C105.605 109.908 105.534 109.98 105.461 110.051C105.318 110.194 105.178 110.335 105.034 110.478C104.964 110.548 104.891 110.621 104.821 110.691C104.75 110.762 104.678 110.834 104.607 110.905C104.537 110.975 104.464 111.048 104.394 111.118C104.323 111.189 104.251 111.261 104.18 111.332C104.11 111.402 104.037 111.475 103.967 111.545C103.896 111.616 103.824 111.688 103.753 111.759C103.612 111.902 103.469 112.045 103.328 112.186C103.185 112.329 103.045 112.47 102.901 112.613C102.831 112.683 102.758 112.756 102.688 112.826C102.617 112.897 102.545 112.969 102.474 113.04C102.406 113.119 102.336 113.189 102.265 113.26Z" fill="white"/>
<path d="M74.9527 118.179C76.3063 118.745 77.6792 118.67 79.0991 118.442C80.3375 118.241 81.5844 118.741 82.8761 118.446C83.5124 118.301 84.1657 118.213 84.7807 117.964C84.7999 120.754 84.7999 120.754 82.0477 120.754C79.9937 120.754 77.9397 120.754 75.8836 120.754C75.4245 120.754 74.9078 120.84 74.9206 120.122C74.9313 119.473 74.942 118.826 74.9527 118.179Z" fill="white"/>
<path d="M84.7744 114.139C84.8278 114.069 84.8812 113.999 84.9324 113.928C84.8812 113.999 84.8278 114.069 84.7744 114.139Z" fill="white"/>
</svg>
