<svg width="160" height="160" viewBox="0 0 160 160" fill="none" xmlns="http://www.w3.org/2000/svg">
<circle cx="80" cy="80" r="80" fill="#0755E9"/>
<path d="M33.3035 98.6497C33.4408 98.5485 33.4553 98.3895 33.4697 98.2449C33.86 97.5512 34.2358 96.8574 34.4815 96.0913C34.8429 95.4192 35.2114 94.7544 35.4788 94.0389C35.645 93.7571 35.7968 93.4752 35.8546 93.1428C36.1076 92.8392 36.2665 92.4851 36.346 92.0949C36.7652 91.4517 37.047 90.7362 37.3361 90.0352C37.524 89.6594 37.7047 89.2836 37.8926 88.9006C37.9215 88.8572 37.9504 88.8066 37.9865 88.7633C38.001 88.7127 38.0082 88.6693 38.0227 88.6188C38.0444 88.5971 38.066 88.5898 38.0949 88.5898C38.3118 88.6838 38.2684 88.8428 38.1744 88.9873C37.365 90.1798 37.3795 91.7697 36.3316 92.8537C36.2738 92.9115 36.2521 93.0199 36.2232 93.1066C35.739 94.5665 34.9585 95.889 34.2792 97.2476C33.4408 98.9387 32.8049 100.579 33.8528 102.393C33.9323 102.53 34.0334 102.682 33.8166 102.798C33.7805 102.791 33.7516 102.791 33.7155 102.791C33.6287 102.646 33.5492 102.494 33.4625 102.35C33.2313 101.728 33.0795 101.092 33 100.427C33.0072 99.8204 33.1734 99.235 33.3035 98.6497Z" fill="white"/>
<path d="M33.99 103.065C33.9322 102.979 33.8744 102.892 33.8094 102.805C34.0262 102.689 33.925 102.538 33.8455 102.4C32.7976 100.586 33.4336 98.9387 34.2719 97.2548C34.9512 95.8889 35.7317 94.5664 36.2159 93.1138C36.2448 93.0271 36.2593 92.9259 36.3243 92.8609C37.3722 91.7769 37.3578 90.1942 38.1672 88.9945C38.2683 88.85 38.3045 88.691 38.0877 88.597C38.131 88.5103 38.1744 88.4164 38.2177 88.3296C38.3334 88.3369 38.4562 88.3369 38.5213 88.2212C39.0127 87.3251 39.4246 86.3784 39.8872 85.4678C40.169 84.9041 40.5231 84.2898 40.4798 83.596L40.4725 83.6105C40.6388 83.5599 40.646 83.437 40.6243 83.2925C40.6098 83.2564 40.6171 83.2275 40.6532 83.2058C40.6821 83.148 40.711 83.0829 40.7472 83.0251H40.7399C41.0651 83.0107 41.1952 82.7866 41.3325 82.5265C42.1419 80.9655 43.0236 79.4478 44.3172 78.2192C44.5196 78.0241 44.7219 77.8362 44.693 77.5182C44.8592 77.5038 44.9532 77.4098 44.9676 77.2364C45.5024 77.0991 45.9288 76.8317 46.0806 76.2608C46.124 76.2174 46.1745 76.174 46.2179 76.1307C46.731 76.0439 47.1935 75.8922 47.3381 75.3068C48.1908 75.0755 48.8485 74.5697 49.405 73.9048C49.4555 73.8614 49.4989 73.8181 49.5495 73.7747C49.788 73.7386 50.0843 73.847 50.2649 73.6302C50.7275 73.0592 51.3345 72.7702 52.0283 72.575C52.3752 72.4739 52.6715 72.2354 52.7438 71.8235C52.7944 71.7801 52.8377 71.7367 52.8883 71.6934C53.4231 71.7367 53.7772 71.3609 54.1891 71.1297C54.6372 70.8695 54.8396 71.0791 54.9191 71.4838C55.1648 72.7919 55.3671 74.0999 55.6417 75.4008C55.8875 76.5787 56.3066 77.735 56.4439 78.9202C56.5812 80.1055 56.957 81.2401 57.116 82.4108C57.2967 83.7044 57.7448 84.9258 57.8965 86.2266C58.0194 87.2528 58.2796 88.2501 58.7059 89.1969C58.6843 89.8906 58.8649 90.5555 58.9733 91.2348C59.0456 91.6829 58.9227 92.1599 59.2263 92.5646C59.4214 92.832 59.3853 92.579 59.4286 92.4779C59.5153 92.4923 59.5948 92.4995 59.6816 92.514C60.0068 92.4995 60.1513 92.3405 60.0501 92.0153C59.9995 91.8563 59.9634 91.7118 59.9923 91.5456C60.2669 89.9051 60.5271 88.2574 60.8017 86.6169C61.2137 84.1308 61.5606 81.6376 62.0809 79.1732C62.3555 77.8651 61.8641 76.9401 61.0691 76.0729C60.7873 75.7549 60.5922 75.4586 60.6716 75.0322C61.4955 74.6997 61.9219 74.071 62.0448 73.211C62.3989 73.1893 62.7674 73.1821 62.4711 72.6618C62.4711 72.5678 62.4639 72.4739 62.4639 72.3799C62.5217 72.351 62.5723 72.3221 62.6301 72.3004C62.6157 72.286 62.6084 72.2643 62.594 72.2498C61.8352 71.744 61.1631 71.0935 60.2453 70.8551C60.1369 70.6455 59.9417 70.5371 59.7538 70.3998C59.3347 70.0962 58.9372 69.7782 58.4819 69.5109C57.9254 69.1856 57.4412 68.7448 56.7764 68.6292C56.7691 68.5425 56.7691 68.4485 56.7619 68.3618C56.7619 68.3184 56.7619 68.2678 56.7619 68.2245C56.7619 67.9932 56.7619 67.7619 56.7619 67.5235C56.7619 67.3717 56.7836 67.2055 56.6318 67.0971C56.8486 65.9191 56.1476 64.9796 55.8007 63.9534C55.6345 63.4692 55.7068 62.8983 55.2298 62.5152C54.4638 61.8937 54.2397 60.9831 53.9651 60.087C53.7844 59.5016 53.7989 58.8946 53.6544 58.3309C53.4592 57.5937 53.7772 57.2396 54.3554 56.9722C54.5794 56.871 54.8901 56.6831 54.7817 56.5097C54.3915 55.8737 54.7962 54.9993 54.1313 54.4717C54.1313 53.7779 54.1313 53.0769 54.1313 52.3832C54.0952 52.3398 54.0591 52.2964 54.0302 52.2531C54.0518 52.1519 54.0735 52.0507 54.0952 51.9568C54.4059 51.9785 54.3843 51.74 54.4421 51.5448C54.7239 50.5331 54.9986 49.5213 55.714 48.6975C55.9814 48.3939 56.3355 48.1265 56.3572 47.664C56.8486 47.5845 57.0365 47.2738 57.0654 46.8185C57.369 46.8546 57.5641 46.6233 57.7954 46.5005C58.0555 46.3632 58.1784 46.0091 58.5036 45.9946C59.1395 45.9585 59.3708 45.5176 59.5659 45.019C59.7755 44.9973 59.9923 45.019 60.1802 44.9539C61.9219 44.3469 63.6708 44.0144 65.4992 44.5854C66.7856 44.9828 68.0431 45.4092 68.8525 46.5872C69.0115 46.8185 69.2355 46.9991 69.5535 46.9485C69.5535 47.0786 69.5824 47.187 69.7341 47.2087C69.7703 47.2087 69.8064 47.2232 69.8281 47.2448C69.9582 47.758 70.652 47.5845 70.8326 48.0976C70.9699 48.4734 71.3457 48.6758 71.7504 48.7697C71.9311 49.7526 72.2997 50.6848 72.343 51.7111C72.4153 53.2648 72.1046 54.7608 71.8733 56.2712C71.8444 56.4591 71.7432 56.6326 72.0323 56.6831C72.0829 56.7843 72.1046 56.9578 72.1768 56.9795C73.0151 57.2107 72.979 57.8178 72.8851 58.4899C72.7116 59.7979 72.2563 61.012 71.7432 62.2045C71.7071 62.284 71.6493 62.4141 71.5915 62.4213C70.7676 62.508 70.8037 63.1729 70.6592 63.7438C70.493 64.4087 70.2111 65.0374 69.9437 65.6662C69.5173 66.649 69.8931 67.7547 69.5246 68.752C69.1271 68.8821 68.614 68.752 68.3321 69.1278C67.9563 69.6265 67.4432 69.8867 66.9229 70.154C66.6844 70.2769 66.5037 70.4214 66.4604 70.6961C65.5281 70.9851 64.7476 71.5777 63.9093 72.0475C63.772 72.1198 63.8587 72.2932 63.996 72.3799C63.996 72.4594 63.996 72.5389 63.996 72.6184C64.1478 73.3845 64.6031 73.912 65.2896 74.2517L65.2968 74.2589C65.1523 74.6275 65.3113 74.8732 65.6004 75.0828C65.7594 75.1984 66.0051 75.3646 65.8027 75.5814C65.398 76.015 65.333 76.6727 64.8994 77.0413C64.2995 77.5471 64.2562 78.1831 64.4296 78.7974C65.0584 81.0088 65.2101 83.2997 65.6076 85.5473C65.9617 87.5636 66.4676 89.5727 66.4098 91.654C66.4026 92.0153 66.4893 92.4634 67.0096 92.5357C67.0385 92.5935 67.0674 92.6513 67.0963 92.7019C67.118 92.6441 67.1469 92.5863 67.1686 92.5285C67.7251 91.2854 68.0069 89.9412 68.2237 88.6332C68.5345 86.7542 69.1488 84.933 69.315 83.0323C69.3728 82.3964 69.7703 81.7893 69.4957 81.1244C69.5101 81.0305 69.5318 80.9438 69.5462 80.8498C69.7558 80.8281 69.7703 80.6764 69.8136 80.5102C70.0232 79.7875 70.1461 79.0431 70.3268 78.3204C70.8182 76.3186 71.2084 74.295 71.577 72.2643C71.6493 71.874 71.801 71.4982 71.8733 71.108C71.9962 70.4793 72.5237 71.4404 72.8778 71.0935L72.8706 71.1008C72.914 71.2381 73.0224 71.2598 73.1452 71.2598C73.0368 72.0547 73.5933 71.6283 73.8968 71.6645C74.3883 71.9391 74.8797 72.2209 75.3783 72.4956C76.8888 73.4856 78.4281 74.4396 79.8229 75.5959C79.7795 75.8994 79.9457 76.0006 80.2203 76.0006C80.2492 76.2535 80.4444 76.2608 80.6395 76.2752C80.6756 76.5137 80.8346 76.716 80.719 77.0051C80.6323 77.2219 80.7335 77.3665 81.0008 77.1713C81.2466 76.9979 81.4055 77.193 81.5934 77.3303C81.8247 77.4893 81.9331 77.8579 82.3017 77.8073C82.2945 78.1831 82.4824 78.3638 82.8509 78.3638C82.8726 78.5517 82.8871 78.7468 83.1328 78.7757C83.1617 78.9492 83.0966 79.1587 83.2701 79.2888C84.1807 79.9898 84.3469 81.2256 85.1997 81.9772C85.2575 82.0278 85.2575 82.1507 85.3008 82.2302C85.7128 83.0396 86.1247 83.849 86.5366 84.6584C87.2593 86.0604 88.1193 87.3974 88.6469 88.9006C88.7697 89.2402 88.9143 89.6594 89.384 89.7389C89.5358 90.5483 89.9116 91.2637 90.3307 91.9575C90.6343 92.4562 90.9667 92.9548 91.1474 93.5041C91.263 93.8582 91.4437 94.0389 91.7328 94.1906C91.805 95.5637 92.3759 96.113 93.7274 96.1274C95.3534 96.1419 96.965 96.3876 98.5838 96.5177C99.1258 96.561 99.6823 96.6478 100.217 96.4454C100.311 96.4526 100.398 96.4526 100.492 96.4599C100.55 96.6694 100.636 96.7417 100.781 96.5177C101.099 96.5394 101.417 96.561 101.742 96.5827C101.771 96.7417 101.872 96.814 102.031 96.8212C103.924 96.9585 105.825 97.0958 107.719 97.2476C109.106 97.3632 110.494 97.5728 111.889 97.6089C112.669 97.6306 113.211 98.2594 113.97 98.2232C114.028 98.3678 114.057 98.5412 114.151 98.6641C114.721 99.4229 114.837 100.189 114.432 101.085C114.281 101.425 113.825 101.634 113.963 102.097C113.327 102.147 112.806 102.653 112.192 102.639C109.973 102.588 107.791 103.065 105.579 103.08C104.546 103.087 103.513 103.289 102.472 103.224C102.371 103.217 102.27 103.311 102.168 103.354C101.027 103.347 99.8847 103.557 98.7501 103.564C97.8684 103.571 97.0156 103.997 96.1122 103.694C95.9171 103.629 95.6642 103.737 95.4907 103.904C95.1727 103.904 94.8548 103.904 94.5296 103.904C94.2694 103.643 94.1104 103.81 93.9659 104.041C93.1203 104.091 92.2748 104.041 91.422 104.156C90.497 104.279 89.5213 104.279 88.6469 103.86C88.206 103.651 87.7652 103.484 87.3027 103.354C85.9223 102.01 84.9467 100.348 83.7904 98.8303C83.2845 98.1654 82.8148 97.4933 82.1644 96.9658C82.1499 96.7056 82.0054 96.5755 81.7597 96.5321C81.6729 96.0696 81.4995 95.636 81.1743 95.318C80.6612 94.8194 80.2348 94.2701 79.8662 93.6631C79.7289 93.439 79.5482 93.1933 79.2086 93.2439C79.1363 93.2945 79.064 93.3451 78.9918 93.4029C78.7099 93.4968 78.7027 93.4968 78.6955 93.7787C78.6666 95.1373 78.6521 96.496 78.5871 97.8619C78.4859 99.8204 78.3486 101.779 78.3341 103.73C78.3124 106.455 77.9656 109.165 78.0089 111.882C78.0306 113.038 77.8933 114.187 77.8572 115.336C77.8499 115.575 77.821 115.886 77.503 115.792C76.8671 115.611 76.2672 115.857 75.653 115.857C64.8632 115.864 54.0807 115.857 43.291 115.871C42.9008 115.871 42.6478 115.756 42.4455 115.416C42.272 115.141 42.1708 114.744 41.7156 114.766H41.7228C41.7445 114.491 41.7083 114.252 41.3614 114.216C41.0796 114.014 41.1302 113.616 40.8772 113.4C40.8989 113.212 40.8194 113.103 40.6315 113.067C40.646 112.713 40.552 112.417 40.2051 112.251C40.104 112.027 40.0606 111.752 39.9016 111.586C39.3957 111.058 39.2512 110.242 38.543 109.88C38.4996 109.837 38.4562 109.786 38.4129 109.743C38.3767 109.497 38.4562 109.237 38.2756 109.013C37.4083 107.98 36.7362 106.802 35.963 105.696C35.8329 105.508 35.7462 105.277 35.4499 105.327L35.4571 105.334C35.486 104.352 34.6477 103.846 34.2213 103.109C34.2285 103.051 34.084 103.08 33.99 103.065ZM49.0075 111.795C49.0508 111.846 49.0942 111.896 49.1448 111.947L49.1954 111.954L49.246 111.947C49.4194 111.889 49.5061 111.795 49.4917 111.593C49.3544 109.526 49.2171 107.459 49.2604 105.385C49.2604 105.248 49.2676 105.103 49.2532 104.973C48.9063 102.632 48.8196 100.261 48.7473 97.9052C48.6895 96.2358 48.5377 94.5737 48.4366 92.9115C48.4149 92.5646 48.545 92.0443 48.0535 92.0153C47.6344 91.9937 47.5187 92.514 47.3381 92.8537C47.2875 92.9476 47.3164 93.0777 47.3092 93.1933C47.0056 93.2439 46.8177 93.4535 46.6804 93.692C45.9577 94.9856 45.0688 96.1636 44.2377 97.3849C43.7102 98.1582 43.0164 98.8736 42.8646 99.8637C42.4166 100.052 42.0841 100.464 42.2503 100.861C42.4527 101.352 42.655 101.909 43.1465 102.249C43.1609 102.552 43.1248 102.892 43.5584 102.95C43.7824 103.925 44.2594 104.727 45.0833 105.313C45.0977 105.739 45.0761 106.18 45.647 106.281C45.6759 106.577 45.6903 106.888 46.0661 106.975C46.0734 107.04 46.0589 107.12 46.0806 107.177C46.4925 108.37 47.4103 109.273 47.8873 110.429C47.9596 110.61 48.1475 110.581 48.3065 110.567H48.2992C48.292 110.69 48.3137 110.805 48.451 110.856L48.4438 110.849C48.4727 111.268 48.5016 111.687 49.0219 111.81C49.0219 111.795 49.0075 111.795 49.0075 111.795Z" fill="white"/>
<path d="M33.99 103.065C34.0839 103.072 34.2285 103.051 34.2502 103.094C34.6765 103.824 35.5076 104.337 35.486 105.32C35.1752 104.915 34.8644 104.511 34.5537 104.113C34.3658 103.766 34.1779 103.419 33.99 103.065Z" fill="white"/>
<path d="M35.4858 105.313C35.7821 105.262 35.8689 105.494 35.9989 105.681C36.7722 106.787 37.4371 107.965 38.3115 108.999C38.4922 109.215 38.4127 109.483 38.4489 109.728L38.42 109.75C38.1815 109.613 38.167 109.266 37.8779 109.172L37.8852 109.186C37.8707 109.071 37.8563 108.962 37.7334 108.905C37.6394 108.76 37.5527 108.616 37.4588 108.471C36.9095 107.351 36.0062 106.455 35.4858 105.313Z" fill="white"/>
<path d="M126.379 75.8343C126.09 76.0872 125.728 75.921 125.417 75.9933C124.673 76.0367 123.921 75.7982 123.192 76.1234C123.098 76.5353 122.996 76.9545 122.902 77.3664C122.664 77.9445 122.418 78.5299 122.18 79.1081C122.035 78.884 122.173 78.6672 122.201 78.4432C122.281 77.7494 122.758 77.193 122.809 76.4992C122.859 75.7765 123.43 75.5814 123.972 75.6392C124.731 75.7187 125.49 75.6609 126.249 75.697C126.285 75.7476 126.335 75.7909 126.379 75.8343Z" fill="white"/>
<path d="M127.188 74.1722C127.209 74.7142 127.397 75.3068 126.682 75.5887L126.646 75.5526C127.094 73.9337 127.014 72.3077 126.689 70.6816C126.899 70.6889 127.022 70.819 127.101 70.9924C127.274 71.7295 127.188 72.4739 127.173 73.2183C127.029 73.529 127.014 73.847 127.188 74.1722Z" fill="white"/>
<path d="M127.188 74.1722C127.022 73.8543 127.029 73.5363 127.181 73.2111C127.253 73.529 127.246 73.847 127.188 74.1722Z" fill="white"/>
<path d="M126.379 75.8345C126.335 75.7911 126.285 75.7477 126.241 75.7044C126.335 75.5454 126.501 75.5671 126.646 75.5526L126.682 75.5887C126.653 75.755 126.559 75.8417 126.379 75.8345Z" fill="white"/>
<path d="M41.7446 114.758C42.1999 114.737 42.3011 115.134 42.4745 115.409C42.6841 115.741 42.9298 115.864 43.32 115.864C54.1098 115.857 64.8923 115.857 75.682 115.85C76.2963 115.85 76.8961 115.604 77.5321 115.785C77.8501 115.871 77.879 115.568 77.8862 115.329C77.9223 114.18 78.0596 113.031 78.0379 111.875C77.9946 109.15 78.3415 106.447 78.3632 103.723C78.3776 101.772 78.5149 99.8132 78.6161 97.8547C78.6884 96.4961 78.7028 95.1374 78.7245 93.7716C78.7317 93.4897 78.739 93.4897 79.0208 93.3958C79.0208 93.9378 79.0208 94.4798 79.0136 95.0218C79.0064 95.3904 78.9919 95.7589 78.9847 96.1275C78.869 96.8213 78.8618 97.5151 78.8763 98.2161C78.8474 98.7075 78.8257 99.1989 78.7968 99.6904C78.7028 100.586 78.6884 101.483 78.7173 102.379C78.5149 103.065 78.5872 103.766 78.6016 104.46C78.5511 105.385 78.5077 106.31 78.4571 107.235C78.4571 107.698 78.4499 108.167 78.4499 108.63C78.2692 109.317 78.3198 110.018 78.327 110.719C78.2909 111.405 78.2548 112.099 78.2258 112.785C78.1319 113.436 78.1608 114.094 78.1753 114.744C78.1536 114.968 78.0885 115.199 78.1102 115.423C78.1608 115.922 77.9079 116.059 77.4815 116.023C76.7805 116.023 76.0867 116.023 75.3857 116.023C74.6919 116.023 73.9981 116.023 73.3043 116.023C72.6106 116.023 71.9096 116.023 71.2158 116.023C70.522 116.023 69.8282 116.023 69.1344 116.023C68.3901 116.023 67.6529 116.016 66.9086 116.016C66.3015 116.016 65.7017 116.016 65.0946 116.016C64.3502 116.016 63.6131 116.023 62.8687 116.023C62.175 116.023 61.4812 116.023 60.7874 116.023C60.0503 116.023 59.3059 116.023 58.5687 116.023C57.9183 116.023 57.2751 116.023 56.6247 116.03C55.9309 116.03 55.2299 116.03 54.5361 116.03C53.8424 116.03 53.1486 116.03 52.4548 116.03C51.7104 116.03 50.9733 116.023 50.2289 116.023C49.6219 116.023 49.022 116.023 48.415 116.023C47.6778 116.023 46.9335 116.03 46.1963 116.03C45.5026 116.03 44.8088 116.03 44.115 116.03C43.4357 115.879 42.6046 116.334 42.1059 115.503C41.9758 115.3 41.853 115.098 41.7229 114.896C41.7446 114.845 41.7446 114.802 41.7446 114.758Z" fill="white"/>
<path d="M58.7132 89.1824C58.2869 88.2356 58.0195 87.2311 57.9038 86.2121C57.7521 84.9185 57.2968 83.6899 57.1233 82.3963C56.9643 81.2256 56.5885 80.0982 56.4512 78.9057C56.3139 77.7205 55.8948 76.5642 55.649 75.3863C55.3817 74.0854 55.1793 72.7701 54.9264 71.4693C54.8469 71.0646 54.6517 70.855 54.1964 71.1152C53.7845 71.3464 53.4304 71.7295 52.8956 71.6789L52.8667 71.65C52.9751 71.5488 53.0835 71.4476 53.1847 71.3464C53.6472 71.0935 54.1097 70.8478 54.5722 70.5948C54.818 70.5081 54.9697 70.5876 55.0275 70.8406C55.1938 71.6283 55.36 72.416 55.5334 73.2037C55.6201 73.8108 55.6852 74.4251 55.9237 75.0032C56.1549 76.6004 56.5235 78.1686 56.9137 79.7296C56.9354 80.4089 57.1089 81.0521 57.2968 81.6953C57.3763 82.3602 57.5136 83.0106 57.7087 83.6466C57.7665 84.297 57.9038 84.933 58.1134 85.5545C58.3374 86.7397 58.5687 87.9321 58.7927 89.1173C58.7638 89.1462 58.7349 89.1679 58.7132 89.1824Z" fill="white"/>
<path d="M67.0386 92.5285C66.5183 92.4562 66.4244 92.0081 66.4388 91.6468C66.5039 89.5655 65.9907 87.5636 65.6366 85.5401C65.2464 83.2925 65.0946 81.0016 64.4586 78.7902C64.2852 78.1759 64.3286 77.5399 64.9284 77.0341C65.362 76.6655 65.427 76.0078 65.8318 75.5742C66.0341 75.3574 65.7884 75.1912 65.6294 75.0756C65.3331 74.866 65.1813 74.6203 65.3259 74.2517C65.6294 74.5986 65.9257 74.9455 66.2292 75.2924C65.9907 76.0584 65.3837 76.6221 65.0946 77.352C64.4659 78.0747 64.9718 78.8408 65.0079 79.5851C65.1235 80.2934 65.2319 81.0016 65.3476 81.7098C65.3981 82.3603 65.4849 82.9962 65.6655 83.625C65.7161 84.4416 65.8679 85.2438 66.0341 86.0387C66.1064 86.5302 66.1714 87.0144 66.2437 87.5058C66.2292 87.6214 66.2148 87.7298 66.3304 87.8021V87.8166C66.4966 89.392 66.7496 90.953 67.0603 92.5068L67.0386 92.5285Z" fill="white"/>
<path d="M47.3092 93.1934C47.3164 93.0778 47.2875 92.9477 47.3381 92.8537C47.5188 92.5213 47.6344 91.9937 48.0535 92.0154C48.5377 92.0371 48.4149 92.5647 48.4366 92.9115C48.5377 94.5737 48.6895 96.2359 48.7473 97.9053C48.8268 100.261 48.9063 102.632 49.2532 104.973C49.2749 105.111 49.2677 105.248 49.2604 105.385C49.2171 107.459 49.3544 109.526 49.4917 111.593C49.5061 111.795 49.4194 111.889 49.246 111.947C49.1882 111.073 49.1231 110.198 49.0653 109.324C49.0653 109.143 49.0581 108.955 49.0581 108.775C49.1087 108.659 49.1304 108.551 49.0581 108.442C49.0292 108.276 49.0075 108.11 48.9786 107.936C48.9714 107.466 49.087 106.982 48.8846 106.52L48.8919 106.505C48.8702 105.082 48.8341 103.665 48.6823 102.249C48.7256 101.96 48.7184 101.678 48.6462 101.396C48.5594 99.7337 48.4727 98.0788 48.3932 96.4166C48.3498 95.6289 48.3065 94.8339 48.2559 94.0462C48.2559 93.9956 48.2559 93.9522 48.2631 93.9016C48.2993 93.6053 48.3354 93.3163 48.2053 93.0344C48.1836 92.8031 48.162 92.5719 48.133 92.225C47.8223 92.6369 47.591 92.9477 47.367 93.2512L47.3092 93.1934Z" fill="white"/>
<path d="M60.6716 75.0178C60.5921 75.4442 60.78 75.7405 61.0691 76.0585C61.8568 76.9329 62.3555 77.8508 62.0809 79.1588C61.5605 81.6232 61.2209 84.1165 60.8017 86.6025C60.5271 88.243 60.2669 89.8907 59.9923 91.5312C59.9634 91.6975 60.0068 91.8492 60.0501 92.001C60.1513 92.319 60.0068 92.4852 59.6815 92.4996C59.6743 91.618 59.9273 90.7652 59.9995 89.8835C60.0935 89.2475 60.1947 88.6116 60.2886 87.9756C60.4837 87.2312 60.5849 86.4652 60.6499 85.6991C60.6572 85.6052 60.6644 85.5185 60.6716 85.4245C60.7078 85.4028 60.7078 85.3739 60.6789 85.3378C60.8595 84.9186 60.8595 84.4706 60.8812 84.0297C60.8957 83.9358 60.9029 83.8491 60.9173 83.7551C61.1775 83.1047 61.1703 82.4037 61.2931 81.7316C61.4521 80.9728 61.5967 80.2212 61.6328 79.4479C61.6834 78.7469 62.2543 78.017 61.5172 77.3521C61.3437 76.9835 61.1342 76.6366 60.8306 76.3548C60.715 75.9501 60.3103 75.6899 60.2814 75.2419C60.397 75.1551 60.5199 75.0684 60.6355 74.9817L60.6716 75.0178Z" fill="white"/>
<path d="M54.1313 54.4501C54.7962 54.9777 54.3914 55.8521 54.7817 56.4881C54.8829 56.6543 54.5793 56.8422 54.3553 56.9506C53.7772 57.218 53.4664 57.5721 53.6543 58.3092C53.7988 58.8729 53.7844 59.4872 53.9651 60.0654C54.2397 60.9615 54.4709 61.8721 55.2298 62.4936C55.7067 62.8766 55.6345 63.4476 55.8007 63.9318C56.1476 64.958 56.8486 65.8975 56.6318 67.0754C56.6318 67.2272 56.6029 67.3934 56.7619 67.5018C56.7619 67.7331 56.7619 67.9644 56.7619 68.2028C56.7474 68.2173 56.7113 68.239 56.7113 68.239C56.7257 68.2751 56.7474 68.304 56.7619 68.3402C56.7691 68.4269 56.7691 68.5208 56.7763 68.6075C56.7546 68.6365 56.7257 68.6581 56.704 68.687C56.4077 68.5786 56.5017 68.3185 56.4945 68.1089C56.4728 67.7259 56.48 67.3428 56.4728 66.9598C56.6462 66.1793 56.1982 65.5867 55.844 64.9724C55.6561 64.3076 55.6634 63.4259 55.2298 63.0356C54.6372 62.5081 54.3842 61.8649 54.0012 61.2506C53.994 61.0988 53.9795 60.9471 53.8567 60.8387C53.7988 60.658 53.7483 60.4773 53.6904 60.2966C53.5676 59.7402 53.4375 59.1837 53.3146 58.6272C53.3291 57.7961 53.1484 56.8639 54.3481 56.6182C54.4637 56.5965 54.377 56.423 54.3192 56.3291C54.2252 55.7003 54.1241 55.0716 54.0301 54.4429C54.059 54.4429 54.0951 54.4501 54.1313 54.4501Z" fill="white"/>
<path d="M89.4202 89.7388C88.9504 89.6593 88.7987 89.2401 88.6831 88.9005C88.1483 87.3973 87.2955 86.0603 86.5728 84.6583C86.1536 83.8489 85.7417 83.0395 85.337 82.2301C85.2936 82.1506 85.2936 82.0277 85.2358 81.9771C84.3831 81.2327 84.2096 79.997 83.3063 79.2887C83.1328 79.1514 83.1979 78.9491 83.1689 78.7756L83.1979 78.7467C83.4291 78.8262 83.4797 79.1297 83.7399 79.1731C83.8194 79.2237 83.8989 79.267 83.9856 79.3176C83.9711 79.4043 83.9061 79.52 83.9422 79.5706C84.9251 80.8208 85.6911 82.2084 86.4066 83.6176C86.7968 84.3981 87.0931 85.2292 87.7074 85.8796C87.7869 86.6168 88.2783 87.1588 88.5963 87.7803C88.8999 88.409 89.2034 89.0378 89.5069 89.6665C89.478 89.6882 89.4491 89.7099 89.4202 89.7388Z" fill="white"/>
<path d="M69.5464 68.7449C69.9222 67.7475 69.5392 66.6418 69.9655 65.659C70.2402 65.0302 70.5148 64.4015 70.681 63.7366C70.8255 63.1657 70.7822 62.5008 71.6133 62.4141C71.6711 62.4069 71.7289 62.2768 71.765 62.1973C72.2781 60.9976 72.7262 59.7835 72.9069 58.4827C73.0008 57.8034 73.037 57.2035 72.1987 56.9723C72.1264 56.9506 72.0975 56.7771 72.0541 56.676C72.0686 56.6615 72.0902 56.6398 72.1047 56.6254C72.6178 56.5459 72.9141 56.8711 73.1887 57.218C73.2032 57.3119 73.2176 57.4059 73.2321 57.5071C73.2032 57.5504 73.2104 57.5938 73.2393 57.6371C73.2465 57.7745 73.2538 57.919 73.261 58.0563C73.1743 58.9018 72.9358 59.7185 72.7479 60.5423C72.4155 61.3084 72.1842 62.1178 71.6277 62.7682C71.4181 62.8549 71.2086 62.9417 71.1724 63.2163C71.0279 64.2497 70.5076 65.1531 70.0884 66.0854C69.9005 66.7575 70.0523 67.4368 70.0234 68.1161C70.0089 68.4558 69.9366 68.6943 69.5897 68.781L69.5464 68.7449Z" fill="white"/>
<path d="M72.9068 71.0935C72.5527 71.4404 72.0251 70.4792 71.9023 71.1079C71.83 71.491 71.6782 71.874 71.6059 72.2642C71.2374 74.295 70.8471 76.3185 70.3557 78.3204C70.175 79.0503 70.0522 79.7874 69.8426 80.5101C69.792 80.6763 69.7775 80.8281 69.5752 80.8498C69.6547 80.3872 69.7342 79.9175 69.8065 79.455C69.951 78.7612 70.0883 78.0746 70.2328 77.3809C70.428 76.7377 70.5653 76.0872 70.6375 75.4151C70.6592 75.3718 70.6592 75.3357 70.652 75.2923C70.6665 75.2272 70.6809 75.1622 70.6954 75.0972C70.811 75.0032 70.8038 74.8731 70.7893 74.743C70.8038 74.6491 70.8182 74.5624 70.8327 74.4684C70.9628 74.3528 70.9483 74.1938 70.9338 74.042C70.9483 73.9698 70.9555 73.8903 70.97 73.818C71.2229 72.8857 71.4325 71.9462 71.5698 70.9923C71.6565 70.5153 71.8444 70.313 72.2925 70.6888C72.4804 70.8405 72.6972 70.9562 72.9068 71.0935Z" fill="white"/>
<path d="M69.5247 81.1172C69.7993 81.7821 69.4018 82.3891 69.344 83.0251C69.1778 84.9258 68.5635 86.7397 68.2527 88.6259C68.0359 89.934 67.7541 91.2782 67.1976 92.5212L67.1687 92.4923C67.3205 91.6178 67.4722 90.7506 67.6168 89.8762C67.8336 89.1968 67.9637 88.4958 68.0432 87.7948C68.2672 87.1299 68.39 86.4506 68.484 85.7568L68.4984 85.7352C68.5924 85.6484 68.5996 85.54 68.5707 85.4244C68.6791 84.8824 68.7875 84.3331 68.9032 83.7911C69.0188 83.2708 69.1344 82.7505 69.25 82.2301C69.2717 82.1 69.2862 81.97 69.3079 81.8399C69.5247 81.6375 69.3151 81.3195 69.5247 81.1172Z" fill="white"/>
<path d="M69.5606 46.9413C69.2427 46.9919 69.0186 46.8113 68.8596 46.58C68.043 45.3948 66.7927 44.9756 65.5064 44.5782C63.678 44.0072 61.9291 44.3397 60.1874 44.9467C59.9995 45.0118 59.7755 44.9901 59.5731 45.0118L59.5442 44.9829C60.5632 44.3035 61.7339 44.159 62.9047 44C62.9914 44 63.0781 44.0072 63.1649 44.0072C63.4033 44.0072 63.6346 44.0072 63.8731 44.0072C64.1043 44.0145 64.3356 44.0145 64.5596 44.0217C64.6464 44.0361 64.7403 44.0434 64.827 44.0578C65.5642 44.2891 66.3013 44.5276 67.0385 44.7588L67.0457 44.7371C67.1035 44.86 67.2119 44.8889 67.3348 44.8817L67.3203 44.8672C67.3203 44.9612 67.3853 44.9901 67.4648 44.9973C68.0285 45.402 68.6211 45.785 69.1053 46.2909C69.2571 46.5005 69.4089 46.7245 69.5606 46.9413Z" fill="white"/>
<path d="M114.013 98.2087C113.254 98.2449 112.712 97.6161 111.932 97.5945C110.537 97.5583 109.157 97.3487 107.762 97.2331C105.869 97.0813 103.968 96.944 102.074 96.8067C101.915 96.7923 101.814 96.7272 101.785 96.5682C102.147 96.5755 102.515 96.5755 102.877 96.5827C103.527 96.7056 104.177 96.7778 104.835 96.785C105.442 96.8284 106.042 96.879 106.649 96.9224C107.343 96.9802 108.037 97.1247 108.738 97.0741C109.424 97.2259 110.125 97.2548 110.826 97.2259C111.506 97.4427 112.228 97.3415 112.915 97.4644C113.124 97.5294 113.334 97.5945 113.544 97.6595C113.731 97.8113 113.912 97.9558 114.1 98.1076C114.071 98.1509 114.042 98.1798 114.013 98.2087Z" fill="white"/>
<path d="M102.205 103.347C102.306 103.304 102.407 103.21 102.508 103.217C103.549 103.289 104.575 103.08 105.616 103.072C107.827 103.051 110.01 102.581 112.228 102.632C112.843 102.646 113.37 102.133 113.999 102.09L114.035 102.126C113.956 102.205 113.883 102.292 113.804 102.371C113.5 102.494 113.197 102.617 112.893 102.747C112.2 102.812 111.506 102.87 110.805 102.935C110.386 102.95 109.974 102.964 109.554 102.979C108.586 103.065 107.61 103.152 106.642 103.231C105.847 103.296 105.045 103.231 104.272 103.477C103.715 103.492 103.166 103.506 102.609 103.521C102.472 103.513 102.335 103.499 102.198 103.492C102.205 103.441 102.205 103.398 102.205 103.347Z" fill="white"/>
<path d="M82.2005 96.9586C82.851 97.4862 83.3207 98.1583 83.8266 98.8232C84.9829 100.341 85.9657 102.003 87.3389 103.347C87.3099 103.376 87.2883 103.405 87.2594 103.427C86.6667 103.094 86.2331 102.581 85.8284 102.054C85.019 100.991 84.2024 99.9361 83.3857 98.881C83.3207 98.7942 83.2557 98.7075 83.1834 98.6208C83.1039 98.4257 82.9883 98.2667 82.8148 98.1438C82.7064 97.8114 82.4679 97.5801 82.2294 97.3416C82.1861 97.2477 82.1427 97.1465 82.0994 97.0526C82.1427 97.0164 82.1716 96.9875 82.2005 96.9586Z" fill="white"/>
<path d="M42.8647 99.8636C43.0165 98.8736 43.7103 98.1581 44.2379 97.3848C45.0689 96.1635 45.9578 94.9855 46.6805 93.6919C46.8178 93.4534 47.0057 93.2438 47.3093 93.1932L47.3599 93.2366C47.2442 93.4462 47.1286 93.6558 47.013 93.8653C46.7022 94.2556 46.4131 94.6531 46.2036 95.1084C45.9217 95.4047 45.6832 95.7299 45.5315 96.1129C45.517 96.3297 45.3652 96.4598 45.2135 96.5899C45.1701 96.6621 45.1195 96.7344 45.0762 96.7994V96.785C44.8955 96.9151 44.7654 97.0741 44.751 97.3053L44.7437 97.3126C44.4691 97.5221 44.2957 97.804 44.1945 98.1292C44.1656 98.1436 44.1439 98.1653 44.1294 98.1942C43.891 98.3894 43.7537 98.6495 43.6163 98.9169C43.3779 99.2421 43.1466 99.5601 42.9081 99.8853C42.9081 99.907 42.8647 99.8636 42.8647 99.8636Z" fill="white"/>
<path d="M72.0465 56.676C71.7574 56.6326 71.8586 56.4591 71.8875 56.264C72.126 54.7536 72.4295 53.2576 72.3573 51.7039C72.3067 50.6776 71.9453 49.7454 71.7646 48.7625L71.7936 48.7408C72.1549 49.1239 72.1766 49.6659 72.444 50.0923C72.4584 50.1501 72.4657 50.2151 72.4801 50.2729C72.4873 50.3669 72.5018 50.4608 72.509 50.5548C72.4946 50.7499 72.4801 50.945 72.6102 51.1185C72.5885 51.1618 72.5957 51.2052 72.6319 51.2486C72.7186 53.0625 72.5307 54.8548 72.1043 56.6254C72.0754 56.647 72.0609 56.6615 72.0465 56.676Z" fill="white"/>
<path d="M40.74 83.0251C40.9713 82.5265 41.2025 82.0351 41.441 81.5364C41.6 81.2618 41.7518 80.9872 41.9107 80.7125C42.2649 80.3367 42.5467 79.9104 42.8069 79.4623C42.8358 79.4189 42.8575 79.3756 42.8864 79.3322C43.0309 79.2238 43.1465 79.0865 43.1827 78.9058L43.1682 78.9203C43.2188 78.8769 43.2694 78.8336 43.32 78.7902C43.3633 78.7396 43.4139 78.689 43.4573 78.6384V78.6457C43.7102 78.4722 43.9054 78.2482 44.0427 77.9808L44.0282 77.9663C44.0716 77.9157 44.1149 77.8579 44.1583 77.8073L44.1511 77.8218C44.3896 77.8218 44.4763 77.5761 44.6642 77.4966L44.7003 77.5255C44.7292 77.8435 44.5269 78.0314 44.3173 78.2265C43.0237 79.4551 42.142 80.9727 41.3326 82.5337C41.1953 82.7867 41.0652 83.0107 40.74 83.0251Z" fill="white"/>
<path d="M100.26 96.4383C99.7257 96.6407 99.1692 96.554 98.6272 96.5106C97.0084 96.3805 95.3968 96.1348 93.7707 96.1203C92.4193 96.1059 91.8412 95.5567 91.7761 94.1835L91.805 94.1619C91.9712 94.4076 92.1375 94.6605 92.3037 94.9062C92.4771 95.6217 92.9035 95.9686 93.6551 95.8602C93.8069 95.8385 93.9659 95.8674 94.1249 95.8746L94.1682 95.9035H94.2188C94.4212 96.0047 94.6307 95.983 94.8403 95.9686C96.04 96.0553 97.2469 96.142 98.4465 96.2287C98.6778 96.236 98.9163 96.2432 99.1475 96.2504C99.5016 96.46 99.9064 96.2938 100.26 96.4383Z" fill="white"/>
<path d="M87.3461 103.347C87.8086 103.484 88.2495 103.643 88.6903 103.853C89.5647 104.272 90.5404 104.279 91.4654 104.149C92.3182 104.034 93.1637 104.077 94.0093 104.034C94.0093 104.07 94.0093 104.113 94.0093 104.149C93.6552 104.308 93.236 104.077 92.8963 104.323C92.7084 104.33 92.5205 104.337 92.3399 104.344C91.5449 104.25 90.7644 104.424 89.9839 104.453C89.89 104.453 89.796 104.446 89.7021 104.446C89.5937 104.431 89.4925 104.417 89.3841 104.409C88.6397 104.164 87.8664 103.976 87.2666 103.427C87.2883 103.398 87.3172 103.376 87.3461 103.347Z" fill="white"/>
<path d="M91.7765 94.1906C91.4874 94.0461 91.3067 93.8582 91.1911 93.5041C91.0104 92.9549 90.678 92.4562 90.3745 91.9575C89.9553 91.2565 89.5795 90.5483 89.4277 89.7389C89.4566 89.7172 89.4783 89.6955 89.5072 89.6666C89.9336 90.4399 90.3528 91.2132 90.7792 91.9792C91.1188 92.7091 91.4657 93.4391 91.8054 94.1617L91.7765 94.1906Z" fill="white"/>
<path d="M102.204 103.347C102.204 103.398 102.204 103.441 102.204 103.492C101.539 103.564 100.882 103.636 100.217 103.708C99.5809 103.781 98.9232 103.694 98.2945 103.889C97.6007 103.882 96.9069 103.86 96.2276 104.034C96.1337 104.026 96.0397 104.019 95.953 104.005C95.8301 103.882 95.6711 103.911 95.5266 103.904C95.7001 103.737 95.953 103.629 96.1481 103.694C97.0515 103.998 97.9043 103.571 98.7859 103.564C99.9278 103.549 101.062 103.34 102.204 103.347Z" fill="white"/>
<path d="M38.4346 87.6721C38.9766 86.5447 39.5331 85.4173 40.0606 84.2754C40.1763 84.0225 40.2847 83.784 40.4798 83.5889C40.5231 84.2899 40.1763 84.8969 39.8872 85.4606C39.4247 86.3784 39.0127 87.3179 38.5213 88.2141C38.4563 88.3297 38.3334 88.3297 38.2178 88.3225C38.2828 88.1418 38.3406 87.9684 38.4057 87.7877C38.449 87.7588 38.4563 87.7226 38.4346 87.6721Z" fill="white"/>
<path d="M54.0952 51.928C54.0735 51.3643 54.3625 50.8656 54.4565 50.3308L54.4782 50.3092C54.4999 50.2513 54.5215 50.2007 54.5432 50.1429C54.5649 50.0996 54.5794 50.0562 54.5721 50.0129C54.9407 49.413 55.3093 48.806 55.6778 48.2061C55.8441 47.9604 55.9886 47.7003 56.256 47.5413C56.2921 47.5702 56.321 47.6063 56.3572 47.6352C56.3355 48.0977 55.9814 48.3579 55.714 48.6687C54.9913 49.4925 54.7239 50.5043 54.4348 51.516C54.3842 51.7112 54.4059 51.9569 54.0952 51.928Z" fill="white"/>
<path d="M114.006 102.09C113.869 101.627 114.324 101.418 114.476 101.078C114.881 100.182 114.765 99.4157 114.194 98.6569C114.1 98.534 114.071 98.3678 114.013 98.216C114.042 98.1871 114.071 98.151 114.1 98.1221C114.599 98.375 114.729 98.8953 114.982 99.329C114.989 99.4229 115.004 99.5169 115.011 99.6108C115.069 100.601 114.924 101.511 114.042 102.133L114.006 102.09Z" fill="white"/>
<path d="M79.2449 93.2368C79.5845 93.1862 79.7652 93.4319 79.9025 93.656C80.2711 94.263 80.6975 94.8123 81.2106 95.3109C81.5358 95.6289 81.7165 96.0697 81.796 96.525L81.7526 96.5684C81.7165 96.5539 81.6803 96.5467 81.637 96.5467C81.6008 96.4961 81.5647 96.4455 81.5286 96.3877C81.4997 96.2359 81.4202 96.1275 81.2612 96.0842L81.2539 96.077C81.2034 96.0047 81.1528 95.9252 81.095 95.8529C81.0588 95.7084 80.9866 95.5928 80.8348 95.5422L80.842 95.5566C80.842 95.4338 80.7842 95.3398 80.6758 95.2892L80.683 95.2965C80.5602 95.0002 80.3723 94.7617 80.1338 94.5521C80.0471 94.3786 79.9097 94.2558 79.7291 94.1835C79.7074 94.0968 79.6929 94.0101 79.6713 93.9306C79.5267 93.6921 79.3822 93.4608 79.2449 93.2368Z" fill="white"/>
<path d="M56.7836 68.6075C57.4412 68.7304 57.9327 69.164 58.4891 69.4892C58.9444 69.7566 59.3419 70.0674 59.7611 70.3781C59.949 70.5154 60.1441 70.6238 60.2525 70.8334C60.2236 70.8623 60.1947 70.8912 60.1658 70.9201C60.1007 70.8985 60.0285 70.884 59.9634 70.8623C59.6454 70.5443 59.2841 70.2986 58.8433 70.1758C58.229 69.5398 57.3617 69.2652 56.7041 68.687C56.733 68.6581 56.7547 68.6365 56.7836 68.6075Z" fill="white"/>
<path d="M52.7441 71.8162C52.679 72.2281 52.3755 72.4666 52.0286 72.5678C51.3348 72.7629 50.7278 73.0592 50.2653 73.6229C50.0846 73.8469 49.7955 73.7313 49.5498 73.7674L49.5137 73.7313C49.7305 73.5579 49.9473 73.3844 50.1641 73.2037L50.2219 73.1965L50.2291 73.1387C50.9735 72.6906 51.7106 72.2426 52.455 71.8017C52.5273 71.7801 52.5923 71.7584 52.6646 71.7367C52.7007 71.7656 52.7224 71.7873 52.7441 71.8162Z" fill="white"/>
<path d="M48.3138 110.559C48.1548 110.574 47.9669 110.603 47.8946 110.422C47.4104 109.273 46.4998 108.362 46.0879 107.17C46.0662 107.105 46.0734 107.033 46.0734 106.968C46.0951 106.953 46.1096 106.932 46.1312 106.917C46.2902 107.127 46.442 107.336 46.601 107.546C46.6805 107.77 46.7744 107.987 46.9696 108.146C47.0924 108.355 47.208 108.565 47.3309 108.774C47.6561 109.302 47.9813 109.83 48.3065 110.357C48.2993 110.429 48.3065 110.494 48.3138 110.559Z" fill="white"/>
<path d="M66.4893 70.6888C66.5326 70.4142 66.7061 70.2696 66.9518 70.1468C67.4721 69.8794 67.9852 69.612 68.361 69.1205C68.6429 68.7447 69.156 68.8748 69.5535 68.7448L69.5896 68.7809C69.5245 68.8532 69.4667 68.9254 69.4017 68.9905C69.315 69.0483 69.2282 69.1061 69.1415 69.1639C68.4405 69.5758 67.7106 69.9444 67.1108 70.5153C66.9229 70.5876 66.735 70.6671 66.5471 70.7394L66.4893 70.6888Z" fill="white"/>
<path d="M59.5658 45.0117C59.3707 45.5104 59.1394 45.9512 58.5034 45.9874C58.1782 46.0091 58.0554 46.3632 57.7952 46.4933C57.5567 46.6161 57.3688 46.8474 57.0653 46.8112L57.0364 46.7823C57.1809 46.6089 57.3327 46.4282 57.4772 46.2548C58.0265 45.9151 58.5612 45.561 59.0455 45.1274C59.2117 45.0768 59.3707 45.0262 59.5369 44.9684C59.5369 44.9828 59.5658 45.0117 59.5658 45.0117Z" fill="white"/>
<path d="M64.9645 71.9103C64.5815 71.932 64.3502 72.2572 64.0178 72.3728C63.8805 72.2861 63.801 72.1199 63.9311 72.0404C64.7694 71.5706 65.5499 70.978 66.4822 70.689L66.5255 70.7396C66.381 70.8624 66.2365 70.9925 66.0919 71.1154C65.8318 71.5417 65.1886 71.4261 64.9645 71.9103Z" fill="white"/>
<path d="M45.0835 105.306C44.2596 104.72 43.7826 103.911 43.5586 102.942C43.5803 102.921 43.602 102.906 43.6164 102.885C43.8838 102.957 43.891 103.268 44.0862 103.398C44.368 103.817 44.4475 104.38 44.9534 104.648C45.0112 104.857 45.069 105.06 45.1268 105.269L45.0835 105.306Z" fill="white"/>
<path d="M58.9951 89.8689C59.1396 90.7361 59.2842 91.5961 59.4215 92.4633C59.3854 92.5573 59.4215 92.8174 59.2191 92.5501C58.9228 92.1453 59.0457 91.6684 58.9662 91.2203C58.8578 90.541 58.6771 89.8761 58.6988 89.1823C58.7277 89.1606 58.7494 89.139 58.7783 89.1245C58.8578 89.3702 58.9228 89.6232 58.9951 89.8689Z" fill="white"/>
<path d="M43.1464 102.249C42.655 101.916 42.4527 101.353 42.2503 100.861C42.0841 100.464 42.4165 100.052 42.8646 99.8638L42.908 99.9071C42.8863 100.023 42.8646 100.146 42.8429 100.261L42.8357 100.276C42.7201 100.355 42.7201 100.464 42.749 100.579C42.655 101.042 42.8718 101.425 43.0742 101.808C43.038 101.902 43.0886 101.938 43.1681 101.967C43.1754 102.046 43.1826 102.133 43.1898 102.213L43.1464 102.249Z" fill="white"/>
<path d="M38.579 109.866C39.2872 110.227 39.4318 111.044 39.9377 111.571C40.0966 111.737 40.1472 112.012 40.2412 112.236C40.2123 112.265 40.1761 112.294 40.1472 112.323C40.0677 112.272 39.9882 112.222 39.9088 112.178L39.8798 112.171C39.8654 112.055 39.8076 111.976 39.6992 111.933L39.7064 111.947C39.7064 111.824 39.6847 111.709 39.5474 111.665L39.5546 111.672C39.5257 111.304 39.1499 111.138 39.0415 110.812C38.9837 110.726 38.9331 110.639 38.8753 110.552C38.7597 110.335 38.644 110.126 38.5356 109.909C38.5356 109.909 38.579 109.866 38.579 109.866Z" fill="white"/>
<path d="M69.8357 47.2449C70.356 47.2738 70.7391 47.6134 71.1727 47.8303C71.3317 48.0037 71.4906 48.1699 71.6496 48.3434C71.7002 48.4807 71.7436 48.6108 71.7942 48.7481L71.7653 48.7697C71.3606 48.6758 70.9848 48.4662 70.8475 48.0976C70.6596 47.5845 69.973 47.758 69.8357 47.2449Z" fill="white"/>
<path d="M82.3233 77.8002C81.9547 77.8508 81.8463 77.4822 81.6151 77.3232C81.42 77.1931 81.261 76.9908 81.0225 77.1642C80.7551 77.3521 80.6539 77.2148 80.7406 76.998C80.8563 76.7162 80.69 76.5138 80.6611 76.2681L80.6973 76.2247C80.9647 76.4271 81.2248 76.6294 81.4922 76.839C81.6946 77.0197 81.8897 77.2004 82.0921 77.381C82.186 77.5111 82.28 77.634 82.3667 77.7641L82.3233 77.8002Z" fill="white"/>
<path d="M62.4711 72.3654C61.9147 72.0402 61.3654 71.7223 60.809 71.397C60.5922 71.2381 60.3826 71.0863 60.1658 70.9273C60.1947 70.8984 60.2236 70.8695 60.2525 70.8406C61.1703 71.0791 61.8424 71.7295 62.6012 72.2354C62.6157 72.2426 62.6229 72.2643 62.6374 72.286C62.5795 72.3076 62.5217 72.3365 62.4711 72.3654Z" fill="white"/>
<path d="M61.9363 73.2182C61.9725 73.2182 62.0086 73.211 62.0447 73.1965C61.9219 74.0565 61.4955 74.6853 60.6716 75.0177L60.6355 74.9888C60.6427 74.9238 60.65 74.8659 60.6572 74.8009C60.7078 74.7286 60.7584 74.6636 60.8017 74.5913V74.6058C61.2787 74.2227 61.5678 73.688 61.9363 73.2182Z" fill="white"/>
<path d="M49.4122 73.9047C48.8557 74.5695 48.1981 75.0754 47.3453 75.3067L47.3164 75.2778C47.6416 75.0104 47.9668 74.743 48.292 74.4756C48.6462 74.2588 48.993 74.0492 49.3472 73.8324C49.3688 73.8541 49.3905 73.8758 49.4122 73.9047Z" fill="white"/>
<path d="M64.0249 72.6112C64.5452 73.0882 64.9861 73.6302 65.3185 74.2445C64.632 73.8976 64.1694 73.3773 64.0249 72.6112Z" fill="white"/>
<path d="M54.1315 54.45C54.0953 54.45 54.0592 54.4428 54.0231 54.4428L53.9725 54.4572C53.8641 53.7562 53.7629 53.0625 53.9725 52.3615L54.0231 52.3759C54.0592 52.3687 54.0953 52.3687 54.1387 52.3687C54.1315 53.0552 54.1315 53.749 54.1315 54.45Z" fill="white"/>
<path d="M46.0805 76.2681C45.9287 76.8462 45.5023 77.1064 44.9675 77.2437L44.9314 77.2004C45.0615 77.0486 45.1843 76.8968 45.3144 76.7451C45.3722 76.6945 45.4228 76.6511 45.4806 76.6078C45.5168 76.5716 45.5457 76.5355 45.5818 76.5066C45.6685 76.4415 45.748 76.3765 45.8348 76.3042C45.907 76.2753 45.9721 76.2536 46.0443 76.2247C46.0443 76.232 46.0805 76.2681 46.0805 76.2681Z" fill="white"/>
<path d="M47.3452 75.3069C47.2007 75.8922 46.7382 76.0512 46.225 76.1307L46.2034 76.109C46.2612 76.0223 46.319 75.9356 46.3696 75.8561C46.6803 75.726 46.9477 75.5454 47.1645 75.2852C47.2151 75.2852 47.2657 75.2852 47.3163 75.278L47.3452 75.3069Z" fill="white"/>
<path d="M57.0654 46.8185C57.0437 47.281 56.8486 47.5845 56.35 47.6351C56.3138 47.6062 56.2849 47.5701 56.2488 47.5411C56.3933 47.3605 56.5306 47.187 56.6752 47.0064C56.7908 46.9341 56.9137 46.8618 57.0293 46.7896L57.0654 46.8185Z" fill="white"/>
<path d="M45.6469 106.274C45.076 106.173 45.0977 105.732 45.0833 105.306L45.1266 105.269C45.1627 105.277 45.1989 105.284 45.235 105.298C45.3868 105.609 45.5458 105.92 45.6975 106.238C45.6975 106.231 45.6469 106.274 45.6469 106.274Z" fill="white"/>
<path d="M73.167 71.2526C73.4706 71.2959 73.6946 71.4694 73.9186 71.6573C73.6151 71.6211 73.0659 72.0403 73.167 71.2526Z" fill="white"/>
<path d="M40.516 113.082L40.4727 113.06H40.4221C40.3787 112.966 40.3281 112.865 40.2848 112.771C40.3137 112.757 40.3137 112.735 40.292 112.713C40.2414 112.583 40.1908 112.46 40.1475 112.33C40.1764 112.301 40.2053 112.272 40.2414 112.243C40.5883 112.41 40.6822 112.706 40.6678 113.06L40.6389 113.089C40.6028 113.067 40.5594 113.067 40.516 113.082Z" fill="white"/>
<path d="M48.4441 110.834C48.6826 111.123 48.9066 111.427 49.0222 111.795C48.5019 111.672 48.473 111.253 48.4441 110.834Z" fill="white"/>
<path d="M94.0093 104.149C94.0093 104.113 94.0093 104.07 94.0093 104.034C94.1538 103.81 94.3128 103.643 94.573 103.896C94.573 103.969 94.5657 104.034 94.5657 104.106C94.3779 104.128 94.1972 104.135 94.0093 104.149Z" fill="white"/>
<path d="M94.5659 104.113C94.5659 104.041 94.5731 103.976 94.5731 103.903C94.8911 103.903 95.2091 103.903 95.5343 103.903C95.6789 103.918 95.8378 103.882 95.9607 104.005C95.491 104.041 95.0284 104.077 94.5659 104.113Z" fill="white"/>
<path d="M62.0449 73.1966C62.1461 72.9798 62.269 72.7846 62.4713 72.6473C62.7676 73.1677 62.399 73.1821 62.0449 73.1966Z" fill="white"/>
<path d="M43.5587 102.942C43.125 102.885 43.1612 102.552 43.1467 102.241L43.1901 102.198C43.2335 102.205 43.2768 102.212 43.3202 102.22C43.2479 102.516 43.6671 102.595 43.6237 102.877C43.602 102.906 43.5803 102.928 43.5587 102.942Z" fill="white"/>
<path d="M46.0661 106.968C45.6903 106.881 45.6831 106.57 45.647 106.274L45.6976 106.231C45.9144 106.411 46.0011 106.672 46.1239 106.917C46.1023 106.939 46.0806 106.953 46.0661 106.968Z" fill="white"/>
<path d="M82.8727 78.3637C82.5041 78.3637 82.3162 78.1758 82.3234 77.8073L82.3668 77.7639C82.5836 77.9229 82.786 78.0891 82.9016 78.3421L82.8727 78.3637Z" fill="white"/>
<path d="M81.7958 96.525C82.0415 96.5612 82.1861 96.6985 82.2005 96.9586C82.1716 96.9875 82.1427 97.0165 82.1066 97.0526C81.9476 96.9225 81.8175 96.7707 81.7524 96.5756L81.7958 96.525Z" fill="white"/>
<path d="M80.242 75.9934C79.9674 76.0006 79.8012 75.8994 79.8445 75.5887L79.8301 75.5381C79.9746 75.6754 80.1264 75.8199 80.2709 75.9572L80.242 75.9934Z" fill="white"/>
<path d="M83.1617 78.7758C82.9088 78.7469 82.8943 78.5518 82.8799 78.3639L82.9088 78.335C83.0678 78.4289 83.2123 78.5301 83.1979 78.7469L83.1617 78.7758Z" fill="white"/>
<path d="M41.752 114.758C41.5713 114.614 41.4629 114.426 41.3906 114.209C41.7447 114.238 41.7809 114.477 41.752 114.758Z" fill="white"/>
<path d="M80.654 76.2752C80.4661 76.2608 80.271 76.2536 80.2349 76.0006L80.2638 75.9645C80.4444 75.9862 80.5818 76.0873 80.6902 76.2319L80.654 76.2752Z" fill="white"/>
<path d="M44.9748 77.2436C44.9604 77.4098 44.8664 77.5038 44.7002 77.5255L44.6641 77.4966C44.6857 77.4315 44.7074 77.3593 44.7291 77.2942C44.7941 77.2653 44.8664 77.2364 44.9315 77.2147L44.9748 77.2436Z" fill="white"/>
<path d="M100.535 96.4526C100.629 96.4743 100.73 96.496 100.824 96.5105C100.68 96.7345 100.593 96.6622 100.535 96.4526Z" fill="white"/>
<path d="M40.6677 113.284C40.675 113.248 40.6605 113.226 40.6316 113.212C40.6388 113.169 40.6388 113.125 40.6388 113.082L40.6677 113.053C40.8556 113.089 40.9351 113.198 40.9134 113.385C40.8773 113.378 40.8339 113.378 40.7978 113.378C40.7544 113.349 40.7111 113.32 40.6677 113.284Z" fill="white"/>
<path d="M56.7691 67.5018C56.6101 67.3934 56.639 67.2344 56.639 67.0754C56.7908 67.1911 56.7691 67.3501 56.7691 67.5018Z" fill="white"/>
<path d="M67.1976 92.5212C67.1759 92.579 67.147 92.6368 67.1253 92.6947C67.0964 92.6368 67.0675 92.579 67.0386 92.5284L67.0603 92.5068C67.0964 92.5068 67.1325 92.4995 67.1687 92.4923L67.1976 92.5212Z" fill="white"/>
<path d="M48.3067 110.559C48.444 110.61 48.4367 110.733 48.4584 110.849C48.3139 110.798 48.2994 110.682 48.3067 110.559Z" fill="white"/>
<path d="M40.4729 83.6033C40.4874 83.4804 40.5163 83.3648 40.6247 83.2853C40.6463 83.4298 40.6391 83.5527 40.4729 83.6033Z" fill="white"/>
<path d="M69.5608 46.9413C69.6186 47.028 69.6836 47.1147 69.7415 47.2015C69.5897 47.1798 69.5608 47.0714 69.5608 46.9413Z" fill="white"/>
<path d="M72.8997 71.0935C73.0225 71.0935 73.1092 71.1441 73.1743 71.2525C73.0514 71.2525 72.943 71.2308 72.8997 71.0935Z" fill="white"/>
<path d="M49.0076 111.795C49.0509 111.846 49.0943 111.896 49.1449 111.947C49.1015 111.896 49.0509 111.846 49.0076 111.795Z" fill="white"/>
<path d="M38.4491 109.728C38.4924 109.772 38.5358 109.822 38.5792 109.866L38.5358 109.909C38.4997 109.851 38.4635 109.801 38.4202 109.743C38.4202 109.75 38.4491 109.728 38.4491 109.728Z" fill="white"/>
<path d="M40.6533 83.1986C40.6822 83.1408 40.7111 83.0758 40.7473 83.0179C40.7184 83.083 40.6822 83.1408 40.6533 83.1986Z" fill="white"/>
<path d="M46.2179 76.1307C46.1745 76.1741 46.1239 76.2174 46.0806 76.2608L46.0444 76.2247C46.095 76.1813 46.1456 76.1452 46.1962 76.1018L46.2179 76.1307Z" fill="white"/>
<path d="M54.1315 52.3614C54.0954 52.3614 54.0592 52.3687 54.0159 52.3687C54.0159 52.3181 54.0231 52.2747 54.0231 52.2241C54.0592 52.2747 54.0954 52.3181 54.1315 52.3614Z" fill="white"/>
<path d="M52.8882 71.6863C52.8376 71.7296 52.7942 71.773 52.7437 71.8164C52.722 71.7875 52.7003 71.7658 52.6714 71.7369C52.7364 71.708 52.7942 71.6791 52.8593 71.6501C52.8593 71.6501 52.8882 71.6863 52.8882 71.6863Z" fill="white"/>
<path d="M49.5567 73.7675C49.5062 73.8108 49.4628 73.8542 49.4122 73.8976C49.3905 73.8759 49.3688 73.847 49.3472 73.8253C49.405 73.7892 49.4628 73.7603 49.5206 73.7241L49.5567 73.7675Z" fill="white"/>
<path d="M56.7691 68.3401C56.7474 68.3039 56.733 68.275 56.7185 68.2389C56.7185 68.2317 56.7474 68.21 56.7691 68.2028C56.7691 68.2461 56.7691 68.2967 56.7691 68.3401Z" fill="white"/>
<path d="M126.646 75.5526C126.494 75.567 126.335 75.5454 126.241 75.7043C125.482 75.6682 124.731 75.7188 123.965 75.6465C123.423 75.5887 122.852 75.7838 122.801 76.5065C122.751 77.2075 122.274 77.764 122.194 78.4506C122.172 78.6746 122.028 78.8842 122.172 79.1154H122.144C122.057 79.1371 121.934 79.1299 121.898 79.1805C121.529 79.802 121.168 80.4307 120.821 81.0667C120.727 81.2401 120.619 81.4786 120.814 81.6376C121.276 82.0279 121.565 82.6205 122.201 82.7939C122.266 83.2203 122.577 83.3721 122.946 83.4516L122.938 83.4443C123.206 84.0514 122.714 84.5862 122.772 85.1715C122.454 85.0921 122.266 85.2944 122.064 85.4968C121.508 86.0388 120.922 86.5591 120.387 87.1228C119.939 87.5998 119.571 87.5203 119.094 87.1445C118.653 86.7976 118.4 86.205 117.764 86.111C117.612 85.5401 117.215 85.1499 116.673 85.3378C116.095 85.5401 115.473 85.7858 115.119 86.3784C115.04 86.3929 114.96 86.4073 114.873 86.4218C113.796 86.7759 112.647 86.8988 111.621 87.4047C111.332 87.5492 111.31 87.7949 111.339 88.1057C111.426 88.9584 111.361 89.8112 111.086 90.6278C110.942 91.0687 110.703 91.4083 110.169 91.4083C109.265 91.4011 108.362 91.4445 107.466 91.3939C106.815 91.3578 106.281 91.1048 106.158 90.3243C106.035 89.5366 106.129 88.7561 106.085 87.9756C106.057 87.5203 105.898 87.2601 105.392 87.5058C105.298 87.4841 105.211 87.4625 105.117 87.4336C105.131 87.2168 105.016 87.0939 104.821 87.0289C104.004 86.7542 103.187 86.5085 102.327 86.4073C101.988 85.8075 101.337 85.663 100.803 85.345C100.781 85.3305 100.709 85.4173 100.658 85.4534C100.564 85.4389 100.463 85.4317 100.369 85.4173C100.037 85.2294 100.008 85.4823 99.9498 85.7063C99.9064 85.7497 99.8631 85.8003 99.8125 85.8436C99.0681 86.0243 98.7935 86.7831 98.2081 87.1806C97.8251 87.4408 97.4204 87.5203 97.1675 87.2384C96.6977 86.7253 96.0545 86.3929 95.6787 85.7858C95.498 85.4895 95.209 85.2872 94.8332 85.2872C94.8043 84.6946 94.1394 84.1815 94.6814 83.5094C94.8982 83.242 95.1367 83.0035 95.368 82.7505C95.7582 82.3169 96.2858 81.999 96.4954 81.4136C96.517 81.3919 96.5315 81.3702 96.5532 81.3558C96.5315 81.3774 96.5098 81.3919 96.4954 81.4136C96.2713 81.3052 96.4737 80.9511 96.1774 80.886L96.1918 80.8932C96.1485 80.8354 96.0979 80.7704 96.0545 80.7126L96.0473 80.6764C96.0762 80.5391 96.0834 80.4018 95.9533 80.3006C95.8088 79.6791 95.5992 79.0865 95.115 78.6312C95.0933 78.1181 94.9705 77.6339 94.732 77.1786C94.6236 76.9763 94.5007 76.7595 94.5875 76.521C94.8476 75.8344 94.349 75.7622 93.9154 75.7333C93.2938 75.6899 92.6651 75.7188 92.0436 75.7188C90.8295 75.7188 90.4248 75.2852 90.3814 74.0711C90.3597 73.4207 90.6199 72.7991 90.5115 72.1487C90.3381 71.0719 90.7355 70.5516 91.7907 70.4938C92.2965 70.4649 92.8024 70.4432 93.3083 70.4432C94.638 70.4432 94.638 70.4432 94.5586 69.1929C95.0428 68.4775 95.115 67.5813 95.6137 66.8514C95.9317 66.3889 96.4086 65.9192 96.2063 65.2326C96.199 65.1965 96.1918 65.1603 96.199 65.117C96.2569 65.0375 96.3147 64.9508 96.3797 64.8713C96.4231 64.8785 96.4592 64.8785 96.5026 64.8785C96.5243 64.8857 96.5387 64.9002 96.5604 64.9074C96.5387 64.9002 96.5243 64.8857 96.5026 64.8785C96.4664 64.5027 96.4231 64.1341 95.8811 64.2787L95.8738 64.2353C95.8955 64.1269 95.8594 64.0835 95.751 64.1197L95.7293 64.1124C95.7727 63.9101 95.6354 63.9173 95.5053 63.9173L95.5125 63.9245C95.5197 63.7872 95.5197 63.6571 95.3174 63.6933L95.2812 63.7077C95.4691 63.4114 95.1801 63.2958 95.0427 63.1368C94.3562 62.3419 94.3417 61.8432 95.0138 61.0916C95.1367 60.9543 95.2957 60.8459 95.3896 60.6941C95.657 60.275 96.2135 60.0654 96.2424 59.48C96.5676 59.4005 97.0157 59.4439 97.1458 59.1331C97.3987 58.5261 97.6878 58.8079 98.0564 58.9597C98.3527 59.0898 98.49 59.5451 98.9236 59.3861L98.938 59.4005C98.9958 59.8558 99.7474 60.7086 100.174 60.7881C100.196 60.7953 100.232 60.7303 100.261 60.6941L100.326 60.7014L100.391 60.6941C100.441 60.7158 100.492 60.7375 100.542 60.7664C101.142 60.8531 102.291 60.2533 102.754 59.6173C102.783 59.5884 102.819 59.574 102.855 59.5812C103.773 59.6029 104.553 59.0392 105.449 58.9597C105.941 58.9163 106.085 58.62 106.1 58.1647C106.114 57.3409 106.042 56.517 106.208 55.6859C106.331 55.1077 106.671 54.8982 107.162 54.8909C108.196 54.862 109.236 54.862 110.277 54.8909C110.833 54.9054 111.144 55.2595 111.231 55.7943C111.354 56.5459 111.404 57.2975 111.375 58.0563C111.368 58.2514 111.303 58.4827 111.534 58.62C111.578 58.6272 111.621 58.6417 111.657 58.6634C111.86 59.0392 112.243 59.0681 112.59 59.1909C113.146 59.3861 113.731 59.4728 114.288 59.704C115.068 60.0293 115.813 60.3978 116.499 60.8893C116.723 61.0482 117.02 61.0771 117.208 60.8893C117.612 60.4918 118.14 60.2027 118.328 59.6101C118.371 59.5667 118.422 59.5161 118.465 59.4728C118.783 59.4728 119.079 59.3861 119.246 59.1114C119.513 58.6706 119.809 58.6995 120.156 58.9886C121.182 59.8414 122.129 60.7664 122.895 61.8721C123.076 62.1395 123.047 62.3708 122.881 62.5659C122.331 63.2018 121.782 63.8595 121.067 64.2859C120.763 64.4666 120.727 64.5533 120.821 64.8207C120.908 65.0808 120.944 65.3771 121.081 65.6012C121.941 66.9743 122.339 68.5353 122.91 70.0168C122.96 70.1469 122.881 70.4504 123.206 70.2697C123.293 70.2914 123.379 70.3059 123.466 70.3275C124.528 70.5805 125.62 70.5299 126.689 70.7033L126.696 70.6961C127.014 72.3077 127.094 73.9265 126.646 75.5526ZM105.818 68.6148C105.486 68.8822 105.052 69.0918 105.153 69.641C105.146 69.6771 105.131 69.7133 105.095 69.7277C104.503 69.7855 103.368 71.1008 103.18 71.9464C102.761 72.2788 102.804 72.5101 103.325 72.6474C103.968 72.9292 104.676 72.7702 105.348 72.9003C105.825 72.9943 106.006 73.146 105.963 73.6013C105.919 74.1072 105.84 74.6059 105.832 75.1117C105.818 76.4993 105.825 77.8869 105.825 79.2744C105.825 80.1489 106.259 80.5825 107.112 80.409C107.762 80.279 108.398 80.3151 109.041 80.3006C109.93 80.2717 110.841 80.4379 111.708 79.9032C111.513 79.6863 111.52 79.3973 111.52 79.101C111.527 77.3015 111.542 75.4948 111.513 73.6953C111.506 73.0449 111.744 72.7775 112.402 72.7847C112.936 72.7847 113.5 72.9509 114.021 72.6618C114.396 72.6401 114.534 72.3294 114.577 72.0548C114.599 71.9102 114.31 71.997 114.165 71.9753C113.97 71.679 114.057 71.2526 113.674 71.0213C113.247 70.7684 112.994 70.3565 112.835 69.8867C112.705 69.5037 112.452 69.2291 112.12 68.9978C111.469 68.5497 110.906 67.9644 110.602 67.2561C110.371 66.7286 110.075 66.4973 109.554 66.4323H109.562C109.562 66.2805 109.525 66.1721 109.345 66.1721C109.309 66.1721 109.294 66.1504 109.287 66.1143C109.287 65.9119 109.352 65.6879 109.106 65.5723C108.962 65.5 108.897 65.5506 108.882 65.7023C108.839 65.7096 108.788 65.7168 108.745 65.7313C108.694 65.7168 108.644 65.6951 108.593 65.6807C107.813 65.565 107.769 66.2588 107.48 66.6924C106.577 67.0176 106.259 67.8704 105.818 68.6148Z" fill="white"/>
<path d="M126.689 70.6816C125.619 70.5009 124.528 70.5515 123.466 70.3058C123.56 70.2841 123.654 70.2624 123.748 70.2479C123.834 70.2479 123.928 70.2479 124.015 70.2479C124.297 70.3058 124.579 70.3058 124.861 70.2479C124.991 70.2479 125.128 70.2407 125.258 70.2407C125.554 70.2552 125.851 70.2552 126.14 70.2913C126.385 70.313 126.66 70.3419 126.689 70.6816Z" fill="white"/>
<path d="M114.02 72.6473C113.5 72.9363 112.936 72.7701 112.402 72.7701C111.737 72.7701 111.498 73.0303 111.513 73.6807C111.534 75.4802 111.52 77.2869 111.52 79.0864C111.52 79.3827 111.513 79.6718 111.708 79.8886C110.848 80.4162 109.93 80.2572 109.041 80.2861C108.398 80.3078 107.762 80.2644 107.112 80.3945C106.266 80.5679 105.825 80.1343 105.825 79.2599C105.825 77.8723 105.811 76.4847 105.832 75.0972C105.84 74.5913 105.919 74.0926 105.963 73.5868C106.006 73.1315 105.825 72.9797 105.348 72.8858C104.676 72.7557 103.975 72.9219 103.325 72.6328C103.339 72.6111 103.361 72.5822 103.375 72.5605C104.192 72.6111 105.009 72.669 105.825 72.5605C105.919 72.575 106.013 72.5895 106.114 72.5967C106.143 72.6979 106.172 72.8063 106.201 72.9074C106.208 72.9942 106.215 73.0737 106.223 73.1604C106.114 73.8758 106.129 74.5841 106.208 75.2995C106.15 75.9789 106.143 76.6582 106.215 77.3303C106.1 77.8795 106.172 78.4288 106.165 78.9852C106.158 80.0476 106.317 80.1777 107.393 80.0115C107.762 80.0765 108.131 80.0693 108.499 80.0115C108.622 80.0982 108.752 80.1054 108.889 80.0476C109.301 80.0548 109.713 80.062 110.125 80.062C111.123 80.062 111.274 79.8958 111.209 78.8841C111.209 78.7901 111.209 78.7034 111.209 78.6094C111.209 76.7594 111.209 74.9093 111.209 73.0592C111.209 72.7268 111.347 72.575 111.708 72.5895C112.467 72.6184 113.233 72.5967 113.992 72.5967L114.02 72.6473Z" fill="white"/>
<path d="M122.194 66.9671C122.44 67.6536 122.685 68.3402 122.938 69.0267C123.025 69.4314 123.119 69.8434 123.206 70.2481C122.881 70.436 122.96 70.1324 122.91 69.9951C122.339 68.5064 121.941 66.9454 121.081 65.5795C120.937 65.3555 120.908 65.0592 120.821 64.799C120.727 64.5316 120.77 64.4449 121.067 64.2642C121.782 63.8378 122.339 63.1802 122.881 62.5442C123.047 62.3491 123.083 62.1178 122.895 61.8504C122.129 60.7447 121.182 59.8269 120.156 58.9669C119.809 58.6778 119.513 58.6562 119.245 59.0898C119.079 59.3644 118.776 59.4439 118.465 59.4511C118.436 59.4294 118.407 59.4005 118.385 59.3788C118.559 59.1837 118.732 58.9886 118.899 58.8007C118.942 58.7429 118.978 58.6778 119.021 58.62C119.224 58.6345 119.419 58.6056 119.578 58.4683C119.73 58.4899 119.881 58.5116 120.04 58.5333C121.233 59.2921 122.086 60.4267 123.097 61.3807C123.466 61.7276 123.329 62.2407 123.235 62.696C123.09 62.7827 122.967 62.8911 122.902 63.0501C122.36 63.5704 121.818 64.0908 121.276 64.6111C121.103 64.7773 120.958 64.9652 121.218 65.182C121.536 65.7746 121.869 66.3745 122.194 66.9671Z" fill="white"/>
<path d="M105.789 90.2809C105.796 89.551 105.789 88.8211 105.818 88.0912C105.833 87.7587 105.71 87.5781 105.399 87.4986C105.905 87.2529 106.064 87.513 106.093 87.9683C106.136 88.7488 106.042 89.5293 106.165 90.3171C106.288 91.0976 106.823 91.3505 107.473 91.3866C108.369 91.4372 109.273 91.3939 110.176 91.4011C110.718 91.4083 110.949 91.0614 111.094 90.6206C111.368 89.7967 111.433 88.9512 111.347 88.0984C111.318 87.7877 111.332 87.5419 111.628 87.3974C112.655 86.8843 113.804 86.7687 114.881 86.4146C114.852 86.494 114.823 86.5735 114.794 86.6603C114.158 86.8915 113.529 87.1156 112.893 87.3468C112.467 87.3974 112.048 87.4914 111.643 87.6576C111.433 87.766 111.549 87.9177 111.578 88.0623C111.578 88.5754 111.571 89.0885 111.571 89.6016C111.563 89.7389 111.549 89.869 111.542 90.0063C111.592 90.7001 111.397 91.2638 110.747 91.6035C109.446 91.7552 108.138 91.6468 106.837 91.6251C106.151 91.4445 105.854 90.953 105.789 90.2809Z" fill="white"/>
<path d="M94.5657 69.1712C94.6452 70.4287 94.6452 70.4215 93.3155 70.4215C92.8096 70.4215 92.3037 70.4504 91.7978 70.4721C90.7427 70.5299 90.3452 71.043 90.5187 72.127C90.6271 72.7775 90.3669 73.399 90.3886 74.0494C90.432 75.2635 90.8367 75.6971 92.0508 75.6971C92.6723 75.6971 93.301 75.661 93.9225 75.7116C94.3562 75.7405 94.8548 75.82 94.5946 76.4993C94.5007 76.7378 94.6308 76.9546 94.7392 77.1569C94.9777 77.6122 95.1078 78.0964 95.1222 78.6095C95.0933 78.6384 95.0572 78.6674 95.0283 78.689C94.6741 77.9736 94.4067 77.2364 94.2767 76.4487C94.2188 76.0946 94.0743 75.9501 93.6985 75.9573C92.8313 75.979 91.9568 75.9645 91.0896 75.9645C90.8439 75.7766 90.5115 75.7043 90.3308 75.4153C90.2802 74.9961 90.0417 74.5914 90.179 74.1506C90.3236 73.8976 90.2657 73.6375 90.2296 73.3773C90.0706 72.8136 90.179 72.2427 90.1501 71.679C90.1212 70.9852 90.4103 70.4938 91.0824 70.2625C91.2269 70.248 91.3642 70.2408 91.5088 70.2264C91.6461 70.2264 91.7762 70.2264 91.9135 70.2264C92.441 70.2336 92.9758 70.2047 93.4962 70.2625C94.1177 70.3348 94.3272 70.0457 94.32 69.4892C94.3706 69.3591 94.414 69.2363 94.4646 69.1062C94.5079 69.1279 94.5368 69.1496 94.5657 69.1712Z" fill="white"/>
<path d="M111.534 58.6057C111.31 58.4684 111.368 58.2371 111.375 58.042C111.404 57.2832 111.347 56.5243 111.231 55.78C111.144 55.2452 110.833 54.8911 110.277 54.8766C109.244 54.8549 108.203 54.8477 107.162 54.8766C106.671 54.8911 106.331 55.1007 106.208 55.6716C106.035 56.5027 106.114 57.3193 106.1 58.1504C106.093 58.6057 105.948 58.902 105.449 58.9453C104.553 59.0248 103.773 59.5885 102.855 59.5669C103.375 59.1838 104.076 59.2127 104.575 58.7864C104.756 58.7719 104.936 58.7647 105.117 58.7502C105.688 58.7864 105.876 58.5117 105.818 57.9625C105.767 57.4855 105.796 57.0085 105.789 56.5243C105.854 54.8116 106.085 54.5875 107.798 54.5948C108.745 54.5948 109.692 54.6092 110.638 54.6164C111.325 54.9272 111.585 55.4548 111.534 56.2064C111.498 57.0013 111.534 57.8035 111.534 58.6057Z" fill="white"/>
<path d="M111.26 68.7014C110.804 68.0655 110.443 67.3572 109.749 66.9164C109.793 66.7068 109.583 66.5912 109.547 66.4105C110.067 66.4756 110.364 66.7068 110.595 67.2344C110.898 67.9426 111.462 68.528 112.112 68.9761C112.445 69.2073 112.698 69.4819 112.828 69.865C112.987 70.3347 113.24 70.7466 113.666 70.9996C114.049 71.2308 113.962 71.65 114.158 71.9535C114.158 71.9969 114.15 72.0475 114.143 72.0908C113.746 71.6572 113.42 71.1514 112.915 70.8189L112.922 70.8261C112.56 69.9661 111.896 69.3446 111.26 68.7014Z" fill="white"/>
<path d="M94.8548 85.2799C95.2378 85.2799 95.5197 85.4823 95.7003 85.7786C96.0761 86.3856 96.7193 86.7108 97.1891 87.2312C97.442 87.513 97.8467 87.4335 98.2297 87.1734C98.8079 86.7759 99.0825 86.017 99.8341 85.8364L99.863 85.8653C99.5667 86.429 99.0392 86.7831 98.6055 87.2312C97.9334 87.9177 97.2469 87.896 96.5676 87.195C96.04 86.6458 95.5486 86.0604 94.9343 85.5979C94.8909 85.5039 94.8476 85.4172 94.8042 85.3233L94.8548 85.2799Z" fill="white"/>
<path d="M118.328 59.5883C118.147 60.1809 117.612 60.47 117.208 60.8674C117.02 61.0553 116.723 61.0264 116.499 60.8674C115.813 60.376 115.068 60.0074 114.288 59.6822C113.731 59.451 113.146 59.3642 112.59 59.1691C112.243 59.0463 111.86 59.0174 111.657 58.6416L111.65 58.5837C112.763 58.7427 113.775 59.2414 114.823 59.6027C115.48 59.9641 116.131 60.3182 116.788 60.6795C116.904 60.7157 116.984 60.7084 116.94 60.5567L116.933 60.5711C117.576 60.47 117.735 59.7689 118.248 59.5016C118.284 59.5377 118.306 59.5666 118.328 59.5883Z" fill="white"/>
<path d="M122.794 85.1643C122.693 85.2943 122.584 85.4172 122.483 85.5473C122.064 85.9375 121.609 86.2916 121.291 86.7831L121.247 86.7975C121.19 86.8409 121.139 86.8915 121.081 86.9348C120.756 87.1661 120.546 87.5347 120.142 87.672C118.899 87.8671 118.422 86.8409 117.735 86.1543L117.778 86.111C118.414 86.2049 118.667 86.7975 119.108 87.1444C119.592 87.5202 119.954 87.5997 120.402 87.1227C120.937 86.559 121.522 86.0387 122.078 85.4967C122.281 85.2943 122.469 85.092 122.794 85.1643Z" fill="white"/>
<path d="M96.2495 59.4654C96.2206 60.0508 95.6642 60.2604 95.3968 60.6795C95.3028 60.8313 95.1366 60.9397 95.021 61.077C94.3489 61.8358 94.3633 62.3345 95.0499 63.1222C95.1872 63.274 95.469 63.3969 95.2884 63.6932C94.5006 63.0644 93.749 62.4285 94.2694 61.2505C94.2911 61.1637 94.3055 61.0698 94.3272 60.9831C94.3633 60.9469 94.4067 60.9108 94.4428 60.8674C94.5295 60.853 94.609 60.8385 94.6958 60.8313C94.9776 60.7879 95.0643 60.5567 95.18 60.3471V60.3254C95.2667 60.3182 95.3101 60.2748 95.3173 60.1881L95.339 60.1953C95.7148 60.0364 95.8882 59.6316 96.2279 59.4365L96.2495 59.4654Z" fill="white"/>
<path d="M96.0039 81.5436C96.3363 81.3918 96.2135 81.11 96.1918 80.8643C96.4881 80.9293 96.2857 81.2906 96.5026 81.399L96.5098 81.4063C96.3002 81.9917 95.7726 82.3096 95.3824 82.7432C95.1511 82.9962 94.9126 83.2274 94.6958 83.5021C94.1538 84.1742 94.8259 84.6873 94.8476 85.2799L94.8042 85.3232C94.5874 85.1209 94.3706 84.9185 94.161 84.7162C94.161 84.6728 94.1466 84.6367 94.1177 84.6006C94.0888 84.2392 94.0815 83.8779 94.1972 83.5237C94.7826 82.8516 95.5486 82.3458 96.0039 81.5436Z" fill="white"/>
<path d="M122.093 79.4624C121.811 79.961 121.529 80.4597 121.262 80.9583C121.161 81.1462 120.944 81.3341 121.219 81.5582C121.269 81.6955 121.363 81.7894 121.5 81.8472V81.84C121.551 81.9773 121.645 82.0713 121.789 82.1219L121.782 82.1146C121.948 82.3242 122.115 82.5266 122.281 82.7361C122.259 82.7578 122.238 82.7795 122.223 82.794C121.587 82.6205 121.291 82.0279 120.835 81.6377C120.64 81.4787 120.756 81.2402 120.843 81.0667C121.19 80.4308 121.551 79.802 121.92 79.1805C121.948 79.1299 122.079 79.1372 122.165 79.1155C122.129 79.2311 122.115 79.3467 122.093 79.4624Z" fill="white"/>
<path d="M95.2525 66.8081C95.5705 66.2733 95.7729 65.6734 96.2209 65.2181C96.4233 65.8975 95.9463 66.3744 95.6283 66.837C95.1297 67.5669 95.0574 68.463 94.5732 69.1785C94.5443 69.1568 94.5082 69.1279 94.4792 69.1062C94.5949 68.3618 94.9635 67.7042 95.1586 66.9887L95.1658 66.9815C95.2453 66.9526 95.2742 66.8948 95.2525 66.8081Z" fill="white"/>
<path d="M98.3018 58.6344C98.5114 58.8802 98.721 59.1259 98.9305 59.3716C98.4969 59.5306 98.3596 59.0753 98.0633 58.9452C97.702 58.7934 97.4129 58.5116 97.1527 59.1186C97.0226 59.4294 96.5673 59.3933 96.2494 59.4655L96.2205 59.4366C96.2277 59.3933 96.2349 59.3571 96.2421 59.3138L96.2349 59.321C96.3939 59.2776 96.4011 59.1548 96.365 59.0247C96.9504 58.5911 97.5647 58.3309 98.3018 58.6344Z" fill="white"/>
<path d="M117.113 85.67C116.824 85.4316 116.593 85.6628 116.362 85.7785C115.957 85.9808 115.603 86.2988 115.133 86.3711C115.487 85.7857 116.116 85.5327 116.687 85.3304C117.229 85.1425 117.634 85.5327 117.778 86.1037L117.735 86.147C117.533 85.9953 117.323 85.829 117.113 85.67Z" fill="white"/>
<path d="M105.088 69.7277C105.095 69.7566 105.103 69.7782 105.11 69.8072C104.481 70.5371 103.852 71.2598 103.224 71.9897L103.173 71.9463C103.361 71.1008 104.496 69.7927 105.088 69.7277Z" fill="white"/>
<path d="M102.349 86.523C102.356 86.4796 102.356 86.4435 102.342 86.4001C103.194 86.5085 104.018 86.7543 104.835 87.0217C105.023 87.0867 105.146 87.2096 105.131 87.4264C104.155 87.2818 103.281 86.8049 102.349 86.523Z" fill="white"/>
<path d="M105.818 68.6147C106.259 67.8631 106.57 67.0176 107.48 66.6635C107.495 66.6779 107.516 66.6996 107.531 66.714C107.502 66.7791 107.48 66.8513 107.451 66.9164L107.459 66.9236C107.278 67.0826 107.104 67.2344 107.032 67.4729H107.047C106.996 67.5234 106.946 67.574 106.895 67.6246L106.902 67.6102C106.779 67.6824 106.678 67.7692 106.649 67.9209C106.599 67.9426 106.591 67.986 106.613 68.0293H106.628C106.259 68.1088 106.216 68.5497 105.905 68.6942C105.883 68.6797 105.854 68.6508 105.818 68.6147Z" fill="white"/>
<path d="M102.624 59.5668C102.667 59.5812 102.71 59.5885 102.761 59.6029C102.298 60.2461 101.157 60.8387 100.55 60.752C101.243 60.3545 101.937 59.9643 102.624 59.5668Z" fill="white"/>
<path d="M102.349 86.4001C101.735 86.1761 101.164 85.887 100.679 85.4462C100.73 85.4101 100.81 85.3233 100.824 85.3378C101.359 85.6558 102.009 85.8075 102.349 86.4001Z" fill="white"/>
<path d="M98.9453 59.3861C99.4584 59.7402 99.8559 60.2172 100.268 60.6797C100.239 60.7086 100.203 60.7737 100.181 60.7737C99.7547 60.6942 99.0031 59.8486 98.9453 59.3861Z" fill="white"/>
<path d="M95.8016 80.2933C95.6209 80.0115 95.4475 79.7296 95.2668 79.4478C95.1873 79.1948 95.1078 78.9491 95.0283 78.6962C95.0572 78.6673 95.0934 78.6384 95.1223 78.6167C95.6137 79.0648 95.8161 79.6574 95.9606 80.2861C95.91 80.2861 95.8522 80.2933 95.8016 80.2933Z" fill="white"/>
<path d="M122.953 83.4442C123.408 83.8056 123.307 84.2681 123.184 84.7378C123.069 84.904 122.982 85.0847 122.787 85.1714C122.729 84.5788 123.22 84.0513 122.953 83.4442Z" fill="white"/>
<path d="M108.593 65.6517C108.174 65.9047 107.936 66.3238 107.639 66.6924C107.603 66.6924 107.567 66.6996 107.531 66.7141C107.516 66.6996 107.495 66.6779 107.48 66.6635C107.762 66.2299 107.813 65.5361 108.593 65.6517Z" fill="white"/>
<path d="M105.283 69.6336H105.218L105.153 69.648C105.059 69.0988 105.493 68.8964 105.818 68.6218C105.854 68.6507 105.883 68.6796 105.919 68.7158C105.84 68.8675 105.753 69.0193 105.674 69.1783L105.681 69.1711C105.572 69.2361 105.478 69.3084 105.529 69.4601V69.4385C105.377 69.4096 105.327 69.518 105.283 69.6336Z" fill="white"/>
<path d="M114.151 72.0909C114.158 72.0475 114.158 71.9969 114.165 71.9536C114.31 71.9825 114.606 71.8958 114.577 72.0331C114.526 72.3077 114.396 72.6185 114.021 72.6401L113.984 72.604C113.992 72.5679 113.992 72.5317 113.984 72.4956C114.129 72.4016 114.158 72.2571 114.151 72.0909Z" fill="white"/>
<path d="M122.895 83.2202C122.917 83.2925 122.938 83.372 122.96 83.4442C122.591 83.3575 122.281 83.213 122.216 82.7866C122.237 82.7649 122.259 82.7432 122.273 82.7288C122.411 82.8155 122.548 82.9022 122.685 82.9889H122.7C122.707 83.119 122.779 83.1841 122.895 83.213V83.2202Z" fill="white"/>
<path d="M96.3871 64.8568C96.2498 64.6327 95.9462 64.5533 95.8884 64.2642C96.4232 64.1196 96.4738 64.4882 96.5099 64.864C96.4738 64.864 96.4304 64.864 96.3871 64.8568Z" fill="white"/>
<path d="M103.325 72.6473C102.804 72.51 102.761 72.2787 103.18 71.9463L103.231 71.9897C103.188 72.2065 103.188 72.4088 103.375 72.5678C103.354 72.5967 103.339 72.6184 103.325 72.6473Z" fill="white"/>
<path d="M109.287 66.0925C109.15 65.9552 109.012 65.8107 108.875 65.6734C108.889 65.5216 108.962 65.4783 109.099 65.5433C109.352 65.6734 109.287 65.8902 109.287 66.0925Z" fill="white"/>
<path d="M100.391 85.41C100.34 85.4895 100.282 85.5762 100.232 85.6557C100.152 85.6774 100.08 85.6991 100 85.728L99.9714 85.6991C100.029 85.4751 100.058 85.2293 100.391 85.41Z" fill="white"/>
<path d="M95.8015 80.2934C95.8593 80.2934 95.9099 80.2861 95.9677 80.2861C96.0978 80.3873 96.0978 80.5174 96.0617 80.6619C95.9027 80.5897 95.8521 80.4379 95.8015 80.2934Z" fill="white"/>
<path d="M95.5196 63.9174C95.404 63.8813 95.3245 63.8235 95.3245 63.6862C95.5268 63.65 95.5268 63.7801 95.5196 63.9174Z" fill="white"/>
<path d="M109.561 66.4107C109.438 66.3673 109.381 66.2661 109.344 66.1505C109.518 66.1505 109.561 66.2661 109.561 66.4107Z" fill="white"/>
<path d="M95.7365 64.1051C95.6064 64.1051 95.5486 64.0183 95.5125 63.9099C95.6498 63.9099 95.7798 63.9027 95.7365 64.1051Z" fill="white"/>
<path d="M99.8416 85.8364C99.8849 85.793 99.9283 85.7425 99.9789 85.6991L100.008 85.728C99.9644 85.7714 99.9138 85.822 99.8705 85.8653C99.8632 85.8653 99.8416 85.8364 99.8416 85.8364Z" fill="white"/>
<path d="M118.465 59.4511C118.422 59.4944 118.371 59.545 118.328 59.5884C118.306 59.5595 118.277 59.5378 118.255 59.5089C118.299 59.4655 118.342 59.4221 118.385 59.3788C118.414 59.4005 118.443 59.4294 118.465 59.4511Z" fill="white"/>
<path d="M96.5098 64.8639C96.5311 64.871 96.5454 64.8853 96.5668 64.8924C96.5454 64.8853 96.5311 64.8781 96.5098 64.8639Z" fill="white"/>
<path d="M96.2064 80.8715C96.163 80.8137 96.1125 80.7486 96.0691 80.6908C96.1125 80.7558 96.1558 80.8137 96.2064 80.8715Z" fill="white"/>
<path d="M95.8885 64.2281C95.809 64.2353 95.7656 64.1919 95.7656 64.1124C95.8668 64.0763 95.9102 64.1124 95.8885 64.2281Z" fill="white"/>
<path d="M96.5024 81.3983C96.5238 81.3769 96.5452 81.3627 96.5594 81.3413C96.5452 81.3627 96.5309 81.3841 96.5024 81.3983C96.5096 81.4054 96.5024 81.3983 96.5024 81.3983Z" fill="white"/>
<path d="M90.179 74.1578C90.1934 73.8976 90.2151 73.6375 90.2295 73.3845C90.2657 73.6447 90.3235 73.9049 90.179 74.1578Z" fill="white"/>
</svg>
