<svg width="48" height="48" viewBox="0 0 48 48" fill="none" xmlns="http://www.w3.org/2000/svg">
<circle cx="21.5" cy="9.5" r="2.5" fill="url(#paint0_linear)"/>
<path d="M26.9999 20C26.9999 21.3807 30.4999 25.5 21.4999 24C11 26 14.4999 20.8807 14.4999 19.5C14.4999 18.1193 19.5 16.5 21.5 17C23 16.5 26.9999 18.6193 26.9999 20Z" fill="url(#paint1_linear)"/>
<circle cx="8.5" cy="32.5" r="2.5" fill="url(#paint2_linear)"/>
<path d="M13.9999 42C13.9999 43.3807 17.4999 47.5 8.49992 46C-2 48 1.49992 42.8807 1.49992 41.5C1.49992 40.1193 6.5 38.5 8.5 39C10 38.5 13.9999 40.6193 13.9999 42Z" fill="url(#paint3_linear)"/>
<circle cx="33.5" cy="32.5" r="2.5" fill="url(#paint4_linear)"/>
<path d="M40.06 42C40.06 43.3807 43.56 47.5 34.56 46C24.0601 48 27.56 42.8807 27.56 41.5C27.56 40.1193 32.5601 38.5 34.5601 39C36.0601 38.5 40.06 40.6193 40.06 42Z" fill="url(#paint5_linear)"/>
<path d="M21 6C18.9026 6 17.1818 7.72076 17.1818 9.81818C17.1818 11.9156 18.9026 13.6364 21 13.6364C23.0974 13.6364 24.8182 11.9156 24.8182 9.81818C24.8182 7.72076 23.0974 6 21 6ZM21 7.90909C22.0657 7.90909 22.9091 8.75253 22.9091 9.81818C22.9091 10.8838 22.0657 11.7273 21 11.7273C19.9343 11.7273 19.0909 10.8838 19.0909 9.81818C19.0909 8.75253 19.9343 7.90909 21 7.90909ZM21 15.0682C16.5899 15.0682 12.8864 18.1989 12.8864 22.2273V24.6136C12.8864 24.8668 12.987 25.1096 13.166 25.2886C13.345 25.4676 13.5878 25.5682 13.8409 25.5682H28.1591C28.4122 25.5682 28.655 25.4676 28.834 25.2886C29.013 25.1096 29.1136 24.8668 29.1136 24.6136V22.2273C29.1136 18.1989 25.4101 15.0682 21 15.0682ZM21 16.9773C24.5221 16.9773 27.2045 19.3811 27.2045 22.2273V23.6591H14.7955V22.2273C14.7955 19.3811 17.4779 16.9773 21 16.9773ZM20.8956 27.4624C20.6584 27.4885 20.4395 27.6024 20.2821 27.7819C20.1248 27.9613 20.0403 28.1932 20.0455 28.4318V32.6676L15.7351 35.2478C15.6152 35.3056 15.5087 35.3877 15.4224 35.489C15.3361 35.5903 15.272 35.7085 15.2341 35.8361C15.1962 35.9637 15.1853 36.0977 15.2023 36.2297C15.2193 36.3617 15.2636 36.4886 15.3326 36.6025C15.4015 36.7163 15.4934 36.8145 15.6025 36.8906C15.7116 36.9668 15.8354 37.0194 15.966 37.0449C16.0966 37.0705 16.2311 37.0684 16.3608 37.0389C16.4906 37.0094 16.6127 36.9531 16.7195 36.8736L21 34.3082L25.2805 36.8736C25.3872 36.9531 25.5094 37.0094 25.6392 37.0389C25.7689 37.0684 25.9034 37.0705 26.034 37.0449C26.1646 37.0194 26.2884 36.9668 26.3975 36.8906C26.5066 36.8145 26.5985 36.7163 26.6674 36.6025C26.7364 36.4886 26.7807 36.3617 26.7977 36.2297C26.8147 36.0977 26.8038 35.9637 26.7659 35.8361C26.728 35.7085 26.6639 35.5903 26.5776 35.489C26.4913 35.3877 26.3848 35.3056 26.2649 35.2478L21.9545 32.6676V28.4318C21.9575 28.2959 21.9313 28.161 21.8779 28.036C21.8245 27.911 21.745 27.7989 21.6447 27.7071C21.5445 27.6154 21.4258 27.5461 21.2966 27.5039C21.1674 27.4617 21.0307 27.4475 20.8956 27.4624ZM8.11364 28.4318C6.01621 28.4318 4.29545 30.1526 4.29545 32.25C4.29545 34.3474 6.01621 36.0682 8.11364 36.0682C10.2111 36.0682 11.9318 34.3474 11.9318 32.25C11.9318 30.1526 10.2111 28.4318 8.11364 28.4318ZM33.8864 28.4318C31.7889 28.4318 30.0682 30.1526 30.0682 32.25C30.0682 34.3474 31.7889 36.0682 33.8864 36.0682C35.9838 36.0682 37.7045 34.3474 37.7045 32.25C37.7045 30.1526 35.9838 28.4318 33.8864 28.4318ZM8.11364 30.3409C9.1793 30.3409 10.0227 31.1843 10.0227 32.25C10.0227 33.3157 9.1793 34.1591 8.11364 34.1591C7.04796 34.1591 6.20455 33.3157 6.20455 32.25C6.20455 31.1843 7.04796 30.3409 8.11364 30.3409ZM33.8864 30.3409C34.952 30.3409 35.7955 31.1843 35.7955 32.25C35.7955 33.3157 34.952 34.1591 33.8864 34.1591C32.8207 34.1591 31.9773 33.3157 31.9773 32.25C31.9773 31.1843 32.8207 30.3409 33.8864 30.3409ZM8.11364 37.5C3.7035 37.5 0 40.6307 0 44.6591V47.0455C2.52989e-05 47.2986 0.100601 47.5414 0.279608 47.7204C0.458614 47.8994 0.701392 48 0.954545 48H15.2727C15.5259 48 15.7687 47.8994 15.9477 47.7204C16.1267 47.5414 16.2272 47.2986 16.2273 47.0455V44.6591C16.2273 40.6307 12.5238 37.5 8.11364 37.5ZM33.8864 37.5C29.4762 37.5 25.7727 40.6307 25.7727 44.6591V47.0455C25.7728 47.2986 25.8733 47.5414 26.0523 47.7204C26.2313 47.8994 26.4741 48 26.7273 48H41.0455C41.2986 48 41.5414 47.8994 41.7204 47.7204C41.8994 47.5414 42 47.2986 42 47.0455V44.6591C42 40.6307 38.2965 37.5 33.8864 37.5ZM8.11364 39.4091C11.6358 39.4091 14.3182 41.8129 14.3182 44.6591V46.0909H1.90909V44.6591C1.90909 41.8129 4.5915 39.4091 8.11364 39.4091ZM33.8864 39.4091C37.4085 39.4091 40.0909 41.8129 40.0909 44.6591V46.0909H27.6818V44.6591C27.6818 41.8129 30.3642 39.4091 33.8864 39.4091Z" fill="url(#paint6_linear)"/>
<defs>
<linearGradient id="paint0_linear" x1="22.3436" y1="4.66388" x2="22.3436" y2="13.7414" gradientUnits="userSpaceOnUse">
<stop stop-color="#C7DAFD"/>
<stop offset="1" stop-color="#E9F1FF"/>
</linearGradient>
<linearGradient id="paint1_linear" x1="22.3436" y1="14.6639" x2="22.3436" y2="23.7414" gradientUnits="userSpaceOnUse">
<stop stop-color="#C7DAFD"/>
<stop offset="1" stop-color="#E9F1FF"/>
</linearGradient>
<linearGradient id="paint2_linear" x1="9.34355" y1="27.6639" x2="9.34355" y2="36.7414" gradientUnits="userSpaceOnUse">
<stop stop-color="#C7DAFD"/>
<stop offset="1" stop-color="#E9F1FF"/>
</linearGradient>
<linearGradient id="paint3_linear" x1="9.34355" y1="36.6639" x2="9.34355" y2="45.7414" gradientUnits="userSpaceOnUse">
<stop stop-color="#C7DAFD"/>
<stop offset="1" stop-color="#E9F1FF"/>
</linearGradient>
<linearGradient id="paint4_linear" x1="34.3436" y1="27.6639" x2="34.3436" y2="36.7414" gradientUnits="userSpaceOnUse">
<stop stop-color="#C7DAFD"/>
<stop offset="1" stop-color="#E9F1FF"/>
</linearGradient>
<linearGradient id="paint5_linear" x1="35.4036" y1="36.6639" x2="35.4036" y2="45.7414" gradientUnits="userSpaceOnUse">
<stop stop-color="#C7DAFD"/>
<stop offset="1" stop-color="#E9F1FF"/>
</linearGradient>
<linearGradient id="paint6_linear" x1="0" y1="6" x2="31.496" y2="52.6035" gradientUnits="userSpaceOnUse">
<stop stop-color="#2569E6"/>
<stop offset="1" stop-color="#3649EF"/>
</linearGradient>
</defs>
</svg>
