<svg width="48" height="49" viewBox="0 0 48 49" fill="none" xmlns="http://www.w3.org/2000/svg">
<path d="M14.5 10C10.5 10 5.83333 13 4 14.5L3 16L2 17.5L1.5 20L1 23.5L1.5 26.5L3 29.5L4.5 32.5L6.5 35.5L7.5 37.5L7 41.5L6 44.5L7.5 45.5L11.5 46.5H16.5L21 46L22.5 45V44L23 42L25 41.5L27.5 42L30.5 40.5V36.5L31 33L33.5 31L33 30.5C32.3333 29.3333 31.3 25.9001 30.5 23.5001C29.5 10.0001 19.5 10 14.5 10Z" fill="url(#paint0_linear)"/>
<path fill-rule="evenodd" clip-rule="evenodd" d="M3.75639 32.9822C1.61839 30.1111 -1.04279 26.5378 0.419947 19.5836C1.19619 15.8902 3.26189 13.0815 6.55927 11.2352C9.85832 9.38771 13.5135 9 15.9989 9C17.8423 9 19.6441 9.21442 21.209 9.62041C24.9103 10.5799 28.2667 13.1825 30.1882 16.5829C31.6709 19.2071 32.086 22.0067 31.3563 24.4655C31.3007 24.6542 31.3343 24.864 31.4486 25.0406C31.6522 25.356 31.9589 25.784 32.3129 26.2794C33.267 27.6124 34.4543 29.2717 34.8898 30.461C35.0647 30.9393 35.0302 31.4725 34.795 31.9242C34.5598 32.3755 34.1426 32.7092 33.6589 32.8371C33.5608 32.8667 33.0954 33.0445 32.8448 33.1401C32.5835 33.2398 32.357 33.325 32.2971 33.3441C31.6481 33.5506 31.6838 36.2492 31.705 37.8616C31.7108 38.2759 31.7162 38.6939 31.7162 39.1065C31.7162 41.2304 30.3366 42.4987 28.027 42.4987C27.3712 42.4987 26.7874 42.4018 26.413 42.3204C26.1009 42.2527 25.7917 42.2165 25.5187 42.2165C24.4092 42.2165 23.9567 42.7206 23.9567 43.956C23.9567 44.3304 23.9459 44.6687 23.9255 44.9625C23.8627 45.8555 23.2797 46.6417 22.4395 46.9658C21.7721 47.2226 19.2938 48.0616 15.4304 48.0616H15.43C12.2901 48.0616 9.14025 47.5048 6.06893 46.4069C5.63717 46.2523 5.29102 45.9191 5.12023 45.4923C4.9486 45.0639 4.96813 44.5822 5.17508 44.17C5.72028 43.0863 6.99643 40.5481 6.10923 37.0969C5.73399 35.6375 4.81729 34.4071 3.75639 32.9822ZM11.4875 27.7961L10.8432 31.5486L14.2136 29.7769C14.8085 29.4642 15.4598 29.3079 16.1134 29.3079C16.7635 29.3079 17.4171 29.4642 18.0108 29.7769L21.38 31.5486L20.7358 27.7961C20.5101 26.4724 20.9486 25.1228 21.9102 24.1847L24.6376 21.5278L20.8687 20.98C19.5402 20.7872 18.3917 19.9525 17.7968 18.7476L16.1122 15.3348L14.4276 18.7476C13.8328 19.9525 12.6854 20.7872 11.3558 20.98L7.58802 21.5278L10.313 24.1847C11.2758 25.124 11.7143 26.4735 11.4875 27.7961ZM6.68768 44.8627C9.56037 45.8825 12.5012 46.3994 15.4304 46.3994C18.2724 46.3994 20.6057 45.8908 21.8419 45.415C22.0825 45.3219 22.2496 45.0983 22.2674 44.8465C22.2853 44.5914 22.2945 44.2918 22.2945 43.956C22.2945 41.8259 23.4996 40.5543 25.5187 40.5543C25.9143 40.5543 26.334 40.6021 26.7654 40.696C27.0072 40.7484 27.4921 40.8365 28.027 40.8365C29.813 40.8365 30.054 39.9617 30.054 39.1065C30.054 38.701 30.0486 38.2908 30.0428 37.8832C30.0054 35.0329 29.9701 32.3406 31.7906 31.7609C31.8538 31.7397 32.0391 31.6686 32.2523 31.5872C32.861 31.3545 33.1 31.266 33.2246 31.2327C33.2783 31.2186 33.3069 31.1833 33.3211 31.1558C33.3352 31.1284 33.3481 31.0848 33.329 31.0324C32.9712 30.0555 31.8093 28.4323 30.9612 27.2468C30.5946 26.7344 30.278 26.2914 30.0528 25.9432C29.6742 25.3577 29.5691 24.6467 29.7631 23.9922C30.3632 21.9697 30.0004 19.6289 28.7409 17.4007C27.0621 14.43 24.0165 12.0651 20.7922 11.2294C19.3611 10.8583 17.7039 10.6622 15.9989 10.6622C13.1827 10.6622 3.85363 11.3304 2.04641 19.9256C0.738258 26.1464 2.95023 29.1167 5.08947 31.9894C6.20689 33.49 7.26238 34.907 7.71948 36.6831C8.74672 40.6811 7.3297 43.5841 6.68768 44.8627Z" fill="url(#paint1_linear)"/>
<defs>
<linearGradient id="paint0_linear" x1="20.8922" y1="-0.844615" x2="20.8922" y2="43.0371" gradientUnits="userSpaceOnUse">
<stop stop-color="#C7DAFD"/>
<stop offset="1" stop-color="#E9F1FF"/>
</linearGradient>
<linearGradient id="paint1_linear" x1="35" y1="9" x2="4.64527" y2="49.2446" gradientUnits="userSpaceOnUse">
<stop stop-color="#2569E6"/>
<stop offset="1" stop-color="#3649EF"/>
</linearGradient>
</defs>
</svg>
