<svg width="48" height="48" viewBox="0 0 48 48" fill="none" xmlns="http://www.w3.org/2000/svg">
<circle cx="21.5" cy="15.5" r="6.5" fill="url(#paint0_linear)"/>
<path d="M19 37L20.5 33.5H21L23.5 37L27.5 38.5L24.5 41.5L25 46.5H24.5L21 44.5L16.5 46.5L17.5 41.5L14.5 38L19 37Z" fill="url(#paint1_linear)"/>
<path d="M35.4615 31.4231L36.6154 29H37L38.9231 31.4231L42 32.4615L39.6923 34.5385L40.0769 38H39.6923L37 36.6154L33.5385 38L34.3077 34.5385L32 32.1154L35.4615 31.4231Z" fill="url(#paint2_linear)"/>
<path d="M4.46154 31.4231L5.61538 29H6L7.92308 31.4231L11 32.4615L8.69231 34.5385L9.07692 38H8.69231L6 36.6154L2.53846 38L3.30769 34.5385L1 32.1154L4.46154 31.4231Z" fill="url(#paint3_linear)"/>
<path d="M7.33371 38.5957C7.62868 38.7504 7.92102 38.8289 8.20241 38.8287C8.61082 38.8287 8.97474 38.6638 9.22735 38.3642C9.43023 38.1232 9.64796 37.6908 9.52884 37.0012L9.19594 35.0653L10.6074 33.6939C11.0983 33.2179 11.2802 32.6393 11.1079 32.1068C10.9351 31.574 10.4477 31.2123 9.77011 31.1144L7.81629 30.8314L6.94276 29.0682C6.63997 28.4565 6.1456 28.1057 5.58582 28.1057C5.02558 28.1057 4.5308 28.4567 4.22886 29.0682L3.35579 30.8316L1.40237 31.1144C0.724315 31.2123 0.236507 31.5742 0.0637326 32.1072C-0.109042 32.6399 0.0733384 33.2183 0.563782 33.6936L1.97569 35.0654L1.64323 36.9999C1.52367 37.6899 1.74054 38.1225 1.94383 38.3641C2.36971 38.8706 3.11407 38.9749 3.83702 38.5957L5.58582 37.6799L7.33371 38.5957ZM3.49845 36.7558L3.8964 34.4398L2.21173 32.8029L4.54081 32.4656L5.58582 30.355L6.63122 32.4659L8.9599 32.8029L7.27527 34.44L7.67363 36.7562L5.58582 35.6624L3.49845 36.7558Z" fill="url(#paint4_linear)"/>
<path d="M40.5981 31.1144L38.6443 30.8316L37.7716 29.0687C37.4692 28.4567 36.9745 28.1057 36.4142 28.1057C35.8545 28.1057 35.3601 28.4565 35.0573 29.068L34.1838 30.8314L32.2299 31.1144C31.5523 31.2123 31.0649 31.574 30.8922 32.1068C30.7198 32.6393 30.9018 33.2179 31.3922 33.6936L32.8041 35.0653L32.4712 37.001C32.3521 37.6908 32.5698 38.1232 32.7727 38.3645C33.1994 38.8697 33.9429 38.9749 34.6668 38.5957L36.4142 37.6799L38.163 38.5957C38.458 38.7504 38.7503 38.8287 39.0317 38.8287C39.4401 38.8287 39.804 38.6638 40.0562 38.3641C40.2595 38.1227 40.4764 37.6902 40.3568 37.0012L40.0244 35.0654L41.4359 33.6941C41.9267 33.2183 42.1091 32.6399 41.9363 32.1072C41.7635 31.5742 41.2757 31.2123 40.5981 31.1144ZM38.1037 34.4398L38.5016 36.7558L36.4142 35.6623L34.3264 36.7562L34.7248 34.44L33.0402 32.8029L35.3688 32.4659L36.4142 30.355L37.4592 32.4656L39.7883 32.8029L38.1037 34.4398Z" fill="url(#paint5_linear)"/>
<path d="M21.0002 23.1909C25.1959 23.1909 28.5957 19.7903 28.5957 15.5946C28.5957 11.3996 25.1959 8 21.0002 8C16.8063 8 13.4048 11.3996 13.4048 15.5946C13.4048 19.7903 16.8063 23.1909 21.0002 23.1909ZM21.0002 9.78717C24.2029 9.78717 26.8085 12.3925 26.8085 15.5946C26.8085 18.7978 24.2029 21.4038 21.0002 21.4038C17.7976 21.4038 15.192 18.7978 15.192 15.5946C15.192 12.3925 17.7976 9.78717 21.0002 9.78717Z" fill="url(#paint6_linear)"/>
<path d="M25.9928 42.0814L28.3411 39.6853C28.9515 39.0636 29.178 38.3364 28.9629 37.6903C28.7504 37.0537 28.1496 36.6158 27.3149 36.4889L24.1005 36.0006L22.6563 32.9368C22.1209 31.8028 21.3198 31.6802 21.0005 31.6802C20.6802 31.6802 19.8787 31.8028 19.3455 32.9372L17.9004 36.0004L14.6856 36.4889C13.8505 36.6158 13.2492 37.0541 13.0372 37.6911C12.8216 38.3376 13.0485 39.0644 13.6581 39.6847L16.0077 42.0816L15.4522 45.4736C15.3017 46.3862 15.5705 46.9317 15.8222 47.2287C16.3371 47.8356 17.2372 47.9381 18.1342 47.4449L21.0005 45.8689L23.8658 47.4449C24.2515 47.6571 24.6293 47.7649 24.988 47.7647C25.4618 47.7647 25.8842 47.5744 26.1774 47.2287C26.4296 46.9317 26.6988 46.3863 26.5487 45.4749L25.9928 42.0814ZM24.7851 45.7644C24.7947 45.8228 24.7999 45.8739 24.8025 45.9175C24.7794 45.9068 24.7545 45.894 24.7271 45.8789L21.0005 43.8295L17.2734 45.8787C17.2459 45.8937 17.2211 45.9064 17.1984 45.9173C17.2005 45.8735 17.2062 45.8224 17.2158 45.7637L17.9179 41.4769L14.9334 38.4329C14.8789 38.3768 14.8383 38.3275 14.8095 38.2867C14.8483 38.2756 14.8963 38.2647 14.9544 38.256L19.1108 37.6244L20.962 33.6986C20.9756 33.6702 20.9882 33.6447 21.0009 33.6218C21.0136 33.6449 21.0266 33.6707 21.0401 33.6995L22.8902 37.6242L27.0461 38.256C27.1041 38.2647 27.1521 38.2756 27.1905 38.2867C27.1613 38.3277 27.1207 38.3773 27.0653 38.4337L24.0826 41.4771L24.7851 45.7644Z" fill="url(#paint7_linear)"/>
<path d="M8.83079 28.8539C9.31073 27.9896 9.87007 27.2241 10.5154 26.5613C11.9295 25.1088 13.8 24.1142 16.0994 23.5812C15.4659 23.1909 14.8764 22.7358 14.3542 22.2109C11.2833 23.2093 9.17982 24.9971 7.75 27.1985C8.06329 27.4937 8.33512 27.8526 8.54413 28.2752L8.83079 28.8539Z" fill="url(#paint8_linear)"/>
<path d="M7.24921 40.9903C6.95728 40.9903 6.72472 40.7595 6.71994 40.5601C6.71731 40.4632 6.7182 40.3712 6.71601 40.2752C6.64533 40.2431 6.57465 40.2154 6.50441 40.1788L5.5855 39.6973L4.92188 40.0451C4.92491 40.2335 4.9284 40.4216 4.93322 40.6077C4.96463 41.8073 6.02313 42.7775 7.24921 42.7775H14.0833L14.0981 42.6859L12.4358 40.9903H7.24921V40.9903Z" fill="url(#paint9_linear)"/>
<path d="M25.7998 23.6423C28.042 24.2009 29.8837 25.2045 31.2996 26.6485C31.9759 27.3385 32.5658 28.1407 33.0715 29.0496L33.4554 28.2746C33.6339 27.914 33.8604 27.602 34.1165 27.3331C32.6723 25.1329 30.5744 23.3318 27.5542 22.2964C27.0267 22.8126 26.4364 23.2611 25.7998 23.6423Z" fill="url(#paint10_linear)"/>
<path d="M35.4961 40.1786C35.4289 40.2139 35.3586 40.2355 35.2906 40.2663C35.2892 40.3692 35.291 40.4687 35.2888 40.5725C35.2849 40.7617 35.0519 40.9903 34.7683 40.9903H29.5639L27.9023 42.6856L27.9172 42.7775H34.7683C35.9926 42.7775 37.052 41.8073 37.0756 40.6077C37.079 40.4222 37.0812 40.235 37.0825 40.0474L36.4145 39.6973L35.4961 40.1786Z" fill="url(#paint11_linear)"/>
<defs>
<linearGradient id="paint0_linear" x1="22.9569" y1="5.13753" x2="22.9569" y2="20.7666" gradientUnits="userSpaceOnUse">
<stop stop-color="#C7DAFD"/>
<stop offset="1" stop-color="#E9F1FF"/>
</linearGradient>
<linearGradient id="paint1_linear" x1="22.4569" y1="29.6375" x2="22.4569" y2="45.2666" gradientUnits="userSpaceOnUse">
<stop stop-color="#C7DAFD"/>
<stop offset="1" stop-color="#E9F1FF"/>
</linearGradient>
<linearGradient id="paint2_linear" x1="38.1207" y1="26.326" x2="38.1207" y2="37.1461" gradientUnits="userSpaceOnUse">
<stop stop-color="#C7DAFD"/>
<stop offset="1" stop-color="#E9F1FF"/>
</linearGradient>
<linearGradient id="paint3_linear" x1="7.12066" y1="26.326" x2="7.12066" y2="37.1461" gradientUnits="userSpaceOnUse">
<stop stop-color="#C7DAFD"/>
<stop offset="1" stop-color="#E9F1FF"/>
</linearGradient>
<linearGradient id="paint4_linear" x1="0" y1="28.1057" x2="7.91366" y2="40.305" gradientUnits="userSpaceOnUse">
<stop stop-color="#2569E6"/>
<stop offset="1" stop-color="#3649EF"/>
</linearGradient>
<linearGradient id="paint5_linear" x1="30.8286" y1="28.1057" x2="38.7423" y2="40.305" gradientUnits="userSpaceOnUse">
<stop stop-color="#2569E6"/>
<stop offset="1" stop-color="#3649EF"/>
</linearGradient>
<linearGradient id="paint6_linear" x1="13.4048" y1="8" x2="24.7965" y2="24.856" gradientUnits="userSpaceOnUse">
<stop stop-color="#2569E6"/>
<stop offset="1" stop-color="#3649EF"/>
</linearGradient>
<linearGradient id="paint7_linear" x1="12.9575" y1="31.6802" x2="25.0193" y2="49.5279" gradientUnits="userSpaceOnUse">
<stop stop-color="#2569E6"/>
<stop offset="1" stop-color="#3649EF"/>
</linearGradient>
<linearGradient id="paint8_linear" x1="7.75" y1="22.2109" x2="12.2288" y2="30.5405" gradientUnits="userSpaceOnUse">
<stop stop-color="#2569E6"/>
<stop offset="1" stop-color="#3649EF"/>
</linearGradient>
<linearGradient id="paint9_linear" x1="4.92187" y1="39.6973" x2="5.9961" y2="44.4325" gradientUnits="userSpaceOnUse">
<stop stop-color="#2569E6"/>
<stop offset="1" stop-color="#3649EF"/>
</linearGradient>
<linearGradient id="paint10_linear" x1="25.7998" y1="22.2964" x2="30.4037" y2="30.6858" gradientUnits="userSpaceOnUse">
<stop stop-color="#2569E6"/>
<stop offset="1" stop-color="#3649EF"/>
</linearGradient>
<linearGradient id="paint11_linear" x1="27.9023" y1="39.6973" x2="28.9762" y2="44.4327" gradientUnits="userSpaceOnUse">
<stop stop-color="#2569E6"/>
<stop offset="1" stop-color="#3649EF"/>
</linearGradient>
</defs>
</svg>
