<svg width="24" height="19" viewBox="0 0 24 19" fill="none" xmlns="http://www.w3.org/2000/svg">
<rect x="1.36719" y="1" width="21.6363" height="17" fill="#DEEAFE"/>
<path d="M1.36719 1V1.25758V17.7424V18H1.61306H22.7577H23.0035V17.7424V1.25758V1H22.7577H1.61306H1.36719ZM1.85892 1.51515H22.5118V15.2713L17.7788 9.83808C17.7237 9.77463 17.6368 9.74326 17.556 9.75758C17.5032 9.76763 17.4538 9.7964 17.4177 9.83808L13.7143 13.9593L8.43588 7.77749C8.3807 7.71404 8.29384 7.68266 8.21306 7.69699C8.16024 7.70704 8.11081 7.7358 8.07476 7.77749L1.85892 14.7722V1.51515ZM13.9064 4.60609C12.9588 4.60609 12.1854 5.41638 12.1854 6.40912C12.1854 7.40185 12.9588 8.21215 13.9064 8.21215C14.854 8.21215 15.6275 7.40185 15.6275 6.40912C15.6275 5.41638 14.854 4.60609 13.9064 4.60609ZM13.7835 5.12124C13.825 5.11686 13.8638 5.12124 13.9064 5.12124C14.5883 5.12124 15.1358 5.69479 15.1358 6.40912C15.1358 7.12344 14.5883 7.69699 13.9064 7.69699C13.2246 7.69699 12.6771 7.12344 12.6771 6.40912C12.6771 5.73944 13.1615 5.18687 13.7835 5.12124ZM8.2438 8.33288L16.0655 17.4848H1.85892V15.5128L8.2438 8.33288ZM17.5944 10.3935L22.5118 16.036V17.4848H16.7262L14.0447 14.3456L17.5944 10.3935Z" fill="#2D59EA" stroke="#2D59EA"/>
</svg>
