<svg width="19" height="24" viewBox="0 0 19 24" fill="none" xmlns="http://www.w3.org/2000/svg">
<path d="M13 1H1V23H13V1Z" fill="#DEEAFE"/>
<path d="M18 6H6V23H18V6Z" fill="#DEEAFE"/>
<path d="M13.1953 1H1V23H18V5.85408L13.1953 1ZM13.4183 2.31274L16.8363 5.76586H13.4183V2.31274ZM1.76108 22.2311V1.7689H12.657V5.76564V6.1502V6.53476H17.2389V22.2311H1.76108Z" fill="#2B5DE9" stroke="#2B5DE9" stroke-width="0.6"/>
<path d="M14.9428 9.7998H4.05469V10.8998H14.9428V9.7998Z" fill="#2B5DE9"/>
<path d="M8.40992 13.0996H4.05469V17.4996H8.40992V13.0996Z" fill="#2B5DE9"/>
<path d="M14.9451 13.0996H10.5898V14.1996H14.9451V13.0996Z" fill="#2B5DE9"/>
<path d="M14.9451 16.4004H10.5898V17.5004H14.9451V16.4004Z" fill="#2B5DE9"/>
</svg>
