<svg width="22" height="22" viewBox="0 0 22 22" fill="none" xmlns="http://www.w3.org/2000/svg">
<circle cx="11" cy="11" r="10.5" fill="#DEEAFE" stroke="#2A5FE8"/>
<path d="M12.0964 15.542H9.71083C9.77047 16.0191 9.65119 16.526 9.38281 16.9137H12.4542C12.1859 16.526 12.0368 16.0489 12.0964 15.542Z" fill="#2A5FE8"/>
<path d="M9.8887 8.89184C9.79924 9.01112 9.7396 9.1304 9.65014 9.27949C9.5905 9.39877 9.50105 9.51805 9.44141 9.66715H10.3658V8.26562C10.2764 8.35508 10.1869 8.44454 10.0974 8.56382C10.0378 8.65328 9.94834 8.77256 9.8887 8.89184Z" fill="#2A5FE8"/>
<path d="M16.8086 6.17892C16.8086 6.08946 16.749 6 16.6297 6H5.1491C5.05964 6 5 6.08946 5 6.17892V12.8883H16.8086V6.17892ZM8.57836 10.7115H6.78918C6.78918 10.6817 6.78918 10.6817 6.78918 10.6519C6.78918 10.6221 6.78918 10.6221 6.78918 10.5922C6.78918 10.473 6.819 10.3239 6.84882 10.2046C6.87864 10.0853 6.93828 9.96602 7.02774 9.87656C7.08738 9.7871 7.17684 9.66782 7.2663 9.57836C7.35575 9.4889 7.44521 9.39944 7.53467 9.30998C7.59431 9.25035 7.68377 9.16089 7.74341 9.10125C7.80305 9.04161 7.86269 8.98197 7.92233 8.89251C7.98197 8.83287 8.01179 8.74341 8.04161 8.68377C8.07143 8.62413 8.10125 8.53467 8.10125 8.44521C8.10125 8.35575 8.10125 8.29612 8.07143 8.23648C8.04161 8.17684 8.01179 8.1172 7.95215 8.08738C7.89251 8.05756 7.86269 8.02774 7.80305 7.99792C7.74341 7.9681 7.68377 7.9681 7.59431 7.9681C7.50485 7.9681 7.44521 7.9681 7.35576 7.99792C7.29612 8.02774 7.23648 8.05756 7.17684 8.08738C7.1172 8.1172 7.08738 8.14702 7.02774 8.17684C6.99792 8.20666 6.9681 8.23648 6.93828 8.2663L6.72954 8.05756C6.75936 8.02774 6.78918 7.99792 6.84882 7.93828C6.90846 7.90846 6.9681 7.84882 7.02774 7.819C7.08738 7.78918 7.17684 7.75936 7.2663 7.72954C7.35575 7.69972 7.44521 7.69972 7.56449 7.69972C7.86269 7.69972 8.10125 7.75936 8.25035 7.90846C8.39944 8.05756 8.4889 8.2663 8.4889 8.50485C8.4889 8.59431 8.45908 8.71359 8.42926 8.80305C8.39944 8.89251 8.3398 8.98197 8.25035 9.07143C8.19071 9.16089 8.10125 9.25035 8.01179 9.3398C7.92233 9.42926 7.83287 9.51872 7.74341 9.60818C7.68377 9.66782 7.62413 9.72746 7.56449 9.7871C7.50485 9.84674 7.44521 9.90638 7.38557 9.99584C7.32594 10.0555 7.2663 10.1449 7.23648 10.2046C7.20666 10.2642 7.17684 10.3239 7.17684 10.3835H8.54854V10.7115H8.57836ZM11.113 9.96602H10.7552V10.7115H10.3675V9.96602H9.05548V9.69764C9.11512 9.57836 9.17476 9.42926 9.26421 9.25035C9.35367 9.07143 9.47295 8.92233 9.59223 8.74341C9.71151 8.56449 9.83079 8.38557 9.97989 8.23648C10.129 8.05756 10.2483 7.90846 10.3974 7.78918H10.785V9.66782H11.1429V9.96602H11.113ZM11.62 11.5166H11.2025L12.6338 7.37171H13.0215L11.62 11.5166ZM15.0791 8.08738C14.9896 8.20666 14.8703 8.35576 14.7809 8.53467C14.6616 8.71359 14.5721 8.92233 14.4528 9.16089C14.3634 9.39944 14.2739 9.638 14.1845 9.90638C14.095 10.1748 14.0652 10.4431 14.0354 10.7115H13.6179C13.6477 10.473 13.6775 10.2344 13.7372 9.99584C13.7968 9.75728 13.8863 9.4889 13.9757 9.25035C14.0652 9.01179 14.1845 8.80305 14.2739 8.59431C14.3932 8.38557 14.4827 8.23648 14.6019 8.08738H13.1706V7.72954H15.0791V8.08738Z" fill="#2A5FE8"/>
<path d="M5 14.7666C5 14.8561 5.08946 14.9455 5.1491 14.9455H16.6297C16.7191 14.9455 16.7788 14.8561 16.7788 14.7666V13.4844H5V14.7666Z" fill="#2A5FE8"/>
</svg>
