<svg width="24" height="24" viewBox="0 0 24 24" fill="none" xmlns="http://www.w3.org/2000/svg">
<path d="M5.00222 10.5001C1.5 9.5 -0.998895 16.5001 5.00222 16.5001V10.5001Z" fill="#DEEAFE"/>
<path d="M4.07122 14.9268C3.96945 14.9268 3.87185 14.9697 3.79989 15.0461C3.72793 15.1226 3.6875 15.2262 3.6875 15.3343V15.6061C3.6875 15.7142 3.72793 15.8178 3.79989 15.8943C3.87185 15.9707 3.96945 16.0136 4.07122 16.0136C4.17299 16.0136 4.27059 15.9707 4.34255 15.8943C4.41451 15.8178 4.45494 15.7142 4.45494 15.6061V15.3343C4.45494 15.2262 4.41451 15.1226 4.34255 15.0461C4.27059 14.9697 4.17299 14.9268 4.07122 14.9268Z" fill="#2C5AE9"/>
<path d="M12 20C11.7348 20 11.4804 20.1185 11.2929 20.3295C11.1054 20.5405 11 20.8266 11 21.125V21.875C11 22.1734 11.1054 22.4595 11.2929 22.6705C11.4804 22.8815 11.7348 23 12 23C12.2652 23 12.5196 22.8815 12.7071 22.6705C12.8946 22.4595 13 22.1734 13 21.875V21.125C13 20.8266 12.8946 20.5405 12.7071 20.3295C12.5196 20.1185 12.2652 20 12 20Z" fill="#DEEAFE"/>
<path d="M19.0002 10.4993C22.8665 9.51524 25 17 19.0001 16.9997L19.0002 10.4993Z" fill="#DEEAFE"/>
<path d="M4.07122 11.666C3.96945 11.666 3.87185 11.709 3.79989 11.7854C3.72793 11.8618 3.6875 11.9655 3.6875 12.0736V12.3453C3.6875 12.4534 3.72793 12.5571 3.79989 12.6335C3.87185 12.71 3.96945 12.7529 4.07122 12.7529C4.17299 12.7529 4.27059 12.71 4.34255 12.6335C4.41451 12.5571 4.45494 12.4534 4.45494 12.3453V12.0736C4.45494 11.9655 4.41451 11.8618 4.34255 11.7854C4.27059 11.709 4.17299 11.666 4.07122 11.666Z" fill="#2C5AE9"/>
<path d="M4.07122 13.2969C3.96945 13.2969 3.87185 13.3398 3.79989 13.4163C3.72793 13.4927 3.6875 13.5964 3.6875 13.7045V13.9762C3.6875 14.0843 3.72793 14.1879 3.79989 14.2644C3.87185 14.3408 3.96945 14.3838 4.07122 14.3838C4.17299 14.3838 4.27059 14.3408 4.34255 14.2644C4.41451 14.1879 4.45494 14.0843 4.45494 13.9762V13.7045C4.45494 13.5964 4.41451 13.4927 4.34255 13.4163C4.27059 13.3398 4.17299 13.2969 4.07122 13.2969Z" fill="#2C5AE9"/>
<path d="M18.797 17.1688H19.8049H19.8944H19.9405C19.9702 17.1726 20.0002 17.1726 20.03 17.1688C20.8378 17.1082 21.5938 16.7241 22.1451 16.0941C22.6965 15.4641 23.002 14.6352 23 13.775V13.4218C22.9989 12.7297 22.7985 12.0545 22.4259 11.4868C22.0532 10.919 21.5261 10.4859 20.9151 10.2454C20.8593 7.77317 19.8956 5.42216 18.2298 3.69462C16.5639 1.96708 14.3281 1 12 1C9.67187 1 7.43605 1.96708 5.77022 3.69462C4.10439 5.42216 3.14064 7.77317 3.08488 10.2454C2.47308 10.4862 1.94535 10.9202 1.57264 11.489C1.19992 12.0578 1.00009 12.7342 1 13.4272V13.7805C1.00135 14.6794 1.33815 15.5411 1.93657 16.1767C2.535 16.8124 3.34625 17.1701 4.19256 17.1716H4.81674V18.685C4.81742 19.5136 5.12758 20.308 5.67914 20.8938C6.2307 21.4797 6.97858 21.8091 7.7586 21.8099H10.547C10.6402 22.1852 10.8589 22.5116 11.1621 22.7282C11.4654 22.9447 11.8325 23.0366 12.1949 22.9867C12.5572 22.9368 12.8901 22.7485 13.1313 22.4569C13.3725 22.1653 13.5056 21.7904 13.5056 21.4023C13.5056 21.0141 13.3725 20.6392 13.1313 20.3477C12.8901 20.0561 12.5572 19.8677 12.1949 19.8178C11.8325 19.7679 11.4654 19.8598 11.1621 20.0764C10.8589 20.293 10.6402 20.6194 10.547 20.9947H7.76116C7.18468 20.994 6.632 20.7504 6.22436 20.3174C5.81673 19.8844 5.58742 19.2974 5.58674 18.685V10.4437C5.58674 8.63669 6.26256 6.90366 7.46551 5.6259C8.66847 4.34813 10.3 3.63029 12.0013 3.63029C13.7025 3.63029 15.3341 4.34813 16.537 5.6259C17.74 6.90366 18.4158 8.63669 18.4158 10.4437V16.7613C18.4158 16.8689 18.4559 16.9721 18.5273 17.0485C18.5987 17.1249 18.6956 17.1681 18.797 17.1688ZM12 20.6224C12.1458 20.6219 12.2885 20.6673 12.41 20.753C12.5315 20.8386 12.6263 20.9607 12.6825 21.1036C12.7386 21.2466 12.7536 21.404 12.7255 21.556C12.6973 21.708 12.6273 21.8477 12.5244 21.9574C12.4215 22.0671 12.2902 22.1419 12.1472 22.1723C12.0042 22.2027 11.856 22.1874 11.7212 22.1282C11.5864 22.0691 11.4712 21.9688 11.3902 21.84C11.3091 21.7113 11.2658 21.5599 11.2658 21.405C11.2658 21.1979 11.3431 20.9993 11.4807 20.8526C11.6183 20.7059 11.805 20.6231 12 20.6224ZM22.2325 13.4218V13.775C22.2317 14.3708 22.0369 14.9479 21.6811 15.4085C21.3254 15.8691 20.8306 16.1848 20.2807 16.302C20.2471 16.2309 20.1945 16.1718 20.1294 16.1322C20.0644 16.0926 19.9898 16.0742 19.9149 16.0795C19.8401 16.0847 19.7684 16.1132 19.7088 16.1615C19.6492 16.2098 19.6043 16.2757 19.5798 16.351H19.1807V10.8459H19.8049C20.4483 10.8459 21.0654 11.1172 21.5206 11.6002C21.9758 12.0832 22.2319 12.7384 22.2325 13.4218ZM4.8193 16.3564H4.19256C3.54958 16.3557 2.93314 16.0841 2.47849 15.6011C2.02384 15.1182 1.76812 14.4634 1.76744 13.7805V13.4272C1.76828 12.8315 1.96309 12.2544 2.31885 11.7938C2.6746 11.3332 3.16939 11.0175 3.7193 10.9002C3.7529 10.9714 3.80551 11.0305 3.87057 11.0701C3.93563 11.1097 4.01023 11.128 4.08504 11.1228C4.15986 11.1176 4.23157 11.089 4.29119 11.0407C4.35081 10.9925 4.39569 10.9266 4.42023 10.8513H4.8193V16.3564ZM12 2.81376C10.1636 2.81851 8.39854 3.56932 7.06669 4.91225C5.73484 6.25518 4.93715 8.08845 4.83721 10.0361H4.19256H4.10302H4.05698C4.02723 10.0324 3.99718 10.0324 3.96744 10.0361H3.85488C3.94601 7.80727 4.84371 5.70181 6.36076 4.15888C7.87781 2.61595 9.89708 1.75467 11.9974 1.75467C14.0978 1.75467 16.1171 2.61595 17.6341 4.15888C19.1512 5.70181 20.0489 7.80727 20.14 10.0361C20.0287 10.0236 19.9168 10.0173 19.8049 10.0171H19.1628C19.0584 8.0728 18.2588 6.24426 16.9274 4.90533C15.596 3.56641 13.8334 2.81823 12 2.81376Z" fill="#2C5AE9" stroke="#2D59EA" stroke-width="0.35"/>
<path d="M19.5547 11.598V11.8697C19.5547 11.9778 19.5951 12.0815 19.6671 12.1579C19.739 12.2344 19.8366 12.2773 19.9384 12.2773C20.0402 12.2773 20.1378 12.2344 20.2097 12.1579C20.2817 12.0815 20.3221 11.9778 20.3221 11.8697V11.598C20.3221 11.4899 20.2817 11.3862 20.2097 11.3098C20.1378 11.2334 20.0402 11.1904 19.9384 11.1904C19.8366 11.1904 19.739 11.2334 19.6671 11.3098C19.5951 11.3862 19.5547 11.4899 19.5547 11.598Z" fill="#2C5AE9"/>
<path d="M19.9306 12.8213C19.8288 12.8213 19.7312 12.8642 19.6593 12.9407C19.5873 13.0171 19.5469 13.1208 19.5469 13.2289V13.5006C19.5469 13.6087 19.5873 13.7124 19.6593 13.7888C19.7312 13.8652 19.8288 13.9082 19.9306 13.9082C20.0324 13.9082 20.13 13.8652 20.2019 13.7888C20.2739 13.7124 20.3143 13.6087 20.3143 13.5006V13.2289C20.3143 13.1208 20.2739 13.0171 20.2019 12.9407C20.13 12.8642 20.0324 12.8213 19.9306 12.8213Z" fill="#2C5AE9"/>
<path d="M19.9306 14.4512C19.8288 14.4512 19.7312 14.4941 19.6593 14.5706C19.5873 14.647 19.5469 14.7507 19.5469 14.8588V15.1305C19.5469 15.2386 19.5873 15.3422 19.6593 15.4187C19.7312 15.4951 19.8288 15.5381 19.9306 15.5381C20.0324 15.5381 20.13 15.4951 20.2019 15.4187C20.2739 15.3422 20.3143 15.2386 20.3143 15.1305V14.8588C20.3143 14.7507 20.2739 14.647 20.2019 14.5706C20.13 14.4941 20.0324 14.4512 19.9306 14.4512Z" fill="#2C5AE9"/>
</svg>
