<svg width="22" height="22" viewBox="0 0 22 22" fill="none" xmlns="http://www.w3.org/2000/svg">
<path d="M20.3013 0H6.72445C6.27451 0.000489351 5.84313 0.173792 5.52497 0.481887C5.20681 0.789982 5.02785 1.20771 5.02734 1.64342V5.75197H5.8759V1.64342C5.87617 1.42557 5.96565 1.21671 6.12473 1.06267C6.28381 0.908625 6.49948 0.821969 6.72445 0.82171H20.3013C20.5263 0.821969 20.742 0.908625 20.9011 1.06267C21.0601 1.21671 21.1496 1.42557 21.1499 1.64342V11.0931C21.1496 11.3109 21.0601 11.5198 20.9011 11.6738C20.742 11.8279 20.5263 11.9145 20.3013 11.9148H17.7557C17.6673 11.9148 17.5811 11.9416 17.5091 11.9913L15.21 13.5815V12.3257C15.21 12.2167 15.1653 12.1122 15.0857 12.0351C15.0062 11.9581 14.8983 11.9148 14.7857 11.9148H7.14873V12.7365H14.3614V14.3799C14.3615 14.4554 14.3829 14.5294 14.4235 14.5939C14.4641 14.6583 14.5223 14.7107 14.5916 14.7452C14.6609 14.7798 14.7387 14.7951 14.8164 14.7897C14.8942 14.7842 14.9688 14.7581 15.0323 14.7143L17.8916 12.7365H20.3013C20.7513 12.736 21.1827 12.5627 21.5008 12.2546C21.819 11.9465 21.9979 11.5288 21.9984 11.0931V1.64342C21.9979 1.20771 21.819 0.789982 21.5008 0.481887C21.1827 0.173792 20.7513 0.000489351 20.3013 0Z" fill="#2D59EA"/>
<path d="M16.2407 18.3452L12.9531 15L11.9993 15.9374L15.2868 19.2826L16.2407 18.3452Z" fill="#DEEAFE"/>
<path d="M0.764119 13.2265L0.164062 13.8076L7.74058 21.1444L8.34063 20.5634L0.764119 13.2265Z" fill="#2D59EA"/>
<path d="M8.25781 21.5944C8.44494 21.7401 8.6404 21.8756 8.84326 22.0001L9.2974 21.3059C9.12154 21.198 8.95213 21.0805 8.78996 20.9541L8.25781 21.5944Z" fill="#2D59EA"/>
<path d="M6.24067 8.98384L2.95312 5.63867L1.99926 6.5761L5.28681 9.92127L6.24067 8.98384Z" fill="#DEEAFE"/>
<path d="M13.5659 15.0816C13.327 14.8508 13.0034 14.7212 12.6659 14.7212C12.3284 14.7212 12.0047 14.8508 11.7658 15.0816L10.1202 16.6752L4.78033 11.5043L6.42605 9.9107C6.66439 9.67936 6.79824 9.36591 6.79824 9.03912C6.79824 8.71234 6.66439 8.39889 6.42605 8.16755L3.80756 5.6319C3.56866 5.4011 3.24498 5.27148 2.90751 5.27148C2.57005 5.27148 2.24637 5.4011 2.00746 5.6319L1.36479 6.25424C0.490823 7.10247 0 8.25176 0 9.44998C0 10.6482 0.490823 11.7975 1.36479 12.6457L8.94148 19.9827C9.81741 20.829 11.0043 21.3043 12.2416 21.3043C13.479 21.3043 14.6658 20.829 15.5418 19.9827L16.1844 19.3604C16.4228 19.129 16.5566 18.8156 16.5566 18.4888C16.5566 18.162 16.4228 17.8486 16.1844 17.6172L13.5659 15.0816ZM2.90751 6.09283C2.96322 6.09273 3.0184 6.1033 3.06988 6.12392C3.12136 6.14454 3.16812 6.17482 3.20748 6.213L5.82596 8.74865C5.90541 8.82574 5.95003 8.93021 5.95003 9.03912C5.95003 9.14804 5.90541 9.2525 5.82596 9.3296L5.45318 9.69064L2.23472 6.57399L2.60755 6.213C2.6469 6.17482 2.69366 6.14454 2.74514 6.12392C2.79662 6.1033 2.8518 6.09273 2.90751 6.09283ZM9.54157 19.4016L1.96487 12.0646C1.30718 11.426 0.91284 10.5769 0.85589 9.67663C0.79894 8.77641 1.0833 7.88701 1.65558 7.17543L4.85314 10.2717L3.88033 11.2137C3.84093 11.2519 3.80967 11.2972 3.78835 11.347C3.76703 11.3969 3.75605 11.4503 3.75605 11.5043C3.75605 11.5582 3.76703 11.6116 3.78835 11.6615C3.80967 11.7113 3.84093 11.7566 3.88033 11.7948L9.82021 17.5468C9.85961 17.5849 9.90638 17.6152 9.95786 17.6358C10.0093 17.6565 10.0645 17.6671 10.1202 17.6671C10.1759 17.6671 10.2311 17.6565 10.2826 17.6358C10.3341 17.6152 10.3808 17.5849 10.4202 17.5468L11.3931 16.6047L14.5906 19.7011C13.8558 20.2553 12.9373 20.5307 12.0076 20.4756C11.0779 20.4204 10.201 20.0385 9.54157 19.4016ZM15.5843 18.7793L15.2116 19.1403L11.9931 16.0237L12.3659 15.6627C12.4455 15.5857 12.5534 15.5425 12.6659 15.5425C12.7784 15.5425 12.8862 15.5857 12.9659 15.6627L15.5843 18.1983C15.6638 18.2754 15.7084 18.3799 15.7084 18.4888C15.7084 18.5977 15.6638 18.7022 15.5843 18.7793Z" fill="#2D59EA"/>
<path d="M17.7587 2.05469H16.9102V2.8764H17.7587V2.05469Z" fill="#2D59EA"/>
<path d="M19.8801 3.69727H16.9102V4.51898H19.8801V3.69727Z" fill="#2D59EA"/>
<path d="M19.8801 5.34082H16.9102V6.16253H19.8801V5.34082Z" fill="#2D59EA"/>
<path d="M19.8801 6.98438H16.9102V7.80609H19.8801V6.98438Z" fill="#2D59EA"/>
<path d="M19.8792 8.62793H12.2422V9.44964H19.8792V8.62793Z" fill="#2D59EA"/>
<path d="M15 2.5L8 4V6L15 7.5V2.5Z" fill="#DEEAFE"/>
<path d="M14.3618 2.05469C14.09 2.05502 13.8254 2.13944 13.6066 2.29565C13.3879 2.45186 13.2264 2.67168 13.1457 2.92303L10.513 3.28725H8.8462C8.43302 3.2871 8.03397 3.43292 7.7239 3.69736C7.41383 3.96179 7.21403 4.32669 7.16197 4.72361C7.10991 5.12052 7.20917 5.5222 7.44113 5.8533C7.67309 6.18441 8.02182 6.42219 8.42192 6.52207V8.21751C8.42192 8.54441 8.55602 8.85792 8.79472 9.08907C9.03342 9.32022 9.35717 9.45008 9.69475 9.45008C10.0323 9.45008 10.3561 9.32022 10.5948 9.08907C10.8335 8.85792 10.9676 8.54441 10.9676 8.21751V6.63696L13.1457 6.93832C13.2357 7.2202 13.4271 7.46148 13.6851 7.61833C13.9432 7.77518 14.2507 7.8372 14.552 7.79312C14.8532 7.74903 15.1282 7.60177 15.3268 7.37809C15.5255 7.1544 15.6347 6.86913 15.6346 6.57409V3.28725C15.6342 2.96047 15.5 2.64719 15.2614 2.41612C15.0228 2.18505 14.6993 2.05507 14.3618 2.05469ZM7.99764 4.93067C7.99791 4.71282 8.08739 4.50397 8.24647 4.34992C8.40555 4.19588 8.62123 4.10922 8.8462 4.10896H10.119V5.75238H8.8462C8.62123 5.75213 8.40555 5.66547 8.24647 5.51143C8.08739 5.35738 7.99791 5.14853 7.99764 4.93067ZM10.119 8.21751C10.119 8.32648 10.0743 8.43098 9.99476 8.50803C9.91519 8.58508 9.80728 8.62837 9.69475 8.62837C9.58223 8.62837 9.47431 8.58508 9.39474 8.50803C9.31517 8.43098 9.27047 8.32648 9.27047 8.21751V6.57409H10.119V8.21751ZM10.9676 4.05442L13.089 3.76097V6.10038L10.9676 5.80692V4.05442ZM14.7861 6.57409C14.7861 6.68306 14.7414 6.78756 14.6618 6.86461C14.5822 6.94166 14.4743 6.98495 14.3618 6.98495C14.2493 6.98495 14.1414 6.94166 14.0618 6.86461C13.9822 6.78756 13.9375 6.68306 13.9375 6.57409V3.28725C13.9375 3.17829 13.9822 3.07378 14.0618 2.99673C14.1414 2.91968 14.2493 2.8764 14.3618 2.8764C14.4743 2.8764 14.5822 2.91968 14.6618 2.99673C14.7414 3.07378 14.7861 3.17829 14.7861 3.28725V6.57409Z" fill="#2D59EA"/>
</svg>
