<svg width="22" height="22" viewBox="0 0 22 22" fill="none" xmlns="http://www.w3.org/2000/svg">
<g clip-path="url(#clip0)">
<path d="M16.7609 3.5166H11.1362C10.9747 3.5166 10.8438 3.63973 10.8438 3.7916C10.8438 3.94347 10.9747 4.0666 11.1362 4.0666H16.7609C16.9224 4.0666 17.0533 3.94347 17.0533 3.7916C17.0533 3.63973 16.9224 3.5166 16.7609 3.5166Z" fill="#2D59EA"/>
<path d="M19.1524 0H2.84762C2.37953 0 2 4.92529 2 11C2 17.0747 2.37953 22 2.84762 22H19.1524C19.6205 22 20 17.0747 20 11C20 4.92529 19.6205 0 19.1524 0Z" fill="#DEEAFE"/>
<path d="M16.7609 6.4043H11.1362C10.9747 6.4043 10.8438 6.52743 10.8438 6.6793C10.8438 6.83116 10.9747 6.9543 11.1362 6.9543H16.7609C16.9224 6.9543 17.0533 6.83116 17.0533 6.6793C17.0533 6.52743 16.9224 6.4043 16.7609 6.4043Z" fill="#2D59EA"/>
<path d="M16.7609 4H11.1362C10.9747 4 10.8438 4.12313 10.8438 4.275C10.8438 4.42687 10.9747 4.55 11.1362 4.55H16.7609C16.9224 4.55 17.0533 4.42687 17.0533 4.275C17.0533 4.12313 16.9224 4 16.7609 4Z" fill="#2D59EA"/>
<path d="M19.7076 22C19.8691 22 20 21.8769 20 21.725V0.275C20 0.123132 19.8691 0 19.7076 0H2.29241C2.13093 0 2 0.123132 2 0.275V21.725C2 21.8769 2.13093 22 2.29241 22H19.7076ZM2.58482 0.55H19.4152V21.45H2.58482V0.55Z" fill="#2D59EA" stroke="#2D59EA" stroke-width="0.8"/>
<path d="M8.72452 3.5166H5.56585C5.40436 3.5166 5.27344 3.63973 5.27344 3.7916V6.8064C5.27344 6.95826 5.40436 7.0814 5.56585 7.0814H8.72452C8.886 7.0814 9.01693 6.95826 9.01693 6.8064V3.7916C9.01693 3.63973 8.886 3.5166 8.72452 3.5166ZM8.43211 6.5314H5.85826V4.0666H8.43211V6.5314Z" fill="#2D59EA"/>
<path d="M16.7609 9.29297H11.1362C10.9747 9.29297 10.8438 9.4161 10.8438 9.56797C10.8438 9.71984 10.9747 9.84297 11.1362 9.84297H16.7609C16.9224 9.84297 17.0533 9.71984 17.0533 9.56797C17.0533 9.4161 16.9224 9.29297 16.7609 9.29297Z" fill="#2D59EA"/>
<path d="M16.7609 12.1797H11.1362C10.9747 12.1797 10.8438 12.3028 10.8438 12.4547C10.8438 12.6066 10.9747 12.7297 11.1362 12.7297H16.7609C16.9224 12.7297 17.0533 12.6066 17.0533 12.4547C17.0533 12.3028 16.9224 12.1797 16.7609 12.1797Z" fill="#2D59EA"/>
<path d="M8.72452 9.22949H5.56585C5.40436 9.22949 5.27344 9.35262 5.27344 9.50449V12.5193C5.27344 12.6712 5.40436 12.7943 5.56585 12.7943H8.72452C8.886 12.7943 9.01693 12.6712 9.01693 12.5193V9.50449C9.01693 9.35262 8.886 9.22949 8.72452 9.22949ZM8.43211 12.2443H5.85826V9.77949H8.43211V12.2443Z" fill="#2D59EA"/>
<path d="M16.7609 15.0674H11.1362C10.9747 15.0674 10.8438 15.1905 10.8438 15.3424C10.8438 15.4943 10.9747 15.6174 11.1362 15.6174H16.7609C16.9224 15.6174 17.0533 15.4943 17.0533 15.3424C17.0533 15.1905 16.9224 15.0674 16.7609 15.0674Z" fill="#2D59EA"/>
<path d="M16.7609 17.9561H11.1362C10.9747 17.9561 10.8438 18.0792 10.8438 18.2311C10.8438 18.3829 10.9747 18.5061 11.1362 18.5061H16.7609C16.9224 18.5061 17.0533 18.3829 17.0533 18.2311C17.0533 18.0792 16.9224 17.9561 16.7609 17.9561Z" fill="#2D59EA"/>
<path d="M8.72452 14.9404H5.56585C5.40436 14.9404 5.27344 15.0636 5.27344 15.2154V18.2301C5.27344 18.382 5.40436 18.5051 5.56585 18.5051H8.72452C8.886 18.5051 9.01693 18.382 9.01693 18.2301V15.2154C9.01693 15.0636 8.886 14.9404 8.72452 14.9404ZM8.43211 17.9551H5.85826V15.4904H8.43211V17.9551Z" fill="#2D59EA"/>
</g>
<defs>
<clipPath id="clip0">
<rect width="22" height="22" fill="white"/>
</clipPath>
</defs>
</svg>
