<svg width="24" height="24" viewBox="0 0 24 24" fill="none" xmlns="http://www.w3.org/2000/svg">
<rect x="1" y="4" width="8" height="19" fill="#DEEAFE"/>
<rect x="8" y="13" width="11" height="10" fill="#DEEAFE"/>
<path d="M5.86969 15.6068C4.86491 15.6068 4.02639 14.8625 3.85531 13.8841H1V4.02637H10.6358V7.65156H10.2743C9.54425 7.65156 8.9515 8.26028 8.9515 9.007C8.9515 9.75373 9.54425 10.36 10.2743 10.36H10.6358V13.8841H7.88407C7.713 14.8625 6.87447 15.6068 5.86969 15.6068ZM1.72286 13.1448H4.54685V13.5145C4.54685 14.2612 5.1396 14.8674 5.86969 14.8674C6.59978 14.8674 7.19253 14.2612 7.19253 13.5145V13.1448H9.91291V11.0673C8.95632 10.8923 8.22864 10.0347 8.22864 9.007C8.22864 7.97933 8.95632 7.11924 9.91291 6.94427V4.7657H1.72286V13.1448Z" fill="#2D59EA" stroke="#2D59EA" stroke-width="0.6"/>
<path d="M10.6382 22.9998H1V13.1445H4.54444V13.5142C4.54444 14.2609 5.13719 14.8672 5.86728 14.8672C6.59737 14.8672 7.19012 14.2609 7.19012 13.5142V13.1445H10.6358V15.9614C11.0454 16.0353 11.4213 16.2325 11.7225 16.5405C12.1104 16.9348 12.3225 17.4622 12.3225 18.0241C12.3225 19.0518 11.5948 19.9094 10.6382 20.0844V22.9998ZM1.72286 22.2605H9.91532V19.3746H10.2768C11.0068 19.3746 11.5996 18.7684 11.5996 18.0217C11.5996 17.6594 11.4622 17.3168 11.2117 17.063C10.9635 16.8092 10.631 16.6687 10.2792 16.6687H10.2768H9.91532V13.8839H7.88407C7.713 14.8622 6.87447 15.6065 5.86969 15.6065C4.86491 15.6065 4.02639 14.8622 3.85531 13.8839H1.72286V22.2605Z" fill="#2D59EA" stroke="#2D59EA" stroke-width="0.6"/>
<path d="M19.5522 22.9998H9.91406V19.3746H10.2755C11.0056 19.3746 11.5983 18.7684 11.5983 18.0216C11.5983 17.2749 11.0056 16.6687 10.2755 16.6687H9.91406V13.1445H12.6682C12.8393 12.1661 13.6778 11.4219 14.6826 11.4219C15.6873 11.4219 16.5259 12.1661 16.6969 13.1445H19.5522V22.9998ZM10.6369 22.2605H18.8294V13.8839H16.0054V13.5142C16.0054 12.7675 15.4126 12.1612 14.6826 12.1612C13.9525 12.1612 13.3597 12.7675 13.3597 13.5142V13.8839H10.6369V15.9614C11.5935 16.1364 12.3212 16.994 12.3212 18.0216C12.3212 19.0493 11.5935 19.9069 10.6369 20.0819V22.2605Z" fill="#2D59EA" stroke="#2D59EA" stroke-width="0.6"/>
<path d="M20.7293 11.6612L17.674 10.7888L17.7704 10.4339C17.9342 9.83502 17.5897 9.21152 17.0042 9.0464C16.7198 8.96507 16.4235 9.00204 16.168 9.14991C15.9126 9.29777 15.7271 9.53929 15.6476 9.82763L15.5512 10.185L12.5802 9.33474L13.2236 6.97134C12.4646 6.57703 12.0574 5.67751 12.2935 4.80756C12.5296 3.93761 13.3344 3.38311 14.1826 3.44719L14.85 1L23.0015 3.32643L20.7293 11.6612ZM18.5294 10.2663L20.2257 10.7493L22.1124 3.83657L15.3536 1.90938L14.6958 4.32207L14.3488 4.22349C13.7633 4.05591 13.1537 4.40832 12.9923 5.00718C12.8284 5.60604 13.173 6.22954 13.7585 6.39466L14.1055 6.49324L13.4718 8.82214L15.0837 9.28299C15.2452 8.95768 15.4958 8.68906 15.8138 8.50422C16.2379 8.26024 16.7319 8.19863 17.1993 8.33171C18.0499 8.57569 18.592 9.39882 18.5294 10.2663Z" fill="#2D59EA" stroke="#2D59EA" stroke-width="0.6"/>
</svg>
