<svg width="100" height="16" viewBox="0 0 100 16" fill="none" xmlns="http://www.w3.org/2000/svg">
<path opacity="0.15" d="M99.3536 8.35356C99.5488 8.1583 99.5488 7.84172 99.3536 7.64646L96.1716 4.46447C95.9763 4.26921 95.6597 4.26921 95.4645 4.46447C95.2692 4.65974 95.2692 4.97632 95.4645 5.17158L98.2929 8.00001L95.4645 10.8284C95.2692 11.0237 95.2692 11.3403 95.4645 11.5355C95.6597 11.7308 95.9763 11.7308 96.1716 11.5355L99.3536 8.35356ZM-4.37114e-08 8.5L2.0625 8.5L2.0625 7.5L4.37114e-08 7.5L-4.37114e-08 8.5ZM6.1875 8.5L10.3125 8.5L10.3125 7.5L6.1875 7.5L6.1875 8.5ZM14.4375 8.5L18.5625 8.5L18.5625 7.5L14.4375 7.5L14.4375 8.5ZM22.6875 8.5L26.8125 8.5L26.8125 7.5L22.6875 7.5L22.6875 8.5ZM30.9375 8.5L35.0625 8.5L35.0625 7.5L30.9375 7.5L30.9375 8.5ZM39.1875 8.5L43.3125 8.5L43.3125 7.5L39.1875 7.5L39.1875 8.5ZM47.4375 8.5L51.5625 8.5L51.5625 7.5L47.4375 7.5L47.4375 8.5ZM55.6875 8.5L59.8125 8.50001L59.8125 7.50001L55.6875 7.5L55.6875 8.5ZM63.9375 8.50001L68.0625 8.50001L68.0625 7.50001L63.9375 7.50001L63.9375 8.50001ZM72.1875 8.50001L76.3125 8.50001L76.3125 7.50001L72.1875 7.50001L72.1875 8.50001ZM80.4375 8.50001L84.5625 8.50001L84.5625 7.50001L80.4375 7.50001L80.4375 8.50001ZM88.6875 8.50001L92.8125 8.50001L92.8125 7.50001L88.6875 7.50001L88.6875 8.50001ZM96.9375 8.50001L99 8.50001L99 7.50001L96.9375 7.50001L96.9375 8.50001ZM99.7071 8.70712C100.098 8.31659 100.098 7.68343 99.7071 7.2929L93.3431 0.92894C92.9526 0.538416 92.3195 0.538416 91.9289 0.92894C91.5384 1.31946 91.5384 1.95263 91.9289 2.34315L97.5858 8.00001L91.9289 13.6569C91.5384 14.0474 91.5384 14.6806 91.9289 15.0711C92.3195 15.4616 92.9526 15.4616 93.3431 15.0711L99.7071 8.70712ZM-8.74228e-08 9L2.0625 9L2.0625 7L8.74228e-08 7L-8.74228e-08 9ZM6.1875 9L10.3125 9L10.3125 7L6.1875 7L6.1875 9ZM14.4375 9L18.5625 9L18.5625 7L14.4375 7L14.4375 9ZM22.6875 9L26.8125 9L26.8125 7L22.6875 7L22.6875 9ZM30.9375 9L35.0625 9L35.0625 7L30.9375 7L30.9375 9ZM39.1875 9L43.3125 9L43.3125 7L39.1875 7L39.1875 9ZM47.4375 9L51.5625 9L51.5625 7L47.4375 7L47.4375 9ZM55.6875 9L59.8125 9.00001L59.8125 7.00001L55.6875 7L55.6875 9ZM63.9375 9.00001L68.0625 9.00001L68.0625 7.00001L63.9375 7.00001L63.9375 9.00001ZM72.1875 9.00001L76.3125 9.00001L76.3125 7.00001L72.1875 7.00001L72.1875 9.00001ZM80.4375 9.00001L84.5625 9.00001L84.5625 7.00001L80.4375 7.00001L80.4375 9.00001ZM88.6875 9.00001L92.8125 9.00001L92.8125 7.00001L88.6875 7.00001L88.6875 9.00001ZM96.9375 9.00001L99 9.00001L99 7.00001L96.9375 7.00001L96.9375 9.00001Z" fill="#2569E6"/>
</svg>
