<svg width="36" height="35" viewBox="0 0 36 35" fill="none" xmlns="http://www.w3.org/2000/svg">
<path d="M28.399 18.5165H29.5774C30.1297 18.5165 30.6084 18.0749 30.6084 17.4862C30.6084 16.8976 30.1665 16.456 29.5774 16.456H28.399C27.9203 11.2313 23.7594 7.07363 18.5306 6.59532V5.41792C18.5306 4.86601 18.0887 4.3877 17.4995 4.3877C16.9103 4.3877 16.4685 4.82922 16.4685 5.41792V6.59532C11.2397 7.07363 7.07868 11.2313 6.59999 16.456H5.42166C4.86932 16.456 4.39062 16.8976 4.39062 17.4862C4.39062 18.0749 4.8325 18.5165 5.42166 18.5165H6.59999C7.07868 23.7412 11.2397 27.8989 16.4685 28.3772V29.5546C16.4685 30.1065 16.9103 30.5848 17.4995 30.5848C18.0887 30.5848 18.5306 30.1433 18.5306 29.5546V28.3772C23.7226 27.8621 27.8835 23.7044 28.399 18.5165ZM18.5306 26.3167V25.2497C18.5306 24.6978 18.0887 24.2195 17.4995 24.2195C16.9103 24.2195 16.4685 24.661 16.4685 25.2497V26.3167C12.3812 25.8384 9.10393 22.6006 8.66206 18.5165H9.72992C10.2823 18.5165 10.761 18.0749 10.761 17.4862C10.761 16.8976 10.3191 16.456 9.72992 16.456H8.66206C9.14076 12.3719 12.3812 9.13408 16.4685 8.65576V9.72278C16.4685 10.2747 16.9103 10.753 17.4995 10.753C18.0887 10.753 18.5306 10.3115 18.5306 9.72278V8.65576C22.6179 9.13408 25.8951 12.3719 26.337 16.456H25.2691C24.7168 16.456 24.2381 16.8976 24.2381 17.4862C24.2381 18.0749 24.6799 18.5165 25.2691 18.5165H26.337C25.8583 22.6006 22.6179 25.8384 18.5306 26.3167Z" fill="url(#paint0_linear)"/>
<path d="M17.4997 13.1816C15.1062 13.1816 13.1914 15.1317 13.1914 17.4865C13.1914 19.8413 15.1062 21.7914 17.4997 21.7914C19.8931 21.7914 21.8079 19.8781 21.8079 17.4865C21.8079 15.0949 19.8931 13.1816 17.4997 13.1816Z" fill="url(#paint1_linear)"/>
<path d="M3.76512 5.19711L2.9182 6.08016C2.66044 6.33771 2.54997 6.74244 2.66044 7.11038C2.77091 7.47832 3.06549 7.73588 3.43372 7.80946L7.37375 8.58213C7.4474 8.58213 7.52104 8.61892 7.55786 8.61892C7.81562 8.61892 8.07338 8.50854 8.29432 8.32457C8.55208 8.06702 8.62572 7.73587 8.5889 7.40473L7.81562 3.46781C7.74198 3.09987 7.48422 2.80552 7.11599 2.69514C6.74776 2.58476 6.37954 2.69514 6.08495 2.95269L5.23803 3.79895L1.73987 0.303548C1.33482 -0.101183 0.708837 -0.101183 0.303787 0.303548C-0.101262 0.708279 -0.101262 1.33377 0.303787 1.7385L3.76512 5.19711Z" fill="url(#paint2_linear)"/>
<path d="M31.235 29.7749L32.0819 28.9286C32.3397 28.6711 32.4502 28.2664 32.3397 27.8984C32.2292 27.5305 31.9346 27.2729 31.5664 27.1993L27.6264 26.4267C27.295 26.3531 26.9636 26.4635 26.7058 26.721C26.4481 26.9786 26.3744 27.3097 26.4112 27.6409L27.1845 31.5778C27.2582 31.9457 27.5159 32.2401 27.8841 32.3505C27.9946 32.3873 28.0683 32.3873 28.1787 32.3873C28.4365 32.3873 28.6942 32.2769 28.9152 32.0929L29.7621 31.2467L33.2234 34.7053C33.4075 34.8892 33.6653 34.9996 33.9599 34.9996C34.2176 34.9996 34.4754 34.8892 34.6963 34.7053C35.1014 34.3005 35.1014 33.675 34.6963 33.2703L31.235 29.7749Z" fill="url(#paint3_linear)"/>
<path d="M27.4441 8.58213C27.5177 8.58213 27.5914 8.58213 27.6282 8.54534L31.5682 7.77267C31.9364 7.69908 32.231 7.44153 32.3415 7.07359C32.452 6.70565 32.3415 6.33771 32.0837 6.04336L31.2368 5.19711L34.6981 1.7385C35.1032 1.33377 35.1032 0.708279 34.6981 0.303548C34.2931 -0.101183 33.6671 -0.101183 33.2621 0.303548L29.8007 3.76216L28.917 2.9159C28.6592 2.65834 28.2542 2.54796 27.8859 2.65834C27.5177 2.76873 27.2599 3.06308 27.1863 3.43101L26.413 7.36794C26.3394 7.69908 26.4498 8.03022 26.7076 8.28778C26.8917 8.47175 27.1495 8.58213 27.4441 8.58213Z" fill="url(#paint4_linear)"/>
<path d="M7.37375 26.3899L3.43372 27.1625C3.06549 27.2361 2.77091 27.4937 2.66044 27.8616C2.54997 28.2295 2.66044 28.5975 2.9182 28.8918L3.76512 29.7381L0.303787 33.1967C-0.101262 33.6014 -0.101262 34.2269 0.303787 34.6316C0.487901 34.8156 0.74566 34.926 1.04024 34.926C1.33482 34.926 1.55576 34.8156 1.7767 34.6316L5.23803 31.173L6.08496 32.0193C6.26907 32.2033 6.52683 32.3136 6.82141 32.3136C6.93188 32.3136 7.00552 32.3136 7.11599 32.2769C7.48422 32.1665 7.74198 31.8721 7.81562 31.5042L8.5889 27.5673C8.66255 27.2361 8.55208 26.905 8.29432 26.6474C8.03656 26.4635 7.70515 26.3531 7.37375 26.3899Z" fill="url(#paint5_linear)"/>
<defs>
<linearGradient id="paint0_linear" x1="10.0087" y1="4.3877" x2="18.8917" y2="28.2504" gradientUnits="userSpaceOnUse">
<stop stop-color="#5297FF"/>
<stop offset="1" stop-color="#2344EF"/>
</linearGradient>
<linearGradient id="paint1_linear" x1="15.0378" y1="13.1816" x2="17.9572" y2="21.0241" gradientUnits="userSpaceOnUse">
<stop stop-color="#5297FF"/>
<stop offset="1" stop-color="#2344EF"/>
</linearGradient>
<linearGradient id="paint2_linear" x1="1.84238" y1="9.96003e-08" x2="4.77209" y2="7.84467" gradientUnits="userSpaceOnUse">
<stop stop-color="#5297FF"/>
<stop offset="1" stop-color="#2344EF"/>
</linearGradient>
<linearGradient id="paint3_linear" x1="28.2447" y1="26.4043" x2="31.1604" y2="34.2327" gradientUnits="userSpaceOnUse">
<stop stop-color="#5297FF"/>
<stop offset="1" stop-color="#2344EF"/>
</linearGradient>
<linearGradient id="paint4_linear" x1="28.2359" y1="9.91751e-08" x2="31.1402" y2="7.82232" gradientUnits="userSpaceOnUse">
<stop stop-color="#5297FF"/>
<stop offset="1" stop-color="#2344EF"/>
</linearGradient>
<linearGradient id="paint5_linear" x1="1.84528" y1="26.3828" x2="4.72647" y2="34.1782" gradientUnits="userSpaceOnUse">
<stop stop-color="#5297FF"/>
<stop offset="1" stop-color="#2344EF"/>
</linearGradient>
</defs>
</svg>
