<svg width="31" height="35" viewBox="0 0 31 35" fill="none" xmlns="http://www.w3.org/2000/svg">
<path d="M8.51703 11.4332L24.6512 6.60558C25.0464 6.48717 25.4614 6.45074 25.871 6.49851C26.2806 6.54628 26.6764 6.67726 27.0343 6.88351C27.3923 7.08977 27.705 7.36703 27.9537 7.69854C28.2024 8.03006 28.3817 8.40894 28.481 8.81229L29.3171 12.1759H8.62331C8.53229 12.1769 8.444 12.1446 8.37486 12.0849C8.30572 12.0252 8.26044 11.9423 8.24744 11.8515C8.23445 11.7607 8.25462 11.6682 8.30421 11.5913C8.3538 11.5143 8.42943 11.4581 8.51703 11.4332ZM16.5629 0.546057L2.51189 10.2727C2.45617 10.3249 2.41857 10.3937 2.40465 10.469C2.39073 10.5444 2.40124 10.6222 2.4346 10.6911C2.46797 10.7599 2.52243 10.8162 2.58994 10.8514C2.65745 10.8867 2.73442 10.8991 2.80949 10.8869L22.6495 4.41315H22.692L20.8922 1.45659C20.6745 1.10204 20.3876 0.795824 20.0488 0.556563C19.71 0.317303 19.3264 0.149999 18.9214 0.0648276C18.5165 -0.020344 18.0985 -0.0216036 17.6931 0.0611253C17.2876 0.143854 16.9031 0.308843 16.5629 0.546057ZM15.5 29.0083C16.2897 29.0083 17.0617 28.7723 17.7183 28.3301C18.3749 27.8879 18.8867 27.2594 19.1889 26.5241C19.4911 25.7888 19.5701 24.9796 19.4161 24.199C19.262 23.4184 18.8817 22.7014 18.3233 22.1386C17.7649 21.5758 17.0535 21.1925 16.279 21.0372C15.5044 20.882 14.7016 20.9616 13.972 21.2662C13.2424 21.5708 12.6188 22.0866 12.1801 22.7484C11.7414 23.4102 11.5072 24.1882 11.5072 24.9841C11.5072 26.0514 11.9279 27.075 12.6767 27.8297C13.4255 28.5843 14.441 29.0083 15.5 29.0083ZM3.01851 14.9647H27.9815C28.782 14.9647 29.5498 15.2852 30.1159 15.8557C30.682 16.4262 31 17.2001 31 18.0069V31.9577C31 32.7646 30.682 33.5384 30.1159 34.1089C29.5498 34.6795 28.782 35 27.9815 35H3.01851C2.21795 35 1.45018 34.6795 0.884102 34.1089C0.318021 33.5384 0 32.7646 0 31.9577V18.0069C0 17.2001 0.318021 16.4262 0.884102 15.8557C1.45018 15.2852 2.21795 14.9647 3.01851 14.9647ZM3.45429 27.3122C4.47244 27.5442 5.4048 28.0615 6.14386 28.8045C6.88291 29.5475 7.39855 30.4858 7.63131 31.5114H23.3687C23.6014 30.4858 24.1171 29.5475 24.8561 28.8045C25.5952 28.0615 26.5276 27.5442 27.5457 27.3122V22.6703C26.5253 22.4369 25.5913 21.917 24.8521 21.1706C24.1128 20.4243 23.5985 19.4821 23.3687 18.4533H7.63131C7.39855 19.4788 6.88291 20.4172 6.14386 21.1602C5.4048 21.9031 4.47244 22.4204 3.45429 22.6524V27.3122Z" fill="url(#paint0_linear)"/>
<defs>
<linearGradient id="paint0_linear" x1="15.5" y1="0" x2="15.5" y2="35" gradientUnits="userSpaceOnUse">
<stop stop-color="#B752FA"/>
<stop offset="1" stop-color="#8C00E8"/>
</linearGradient>
</defs>
</svg>
