<svg width="35" height="35" viewBox="0 0 35 35" fill="none" xmlns="http://www.w3.org/2000/svg">
<path d="M17.5 0C7.84737 0 0 7.84737 0 17.5C0 27.1526 7.84737 35 17.5 35C27.1526 35 35 27.1526 35 17.5C35 7.84737 27.1526 0 17.5 0ZM25.6421 23.7263H12.5263L14.4053 25.6053C14.9211 26.1211 14.9211 26.9684 14.4053 27.4842C14.1474 27.7421 13.8158 27.8895 13.4842 27.8895C13.1526 27.8895 12.8211 27.7421 12.5632 27.4842L8.4 23.3211C7.88421 22.8053 7.88421 21.9579 8.4 21.4421L12.5263 17.3158C13.0421 16.8 13.8895 16.8 14.4053 17.3158C14.9211 17.8316 14.9211 18.6789 14.4053 19.1947L12.5263 21.0737H25.6421C26.3789 21.0737 26.9684 21.6632 26.9684 22.4C26.9684 23.1368 26.3789 23.7263 25.6421 23.7263ZM26.6 13.5211L22.4368 17.6842C22.1789 17.9421 21.8474 18.0895 21.5158 18.0895C21.1842 18.0895 20.8526 17.9421 20.5947 17.6842C20.0789 17.1684 20.0789 16.3211 20.5947 15.8053L22.4737 13.9263H9.35789C8.62105 13.9263 8.03158 13.3368 8.03158 12.6C8.03158 11.8632 8.62105 11.2737 9.35789 11.2737H22.4737L20.5947 9.39474C20.0789 8.87895 20.0789 8.03158 20.5947 7.51579C21.1105 7 21.9579 7 22.4737 7.51579L26.6 11.6421C26.8579 11.9 27.0053 12.2316 27.0053 12.5632C27.0053 12.8947 26.8211 13.3 26.6 13.5211Z" fill="url(#paint0_linear)"/>
<defs>
<linearGradient id="paint0_linear" x1="7.5" y1="4.0446e-07" x2="19.375" y2="31.875" gradientUnits="userSpaceOnUse">
<stop stop-color="#CE61F4"/>
<stop offset="1" stop-color="#DC16B0"/>
</linearGradient>
</defs>
</svg>
