<svg width="41" height="35" viewBox="0 0 41 35" fill="none" xmlns="http://www.w3.org/2000/svg">
<path d="M38.6133 7.30371H20.0024V10.0118H37.2659V32.2509H11.9602L19.455 23.2239L21.813 26.9988C22.0656 27.3681 22.4867 27.6143 22.9498 27.6553C23.413 27.6964 23.8341 27.4502 24.1288 27.0809L29.1394 20.3928L29.3078 21.4185C29.3921 22.075 29.9815 22.5674 30.6973 22.5674C30.7815 22.5674 30.8237 22.5674 30.9079 22.5674C31.6658 22.4443 32.2132 21.7878 32.0868 21.0493L31.4552 16.741C31.3289 16.0024 30.6552 15.51 29.8973 15.5921L25.4341 16.2486C24.6762 16.3717 24.1288 17.0282 24.2551 17.7667C24.3814 18.5053 25.0551 18.9977 25.813 18.9156L26.9499 18.7515L23.1183 23.8804L20.8024 20.1876C20.5498 19.8183 20.1708 19.5721 19.7077 19.5311C19.2445 19.4901 18.8235 19.6952 18.5287 20.0235L10.3181 29.9531V19.449H7.53906V33.6459C7.53906 34.3845 8.17065 35 8.92856 35H38.6133C39.3712 35 40.0028 34.3845 40.0028 33.6459V8.65775C40.0028 7.91918 39.3712 7.30371 38.6133 7.30371Z" fill="url(#paint0_linear)"/>
<path d="M10.2317 17.3563C10.5686 17.3563 10.8212 17.1101 10.8212 16.7819V15.4278C11.4107 15.2637 11.9581 15.0586 12.4634 14.7713L13.4318 15.7151C13.6844 15.9612 14.0634 15.9612 14.2739 15.7151L16.1266 13.9097C16.3792 13.6635 16.3792 13.2942 16.1266 13.089L15.1581 12.1453C15.4529 11.6529 15.6634 11.1195 15.8318 10.5451H17.2213C17.5582 10.5451 17.8108 10.2989 17.8108 9.97065V7.4267C17.8108 7.09845 17.5582 6.85226 17.2213 6.85226H15.8318C15.6634 6.27782 15.4529 5.74441 15.1581 5.25203L16.1266 4.30831C16.3792 4.06212 16.3792 3.69283 16.1266 3.48768L14.2739 1.68229C14.0213 1.4361 13.6423 1.4361 13.4318 1.68229L12.4634 2.62601C11.9581 2.33879 11.4107 2.13364 10.8212 1.96951V0.574441C10.8212 0.246189 10.5686 0 10.2317 0H7.62118C7.28433 0 7.03169 0.246189 7.03169 0.574441V1.92848C6.44221 2.09261 5.89483 2.29776 5.38956 2.58498L4.42112 1.64126C4.16849 1.39507 3.78954 1.39507 3.57901 1.64126L1.72634 3.44664C1.47371 3.69283 1.47371 4.06212 1.72634 4.26727L2.69478 5.211C2.40004 5.70338 2.18951 6.23679 2.02109 6.81123H0.589483C0.252636 6.81123 0 7.05742 0 7.38567V9.92962C0 10.2579 0.252636 10.5041 0.589483 10.5041H1.97898C2.1474 11.0785 2.35793 11.6119 2.65268 12.1043L1.68424 13.048C1.4316 13.2942 1.4316 13.6635 1.68424 13.8686L3.5369 15.674C3.78954 15.9202 4.16849 15.9202 4.37902 15.674L5.34746 14.7303C5.85273 15.0175 6.4001 15.2227 6.98959 15.3868V16.7408C6.98959 17.0691 7.24222 17.3153 7.57907 17.3153H10.2317V17.3563ZM4.88429 8.65764C4.88429 6.48297 6.69485 4.71862 8.92646 4.71862C11.1581 4.71862 12.9686 6.48297 12.9686 8.65764C12.9686 10.8323 11.1581 12.5967 8.92646 12.5967C6.69485 12.5967 4.88429 10.8323 4.88429 8.65764Z" fill="url(#paint1_linear)"/>
<path d="M10.9484 8.6575C10.9484 7.54965 10.0642 6.68799 8.92734 6.68799C7.83258 6.68799 6.90625 7.54965 6.90625 8.6575C6.90625 9.72432 7.79048 10.627 8.92734 10.627C10.0221 10.627 10.9484 9.76535 10.9484 8.6575Z" fill="url(#paint2_linear)"/>
<defs>
<linearGradient id="paint0_linear" x1="14.4956" y1="7.30371" x2="22.7876" y2="33.3924" gradientUnits="userSpaceOnUse">
<stop stop-color="#7561F4"/>
<stop offset="1" stop-color="#3E16DC"/>
</linearGradient>
<linearGradient id="paint1_linear" x1="3.8166" y1="2.0057e-07" x2="9.59054" y2="15.9043" gradientUnits="userSpaceOnUse">
<stop stop-color="#7561F4"/>
<stop offset="1" stop-color="#3E16DC"/>
</linearGradient>
<linearGradient id="paint2_linear" x1="7.77243" y1="6.68799" x2="9.08283" y2="10.2975" gradientUnits="userSpaceOnUse">
<stop stop-color="#7561F4"/>
<stop offset="1" stop-color="#3E16DC"/>
</linearGradient>
</defs>
</svg>
