<svg width="34" height="34" viewBox="0 0 34 34" fill="none" xmlns="http://www.w3.org/2000/svg">
<path d="M20 5H14L9.5 9V20L12 25.5L17.5 28.5L22 25.5L22.0693 25.3729L25 20V9L20 5Z" fill="#E0EAFE"/>
<path d="M13.0559 16.2354C12.667 15.8464 12.0362 15.8464 11.6472 16.2354C11.2582 16.6244 11.2582 17.2551 11.6472 17.6441L14.7462 20.7431C14.9407 20.9376 15.1956 21.0348 15.4505 21.0348C15.7054 21.0348 15.9604 20.9376 16.1548 20.7431L22.3527 14.5452C22.7417 14.1562 22.7417 13.5255 22.3527 13.1365C21.9638 12.7475 21.333 12.7475 20.944 13.1365L15.4504 18.63L13.0559 16.2354Z" fill="#344CED"/>
<path d="M29.6112 4.64844C26.7401 4.64844 24.1244 3.07089 22.7849 0.531383C22.6126 0.204531 22.2734 0 21.9039 0H12.0961C11.7266 0 11.3874 0.204531 11.215 0.531383C9.87561 3.07089 7.25986 4.64844 4.38281 4.64844C3.8327 4.64844 3.38672 5.09442 3.38672 5.64453V15.7882C3.38672 19.866 4.66086 23.76 7.07134 27.0491C9.48195 30.3382 12.8114 32.7257 16.7 33.9537C16.7977 33.9845 16.8988 33.9999 17 33.9999C17.1012 33.9999 17.2023 33.9845 17.3 33.9537C21.1886 32.7257 24.5181 30.3382 26.9287 27.0491C29.3391 23.76 30.6133 19.866 30.6133 15.7882V5.64453C30.6133 5.09442 30.1613 4.64844 29.6112 4.64844ZM28.6211 15.7882C28.6211 23.1602 23.9643 29.6179 17 31.9563C10.0357 29.6179 5.37891 23.1602 5.37891 15.7882V6.59062C8.39362 6.28462 11.0897 4.59279 12.6755 1.99219H21.3246C22.9095 4.59146 25.604 6.28289 28.6211 6.59016V15.7882Z" fill="#344CED"/>
<path d="M20.5592 4.35014C20.3701 4.11865 20.0868 3.98438 19.7879 3.98438H14.2121C13.9131 3.98438 13.6299 4.11865 13.4408 4.35014C12.0323 6.07345 10.1703 7.35177 8.05607 8.04678C7.64734 8.18112 7.37109 8.56275 7.37109 8.99307V15.7882C7.37109 21.8884 11.0001 27.3434 16.6166 29.6853C16.7394 29.7365 16.8697 29.762 17 29.762C17.1303 29.762 17.2607 29.7365 17.3834 29.6853C22.9999 27.3434 26.6289 21.8884 26.6289 15.7882V8.99373C26.6289 8.56348 26.3527 8.18185 25.944 8.04744C23.8297 7.35217 21.9677 6.07371 20.5592 4.35014ZM24.6367 15.7882C24.6367 20.9416 21.653 25.5639 17 27.6796C12.347 25.564 9.36328 20.9417 9.36328 15.7882V9.69385C11.4075 8.89937 13.2253 7.62769 14.6737 5.97656H19.3263C20.7747 7.62789 22.5923 8.89977 24.6367 9.69438V15.7882Z" fill="#344CED"/>
</svg>
