<svg width="34" height="34" viewBox="0 0 34 34" fill="none" xmlns="http://www.w3.org/2000/svg">
<g clip-path="url(#clip0)">
<path d="M33.4688 24.1855V29.4933L28.6875 33.212V27.9043L33.4688 24.1855Z" fill="#E0EAFE"/>
<path d="M28.6875 27.9042L23.9062 24.1854L28.6875 20.4619L29.1337 20.8062V20.8125L33.4688 24.1854L28.6875 27.9042Z" fill="#E0EAFE"/>
<path d="M28.6889 27.9043V33.212L23.9023 29.4933V29.4763V24.1855H23.9077L28.6889 27.9043Z" fill="#E0EAFE"/>
<path d="M21.7812 8.13527V9.81933L17 13.5381V8.22559L21.7812 4.50684V8.13527Z" fill="#E0EAFE"/>
<path d="M21.7812 4.50684L17 8.22559L12.2188 4.50684L17 0.788086L21.7812 4.50684Z" fill="#E0EAFE"/>
<path d="M17 8.22559V13.5381L12.2188 9.81455V8.13527V4.50684L17 8.22559Z" fill="#E0EAFE"/>
<path d="M10.0991 29.4715V29.4933L5.3125 33.212V27.9043L10.0991 24.1855V29.4715Z" fill="#E0EAFE"/>
<path d="M5.31109 27.9042L0.535156 24.1854L4.86484 20.8125V20.8062L5.31109 20.4619L10.0977 24.1854L5.31109 27.9042Z" fill="#E0EAFE"/>
<path d="M5.3125 27.9043V33.212L0.53125 29.4933V24.1855H0.536562L5.3125 27.9043Z" fill="#E0EAFE"/>
<path d="M17 14.0684C16.7062 14.0684 16.4688 13.8309 16.4688 13.5371V8.22461C16.4688 7.93083 16.7062 7.69336 17 7.69336C17.2938 7.69336 17.5312 7.93083 17.5312 8.22461V13.5371C17.5312 13.8309 17.2938 14.0684 17 14.0684Z" fill="#344CED"/>
<path d="M17.0007 14.0692C16.8424 14.0692 16.6856 13.9986 16.581 13.8642C16.4004 13.632 16.4423 13.2989 16.674 13.1188L21.4573 9.39902C21.69 9.21839 22.0231 9.26142 22.2027 9.49199C22.3833 9.72414 22.3413 10.0572 22.1097 10.2373L17.3263 13.9571C17.2296 14.0331 17.1144 14.0692 17.0007 14.0692Z" fill="#344CED"/>
<path d="M16.9976 14.0687C16.8839 14.0687 16.7686 14.0326 16.6719 13.9566L11.8886 10.2358C11.6569 10.0557 11.6155 9.72205 11.7956 9.49042C11.9762 9.25933 12.3093 9.2163 12.5409 9.39745L17.3243 13.1183C17.5559 13.2984 17.5974 13.632 17.4173 13.8637C17.3126 13.9986 17.1559 14.0687 16.9976 14.0687Z" fill="#344CED"/>
<path d="M17.0007 8.75788C16.8424 8.75788 16.6856 8.68722 16.581 8.55281C16.4004 8.32066 16.4423 7.98756 16.674 7.80747L21.4573 4.08766C21.69 3.90703 22.0231 3.94953 22.2027 4.18062C22.3833 4.41278 22.3413 4.74587 22.1097 4.92597L17.3263 8.64578C17.2296 8.72175 17.1144 8.75788 17.0007 8.75788Z" fill="#344CED"/>
<path d="M16.9978 8.75788C16.8841 8.75788 16.7689 8.72175 16.6722 8.64578L11.8888 4.92597C11.6572 4.74587 11.6152 4.41225 11.7958 4.18062C11.9765 3.94953 12.3095 3.90703 12.5412 4.08766L17.3245 7.80747C17.5562 7.98756 17.5981 8.32119 17.4175 8.55281C17.3129 8.68775 17.1561 8.75788 16.9978 8.75788Z" fill="#344CED"/>
<path d="M12.2155 5.03837C12.0572 5.03837 11.9005 4.96772 11.7958 4.83331C11.6152 4.60115 11.6572 4.26806 11.8888 4.08797L16.6722 0.368155C16.9049 0.186999 17.238 0.23003 17.4175 0.461124C17.5981 0.69328 17.5562 1.02637 17.3245 1.20647L12.5412 4.92628C12.4445 5.00225 12.3292 5.03837 12.2155 5.03837Z" fill="#344CED"/>
<path d="M21.783 5.03837C21.6693 5.03837 21.554 5.00225 21.4573 4.92628L16.674 1.20647C16.4423 1.02637 16.4004 0.692749 16.581 0.461124C16.7611 0.23003 17.0947 0.186999 17.3263 0.368155L22.1097 4.08797C22.3413 4.26806 22.3833 4.60169 22.2027 4.83331C22.098 4.96825 21.9413 5.03837 21.783 5.03837Z" fill="#344CED"/>
<path d="M12.2188 10.3479C11.925 10.3479 11.6875 10.1105 11.6875 9.81668V4.50684C11.6875 4.21305 11.925 3.97559 12.2188 3.97559C12.5125 3.97559 12.75 4.21305 12.75 4.50684V9.81615C12.75 10.1099 12.5125 10.3479 12.2188 10.3479Z" fill="#344CED"/>
<path d="M21.7852 10.3485C21.4914 10.3485 21.2539 10.1111 21.2539 9.8173V4.50586C21.2539 4.21208 21.4914 3.97461 21.7852 3.97461C22.0789 3.97461 22.3164 4.21208 22.3164 4.50586V9.8173C22.3164 10.1111 22.0789 10.3485 21.7852 10.3485Z" fill="#344CED"/>
<path d="M28.6875 33.7441C28.3937 33.7441 28.1562 33.5067 28.1562 33.2129V27.9004C28.1562 27.6066 28.3937 27.3691 28.6875 27.3691C28.9813 27.3691 29.2188 27.6066 29.2188 27.9004V33.2129C29.2188 33.5061 28.9813 33.7441 28.6875 33.7441Z" fill="#344CED"/>
<path d="M28.6843 33.7433C28.5259 33.7433 28.3692 33.6726 28.2646 33.5382C28.084 33.3061 28.1259 32.973 28.3575 32.7929L33.1409 29.0731C33.3736 28.8919 33.7062 28.9355 33.8863 29.166C34.0669 29.3982 34.0249 29.7313 33.7933 29.9114L29.0099 33.6312C28.9132 33.7066 28.7979 33.7433 28.6843 33.7433Z" fill="#344CED"/>
<path d="M28.6853 33.7433C28.5716 33.7433 28.4563 33.7072 28.3597 33.6312L23.5763 29.9114C23.3447 29.7313 23.3027 29.3977 23.4833 29.166C23.664 28.9355 23.997 28.8919 24.2287 29.0731L29.012 32.7929C29.2437 32.973 29.2856 33.3066 29.105 33.5382C29.0003 33.6726 28.8436 33.7433 28.6853 33.7433Z" fill="#344CED"/>
<path d="M28.6843 28.4327C28.5259 28.4327 28.3692 28.3621 28.2646 28.2277C28.084 27.9955 28.1259 27.6624 28.3575 27.4823L33.1409 23.7625C33.3736 23.5814 33.7062 23.6249 33.8863 23.8555C34.0669 24.0876 34.0249 24.4207 33.7933 24.6008L29.0099 28.3207C28.9132 28.3966 28.7979 28.4327 28.6843 28.4327Z" fill="#344CED"/>
<path d="M28.6851 28.4336C28.5714 28.4336 28.4561 28.3975 28.3595 28.3215L23.5761 24.6006C23.3444 24.4205 23.303 24.0869 23.4831 23.8553C23.6637 23.6247 23.9968 23.5817 24.2284 23.7623L29.0118 27.4832C29.2435 27.6633 29.2849 27.9969 29.1048 28.2285C29.0001 28.3635 28.8434 28.4336 28.6851 28.4336Z" fill="#344CED"/>
<path d="M23.903 24.714C23.7447 24.714 23.588 24.6433 23.4833 24.5089C23.3027 24.2768 23.3447 23.9437 23.5763 23.7636L28.3597 20.0438C28.5923 19.8626 28.9249 19.9062 29.105 20.1367C29.2856 20.3689 29.2437 20.702 29.012 20.8821L24.2287 24.6019C24.132 24.6773 24.0167 24.714 23.903 24.714Z" fill="#344CED"/>
<path d="M33.4663 24.7141C33.3527 24.7141 33.2374 24.678 33.1407 24.602L28.3573 20.8811C28.1257 20.701 28.0843 20.3674 28.2644 20.1358C28.445 19.9052 28.7786 19.8616 29.0097 20.0428L33.7931 23.7637C34.0247 23.9438 34.0661 24.2774 33.886 24.509C33.7814 24.6439 33.6247 24.7141 33.4663 24.7141Z" fill="#344CED"/>
<path d="M23.8984 30.0242C23.6047 30.0242 23.3672 29.7868 23.3672 29.493V24.1826C23.3672 23.8888 23.6047 23.6514 23.8984 23.6514C24.1922 23.6514 24.4297 23.8888 24.4297 24.1826V29.493C24.4297 29.7862 24.1922 30.0242 23.8984 30.0242Z" fill="#344CED"/>
<path d="M33.4688 30.0242C33.175 30.0242 32.9375 29.7868 32.9375 29.493V24.1826C32.9375 23.8888 33.175 23.6514 33.4688 23.6514C33.7625 23.6514 34 23.8888 34 24.1826V29.493C34 29.7862 33.7625 30.0242 33.4688 30.0242Z" fill="#344CED"/>
<path d="M5.3125 33.7441C5.01872 33.7441 4.78125 33.5067 4.78125 33.2129V27.9004C4.78125 27.6066 5.01872 27.3691 5.3125 27.3691C5.60628 27.3691 5.84375 27.6066 5.84375 27.9004V33.2129C5.84375 33.5061 5.60628 33.7441 5.3125 33.7441Z" fill="#344CED"/>
<path d="M5.31708 33.7433C5.15876 33.7433 5.00204 33.6726 4.89739 33.5382C4.71676 33.3061 4.75873 32.973 4.99036 32.7929L9.77373 29.0731C10.0064 28.8919 10.3395 28.9355 10.5191 29.166C10.6997 29.3982 10.6577 29.7313 10.4261 29.9114L5.64273 33.6312C5.54604 33.7066 5.43076 33.7433 5.31708 33.7433Z" fill="#344CED"/>
<path d="M5.31423 33.7433C5.20054 33.7433 5.08526 33.7072 4.98858 33.6312L0.205201 29.9114C-0.026424 29.7313 -0.0683928 29.3977 0.112232 29.166C0.292857 28.9355 0.625951 28.8919 0.857576 29.0731L5.64095 32.7929C5.87258 32.973 5.91454 33.3066 5.73392 33.5382C5.62926 33.6726 5.47254 33.7433 5.31423 33.7433Z" fill="#344CED"/>
<path d="M5.31708 28.4327C5.15876 28.4327 5.00204 28.3621 4.89739 28.2277C4.71676 27.9955 4.75873 27.6624 4.99036 27.4823L9.77373 23.7625C10.0064 23.5814 10.3395 23.6249 10.5191 23.8555C10.6997 24.0876 10.6577 24.4207 10.4261 24.6008L5.64273 28.3207C5.54604 28.3966 5.43076 28.4327 5.31708 28.4327Z" fill="#344CED"/>
<path d="M5.31401 28.4336C5.20032 28.4336 5.08504 28.3975 4.98835 28.3215L0.204976 24.6006C-0.0266495 24.4205 -0.068087 24.0869 0.112007 23.8553C0.292632 23.6247 0.625726 23.5817 0.857351 23.7623L5.64073 27.4832C5.87235 27.6633 5.91379 27.9969 5.73369 28.2285C5.62904 28.3635 5.47232 28.4336 5.31401 28.4336Z" fill="#344CED"/>
<path d="M0.53192 24.714C0.373607 24.714 0.216888 24.6433 0.112232 24.5089C-0.0683928 24.2768 -0.026424 23.9437 0.205201 23.7636L4.98858 20.0438C5.22126 19.8626 5.55383 19.9062 5.73392 20.1367C5.91454 20.3689 5.87258 20.702 5.64095 20.8821L0.857576 24.6019C0.760888 24.6773 0.645607 24.714 0.53192 24.714Z" fill="#344CED"/>
<path d="M10.0992 24.7141C9.98547 24.7141 9.87019 24.678 9.7735 24.602L4.99013 20.8811C4.75851 20.701 4.71707 20.3674 4.89716 20.1358C5.07779 19.9052 5.41141 19.8616 5.64251 20.0428L10.4259 23.7637C10.6575 23.9438 10.6989 24.2774 10.5188 24.509C10.4142 24.6439 10.2575 24.7141 10.0992 24.7141Z" fill="#344CED"/>
<path d="M0.53125 30.0242C0.237469 30.0242 0 29.7868 0 29.493V24.1826C0 23.8888 0.237469 23.6514 0.53125 23.6514C0.825031 23.6514 1.0625 23.8888 1.0625 24.1826V29.493C1.0625 29.7862 0.825031 30.0242 0.53125 30.0242Z" fill="#344CED"/>
<path d="M10.0977 30.0242C9.80388 30.0242 9.56641 29.7868 9.56641 29.493V24.1826C9.56641 23.8888 9.80388 23.6514 10.0977 23.6514C10.3914 23.6514 10.6289 23.8888 10.6289 24.1826V29.493C10.6289 29.7862 10.3914 30.0242 10.0977 30.0242Z" fill="#344CED"/>
<path d="M16.9997 32.1328C14.412 32.1328 11.9199 31.3609 9.79329 29.901C9.55104 29.7347 9.48994 29.4043 9.65569 29.1626C9.82197 28.9198 10.1529 28.8592 10.3941 29.025C12.3438 30.3632 14.6282 31.0703 17.0002 31.0703C19.3648 31.0703 21.6423 30.3674 23.5867 29.0372C23.83 28.8709 24.1599 28.9341 24.3251 29.1759C24.4908 29.4181 24.4287 29.7485 24.1864 29.9143C22.0641 31.3657 19.5789 32.1328 16.9997 32.1328Z" fill="#344CED"/>
<path d="M29.1367 21.3448C29.116 21.3448 29.0952 21.3437 29.0745 21.3411C28.7829 21.3071 28.5746 21.0425 28.6086 20.7519C28.6617 20.2993 28.6883 19.8392 28.6883 19.3839C28.6883 14.6882 25.8955 10.4653 21.5733 8.62505C21.3034 8.5103 21.1775 8.19793 21.2928 7.92805C21.4075 7.65765 21.7199 7.53174 21.9898 7.64755C26.7046 9.65461 29.7508 14.2616 29.7508 19.3834C29.7508 19.8801 29.721 20.3821 29.6637 20.8751C29.6318 21.1456 29.4023 21.3448 29.1367 21.3448Z" fill="#344CED"/>
<path d="M4.86359 21.3442C4.59744 21.3442 4.36794 21.1449 4.33659 20.8745C4.27922 20.3842 4.25 19.8827 4.25 19.3828C4.25 14.261 7.29512 9.65454 12.0084 7.64748C12.2782 7.53166 12.5901 7.6581 12.7054 7.92798C12.8207 8.19785 12.6947 8.50969 12.4249 8.62498C8.10422 10.4652 5.3125 14.6881 5.3125 19.3828C5.3125 19.8413 5.33906 20.3013 5.39166 20.7508C5.42566 21.0419 5.21741 21.3059 4.92575 21.3399C4.90503 21.3431 4.88431 21.3442 4.86359 21.3442Z" fill="#344CED"/>
</g>
<defs>
<clipPath id="clip0">
<rect width="34" height="34" fill="white"/>
</clipPath>
</defs>
</svg>
