<svg width="34" height="34" viewBox="0 0 34 34" fill="none" xmlns="http://www.w3.org/2000/svg">
<g clip-path="url(#clip0)">
<path d="M16.5 28H0.5L1 31H17L16.5 28Z" fill="#E0EAFE"/>
<path d="M32.5 32.5L33 28L16.5 26.5L17 32L18 32.5H32.5Z" fill="#E0EAFE"/>
<path d="M33.6184 19.0251C33.3505 18.7372 32.971 18.572 32.5775 18.572H29.8208V18.3019C29.8208 15.5489 27.5812 13.3093 24.8282 13.3093C22.0754 13.3093 19.8358 15.5489 19.8358 18.3019V18.572H17.0791C16.6856 18.572 16.3061 18.7372 16.0381 19.0251C15.7699 19.3131 15.6322 19.7032 15.6602 20.0957L16.2057 27.7565H0.996094V10.2683C0.996094 9.85925 1.3289 9.5267 1.73798 9.5267H4.61057V11.2328C4.61057 11.6509 4.95064 11.991 5.36879 11.991H6.77266C7.19081 11.991 7.53114 11.6509 7.53114 11.2328V9.5267H15.4939V11.2328C15.4939 11.6509 15.834 11.991 16.2522 11.991H17.6563C18.0744 11.991 18.4145 11.6509 18.4145 11.2328V9.5267H21.2874C21.6962 9.5267 22.0292 9.85925 22.0292 10.2683V12.3695C22.0292 12.6444 22.2521 12.8675 22.5273 12.8675C22.8022 12.8675 23.0253 12.6444 23.0253 12.3695V10.2683C23.0253 9.3101 22.2456 8.53061 21.2874 8.53061H18.4145V3.81888C18.4145 1.96936 16.91 0.464844 15.0605 0.464844H7.96434C6.11508 0.464844 4.61057 1.96936 4.61057 3.81888V6.22792C4.61057 6.50314 4.83339 6.72597 5.10861 6.72597C5.38358 6.72597 5.60666 6.50314 5.60666 6.22792V3.81888C5.60666 2.51877 6.66423 1.46094 7.96434 1.46094H15.0605C16.3606 1.46094 17.4184 2.51877 17.4184 3.81888V10.9949H16.49V9.03877C16.49 9.0354 16.49 9.03203 16.49 9.0284C16.49 9.02502 16.49 9.02165 16.49 9.01828V4.22925C16.49 3.21474 15.6644 2.38933 14.6498 2.38933H8.37497C7.36046 2.38933 6.53479 3.21474 6.53479 4.22925V10.9949H5.60666V9.03877C5.60666 9.0354 5.60666 9.03203 5.60666 9.0284C5.60666 9.02502 5.60666 9.02165 5.60666 9.01828V8.22011C5.60666 7.94514 5.38358 7.72206 5.10861 7.72206C4.83339 7.72206 4.61057 7.94514 4.61057 8.22011V8.53035H1.73798C0.779495 8.53035 0 9.3101 0 10.2683V29.9757C0 30.9339 0.779495 31.7137 1.73798 31.7137H16.4874L16.5128 32.0708C16.5704 32.8778 17.249 33.5097 18.0578 33.5097H31.5987C32.4075 33.5097 33.0861 32.8778 33.1437 32.0708L33.4197 28.1936C33.4394 27.9194 33.2327 27.681 32.9583 27.6616C32.6856 27.6419 32.4457 27.8486 32.4262 28.1228L32.1502 32.0003C32.1295 32.2882 31.8875 32.5136 31.5987 32.5136H18.0578C17.7694 32.5136 17.5271 32.2882 17.5066 32.0003L17.449 31.1912C17.4488 31.1837 17.448 31.1762 17.4475 31.1687L17.2389 28.2406C17.2384 28.226 17.2374 28.2115 17.2358 28.1972L16.654 20.0246C16.6454 19.9053 16.6856 19.7914 16.7673 19.7037C16.8488 19.6163 16.9595 19.5681 17.0794 19.5681H19.8358V20.402C19.1393 20.6155 18.6314 21.2648 18.6314 22.0303C18.6314 22.9693 19.395 23.733 20.3338 23.733C21.2728 23.733 22.0365 22.9693 22.0365 22.0303C22.0365 21.2648 21.5286 20.6155 20.8318 20.402V19.5681H28.8247V20.402C28.1282 20.6155 27.6203 21.2648 27.6203 22.0303C27.6203 22.9693 28.384 23.733 29.3228 23.733C30.2618 23.733 31.0255 22.9693 31.0255 22.0303C31.0255 21.2648 30.5176 20.6155 29.8208 20.402V19.5681H32.5775C32.6973 19.5681 32.8081 19.6163 32.8895 19.7037C32.9712 19.7914 33.0114 19.9053 33.0029 20.0249L32.5673 26.1407C32.5479 26.4152 32.7544 26.6535 33.0288 26.673C33.3025 26.6935 33.5414 26.486 33.5611 26.2115L33.9964 20.0957C34.0244 19.7032 33.8866 19.3128 33.6184 19.0251ZM8.37497 3.38542H14.6498C15.1152 3.38542 15.4939 3.76389 15.4939 4.22925V8.53061H7.53088V4.22925C7.53088 3.76389 7.90961 3.38542 8.37497 3.38542ZM1.73798 30.7176C1.3289 30.7176 0.996094 30.3848 0.996094 29.9757V28.7526H16.2768L16.4166 30.7176H1.73798ZM21.0404 22.0303C21.0404 22.4199 20.7234 22.7369 20.3338 22.7369C19.9442 22.7369 19.6275 22.4199 19.6275 22.0303C19.6275 21.8051 19.7333 21.6041 19.898 21.4746C19.9828 21.6279 20.1463 21.7314 20.3338 21.7314C20.5213 21.7314 20.6848 21.6279 20.7696 21.4746C20.9343 21.6041 21.0404 21.8051 21.0404 22.0303ZM30.0294 22.0303C30.0294 22.4199 29.7124 22.7369 29.3228 22.7369C28.9332 22.7369 28.6162 22.4199 28.6162 22.0303C28.6162 21.8051 28.7223 21.6041 28.887 21.4746C28.9718 21.6279 29.1352 21.7314 29.3228 21.7314C29.5103 21.7314 29.6737 21.6279 29.7586 21.4746C29.9233 21.6041 30.0294 21.8051 30.0294 22.0303ZM23.0251 18.572V16.7743C23.0251 16.4991 22.8022 16.2763 22.527 16.2763C22.2518 16.2763 22.029 16.4991 22.029 16.7743V18.572H20.8318V18.3019C20.8318 16.0983 22.6246 14.3054 24.8284 14.3054C27.032 14.3054 28.8247 16.0983 28.8247 18.3019V18.572H23.0251Z" fill="#344CED"/>
</g>
<defs>
<clipPath id="clip0">
<rect width="34" height="34" fill="white"/>
</clipPath>
</defs>
</svg>
