<svg width="34" height="34" viewBox="0 0 34 34" fill="none" xmlns="http://www.w3.org/2000/svg">
<path fill-rule="evenodd" clip-rule="evenodd" d="M31.3152 14.3887V30.3044C31.3152 31.9718 29.951 33.336 28.2836 33.336H7.01207C5.34465 33.336 3.98047 31.9718 3.98047 30.3044V14.3887H31.3152Z" fill="#E0EAFE"/>
<path fill-rule="evenodd" clip-rule="evenodd" d="M2.84193 10.4575L3.9807 14.3887L30.2361 6.78282L29.0973 2.85162C28.6332 1.25009 26.9435 0.319367 25.342 0.783433L4.91013 6.70215C3.30859 7.16621 2.37813 8.85594 2.84193 10.4575Z" fill="#E0EAFE"/>
<path fill-rule="evenodd" clip-rule="evenodd" d="M3.98047 14.3887H31.3152V20.6034H3.98047V14.3887Z" fill="#E0EAFE"/>
<path fill-rule="evenodd" clip-rule="evenodd" d="M21.5763 26.9015L18.6594 25.2175L15.7422 23.5332V30.2698L18.6594 28.5855L21.5763 26.9015Z" fill="#E0EAFE"/>
<path fill-rule="evenodd" clip-rule="evenodd" d="M31.3165 13.7246H8.66055L30.4218 7.42064C30.591 7.37161 30.7336 7.25722 30.8187 7.10313C30.9038 6.94879 30.924 6.76721 30.875 6.59808L29.7362 2.66689C29.2812 1.09674 27.8193 0 26.1809 0C25.8356 0 25.4917 0.0490265 25.1581 0.145523L4.7265 6.06424C3.78151 6.33791 2.99839 6.96617 2.52083 7.83282C2.04354 8.69948 1.93148 9.69739 2.20514 10.6421L3.31771 14.4828V30.3043C3.31771 32.3422 4.97553 34 7.01311 34H14.9928C15.3595 34 15.6568 33.7027 15.6568 33.3359C15.6568 32.9691 15.3595 32.6719 14.9928 32.6719H7.01337C5.70781 32.6719 4.64583 31.6099 4.64583 30.3043V21.2674H8.04785H8.04941H8.05071H13.2511H13.2527H13.2543H18.4547H18.4563H18.4578H23.6582H23.6598H23.6611H30.6524V30.3043C30.6524 31.6099 29.5905 32.6719 28.2849 32.6719H20.3053C19.9387 32.6719 19.6412 32.9691 19.6412 33.3359C19.6412 33.7027 19.9387 34 20.3053 34H28.2849C30.3227 34 31.9806 32.3422 31.9806 30.3043V14.3886C31.9806 14.0218 31.6833 13.7246 31.3165 13.7246ZM19.6069 19.9393L22.4284 15.0527H26.0982L23.2769 19.9393H19.6069ZM14.4034 19.9393L17.2249 15.0527H20.8946L18.0734 19.9393H14.4034ZM9.20011 19.9393L12.0213 15.0527H15.6913L12.8698 19.9393H9.20011ZM11.6691 11.3425L6.94437 6.80457L10.4844 5.77916C10.5093 5.81548 10.5383 5.84972 10.5716 5.88162L15.2963 10.4196L11.7562 11.445C11.7313 11.4086 11.702 11.3741 11.6691 11.3425ZM20.5675 2.98595L25.2922 7.52388L21.7522 8.54929C21.7273 8.51297 21.6982 8.47847 21.665 8.44682L16.9403 3.90889L20.4803 2.88348C20.5052 2.9198 20.5343 2.95404 20.5675 2.98595ZM15.5694 4.43391L20.2941 8.97159L16.7541 9.99725C16.7292 9.96094 16.7001 9.92644 16.6669 9.89479L11.9422 5.35686L15.4822 4.33145C15.5074 4.36751 15.5365 4.40201 15.5694 4.43391ZM25.5277 1.42125C25.741 1.35951 25.9607 1.32812 26.1809 1.32812C27.2317 1.32812 28.1689 2.03058 28.4605 3.03653L29.4146 6.32961L26.7503 7.10132C26.7251 7.065 26.6961 7.03076 26.6629 6.99886L21.9384 2.46118L25.5277 1.42125ZM3.68424 8.47354C3.99033 7.91765 4.49175 7.51506 5.09615 7.33997L5.48629 7.22687C5.51145 7.26318 5.5405 7.29768 5.57344 7.32933L10.2981 11.8673L4.43494 13.5658L3.48087 10.2727C3.30577 9.66859 3.37815 9.02969 3.68424 8.47354ZM4.64583 15.0527H10.4878L7.66654 19.9393H4.64583V15.0527ZM24.8105 19.9393L27.6317 15.0527H30.6524V19.9393H24.8105Z" fill="#344CED"/>
<path fill-rule="evenodd" clip-rule="evenodd" d="M22.2404 26.9024C22.2404 26.6651 22.1138 26.4459 21.9084 26.3273L16.0742 22.959C15.8688 22.8405 15.6156 22.8405 15.4102 22.959C15.2047 23.0776 15.0781 23.2968 15.0781 23.5341V30.2707C15.0781 30.5078 15.2047 30.727 15.4102 30.8455C15.5129 30.905 15.6275 30.9348 15.7422 30.9348C15.8568 30.9348 15.9715 30.905 16.0742 30.8455L21.9084 27.4775C22.1138 27.359 22.2404 27.1398 22.2404 26.9024ZM16.4062 29.1205V24.6843L20.2482 26.9024L16.4062 29.1205Z" fill="#344CED"/>
<path fill-rule="evenodd" clip-rule="evenodd" d="M17.6484 32.6719C17.2827 32.6719 16.9844 32.9702 16.9844 33.3359C16.9844 33.7017 17.2827 34 17.6484 34C18.0144 34 18.3125 33.7017 18.3125 33.3359C18.3125 32.9702 18.0144 32.6719 17.6484 32.6719Z" fill="#344CED"/>
</svg>
