<svg width="34" height="34" viewBox="0 0 34 34" fill="none" xmlns="http://www.w3.org/2000/svg">
<g clip-path="url(#clip0)">
<path d="M32.9371 30.8125V32.4062H0.53125V30.8125H32.9371Z" fill="#E0EAFE"/>
<path d="M31.8747 29.2188V30.8125H1.59375V29.2188H31.8747Z" fill="#E0EAFE"/>
<path d="M30.8122 27.625V29.2187H2.65625V27.625H30.8122Z" fill="#E0EAFE"/>
<path d="M29.2188 26.0322V27.626H25.5V26.0322H29.2188Z" fill="#E0EAFE"/>
<path d="M22.3125 26.0322V27.626H18.5938V26.0322H22.3125Z" fill="#E0EAFE"/>
<path d="M26.0312 16.4697V26.0321H25.5V27.6258H22.3125V26.0321H21.7812V16.4697C22.3657 16.4697 22.8437 15.9914 22.8437 15.4072C22.8437 14.8228 22.3657 14.3447 21.7812 14.3447H26.0312C25.4468 14.3447 24.9687 14.8228 24.9687 15.4072C24.9687 15.9914 25.4468 16.4697 26.0312 16.4697Z" fill="#E0EAFE"/>
<path d="M19.125 16.4697V26.0321H18.5937V27.6258H15.4062V26.0321H14.875V16.4697C15.4594 16.4697 15.9375 15.9914 15.9375 15.4072C15.9375 14.8228 15.4594 14.3447 14.875 14.3447H19.125C18.5405 14.3447 18.0625 14.8228 18.0625 15.4072C18.0625 15.9914 18.5405 16.4697 19.125 16.4697Z" fill="#E0EAFE"/>
<path d="M12.2187 16.4697V26.0321H11.6875V27.6258H8.49999V26.0321H7.96875V16.4697C8.55317 16.4697 9.03124 15.9914 9.03124 15.4072C9.03124 14.8228 8.55317 14.3447 7.96875 14.3447H12.2187C11.6343 14.3447 11.1562 14.8228 11.1562 15.4072C11.1562 15.9914 11.6343 16.4697 12.2187 16.4697Z" fill="#E0EAFE"/>
<path d="M5.3125 16.4697H7.96872V26.0321H5.3125V16.4697Z" fill="#E0EAFE"/>
<path d="M8.5 26.0322V27.626H4.78125V26.0322H8.5Z" fill="#E0EAFE"/>
<path d="M15.4062 26.0322V27.626H11.6875V26.0322H15.4062Z" fill="#E0EAFE"/>
<path d="M12.2188 16.4697H14.875V26.0321H12.2188V16.4697Z" fill="#E0EAFE"/>
<path d="M19.125 16.4697H21.7812V26.0321H19.125V16.4697Z" fill="#E0EAFE"/>
<path d="M33.4684 11.1567L32.9371 12.7505H1.06249L0.53125 11.1567H33.4684Z" fill="#E0EAFE"/>
<path d="M33.4684 11.1566H0.53125L16.9998 1.59424L33.4684 11.1566ZM19.1248 6.90668C19.1248 5.73265 18.1739 4.7817 16.9998 4.7817C15.8258 4.7817 14.8748 5.73265 14.8748 6.90668C14.8748 8.08071 15.8258 9.03166 16.9998 9.03166C18.1739 9.03166 19.1248 8.08071 19.1248 6.90668Z" fill="#E0EAFE"/>
<path d="M29.7497 12.7505V14.3442H4.25V12.7505H29.7497Z" fill="#E0EAFE"/>
<path d="M28.6875 14.3447C29.2719 14.3447 29.75 14.8228 29.75 15.4072C29.75 15.9914 29.2719 16.4697 28.6875 16.4697H26.0312C25.4468 16.4697 24.9688 15.9914 24.9688 15.4072C24.9688 14.8228 25.4468 14.3447 26.0312 14.3447H28.6875Z" fill="#E0EAFE"/>
<path d="M26.0312 16.4697H28.6875V26.0321H26.0312V16.4697Z" fill="#E0EAFE"/>
<path d="M21.7812 14.3447C22.3657 14.3447 22.8438 14.8228 22.8438 15.4072C22.8438 15.9914 22.3657 16.4697 21.7812 16.4697H19.125C18.5406 16.4697 18.0625 15.9914 18.0625 15.4072C18.0625 14.8228 18.5406 14.3447 19.125 14.3447H21.7812Z" fill="#E0EAFE"/>
<path d="M19.125 6.90723C19.125 8.08075 18.1735 9.03223 17 9.03223C15.8265 9.03223 14.875 8.08075 14.875 6.90723C14.875 5.73344 15.8265 4.78223 17 4.78223C18.1735 4.78223 19.125 5.73344 19.125 6.90723Z" fill="#E0EAFE"/>
<path d="M14.875 14.3447C15.4594 14.3447 15.9375 14.8228 15.9375 15.4072C15.9375 15.9914 15.4594 16.4697 14.875 16.4697H12.2188C11.6343 16.4697 11.1562 15.9914 11.1562 15.4072C11.1562 14.8228 11.6343 14.3447 12.2188 14.3447H14.875Z" fill="#E0EAFE"/>
<path d="M7.96875 14.3447C8.55318 14.3447 9.03125 14.8228 9.03125 15.4072C9.03125 15.9914 8.55318 16.4697 7.96875 16.4697H5.3125C4.72807 16.4697 4.25 15.9914 4.25 15.4072C4.25 14.8228 4.72807 14.3447 5.3125 14.3447H7.96875Z" fill="#E0EAFE"/>
<path d="M32.9371 32.9375H0.531244C0.237348 32.9375 0 32.6999 0 32.4062V30.8125C0 30.5186 0.237348 30.2812 0.531244 30.2812H32.9371C33.231 30.2812 33.4684 30.5186 33.4684 30.8125V32.4062C33.4684 32.6999 33.231 32.9375 32.9371 32.9375ZM1.06249 31.875H32.4059V31.3437H1.06249V31.875Z" fill="#344CED"/>
<path d="M31.8747 31.3437C31.5808 31.3437 31.3434 31.1061 31.3434 30.8125V29.75H2.12499V30.8125C2.12499 31.1061 1.88764 31.3437 1.59374 31.3437C1.29985 31.3437 1.0625 31.1061 1.0625 30.8125V29.2187C1.0625 28.9248 1.29985 28.6875 1.59374 28.6875H31.8747C32.1686 28.6875 32.4059 28.9248 32.4059 29.2187V30.8125C32.4059 31.1061 32.1686 31.3437 31.8747 31.3437Z" fill="#344CED"/>
<path d="M30.8122 29.7509C30.5183 29.7509 30.2809 29.5133 30.2809 29.2197V28.1572H3.18749V29.2197C3.18749 29.5133 2.95014 29.7509 2.65624 29.7509C2.36235 29.7509 2.125 29.5133 2.125 29.2197V27.626C2.125 27.3321 2.36235 27.0947 2.65624 27.0947H30.8122C31.1061 27.0947 31.3434 27.3321 31.3434 27.626V29.2197C31.3434 29.5133 31.1061 29.7509 30.8122 29.7509Z" fill="#344CED"/>
<path d="M29.7497 14.8755H4.24999C3.9561 14.8755 3.71875 14.6379 3.71875 14.3442C3.71875 14.0503 3.9561 13.813 4.24999 13.813H29.7497C30.0436 13.813 30.281 14.0503 30.281 14.3442C30.281 14.6379 30.0436 14.8755 29.7497 14.8755Z" fill="#344CED"/>
<path d="M8.5 26.5635H4.78125C4.48735 26.5635 4.25 26.3259 4.25 26.0322C4.25 25.7383 4.48735 25.501 4.78125 25.501H8.5C8.7939 25.501 9.03125 25.7383 9.03125 26.0322C9.03125 26.3259 8.7939 26.5635 8.5 26.5635Z" fill="#344CED"/>
<path d="M8.5 28.1572C8.2061 28.1572 7.96875 27.9196 7.96875 27.626V26.0322C7.96875 25.7383 8.2061 25.501 8.5 25.501C8.7939 25.501 9.03125 25.7383 9.03125 26.0322V27.626C9.03125 27.9196 8.7939 28.1572 8.5 28.1572Z" fill="#344CED"/>
<path d="M4.78125 28.1572C4.48735 28.1572 4.25 27.9196 4.25 27.626V26.0322C4.25 25.7383 4.48735 25.501 4.78125 25.501C5.07515 25.501 5.3125 25.7383 5.3125 26.0322V27.626C5.3125 27.9196 5.07515 28.1572 4.78125 28.1572Z" fill="#344CED"/>
<path d="M15.4062 26.5625H11.6875C11.3936 26.5625 11.1562 26.3249 11.1562 26.0312C11.1562 25.7374 11.3936 25.5 11.6875 25.5H15.4062C15.7001 25.5 15.9375 25.7374 15.9375 26.0312C15.9375 26.3249 15.7001 26.5625 15.4062 26.5625Z" fill="#344CED"/>
<path d="M15.4062 28.1562C15.1124 28.1562 14.875 27.9186 14.875 27.625V26.0312C14.875 25.7374 15.1124 25.5 15.4062 25.5C15.7001 25.5 15.9375 25.7374 15.9375 26.0312V27.625C15.9375 27.9186 15.7001 28.1562 15.4062 28.1562Z" fill="#344CED"/>
<path d="M11.6875 28.1562C11.3936 28.1562 11.1562 27.9186 11.1562 27.625V26.0312C11.1562 25.7374 11.3936 25.5 11.6875 25.5C11.9814 25.5 12.2188 25.7374 12.2188 26.0312V27.625C12.2188 27.9186 11.9814 28.1562 11.6875 28.1562Z" fill="#344CED"/>
<path d="M22.3125 26.5625H18.5938C18.2999 26.5625 18.0625 26.3249 18.0625 26.0312C18.0625 25.7374 18.2999 25.5 18.5938 25.5H22.3125C22.6064 25.5 22.8438 25.7374 22.8438 26.0312C22.8438 26.3249 22.6064 26.5625 22.3125 26.5625Z" fill="#344CED"/>
<path d="M22.3125 28.1572C22.0186 28.1572 21.7812 27.9196 21.7812 27.626V26.0322C21.7812 25.7383 22.0186 25.501 22.3125 25.501C22.6064 25.501 22.8438 25.7383 22.8438 26.0322V27.626C22.8438 27.9196 22.6064 28.1572 22.3125 28.1572Z" fill="#344CED"/>
<path d="M18.5938 28.1562C18.2999 28.1562 18.0625 27.9186 18.0625 27.625V26.0312C18.0625 25.7374 18.2999 25.5 18.5938 25.5C18.8876 25.5 19.125 25.7374 19.125 26.0312V27.625C19.125 27.9186 18.8876 28.1562 18.5938 28.1562Z" fill="#344CED"/>
<path d="M29.2188 26.5635H25.5C25.2061 26.5635 24.9688 26.3259 24.9688 26.0322C24.9688 25.7383 25.2061 25.501 25.5 25.501H29.2188C29.5126 25.501 29.75 25.7383 29.75 26.0322C29.75 26.3259 29.5126 26.5635 29.2188 26.5635Z" fill="#344CED"/>
<path d="M29.2188 28.1572C28.9249 28.1572 28.6875 27.9196 28.6875 27.626V26.0322C28.6875 25.7383 28.9249 25.501 29.2188 25.501C29.5126 25.501 29.75 25.7383 29.75 26.0322V27.626C29.75 27.9196 29.5126 28.1572 29.2188 28.1572Z" fill="#344CED"/>
<path d="M25.5 28.1572C25.2061 28.1572 24.9688 27.9196 24.9688 27.626V26.0322C24.9688 25.7383 25.2061 25.501 25.5 25.501C25.7939 25.501 26.0312 25.7383 26.0312 26.0322V27.626C26.0312 27.9196 25.7939 28.1572 25.5 28.1572Z" fill="#344CED"/>
<path d="M5.31249 26.5634C5.0186 26.5634 4.78125 26.3257 4.78125 26.0321V16.4697C4.78125 16.1758 5.0186 15.9385 5.31249 15.9385C5.60639 15.9385 5.84374 16.1758 5.84374 16.4697V26.0321C5.84374 26.3257 5.60639 26.5634 5.31249 26.5634Z" fill="#344CED"/>
<path d="M7.96874 26.5634C7.67485 26.5634 7.4375 26.3257 7.4375 26.0321V16.4697C7.4375 16.1758 7.67485 15.9385 7.96874 15.9385C8.26264 15.9385 8.49999 16.1758 8.49999 16.4697V26.0321C8.49999 26.3257 8.26264 26.5634 7.96874 26.5634Z" fill="#344CED"/>
<path d="M5.3125 17.0005C4.43391 17.0005 3.71875 16.2853 3.71875 15.4067C3.71875 14.5279 4.43391 13.813 5.3125 13.813C5.6064 13.813 5.84375 14.0503 5.84375 14.3442C5.84375 14.6379 5.6064 14.8755 5.3125 14.8755C5.01938 14.8755 4.78125 15.1134 4.78125 15.4067C4.78125 15.6999 5.01938 15.938 5.3125 15.938C5.6064 15.938 5.84375 16.1753 5.84375 16.4692C5.84375 16.7629 5.6064 17.0005 5.3125 17.0005Z" fill="#344CED"/>
<path d="M7.96875 17.0005C7.67485 17.0005 7.4375 16.7629 7.4375 16.4692C7.4375 16.1753 7.67485 15.938 7.96875 15.938C8.26213 15.938 8.5 15.6999 8.5 15.4067C8.5 15.1134 8.26213 14.8755 7.96875 14.8755C7.67485 14.8755 7.4375 14.6379 7.4375 14.3442C7.4375 14.0503 7.67485 13.813 7.96875 13.813C8.84734 13.813 9.5625 14.5279 9.5625 15.4067C9.5625 16.2853 8.84734 17.0005 7.96875 17.0005Z" fill="#344CED"/>
<path d="M7.96875 17.001H5.3125C5.0186 17.001 4.78125 16.7634 4.78125 16.4697C4.78125 16.1758 5.0186 15.9385 5.3125 15.9385H7.96875C8.26265 15.9385 8.5 16.1758 8.5 16.4697C8.5 16.7634 8.26265 17.001 7.96875 17.001Z" fill="#344CED"/>
<path d="M12.2187 26.5624C11.9248 26.5624 11.6875 26.3248 11.6875 26.0311V16.4687C11.6875 16.1748 11.9248 15.9375 12.2187 15.9375C12.5126 15.9375 12.75 16.1748 12.75 16.4687V26.0311C12.75 26.3248 12.5126 26.5624 12.2187 26.5624Z" fill="#344CED"/>
<path d="M14.875 26.5624C14.5811 26.5624 14.3438 26.3248 14.3438 26.0311V16.4687C14.3438 16.1748 14.5811 15.9375 14.875 15.9375C15.1689 15.9375 15.4062 16.1748 15.4062 16.4687V26.0311C15.4062 26.3248 15.1689 26.5624 14.875 26.5624Z" fill="#344CED"/>
<path d="M12.2188 17.0005C11.3402 17.0005 10.625 16.2853 10.625 15.4067C10.625 14.5279 11.3402 13.813 12.2188 13.813C12.5126 13.813 12.75 14.0503 12.75 14.3442C12.75 14.6379 12.5126 14.8755 12.2188 14.8755C11.9256 14.8755 11.6875 15.1134 11.6875 15.4067C11.6875 15.6999 11.9256 15.938 12.2188 15.938C12.5126 15.938 12.75 16.1753 12.75 16.4692C12.75 16.7629 12.5126 17.0005 12.2188 17.0005Z" fill="#344CED"/>
<path d="M14.875 17.0005C14.5811 17.0005 14.3438 16.7629 14.3438 16.4692C14.3438 16.1753 14.5811 15.938 14.875 15.938C15.1684 15.938 15.4062 15.6999 15.4062 15.4067C15.4062 15.1134 15.1684 14.8755 14.875 14.8755C14.5811 14.8755 14.3438 14.6379 14.3438 14.3442C14.3438 14.0503 14.5811 13.813 14.875 13.813C15.7536 13.813 16.4687 14.5279 16.4687 15.4067C16.4687 16.2853 15.7536 17.0005 14.875 17.0005Z" fill="#344CED"/>
<path d="M14.875 17H12.2188C11.9249 17 11.6875 16.7624 11.6875 16.4687C11.6875 16.1749 11.9249 15.9375 12.2188 15.9375H14.875C15.1689 15.9375 15.4062 16.1749 15.4062 16.4687C15.4062 16.7624 15.1689 17 14.875 17Z" fill="#344CED"/>
<path d="M19.125 26.5624C18.8311 26.5624 18.5938 26.3248 18.5938 26.0311V16.4687C18.5938 16.1748 18.8311 15.9375 19.125 15.9375C19.4189 15.9375 19.6562 16.1748 19.6562 16.4687V26.0311C19.6562 26.3248 19.4189 26.5624 19.125 26.5624Z" fill="#344CED"/>
<path d="M21.7812 26.5634C21.4873 26.5634 21.25 26.3257 21.25 26.0321V16.4697C21.25 16.1758 21.4873 15.9385 21.7812 15.9385C22.0751 15.9385 22.3125 16.1758 22.3125 16.4697V26.0321C22.3125 26.3257 22.0751 26.5634 21.7812 26.5634Z" fill="#344CED"/>
<path d="M19.125 17.0005C18.2464 17.0005 17.5312 16.2853 17.5312 15.4067C17.5312 14.5279 18.2464 13.813 19.125 13.813C19.4189 13.813 19.6562 14.0503 19.6562 14.3442C19.6562 14.6379 19.4189 14.8755 19.125 14.8755C18.8319 14.8755 18.5938 15.1134 18.5938 15.4067C18.5938 15.6999 18.8319 15.938 19.125 15.938C19.4189 15.938 19.6562 16.1753 19.6562 16.4692C19.6562 16.7629 19.4189 17.0005 19.125 17.0005Z" fill="#344CED"/>
<path d="M21.7812 17.0005C21.4874 17.0005 21.25 16.7629 21.25 16.4692C21.25 16.1753 21.4874 15.938 21.7812 15.938C22.0746 15.938 22.3125 15.6999 22.3125 15.4067C22.3125 15.1134 22.0746 14.8755 21.7812 14.8755C21.4874 14.8755 21.25 14.6379 21.25 14.3442C21.25 14.0503 21.4874 13.813 21.7812 13.813C22.6598 13.813 23.375 14.5279 23.375 15.4067C23.375 16.2853 22.6598 17.0005 21.7812 17.0005Z" fill="#344CED"/>
<path d="M21.7812 17H19.125C18.8311 17 18.5938 16.7624 18.5938 16.4687C18.5938 16.1749 18.8311 15.9375 19.125 15.9375H21.7812C22.0751 15.9375 22.3125 16.1749 22.3125 16.4687C22.3125 16.7624 22.0751 17 21.7812 17Z" fill="#344CED"/>
<path d="M26.0312 26.5634C25.7373 26.5634 25.5 26.3257 25.5 26.0321V16.4697C25.5 16.1758 25.7373 15.9385 26.0312 15.9385C26.3251 15.9385 26.5625 16.1758 26.5625 16.4697V26.0321C26.5625 26.3257 26.3251 26.5634 26.0312 26.5634Z" fill="#344CED"/>
<path d="M28.6875 26.5634C28.3936 26.5634 28.1562 26.3257 28.1562 26.0321V16.4697C28.1562 16.1758 28.3936 15.9385 28.6875 15.9385C28.9814 15.9385 29.2187 16.1758 29.2187 16.4697V26.0321C29.2187 26.3257 28.9814 26.5634 28.6875 26.5634Z" fill="#344CED"/>
<path d="M26.0312 17.0005C25.1527 17.0005 24.4375 16.2853 24.4375 15.4067C24.4375 14.5279 25.1527 13.813 26.0312 13.813C26.3251 13.813 26.5625 14.0503 26.5625 14.3442C26.5625 14.6379 26.3251 14.8755 26.0312 14.8755C25.7381 14.8755 25.5 15.1134 25.5 15.4067C25.5 15.6999 25.7381 15.938 26.0312 15.938C26.3251 15.938 26.5625 16.1753 26.5625 16.4692C26.5625 16.7629 26.3251 17.0005 26.0312 17.0005Z" fill="#344CED"/>
<path d="M28.6875 17.0005C28.3936 17.0005 28.1562 16.7629 28.1562 16.4692C28.1562 16.1753 28.3936 15.938 28.6875 15.938C28.9809 15.938 29.2188 15.6999 29.2188 15.4067C29.2188 15.1134 28.9809 14.8755 28.6875 14.8755C28.3936 14.8755 28.1562 14.6379 28.1562 14.3442C28.1562 14.0503 28.3936 13.813 28.6875 13.813C29.5661 13.813 30.2812 14.5279 30.2812 15.4067C30.2812 16.2853 29.5661 17.0005 28.6875 17.0005Z" fill="#344CED"/>
<path d="M28.6875 17.001H26.0312C25.7374 17.001 25.5 16.7634 25.5 16.4697C25.5 16.1758 25.7374 15.9385 26.0312 15.9385H28.6875C28.9814 15.9385 29.2188 16.1758 29.2188 16.4697C29.2188 16.7634 28.9814 17.001 28.6875 17.001Z" fill="#344CED"/>
<path d="M4.25 14.8755C3.9561 14.8755 3.71875 14.6379 3.71875 14.3442V12.7505C3.71875 12.4566 3.9561 12.2192 4.25 12.2192C4.5439 12.2192 4.78125 12.4566 4.78125 12.7505V14.3442C4.78125 14.6379 4.5439 14.8755 4.25 14.8755Z" fill="#344CED"/>
<path d="M29.75 14.8755C29.4561 14.8755 29.2188 14.6379 29.2188 14.3442V12.7505C29.2188 12.4566 29.4561 12.2192 29.75 12.2192C30.0439 12.2192 30.2812 12.4566 30.2812 12.7505V14.3442C30.2812 14.6379 30.0439 14.8755 29.75 14.8755Z" fill="#344CED"/>
<path d="M32.9371 13.2817H1.06249C0.768598 13.2817 0.53125 13.0441 0.53125 12.7505C0.53125 12.4566 0.768598 12.2192 1.06249 12.2192H32.9371C33.231 12.2192 33.4684 12.4566 33.4684 12.7505C33.4684 13.0441 33.231 13.2817 32.9371 13.2817Z" fill="#344CED"/>
<path d="M32.9373 13.2816C32.882 13.2816 32.8252 13.2725 32.7694 13.2538C32.4916 13.1615 32.3406 12.8609 32.4338 12.5817L32.965 10.988C33.0579 10.7102 33.3559 10.5584 33.6369 10.6523C33.9147 10.7447 34.0657 11.0456 33.9728 11.3244L33.4415 12.9182C33.3671 13.1408 33.1598 13.2816 32.9373 13.2816Z" fill="#344CED"/>
<path d="M1.06232 13.2817C0.839751 13.2817 0.632491 13.1408 0.558821 12.9182L0.0275714 11.3245C-0.065553 11.0462 0.0848987 10.7447 0.363234 10.6524C0.643126 10.5585 0.942733 10.7097 1.03534 10.988L1.56659 12.5818C1.65945 12.8604 1.509 13.1616 1.23067 13.2539C1.17438 13.2726 1.11757 13.2817 1.06232 13.2817Z" fill="#344CED"/>
<path d="M0.531749 11.6891C0.348615 11.6891 0.169891 11.5939 0.0718386 11.4245C-0.0754987 11.1706 0.0111398 10.8453 0.26457 10.6982L16.7331 1.13579C16.9881 0.990272 17.3126 1.07587 17.4595 1.32878C17.6065 1.58247 17.5199 1.90776 17.2665 2.05484L0.79789 11.6172C0.714105 11.6657 0.622019 11.6891 0.531749 11.6891Z" fill="#344CED"/>
<path d="M33.4684 11.6882C33.3776 11.6882 33.2863 11.6653 33.2022 11.6163L16.7337 2.05392C16.4797 1.90684 16.3931 1.58104 16.5409 1.32786C16.688 1.0734 17.0136 0.987795 17.267 1.13487L33.7355 10.6973C33.9895 10.8443 34.0761 11.1702 33.9285 11.4236C33.8302 11.593 33.6518 11.6882 33.4684 11.6882Z" fill="#344CED"/>
<path d="M33.4684 11.6885H0.531244C0.237348 11.6885 0 11.4509 0 11.1572C0 10.8633 0.237348 10.626 0.531244 10.626H33.4684C33.7623 10.626 33.9996 10.8633 33.9996 11.1572C33.9996 11.4509 33.7623 11.6885 33.4684 11.6885Z" fill="#344CED"/>
<path d="M17 9.56299C15.5354 9.56299 14.3438 8.37131 14.3438 6.90674C14.3438 5.44191 15.5354 4.25049 17 4.25049C18.4646 4.25049 19.6562 5.44191 19.6562 6.90674C19.6562 8.37131 18.4646 9.56299 17 9.56299ZM17 5.31299C16.1214 5.31299 15.4062 6.02789 15.4062 6.90674C15.4062 7.78532 16.1214 8.50049 17 8.50049C17.8786 8.50049 18.5937 7.78532 18.5937 6.90674C18.5937 6.02789 17.8786 5.31299 17 5.31299Z" fill="#344CED"/>
<path d="M17 7.96924C16.7061 7.96924 16.4688 7.73163 16.4688 7.43799V6.37549C16.4688 6.08159 16.7061 5.84424 17 5.84424C17.2939 5.84424 17.5312 6.08159 17.5312 6.37549V7.43799C17.5312 7.73163 17.2939 7.96924 17 7.96924Z" fill="#344CED"/>
</g>
<defs>
<clipPath id="clip0">
<rect width="34" height="34" fill="white"/>
</clipPath>
</defs>
</svg>
