<svg width="34" height="34" viewBox="0 0 34 34" fill="none" xmlns="http://www.w3.org/2000/svg">
<g clip-path="url(#clip0)">
<path d="M16.9983 7.93359L13.2322 9.34459C13.1114 9.38944 13.0312 9.50472 13.0312 9.63359C13.0312 9.76247 13.1114 9.87774 13.2322 9.92259L16.9983 11.3336V7.93359Z" fill="#E0EAFE"/>
<path d="M25.5 20.3999V21.5332H22.0263L17.323 18.2352C17.1291 18.0993 16.8709 18.0993 16.677 18.2352L11.9737 21.5332H8.5V20.3999C8.50187 19.7747 9.00819 19.2684 9.63333 19.2665H10.7667C10.7667 15.824 13.5574 13.0332 17 13.0332C20.4426 13.0332 23.2333 15.824 23.2333 19.2665H24.3667C24.9918 19.2684 25.4981 19.7747 25.5 20.3999Z" fill="#E0EAFE"/>
<path d="M24.3651 19.2668H23.2318C23.2444 17.4616 22.4684 15.7409 21.1071 14.5553C19.7458 13.3698 17.9347 12.8375 16.1484 13.098C19.2328 13.5191 21.532 16.1538 21.5318 19.2668H22.6651C23.2903 19.2686 23.7966 19.7749 23.7984 20.4001V21.5334H25.4984V20.4001C25.4966 19.7749 24.9903 19.2686 24.3651 19.2668Z" fill="#E0EAFE"/>
<path d="M26.0669 24.9564V31.1671H7.93359V24.9564C7.93519 24.5871 8.11447 24.2412 8.41526 24.0271L11.9739 21.5337L16.6773 18.2357C16.8711 18.0998 17.1294 18.0998 17.3233 18.2357L22.0266 21.5337L25.5853 24.0271C25.8861 24.2412 26.0653 24.5871 26.0669 24.9564Z" fill="#E0EAFE"/>
<path d="M25.5834 24.0271L22.0248 21.5337L17.3214 18.2357C17.1276 18.0998 16.8693 18.0998 16.6754 18.2357L16.1484 18.6052L20.3248 21.5337L23.8834 24.0271C24.1842 24.2412 24.3635 24.5871 24.3651 24.9564V31.1671H26.0651V24.9564C26.0635 24.5871 25.8842 24.2412 25.5834 24.0271Z" fill="#E0EAFE"/>
<path d="M32.8677 22.0999V31.1665H26.0677V24.9559C26.0661 24.5866 25.8868 24.2407 25.586 24.0265L22.0273 21.5332H32.301C32.614 21.5332 32.8677 21.7869 32.8677 22.0999Z" fill="#E0EAFE"/>
<path d="M32.3016 21.5332H30.6016C30.9145 21.5332 31.1682 21.7869 31.1682 22.0999V31.1665H32.8682V22.0999C32.8682 21.7869 32.6145 21.5332 32.3016 21.5332Z" fill="#E0EAFE"/>
<path d="M11.9731 21.5332L8.41448 24.0265C8.11369 24.2407 7.93441 24.5866 7.93281 24.9559V31.1665H1.13281V22.0999C1.13281 21.7869 1.38652 21.5332 1.69948 21.5332H11.9731Z" fill="#E0EAFE"/>
<path d="M11.899 24.9336C12.5249 24.9336 13.0323 25.441 13.0323 26.0669V31.1669H10.7656V26.0669C10.7656 25.441 11.273 24.9336 11.899 24.9336Z" fill="#E0EAFE"/>
<path d="M22.1021 24.9336C22.728 24.9336 23.2354 25.441 23.2354 26.0669V31.1669H20.9688V26.0669C20.9688 25.441 21.4762 24.9336 22.1021 24.9336Z" fill="#E0EAFE"/>
<path d="M17.0005 23.7998C17.6264 23.7998 18.1339 24.3072 18.1339 24.9331V31.1665H15.8672V24.9331C15.8672 24.3072 16.3746 23.7998 17.0005 23.7998Z" fill="#E0EAFE"/>
<path d="M32.8664 31.167H1.13307C0.820112 31.167 0.566406 31.4207 0.566406 31.7337V32.867C0.566406 33.1799 0.820112 33.4337 1.13307 33.4337H32.8664C33.1794 33.4337 33.4331 33.1799 33.4331 32.867V31.7337C33.4331 31.4207 33.1794 31.167 32.8664 31.167Z" fill="#E0EAFE"/>
<path d="M32.868 31.167H31.168C31.4809 31.167 31.7346 31.4207 31.7346 31.7337V32.867C31.7346 33.1799 31.4809 33.4337 31.168 33.4337H32.868C33.1809 33.4337 33.4346 33.1799 33.4346 32.867V31.7337C33.4346 31.4207 33.1809 31.167 32.868 31.167Z" fill="#E0EAFE"/>
<path d="M33.432 1.69974V9.63307C33.4302 10.2582 32.9238 10.7645 32.2987 10.7664H27.1987L24.031 13.4807C23.8885 13.6043 23.687 13.6335 23.5153 13.5555C23.3435 13.4776 23.2329 13.3067 23.232 13.1181V10.7664H20.9654C20.3402 10.7645 19.8339 10.2582 19.832 9.63307V1.69974C19.8339 1.07459 20.3402 0.568273 20.9654 0.566406H32.2987C32.9238 0.568273 33.4302 1.07459 33.432 1.69974Z" fill="#E0EAFE"/>
<path d="M32.3016 0.566406H30.6016C31.2267 0.568273 31.733 1.07459 31.7349 1.69974V9.63307C31.733 10.2582 31.2267 10.7645 30.6016 10.7664H32.3016C32.9267 10.7645 33.433 10.2582 33.4349 9.63307V1.69974C33.433 1.07459 32.9267 0.568273 32.3016 0.566406Z" fill="#E0EAFE"/>
<path d="M2.26641 32.8665V31.7332C2.26641 31.4202 2.52011 31.1665 2.83307 31.1665V22.0999C2.83307 21.7869 3.08678 21.5332 3.39974 21.5332H1.69974C1.38678 21.5332 1.13307 21.7869 1.13307 22.0999V31.1665C0.820112 31.1665 0.566406 31.4202 0.566406 31.7332V32.8665C0.566406 33.1795 0.820112 33.4332 1.13307 33.4332H2.83307C2.52011 33.4332 2.26641 33.1795 2.26641 32.8665Z" fill="#E0EAFE"/>
<path d="M0.566406 22.0996H1.69974V26.6329H0.566406V22.0996Z" fill="#E0EAFE"/>
<path d="M1.14373 24.9331C0.830765 24.9347 0.575791 24.6823 0.574226 24.3693C0.572661 24.0563 0.825098 23.8014 1.13806 23.7998H1.14373C1.45669 23.7998 1.71039 24.0535 1.71039 24.3665C1.71039 24.6794 1.45669 24.9331 1.14373 24.9331Z" fill="#344CED"/>
<path d="M3.3987 26.0665C3.71166 26.0665 3.96537 25.8128 3.96537 25.4998V24.3665C3.96537 24.0535 3.71166 23.7998 3.3987 23.7998C3.08574 23.7998 2.83203 24.0535 2.83203 24.3665V25.4998C2.83203 25.8128 3.08574 26.0665 3.3987 26.0665Z" fill="#344CED"/>
<path d="M5.66823 26.0665C5.98119 26.0665 6.2349 25.8128 6.2349 25.4998V24.3665C6.2349 24.0535 5.98119 23.7998 5.66823 23.7998C5.35527 23.7998 5.10156 24.0535 5.10156 24.3665V25.4998C5.10156 25.8128 5.35527 26.0665 5.66823 26.0665Z" fill="#344CED"/>
<path d="M2.83203 28.9002C2.83203 29.2132 3.08574 29.4669 3.3987 29.4669C3.71166 29.4669 3.96537 29.2132 3.96537 28.9002V27.7669C3.96537 27.4539 3.71166 27.2002 3.3987 27.2002C3.08574 27.2002 2.83203 27.4539 2.83203 27.7669V28.9002Z" fill="#344CED"/>
<path d="M5.10156 28.9002C5.10156 29.2132 5.35527 29.4669 5.66823 29.4669C5.98119 29.4669 6.2349 29.2132 6.2349 28.9002V27.7669C6.2349 27.4539 5.98119 27.2002 5.66823 27.2002C5.35527 27.2002 5.10156 27.4539 5.10156 27.7669V28.9002Z" fill="#344CED"/>
<path d="M28.3323 26.0665C28.6452 26.0665 28.899 25.8128 28.899 25.4998V24.3665C28.899 24.0535 28.6452 23.7998 28.3323 23.7998C28.0193 23.7998 27.7656 24.0535 27.7656 24.3665V25.4998C27.7656 25.8128 28.0193 26.0665 28.3323 26.0665Z" fill="#344CED"/>
<path d="M30.5979 26.0665C30.9109 26.0665 31.1646 25.8128 31.1646 25.4998V24.3665C31.1646 24.0535 30.9109 23.7998 30.5979 23.7998C30.285 23.7998 30.0312 24.0535 30.0312 24.3665V25.4998C30.0312 25.8128 30.285 26.0665 30.5979 26.0665Z" fill="#344CED"/>
<path d="M28.3323 29.4669C28.6452 29.4669 28.899 29.2132 28.899 28.9002V27.7669C28.899 27.4539 28.6452 27.2002 28.3323 27.2002C28.0193 27.2002 27.7656 27.4539 27.7656 27.7669V28.9002C27.7656 29.2132 28.0193 29.4669 28.3323 29.4669Z" fill="#344CED"/>
<path d="M30.5979 29.4669C30.9109 29.4669 31.1646 29.2132 31.1646 28.9002V27.7669C31.1646 27.4539 30.9109 27.2002 30.5979 27.2002C30.285 27.2002 30.0312 27.4539 30.0312 27.7669V28.9002C30.0312 29.2132 30.285 29.4669 30.5979 29.4669Z" fill="#344CED"/>
<path d="M33.4333 30.7578V22.1003C33.4333 21.4744 32.9259 20.967 32.3 20.967H26.0667V20.4003C26.0667 19.4614 25.3055 18.7003 24.3667 18.7003H23.7762C23.4945 15.3951 20.872 12.774 17.5667 12.4942V7.36696C17.5667 7.054 17.313 6.80029 17 6.80029C16.687 6.80029 16.4333 7.054 16.4333 7.36696V7.54093L13.0333 8.81423C12.6916 8.94216 12.4651 9.26873 12.4651 9.63363C12.4651 9.99852 12.6916 10.3251 13.0333 10.453L16.4333 11.7263V12.4942C13.128 12.774 10.5055 15.3951 10.2238 18.7003H9.63333C8.69445 18.7003 7.93333 19.4614 7.93333 20.4003V20.967H1.7C1.07408 20.967 0.566667 21.4744 0.566667 22.1003C0.566667 22.4133 0.820372 22.667 1.13333 22.667C1.44629 22.667 1.7 22.4133 1.7 22.1003H10.179L8.0903 23.5646C7.63713 23.8832 7.36722 24.4023 7.36667 24.9563V30.6003H1.7V26.6336C1.7 26.3207 1.44629 26.067 1.13333 26.067C0.820372 26.067 0.566667 26.3207 0.566667 26.6336V30.7578C0.217174 30.9587 0.0012155 31.3305 0 31.7336V32.867C0 33.4929 0.507411 34.0003 1.13333 34.0003H32.8667C33.4926 34.0003 34 33.4929 34 32.867V31.7336C33.9988 31.3305 33.7828 30.9587 33.4333 30.7578ZM32.3 30.6003H26.6333V24.9563C26.6332 24.4021 26.363 23.8827 25.9091 23.5646L23.8204 22.1003H32.3V30.6003ZM14.0783 9.63363L16.4333 8.75133V10.5159L14.0783 9.63363ZM9.06667 20.967V20.4003C9.06667 20.0873 9.32037 19.8336 9.63333 19.8336H11.9C12.213 19.8336 12.4667 19.5799 12.4667 19.267C12.4667 18.954 12.213 18.7003 11.9 18.7003H11.3622C11.6529 15.8044 14.0901 13.5996 17.0006 13.5996C19.911 13.5996 22.3482 15.8044 22.6389 18.7003H22.1C21.787 18.7003 21.5333 18.954 21.5333 19.267C21.5333 19.5799 21.787 19.8336 22.1 19.8336H24.3667C24.6796 19.8336 24.9333 20.0873 24.9333 20.4003V20.967H22.2043L17.6466 17.7715C17.2578 17.5015 16.7422 17.5015 16.3534 17.7715L11.7957 20.967H9.06667ZM8.5 24.9563C8.49997 24.7715 8.59007 24.5983 8.7414 24.4922L16.9955 18.7003L25.258 24.4922C25.4096 24.5982 25.4999 24.7714 25.5 24.9563V30.6003H23.8V26.067C23.8 25.1281 23.0389 24.367 22.1 24.367C21.1611 24.367 20.4 25.1281 20.4 26.067V30.6003H18.7V24.9336C18.7 23.9947 17.9389 23.2336 17 23.2336C16.0611 23.2336 15.3 23.9947 15.3 24.9336V30.6003H13.6V26.067C13.6 25.1281 12.8389 24.367 11.9 24.367C10.9611 24.367 10.2 25.1281 10.2 26.067V30.6003H8.5V24.9563ZM22.6667 30.6003H21.5333V26.067C21.5333 25.754 21.787 25.5003 22.1 25.5003C22.413 25.5003 22.6667 25.754 22.6667 26.067V30.6003ZM17.5667 30.6003H16.4333V24.9336C16.4333 24.6207 16.687 24.367 17 24.367C17.313 24.367 17.5667 24.6207 17.5667 24.9336V30.6003ZM12.4667 30.6003H11.3333V26.067C11.3333 25.754 11.587 25.5003 11.9 25.5003C12.213 25.5003 12.4667 25.754 12.4667 26.067V30.6003ZM1.13333 32.867V31.7336H32.8667V32.867H1.13333Z" fill="#344CED"/>
<path d="M32.299 0H20.9656C20.0267 0 19.2656 0.761116 19.2656 1.7V9.63333C19.2656 10.5722 20.0267 11.3333 20.9656 11.3333H22.6656V13.1183C22.6634 13.528 22.9025 13.9006 23.2759 14.0692C23.6489 14.2436 24.0896 14.1819 24.4002 13.9117L27.4086 11.3333H32.299C33.2378 11.3333 33.999 10.5722 33.999 9.63333V1.7C33.999 0.761116 33.2378 0 32.299 0ZM32.8656 9.63333C32.8656 9.94629 32.6119 10.2 32.299 10.2H26.0656C25.7527 10.2 25.499 10.4537 25.499 10.7667C25.5012 10.9621 25.6057 11.1421 25.7744 11.241L23.799 12.9336V11.3333C24.1119 11.3333 24.3656 11.0796 24.3656 10.7667C24.3656 10.4537 24.1119 10.2 23.799 10.2H20.9656C20.6527 10.2 20.399 9.94629 20.399 9.63333V1.7C20.399 1.38704 20.6527 1.13333 20.9656 1.13333H32.299C32.6119 1.13333 32.8656 1.38704 32.8656 1.7V9.63333Z" fill="#344CED"/>
<path d="M31.1646 2.83301H22.0979C21.785 2.83301 21.5312 3.08671 21.5312 3.39968C21.5312 3.71264 21.785 3.96634 22.0979 3.96634H31.1646C31.4775 3.96634 31.7313 3.71264 31.7313 3.39968C31.7313 3.08671 31.4775 2.83301 31.1646 2.83301Z" fill="#344CED"/>
<path d="M31.1672 5.1001H24.9339C24.6209 5.1001 24.3672 5.3538 24.3672 5.66676C24.3672 5.97973 24.6209 6.23343 24.9339 6.23343H31.1672C31.4801 6.23343 31.7339 5.97973 31.7339 5.66676C31.7339 5.3538 31.4801 5.1001 31.1672 5.1001Z" fill="#344CED"/>
<path d="M22.0979 6.23294H22.6646C22.9775 6.23294 23.2312 5.97924 23.2312 5.66628C23.2312 5.35331 22.9775 5.09961 22.6646 5.09961H22.0979C21.785 5.09961 21.5312 5.35331 21.5312 5.66628C21.5312 5.97924 21.785 6.23294 22.0979 6.23294Z" fill="#344CED"/>
<path d="M27.7646 7.36719H22.0979C21.785 7.36719 21.5312 7.62089 21.5312 7.93385C21.5312 8.24682 21.785 8.50052 22.0979 8.50052H27.7646C28.0775 8.50052 28.3312 8.24682 28.3312 7.93385C28.3312 7.62089 28.0775 7.36719 27.7646 7.36719Z" fill="#344CED"/>
</g>
<defs>
<clipPath id="clip0">
<rect width="34" height="34" fill="white"/>
</clipPath>
</defs>
</svg>
