<svg width="34" height="34" viewBox="0 0 34 34" fill="none" xmlns="http://www.w3.org/2000/svg">
<path d="M9 4.5V9H25V4.5L23 2H11.5C11.5 2 9.16667 3.66667 9 4.5Z" fill="#E0EAFE"/>
<path d="M1 31V11L2.5 10H31.5L33 11.5V31L30 32.5H3L1 31Z" fill="#E0EAFE"/>
<path d="M26.2969 15.6719C25.9303 15.6719 25.6328 15.9694 25.6328 16.3359C25.6328 16.7025 25.9303 17 26.2969 17C26.6634 17 26.9609 16.7025 26.9609 16.3359C26.9609 15.9694 26.6634 15.6719 26.2969 15.6719Z" fill="#344CED"/>
<path d="M7.70312 15.6719C7.33656 15.6719 7.03906 15.9694 7.03906 16.3359C7.03906 16.7025 7.33656 17 7.70312 17C8.06969 17 8.36719 16.7025 8.36719 16.3359C8.36719 15.9694 8.06969 15.6719 7.70312 15.6719Z" fill="#344CED"/>
<path d="M22.9766 18.3281H19.6562V15.0078C19.6562 14.6411 19.3589 14.3438 18.9922 14.3438H15.0078C14.6411 14.3438 14.3438 14.6411 14.3438 15.0078V18.3281H11.0234C10.6567 18.3281 10.3594 18.6255 10.3594 18.9922V22.9766C10.3594 23.3433 10.6567 23.6406 11.0234 23.6406H14.3438V26.9609C14.3438 27.3276 14.6411 27.625 15.0078 27.625H18.9922C19.3589 27.625 19.6562 27.3276 19.6562 26.9609V23.6406H22.9766C23.3433 23.6406 23.6406 23.3433 23.6406 22.9766V18.9922C23.6406 18.6255 23.3433 18.3281 22.9766 18.3281ZM22.3125 22.3125H18.9922C18.6255 22.3125 18.3281 22.6099 18.3281 22.9766V26.2969H15.6719V22.9766C15.6719 22.6099 15.3745 22.3125 15.0078 22.3125H11.6875V19.6562H15.0078C15.3745 19.6562 15.6719 19.3589 15.6719 18.9922V15.6719H18.3281V18.9922C18.3281 19.3589 18.6255 19.6562 18.9922 19.6562H22.3125V22.3125Z" fill="#344CED"/>
<path d="M30.6797 9.03125H25.6328V5.04688C25.6328 2.84989 23.8454 1.0625 21.6484 1.0625H12.3516C10.1546 1.0625 8.36719 2.84989 8.36719 5.04688V9.03125H3.32031C1.48949 9.03125 0 10.5207 0 12.3516V29.6172C0 31.448 1.48949 32.9375 3.32031 32.9375H30.6797C32.5105 32.9375 34 31.448 34 29.6172V12.3516C34 10.5207 32.5105 9.03125 30.6797 9.03125ZM9.69531 5.04688C9.69531 3.58222 10.8869 2.39062 12.3516 2.39062H21.6484C23.1131 2.39062 24.3047 3.58222 24.3047 5.04688V9.03125H22.9766V5.71094C22.9766 4.61245 22.0829 3.71875 20.9844 3.71875H13.0156C11.9171 3.71875 11.0234 4.61245 11.0234 5.71094V9.03125H9.69531V5.04688ZM21.6484 5.71094V9.03125H12.3516V5.71094C12.3516 5.34477 12.6495 5.04688 13.0156 5.04688H20.9844C21.3505 5.04688 21.6484 5.34477 21.6484 5.71094ZM4.38281 31.6094H3.32031C2.22182 31.6094 1.32812 30.7157 1.32812 29.6172V12.3516C1.32812 11.2531 2.22182 10.3594 3.32031 10.3594H4.38281V31.6094ZM28.2891 31.6094H26.9609V18.9922C26.9609 18.6255 26.6636 18.3281 26.2969 18.3281C25.9302 18.3281 25.6328 18.6255 25.6328 18.9922V31.6094H8.36719V18.9922C8.36719 18.6255 8.06982 18.3281 7.70312 18.3281C7.33643 18.3281 7.03906 18.6255 7.03906 18.9922V31.6094H5.71094V10.3594H7.03906V13.6797C7.03906 14.0464 7.33643 14.3438 7.70312 14.3438C8.06982 14.3438 8.36719 14.0464 8.36719 13.6797V10.3594H25.6328V13.6797C25.6328 14.0464 25.9302 14.3438 26.2969 14.3438C26.6636 14.3438 26.9609 14.0464 26.9609 13.6797V10.3594H28.2891V31.6094ZM32.6719 29.6172C32.6719 30.7157 31.7782 31.6094 30.6797 31.6094H29.6172V10.3594H30.6797C31.7782 10.3594 32.6719 11.2531 32.6719 12.3516V29.6172Z" fill="#344CED"/>
</svg>
