<svg width="34" height="34" viewBox="0 0 34 34" fill="none" xmlns="http://www.w3.org/2000/svg">
<g clip-path="url(#clip0)">
<path d="M0.5 32.5V19H5.5V32.5H0.5Z" fill="#E0EAFE"/>
<path d="M19.5 0.5L10.5 7V9L12.5 7.5V17H27V7.5L28.5 8.5V7L19.5 0.5Z" fill="#E0EAFE"/>
<path d="M12.2187 7.40771C11.925 7.40771 11.6875 7.64518 11.6875 7.93896V17.0004C11.6875 17.2942 11.925 17.5316 12.2187 17.5316C12.5125 17.5316 12.75 17.2942 12.75 17.0004V7.93896C12.75 7.64518 12.5125 7.40771 12.2187 7.40771Z" fill="#344CED"/>
<path d="M27.0937 7.37598C26.8 7.37598 26.5625 7.61344 26.5625 7.90722V17.0005C26.5625 17.2943 26.8 17.5318 27.0937 17.5318C27.3875 17.5318 27.625 17.2943 27.625 17.0005V7.90722C27.625 7.61344 27.3875 7.37598 27.0937 7.37598Z" fill="#344CED"/>
<path d="M20.0907 0.224794C19.9207 -0.0142658 19.5902 -0.071109 19.3496 0.0972956L10.3184 6.47223C10.0788 6.64223 10.022 6.9732 10.1909 7.21332C10.2945 7.35994 10.4587 7.43804 10.6255 7.43804C10.7312 7.43804 10.838 7.40616 10.932 7.34082L19.9632 0.965881C20.2028 0.795883 20.2596 0.464917 20.0907 0.224794Z" fill="#344CED"/>
<path d="M28.9947 6.47149L19.9635 0.0965506C19.7223 -0.0723852 19.3919 -0.0150108 19.2224 0.224049C19.053 0.464703 19.1103 0.795669 19.3499 0.965136L28.3811 7.34007C28.4746 7.40542 28.5814 7.43729 28.6871 7.43729C28.8539 7.43729 29.018 7.3592 29.1222 7.21257C29.2916 6.97192 29.2343 6.64095 28.9947 6.47149Z" fill="#344CED"/>
<path d="M20.0907 2.34916C19.9207 2.11063 19.5902 2.05326 19.3496 2.22166L10.3184 8.5966C10.0788 8.7666 10.022 9.09756 10.1909 9.33769C10.2945 9.48431 10.4587 9.5624 10.6255 9.5624C10.7312 9.5624 10.838 9.53053 10.932 9.46518L19.9632 3.09025C20.2028 2.92025 20.2596 2.58928 20.0907 2.34916Z" fill="#344CED"/>
<path d="M28.9947 8.59634L19.9635 2.2214C19.7223 2.05247 19.3919 2.11037 19.2224 2.3489C19.053 2.58956 19.1103 2.92052 19.3499 3.08999L28.3811 9.46493C28.4746 9.53027 28.5814 9.56215 28.6871 9.56215C28.8539 9.56215 29.018 9.48405 29.1222 9.33743C29.2916 9.09678 29.2343 8.76581 28.9947 8.59634Z" fill="#344CED"/>
<path d="M10.625 6.375C10.3312 6.375 10.0938 6.61247 10.0938 6.90624V9.03123C10.0938 9.325 10.3312 9.56247 10.625 9.56247C10.9188 9.56247 11.1562 9.325 11.1562 9.03123V6.90624C11.1562 6.61247 10.9188 6.375 10.625 6.375Z" fill="#344CED"/>
<path d="M28.6875 6.375C28.3937 6.375 28.1562 6.61247 28.1562 6.90624V9.03123C28.1562 9.325 28.3937 9.56247 28.6875 9.56247C28.9813 9.56247 29.2187 9.325 29.2187 9.03123V6.90624C29.2187 6.61247 28.9813 6.375 28.6875 6.375Z" fill="#344CED"/>
<path d="M21.7812 9.56299H17.5312C17.2375 9.56299 17 9.80045 17 10.0942V17.0004C17 17.2942 17.2375 17.5317 17.5312 17.5317H21.7812C22.075 17.5317 22.3124 17.2942 22.3124 17.0004V10.0942C22.3124 9.80045 22.075 9.56299 21.7812 9.56299ZM21.25 16.4692H18.0625V10.6255H21.25V16.4692Z" fill="#344CED"/>
<path d="M27.0936 16.4688H12.2187C11.925 16.4688 11.6875 16.7062 11.6875 17C11.6875 17.2938 11.925 17.5312 12.2187 17.5312H27.0936C27.3874 17.5312 27.6248 17.2938 27.6248 17C27.6248 16.7062 27.3874 16.4688 27.0936 16.4688Z" fill="#344CED"/>
<path d="M3.20578 30.8125H3.19993C2.90669 30.8125 2.67188 31.05 2.67188 31.3437C2.67188 31.6375 2.912 31.875 3.20578 31.875C3.49902 31.875 3.73702 31.6375 3.73702 31.3437C3.73702 31.05 3.49902 30.8125 3.20578 30.8125Z" fill="#344CED"/>
<path d="M31.3437 21.25C31.05 21.25 30.8125 21.4875 30.8125 21.7812C30.8125 22.075 31.05 22.3125 31.3437 22.3125C32.2224 22.3125 32.9375 23.0275 32.9375 23.9062C32.9375 24.4741 32.6325 25.0032 32.1406 25.2875C31.8872 25.4341 31.8001 25.7587 31.9472 26.0131C32.045 26.1831 32.2235 26.2782 32.4073 26.2782C32.4976 26.2782 32.589 26.2554 32.6729 26.2065C33.4916 25.7332 34 24.8513 34 23.9062C34 22.4416 32.8084 21.25 31.3437 21.25Z" fill="#344CED"/>
<path d="M32.8739 25.4957C32.7347 25.237 32.4117 25.1403 32.1546 25.2795L17.811 33.0016C17.5528 33.1403 17.4556 33.4628 17.5948 33.7209C17.6909 33.8994 17.8742 34.0004 18.0633 34.0004C18.1483 34.0004 18.2344 33.9802 18.3141 33.9372L32.6577 26.215C32.9159 26.0763 33.0131 25.7539 32.8739 25.4957Z" fill="#344CED"/>
<path d="M18.1308 32.9427L5.91219 31.349C5.61948 31.3076 5.35492 31.5158 5.3172 31.8069C5.27842 32.0975 5.48401 32.3642 5.77513 32.4019L17.9938 33.9957C18.0171 33.9989 18.04 34.0004 18.0628 34.0004C18.3258 34.0004 18.5542 33.8055 18.5887 33.5377C18.6275 33.2471 18.4219 32.9805 18.1308 32.9427Z" fill="#344CED"/>
<path d="M5.84369 18.0625H0.531245C0.237466 18.0625 0 18.3 0 18.5937V32.9374C0 33.2311 0.237466 33.4686 0.531245 33.4686H5.84369C6.13747 33.4686 6.37494 33.2311 6.37494 32.9374V18.5937C6.37494 18.3 6.13747 18.0625 5.84369 18.0625ZM5.31245 32.4061H1.06249V19.125H5.31245V32.4061Z" fill="#344CED"/>
<path d="M31.5059 21.7335C31.4624 21.4435 31.1904 21.2442 30.9009 21.2883L20.6388 22.8502C20.3487 22.8943 20.1495 23.1652 20.1936 23.4553C20.2335 23.7188 20.4598 23.9068 20.7179 23.9068C20.7445 23.9068 20.7716 23.9047 20.7987 23.9005L31.0608 22.3386C31.3508 22.2945 31.55 22.0236 31.5059 21.7335Z" fill="#344CED"/>
<path d="M19.049 20.7594C18.7616 20.711 18.4854 20.9034 18.4354 21.1924C18.3855 21.4814 18.5794 21.756 18.8684 21.8059C19.6329 21.9377 20.1875 22.598 20.1875 23.3758C20.1875 24.2544 19.4724 24.9695 18.5937 24.9695C18.3 24.9695 18.0625 25.207 18.0625 25.5007C18.0625 25.7945 18.3 26.032 18.5937 26.032C20.0584 26.032 21.25 24.8404 21.25 23.3758C21.25 22.0795 20.3245 20.9783 19.049 20.7594Z" fill="#344CED"/>
<path d="M19.061 20.7609L10.7269 19.1353C10.4384 19.0779 10.16 19.267 10.1037 19.5549C10.0474 19.8429 10.2355 20.1223 10.5234 20.1781L18.8576 21.8037C18.8916 21.8106 18.9261 21.8138 18.9596 21.8138C19.2087 21.8138 19.4313 21.638 19.4807 21.384C19.537 21.0961 19.349 20.8167 19.061 20.7609Z" fill="#344CED"/>
<path d="M10.6249 19.125H5.84374C5.54997 19.125 5.3125 19.3625 5.3125 19.6562C5.3125 19.95 5.54997 20.1875 5.84374 20.1875H10.6249C10.9187 20.1875 11.1562 19.95 11.1562 19.6562C11.1562 19.3625 10.9187 19.125 10.6249 19.125Z" fill="#344CED"/>
<path d="M18.411 24.958L11.7284 24.4385C11.4357 24.4135 11.1807 24.634 11.1579 24.9272C11.135 25.2199 11.3539 25.4749 11.6466 25.4978L18.3292 26.0173C18.343 26.0184 18.3568 26.0189 18.3706 26.0189C18.6458 26.0189 18.8779 25.8069 18.8997 25.5286C18.9226 25.2358 18.7037 24.9809 18.411 24.958Z" fill="#344CED"/>
<path d="M31.3437 21.25C31.1907 21.25 31.0388 21.2627 30.8905 21.2888C30.601 21.3382 30.4071 21.6128 30.4571 21.9018C30.5011 22.1606 30.7253 22.3433 30.9798 22.3433C31.0095 22.3433 31.0404 22.3406 31.0701 22.3353C31.1588 22.3205 31.2502 22.3125 31.3437 22.3125C31.6375 22.3125 31.8749 22.075 31.8749 21.7812C31.8749 21.4875 31.6375 21.25 31.3437 21.25Z" fill="#344CED"/>
<path d="M18.5935 24.9686C18.5377 24.9686 18.4819 24.9654 18.4272 24.9596C18.134 24.9256 17.8742 25.1397 17.8428 25.4319C17.812 25.7235 18.0229 25.9849 18.3151 26.0163C18.406 26.0258 18.4989 26.0311 18.5935 26.0311C18.8873 26.0311 19.1247 25.7937 19.1247 25.4999C19.1247 25.2061 18.8873 24.9686 18.5935 24.9686Z" fill="#344CED"/>
<path d="M18.6081 13.2812H18.6023C18.309 13.2812 18.0742 13.5187 18.0742 13.8125C18.0742 14.1063 18.3143 14.3437 18.6081 14.3437C18.9014 14.3437 19.1394 14.1063 19.1394 13.8125C19.1394 13.5187 18.9014 13.2812 18.6081 13.2812Z" fill="#344CED"/>
</g>
<defs>
<clipPath id="clip0">
<rect width="34" height="34" fill="white"/>
</clipPath>
</defs>
</svg>
