<svg width="48" height="48" viewBox="0 0 48 48" fill="none" xmlns="http://www.w3.org/2000/svg">
<path d="M38.8422 32.4249V22.7094C38.8422 21.6423 37.9739 20.7739 36.9068 20.7739H35.5835C35.5958 20.9888 35.6164 21.201 35.6164 21.4191C35.6164 21.6372 35.5958 21.8494 35.5835 22.0642H36.9068C37.2629 22.0642 37.5519 22.3539 37.5519 22.7094V32.4249C34.6532 32.7468 32.3906 35.2094 32.3906 38.1933C32.3906 41.3952 34.9951 43.9997 38.1971 43.9997C41.399 43.9997 44.0035 41.3952 44.0035 38.1933C44.0035 35.2094 41.7409 32.7468 38.8422 32.4249ZM36.9068 41.041L35.1603 39.2946L36.0726 38.3823L36.9068 39.2165L40.3216 35.8017L41.2339 36.7139L36.9068 41.041Z" fill="url(#paint0_linear)"/>
<path d="M9.16129 15.5748V20.129C9.16129 21.1961 10.0297 22.0645 11.0968 22.0645H12.42C12.4077 21.8497 12.3871 21.6374 12.3871 21.4194C12.3871 21.2013 12.4077 20.989 12.42 20.7742H11.0968C10.7406 20.7742 10.4516 20.4845 10.4516 20.129V15.5748C13.3503 15.2523 15.6129 12.7897 15.6129 9.80645C15.6129 6.60516 13.0084 4 9.80645 4C6.60452 4 4 6.60516 4 9.80645C4 12.7897 6.26258 15.2529 9.16129 15.5748ZM7.68194 9.99548L8.51613 10.8297L11.931 7.41484L12.8432 8.3271L8.51613 12.6542L6.76968 10.9077L7.68194 9.99548Z" fill="url(#paint1_linear)"/>
<path d="M26.5799 37.5483H21.4186C21.0625 37.5483 20.7734 37.8374 20.7734 38.1935C20.7734 38.5496 21.0625 38.8387 21.4186 38.8387H26.5799C26.936 38.8387 27.225 38.5496 27.225 38.1935C27.225 37.8374 26.936 37.5483 26.5799 37.5483Z" fill="url(#paint2_linear)"/>
<path d="M27.8715 34.9678H20.1295C19.7734 34.9678 19.4844 35.2568 19.4844 35.6129C19.4844 35.9691 19.7734 36.2581 20.1295 36.2581H21.4199H26.5811H27.8715C28.2276 36.2581 28.5166 35.9691 28.5166 35.6129C28.5166 35.2568 28.2276 34.9678 27.8715 34.9678Z" fill="url(#paint3_linear)"/>
<path d="M22.0625 40.7741C22.0625 41.8412 22.9309 42.7096 23.998 42.7096C25.0651 42.7096 25.9335 41.8412 25.9335 40.7741V40.1289H22.0625V40.7741Z" fill="url(#paint4_linear)"/>
<path d="M28.8588 30.5268C32.2305 28.7248 34.3247 25.2351 34.3247 21.4197C34.3247 18.4855 33.0698 15.6803 30.8808 13.7229C28.6634 11.739 25.8008 10.8326 22.8098 11.1642C18.1356 11.6868 14.3285 15.4519 13.7588 20.1171C13.2343 24.4113 15.3485 28.4977 19.1453 30.5268L19.4859 30.7087V32.3874H18.8408C18.4847 32.3874 18.1956 32.6764 18.1956 33.0326C18.1956 33.3887 18.4847 33.6777 18.8408 33.6777H20.1311H27.873H29.1634C29.5195 33.6777 29.8085 33.3887 29.8085 33.0326C29.8085 32.6764 29.5195 32.3874 29.1634 32.3874H28.5182V30.7087L28.8588 30.5268ZM28.2414 29.0409L27.113 28.5016C27.0124 28.5461 26.9111 28.5887 26.8092 28.628L26.3943 29.8068H21.6098L21.1943 28.6287C21.093 28.5887 20.9918 28.5468 20.8905 28.5022L19.7621 29.0416L16.3801 25.6597L16.9195 24.5313C16.875 24.43 16.8324 24.3287 16.793 24.2274L15.615 23.8119V19.028L16.793 18.6119C16.833 18.5106 16.875 18.4093 16.9195 18.308L16.3801 17.1803L19.7621 13.7971L20.8905 14.3364C20.9905 14.2919 21.0924 14.25 21.1943 14.21L21.6098 13.0326H26.3943L26.8098 14.2106C26.9118 14.2506 27.013 14.2926 27.1137 14.3371L28.2421 13.7977L31.624 17.1809L31.0847 18.3087C31.1292 18.41 31.1718 18.5113 31.2111 18.6126L32.3892 19.0274V23.8113L31.2111 24.2274C31.1711 24.3287 31.1292 24.43 31.0847 24.5313L31.624 25.6597L28.2414 29.0409Z" fill="url(#paint5_linear)"/>
<path d="M31.0959 19.9403L30.1972 19.6236L30.0965 19.3281C30.0127 19.0829 29.9094 18.8345 29.7888 18.5887L29.6507 18.3081L30.063 17.4474L27.9714 15.3558L27.1101 15.7674L26.8288 15.6294C26.5869 15.51 26.3378 15.4068 26.0894 15.3216L25.794 15.2203L25.4778 14.3223H22.5204L22.2036 15.2203L21.9082 15.3216C21.6598 15.4068 21.4107 15.51 21.1688 15.6294L20.8875 15.7674L20.0262 15.3558L17.9346 17.4474L18.3469 18.3081L18.2088 18.5887C18.0881 18.8345 17.9849 19.0829 17.9011 19.3281L17.8004 19.6236L16.9023 19.9403V22.8984L17.8011 23.2152L17.9017 23.5107C17.9856 23.7558 18.0888 24.0042 18.2094 24.25L18.3475 24.5307L17.9352 25.3913L20.0269 27.4829L20.8881 27.0707L21.1694 27.2087C21.4133 27.3287 21.6617 27.4326 21.9082 27.5165L22.2043 27.6171L22.5204 28.5158H25.4778L25.7946 27.6171L26.0907 27.5165C26.3372 27.4326 26.5856 27.3287 26.8294 27.2087L27.1107 27.0707L27.972 27.4829L30.0636 25.3913L29.6514 24.5307L29.7894 24.25C29.9101 24.0042 30.0133 23.7558 30.0972 23.5107L30.1978 23.2152L31.0959 22.8977V19.9403ZM23.9991 25.9352C21.5049 25.9352 19.483 23.9132 19.483 21.419C19.483 18.9248 21.5049 16.9029 23.9991 16.9029C26.4933 16.9029 28.5152 18.9248 28.5152 21.419C28.5152 23.9132 26.4933 25.9352 23.9991 25.9352Z" fill="url(#paint6_linear)"/>
<path d="M23.998 23.3553C25.0669 23.3553 25.9335 22.4888 25.9335 21.4199C25.9335 20.3509 25.0669 19.4844 23.998 19.4844C22.929 19.4844 22.0625 20.3509 22.0625 21.4199C22.0625 22.4888 22.929 23.3553 23.998 23.3553Z" fill="url(#paint7_linear)"/>
<path d="M14.9677 34.9673V33.8293C14.9677 33.0338 14.3206 32.3867 13.5252 32.3867C12.9755 32.3867 12.4819 32.6925 12.2348 33.1841L11.3432 34.9673H9.80645V27.8705C9.80645 27.5144 10.0955 27.2254 10.4516 27.2254H13.9535C13.7123 26.8086 13.4871 26.3822 13.2981 25.9351H10.4516C9.38452 25.9351 8.51613 26.8034 8.51613 27.8705V34.9673H5.93548C4.86839 34.9673 4 35.8357 4 36.9028V42.0641C4 43.1312 4.86839 43.9996 5.93548 43.9996H14.9677C16.0348 43.9996 16.9032 43.1312 16.9032 42.0641V36.9028C16.9032 35.8357 16.0348 34.9673 14.9677 34.9673ZM11.7419 41.4189H6.58065V40.1286H11.7419V41.4189ZM14.3226 41.4189H13.0323V40.1286H14.3226V41.4189ZM14.3226 38.8383H6.58065V37.548H14.3226V38.8383Z" fill="url(#paint8_linear)"/>
<path d="M35.8826 13.0326H43.3575V12.3874V11.7423V4.64551H40.7768V5.93583H38.1962V7.22615H35.6155V11.7423H35.3484L33.0039 14.0868C33.2794 14.4242 33.5304 14.781 33.7665 15.1487L35.8826 13.0326Z" fill="url(#paint9_linear)"/>
<defs>
<linearGradient id="paint0_linear" x1="38.1971" y1="20.7739" x2="38.1971" y2="43.9997" gradientUnits="userSpaceOnUse">
<stop stop-color="#AF5EE5"/>
<stop offset="1" stop-color="#9208EC"/>
</linearGradient>
<linearGradient id="paint1_linear" x1="9.80645" y1="4" x2="9.80645" y2="22.0645" gradientUnits="userSpaceOnUse">
<stop stop-color="#AF5EE5"/>
<stop offset="1" stop-color="#9208EC"/>
</linearGradient>
<linearGradient id="paint2_linear" x1="23.9992" y1="37.5483" x2="23.9992" y2="38.8387" gradientUnits="userSpaceOnUse">
<stop stop-color="#AF5EE5"/>
<stop offset="1" stop-color="#9208EC"/>
</linearGradient>
<linearGradient id="paint3_linear" x1="24.0005" y1="34.9678" x2="24.0005" y2="36.2581" gradientUnits="userSpaceOnUse">
<stop stop-color="#AF5EE5"/>
<stop offset="1" stop-color="#9208EC"/>
</linearGradient>
<linearGradient id="paint4_linear" x1="23.998" y1="40.1289" x2="23.998" y2="42.7096" gradientUnits="userSpaceOnUse">
<stop stop-color="#AF5EE5"/>
<stop offset="1" stop-color="#9208EC"/>
</linearGradient>
<linearGradient id="paint5_linear" x1="24.0022" y1="11.0972" x2="24.0022" y2="33.6777" gradientUnits="userSpaceOnUse">
<stop stop-color="#AF5EE5"/>
<stop offset="1" stop-color="#9208EC"/>
</linearGradient>
<linearGradient id="paint6_linear" x1="23.9991" y1="14.3223" x2="23.9991" y2="28.5158" gradientUnits="userSpaceOnUse">
<stop stop-color="#AF5EE5"/>
<stop offset="1" stop-color="#9208EC"/>
</linearGradient>
<linearGradient id="paint7_linear" x1="23.998" y1="19.4844" x2="23.998" y2="23.3553" gradientUnits="userSpaceOnUse">
<stop stop-color="#AF5EE5"/>
<stop offset="1" stop-color="#9208EC"/>
</linearGradient>
<linearGradient id="paint8_linear" x1="10.4516" y1="25.9351" x2="10.4516" y2="43.9996" gradientUnits="userSpaceOnUse">
<stop stop-color="#AF5EE5"/>
<stop offset="1" stop-color="#9208EC"/>
</linearGradient>
<linearGradient id="paint9_linear" x1="38.1807" y1="4.64551" x2="38.1807" y2="15.1487" gradientUnits="userSpaceOnUse">
<stop stop-color="#AF5EE5"/>
<stop offset="1" stop-color="#9208EC"/>
</linearGradient>
</defs>
</svg>
