<svg width="34" height="34" viewBox="0 0 34 34" fill="none" xmlns="http://www.w3.org/2000/svg">
<g clip-path="url(#clip0)">
<path d="M33.4321 8.13438V6.59814C33.4321 6.39646 33.2686 6.23297 33.0669 6.23297H32.4716C32.3042 6.23131 32.1594 6.1159 32.1206 5.95307C31.9877 5.43776 31.7823 4.9439 31.5107 4.48623C31.423 4.34352 31.4438 4.15931 31.5613 4.03984L31.9835 3.61764C32.1261 3.47499 32.1261 3.24377 31.9835 3.10119L30.8972 2.01492C30.8288 1.94646 30.7359 1.90794 30.639 1.90794C30.5421 1.90794 30.4492 1.94639 30.3807 2.01492L29.9585 2.43713C29.8391 2.55467 29.6548 2.57559 29.5121 2.48773C29.0545 2.21613 28.5606 2.01081 28.0453 1.87793C27.8824 1.83908 27.767 1.69431 27.7654 1.5269V0.931574C27.7654 0.729898 27.6019 0.566406 27.4002 0.566406H25.864C25.6623 0.566406 25.4988 0.729898 25.4988 0.931574V1.5269C25.4971 1.69431 25.3817 1.83908 25.2189 1.87793C24.7036 2.01081 24.2097 2.21613 23.7521 2.48773C23.6093 2.57559 23.4251 2.55467 23.3057 2.43713L22.8835 2.01492C22.815 1.94646 22.7221 1.90794 22.6252 1.90794C22.5283 1.90794 22.4355 1.94639 22.367 2.01492L21.2807 3.10119C21.138 3.24383 21.138 3.47506 21.2807 3.61764L21.7028 4.03984C21.8204 4.15924 21.8413 4.34345 21.7534 4.48623C21.4818 4.9439 21.2766 5.43776 21.1436 5.95307C21.1048 6.1159 20.96 6.23138 20.7926 6.23304H20.1973C20.1004 6.23304 20.0075 6.27149 19.939 6.34002C19.8705 6.40848 19.832 6.50139 19.832 6.59827V8.13451C19.832 8.33619 19.9955 8.49968 20.1972 8.49968H20.7925C20.9599 8.50134 21.1047 8.61675 21.1436 8.77958C21.2764 9.29489 21.4818 9.78876 21.7534 10.2464C21.8411 10.3891 21.8203 10.5733 21.7028 10.6928L21.2806 11.115C21.138 11.2577 21.138 11.4889 21.2806 11.6315L22.3669 12.7177C22.4354 12.7862 22.5283 12.8247 22.6251 12.8247C22.722 12.8247 22.8149 12.7863 22.8834 12.7177L23.3056 12.2955C23.425 12.178 23.6093 12.1571 23.752 12.2449C24.2097 12.5165 24.7035 12.7218 25.2188 12.8548C25.3817 12.8936 25.4971 13.0384 25.4987 13.2058V13.8011C25.4987 13.898 25.5372 13.9908 25.6057 14.0593C25.6742 14.1278 25.7671 14.1663 25.864 14.1663H27.4002C27.6019 14.1663 27.7654 14.0028 27.7654 13.8011V13.2058C27.767 13.0384 27.8824 12.8936 28.0453 12.8548C28.5606 12.7219 29.0545 12.5166 29.5121 12.245C29.6548 12.1571 29.839 12.178 29.9585 12.2956L30.3807 12.7178C30.4492 12.7863 30.5421 12.8248 30.639 12.8248C30.7359 12.8248 30.8287 12.7863 30.8972 12.7178L31.9835 11.6315C32.1261 11.4889 32.1261 11.2577 31.9835 11.1151L31.5613 10.6929C31.4438 10.5735 31.4229 10.3892 31.5107 10.2465C31.7823 9.78882 31.9876 9.29496 32.1205 8.77965C32.1593 8.61682 32.3042 8.50134 32.4716 8.49975H33.0669C33.2686 8.49961 33.4321 8.33606 33.4321 8.13438Z" fill="#E3E7F2"/>
<path d="M19.8326 24.3661C19.8342 25.5406 19.3767 26.6693 18.5576 27.5111C17.9129 28.1915 17.5574 29.0955 17.5659 30.0327C17.5641 30.6579 17.0577 31.1642 16.4326 31.1661H15.8205C15.2148 31.1364 14.7375 30.6392 14.7326 30.0327C14.7339 29.0886 14.3729 28.1799 13.7239 27.4941C12.5748 26.2951 12.1742 24.5632 12.6802 22.9813C13.1863 21.3995 14.5176 20.2216 16.1493 19.9121C18.2871 20.32 19.8334 22.1897 19.8326 24.3661Z" fill="#E0EAFE"/>
<path d="M26.6344 10.7668C28.5121 10.7668 30.0344 9.24456 30.0344 7.36679C30.0344 5.48903 28.5121 3.9668 26.6344 3.9668C24.7566 3.9668 23.2344 5.48903 23.2344 7.36679C23.2344 9.24456 24.7566 10.7668 26.6344 10.7668Z" fill="#E0EAFE"/>
<path d="M6.5164 14.1097C9.80248 14.1097 12.4664 11.0906 12.4664 7.36639C12.4664 3.64214 9.80248 0.623047 6.5164 0.623047C3.23031 0.623047 0.566406 3.64214 0.566406 7.36639C0.566406 11.0906 3.23031 14.1097 6.5164 14.1097Z" fill="#E0EAFE"/>
<path d="M7.36538 11.9002C9.86908 11.9002 11.8987 9.87054 11.8987 7.36684C11.8987 4.86314 9.86908 2.8335 7.36538 2.8335C4.86168 2.8335 2.83203 4.86314 2.83203 7.36684C2.83203 9.87054 4.86168 11.9002 7.36538 11.9002Z" fill="#E0EAFE"/>
<path d="M14.7326 30.0333C14.7375 30.6397 15.2148 31.1369 15.8205 31.1666H17.5205C16.9148 31.1369 16.4375 30.6397 16.4326 30.0333C16.4339 29.0891 16.0729 28.1804 15.4239 27.4946C14.2764 26.2975 13.8751 24.5686 14.3782 22.9884C14.8813 21.4082 16.2082 20.2295 17.8367 19.9161C17.3908 19.8312 16.9349 19.8128 16.4836 19.8616C16.3713 19.8726 16.2597 19.8896 16.1493 19.9126C14.5176 20.2221 13.1863 21.3999 12.6802 22.9818C12.1742 24.5637 12.5748 26.2955 13.7239 27.4946C14.3729 28.1804 14.734 29.0891 14.7326 30.0333Z" fill="#E0EAFE"/>
<path d="M21.1436 5.95286C21.1047 6.11569 20.9599 6.23117 20.7926 6.23276H20.1973C20.1004 6.23276 20.0075 6.27121 19.939 6.33974C19.8705 6.40821 19.832 6.50111 19.832 6.598V8.13424C19.832 8.33591 19.9956 8.49947 20.1973 8.4994H20.7926C20.96 8.50106 21.1048 8.61648 21.1436 8.7793C21.2765 9.29462 21.4818 9.78848 21.7534 10.2462C21.8412 10.3889 21.8203 10.5731 21.7027 10.6925L21.2805 11.1147C21.138 11.2574 21.138 11.4885 21.2805 11.6312L22.3668 12.7175C22.4353 12.7859 22.5282 12.8244 22.6251 12.8244C22.722 12.8244 22.8148 12.786 22.8833 12.7175L23.3054 12.2952C23.3692 12.2325 23.4544 12.1964 23.5438 12.1944L22.9805 11.6311C22.838 11.4885 22.838 11.2573 22.9805 11.1147L23.4027 10.6925C23.5202 10.5731 23.5411 10.3888 23.4534 10.2461C23.1818 9.78841 22.9764 9.29455 22.8436 8.77924C22.8047 8.61641 22.6599 8.501 22.4925 8.49934H21.8972C21.6955 8.49934 21.532 8.33584 21.532 8.13417V6.598C21.532 6.50111 21.5704 6.40821 21.6389 6.33974C21.7074 6.27128 21.8003 6.23276 21.8972 6.23276H22.4925C22.6599 6.2311 22.8047 6.11569 22.8435 5.95286C22.9764 5.43755 23.1818 4.94369 23.4533 4.48595C23.5411 4.34324 23.5202 4.15903 23.4026 4.03963L22.9805 3.61742C22.8379 3.47478 22.8379 3.24362 22.9805 3.10098L23.5437 2.53773C23.4544 2.53567 23.3692 2.49954 23.3054 2.43686L22.8832 2.01465C22.7406 1.87207 22.5094 1.87207 22.3668 2.01465L21.2805 3.10098C21.1379 3.24362 21.1379 3.47478 21.2805 3.61742L21.7026 4.03963C21.8202 4.15903 21.8411 4.34324 21.7533 4.48595C21.4818 4.94369 21.2765 5.43755 21.1436 5.95286Z" fill="#E0EAFE"/>
<path d="M2.26647 7.36645C2.26521 3.94215 4.81281 1.05229 8.21022 0.624172C7.93045 0.587583 7.64862 0.568258 7.36646 0.566465C7.08218 0.565204 6.79809 0.584129 6.51646 0.62311C3.11687 1.0497 0.566406 3.94023 0.566406 7.36645C0.566406 10.7927 3.11687 13.6832 6.51646 14.1098C6.79809 14.1488 7.08218 14.1677 7.36646 14.1664C7.64869 14.1646 7.93051 14.1453 8.21035 14.1087C4.81295 13.6806 2.26527 10.7907 2.26647 7.36645Z" fill="#E0EAFE"/>
<path d="M6.80078 23.2336V15.867V14.167H7.93407V15.867V23.2336H6.80078Z" fill="#E0EAFE"/>
<path d="M14.7346 32.8667C14.4216 32.8667 14.168 33.1204 14.168 33.4333C14.168 33.7463 14.4217 34 14.7346 34H19.268C19.5809 34 19.8346 33.7463 19.8346 33.4333C19.8346 33.1204 19.5809 32.8667 19.268 32.8667H14.7346Z" fill="#344CED"/>
<path d="M11.9637 23.5529C11.7086 25.1309 12.2101 26.737 13.3178 27.8894C13.868 28.467 14.1725 29.2356 14.1672 30.0332C14.1682 30.9717 14.9288 31.7322 15.8672 31.7332H18.1339C19.0723 31.7322 19.8329 30.9717 19.8339 30.0332C19.8233 29.2437 20.1215 28.4813 20.6651 27.9085C21.6298 26.9127 22.147 25.5667 22.0972 24.1811C22.0476 22.7956 21.4352 21.4901 20.4016 20.5659C19.0122 19.3223 17.055 18.9359 15.2973 19.5581C13.5395 20.1804 12.2612 21.7121 11.9637 23.5529ZM17.0056 20.3997C17.9805 20.3966 18.9216 20.757 19.6452 21.4104C20.4492 22.1287 20.9257 23.1437 20.9646 24.2212C21.0036 25.2986 20.6016 26.3454 19.8516 27.1199C19.1023 27.9035 18.6891 28.9491 18.7006 30.0332C18.7002 30.3461 18.4468 30.5996 18.1339 30.5999H15.8673C15.5543 30.5994 15.3008 30.3456 15.3006 30.0326C15.3065 28.9427 14.8889 27.8932 14.1357 27.1053C13.0929 26.0184 12.7565 24.4342 13.2677 23.0174C13.7789 21.6005 15.0492 20.596 16.5458 20.4253C16.6984 20.4083 16.8519 20.3998 17.0056 20.3997Z" fill="#344CED"/>
<path d="M26.6346 3.3999C24.4439 3.3999 22.668 5.17587 22.668 7.36654C22.668 9.55721 24.4439 11.3332 26.6346 11.3332C28.8253 11.3332 30.6012 9.55721 30.6012 7.36654C30.5987 5.17686 28.8243 3.40243 26.6346 3.3999ZM26.6346 10.1999C25.0698 10.1999 23.8013 8.93133 23.8013 7.36654C23.8013 5.80175 25.0698 4.53319 26.6346 4.53319C28.1994 4.53319 29.468 5.80175 29.468 7.36654C29.4661 8.9306 28.1987 10.198 26.6346 10.1999Z" fill="#344CED"/>
<path d="M33.068 5.66668H32.6314C32.4986 5.20065 32.3119 4.75174 32.0753 4.32887L32.3852 4.01868C32.7488 3.65464 32.7488 3.06489 32.3852 2.70079L31.2994 1.61478C30.9308 1.26217 30.35 1.26203 29.9813 1.61452L29.6708 1.9247C29.2483 1.6877 28.7993 1.50116 28.3333 1.36881V0.931928C28.3328 0.417479 27.9159 0.000515338 27.4014 5.04947e-05H25.8652C25.3508 0.000581744 24.9338 0.417479 24.9334 0.931928V1.36881C24.4673 1.50123 24.0184 1.68783 23.5958 1.9247L23.2848 1.61398C22.9161 1.2625 22.3362 1.2627 21.9678 1.61458L20.8815 2.70085C20.5179 3.06489 20.5179 3.65465 20.8815 4.01875L21.1914 4.32893C20.9548 4.75174 20.7681 5.20071 20.6353 5.66668H20.1987C19.6842 5.66722 19.2673 6.08411 19.2668 6.59856V6.79997H14.7048C14.4048 2.89097 11.0945 -0.0976329 7.17523 0.00244112C3.25594 0.102515 0.102446 3.25601 0.00243798 7.17523C-0.0975697 11.0945 2.89097 14.4048 6.80003 14.7046V16.4333C6.80003 16.7463 7.05377 17 7.36668 17C7.67965 17 7.93332 16.7463 7.93332 16.4333V14.7046C11.5493 14.4216 14.4216 11.5493 14.7046 7.93332H19.2667V8.13473C19.2672 8.64918 19.6841 9.06615 20.1985 9.06661H20.6352C20.768 9.53265 20.9546 9.98155 21.1913 10.4044L20.8814 10.7146C20.5178 11.0787 20.5178 11.6684 20.8814 12.0325L21.9671 13.1185C22.3357 13.4711 22.9165 13.4712 23.2853 13.1188L23.5957 12.8086C24.0183 13.0456 24.4673 13.2321 24.9333 13.3645V13.8014C24.9338 14.3158 25.3507 14.7328 25.8652 14.7332H26.0666V23.2332C26.0662 23.5461 25.8128 23.7996 25.4999 23.7999H23.7999C23.487 23.7999 23.2333 24.0535 23.2333 24.3665C23.2333 24.6795 23.487 24.9332 23.7999 24.9332H25.4999C26.4384 24.9322 27.1989 24.1716 27.1999 23.2332V14.7332H27.4013C27.9158 14.7326 28.3328 14.3157 28.3332 13.8013V13.3644C28.7993 13.2321 29.2482 13.0455 29.6708 12.8085L29.9817 13.1192C30.3505 13.4707 30.9304 13.4705 31.2988 13.1186L32.3851 12.0324C32.7486 11.6683 32.7486 11.0786 32.3851 10.7145L32.0751 10.4043C32.3118 9.98149 32.4985 9.53252 32.6313 9.06648H33.0679C33.5824 9.06595 33.9993 8.64905 33.9998 8.1346V6.59856C33.9995 6.08411 33.5826 5.66722 33.068 5.66668ZM7.36668 13.6C3.92412 13.6 1.13333 10.8092 1.13333 7.36668C1.13333 3.92412 3.92412 1.13334 7.36668 1.13334C10.8092 1.13334 13.6 3.92412 13.6 7.36668C13.5961 10.8076 10.8076 13.5961 7.36668 13.6ZM32.8666 7.93332H32.4726C32.047 7.93585 31.677 8.22591 31.5728 8.63862C31.4533 9.1022 31.2687 9.54646 31.0245 9.95818C30.8054 10.3236 30.8619 10.791 31.1617 11.0937L31.4418 11.3734L30.6399 12.175L30.361 11.8958C30.0585 11.5953 29.5905 11.5384 29.2249 11.7578C28.8135 12.002 28.3695 12.1866 27.9062 12.3062C27.4928 12.4096 27.2022 12.7801 27.2001 13.2062V13.6H26.0667V13.2062C26.0647 12.7803 25.7743 12.41 25.3611 12.3064C24.8979 12.1868 24.4539 12.0022 24.0425 11.7581C23.677 11.5381 23.2089 11.5946 22.9064 11.8953L22.6269 12.175L21.8251 11.3734L22.1051 11.0937C22.4049 10.791 22.4614 10.3236 22.2424 9.95818C21.9981 9.5464 21.8135 9.10201 21.694 8.63836C21.5897 8.22578 21.2197 7.93585 20.7942 7.93332H20.4002V6.79997H20.7942C21.2198 6.79745 21.5899 6.50739 21.694 6.09467C21.8135 5.63109 21.9981 5.18683 22.2424 4.77512C22.4615 4.40968 22.405 3.94225 22.1052 3.63957L21.8251 3.35987L22.627 2.55828L22.9059 2.83745C23.2083 3.13814 23.6764 3.19505 24.042 2.97551C24.4534 2.73133 24.8974 2.54673 25.3607 2.42713C25.7741 2.32367 26.0647 1.95319 26.0668 1.52706V1.13334H27.2001V1.52706C27.2021 1.95299 27.4926 2.32334 27.9057 2.42686C28.3693 2.54666 28.8137 2.73147 29.2255 2.97584C29.5909 3.19452 30.0581 3.13781 30.3605 2.83805L30.64 2.55835L31.4418 3.35993L31.1618 3.63964C30.862 3.94232 30.8055 4.40975 31.0246 4.77518C31.2689 5.18697 31.4535 5.63136 31.573 6.095C31.6772 6.50759 32.0472 6.79751 32.4728 6.80004H32.8668V7.93332H32.8666Z" fill="#344CED"/>
<path d="M7.36952 2.2666C4.55291 2.2666 2.26953 4.54998 2.26953 7.36659C2.26953 10.1832 4.55291 12.4666 7.36952 12.4666C10.1861 12.4666 12.4695 10.1832 12.4695 7.36659C12.4663 4.55124 10.1849 2.26979 7.36952 2.2666ZM7.36952 11.3332C5.17878 11.3332 3.40288 9.55726 3.40288 7.36659C3.40288 5.17592 5.17885 3.39996 7.36952 3.39996C9.56019 3.39996 11.3362 5.17592 11.3362 7.36659C11.3336 9.55627 9.5592 11.3307 7.36952 11.3332Z" fill="#344CED"/>
<path d="M7.93407 7.13236V5.10034C7.93407 4.78736 7.68033 4.53369 7.36743 4.53369C7.05445 4.53369 6.80078 4.78736 6.80078 5.10034V7.36698C6.80085 7.51725 6.86055 7.66135 6.9668 7.7676L8.10015 8.90096C8.32201 9.11884 8.67795 9.11718 8.89782 8.89737C9.11769 8.6775 9.11929 8.32156 8.90141 8.0997L7.93407 7.13236Z" fill="#344CED"/>
<path d="M17.5669 17.5664V15.8664C17.5669 15.5535 17.3131 15.2998 17.0002 15.2998C16.6873 15.2998 16.4336 15.5535 16.4336 15.8664V17.5664C16.4336 17.8794 16.6873 18.1331 17.0002 18.1331C17.3132 18.1331 17.5669 17.8794 17.5669 17.5664Z" fill="#344CED"/>
<path d="M11.3898 17.9557C11.2467 17.8121 11.0379 17.756 10.8421 17.8083C10.6464 17.8606 10.4934 18.0136 10.4411 18.2093C10.3888 18.4051 10.445 18.6139 10.5885 18.757L11.7905 19.9589C11.9337 20.102 12.1422 20.1579 12.3378 20.1055C12.5333 20.0532 12.686 19.9004 12.7384 19.7049C12.7908 19.5094 12.7349 19.3008 12.5918 19.1576L11.3898 17.9557Z" fill="#344CED"/>
<path d="M23.4114 17.9561C23.3051 17.8497 23.161 17.79 23.0107 17.79C22.8604 17.79 22.7163 17.8497 22.6101 17.9561L21.4081 19.158C21.265 19.3012 21.2091 19.5098 21.2615 19.7053C21.3139 19.9008 21.4666 20.0536 21.6621 20.106C21.8576 20.1583 22.0663 20.1024 22.2095 19.9593L23.4114 18.7574C23.5177 18.6511 23.5774 18.507 23.5774 18.3567C23.5774 18.2065 23.5177 18.0623 23.4114 17.9561Z" fill="#344CED"/>
<path d="M11.7905 28.7744L10.5885 29.9763C10.445 30.1194 10.3888 30.3282 10.4411 30.524C10.4934 30.7197 10.6464 30.8727 10.8421 30.925C11.0379 30.9773 11.2467 30.9211 11.3898 30.7776L12.5917 29.5756C12.7349 29.4325 12.7908 29.2239 12.7384 29.0283C12.686 28.8328 12.5332 28.6801 12.3377 28.6277C12.1422 28.5754 11.9337 28.6313 11.7905 28.7744Z" fill="#344CED"/>
<path d="M21.4082 28.7744C21.3019 28.8807 21.2422 29.0248 21.2422 29.175C21.2422 29.3253 21.3019 29.4694 21.4082 29.5757L22.6102 30.7776C22.8316 30.9982 23.1897 30.998 23.4107 30.777C23.6317 30.556 23.6321 30.1978 23.4114 29.9764L22.2095 28.7744C22.1032 28.6681 21.9591 28.6084 21.8088 28.6084C21.6586 28.6084 21.5145 28.6681 21.4082 28.7744Z" fill="#344CED"/>
<path d="M6.80078 23.2331C6.80178 24.1716 7.56233 24.9321 8.50078 24.9331H10.2008C10.5137 24.9331 10.7674 24.6794 10.7674 24.3665C10.7674 24.0535 10.5137 23.7998 10.2008 23.7998H8.50078C8.18794 23.7995 7.9344 23.546 7.93413 23.2332V20.9665C7.93413 20.6536 7.6804 20.3999 7.36749 20.3999C7.05452 20.3999 6.80085 20.6536 6.80085 20.9665V23.2331H6.80078Z" fill="#344CED"/>
<path d="M7.15229 19.2211C7.18443 19.2375 7.21882 19.2488 7.25435 19.2549C7.29174 19.2613 7.32959 19.265 7.36751 19.2662C7.51752 19.2642 7.66122 19.2055 7.76986 19.1019C7.90732 18.9695 7.96769 18.776 7.92984 18.5888C7.89198 18.4017 7.76123 18.2469 7.58306 18.1782C7.51486 18.1491 7.44162 18.1337 7.36751 18.1328C7.13841 18.1337 6.93215 18.272 6.84429 18.4836C6.75644 18.6952 6.80405 18.9388 6.96515 19.1018L7.05009 19.1699C7.08183 19.1915 7.11616 19.2087 7.15229 19.2211Z" fill="#344CED"/>
<path d="M26.633 7.93309C26.946 7.93309 27.1997 7.6794 27.1997 7.36645C27.1997 7.0535 26.946 6.7998 26.633 6.7998C26.3201 6.7998 26.0664 7.0535 26.0664 7.36645C26.0664 7.6794 26.3201 7.93309 26.633 7.93309Z" fill="#344CED"/>
</g>
<defs>
<clipPath id="clip0">
<rect width="34" height="34" fill="white"/>
</clipPath>
</defs>
</svg>
