<svg width="34" height="34" viewBox="0 0 34 34" fill="none" xmlns="http://www.w3.org/2000/svg">
<path d="M28.0075 31.5558H5.9955C4.0349 31.5558 2.44531 29.9662 2.44531 28.0056V5.99355C2.44531 4.03294 4.0349 2.44336 5.9955 2.44336H28.0075C29.9684 2.44336 31.5577 4.03294 31.5577 5.99355V28.0056C31.5577 29.9662 29.9681 31.5558 28.0075 31.5558Z" fill="#E0EAFE"/>
<path d="M5.99191 29.1892C5.33937 29.1892 4.80859 28.6584 4.80859 28.0059V5.99387C4.80859 5.34132 5.3396 4.81055 5.99191 4.81055H28.0039C28.6565 4.81055 29.1873 5.34132 29.1873 5.99387V28.0059C29.1873 28.6584 28.6565 29.1892 28.0039 29.1892H5.99191Z" fill="#E0EAFE"/>
<path d="M19.3706 7.41504V9.78191H22.4307L19.0664 13.1462L20.74 14.8198L24.1043 11.4555V14.5156H26.4712V7.41504H19.3706Z" fill="#E0EAFE"/>
<path d="M7.41406 19.3672H9.78093V22.4273L13.1453 19.063L14.8188 20.7366L11.4545 24.1009H14.5147V26.4678H7.41406V19.3672Z" fill="#E0EAFE"/>
<path d="M31.5562 16.2937C31.8013 16.2937 32 16.095 32 15.8499V5.99399C32 3.79169 30.2083 2 28.006 2H5.99399C3.79169 2 2 3.79169 2 5.99399V28.006C2 30.2083 3.79169 32 5.99399 32H28.006C30.2083 32 32 30.2083 32 28.006V17.9171C32 17.672 31.8013 17.4733 31.5562 17.4733C31.3111 17.4733 31.1124 17.672 31.1124 17.9171V28.006C31.1124 29.7187 29.7187 31.1124 28.006 31.1124H5.99399C4.28127 31.1124 2.8876 29.7187 2.8876 28.006V5.99399C2.8876 4.28127 4.28127 2.8876 5.99399 2.8876H28.006C29.719 2.8876 31.1124 4.28127 31.1124 5.99399V15.8499C31.1124 16.095 31.3111 16.2937 31.5562 16.2937Z" fill="#344CED"/>
<path d="M4.81099 12.7795C4.56586 12.7795 4.36719 12.9782 4.36719 13.2233V28.0063C4.36719 28.9035 5.09709 29.6335 5.99431 29.6335H28.0063C28.9035 29.6335 29.6335 28.9035 29.6335 28.0063V5.99431C29.6335 5.09709 28.9033 4.36719 28.0063 4.36719H5.99431C5.09709 4.36719 4.36719 5.09732 4.36719 5.99431V11.0931C4.36719 11.3382 4.56586 11.5369 4.81099 11.5369C5.05612 11.5369 5.25479 11.3382 5.25479 11.0931V5.99431C5.25479 5.58644 5.58667 5.25479 5.99431 5.25479H28.0063C28.4142 5.25479 28.7458 5.58667 28.7458 5.99431V28.0063C28.7458 28.4142 28.4142 28.7458 28.0063 28.7458H5.99431C5.58644 28.7458 5.25479 28.4142 5.25479 28.0063V13.2231C5.25479 12.9782 5.05612 12.7795 4.81099 12.7795Z" fill="#344CED"/>
<path d="M18.6211 13.1452C18.6211 13.2629 18.6678 13.3757 18.7509 13.459L20.4247 15.1328C20.5078 15.2159 20.6208 15.2626 20.7385 15.2626C20.8561 15.2626 20.969 15.2159 21.0523 15.1328L23.659 12.5259V14.5146C23.659 14.7597 23.8577 14.9584 24.1028 14.9584H26.4697C26.7148 14.9584 26.9135 14.7597 26.9135 14.5146V7.41402C26.9135 7.16888 26.7148 6.97021 26.4697 6.97021H19.3691C19.1239 6.97021 18.9253 7.16888 18.9253 7.41402V9.78088C18.9253 10.026 19.1239 10.2247 19.3691 10.2247H21.3578L18.7509 12.8314C18.6678 12.9147 18.6211 13.0276 18.6211 13.1452ZM22.743 10.0947C22.8698 9.96765 22.9078 9.77699 22.8392 9.61105C22.7705 9.44534 22.6087 9.33708 22.4292 9.33708H19.8129V7.85782H26.0259V14.0708H24.5466V11.4545C24.5466 11.275 24.4384 11.1132 24.2724 11.0445C24.1067 10.9756 23.9158 11.0139 23.7888 11.1407L20.7385 14.1912L19.6923 13.1452L22.743 10.0947Z" fill="#344CED"/>
<path d="M9.77942 18.9238H7.41255C7.16742 18.9238 6.96875 19.1225 6.96875 19.3676V26.4682C6.96875 26.7134 7.16742 26.912 7.41255 26.912H14.5132C14.7583 26.912 14.957 26.7134 14.957 26.4682V24.1014C14.957 23.8562 14.7583 23.6575 14.5132 23.6575H12.5244L15.1311 21.0508C15.3046 20.8775 15.3046 20.5965 15.1311 20.4232L13.4576 18.7496C13.3745 18.6663 13.2614 18.6196 13.1438 18.6196C13.0261 18.6196 12.9133 18.6663 12.83 18.7496L10.2232 21.3564V19.3676C10.2232 19.1225 10.0246 18.9238 9.77942 18.9238ZM13.1438 19.6908L14.1897 20.737L11.1392 23.7876C11.0124 23.9144 10.9744 24.1052 11.0431 24.2712C11.1117 24.4369 11.2736 24.5452 11.453 24.5452H14.0694V26.0244H7.85635V19.8114H9.33562V22.4278C9.33562 22.6072 9.44365 22.769 9.60959 22.8377C9.77553 22.9066 9.96642 22.8686 10.0932 22.7416L13.1438 19.6908Z" fill="#344CED"/>
</svg>
