<svg width="48" height="48" viewBox="0 0 48 48" fill="none" xmlns="http://www.w3.org/2000/svg">
<path d="M38.2857 24.7143V22.5714H29C28.4319 22.5721 27.8872 22.7981 27.4855 23.1998C27.0838 23.6015 26.8578 24.1462 26.8571 24.7143V41.8571C26.8578 42.4253 27.0838 42.9699 27.4855 43.3716C27.8872 43.7734 28.4319 43.9993 29 44H41.8571C42.4253 43.9993 42.9699 43.7734 43.3716 43.3716C43.7734 42.9699 43.9993 42.4253 44 41.8571V28.2857H41.8571C40.9103 28.2847 40.0025 27.908 39.3329 27.2385C38.6634 26.569 38.2868 25.6612 38.2857 24.7143ZM30.4286 26.8571H33.2857C33.4752 26.8571 33.6568 26.9324 33.7908 27.0664C33.9247 27.2003 34 27.382 34 27.5714C34 27.7609 33.9247 27.9426 33.7908 28.0765C33.6568 28.2105 33.4752 28.2857 33.2857 28.2857H30.4286C30.2391 28.2857 30.0574 28.2105 29.9235 28.0765C29.7895 27.9426 29.7143 27.7609 29.7143 27.5714C29.7143 27.382 29.7895 27.2003 29.9235 27.0664C30.0574 26.9324 30.2391 26.8571 30.4286 26.8571ZM30.4286 31.1429H31.8571C32.0466 31.1429 32.2283 31.2181 32.3622 31.3521C32.4962 31.486 32.5714 31.6677 32.5714 31.8571C32.5714 32.0466 32.4962 32.2283 32.3622 32.3622C32.2283 32.4962 32.0466 32.5714 31.8571 32.5714H30.4286C30.2391 32.5714 30.0574 32.4962 29.9235 32.3622C29.7895 32.2283 29.7143 32.0466 29.7143 31.8571C29.7143 31.6677 29.7895 31.486 29.9235 31.3521C30.0574 31.2181 30.2391 31.1429 30.4286 31.1429ZM30.4286 35.4286H36.1429C36.3323 35.4286 36.514 35.5038 36.6479 35.6378C36.7819 35.7717 36.8571 35.9534 36.8571 36.1429C36.8571 36.3323 36.7819 36.514 36.6479 36.6479C36.514 36.7819 36.3323 36.8571 36.1429 36.8571H30.4286C30.2391 36.8571 30.0574 36.7819 29.9235 36.6479C29.7895 36.514 29.7143 36.3323 29.7143 36.1429C29.7143 35.9534 29.7895 35.7717 29.9235 35.6378C30.0574 35.5038 30.2391 35.4286 30.4286 35.4286ZM33.2857 41.1429H30.4286C30.2391 41.1429 30.0574 41.0676 29.9235 40.9337C29.7895 40.7997 29.7143 40.618 29.7143 40.4286C29.7143 40.2391 29.7895 40.0574 29.9235 39.9235C30.0574 39.7895 30.2391 39.7143 30.4286 39.7143H33.2857C33.4752 39.7143 33.6568 39.7895 33.7908 39.9235C33.9247 40.0574 34 40.2391 34 40.4286C34 40.618 33.9247 40.7997 33.7908 40.9337C33.6568 41.0676 33.4752 41.1429 33.2857 41.1429ZM40.4286 41.1429H36.1429C35.9534 41.1429 35.7717 41.0676 35.6378 40.9337C35.5038 40.7997 35.4286 40.618 35.4286 40.4286C35.4286 40.2391 35.5038 40.0574 35.6378 39.9235C35.7717 39.7895 35.9534 39.7143 36.1429 39.7143H40.4286C40.618 39.7143 40.7997 39.7895 40.9337 39.9235C41.0676 40.0574 41.1429 40.2391 41.1429 40.4286C41.1429 40.618 41.0676 40.7997 40.9337 40.9337C40.7997 41.0676 40.618 41.1429 40.4286 41.1429ZM40.4286 36.8571H39C38.8106 36.8571 38.6289 36.7819 38.4949 36.6479C38.361 36.514 38.2857 36.3323 38.2857 36.1429C38.2857 35.9534 38.361 35.7717 38.4949 35.6378C38.6289 35.5038 38.8106 35.4286 39 35.4286H40.4286C40.618 35.4286 40.7997 35.5038 40.9337 35.6378C41.0676 35.7717 41.1429 35.9534 41.1429 36.1429C41.1429 36.3323 41.0676 36.514 40.9337 36.6479C40.7997 36.7819 40.618 36.8571 40.4286 36.8571ZM40.4286 32.5714H34.7143C34.5248 32.5714 34.3432 32.4962 34.2092 32.3622C34.0753 32.2283 34 32.0466 34 31.8571C34 31.6677 34.0753 31.486 34.2092 31.3521C34.3432 31.2181 34.5248 31.1429 34.7143 31.1429H40.4286C40.618 31.1429 40.7997 31.2181 40.9337 31.3521C41.0676 31.486 41.1429 31.6677 41.1429 31.8571C41.1429 32.0466 41.0676 32.2283 40.9337 32.3622C40.7997 32.4962 40.618 32.5714 40.4286 32.5714ZM39.7143 24.7143V23.5815L42.9899 26.8571H41.8571C41.289 26.8565 40.7444 26.6305 40.3426 26.2288C39.9409 25.8271 39.7149 25.2824 39.7143 24.7143ZM19 8.28571H12.5714V6.85714H19C19.5681 6.8578 20.1128 7.08378 20.5145 7.4855C20.9162 7.88722 21.1422 8.43188 21.1429 9V9.00196C20.5256 8.53638 19.7732 8.28491 19 8.28571ZM4 21.8571V6.14286C4.00064 5.57473 4.22661 5.03006 4.62833 4.62833C5.03006 4.22661 5.57473 4.00064 6.14286 4H9C9.56813 4.00064 10.1128 4.22661 10.5145 4.62833C10.9162 5.03006 11.1422 5.57473 11.1429 6.14286V9C11.1429 9.18944 11.2181 9.37112 11.3521 9.50508C11.486 9.63903 11.6677 9.71429 11.8571 9.71429H19C19.5681 9.71492 20.1128 9.94089 20.5145 10.3426C20.9163 10.7443 21.1422 11.289 21.1429 11.8571V21.8571C21.1422 22.4253 20.9163 22.9699 20.5145 23.3717C20.1128 23.7734 19.5681 23.9994 19 24H6.14286C5.57473 23.9994 5.03006 23.7734 4.62833 23.3717C4.22661 22.9699 4.00064 22.4253 4 21.8571ZM8.28571 29C8.28571 29.1413 8.24382 29.2794 8.16534 29.3968C8.08685 29.5143 7.97529 29.6059 7.84477 29.6599C7.71426 29.714 7.57064 29.7281 7.43208 29.7006C7.29352 29.673 7.16625 29.605 7.06635 29.5051C6.96646 29.4052 6.89843 29.2779 6.87087 29.1394C6.84331 29.0008 6.85745 28.8572 6.91151 28.7267C6.96558 28.5961 7.05713 28.4846 7.17459 28.4061C7.29206 28.3276 7.43016 28.2857 7.57143 28.2857C7.76087 28.2857 7.94255 28.361 8.0765 28.4949C8.21046 28.6289 8.28571 28.8106 8.28571 29ZM8.28571 31.8571C8.28571 31.9984 8.24382 32.1365 8.16534 32.254C8.08685 32.3714 7.97529 32.463 7.84477 32.5171C7.71426 32.5711 7.57064 32.5853 7.43208 32.5577C7.29352 32.5301 7.16625 32.4621 7.06635 32.3622C6.96646 32.2623 6.89843 32.1351 6.87087 31.9965C6.84331 31.8579 6.85745 31.7143 6.91151 31.5838C6.96558 31.4533 7.05713 31.3417 7.17459 31.2632C7.29206 31.1847 7.43016 31.1429 7.57143 31.1429C7.76087 31.1429 7.94255 31.2181 8.0765 31.3521C8.21046 31.486 8.28571 31.6677 8.28571 31.8571ZM8.28571 34.7143C8.28571 34.8556 8.24382 34.9937 8.16534 35.1111C8.08685 35.2286 7.97529 35.3201 7.84477 35.3742C7.71426 35.4283 7.57064 35.4424 7.43208 35.4148C7.29352 35.3873 7.16625 35.3193 7.06635 35.2194C6.96646 35.1195 6.89843 34.9922 6.87087 34.8536C6.84331 34.7151 6.85745 34.5715 6.91151 34.4409C6.96558 34.3104 7.05713 34.1989 7.17459 34.1204C7.29206 34.0419 7.43016 34 7.57143 34C7.76087 34 7.94255 34.0753 8.0765 34.2092C8.21046 34.3432 8.28571 34.5248 8.28571 34.7143ZM14 34.7143C14 34.8556 13.9581 34.9937 13.8796 35.1111C13.8011 35.2286 13.6896 35.3201 13.5591 35.3742C13.4285 35.4283 13.2849 35.4424 13.1464 35.4148C13.0078 35.3873 12.8805 35.3193 12.7806 35.2194C12.6807 35.1195 12.6127 34.9922 12.5852 34.8536C12.5576 34.7151 12.5717 34.5715 12.6258 34.4409C12.6799 34.3104 12.7714 34.1989 12.8889 34.1204C13.0063 34.0419 13.1444 34 13.2857 34C13.4752 34 13.6568 34.0753 13.7908 34.2092C13.9247 34.3432 14 34.5248 14 34.7143ZM10.4286 34C10.5698 34 10.7079 34.0419 10.8254 34.1204C10.9429 34.1989 11.0344 34.3104 11.0885 34.4409C11.1425 34.5715 11.1567 34.7151 11.1291 34.8536C11.1016 34.9922 11.0335 35.1195 10.9336 35.2194C10.8338 35.3193 10.7065 35.3873 10.5679 35.4148C10.4294 35.4424 10.2857 35.4283 10.1552 35.3742C10.0247 35.3201 9.91315 35.2286 9.83466 35.1111C9.75618 34.9937 9.71429 34.8556 9.71429 34.7143C9.71429 34.5248 9.78954 34.3432 9.9235 34.2092C10.0574 34.0753 10.2391 34 10.4286 34ZM16.1429 35.4286C16.0016 35.4286 15.8635 35.3867 15.746 35.3082C15.6286 35.2297 15.537 35.1182 15.4829 34.9876C15.4289 34.8571 15.4147 34.7135 15.4423 34.5749C15.4699 34.4364 15.5379 34.3091 15.6378 34.2092C15.7377 34.1093 15.8649 34.0413 16.0035 34.0137C16.1421 33.9862 16.2857 34.0003 16.4162 34.0544C16.5467 34.1084 16.6583 34.2 16.7368 34.3175C16.8153 34.4349 16.8571 34.573 16.8571 34.7143C16.8571 34.9037 16.7819 35.0854 16.6479 35.2194C16.514 35.3533 16.3323 35.4286 16.1429 35.4286ZM19 35.4286C18.8587 35.4286 18.7206 35.3867 18.6032 35.3082C18.4857 35.2297 18.3941 35.1182 18.3401 34.9876C18.286 34.8571 18.2719 34.7135 18.2994 34.5749C18.327 34.4364 18.395 34.3091 18.4949 34.2092C18.5948 34.1093 18.7221 34.0413 18.8606 34.0137C18.9992 33.9862 19.1428 34.0003 19.2733 34.0544C19.4039 34.1084 19.5154 34.2 19.5939 34.3175C19.6724 34.4349 19.7143 34.573 19.7143 34.7143C19.7143 34.9037 19.639 35.0854 19.5051 35.2194C19.3711 35.3533 19.1894 35.4286 19 35.4286ZM21.8571 35.4286C21.7159 35.4286 21.5778 35.3867 21.4603 35.3082C21.3428 35.2297 21.2513 35.1182 21.1972 34.9876C21.1432 34.8571 21.129 34.7135 21.1566 34.5749C21.1841 34.4364 21.2522 34.3091 21.3521 34.2092C21.452 34.1093 21.5792 34.0413 21.7178 34.0137C21.8563 33.9862 22 34.0003 22.1305 34.0544C22.261 34.1084 22.3726 34.2 22.4511 34.3175C22.5295 34.4349 22.5714 34.573 22.5714 34.7143C22.5714 34.9037 22.4962 35.0854 22.3622 35.2194C22.2283 35.3533 22.0466 35.4286 21.8571 35.4286ZM8.28571 37.5714C8.28571 37.7127 8.24382 37.8508 8.16534 37.9683C8.08685 38.0857 7.97529 38.1773 7.84477 38.2313C7.71426 38.2854 7.57064 38.2996 7.43208 38.272C7.29352 38.2444 7.16625 38.1764 7.06635 38.0765C6.96646 37.9766 6.89843 37.8493 6.87087 37.7108C6.84331 37.5722 6.85745 37.4286 6.91151 37.2981C6.96558 37.1676 7.05713 37.056 7.17459 36.9775C7.29206 36.899 7.43016 36.8571 7.57143 36.8571C7.76087 36.8571 7.94255 36.9324 8.0765 37.0664C8.21046 37.2003 8.28571 37.382 8.28571 37.5714ZM8.28571 40.4286C8.28571 40.5698 8.24382 40.7079 8.16534 40.8254C8.08685 40.9429 7.97529 41.0344 7.84477 41.0885C7.71426 41.1425 7.57064 41.1567 7.43208 41.1291C7.29352 41.1016 7.16625 41.0335 7.06635 40.9337C6.96646 40.8338 6.89843 40.7065 6.87087 40.5679C6.84331 40.4294 6.85745 40.2857 6.91151 40.1552C6.96558 40.0247 7.05713 39.9132 7.17459 39.8347C7.29206 39.7562 7.43016 39.7143 7.57143 39.7143C7.76087 39.7143 7.94255 39.7895 8.0765 39.9235C8.21046 40.0574 8.28571 40.2391 8.28571 40.4286ZM8.28571 43.2857C8.28571 43.427 8.24382 43.5651 8.16534 43.6825C8.08685 43.8 7.97529 43.8916 7.84477 43.9456C7.71426 43.9997 7.57064 44.0138 7.43208 43.9863C7.29352 43.9587 7.16625 43.8907 7.06635 43.7908C6.96646 43.6909 6.89843 43.5636 6.87087 43.4251C6.84331 43.2865 6.85745 43.1429 6.91151 43.0124C6.96558 42.8819 7.05713 42.7703 7.17459 42.6918C7.29206 42.6133 7.43016 42.5714 7.57143 42.5714C7.76087 42.5714 7.94255 42.6467 8.0765 42.7806C8.21046 42.9146 8.28571 43.0963 8.28571 43.2857Z" fill="url(#paint0_linear)"/>
<defs>
<linearGradient id="paint0_linear" x1="12.5714" y1="4" x2="26.1429" y2="40.4286" gradientUnits="userSpaceOnUse">
<stop stop-color="#FF002E"/>
<stop offset="1" stop-color="#F938AC"/>
</linearGradient>
</defs>
</svg>
