<svg width="34" height="34" viewBox="0 0 34 34" fill="none" xmlns="http://www.w3.org/2000/svg">
<path d="M33.788 25.5L27.0938 20.1445V23.375H22.3061C23.1747 22.219 23.8032 20.901 24.1416 19.4937L26.0312 19.0049V14.9924L24.1443 14.5148C23.8855 13.4374 23.4589 12.4116 22.8719 11.4559L23.8717 9.77872L21.0327 6.94025L19.3556 7.93953C18.4004 7.35303 17.3745 6.92591 16.2972 6.66719L15.8196 4.78125H11.8049L11.3273 6.66825C10.2499 6.92697 9.22409 7.35356 8.26891 7.94059L6.59175 6.94131L3.75275 9.77978L4.75256 11.4569C4.16606 12.4121 3.73894 13.4385 3.48022 14.5159L1.59375 14.9929V19.0065L3.48181 19.4884C3.82712 20.927 4.46781 22.2402 5.32472 23.375H0.53125V27.625H13.8125H27.0938V30.8555L33.788 25.5ZM1.59375 26.5625V24.4375H6.24856C7.10759 25.3077 8.11006 26.0281 9.21559 26.5625H1.59375ZM13.8125 26.5625C9.29953 26.5625 5.36191 23.3596 4.44922 18.947L4.38175 18.6219L2.65625 18.181V15.8196L4.38069 15.3834L4.44816 15.0572C4.69041 13.8842 5.15206 12.7739 5.82037 11.7571L6.00313 11.4792L5.08938 9.94606L6.75856 8.27688L8.29175 9.19116L8.56959 9.00841C9.58641 8.34009 10.6967 7.87844 11.8697 7.63619L12.1959 7.56872L12.6321 5.84375H14.9924L15.4286 7.56819L15.7548 7.63566C16.9277 7.87791 18.0381 8.33956 19.0549 9.00787L19.3327 9.19062L20.8659 8.27634L22.5351 9.94553L21.6213 11.4787L21.8041 11.7566C22.4724 12.7734 22.9341 13.8837 23.1763 15.0567L23.2438 15.3829L24.9688 15.8196V18.182L23.2417 18.6288L23.1747 18.9523C22.8331 20.5971 22.0575 22.1191 20.9328 23.3745H13.8125V24.437H28.1562V22.355L32.087 25.5L28.1562 28.6445V26.5625H13.8125Z" fill="#344CED"/>
<path d="M13.8125 24.4375C9.71125 24.4375 6.375 21.1012 6.375 17C6.375 12.8988 9.71125 9.5625 13.8125 9.5625C17.9137 9.5625 21.25 12.8988 21.25 17C21.25 21.1012 17.9137 24.4375 13.8125 24.4375Z" fill="#E0EAFE"/>
<path d="M9.85028 20.5414C9.58838 20.2487 9.35834 19.9262 9.16656 19.5825L10.0947 19.0651C10.2482 19.3403 10.432 19.5979 10.6418 19.8327L9.85028 20.5414ZM8.71128 18.4956C8.60078 18.1189 8.53225 17.7279 8.50781 17.3343L9.56819 17.2689C9.58784 17.5829 9.64256 17.8953 9.73075 18.1965L8.71128 18.4956ZM9.61281 16.3265L8.56306 16.1597C8.62522 15.7719 8.73041 15.3899 8.8765 15.0244L9.86303 15.4186C9.74616 15.7108 9.66169 16.0163 9.61281 16.3265Z" fill="#344CED"/>
<path d="M16.8443 19.2807L15.2463 17.6827C15.3462 17.4749 15.4063 17.2454 15.4063 17C15.4063 16.3083 14.9605 15.7239 14.3438 15.504V11.6875H13.2813V15.504C12.6645 15.7239 12.2188 16.3083 12.2188 17C12.2188 17.8787 12.9338 18.5938 13.8125 18.5938C14.0579 18.5938 14.2874 18.5337 14.4952 18.4338L16.0932 20.0318L16.8443 19.2807ZM13.8125 17.5313C13.5198 17.5313 13.2813 17.2927 13.2813 17C13.2813 16.7073 13.5198 16.4688 13.8125 16.4688C14.1052 16.4688 14.3438 16.7073 14.3438 17C14.3438 17.2927 14.1052 17.5313 13.8125 17.5313Z" fill="#344CED"/>
</svg>
