<svg width="34" height="34" viewBox="0 0 34 34" fill="none" xmlns="http://www.w3.org/2000/svg">
<g clip-path="url(#clip0)">
<path d="M24.1253 7.13278H19.0859V4.29699C19.0859 4.0642 19.2747 3.87549 19.5074 3.87549H23.7039C23.9367 3.87549 24.1253 4.0642 24.1253 4.29699V7.13278Z" fill="#DDE8FE"/>
<path d="M21.6071 30.1254C28.1751 30.1254 33.4994 24.801 33.4994 18.2331C33.4994 11.6652 28.1751 6.34082 21.6071 6.34082C15.0392 6.34082 9.71484 11.6652 9.71484 18.2331C9.71484 24.801 15.0392 30.1254 21.6071 30.1254Z" fill="#E0EAFE"/>
<path d="M21.6071 6.34082C21.2697 6.34082 20.9358 6.35565 20.6055 6.38316C26.7045 6.89194 31.4961 12.0026 31.4961 18.233C31.4961 24.4635 26.7045 29.5742 20.6055 30.083C20.9358 30.1106 21.2697 30.1253 21.6071 30.1253C28.1751 30.1253 33.4994 24.801 33.4994 18.233C33.4994 11.6651 28.175 6.34082 21.6071 6.34082Z" fill="#E0EAFE"/>
<path d="M21.606 27.0815C26.4927 27.0815 30.4541 23.1201 30.4541 18.2334C30.4541 13.3467 26.4927 9.38525 21.606 9.38525C16.7193 9.38525 12.7578 13.3467 12.7578 18.2334C12.7578 23.1201 16.7193 27.0815 21.606 27.0815Z" fill="#F7F7F7"/>
<path d="M21.6071 9.38525C21.2684 9.38525 20.9343 9.40495 20.6055 9.44202C25.0205 9.93958 28.4519 13.6855 28.4519 18.2334C28.4519 22.7814 25.0204 26.5272 20.6055 27.0248C20.9343 27.0618 21.2684 27.0815 21.6071 27.0815C26.4939 27.0815 30.4553 23.1201 30.4553 18.2334C30.4553 13.3467 26.4938 9.38525 21.6071 9.38525Z" fill="#E0EAFE"/>
<path d="M21.6069 27.5823C26.7619 27.5823 30.9558 23.3884 30.9558 18.2333C30.9558 13.0783 26.7619 8.88428 21.6069 8.88428C16.4518 8.88428 12.2578 13.0782 12.2578 18.2333C12.2578 23.3885 16.4518 27.5823 21.6069 27.5823ZM14.6459 17.7324H13.2749C13.3894 15.8074 14.1592 14.056 15.3639 12.6986L16.3306 13.6653C16.4284 13.7631 16.5566 13.812 16.6847 13.812C16.8129 13.812 16.9411 13.7631 17.0388 13.6653C17.2344 13.4697 17.2344 13.1526 17.0388 12.9571L16.0722 11.9904C17.4296 10.7856 19.1809 10.0159 21.106 9.90137V11.2724C21.106 11.549 21.3301 11.7732 21.6068 11.7732C21.8835 11.7732 22.1076 11.549 22.1076 11.2724V9.90137C24.0327 10.0159 25.784 10.7856 27.1413 11.9904L26.1747 12.9571C25.9791 13.1527 25.9791 13.4698 26.1747 13.6653C26.2725 13.7631 26.4007 13.812 26.5289 13.812C26.657 13.812 26.7852 13.7631 26.8831 13.6653L27.8497 12.6986C29.0543 14.056 29.8242 15.8073 29.9386 17.7324H28.5676C28.2909 17.7324 28.0668 17.9566 28.0668 18.2332C28.0668 18.5098 28.2909 18.734 28.5676 18.734H29.9386C29.8241 20.6591 29.0543 22.4104 27.8496 23.7678L26.883 22.8011C26.6873 22.6055 26.3703 22.6055 26.1747 22.8011C25.9791 22.9967 25.9791 23.3139 26.1747 23.5094L27.1413 24.4761C25.784 25.6808 24.0327 26.4506 22.1076 26.5651V25.1941C22.1076 24.9175 21.8835 24.6932 21.6068 24.6932C21.3301 24.6932 21.106 24.9175 21.106 25.1941V26.5651C19.1808 26.4506 17.4296 25.6808 16.0722 24.4761L17.0388 23.5095C17.2344 23.3139 17.2344 22.9967 17.0388 22.8012C16.8432 22.6055 16.5261 22.6056 16.3306 22.8012L15.3639 23.7678C14.1592 22.4104 13.3894 20.6592 13.2749 18.734H14.6459C14.9225 18.734 15.1468 18.5098 15.1468 18.2332C15.1468 17.9567 14.9225 17.7324 14.6459 17.7324Z" fill="#344CED"/>
<path d="M27.6768 27.8724C25.8615 29.0185 23.7616 29.6243 21.6041 29.6243C15.3228 29.6243 10.2126 24.5141 10.2126 18.2328C10.2126 15.6898 11.032 13.2846 12.582 11.2771C12.751 11.0583 12.7106 10.7437 12.4917 10.5746C12.2728 10.4056 11.9583 10.446 11.7892 10.665C10.1024 12.8494 9.21094 15.4663 9.21094 18.2328C9.21094 25.0664 14.7705 30.6259 21.6041 30.6259C23.9512 30.6259 26.236 29.9666 28.2115 28.7194C28.4455 28.5717 28.5153 28.2624 28.3677 28.0285C28.22 27.7946 27.9107 27.7248 27.6768 27.8724Z" fill="#344CED"/>
<path d="M24.6268 6.21298V4.31448C24.6268 3.79615 24.2051 3.37451 23.6868 3.37451H19.5256C19.0073 3.37451 18.5857 3.79615 18.5857 4.31448V6.21244C16.594 6.71141 14.7462 7.70132 13.2082 9.11915C13.0049 9.30667 12.992 9.62346 13.1794 9.82687C13.367 10.0302 13.6838 10.0432 13.8872 9.85565C15.9954 7.91208 18.7368 6.84169 21.6062 6.84169C27.8875 6.84169 32.9977 11.9519 32.9977 18.2331C32.9977 21.4573 31.6222 24.5444 29.2241 26.7028C29.0185 26.8878 29.0018 27.2045 29.1869 27.4101C29.2857 27.52 29.4222 27.5758 29.5592 27.5758C29.6786 27.5758 29.7984 27.5334 29.8942 27.4473C32.5031 25.0992 33.9993 21.7407 33.9993 18.2331C33.9994 12.4412 30.0052 7.5651 24.6268 6.21298ZM19.5874 6.00436V4.37618H23.6252V6.00536C22.968 5.89718 22.2937 5.84002 21.6064 5.84002C20.9248 5.84002 20.2499 5.89558 19.5874 6.00436Z" fill="#344CED"/>
<path d="M21.6064 18.5842C21.7943 18.5842 21.9578 18.4806 22.0434 18.3275L23.7711 16.5998C23.9667 16.4043 23.9667 16.0871 23.7711 15.8915C23.5755 15.6959 23.2585 15.6959 23.0627 15.8915L22.1071 16.8471V14.4081C22.1071 14.1315 21.883 13.9072 21.6063 13.9072C21.3296 13.9072 21.1055 14.1315 21.1055 14.4081V18.0832C21.1055 18.3599 21.3297 18.5842 21.6064 18.5842Z" fill="#344CED"/>
<path d="M7.39065 18.3461C7.39065 18.0695 7.16641 17.8452 6.88982 17.8452H0.500835C0.22424 17.8452 0 18.0695 0 18.3461C0 18.6226 0.22424 18.8469 0.500835 18.8469H6.88982C7.16641 18.8469 7.39065 18.6227 7.39065 18.3461Z" fill="#344CED"/>
<path d="M2.49693 15.9309H7.55616C7.83275 15.9309 8.05699 15.7066 8.05699 15.43C8.05699 15.1534 7.83275 14.9292 7.55616 14.9292H2.49693C2.22033 14.9292 1.99609 15.1534 1.99609 15.43C1.99609 15.7066 2.22027 15.9309 2.49693 15.9309Z" fill="#344CED"/>
<path d="M8.22808 12.0112H4.07896C3.80237 12.0112 3.57812 12.2355 3.57812 12.5121C3.57812 12.7887 3.80237 13.0129 4.07896 13.0129H8.22808C8.50468 13.0129 8.72892 12.7887 8.72892 12.5121C8.72892 12.2354 8.50468 12.0112 8.22808 12.0112Z" fill="#344CED"/>
<path d="M8.05693 21.0365C8.05693 20.7599 7.83269 20.5356 7.55609 20.5356H2.49693C2.22033 20.5356 1.99609 20.7599 1.99609 21.0365C1.99609 21.3131 2.22033 21.5373 2.49693 21.5373H7.55616C7.83269 21.5373 8.05693 21.3131 8.05693 21.0365Z" fill="#344CED"/>
<path d="M8.22808 23.4526H4.07896C3.80237 23.4526 3.57812 23.6769 3.57812 23.9535C3.57812 24.2301 3.80237 24.4543 4.07896 24.4543H8.22808C8.50468 24.4543 8.72892 24.2301 8.72892 23.9535C8.72892 23.6769 8.50468 23.4526 8.22808 23.4526Z" fill="#344CED"/>
</g>
<defs>
<clipPath id="clip0">
<rect width="34" height="34" fill="white"/>
</clipPath>
</defs>
</svg>
