<svg width="52" height="51" viewBox="0 0 52 51" fill="none" xmlns="http://www.w3.org/2000/svg">
<path fill-rule="evenodd" clip-rule="evenodd" d="M41.6152 23.0697V51H32.7427V33.874H19.0307V51H10.1582V23.0697L6.43499 26.2666C4.66936 27.7767 2.37146 25.0895 4.13576 23.5801L24.7374 5.8894C25.4107 5.31344 26.3938 5.33131 27.0439 5.89602L47.6376 23.5801C49.4019 25.0895 47.104 27.7767 45.3384 26.2666L41.6152 23.0697ZM17.4902 5.46306C10.9235 5.46306 5.53794 10.8493 5.53794 17.416H8.67661C8.67661 12.5746 12.6494 8.60239 17.4902 8.60173V5.46306ZM18.0331 4.06123e-08C8.16685 -0.000661988 0.0742188 8.09263 0.0742188 17.9588H3.21289C3.21289 9.81854 9.89276 3.13868 18.0331 3.13868V4.06123e-08ZM34.2825 5.46306C40.8492 5.46306 46.2355 10.8493 46.2355 17.416H43.0961C43.0961 12.5746 39.1233 8.60239 34.2825 8.60173V5.46306ZM33.7397 4.06123e-08C43.6059 -0.000661988 51.6985 8.09263 51.6985 17.9588H48.5598C48.5598 9.81854 41.88 3.13868 33.7397 3.13868V4.06123e-08Z" fill="url(#paint0_linear)"/>
<defs>
<linearGradient id="paint0_linear" x1="11.1366" y1="5.89356e-07" x2="28.2811" y2="46.5829" gradientUnits="userSpaceOnUse">
<stop stop-color="#CE61F4"/>
<stop offset="1" stop-color="#DC16B0"/>
</linearGradient>
</defs>
</svg>
