<svg width="55" height="52" viewBox="0 0 55 52" fill="none" xmlns="http://www.w3.org/2000/svg">
<path d="M9 45C10.6569 45 12 43.6569 12 42C12 40.3431 10.6569 39 9 39C7.34315 39 6 40.3431 6 42C6 43.6569 7.34315 45 9 45Z" fill="url(#paint0_linear)"/>
<path d="M24.2793 18H33.5853L31.2923 15.707C31.1101 15.5184 31.0093 15.2658 31.0116 15.0036C31.0139 14.7414 31.1191 14.4906 31.3045 14.3052C31.4899 14.1198 31.7407 14.0146 32.0029 14.0123C32.2651 14.01 32.5177 14.1108 32.7063 14.293L34.9993 16.586V14.414L31.2923 10.707C31.1101 10.5184 31.0093 10.2658 31.0116 10.0036C31.0139 9.7414 31.1191 9.49059 31.3045 9.30518C31.4899 9.11977 31.7407 9.0146 32.0029 9.01233C32.2651 9.01005 32.5177 9.11084 32.7063 9.293L34.9993 11.586V4H27.7793L24.2793 18Z" fill="url(#paint1_linear)"/>
<path d="M3 28H1V30H3V28Z" fill="url(#paint2_linear)"/>
<path d="M9 51C10.78 51 12.5201 50.4722 14.0001 49.4832C15.4802 48.4943 16.6337 47.0887 17.3149 45.4442C17.9961 43.7996 18.1743 41.99 17.8271 40.2442C17.4798 38.4984 16.6226 36.8947 15.364 35.636C14.1053 34.3774 12.5016 33.5202 10.7558 33.1729C9.00998 32.8257 7.20038 33.0039 5.55585 33.6851C3.91131 34.3663 2.50571 35.5198 1.51677 36.9999C0.527841 38.4799 0 40.22 0 42C0.00264685 44.3861 0.951708 46.6738 2.63896 48.361C4.32622 50.0483 6.61386 50.9974 9 51ZM9 37C9.98891 37 10.9556 37.2932 11.7779 37.8427C12.6001 38.3921 13.241 39.173 13.6194 40.0866C13.9978 41.0002 14.0969 42.0056 13.9039 42.9755C13.711 43.9454 13.2348 44.8363 12.5355 45.5355C11.8363 46.2348 10.9454 46.711 9.97545 46.9039C9.00555 47.0969 8.00021 46.9978 7.08658 46.6194C6.17295 46.241 5.39206 45.6001 4.84265 44.7779C4.29325 43.9556 4 42.9889 4 42C4.00159 40.6744 4.52888 39.4036 5.46622 38.4662C6.40356 37.5289 7.67441 37.0016 9 37Z" fill="url(#paint3_linear)"/>
<path d="M9.00005 10.243C8.99257 7.60542 9.91934 5.05041 11.6161 3.03099L10.0271 1.44099C8.06546 3.72806 6.99116 6.64395 7.00005 9.65699V12H9.00005V10.243Z" fill="url(#paint4_linear)"/>
<path d="M35 20H27V26H35V20Z" fill="url(#paint5_linear)"/>
<path d="M9 14H7V18H9V14Z" fill="url(#paint6_linear)"/>
<path d="M7 26V24H1V26H4H7Z" fill="url(#paint7_linear)"/>
<path d="M51.7147 1.744C51.6624 1.63103 51.6029 1.52148 51.5367 1.416C51.5067 1.368 51.4777 1.316 51.4457 1.274C51.361 1.15472 51.2678 1.04175 51.1667 0.936C51.1467 0.915 51.1297 0.891 51.1087 0.87C50.9848 0.748122 50.8511 0.63674 50.7087 0.537C50.6687 0.51 50.6247 0.487 50.5837 0.461C50.475 0.392647 50.3621 0.331193 50.2457 0.277C50.1904 0.251667 50.1344 0.228667 50.0777 0.208C49.9605 0.162424 49.8402 0.125002 49.7177 0.0960002C49.6627 0.0820002 49.6097 0.0660002 49.5537 0.0560002C49.3713 0.0198546 49.1858 0.00110373 48.9997 0H31.1227C30.9582 0.000485516 30.794 0.0141962 30.6317 0.0409999C30.5787 0.0499999 30.5317 0.067 30.4767 0.079C30.3713 0.0998842 30.2672 0.126592 30.1647 0.159C30.1057 0.179 30.0497 0.206 29.9917 0.23C29.9018 0.264472 29.8137 0.303524 29.7277 0.347C29.6697 0.377 29.6147 0.414 29.5597 0.447C29.4807 0.495 29.4027 0.547 29.3287 0.599C29.2747 0.639 29.2287 0.684 29.1727 0.728C29.1047 0.787 29.0377 0.846 28.9727 0.911C28.9247 0.96 28.8797 1.011 28.8357 1.066C28.7917 1.121 28.7227 1.203 28.6717 1.276C28.6307 1.334 28.5927 1.394 28.5557 1.455C28.5187 1.516 28.4677 1.609 28.4287 1.689C28.3977 1.754 28.3677 1.821 28.3407 1.889C28.3257 1.925 28.3157 1.963 28.3027 1.999H35.9997C36.2649 1.999 36.5193 2.10436 36.7068 2.29189C36.8944 2.47943 36.9997 2.73378 36.9997 2.999V18H38.9997V3C38.9997 2.73478 39.1051 2.48043 39.2926 2.29289C39.4802 2.10536 39.7345 2 39.9997 2H51.8157C51.8037 1.967 51.7967 1.932 51.7847 1.9C51.7637 1.847 51.7387 1.8 51.7147 1.744Z" fill="url(#paint8_linear)"/>
<path d="M43 44.25C45.3472 44.25 47.25 42.3472 47.25 40C47.25 37.6528 45.3472 35.75 43 35.75C40.6528 35.75 38.75 37.6528 38.75 40C38.75 42.3472 40.6528 44.25 43 44.25Z" fill="url(#paint9_linear)"/>
<path d="M1 34.474C2.26793 33.1192 3.85881 32.1081 5.6238 31.5354C7.38879 30.9627 9.27021 30.8471 11.092 31.1994C12.9139 31.5516 14.6166 32.3603 16.0409 33.5496C17.4652 34.739 18.5645 36.2702 19.236 38H29.918C30.2901 35.5498 31.3451 33.2541 32.962 31.376L32.394 30.808C32.2118 30.6194 32.111 30.3668 32.1133 30.1046C32.1156 29.8424 32.2208 29.5916 32.4062 29.4062C32.5916 29.2208 32.8424 29.1156 33.1046 29.1133C33.3668 29.111 33.6194 29.2118 33.808 29.394L34.376 29.962C36.513 28.1186 39.1856 27.0101 42 26.8V26C42 25.7348 42.1054 25.4804 42.2929 25.2929C42.4804 25.1054 42.7348 25 43 25C43.2652 25 43.5196 25.1054 43.7071 25.2929C43.8946 25.4804 44 25.7348 44 26V26.8C46.8143 27.0099 49.4868 28.1179 51.624 29.961L52 29.586V20H37V27C37 27.2652 36.8946 27.5196 36.7071 27.7071C36.5196 27.8946 36.2652 28 36 28H26C25.7348 28 25.4804 27.8946 25.2929 27.7071C25.1054 27.5196 25 27.2652 25 27V20H4C3.38174 20.0026 2.77937 20.1961 2.2753 20.5541C1.77123 20.9121 1.39008 21.4171 1.184 22H8C8.26522 22 8.51957 22.1054 8.70711 22.2929C8.89464 22.4804 9 22.7348 9 23V27C9 27.2652 8.89464 27.5196 8.70711 27.7071C8.51957 27.8946 8.26522 28 8 28H5V31C5 31.2652 4.89464 31.5196 4.70711 31.7071C4.51957 31.8946 4.26522 32 4 32H1V34.474ZM28 36H21C20.7348 36 20.4804 35.8946 20.2929 35.7071C20.1054 35.5196 20 35.2652 20 35C20 34.7348 20.1054 34.4804 20.2929 34.2929C20.4804 34.1054 20.7348 34 21 34H28C28.2652 34 28.5196 34.1054 28.7071 34.2929C28.8946 34.4804 29 34.7348 29 35C29 35.2652 28.8946 35.5196 28.7071 35.7071C28.5196 35.8946 28.2652 36 28 36ZM24 30H30C30.2652 30 30.5196 30.1054 30.7071 30.2929C30.8946 30.4804 31 30.7348 31 31C31 31.2652 30.8946 31.5196 30.7071 31.7071C30.5196 31.8946 30.2652 32 30 32H24C23.7348 32 23.4804 31.8946 23.2929 31.7071C23.1054 31.5196 23 31.2652 23 31C23 30.7348 23.1054 30.4804 23.2929 30.2929C23.4804 30.1054 23.7348 30 24 30ZM13 23H20C20.2652 23 20.5196 23.1054 20.7071 23.2929C20.8946 23.4804 21 23.7348 21 24C21 24.2652 20.8946 24.5196 20.7071 24.7071C20.5196 24.8946 20.2652 25 20 25H13C12.7348 25 12.4804 24.8946 12.2929 24.7071C12.1054 24.5196 12 24.2652 12 24C12 23.7348 12.1054 23.4804 12.2929 23.2929C12.4804 23.1054 12.7348 23 13 23ZM13 27H20C20.2652 27 20.5196 27.1054 20.7071 27.2929C20.8946 27.4804 21 27.7348 21 28C21 28.2652 20.8946 28.5196 20.7071 28.7071C20.5196 28.8946 20.2652 29 20 29H13C12.7348 29 12.4804 28.8946 12.2929 28.7071C12.1054 28.5196 12 28.2652 12 28C12 27.7348 12.1054 27.4804 12.2929 27.2929C12.4804 27.1054 12.7348 27 13 27Z" fill="url(#paint10_linear)"/>
<path d="M54.25 40C54.25 37.775 53.5902 35.5999 52.354 33.7498C51.1179 31.8998 49.3609 30.4578 47.3052 29.6064C45.2495 28.7549 42.9875 28.5321 40.8052 28.9662C38.623 29.4003 36.6184 30.4717 35.0451 32.0451C33.4717 33.6184 32.4003 35.623 31.9662 37.8052C31.5321 39.9875 31.7549 42.2495 32.6064 44.3052C33.4578 46.3609 34.8998 48.1179 36.7498 49.354C38.5999 50.5902 40.775 51.25 43 51.25C45.9826 51.2466 48.8421 50.0602 50.9512 47.9512C53.0602 45.8421 54.2466 42.9826 54.25 40ZM43 46.25C41.7639 46.25 40.5555 45.8834 39.5277 45.1967C38.4999 44.5099 37.6988 43.5338 37.2258 42.3918C36.7527 41.2497 36.6289 39.9931 36.8701 38.7807C37.1113 37.5683 37.7065 36.4547 38.5806 35.5806C39.4547 34.7065 40.5683 34.1113 41.7807 33.8701C42.9931 33.6289 44.2497 33.7527 45.3918 34.2258C46.5338 34.6988 47.5099 35.4999 48.1967 36.5277C48.8834 37.5555 49.25 38.7639 49.25 40C49.2482 41.657 48.5891 43.2457 47.4174 44.4174C46.2457 45.5891 44.657 46.2482 43 46.25Z" fill="url(#paint11_linear)"/>
<path d="M41 18H47.586L45.293 15.707C45.1108 15.5184 45.01 15.2658 45.0123 15.0036C45.0146 14.7414 45.1198 14.4906 45.3052 14.3052C45.4906 14.1198 45.7414 14.0146 46.0036 14.0123C46.2658 14.01 46.5184 14.1108 46.707 14.293L50.414 18H52V14.414L46.293 8.707C46.1108 8.5184 46.01 8.2658 46.0123 8.0036C46.0146 7.7414 46.1198 7.49059 46.3052 7.30518C46.4906 7.11977 46.7414 7.0146 47.0036 7.01233C47.2658 7.01005 47.5184 7.11084 47.707 7.293L52 11.586V4H41V18Z" fill="url(#paint12_linear)"/>
<defs>
<linearGradient id="paint0_linear" x1="7.28571" y1="39" x2="9.32143" y2="44.4643" gradientUnits="userSpaceOnUse">
<stop stop-color="#34C8DC"/>
<stop offset="1" stop-color="#19CDC2"/>
</linearGradient>
<linearGradient id="paint1_linear" x1="26.5764" y1="4" x2="32.2886" y2="15.7404" gradientUnits="userSpaceOnUse">
<stop stop-color="#34C8DC"/>
<stop offset="1" stop-color="#19CDC2"/>
</linearGradient>
<linearGradient id="paint2_linear" x1="1.42857" y1="28" x2="2.10714" y2="29.8214" gradientUnits="userSpaceOnUse">
<stop stop-color="#34C8DC"/>
<stop offset="1" stop-color="#19CDC2"/>
</linearGradient>
<linearGradient id="paint3_linear" x1="3.85714" y1="33" x2="9.96429" y2="49.3929" gradientUnits="userSpaceOnUse">
<stop stop-color="#34C8DC"/>
<stop offset="1" stop-color="#19CDC2"/>
</linearGradient>
<linearGradient id="paint4_linear" x1="7.98915" y1="1.44099" x2="13.3953" y2="7.78484" gradientUnits="userSpaceOnUse">
<stop stop-color="#34C8DC"/>
<stop offset="1" stop-color="#19CDC2"/>
</linearGradient>
<linearGradient id="paint5_linear" x1="28.7143" y1="20" x2="30.3271" y2="25.7721" gradientUnits="userSpaceOnUse">
<stop stop-color="#34C8DC"/>
<stop offset="1" stop-color="#19CDC2"/>
</linearGradient>
<linearGradient id="paint6_linear" x1="7.42857" y1="14" x2="9.41614" y2="16.6675" gradientUnits="userSpaceOnUse">
<stop stop-color="#34C8DC"/>
<stop offset="1" stop-color="#19CDC2"/>
</linearGradient>
<linearGradient id="paint7_linear" x1="2.28571" y1="24" x2="2.53939" y2="26.0427" gradientUnits="userSpaceOnUse">
<stop stop-color="#34C8DC"/>
<stop offset="1" stop-color="#19CDC2"/>
</linearGradient>
<linearGradient id="paint8_linear" x1="33.3412" y1="2.08008e-07" x2="38.2649" y2="17.2639" gradientUnits="userSpaceOnUse">
<stop stop-color="#34C8DC"/>
<stop offset="1" stop-color="#19CDC2"/>
</linearGradient>
<linearGradient id="paint9_linear" x1="40.5714" y1="35.75" x2="43.4554" y2="43.4911" gradientUnits="userSpaceOnUse">
<stop stop-color="#34C8DC"/>
<stop offset="1" stop-color="#19CDC2"/>
</linearGradient>
<linearGradient id="paint10_linear" x1="11.9286" y1="20" x2="14.3415" y2="38.3508" gradientUnits="userSpaceOnUse">
<stop stop-color="#34C8DC"/>
<stop offset="1" stop-color="#19CDC2"/>
</linearGradient>
<linearGradient id="paint11_linear" x1="36.5714" y1="28.75" x2="44.2054" y2="49.2411" gradientUnits="userSpaceOnUse">
<stop stop-color="#34C8DC"/>
<stop offset="1" stop-color="#19CDC2"/>
</linearGradient>
<linearGradient id="paint12_linear" x1="43.3571" y1="4" x2="48.978" y2="15.8545" gradientUnits="userSpaceOnUse">
<stop stop-color="#34C8DC"/>
<stop offset="1" stop-color="#19CDC2"/>
</linearGradient>
</defs>
</svg>
