<svg width="165" height="67" viewBox="0 0 165 67" fill="none" xmlns="http://www.w3.org/2000/svg">
<path fill-rule="evenodd" clip-rule="evenodd" d="M116.376 33.9318C116.302 33.7789 116.272 33.7002 116.233 33.626C115.199 31.6335 114.17 29.6453 113.127 27.6572C113.024 27.4562 113.037 27.3382 113.179 27.1678C114.82 25.2234 116.453 23.2702 118.09 21.3171C118.146 21.2472 118.198 21.1772 118.22 21.0549L116.785 21.435C114.799 21.9681 112.817 22.5012 110.835 23.0387C110.65 23.0867 110.568 23.0343 110.473 22.877C109.345 20.9675 108.216 19.0624 107.083 17.1573C107.022 17.0568 106.962 16.9607 106.837 16.8777C106.747 17.3845 106.652 17.8958 106.566 18.4026L105.622 23.7902C105.588 23.9825 105.54 24.1791 105.523 24.3714C105.506 24.5549 105.415 24.6248 105.247 24.6772C102.908 25.42 100.573 26.1716 98.2378 26.9231C98.1344 26.9581 98.0353 26.9974 97.9233 27.0979C99.8361 27.867 101.745 28.6404 103.688 29.4225C103.619 29.4793 103.571 29.523 103.52 29.5579C102.326 30.3401 101.129 31.1222 99.9352 31.9131C99.7931 32.0092 99.681 32.0223 99.5173 31.9481C98.0913 31.297 96.6566 30.6591 95.2263 30.008C94.5843 29.7196 94.007 29.3307 93.559 28.7758C92.5422 27.513 92.7447 26.0798 94.0975 25.2059C94.5413 24.9175 95.0453 24.7034 95.5451 24.5374C97.8371 23.7815 100.133 23.0518 102.43 22.3177C102.624 22.2565 102.71 22.1691 102.749 21.9594C103.054 20.1635 103.373 18.3677 103.692 16.5718C103.864 15.6105 103.955 14.6274 104.416 13.7491C104.592 13.4126 104.804 13.0806 105.058 12.7965C105.971 11.7697 107.242 11.7304 108.207 12.7092C108.535 13.0412 108.815 13.4301 109.056 13.8277C110.12 15.5843 111.163 17.3539 112.205 19.1236C112.326 19.3333 112.438 19.377 112.666 19.3115C115.23 18.6167 117.793 17.9307 120.356 17.2403C120.886 17.1005 121.421 17.0481 121.963 17.1486C123.144 17.3714 123.661 18.2846 123.265 19.4426C123.084 19.9713 122.769 20.417 122.416 20.8364C120.628 22.9731 118.84 25.1098 117.043 27.2377C116.897 27.4125 116.893 27.5392 116.996 27.7315C118.069 29.7808 119.129 31.8301 120.193 33.8838C120.447 34.3731 120.641 34.8844 120.649 35.448C120.662 36.7283 119.736 37.777 118.482 37.9649C117.78 38.0697 117.125 37.9168 116.466 37.7114C114.859 37.2089 113.252 36.7108 111.641 36.2214C111.49 36.1777 111.434 36.1166 111.408 35.9549C111.223 34.8057 111.02 33.6609 110.827 32.5117C110.822 32.4811 110.831 32.4462 110.835 32.3763C112.666 32.8919 114.484 33.3987 116.376 33.9318Z" fill="#344154"/>
<path fill-rule="evenodd" clip-rule="evenodd" d="M113.245 50.667C111.798 50.6626 110.346 50.6583 108.898 50.6626C108.709 50.6626 108.601 50.6058 108.493 50.4398C106.779 47.7919 105.055 45.144 103.332 42.5004C103.276 42.4174 103.22 42.3344 103.121 42.1946C102.75 45.0522 102.389 47.8443 102.027 50.6452H98.2311C98.2741 50.2694 98.3129 49.9067 98.3603 49.5484C98.7308 46.6777 99.1013 43.8113 99.4762 40.9405C99.8294 38.2008 100.187 35.4568 100.545 32.7171C100.553 32.6341 100.609 32.5336 100.674 32.4899C101.979 31.6247 103.289 30.7727 104.599 29.9119C104.616 29.8988 104.646 29.8988 104.711 29.8769C104.314 32.94 103.922 35.9811 103.526 39.0223C103.543 39.031 103.556 39.0441 103.573 39.0573C105.628 36.7458 107.683 34.4343 109.786 32.0748L109.95 33.0361C110.096 33.9056 110.238 34.7795 110.398 35.649C110.428 35.8238 110.385 35.9331 110.268 36.0554C108.941 37.4668 107.614 38.8825 106.292 40.2938C106.236 40.355 106.18 40.4205 106.111 40.4904C106.154 40.5604 106.188 40.6259 106.232 40.6871L113.09 50.4485C113.133 50.5053 113.189 50.5534 113.241 50.6058C113.245 50.6321 113.245 50.6495 113.245 50.667ZM68.2714 42.2077C68.2153 41.9062 68.1723 41.4692 68.043 41.0585C67.4054 39.0704 65.3977 37.978 63.3125 38.4717C61.0291 39.0092 59.3963 40.8313 59.1594 43.1952C58.9827 44.943 59.9133 46.6296 61.6409 47.2588C63.0325 47.77 64.3681 47.5559 65.6131 46.8C67.2589 45.7994 68.155 44.3094 68.2714 42.2077ZM58.2417 49.6009C58.1297 50.4573 58.022 51.2613 57.9186 52.0696C57.7807 53.1401 57.6428 54.215 57.5093 55.2856C57.4921 55.4123 57.4576 55.4647 57.324 55.4647C56.2814 55.4603 55.2388 55.4603 54.1962 55.4603C54.1747 55.4603 54.1488 55.4472 54.0928 55.4298C54.1575 54.9229 54.2178 54.416 54.2824 53.9092C54.5107 52.1308 54.7434 50.3524 54.976 48.574C55.2431 46.5422 55.4542 44.4973 55.7946 42.4786C56.3978 38.9 59.392 35.8195 62.9032 35.0504C64.9367 34.6047 66.8884 34.8101 68.6634 35.9724C70.4341 37.1303 71.4509 38.8126 71.6835 40.9274C72.0109 43.9161 70.9252 46.398 68.8314 48.4517C67.4571 49.8018 65.8113 50.6583 63.9114 50.9467C61.9554 51.2438 60.1158 50.9161 58.47 49.745C58.4097 49.7013 58.3451 49.6664 58.2417 49.6009ZM56.5442 32.5991C55.3767 33.4818 54.2479 34.3338 53.1192 35.1859C52.9382 34.8931 52.7745 34.6047 52.5806 34.3338C52.0895 33.6391 51.4777 33.1191 50.5945 33.0536C49.8578 33.0011 49.2245 33.2458 48.7247 33.8008C48.2767 34.2945 48.2164 34.9936 48.6343 35.5529C49.0952 36.1646 49.6036 36.7458 50.1163 37.3138C50.9736 38.2533 51.8655 39.1578 52.7185 40.1059C53.494 40.9667 54.1101 41.9324 54.2996 43.1078C54.528 44.506 54.2522 45.8387 53.5974 47.0709C52.3911 49.3474 50.4868 50.667 47.9794 51.0777C46.8722 51.2613 45.7649 51.2219 44.6836 50.903C43.2489 50.4747 42.2494 49.5178 41.6075 48.172C41.3791 47.6957 41.2068 47.1933 41 46.682C42.258 46.0004 43.4773 45.3362 44.718 44.6633C44.7611 44.7682 44.7913 44.8556 44.8301 44.9386C45.0412 45.3668 45.2135 45.8212 45.4763 46.2189C46.2518 47.3899 47.5055 47.7438 48.7764 47.167C49.1039 47.0185 49.4184 46.8087 49.6855 46.5684C50.504 45.83 50.6591 44.8031 50.0517 43.8768C49.7027 43.3437 49.2676 42.8675 48.8411 42.3868C47.8286 41.2464 46.7731 40.1409 45.7822 38.9786C45.1015 38.1746 44.6362 37.2395 44.4897 36.1646C44.3303 34.9936 44.5586 33.8881 45.1618 32.9006C46.6568 30.4493 48.8281 29.1735 51.7017 29.2783C53.3389 29.3395 54.6443 30.1173 55.6567 31.4063C55.9583 31.7864 56.2384 32.184 56.5442 32.5991ZM84.2981 45.7644C84.1086 47.2413 83.9276 48.6439 83.7423 50.0465C83.7337 50.1165 83.6777 50.2126 83.6174 50.2432C80.7912 51.5715 77.0645 51.388 74.7424 48.7095C73.493 47.2719 72.9717 45.5678 73.0492 43.6714C73.2302 39.2801 76.819 35.4437 81.1143 34.9106C83.6217 34.596 85.8232 35.2864 87.525 37.2614C88.6839 38.6072 89.2182 40.2152 89.1406 41.9892C89.0889 43.1602 88.908 44.3269 88.7615 45.4935C88.559 47.1452 88.335 48.7969 88.1196 50.4485C88.1109 50.5053 88.1023 50.5665 88.0851 50.6408H84.7031C84.7462 50.2606 84.7893 49.8892 84.8367 49.5178C85.0822 47.6084 85.3493 45.7076 85.5647 43.7938C85.6983 42.6053 85.6164 41.4212 85.0779 40.32C84.5092 39.149 83.5485 38.5285 82.2905 38.3931C79.684 38.1134 77.2067 39.9486 76.6509 42.5485C76.2847 44.2657 76.862 45.9086 78.2105 46.8219C79.5246 47.7089 80.9334 47.7089 82.3637 47.1365C83.0918 46.8481 83.7079 46.3849 84.2981 45.7644ZM98.5413 35.2427C98.3862 36.4312 98.2354 37.6022 98.0803 38.7995C97.3651 38.7995 96.6628 38.7951 95.9606 38.7995C95.3919 38.8038 94.8749 39.1752 94.7026 39.7127C94.6337 39.9224 94.6121 40.1496 94.582 40.3681C94.2244 43.099 93.8711 45.83 93.5178 48.5653C93.4273 49.2557 93.3412 49.9417 93.2507 50.6408H89.7308C89.7955 50.1165 89.8601 49.6052 89.9247 49.0984C90.1531 47.3287 90.3814 45.5591 90.614 43.7894C90.8165 42.2601 90.9932 40.722 91.2301 39.1971C91.5446 37.1522 93.5523 35.3344 95.5901 35.2471C96.5638 35.2077 97.5374 35.2427 98.5413 35.2427Z" fill="#344154"/>
<path d="M117.399 50.6451V49.1376H117.391L116.809 50.6451H116.624L116.042 49.1376H116.034V50.6451H115.741V48.8405H116.193L116.723 50.2125L117.244 48.8405H117.692V50.6451H117.399ZM114.814 49.0808V50.6451H114.521V49.0808H113.966V48.8405H115.374V49.0808H114.814ZM61.2625 30.0648H62.1371L61.9303 28.7233L61.2625 30.0648ZM62.2707 30.9299H60.8188L60.3578 31.8475H59.3281L61.5986 27.5479H62.5895L63.3607 31.8475H62.4085L62.2707 30.9299ZM67.4708 28.4131H66.9538L66.7814 29.405H67.2984C67.6086 29.405 67.8585 29.1952 67.8585 28.8064C67.8585 28.5442 67.6991 28.4131 67.4708 28.4131ZM66.217 27.5479H67.5742C68.285 27.5479 68.7848 27.9761 68.7848 28.719C68.7848 29.6497 68.1385 30.2745 67.2123 30.2745H66.6263L66.3506 31.8475H65.4674L66.217 27.5479ZM71.792 30.0648H72.6665L72.4597 28.7233L71.792 30.0648ZM72.8044 30.9299H71.3525L70.8915 31.8475H69.8618L72.1323 27.5479H73.1232L73.8944 31.8475H72.9423L72.8044 30.9299ZM78.543 31.6946C78.2457 31.8344 77.914 31.9174 77.5823 31.9174C76.4621 31.9174 75.7556 31.0654 75.7556 29.9949C75.7556 28.6272 76.8886 27.478 78.2371 27.478C78.5732 27.478 78.8791 27.561 79.1289 27.7009L79.004 28.7321C78.8187 28.5223 78.5172 28.3781 78.1423 28.3781C77.3712 28.3781 76.6818 29.086 76.6818 29.9075C76.6818 30.5323 77.0696 31.0217 77.6814 31.0217C78.0562 31.0217 78.4181 30.8775 78.6593 30.6721L78.543 31.6946ZM83.9542 30.1128H82.1103L81.8087 31.8432H80.9255L81.6751 27.5436H82.5583L82.261 29.2433H84.105L84.4023 27.5436H85.2898L84.5401 31.8432H83.6569L83.9542 30.1128ZM87.2026 31.8475L87.948 27.5479H90.3003L90.1495 28.4131H88.6847L88.5339 29.2477H89.8781L89.7273 30.1128H88.3788L88.228 30.978H89.6928L89.542 31.8432L87.2026 31.8475Z" fill="#344154"/>
</svg>
