<svg width="165" height="67" viewBox="0 0 165 67" fill="none" xmlns="http://www.w3.org/2000/svg">
<path d="M34.0762 23.9697L45.1679 22.4394V33.1827H34.0772L34.0762 23.9697ZM45.1679 34.5575V45.1794L34.0777 43.6513L34.0774 34.558H45.1681V34.5575H45.1679ZM46.3943 22.2705L61.1531 20.234V33.1827H46.3943V22.2705ZM61.1531 34.5575V47.3829L46.3943 45.348V34.5575H61.1531Z" fill="#344154"/>
<g clip-path="url(#clip0)">
<path d="M76.503 30.6602H74.879V24.3278C74.879 23.8087 74.9111 23.1749 74.9753 22.4236H74.9482C74.8468 22.8512 74.7573 23.1581 74.6797 23.3453L71.7346 30.6602H70.606L67.6537 23.4001C67.5713 23.1864 67.4839 22.8609 67.3924 22.4244H67.3652C67.4023 22.8158 67.4204 23.4547 67.4204 24.3417V30.6602H65.9062V20.875H68.2115L70.8059 27.3918C71.003 27.8922 71.1316 28.2656 71.1909 28.5109H71.2252C71.395 27.9967 71.5324 27.6143 71.638 27.3641L74.2808 20.875H76.5035L76.503 30.6602ZM79.5517 22.2054C79.2904 22.2054 79.0661 22.1216 78.8809 21.9531C78.6949 21.7848 78.6021 21.5707 78.6021 21.3116C78.6021 21.0524 78.6949 20.8362 78.8809 20.663C79.0669 20.4905 79.2904 20.4037 79.5517 20.4037C79.8221 20.4037 80.052 20.4905 80.2399 20.663C80.4278 20.8362 80.5223 21.0516 80.5223 21.3116C80.5223 21.5568 80.4278 21.7675 80.2399 21.9427C80.0512 22.1181 79.8221 22.2054 79.5517 22.2054ZM80.3426 30.6602H78.7467V23.6724H80.3428L80.3426 30.6602ZM87.4791 30.3394C86.9152 30.6623 86.2471 30.8238 85.4764 30.8238C84.4304 30.8238 83.5863 30.4996 82.944 29.8517C82.302 29.2038 81.9805 28.3633 81.9805 27.3302C81.9805 26.1792 82.3257 25.2549 83.0161 24.5563C83.7066 23.858 84.6295 23.5087 85.7859 23.5087C86.4281 23.5087 86.9947 23.6202 87.4854 23.8435V25.3172C86.9941 24.9535 86.4714 24.7712 85.9167 24.7712C85.2424 24.7712 84.6897 24.9979 84.2585 25.4503C83.8274 25.9028 83.6114 26.4953 83.6114 27.2276C83.6114 27.951 83.814 28.522 84.22 28.9404C84.6259 29.359 85.1709 29.5683 85.8545 29.5683C86.4281 29.5683 86.9689 29.366 87.4783 28.9613L87.4791 30.3394ZM93.1557 25.1807C92.9628 25.0303 92.6854 24.9557 92.3229 24.9557C91.8504 24.9557 91.4556 25.1668 91.1391 25.5902C90.8225 26.0129 90.664 26.5887 90.664 27.3163V30.6602H89.0673V23.6724H90.664V25.1122H90.6912C90.8471 24.6209 91.0867 24.2376 91.4102 23.9625C91.7336 23.6876 92.095 23.5496 92.494 23.5496C92.7833 23.5496 93.0034 23.5933 93.1551 23.6793L93.1557 25.1807ZM97.4222 30.8238C96.335 30.8238 95.4671 30.4975 94.8173 29.8447C94.1682 29.192 93.8433 28.3264 93.8433 27.2485C93.8433 26.0745 94.1815 25.1579 94.8586 24.4982C95.5357 23.8386 96.4468 23.5087 97.5941 23.5087C98.6954 23.5087 99.5528 23.8296 100.168 24.4712C100.783 25.1129 101.089 26.0018 101.089 27.1389C101.089 28.2539 100.758 29.1464 100.095 29.8169C99.4326 30.4885 98.5418 30.8238 97.4222 30.8238ZM97.4977 24.7712C96.8738 24.7712 96.3805 24.9875 96.0185 25.4191C95.6558 25.8514 95.4749 26.4473 95.4749 27.2068C95.4749 27.9391 95.6586 28.5158 96.0255 28.9363C96.3923 29.3569 96.8835 29.5674 97.4984 29.5674C98.1274 29.5674 98.6102 29.3603 98.947 28.9468C99.2837 28.5324 99.4529 27.9434 99.4529 27.179C99.4529 26.4106 99.2845 25.8169 98.947 25.3982C98.6095 24.9804 98.1266 24.7712 97.4977 24.7712ZM102.281 30.442V28.9751C102.877 29.4256 103.536 29.6506 104.255 29.6506C105.219 29.6506 105.7 29.3686 105.7 28.8046C105.7 28.6452 105.659 28.5102 105.577 28.3985C105.494 28.287 105.383 28.188 105.243 28.102C105.102 28.0161 104.937 27.9385 104.747 27.87C104.557 27.8013 104.345 27.7244 104.111 27.6378C103.843 27.534 103.582 27.4132 103.33 27.2761C103.098 27.1485 102.905 27.0045 102.752 26.8431C102.6 26.6855 102.482 26.4985 102.404 26.2935C102.326 26.0892 102.288 25.85 102.288 25.5771C102.288 25.2404 102.368 24.9437 102.529 24.6867C102.69 24.4296 102.905 24.2135 103.175 24.0388C103.446 23.8635 103.753 23.7319 104.097 23.6432C104.446 23.5539 104.804 23.5092 105.164 23.5101C105.815 23.5101 106.398 23.6078 106.911 23.8032V25.1884C106.416 24.8516 105.847 24.6832 105.205 24.6832C105.003 24.6832 104.821 24.704 104.658 24.7441C104.495 24.7851 104.356 24.842 104.241 24.9147C104.127 24.9875 104.037 25.0747 103.973 25.1773C103.909 25.278 103.876 25.3953 103.877 25.5148C103.877 25.665 103.909 25.7926 103.973 25.8973C104.037 26.0018 104.132 26.0939 104.259 26.1737C104.385 26.2534 104.536 26.3261 104.713 26.3919C104.89 26.4577 105.092 26.5298 105.322 26.6068C105.6 26.7182 105.872 26.8435 106.138 26.9824C106.379 27.1097 106.584 27.2539 106.754 27.4153C106.921 27.573 107.055 27.7635 107.146 27.9752C107.238 28.1865 107.284 28.4381 107.284 28.7291C107.284 29.0839 107.201 29.3928 107.036 29.657C106.871 29.921 106.65 30.1392 106.376 30.3117C106.1 30.4849 105.782 30.6131 105.422 30.6969C105.062 30.7815 104.682 30.8231 104.283 30.8231C103.512 30.8238 102.845 30.6969 102.281 30.442ZM111.928 30.8238C110.841 30.8238 109.973 30.4975 109.323 29.8447C108.674 29.192 108.35 28.3264 108.35 27.2485C108.35 26.0745 108.688 25.1579 109.365 24.4982C110.042 23.8386 110.954 23.5087 112.1 23.5087C113.202 23.5087 114.059 23.8296 114.674 24.4712C115.289 25.1129 115.596 26.0018 115.596 27.1389C115.596 28.2539 115.265 29.1464 114.602 29.8169C113.939 30.4885 113.047 30.8238 111.928 30.8238ZM112.004 24.7712C111.38 24.7712 110.887 24.9875 110.524 25.4191C110.161 25.8514 109.98 26.4473 109.98 27.2068C109.98 27.9391 110.164 28.5158 110.531 28.9363C110.898 29.3569 111.389 29.5674 112.004 29.5674C112.632 29.5674 113.115 29.3603 113.452 28.9468C113.79 28.5324 113.958 27.9434 113.958 27.179C113.958 26.4106 113.79 25.8169 113.452 25.3982C113.115 24.9804 112.632 24.7712 112.004 24.7712ZM121.211 21.6053C120.996 21.4826 120.75 21.421 120.475 21.421C119.699 21.421 119.312 21.8554 119.312 22.7243V23.6729H120.95V24.9147H119.319V30.6602H117.723V24.9147H116.519V23.6729H117.723V22.54C117.723 21.8029 117.966 21.2222 118.452 20.7967C118.938 20.3711 119.546 20.1584 120.276 20.1584C120.671 20.1584 120.982 20.2015 121.211 20.2881V21.6053ZM125.815 30.5854C125.503 30.74 125.092 30.8176 124.583 30.8176C123.216 30.8176 122.533 30.1669 122.533 28.8664V24.9154H121.356V23.6737H122.533V22.0563L124.129 21.6061V23.6737H125.815V24.9154H124.129V28.4088C124.129 28.8225 124.205 29.1183 124.357 29.2958C124.508 29.4732 124.76 29.5619 125.113 29.5619C125.384 29.5619 125.618 29.4849 125.815 29.3297V30.5854ZM139.357 30.6602H137.562L136.674 28.1692H132.793L131.94 30.6602H130.151L133.846 20.875H135.69L139.357 30.6602ZM136.24 26.8459L134.871 22.9426C134.83 22.8151 134.786 22.6108 134.741 22.3287H134.713C134.672 22.588 134.626 22.7929 134.576 22.9426L133.22 26.8459H136.24ZM145.743 24.3347L141.938 29.4247H145.729V30.6602H139.701V30.0664L143.589 24.9077H140.073V23.6722H145.743V24.3347ZM153.237 30.6602H151.641V29.5544H151.614C151.15 30.4004 150.43 30.8238 149.453 30.8238C147.788 30.8238 146.955 29.8323 146.955 27.8485V23.6722H148.552V27.6849C148.552 28.9406 149.04 29.5683 150.018 29.5683C150.49 29.5683 150.878 29.3957 151.184 29.05C151.489 28.7043 151.641 28.2517 151.641 27.6919V23.6722H153.238L153.237 30.6602ZM159.409 25.1807C159.217 25.0303 158.939 24.9557 158.577 24.9557C158.104 24.9557 157.709 25.1668 157.393 25.5902C157.076 26.0129 156.918 26.5887 156.918 27.3163V30.6602H155.322V23.6724H156.918V25.1122H156.945C157.101 24.6209 157.341 24.2376 157.664 23.9625C157.988 23.6876 158.349 23.5496 158.748 23.5496C159.036 23.5496 159.257 23.5933 159.408 23.6793L159.409 25.1807ZM166.518 27.5962H161.715C161.733 28.242 161.933 28.7402 162.317 29.0908C162.7 29.4407 163.226 29.616 163.896 29.616C164.649 29.616 165.339 29.3929 165.967 28.9474V30.223C165.325 30.6235 164.476 30.8238 163.421 30.8238C162.384 30.8238 161.571 30.5064 160.982 29.8717C160.392 29.237 160.098 28.3445 160.098 27.1937C160.098 26.1065 160.422 25.2202 161.072 24.5356C161.721 23.851 162.527 23.5087 163.491 23.5087C164.454 23.5087 165.199 23.8158 165.727 24.4296C166.254 25.0435 166.518 25.8964 166.518 26.9886L166.518 27.5962ZM164.976 26.4771C164.97 25.9083 164.837 25.4661 164.571 25.1502C164.304 24.8343 163.937 24.6763 163.469 24.6763C163.011 24.6763 162.622 24.8426 162.303 25.1745C161.984 25.5064 161.788 25.941 161.715 26.4778H164.976V26.4771Z" fill="#344154"/>
</g>
<g clip-path="url(#clip1)">
<path d="M11.8898 45.9273H10.2657V39.5949C10.2657 39.0758 10.2979 38.442 10.3621 37.6907H10.3349C10.2335 38.1182 10.1441 38.4252 10.0664 38.6124L7.1213 45.9273H5.9927L3.04045 38.6672C2.95798 38.4535 2.87065 38.128 2.77912 37.6915H2.75195C2.78899 38.0829 2.8071 38.7218 2.8071 39.6088V45.9273H1.29297V36.1421H3.5982L6.19258 42.6589C6.38971 43.1592 6.51827 43.5327 6.57762 43.778H6.6119C6.7817 43.2638 6.91916 42.8814 7.02476 42.6312L9.66749 36.1421H11.8903L11.8898 45.9273ZM14.9384 37.4725C14.6771 37.4725 14.4528 37.3886 14.2676 37.2202C14.0816 37.0519 13.9888 36.8378 13.9888 36.5786C13.9888 36.3195 14.0816 36.1033 14.2676 35.9301C14.4536 35.7576 14.6771 35.6708 14.9384 35.6708C15.2088 35.6708 15.4387 35.7576 15.6267 35.9301C15.8146 36.1033 15.909 36.3187 15.909 36.5786C15.909 36.8239 15.8146 37.0346 15.6267 37.2098C15.4379 37.3852 15.2088 37.4725 14.9384 37.4725ZM15.7293 45.9273H14.1334V38.9395H15.7295L15.7293 45.9273ZM22.8658 45.6065C22.3019 45.9294 21.6338 46.0909 20.8631 46.0909C19.8172 46.0909 18.973 45.7667 18.3307 45.1188C17.6887 44.4709 17.3672 43.6304 17.3672 42.5973C17.3672 41.4463 17.7124 40.522 18.4028 39.8234C19.0933 39.1251 20.0162 38.7758 21.1726 38.7758C21.8148 38.7758 22.3814 38.8873 22.8721 39.1106V40.5843C22.3808 40.2206 21.8581 40.0383 21.3035 40.0383C20.6291 40.0383 20.0764 40.265 19.6452 40.7174C19.2141 41.1699 18.9981 41.7623 18.9981 42.4947C18.9981 43.2181 19.2007 43.789 19.6068 44.2075C20.0127 44.6261 20.5576 44.8353 21.2412 44.8353C21.8148 44.8353 22.3556 44.6331 22.865 44.2284L22.8658 45.6065ZM28.5424 40.4478C28.3495 40.2974 28.0722 40.2227 27.7096 40.2227C27.2371 40.2227 26.8423 40.4339 26.5259 40.8573C26.2092 41.28 26.0507 41.8558 26.0507 42.5834V45.9273H24.454V38.9395H26.0507V40.3793H26.0779C26.2338 39.8879 26.4735 39.5047 26.7969 39.2296C27.1203 38.9547 27.4818 38.8167 27.8807 38.8167C28.17 38.8167 28.3901 38.8604 28.5418 38.9463L28.5424 40.4478ZM32.8089 46.0909C31.7217 46.0909 30.8538 45.7646 30.204 45.1118C29.5549 44.4591 29.23 43.5935 29.23 42.5156C29.23 41.3416 29.5682 40.425 30.2453 39.7653C30.9224 39.1057 31.8335 38.7758 32.9808 38.7758C34.0821 38.7758 34.9395 39.0967 35.5544 39.7382C36.1694 40.3799 36.4761 41.2689 36.4761 42.406C36.4761 43.521 36.1449 44.4135 35.4817 45.084C34.8194 45.7556 33.9285 46.0909 32.8089 46.0909ZM32.8845 40.0383C32.2606 40.0383 31.7672 40.2545 31.4053 40.6862C31.0425 41.1185 30.8616 41.7144 30.8616 42.4738C30.8616 43.2062 31.0453 43.7829 31.4122 44.2034C31.779 44.624 32.2703 44.8345 32.8851 44.8345C33.5142 44.8345 33.9969 44.6274 34.3337 44.2139C34.6704 43.7995 34.8396 43.2105 34.8396 42.4461C34.8396 41.6777 34.6712 41.0839 34.3337 40.6653C33.9962 40.2475 33.5134 40.0383 32.8845 40.0383ZM37.6675 45.7091V44.2422C38.2642 44.6927 38.9224 44.9177 39.642 44.9177C40.6058 44.9177 41.0871 44.6357 41.0871 44.0717C41.0871 43.9123 41.046 43.7773 40.9635 43.6656C40.8811 43.5541 40.77 43.4551 40.6294 43.3691C40.4889 43.2832 40.3241 43.2056 40.1341 43.1371C39.9433 43.0684 39.7314 42.9914 39.4974 42.9049C39.2297 42.8011 38.9688 42.6803 38.7164 42.5431C38.4843 42.4156 38.2922 42.2716 38.1384 42.1102C37.9869 41.9526 37.8688 41.7656 37.7912 41.5606C37.7129 41.3563 37.6744 41.117 37.6744 40.8442C37.6744 40.5075 37.7548 40.2108 37.9154 39.9538C38.0763 39.6967 38.2914 39.4806 38.5619 39.3059C38.8329 39.1306 39.1397 38.999 39.4842 38.9103C39.8327 38.821 40.1909 38.7763 40.5505 38.7772C41.2017 38.7772 41.7844 38.8749 42.2982 39.0703V40.4554C41.8027 40.1187 41.2339 39.9502 40.5917 39.9502C40.3898 39.9502 40.2074 39.9711 40.0447 40.0112C39.8818 40.0522 39.7427 40.1091 39.6281 40.1818C39.5136 40.2545 39.4242 40.3418 39.3598 40.4444C39.296 40.5451 39.2625 40.6624 39.2634 40.7819C39.2634 40.9321 39.2956 41.0596 39.3598 41.1643C39.4242 41.2689 39.5191 41.361 39.6456 41.4408C39.7714 41.5205 39.9231 41.5932 40.0998 41.659C40.2766 41.7248 40.4792 41.7969 40.7092 41.8739C40.987 41.9852 41.2591 42.1106 41.5245 42.2494C41.7656 42.3768 41.971 42.521 42.1408 42.6824C42.308 42.8401 42.4414 43.0306 42.5328 43.2423C42.6245 43.4536 42.6706 43.7052 42.6706 43.9962C42.6706 44.351 42.5881 44.6599 42.4225 44.9241C42.2576 45.1881 42.0368 45.4063 41.7622 45.5788C41.4868 45.752 41.1689 45.8802 40.8091 45.964C40.4485 46.0486 40.0691 46.0902 39.6701 46.0902C38.8988 46.0909 38.2314 45.964 37.6675 45.7091ZM47.3152 46.0909C46.228 46.0909 45.3594 45.7646 44.7101 45.1118C44.061 44.4591 43.7368 43.5935 43.7368 42.5156C43.7368 41.3416 44.0751 40.425 44.7522 39.7653C45.4284 39.1057 46.3404 38.7758 47.4871 38.7758C48.5883 38.7758 49.4456 39.0967 50.0606 39.7382C50.6754 40.3799 50.9829 41.2689 50.9829 42.406C50.9829 43.521 50.6517 44.4135 49.9886 45.084C49.3256 45.7556 48.4339 46.0909 47.3152 46.0909ZM47.3907 40.0383C46.7666 40.0383 46.2732 40.2545 45.9107 40.6862C45.548 41.1185 45.367 41.7144 45.367 42.4738C45.367 43.2062 45.5509 43.7829 45.9176 44.2034C46.2846 44.624 46.7757 44.8345 47.3907 44.8345C48.0188 44.8345 48.5017 44.6274 48.8392 44.2139C49.1767 43.7995 49.345 43.2105 49.345 42.4461C49.345 41.6777 49.1767 41.0839 48.8392 40.6653C48.5017 40.2475 48.0188 40.0383 47.3907 40.0383ZM56.598 36.8723C56.383 36.7497 56.137 36.6881 55.8616 36.6881C55.086 36.6881 54.6989 37.1225 54.6989 37.9914V38.94H56.3367V40.1818H54.7058V45.9273H53.1092V40.1818H51.9053V38.94H53.1092V37.8071C53.1092 37.07 53.3524 36.4893 53.8387 36.0638C54.325 35.6382 54.933 35.4255 55.6625 35.4255C56.0573 35.4255 56.3689 35.4686 56.598 35.5552V36.8723ZM61.2016 45.8524C60.8899 46.007 60.479 46.0847 59.9696 46.0847C58.6028 46.0847 57.9194 45.434 57.9194 44.1335V40.1825H56.7428V38.9408H57.9194V37.3234L59.5162 36.8732V38.9408H61.2022V40.1825H59.5162V43.6759C59.5162 44.0896 59.5915 44.3854 59.7432 44.5628C59.8949 44.7403 60.147 44.829 60.5 44.829C60.7704 44.829 61.0046 44.752 61.2016 44.5968V45.8524ZM74.7441 45.9273H72.9483L72.0608 43.4363H68.18L67.3268 45.9273H65.5373L69.2323 36.1421H71.0763L74.7441 45.9273ZM71.6269 42.113L70.258 38.2097C70.2168 38.0822 70.1728 37.8779 70.1274 37.5958H70.1002C70.059 37.855 70.0129 38.06 69.9624 38.2097L68.6069 42.113H71.6269ZM81.1299 39.6017L77.3246 44.6918H81.116V45.9273H75.0878V45.3335L78.9757 40.1748H75.4596V38.9393H81.1299V39.6017ZM88.6234 45.9273H87.0275V44.8215H87.0003C86.537 45.6675 85.8165 46.0909 84.8398 46.0909C83.1745 46.0909 82.3416 45.0994 82.3416 43.1155V38.9393H83.9382V42.952C83.9382 44.2077 84.4266 44.8353 85.4043 44.8353C85.8765 44.8353 86.2651 44.6628 86.5705 44.3171C86.8758 43.9714 87.0281 43.5188 87.0281 42.959V38.9393H88.6249L88.6234 45.9273ZM94.7962 40.4478C94.6034 40.2974 94.3259 40.2227 93.9634 40.2227C93.491 40.2227 93.0961 40.4339 92.7796 40.8573C92.4632 41.28 92.3045 41.8558 92.3045 42.5834V45.9273H90.7084V38.9395H92.3045V40.3793H92.3317C92.4876 39.8879 92.7272 39.5047 93.0507 39.2296C93.3742 38.9547 93.7355 38.8167 94.1345 38.8167C94.4231 38.8167 94.6439 38.8604 94.7947 38.9463L94.7962 40.4478ZM101.905 42.8633H97.1013C97.1194 43.509 97.3199 44.0072 97.7035 44.3579C98.0864 44.7078 98.6126 44.8831 99.2828 44.8831C100.035 44.8831 100.726 44.66 101.354 44.2145V45.4901C100.712 45.8906 99.8629 46.0909 98.8077 46.0909C97.7706 46.0909 96.958 45.7735 96.3682 45.1388C95.7785 44.5041 95.4843 43.6116 95.4843 42.4608C95.4843 41.3736 95.8085 40.4872 96.4585 39.8027C97.1076 39.1181 97.9139 38.7758 98.8775 38.7758C99.841 38.7758 100.586 39.0828 101.114 39.6967C101.641 40.3106 101.905 41.1635 101.905 42.2556L101.905 42.8633ZM100.363 41.7442C100.356 41.1754 100.223 40.7332 99.9573 40.4173C99.691 40.1014 99.3242 39.9434 98.856 39.9434C98.3976 39.9434 98.0083 40.1097 97.6898 40.4416C97.3712 40.7734 97.1748 41.208 97.1014 41.7449H100.363V41.7442Z" fill="#344154"/>
</g>
<defs>
<clipPath id="clip0">
<rect x="65.6152" y="20" width="60.9231" height="11.1064" fill="white"/>
</clipPath>
<clipPath id="clip1">
<rect x="65" y="35.4255" width="36.9231" height="10.4894" fill="white"/>
</clipPath>
</defs>
</svg>
