<svg width="58" height="53" viewBox="0 0 58 53" fill="none" xmlns="http://www.w3.org/2000/svg">
<path d="M12.301 0.598022L10.4258 1.08637L14.6322 10.1154L20.8655 8.49451L12.301 0.598022Z" fill="url(#paint0_linear)"/>
<path d="M14.543 1.46301L16.5829 3.34415C17.0987 3.10893 17.3799 2.52865 17.2366 1.97762C17.073 1.35018 16.4307 0.974068 15.8032 1.13526L14.543 1.46301Z" fill="url(#paint1_linear)"/>
<path d="M16.8166 25.6702L18.6911 25.1831L22.3245 14.1147L16.0918 15.7356L16.8166 25.6702Z" fill="url(#paint2_linear)"/>
<path d="M18.6327 4.70413L18.1855 4.81994L19.9389 6.43661C20.0947 6.17214 20.1467 5.85454 20.0667 5.54768C19.9037 4.91964 19.2613 4.54174 18.6327 4.70413Z" fill="url(#paint3_linear)"/>
<path d="M22.538 16.3057L21.8066 18.5319L22.2054 18.4281C22.5087 18.3487 22.7636 18.1564 22.9224 17.886C23.0818 17.6149 23.1254 17.2979 23.0466 16.9941C22.9702 16.7009 22.7833 16.4627 22.538 16.3057Z" fill="url(#paint4_linear)"/>
<path d="M30.5786 8.96624C30.2987 7.89522 29.2008 7.25285 28.1286 7.52926L6.62469 13.1207C6.61096 13.1243 6.59783 13.1207 6.5841 13.1225C6.56022 13.1267 6.53634 13.1351 6.51246 13.1351C6.50112 13.1351 6.49097 13.1285 6.47962 13.1279C6.445 13.1249 6.41336 13.116 6.38112 13.1064C6.35604 13.0987 6.33097 13.0933 6.30709 13.0802C6.26769 13.0599 6.23426 13.0312 6.20262 12.9996C6.19187 12.9888 6.17754 12.9852 6.16799 12.9733L2.56093 8.62655L0.242188 9.00146L4.4964 15.6043C4.50595 15.6186 4.50714 15.6359 4.5149 15.6508C4.52863 15.6783 4.53998 15.7052 4.54834 15.7356C4.5561 15.766 4.55908 15.7953 4.56087 15.8251C4.56147 15.8419 4.56863 15.858 4.56744 15.8753L4.06715 23.7139L6.27545 22.9121L7.30826 17.3582C7.31244 17.3367 7.32497 17.3194 7.33214 17.2985C7.34348 17.2657 7.35184 17.2335 7.36975 17.2048C7.38587 17.1791 7.40736 17.16 7.42825 17.1385C7.44736 17.1188 7.46348 17.0968 7.48616 17.0794C7.51601 17.0579 7.55004 17.0454 7.58407 17.0323C7.60198 17.0245 7.61631 17.012 7.63601 17.0066L7.65213 17.0024C7.65272 17.0024 7.65332 17.0024 7.65392 17.0018L29.1393 11.4151C30.2109 11.1375 30.8557 10.0384 30.5786 8.96624ZM17.5444 12.8175L11.6926 14.3398C11.655 14.3494 11.6168 14.3535 11.5798 14.3535C11.381 14.3535 11.1989 14.2198 11.1464 14.0186C11.0843 13.7792 11.2275 13.5345 11.4669 13.4724L17.3187 11.95C17.5575 11.8885 17.8023 12.0318 17.865 12.2706C17.9271 12.5106 17.7838 12.7554 17.5444 12.8175ZM28.5632 9.95367L20.7127 11.9942C20.675 12.0038 20.6374 12.0079 20.5998 12.0079C20.401 12.0079 20.2189 11.8742 20.1664 11.6724C20.1043 11.4336 20.2482 11.1889 20.4876 11.1268L28.3375 9.08623C28.5757 9.02415 28.8211 9.16743 28.8838 9.40682C28.9465 9.64741 28.802 9.89158 28.5632 9.95367Z" fill="url(#paint5_linear)"/>
<path d="M22.1953 22.3795C22.3547 22.1085 22.3983 21.7921 22.3195 21.4888C22.1792 20.9515 21.6777 20.5903 21.1284 20.6136L20.2676 23.2374L21.4783 22.9228C21.7816 22.8428 22.0365 22.6499 22.1953 22.3795Z" fill="url(#paint6_linear)"/>
<path d="M50.0839 18.5343H51.1322L46.9962 10.657H42.8477L45.3312 18.5343H50.0839Z" fill="url(#paint7_linear)"/>
<path d="M44.6834 30.9382L47.4666 22.9868H33.2461L36.0293 30.9382H44.6834Z" fill="url(#paint8_linear)"/>
<path d="M35.3882 18.5343L37.8705 10.657H33.7219L29.5859 18.5343H30.6355H35.3882Z" fill="url(#paint9_linear)"/>
<path d="M44.403 18.5343L41.9195 10.657H38.8169L36.334 18.5343H44.403Z" fill="url(#paint10_linear)"/>
<path d="M49.6438 22.0912V19.4298H31.0879V22.0912H32.6246H48.1071H49.6438Z" fill="url(#paint11_linear)"/>
<path d="M57.5531 51.5065H44.5535V31.8336H36.1591V51.5065H21.7583C21.5111 51.5065 21.3105 51.7071 21.3105 51.9542C21.3105 52.2014 21.5111 52.402 21.7583 52.402H57.5531C57.8003 52.402 58.0009 52.2014 58.0009 51.9542C58.0009 51.7071 57.8003 51.5065 57.5531 51.5065Z" fill="url(#paint12_linear)"/>
<defs>
<linearGradient id="paint0_linear" x1="12.6629" y1="0.598023" x2="15.6685" y2="9.44777" gradientUnits="userSpaceOnUse">
<stop stop-color="#1ACDE6"/>
<stop offset="1" stop-color="#0CB2E7"/>
</linearGradient>
<linearGradient id="paint1_linear" x1="15.1282" y1="1.09796" x2="15.7807" y2="3.22756" gradientUnits="userSpaceOnUse">
<stop stop-color="#1ACDE6"/>
<stop offset="1" stop-color="#0CB2E7"/>
</linearGradient>
<linearGradient id="paint2_linear" x1="17.4274" y1="14.1147" x2="23.0315" y2="22.2282" gradientUnits="userSpaceOnUse">
<stop stop-color="#1ACDE6"/>
<stop offset="1" stop-color="#0CB2E7"/>
</linearGradient>
<linearGradient id="paint3_linear" x1="18.5966" y1="4.66647" x2="19.161" y2="6.30829" gradientUnits="userSpaceOnUse">
<stop stop-color="#1ACDE6"/>
<stop offset="1" stop-color="#0CB2E7"/>
</linearGradient>
<linearGradient id="paint4_linear" x1="22.0806" y1="16.3057" x2="23.1348" y2="17.9305" gradientUnits="userSpaceOnUse">
<stop stop-color="#1ACDE6"/>
<stop offset="1" stop-color="#0CB2E7"/>
</linearGradient>
<linearGradient id="paint5_linear" x1="6.75662" y1="7.46512" x2="9.98422" y2="23.6743" gradientUnits="userSpaceOnUse">
<stop stop-color="#1ACDE6"/>
<stop offset="1" stop-color="#0CB2E7"/>
</linearGradient>
<linearGradient id="paint6_linear" x1="20.7155" y1="20.6125" x2="21.7604" y2="22.8459" gradientUnits="userSpaceOnUse">
<stop stop-color="#1ACDE6"/>
<stop offset="1" stop-color="#0CB2E7"/>
</linearGradient>
<linearGradient id="paint7_linear" x1="44.6229" y1="10.657" x2="47.1943" y2="17.9158" gradientUnits="userSpaceOnUse">
<stop stop-color="#1ACDE6"/>
<stop offset="1" stop-color="#0CB2E7"/>
</linearGradient>
<linearGradient id="paint8_linear" x1="36.2933" y1="22.9868" x2="37.9397" y2="30.8903" gradientUnits="userSpaceOnUse">
<stop stop-color="#1ACDE6"/>
<stop offset="1" stop-color="#0CB2E7"/>
</linearGradient>
<linearGradient id="paint9_linear" x1="31.3612" y1="10.657" x2="33.9326" y2="17.9158" gradientUnits="userSpaceOnUse">
<stop stop-color="#1ACDE6"/>
<stop offset="1" stop-color="#0CB2E7"/>
</linearGradient>
<linearGradient id="paint10_linear" x1="38.0631" y1="10.657" x2="40.6873" y2="17.8723" gradientUnits="userSpaceOnUse">
<stop stop-color="#1ACDE6"/>
<stop offset="1" stop-color="#0CB2E7"/>
</linearGradient>
<linearGradient id="paint11_linear" x1="35.0642" y1="19.4298" x2="35.2112" y2="22.1821" gradientUnits="userSpaceOnUse">
<stop stop-color="#1ACDE6"/>
<stop offset="1" stop-color="#0CB2E7"/>
</linearGradient>
<linearGradient id="paint12_linear" x1="29.1728" y1="31.8336" x2="33.4417" y2="52.2738" gradientUnits="userSpaceOnUse">
<stop stop-color="#1ACDE6"/>
<stop offset="1" stop-color="#0CB2E7"/>
</linearGradient>
</defs>
</svg>
