<svg width="165" height="67" viewBox="0 0 165 67" fill="none" xmlns="http://www.w3.org/2000/svg">
<path d="M66.0638 29.3482C66.0638 30.0478 66.1396 30.6151 66.2723 31.0311C66.424 31.4472 66.6136 31.901 66.879 32.3927C66.9738 32.5439 67.0117 32.6952 67.0117 32.8276C67.0117 33.0167 66.8979 33.2058 66.6515 33.3949L65.4572 34.1891C65.2865 34.3026 65.1159 34.3593 64.9643 34.3593C64.7747 34.3593 64.5851 34.2647 64.3955 34.0945C64.1301 33.8109 63.9026 33.5083 63.7131 33.2058C63.5235 32.8843 63.3339 32.525 63.1254 32.0901C61.6467 33.8298 59.7888 34.6997 57.5518 34.6997C55.9594 34.6997 54.6892 34.2458 53.7603 33.3382C52.8314 32.4305 52.3574 31.2202 52.3574 29.7074C52.3574 28.1001 52.9262 26.7953 54.0826 25.812C55.239 24.8287 56.7746 24.337 58.7272 24.337C59.3718 24.337 60.0353 24.3938 60.7367 24.4883C61.4381 24.5829 62.1585 24.7341 62.9168 24.9043V23.5239C62.9168 22.0868 62.6135 21.0845 62.0258 20.4983C61.4192 19.9121 60.3955 19.6285 58.9357 19.6285C58.2722 19.6285 57.5897 19.7041 56.8883 19.8743C56.1869 20.0445 55.5044 20.2525 54.8409 20.5172C54.5376 20.6496 54.3101 20.7252 54.1774 20.7631C54.0447 20.8009 53.9499 20.8198 53.874 20.8198C53.6086 20.8198 53.4759 20.6307 53.4759 20.2336V19.307C53.4759 19.0044 53.5138 18.7775 53.6086 18.6452C53.7034 18.5128 53.874 18.3804 54.1394 18.2481C54.803 17.9077 55.5992 17.624 56.5281 17.3971C57.457 17.1513 58.4428 17.0378 59.4855 17.0378C61.7415 17.0378 63.3908 17.5484 64.4524 18.5695C65.4951 19.5907 66.0259 21.1413 66.0259 23.2214V29.3482H66.0638ZM58.367 32.2225C58.9926 32.2225 59.6372 32.109 60.3196 31.8821C61.0021 31.6552 61.6088 31.2392 62.1206 30.6719C62.4239 30.3126 62.6514 29.9155 62.7652 29.4616C62.8789 29.0078 62.9548 28.4594 62.9548 27.8165V27.0222C62.405 26.8899 61.8173 26.7764 61.2106 26.7008C60.604 26.6251 60.0163 26.5873 59.4286 26.5873C58.1585 26.5873 57.2295 26.8331 56.6039 27.3437C55.9783 27.8543 55.675 28.5729 55.675 29.5184C55.675 30.4071 55.9025 31.069 56.3764 31.5228C56.8314 31.9955 57.4949 32.2225 58.367 32.2225ZM73.59 34.2647C73.2488 34.2647 73.0213 34.208 72.8696 34.0756C72.7179 33.9622 72.5852 33.6974 72.4715 33.3382L68.0164 18.7208C67.9027 18.3426 67.8458 18.0968 67.8458 17.9644C67.8458 17.6618 67.9975 17.4917 68.3008 17.4917H70.1587C70.5189 17.4917 70.7653 17.5484 70.898 17.6808C71.0497 17.7942 71.1634 18.059 71.2772 18.4182L74.4621 30.9366L77.4195 18.4182C77.5142 18.04 77.628 17.7942 77.7796 17.6808C77.9313 17.5673 78.1967 17.4917 78.538 17.4917H80.0546C80.4148 17.4917 80.6612 17.5484 80.8129 17.6808C80.9645 17.7942 81.0972 18.059 81.1731 18.4182L84.1684 31.0879L87.4481 18.4182C87.5618 18.04 87.6945 17.7942 87.8272 17.6808C87.9789 17.5673 88.2253 17.4917 88.5666 17.4917H90.3296C90.6329 17.4917 90.8036 17.6429 90.8036 17.9644C90.8036 18.059 90.7846 18.1535 90.7656 18.267C90.7467 18.3804 90.7088 18.5317 90.6329 18.7397L86.0641 33.3571C85.9504 33.7353 85.8177 33.9811 85.666 34.0945C85.5144 34.208 85.2679 34.2836 84.9456 34.2836H83.3153C82.9551 34.2836 82.7086 34.2269 82.557 34.0945C82.4053 33.9622 82.2726 33.7163 82.1968 33.3382L79.2583 21.1413L76.3389 33.3192C76.2441 33.6974 76.1303 33.9433 75.9787 34.0756C75.827 34.208 75.5616 34.2647 75.2204 34.2647H73.59ZM97.9506 34.7753C96.9648 34.7753 95.979 34.6618 95.0311 34.4349C94.0832 34.208 93.3439 33.9622 92.851 33.6785C92.5477 33.5083 92.3391 33.3192 92.2633 33.1491C92.1875 32.9789 92.1496 32.7898 92.1496 32.6196V31.6552C92.1496 31.2581 92.3012 31.069 92.5856 31.069C92.6993 31.069 92.8131 31.0879 92.9268 31.1257C93.0406 31.1635 93.2112 31.2392 93.4008 31.3148C94.0453 31.5984 94.7468 31.8254 95.4861 31.9766C96.2444 32.1279 96.9838 32.2036 97.7421 32.2036C98.9364 32.2036 99.8653 31.9955 100.51 31.5795C101.154 31.1635 101.496 30.5584 101.496 29.7831C101.496 29.2536 101.325 28.8187 100.984 28.4594C100.643 28.1001 99.998 27.7786 99.0691 27.4761L96.3202 26.6251C94.9363 26.1902 93.9126 25.5473 93.287 24.6963C92.6614 23.8643 92.3391 22.9377 92.3391 21.9544C92.3391 21.1602 92.5098 20.4605 92.851 19.8554C93.1922 19.2503 93.6472 18.7208 94.2159 18.3048C94.7847 17.8699 95.4292 17.5484 96.1875 17.3215C96.9458 17.0945 97.7421 17 98.5762 17C98.9933 17 99.4293 17.0189 99.8464 17.0756C100.282 17.1324 100.681 17.208 101.079 17.2836C101.458 17.3782 101.818 17.4727 102.159 17.5862C102.5 17.6997 102.766 17.8131 102.955 17.9266C103.221 18.0779 103.41 18.2291 103.524 18.3993C103.638 18.5506 103.695 18.7586 103.695 19.0234V19.9121C103.695 20.3092 103.543 20.5172 103.259 20.5172C103.107 20.5172 102.861 20.4416 102.538 20.2903C101.458 19.7987 100.244 19.5528 98.8985 19.5528C97.8179 19.5528 96.9648 19.723 96.3771 20.0823C95.7894 20.4416 95.4861 20.99 95.4861 21.7653C95.4861 22.2948 95.6757 22.7486 96.0548 23.1079C96.434 23.4672 97.1354 23.8265 98.1402 24.1479L100.832 24.9989C102.197 25.4338 103.183 26.0389 103.771 26.8142C104.358 27.5895 104.643 28.4783 104.643 29.4616C104.643 30.2747 104.472 31.0122 104.15 31.6552C103.809 32.2981 103.354 32.8654 102.766 33.3192C102.178 33.792 101.477 34.1324 100.662 34.3782C99.8085 34.6429 98.9174 34.7753 97.9506 34.7753Z" fill="#344154"/>
<path d="M101.533 43.9655C95.2959 48.5606 86.2342 51 78.4426 51C67.5229 51 57.6839 46.9722 50.2525 40.2781C49.6648 39.7486 50.1956 39.03 50.8971 39.4461C58.9351 44.0979 68.85 46.9155 79.1061 46.9155C86.0256 46.9155 93.6276 45.4783 100.623 42.5284C101.666 42.0556 102.557 43.2091 101.533 43.9655ZM104.13 41.0156C103.334 39.9944 98.86 40.5239 96.8315 40.7697C96.2248 40.8454 96.1301 40.3159 96.6798 39.9188C100.244 37.4227 106.102 38.1413 106.784 38.9733C107.467 39.8243 106.595 45.6674 103.258 48.4661C102.746 48.901 102.253 48.6741 102.481 48.1068C103.239 46.2347 104.926 42.0178 104.13 41.0156Z" fill="#344154"/>
</svg>
