<svg width="164" height="67" viewBox="0 0 164 67" fill="none" xmlns="http://www.w3.org/2000/svg">
<path d="M89.4969 35.1355C87.853 35.1355 86.3793 35.8248 85.37 36.9101L82.784 35.1773C83.0585 34.462 83.2161 33.6938 83.2161 32.8898C83.2161 32.0998 83.064 31.3445 82.7985 30.6397L85.3788 28.9253C86.3879 30.0051 87.8578 30.6907 89.4969 30.6907C92.5311 30.6907 95 28.3544 95 25.4822C95 22.6101 92.5311 20.2738 89.4969 20.2738C86.4628 20.2738 83.9939 22.6101 83.9939 25.4822C83.9939 25.9963 84.0759 26.492 84.2232 26.9615L81.6412 28.6768C80.5626 27.4103 79.0096 26.5261 77.2402 26.2561V23.3109C79.7329 22.8153 81.6111 20.7191 81.6111 18.2144C81.6111 15.3423 79.1422 13.006 76.1081 13.006C73.0739 13.006 70.605 15.3423 70.605 18.2144C70.605 20.6856 72.4345 22.7559 74.8774 23.2868V26.2704C71.5435 26.8242 69 29.578 69 32.8898C69 36.2178 71.5687 38.9817 74.9267 39.5167V42.6671C72.4588 43.1805 70.605 45.2635 70.605 47.7515C70.605 50.6236 73.0739 52.96 76.1081 52.96C79.1422 52.96 81.6111 50.6236 81.6111 47.7515C81.6111 45.2635 79.7573 43.1805 77.2894 42.6671V39.5166C78.9891 39.2456 80.5267 38.3992 81.616 37.135L84.2193 38.879C84.0748 39.3442 83.9939 39.8351 83.9939 40.3439C83.9939 43.2161 86.4628 45.5524 89.4969 45.5524C92.5311 45.5524 95 43.2161 95 40.3439C95 37.4718 92.5311 35.1355 89.4969 35.1355ZM89.4969 22.9569C90.9683 22.9569 92.165 24.0901 92.165 25.4822C92.165 26.8744 90.9683 28.0074 89.4969 28.0074C88.0256 28.0074 86.8289 26.8744 86.8289 25.4822C86.8289 24.0901 88.0256 22.9569 89.4969 22.9569ZM73.4399 18.2144C73.4399 16.8222 74.6367 15.6892 76.1081 15.6892C77.5794 15.6892 78.7761 16.8222 78.7761 18.2144C78.7761 19.6066 77.5794 20.7396 76.1081 20.7396C74.6367 20.7396 73.4399 19.6066 73.4399 18.2144ZM78.7761 47.7515C78.7761 49.1437 77.5794 50.2767 76.1081 50.2767C74.6367 50.2767 73.4399 49.1437 73.4399 47.7515C73.4399 46.3593 74.6367 45.2263 76.1081 45.2263C77.5794 45.2263 78.7761 46.3593 78.7761 47.7515ZM76.1079 36.4117C74.0558 36.4117 72.3864 34.8319 72.3864 32.8898C72.3864 30.9476 74.0558 29.3676 76.1079 29.3676C78.1598 29.3676 79.8292 30.9476 79.8292 32.8898C79.8292 34.8319 78.1598 36.4117 76.1079 36.4117ZM89.4969 42.8692C88.0256 42.8692 86.8289 41.7361 86.8289 40.3439C86.8289 38.9518 88.0256 37.8187 89.4969 37.8187C90.9683 37.8187 92.165 38.9518 92.165 40.3439C92.165 41.7361 90.9683 42.8692 89.4969 42.8692Z" fill="#344154"/>
</svg>
