<svg width="165" height="67" viewBox="0 0 165 67" fill="none" xmlns="http://www.w3.org/2000/svg">
<path d="M89.1706 55.924H89.7049L98.4264 51.5645L98.5716 51.3594V16.562L98.4264 16.3558L89.7049 12H89.1641L89.1706 55.924Z" fill="#4F5D72"/>
<path d="M77.8212 55.924H77.2794L68.5654 51.5645L68.3885 51.2605L68.2988 16.7392L68.5654 16.3558L77.2794 12H77.8279L77.8212 55.924Z" fill="#4F5D72"/>
<path d="M77.2949 12H89.6971V55.924H77.2949V12Z" fill="#344154"/>
<path d="M102.992 32.9752L102.697 32.9099L98.489 32.5177L98.4265 32.5488L89.6973 32.1998H77.2945L68.5651 32.5488V25.8949L68.5559 25.8997L68.5651 25.8802L77.2945 23.8584H89.6973L98.4265 25.8802L101.636 27.5853V26.4891L102.992 26.3408L102.851 26.0671L98.5574 22.9979L98.4265 23.0403L89.6973 20.3365H77.2945L68.5651 23.0403V16.3558L64 21.7018V26.3706L64.0353 26.3451L65.3562 26.4891V27.6078L64 28.3333V32.9789L64.0353 32.9752L65.3562 32.9947V34.9446L64.2166 34.9616L64 34.9409V39.5883L65.3562 40.3173V41.4489L64.0568 41.5924L64 41.5497V46.2178L68.5651 51.5645V44.8806L77.2945 47.5844H89.6973L98.4523 44.8727L98.5686 44.9237L102.806 41.8998L102.992 41.5985L101.636 41.4489V40.34L101.458 40.269L98.5574 41.8319L98.4523 42.0511L89.6973 44.0612V44.0637H77.2945V44.0612L68.5651 42.0426V35.3643L77.2945 35.712V35.7206H89.6973L98.4265 35.3643L98.6253 35.4557L102.704 35.1046L102.992 34.964L101.636 34.9446V32.9947L102.992 32.9752Z" fill="#344154"/>
<path d="M98.4258 44.8806V51.5645L102.991 46.2178V41.5802L98.4521 44.8727L98.4258 44.8806ZM98.4258 42.0572L98.4521 42.0511L102.991 39.6108V34.9446L98.4258 35.3643V42.0572ZM98.4521 25.8863L98.4258 25.8802V32.5488L102.991 32.9752V28.3112L98.4521 25.8863ZM98.4521 23.0665L102.991 26.3408V21.703L98.4258 16.3558V23.0403L98.4521 23.0495V23.0665Z" fill="#657489"/>
</svg>
