<svg width="165" height="67" viewBox="0 0 165 67" fill="none" xmlns="http://www.w3.org/2000/svg">
<path d="M87.114 37.76C85.6749 37.7898 84.2346 37.7691 82.7948 37.7691V37.8272C81.434 37.8272 80.0729 37.8317 78.7121 37.8261C77.2666 37.8203 76.1437 38.4776 75.2692 39.5971C74.0076 41.2121 73.0176 43.0784 71.0985 44.0709C70.8863 44.1807 70.7159 44.6081 70.7389 44.8689C70.7526 45.0284 71.1564 45.2066 71.4122 45.2821C73.6889 45.955 76.0013 46.0528 78.3199 45.577C81.6033 44.9037 84.5636 43.5836 86.6967 40.8246C87.1856 40.192 87.5218 39.412 87.8123 38.6536C88.0175 38.1181 87.7915 37.7459 87.114 37.76ZM60.1196 33.5472C59.7797 33.071 59.41 32.5649 59.0528 32.0497C58.7719 31.6446 58.5072 31.5531 58.1023 31.9346C56.3998 33.5392 55.7906 37.6032 56.9373 39.6367L60.1196 33.5472ZM105.844 34.4147C105.019 34.2499 104.939 33.9016 104.581 33.4492C102.708 31.086 101.317 28.8949 98.8598 26.4478C94.9057 22.2488 89.9913 20.0783 84.2563 19.7549C81.1446 19.5796 78.0768 19.8484 75.0204 20.3219C73.5507 20.5496 72.5869 19.9662 71.8761 18.7653C71.6077 18.3118 71.3216 17.8316 71.2109 17.3257C70.8023 15.4581 70.4468 13.5778 70.1075 11.6955C69.9848 11.0148 69.7949 10.8562 69.1735 11.1355C68.1506 11.5955 67.4734 12.4142 67.1678 13.472C66.9046 14.3832 66.669 15.3496 66.6832 16.2873C66.716 18.4445 66.8773 20.6017 67.0485 22.7533C67.1437 23.9507 66.9774 24.9889 66.1633 25.9433C65.2375 27.0287 64.4408 28.2279 63.5814 29.3727C60.4762 33.5093 57.8912 37.9408 56.2145 42.8833C55.362 45.3953 54.7075 47.9384 55.1339 50.6422C55.2787 51.5603 55.352 52.49 55.4594 53.4143C55.5884 54.5262 57.0858 55.8622 58.1852 55.8435C59.4472 55.8223 60.5409 55.2875 61.4951 54.5285C63.1799 53.1883 65.0404 52.1795 66.9451 51.2218C69.2129 50.0814 71.2958 48.6581 73.0541 46.7827C73.1836 46.6441 73.2866 46.4802 73.4192 46.3056C72.5219 46.0851 71.697 45.9227 70.8974 45.6755C70.0259 45.406 69.8531 44.7418 70.4405 44.0208C70.6371 43.7793 70.9176 43.6103 71.1492 43.3962C71.8232 42.7737 72.5405 42.1897 73.1486 41.5059C73.7259 40.8566 74.1669 40.0842 74.7033 39.3946C75.6658 38.1569 76.9174 37.4591 78.4885 37.4279C79.4318 37.4089 80.3761 37.3936 81.3191 37.4154C82.0649 37.4325 82.6609 37.1887 83.2474 36.6993C84.6837 35.501 85.9083 34.3011 87.4465 33.2478C89.886 31.8591 91.7161 31.2644 94.0618 31.5043C98.2744 31.9353 101.418 34.206 103.964 37.4929C104.058 37.6139 104.138 37.7827 104.121 37.9564C104.103 38.1301 103.857 38.0466 103.857 38.0466C103.857 38.0466 101.812 35.8672 100.852 34.8477C100.325 35.5948 100.05 36.1064 99.6147 36.6496C99.0202 37.3907 98.2904 38.0346 97.7805 38.828C96.9525 40.1154 97.3052 42.0364 98.4247 42.7833C98.5201 42.634 98.6774 42.4939 98.6997 42.3342C98.7861 41.7168 98.8353 41.2513 99.5546 41.2036C99.8809 41.182 99.6478 40.7947 100.267 40.7609C100.46 40.776 100.445 40.9426 100.638 40.9275C100.794 40.9047 100.864 40.6312 101.032 40.5566C101.367 40.4089 101.811 40.4274 102.141 40.441C102.751 40.4666 103.043 40.1403 103.122 39.7416C103.174 39.479 103.198 39.2725 103.325 38.8115C103.617 39.9998 104.376 40.3584 105.319 40.3499C105.764 40.3459 106.223 40.2515 106.652 40.3299C107.699 40.3976 107.884 40.6366 108.474 40.8649C109.383 41.2163 110.21 41.6402 110.524 42.7361C110.617 42.7064 110.799 42.683 110.895 42.4939C110.992 42.3046 110.99 42.048 110.997 41.7257C111.084 38.0836 109.277 35.503 105.844 34.4147ZM68.9027 40.1033C69.7295 40.09 69.8542 40.2829 69.5064 41.0166C69.4288 41.1798 69.3511 41.3589 69.3373 41.536C69.2271 42.957 68.5413 43.9736 67.3305 44.677C66.7184 45.0324 66.1823 45.5242 65.5665 45.8715C65.2288 46.0619 64.7029 46.2657 64.4345 46.1238C64.2899 46.0477 64.2083 45.8472 64.1405 45.6196C64.0108 45.1819 63.9777 44.7135 64.0797 44.2682C64.5915 42.0336 66.6821 40.1403 68.9027 40.1033ZM63.9224 47.7075C63.9311 47.5177 64.7904 46.7649 65.008 46.8005C65.2255 46.8361 65.2132 46.9927 65.2141 47.2206C65.215 47.4482 64.354 48.2336 63.9394 47.9712C63.8428 47.8868 63.8981 47.7442 63.9224 47.7075ZM72.0584 46.9475C70.9657 47.9767 69.7462 48.8011 68.5605 49.5624C67.6341 50.1566 66.6239 50.6146 65.6831 51.1879C64.2505 52.061 62.8439 52.9782 61.4291 53.8816C60.3749 54.555 59.3501 55.3027 57.9936 55.2673C58.0148 55.1526 58.012 55.0715 58.0341 55.0635C59.461 54.5536 60.5134 53.5903 61.4873 52.4232C62.0753 51.7187 62.9564 51.2318 63.7721 50.7683C65.4788 49.798 66.8615 48.5178 67.915 46.8352C68.6669 45.6347 68.6962 45.6826 69.9424 46.237C70.5835 46.5223 71.1333 46.6236 72.0584 46.9475ZM92.1411 29.9169C93.7767 29.8823 94.5257 30.0759 95.6855 30.3521C96.6043 30.5788 97.2463 31.2045 97.6217 31.7103C96.1587 31.2546 95.4187 31.0094 93.9705 30.8779C90.8582 30.4995 88.126 31.4889 85.73 33.4824C84.7168 34.3254 83.712 35.1912 82.7988 36.1418C82.2589 36.7033 82.2482 36.8503 80.9505 36.7668C82.0981 34.9589 83.1444 33.1276 84.1692 31.3136C87.4839 25.4468 95.8142 26.4513 98.6767 29.8536C98.7935 29.9926 98.9709 30.361 98.9709 30.361C98.9709 30.361 96.2619 28.8854 94.2696 28.8854C93.0695 28.8854 92.7687 28.9756 92.0269 29.1054C91.8312 29.1397 91.5039 29.3126 91.5065 29.6044C91.5094 29.8961 91.9195 29.885 92.1411 29.9169ZM109.613 40.5873C108.744 39.216 107.429 39.5129 106.199 39.5073C105.832 39.5055 105.465 39.5269 105.099 39.5407C104.479 39.5632 103.957 39.416 103.687 38.7669C103.617 38.6001 103.443 38.342 103.298 38.3157C103.157 38.3551 103.11 38.4489 103.085 38.5034C102.526 39.7129 101.443 39.904 100.318 39.9283C99.6672 39.9423 99.1344 40.0341 98.8143 40.6918C98.7524 40.8194 98.4359 40.966 98.3812 40.9212C98.2425 40.8076 98.0723 40.5504 98.1159 40.421C98.2819 39.9283 98.458 39.4113 98.757 38.9981C99.5154 37.9502 100.342 36.9534 101.212 35.8469C101.622 36.2868 102.072 36.7808 102.534 37.2622C102.899 37.6424 103.24 38.0678 103.669 38.3544C103.895 38.5059 104.383 38.5288 104.571 38.3767C104.732 38.2455 104.752 37.7197 104.627 37.482C104.371 36.9964 103.966 36.5935 103.64 36.144C103.396 35.8086 103.179 35.4536 102.889 35.0143C105.818 34.482 110.169 38.1036 109.613 40.5873Z" fill="#344154"/>
</svg>
