<svg width="51" height="51" viewBox="0 0 51 51" fill="none" xmlns="http://www.w3.org/2000/svg">
<path d="M41.1999 1.45477C35.7351 -1.02215 29.1281 -0.379752 25.3067 3.71736C22.981 1.22306 19.6299 0.0181999 16.1289 0.00661469C13.8784 -0.000915702 11.5689 0.485664 9.43088 1.45477C3.48187 4.15123 -1.19393 10.7519 0.271021 20.5519C1.25287 27.134 6.50445 31.5798 11.7479 35.8843C16.9578 40.161 22.2215 44.3549 24.1841 50.0762C24.2878 50.5842 24.717 50.9613 25.2343 50.9996C25.2401 50.9996 25.2464 50.9996 25.2522 50.9996C25.2766 51.0001 25.3003 51.0001 25.3246 50.9996C25.349 51.0001 25.3727 51.0001 25.3971 50.9996C25.4092 50.9938 25.4214 50.988 25.4335 50.9816C25.9317 50.9306 26.3401 50.5657 26.4473 50.0762C28.411 44.3566 33.6735 40.1604 38.8834 35.8843C44.1275 31.5798 49.375 27.134 50.3603 20.5519C51.8253 10.7519 47.1495 4.15123 41.1999 1.45477ZM35.0632 20.9863C35.0632 21.6264 34.5442 22.1448 33.9047 22.1448H27.9672V28.1008C27.9672 28.7409 27.4482 29.2593 26.8087 29.2593H23.822C23.182 29.2593 22.6635 28.7409 22.6635 28.1008V22.1448H16.7261C16.086 22.1448 15.5676 21.6264 15.5676 20.9863V18.0176C15.5676 17.3775 16.086 16.8591 16.7261 16.8591H22.6635V10.9216C22.6606 10.3221 23.1165 9.8193 23.7137 9.76311C23.7496 9.76137 23.7861 9.76137 23.822 9.76311H26.8087C27.4482 9.76311 27.9672 10.2816 27.9672 10.9216V16.8591H33.9047C34.5442 16.8591 35.0632 17.3775 35.0632 18.0176V20.9863Z" fill="url(#paint0_linear)"/>
<defs>
<linearGradient id="paint0_linear" x1="10.8496" y1="5.89356e-07" x2="28.2481" y2="46.3638" gradientUnits="userSpaceOnUse">
<stop stop-color="#F46196"/>
<stop offset="1" stop-color="#DC1616"/>
</linearGradient>
</defs>
</svg>
