<svg width="78" height="30" viewBox="0 0 78 30" fill="none" xmlns="http://www.w3.org/2000/svg">
<path fill-rule="evenodd" clip-rule="evenodd" d="M3.92478 7.06516L8.7973 7.30878L17.3242 2.67989C20.0041 0.974504 22.9276 0 25.8511 0L39.7378 0.243626C43.3922 0.243626 45.8285 1.21813 48.9956 3.16714L60.6896 10.4759C74.0891 11.2068 75.0636 13.6431 77.0126 20.221C77.4998 22.4136 77.0126 24.119 74.5763 24.119H71.4092C71.4092 23.6317 71.4092 23.3881 71.4092 23.1445C71.4092 19.0028 67.9984 15.5921 63.8568 15.5921C59.7151 15.5921 56.3044 19.0028 56.3044 23.1445C56.3044 23.3881 56.3044 23.6317 56.3044 24.119H21.7095C21.7095 23.6317 21.9531 23.3881 21.9531 23.1445C21.9531 19.0028 18.5423 15.5921 14.4007 15.5921C10.0154 15.5921 6.84829 19.0028 6.84829 23.1445C6.84829 23.3881 6.84829 23.6317 6.84829 24.119H2.70665C1.24489 24.119 -0.216866 22.9008 0.0267602 21.1955L1.24489 9.74504C1.24489 8.28329 2.46302 7.06516 3.92478 7.06516ZM54.8426 10.2323L47.5338 5.6034C44.854 3.89802 42.9049 3.16714 39.7378 3.16714H37.5452V9.01416L54.8426 10.2323ZM33.8908 2.92351H25.6075C21.4659 2.92351 20.4913 4.62889 17.5678 7.79603L33.8908 8.77054V2.92351Z" fill="url(#paint0_linear)"/>
<path fill-rule="evenodd" clip-rule="evenodd" d="M14.4002 16.8102C17.8109 16.8102 20.7344 19.4901 20.7344 23.1445C20.7344 26.5553 17.8109 29.4788 14.4002 29.4788C10.7458 29.4788 7.82227 26.5553 7.82227 23.1445C7.82227 19.4901 10.7458 16.8102 14.4002 16.8102ZM14.4002 19.9773C15.8619 19.9773 17.3237 21.4391 17.3237 23.1445C17.3237 24.8499 15.8619 26.068 14.4002 26.068C12.6948 26.068 11.233 24.8499 11.233 23.1445C11.233 21.4391 12.6948 19.9773 14.4002 19.9773Z" fill="url(#paint1_linear)"/>
<path fill-rule="evenodd" clip-rule="evenodd" d="M63.8577 16.8102C67.5121 16.8102 70.192 19.4901 70.192 23.1445C70.192 26.5553 67.5121 29.4788 63.8577 29.4788C60.4469 29.4788 57.5234 26.5553 57.5234 23.1445C57.5234 19.4901 60.4469 16.8102 63.8577 16.8102ZM63.8577 19.9773C65.5631 19.9773 67.0249 21.4391 67.0249 23.1445C67.0249 24.8499 65.5631 26.068 63.8577 26.068C62.1523 26.068 60.9342 24.8499 60.9342 23.1445C60.9342 21.4391 62.1523 19.9773 63.8577 19.9773Z" fill="url(#paint2_linear)"/>
<defs>
<linearGradient id="paint0_linear" x1="16.5391" y1="2.78719e-07" x2="19.4123" y2="24.6797" gradientUnits="userSpaceOnUse">
<stop stop-color="#CB7919"/>
<stop offset="1" stop-color="#DE6521"/>
</linearGradient>
<linearGradient id="paint1_linear" x1="10.5892" y1="16.8102" x2="14.8256" y2="28.4004" gradientUnits="userSpaceOnUse">
<stop stop-color="#CB7919"/>
<stop offset="1" stop-color="#DE6521"/>
</linearGradient>
<linearGradient id="paint2_linear" x1="60.2381" y1="16.8102" x2="64.5364" y2="28.3476" gradientUnits="userSpaceOnUse">
<stop stop-color="#CB7919"/>
<stop offset="1" stop-color="#DE6521"/>
</linearGradient>
</defs>
</svg>
