<svg width="164" height="67" viewBox="0 0 164 67" fill="none" xmlns="http://www.w3.org/2000/svg">
<path d="M77.288 58.7505H77.0449V58.6149H77.6996V58.7505H77.458V59.4273H77.288V58.7505ZM78.5938 58.7858H78.59L78.3489 59.4275H78.2387L77.9993 58.7858H77.9964V59.4275H77.8361V58.6151H78.0719L78.2939 59.1904L78.5152 58.6151H78.7501V59.4275H78.5937L78.5938 58.7858Z" fill="#344154"/>
<path d="M55.5183 42.1384C55.5183 42.1384 53.8263 43.1194 56.7224 43.4514C60.2309 43.8504 62.0241 43.7932 65.8905 43.0636C65.8905 43.0636 66.907 43.6991 68.3267 44.2495C59.6592 47.9531 48.7104 44.035 55.5183 42.1384ZM54.4591 37.3054C54.4591 37.3054 52.5614 38.7059 55.4597 39.0048C59.2076 39.3903 62.1674 39.4218 67.289 38.4386C67.289 38.4386 67.9975 39.1546 69.1114 39.5462C58.6318 42.6014 46.9595 39.7871 54.4591 37.3054Z" fill="#344154"/>
<path d="M63.3866 29.1074C65.5223 31.5588 62.8256 33.765 62.8256 33.765C62.8256 33.765 68.2482 30.9739 65.7578 27.4789C63.4318 24.2194 61.6481 22.6001 71.3045 17.0165C71.3046 17.0164 56.1471 20.7907 63.3866 29.1074Z" fill="#344154"/>
<path d="M74.8498 45.7132C74.8498 45.7132 76.1019 46.7419 73.4709 47.5375C68.4679 49.0485 52.6479 49.5048 48.2531 47.5978C46.6733 46.9125 49.6359 45.9616 50.5678 45.7621C51.5397 45.552 52.0951 45.5911 52.0951 45.5911C50.3382 44.3572 40.7393 48.0139 47.2193 49.0613C64.8913 51.9186 79.4338 47.7746 74.8498 45.7132ZM56.3304 32.2979C56.3304 32.2979 48.2833 34.2035 53.4807 34.8955C55.6752 35.1884 60.0499 35.1222 64.1247 34.7818C67.4549 34.5017 70.799 33.9063 70.799 33.9063C70.799 33.9063 69.6247 34.4077 68.7752 34.9859C60.6035 37.1288 44.8174 36.1318 49.362 33.9401C53.2054 32.0878 56.3304 32.2979 56.3304 32.2979ZM70.7658 40.3427C79.0727 36.039 75.232 31.9032 72.5511 32.4605C71.8941 32.5968 71.6011 32.715 71.6011 32.715C71.6011 32.715 71.8451 32.334 72.3108 32.1691C77.6143 30.3101 81.693 37.6518 70.5988 40.5597C70.5988 40.5597 70.7275 40.4452 70.7658 40.3427Z" fill="#344154"/>
<path d="M65.7581 8C65.7581 8 70.3586 12.5881 61.3948 19.6436C54.2067 25.3032 59.7557 28.5302 61.3918 32.2172C57.1961 28.4428 54.1169 25.1204 56.1827 22.0281C59.2146 17.4889 67.6143 15.2881 65.7581 8Z" fill="#344154"/>
<path d="M57.1465 52.0045C65.12 52.5134 77.3643 51.7221 77.6542 47.9607C77.6542 47.9607 77.0969 49.3866 71.0645 50.5191C64.259 51.7959 55.8651 51.6469 50.8867 50.8286C50.887 50.8284 51.906 51.6694 57.1465 52.0045Z" fill="#344154"/>
<path d="M97.9933 34.6969C97.2411 35.3474 96.4467 35.7125 95.7337 35.7125C94.7161 35.7125 94.1664 35.1042 94.1664 34.1284C94.1664 33.073 94.7555 32.3013 97.1187 32.3013H97.9932L97.9933 34.6969ZM100.069 37.0317V29.8046C100.069 27.9582 99.0127 26.7401 96.4662 26.7401C94.9796 26.7401 93.6774 27.1061 92.619 27.5729L92.9245 28.8521C93.7579 28.5472 94.8366 28.2633 95.8953 28.2633C97.3622 28.2633 97.9933 28.8521 97.9933 30.0695V30.9831H97.2611C93.6971 30.9831 92.0894 32.3624 92.0894 34.4327C92.0894 36.2195 93.1489 37.2351 95.1437 37.2351C96.426 37.2351 97.3832 36.7072 98.278 35.9348L98.4404 37.0319L100.069 37.0317ZM106.996 37.0317H104.407L101.292 26.9231H103.552L105.485 33.1338L105.915 35.0016C106.893 32.301 107.585 29.5611 107.931 26.9231H110.13C109.541 30.2517 108.48 33.9053 106.996 37.0317ZM116.926 34.6969C116.172 35.3474 115.377 35.7125 114.664 35.7125C113.648 35.7125 113.097 35.1042 113.097 34.1284C113.097 33.073 113.687 32.3013 116.05 32.3013H116.926V34.6969ZM119.001 37.0317V29.8046C119.001 27.9582 117.943 26.7401 115.399 26.7401C113.912 26.7401 112.609 27.1061 111.551 27.5729L111.856 28.8521C112.69 28.5472 113.77 28.2633 114.828 28.2633C116.294 28.2633 116.926 28.8521 116.926 30.0695V30.9831H116.193C112.628 30.9831 111.021 32.3624 111.021 34.4327C111.021 36.2195 112.079 37.2351 114.074 37.2351C115.357 37.2351 116.314 36.7072 117.21 35.9348L117.373 37.0319L119.001 37.0317ZM89.8136 38.7482C89.222 39.6095 88.2663 40.2909 87.2201 40.6764L86.1953 39.4741C86.9917 39.0667 87.6746 38.4087 87.9919 37.796C88.2664 37.251 88.38 36.5485 88.38 34.8686V23.3281H90.5852V34.7105C90.585 36.9562 90.405 37.8635 89.8136 38.7482Z" fill="#344154"/>
</svg>
