<svg width="165" height="66" viewBox="0 0 165 66" fill="none" xmlns="http://www.w3.org/2000/svg">
<path d="M89.1883 24.7338H90.592L94.5911 20.7584L94.7877 19.0716C87.3469 12.543 75.988 13.2464 69.4206 20.6433C67.5946 22.6982 66.27 25.1421 65.5488 27.7872C65.9942 27.6051 66.4879 27.5764 66.9525 27.7029L74.9487 26.3918C74.9487 26.3918 75.3556 25.7229 75.5657 25.765C79.1232 21.8816 85.1102 21.4292 89.2172 24.7338H89.1883Z" fill="#344154"/>
<path d="M100.286 27.7872C99.3661 24.4232 97.4803 21.3985 94.8561 19.085L89.2451 24.6628C91.6148 26.5873 92.9645 29.4874 92.9067 32.5293V33.5203C95.6659 33.5203 97.9007 35.7438 97.9007 38.4848C97.9007 41.2277 95.664 43.4493 92.9067 43.4493H82.9168L81.9199 44.4537V50.4092L82.9168 51.4001H92.9067C98.6334 51.4442 103.714 47.7544 105.415 42.3184C107.112 36.8804 105.029 30.9767 100.286 27.7872Z" fill="#344154"/>
<path d="M72.9161 51.3445H82.906V43.3956H72.9161C72.2046 43.3956 71.5008 43.2442 70.8529 42.949L69.4492 43.3803L65.4232 47.3557L65.0723 48.7511C67.3302 50.4455 70.0855 51.356 72.9161 51.3445Z" fill="#344154"/>
<path d="M72.9141 25.556C67.3647 25.5886 62.4498 29.1212 60.6797 34.3483C58.9097 39.5754 60.6739 45.3449 65.0721 48.707L70.8663 42.947C68.352 41.818 67.2356 38.8777 68.3713 36.3782C69.507 33.8787 72.4648 32.7689 74.9792 33.8979C76.0859 34.3962 76.9729 35.2779 77.4742 36.3782L83.2684 30.6182C80.8023 27.4153 76.971 25.5426 72.9141 25.556Z" fill="#344154"/>
</svg>
