<svg width="164" height="67" viewBox="0 0 164 67" fill="none" xmlns="http://www.w3.org/2000/svg">
<path d="M99.1269 26.9055H98.6602V28.3686H98.4697V26.9055H98.0013V26.7307H99.1269V26.9055ZM101.04 28.3694H100.851V27.2708L100.866 26.9531L100.816 27.112L100.264 28.3694H100.171L99.6165 27.1223C99.5946 27.0677 99.578 27.011 99.5669 26.9531H99.5606C99.5681 27.0596 99.571 27.1664 99.5693 27.2732V28.3694H99.3882V26.7331H99.6401L100.138 27.8769C100.167 27.9405 100.192 28.006 100.212 28.0731H100.219L100.298 27.8713L100.806 26.7339H101.045V28.3702H101.044L101.04 28.3694ZM99.5614 34.449C99.5614 34.36 99.5378 34.2957 99.4874 34.2544C99.4323 34.2099 99.3363 34.1852 99.2041 34.1852H99.0128V34.7158H99.2434C99.4559 34.7158 99.5622 34.6269 99.5622 34.449H99.5614ZM99.8605 35.5546H99.5976L99.43 35.1813C99.345 34.9946 99.2536 34.9009 99.1545 34.9009H99.0128V35.5546H98.7963V33.9978H99.2292C99.4221 33.9978 99.5677 34.0399 99.6669 34.1281C99.7082 34.1644 99.741 34.2095 99.7629 34.2602C99.7848 34.3109 99.7953 34.3659 99.7936 34.4212C99.796 34.522 99.7586 34.6197 99.6897 34.6928C99.6125 34.7737 99.5115 34.8275 99.4016 34.8461V34.8525C99.4803 34.8731 99.5732 34.9684 99.6567 35.14L99.8597 35.553L99.8605 35.5546ZM100.333 34.7921C100.336 34.6494 100.31 34.5076 100.256 34.3754C100.203 34.2431 100.124 34.1233 100.023 34.0232C99.8164 33.8103 99.563 33.7158 99.2647 33.7158C98.9498 33.7158 98.7011 33.8191 98.498 34.0335C98.3985 34.134 98.3203 34.2538 98.268 34.3857C98.2158 34.5176 98.1907 34.6588 98.1942 34.8008C98.1942 35.1186 98.2997 35.3703 98.509 35.5769C98.7184 35.7834 98.9679 35.8851 99.2647 35.8851C99.4052 35.8878 99.5448 35.8615 99.6748 35.8078C99.8049 35.7541 99.9228 35.6742 100.021 35.5729C100.229 35.3664 100.333 35.109 100.333 34.8008V34.7921ZM100.478 34.7857C100.478 35.1289 100.36 35.4172 100.127 35.6491C99.8928 35.8811 99.6031 35.9986 99.2584 35.9986C98.9136 35.9986 98.6232 35.8843 98.3941 35.6587C98.1651 35.4331 98.0509 35.1424 98.0509 34.7945C98.0468 34.6342 98.0756 34.4748 98.1357 34.3263C98.1957 34.1778 98.2856 34.0435 98.3996 33.9319C98.6318 33.7047 98.9223 33.58 99.2686 33.58C99.6071 33.58 99.8928 33.6912 100.123 33.916C100.24 34.0275 100.332 34.1625 100.393 34.3123C100.454 34.462 100.483 34.6231 100.478 34.7849V34.7857ZM67.5419 39.1218H66.7942V34.8088C66.7942 34.4672 66.8162 34.0542 66.8571 33.5641H66.8414C66.7627 33.8501 66.7076 34.0582 66.6509 34.186L64.4784 39.1218H64.1148L61.9297 34.213C61.8683 34.0764 61.8038 33.8556 61.7392 33.5554H61.7235C61.7471 33.8127 61.7589 34.2305 61.7589 34.8088V39.1139H61.0387V32.6904H62.0321L63.9857 37.1702C64.0999 37.4193 64.1965 37.6762 64.2746 37.9391H64.3061L64.6107 37.1512L66.6068 32.6912H67.5419L67.5427 39.1147L67.5419 39.1218ZM69.8403 39.1218H69.1138V34.5347H69.8403V39.1218ZM69.9663 32.8905C69.9674 32.9543 69.9553 33.0175 69.9309 33.0763C69.9066 33.1351 69.8703 33.1881 69.8246 33.2321C69.7301 33.3258 69.6199 33.3711 69.4861 33.3711C69.3523 33.3711 69.2437 33.3266 69.1508 33.2361C69.0579 33.1455 69.0123 33.0311 69.0123 32.8905C69.0109 32.8276 69.0225 32.7651 69.0463 32.707C69.0702 32.6489 69.1058 32.5964 69.1508 32.553C69.2437 32.4616 69.3555 32.4179 69.4861 32.4179C69.6168 32.4179 69.7333 32.4624 69.8246 32.553C69.8701 32.5962 69.9061 32.6486 69.9304 32.7067C69.9547 32.7649 69.9666 32.8275 69.9655 32.8905H69.9663ZM74.3781 38.909C74.0294 39.125 73.613 39.2322 73.1321 39.2322C72.4804 39.2322 71.9553 39.0138 71.5539 38.5777C71.1643 38.1544 70.9683 37.6087 70.9683 36.9383C70.9683 36.1869 71.1808 35.5785 71.6114 35.1162C72.0419 34.6539 72.6134 34.4219 73.343 34.4219C73.7071 34.4152 74.0676 34.4949 74.3954 34.6547V35.4093C74.0812 35.1767 73.702 35.0508 73.3124 35.0494C73.0997 35.0424 72.888 35.0825 72.6923 35.1669C72.4966 35.2513 72.3216 35.3779 72.1797 35.5379C71.8758 35.8716 71.7216 36.3164 71.7216 36.8724C71.7216 37.4061 71.8633 37.8279 72.1419 38.1401C72.4205 38.4522 72.7952 38.6055 73.2675 38.6055C73.665 38.6055 74.0373 38.4737 74.3852 38.2116V38.909H74.3781ZM77.8517 35.279C77.7234 35.1797 77.5392 35.1313 77.296 35.1313C77 35.1313 76.745 35.2647 76.5506 35.534C76.3144 35.8358 76.2082 36.2512 76.2082 36.7834V39.1218H75.4801V34.5347H76.2082V35.4879H76.2255C76.3326 35.1527 76.4978 34.8954 76.7182 34.7127C76.9245 34.5538 77.159 34.4617 77.4149 34.4617C77.6085 34.4617 77.7533 34.4831 77.8509 34.5252V35.2877L77.8517 35.279ZM81.9086 36.8358C81.9086 36.2481 81.7771 35.8001 81.515 35.4855C81.26 35.19 80.9034 35.0423 80.4445 35.0423C79.9919 35.0423 79.629 35.1916 79.3583 35.4911C79.071 35.8104 78.9277 36.2616 78.9277 36.847C78.9277 37.403 79.0639 37.8263 79.3394 38.1337C79.6149 38.4411 79.9825 38.5976 80.4445 38.5976C80.9231 38.5976 81.2899 38.4403 81.5402 38.1274C81.7865 37.8216 81.9101 37.3887 81.9101 36.8279L81.9086 36.8358ZM82.6563 36.8017C82.6563 37.5324 82.4517 38.1202 82.0439 38.5595C81.6362 38.9987 81.0836 39.2219 80.391 39.2219C79.7085 39.2219 79.1654 39.0011 78.7663 38.5595C78.3759 38.1337 78.1799 37.5714 78.1799 36.8716C78.1799 36.0733 78.4003 35.4577 78.8466 35.0209C79.2575 34.6237 79.8069 34.4116 80.4972 34.4116C81.1757 34.4116 81.7055 34.6245 82.0872 35.0471C82.469 35.4696 82.6571 36.0558 82.6571 36.8001L82.6563 36.8017ZM86.2653 37.8851C86.269 38.0625 86.2334 38.2385 86.1611 38.4003C86.0888 38.562 85.9816 38.7054 85.8473 38.82C85.5435 39.0885 85.1255 39.2227 84.5997 39.2227C84.1692 39.2227 83.7921 39.1322 83.4718 38.9463V38.1568C83.8284 38.4491 84.2219 38.596 84.654 38.596C85.2302 38.596 85.5199 38.3815 85.5199 37.955C85.5224 37.8716 85.5066 37.7886 85.4735 37.7121C85.4405 37.6356 85.391 37.5674 85.3286 37.5126C85.2003 37.3982 84.9524 37.2552 84.5824 37.0916C84.2015 36.9232 83.9307 36.7501 83.7701 36.5713C83.578 36.3593 83.4812 36.0828 83.4812 35.7429C83.4789 35.5604 83.5182 35.3799 83.596 35.2152C83.6738 35.0505 83.788 34.906 83.9299 34.7929C84.2274 34.5403 84.6131 34.4132 85.0846 34.4132C85.4203 34.4114 85.7523 34.4847 86.0567 34.6277V35.3664C85.7567 35.1479 85.3947 35.0331 85.0248 35.0391C84.7839 35.0391 84.5903 35.0995 84.4462 35.2178C84.3767 35.2724 84.3207 35.3426 84.2827 35.4229C84.2447 35.5031 84.2258 35.5912 84.2274 35.6801C84.2274 35.8835 84.2888 36.0415 84.41 36.1543C84.5179 36.2592 84.7469 36.3863 85.0925 36.5356C85.4805 36.7 85.7615 36.8692 85.9323 37.0439C86.1543 37.264 86.2661 37.5444 86.2661 37.8859L86.2653 37.8851ZM90.7133 36.8279C90.7133 36.2401 90.5819 35.7921 90.3182 35.4776C90.064 35.1821 89.7066 35.0344 89.2477 35.0344C88.7951 35.0344 88.4323 35.1837 88.1591 35.4831C87.8726 35.8024 87.7301 36.2536 87.7301 36.839C87.7301 37.395 87.8663 37.8184 88.1394 38.1258C88.4126 38.4332 88.7849 38.5897 89.2477 38.5897C89.72 38.5897 90.0923 38.4324 90.3434 38.1194C90.5898 37.8136 90.7133 37.3807 90.7133 36.8199V36.8279ZM91.4611 36.7937C91.4611 37.5245 91.2549 38.1123 90.8472 38.5515C90.4394 38.9908 89.8884 39.214 89.1958 39.214C88.5125 39.214 87.9694 38.9932 87.5703 38.5515C87.1799 38.1258 86.9839 37.5634 86.9839 36.8636C86.9839 36.0654 87.2075 35.4498 87.6498 35.0129C88.0607 34.6158 88.6117 34.4037 89.3028 34.4037C89.9813 34.4037 90.5103 34.6166 90.8912 35.0391C91.2722 35.4617 91.4635 36.0479 91.4635 36.7921L91.4611 36.7937ZM94.6694 32.9588C94.5262 32.8794 94.3672 32.8381 94.1861 32.8381C93.6761 32.8381 93.4226 33.1622 93.4226 33.8103V34.5252H94.4884V35.1471H93.4147V39.1123H92.6859V35.1471H91.9121V34.5252H92.6859V33.7817C92.6859 33.2766 92.8394 32.881 93.1581 32.5951C93.4258 32.3472 93.7524 32.2241 94.1405 32.2241C94.3656 32.2241 94.5403 32.2511 94.6679 32.3035V32.966L94.6694 32.9588ZM97.5424 39.0575C97.3708 39.1568 97.1489 39.206 96.8576 39.206C96.0642 39.206 95.6675 38.7549 95.6675 37.8525V35.1392H94.8804V34.5165H95.6675V33.4044L96.3972 33.1662V34.5308H97.5424V35.1535H96.3972V37.7429C96.3972 38.0503 96.4468 38.2703 96.5514 38.3982C96.6561 38.5261 96.8285 38.5944 97.071 38.5944C97.2396 38.5985 97.405 38.5466 97.5417 38.4467V39.0726L97.5424 39.0575ZM58.1751 57.0238C58.1751 57.3829 58.0476 57.6942 57.791 57.9571C57.5344 58.2201 57.2243 58.3503 56.8591 58.3503C56.6888 58.3529 56.5199 58.3191 56.3634 58.2514C56.2069 58.1837 56.0663 58.0834 55.9507 57.9571C55.8304 57.8343 55.7356 57.6885 55.6717 57.5282C55.6078 57.368 55.5761 57.1965 55.5784 57.0238C55.5748 56.85 55.6059 56.6772 55.6698 56.5158C55.7338 56.3543 55.8293 56.2076 55.9507 56.0842C56.1995 55.8252 56.5017 55.6966 56.8591 55.6966C57.0328 55.6935 57.2053 55.7268 57.3657 55.7944C57.5261 55.8619 57.6709 55.9622 57.791 56.0889C58.0476 56.3511 58.1751 56.6632 58.1751 57.0238ZM74.4741 58.0803H72.1073L63.4898 44.6565C63.2883 44.3333 63.1151 43.983 62.9672 43.6001H62.8884C62.9498 43.9591 62.9813 44.7312 62.9813 45.9131V58.0818H61.0324V41.2387H63.5725L71.9317 54.4503L72.6071 55.5758H72.6543C72.5772 55.0992 72.5362 54.2652 72.5362 53.1V41.2387H74.4804V58.0795L74.4741 58.0803ZM87.0209 58.0803H78.1791V41.2387H86.6455V43.0235H80.1359V48.6257H86.1685V50.4113H80.1359V56.2947H87.0312V58.0803H87.0209ZM100.444 43.0235H95.6423V58.0803H93.6863V43.0235H88.8675V41.2379H100.444V43.0235Z" fill="#344154"/>
<path d="M73.8172 12.1505C75.7063 17.9727 76.4202 28.3542 81.9403 28.3542C82.3607 28.3542 82.7857 28.3129 83.2115 28.2311C78.1928 27.0508 77.5978 16.7757 74.5358 11.4554C74.2958 11.6755 74.0573 11.905 73.8164 12.1441" fill="#4B5A6F"/>
<path d="M74.5371 11.4618C77.599 16.7837 78.1941 27.058 83.2128 28.2375C83.6156 28.1606 84.0119 28.0525 84.3982 27.9142C79.8935 25.6902 78.6475 15.7114 75.1707 10.9082C74.956 11.0889 74.7448 11.2737 74.5371 11.4626" fill="#4B5A6F"/>
<path d="M78.9528 8.29749C78.5259 8.29829 78.1001 8.33951 77.6808 8.4206C76.5631 8.63268 75.4296 9.118 74.2852 9.85273C74.5976 10.1641 74.8952 10.5199 75.1746 10.9092C76.338 9.93534 77.4943 9.2157 78.638 8.78281C79.0709 8.62156 79.5007 8.50003 79.9328 8.41981C79.6101 8.33793 79.2785 8.2971 78.9457 8.29828" fill="#344154"/>
<path d="M87.9178 25.8631L89.3031 24.6383C87.3849 18.8423 86.6977 8.30505 81.1382 8.30505C80.7407 8.30505 80.3393 8.34239 79.9395 8.41626C85.0038 9.68714 85.6524 20.8074 87.9178 25.8615" fill="#4B5A6F"/>
<path d="M79.9363 8.41901C79.6246 8.33958 79.2963 8.29749 78.9492 8.29749L81.1359 8.30543C80.7337 8.30557 80.3324 8.34333 79.9371 8.41822" fill="#344154"/>
<path d="M87.8158 27.0945C87.5944 26.8788 87.3852 26.6507 87.1892 26.4114C86.2541 27.0786 85.3221 27.5854 84.3965 27.9158C84.7255 28.0778 85.071 28.1986 85.4379 28.2732C85.7298 28.3327 86.0271 28.3623 86.3249 28.3614C87.3639 28.3614 88.1849 28.2375 88.8847 27.8991C88.499 27.6894 88.1464 27.417 87.8165 27.0945" fill="#344154"/>
<path d="M78.6426 8.7828C83.1788 11.176 83.5731 22.0119 87.1923 26.4116C87.4385 26.2361 87.6794 26.0533 87.9149 25.8635C85.6496 20.8014 85.0026 9.68751 79.9382 8.41821C79.5053 8.50003 79.0747 8.62076 78.6426 8.78359" fill="#4B5A6F"/>
<path d="M75.1719 10.9083C78.6494 15.7122 79.8946 25.6902 84.3994 27.9159C85.325 27.5862 86.257 27.0795 87.1921 26.4115C83.5729 22.011 83.1777 11.1752 78.6423 8.78271C77.4907 9.21402 76.3345 9.93445 75.179 10.9083" fill="#344154"/>
<path d="M71.5914 12.0099C71.0459 13.253 70.4894 14.8869 69.8164 17.0204C71.1545 15.118 72.4895 13.4778 73.8166 12.1513C73.6492 11.622 73.4521 11.1027 73.2262 10.5961C72.6567 11.0376 72.1112 11.5098 71.5922 12.0107" fill="#4B5A6F"/>
<path d="M73.713 10.2369L73.2305 10.5944C73.4561 11.1011 73.6529 11.6203 73.82 12.1496L74.5395 11.461C74.2829 11.0162 74.0097 10.6047 73.713 10.2354" fill="#344154"/>
<path d="M74.2785 9.85169L73.707 10.2361C74.0038 10.6047 74.2769 11.0161 74.5335 11.4625L75.1671 10.9065C74.8877 10.5173 74.5902 10.1623 74.2777 9.8501" fill="#344154"/>
<path d="M105.22 7.85407C102.646 17.8329 97.2957 25.8474 92.8036 27.8681L92.5517 27.973C92.5407 27.9793 92.5305 27.9809 92.5218 27.9849C92.4982 27.9944 92.4761 28.0008 92.4525 28.0111C92.4415 28.0175 92.4313 28.019 92.421 28.0238C92.3833 28.0373 92.3463 28.0492 92.3093 28.0635C92.2935 28.0699 92.2778 28.0746 92.262 28.0794C92.2463 28.0842 92.2258 28.0921 92.2069 28.0977C92.1881 28.1032 92.1723 28.1096 92.1518 28.1167C92.1314 28.1239 92.1188 28.1263 92.1046 28.1326C92.0716 28.1422 92.0416 28.1501 92.0086 28.162C91.9952 28.162 91.9826 28.17 91.9692 28.1731C91.9488 28.1795 91.9259 28.1851 91.9047 28.1906C91.8889 28.197 91.8771 28.1986 91.8606 28.2025C91.837 28.2089 91.8134 28.2152 91.7819 28.2208L91.6953 28.2399C91.8984 28.3153 92.1101 28.3534 92.3384 28.3534C96.5983 28.3534 100.893 20.6543 107.999 7.8501H105.209L105.209 7.85248L105.22 7.85407Z" fill="#4B5A6F"/>
<path d="M68.8939 8.7024C68.905 8.69605 68.9097 8.69605 68.912 8.6889C68.9412 8.68096 68.9632 8.67142 68.9868 8.66269C69.0065 8.65633 69.012 8.64918 69.0183 8.64839L69.0923 8.62218C69.1529 8.60629 69.2049 8.58405 69.2599 8.56419C69.2678 8.56419 69.2757 8.55784 69.2836 8.55784L69.3544 8.53639C69.3654 8.53004 69.3764 8.53004 69.3859 8.52607L69.4646 8.50462C69.4748 8.50462 69.4843 8.49827 69.4914 8.49668L69.7259 8.43552C69.737 8.43552 69.7464 8.42916 69.7574 8.42757C69.7799 8.42128 69.8028 8.41677 69.8259 8.41407C69.8361 8.40771 69.8479 8.40771 69.8597 8.40374C69.8834 8.39739 69.9046 8.3958 69.929 8.39103H69.9448L70.0864 8.36482H70.1148C70.1384 8.35847 70.1581 8.35688 70.1801 8.35291C70.1927 8.35291 70.2053 8.34655 70.2171 8.34655C70.2383 8.34655 70.2596 8.3402 70.2801 8.33702C70.2911 8.33702 70.3021 8.33702 70.3147 8.33067L70.4682 8.31716L70.0148 8.29333C65.2181 8.29333 58.6093 17.2706 55.6309 28.8976H56.2055C57.1579 27.1835 58.0143 25.5615 58.7967 24.0404C60.8826 15.8059 65.1291 10.1893 68.9018 8.7024" fill="#344154"/>
<path d="M71.5945 12.01C72.1136 11.5091 72.6591 11.0368 73.2286 10.5954L72.839 9.83679C72.3998 10.3737 71.9991 11.0823 71.5938 12.0108" fill="#344154"/>
<path d="M71.9911 8.77158C72.3044 9.03688 72.5854 9.40146 72.8412 9.83833L73.0891 9.55873C72.7447 9.22984 72.354 8.95414 71.9297 8.7406C71.9463 8.74973 71.9634 8.75795 71.9809 8.76522" fill="#4B5A6F"/>
<path d="M58.791 24.0412C63.1651 15.5398 65.2454 10.1592 68.8961 8.70325C65.1242 10.1918 60.8753 15.8083 58.791 24.0412Z" fill="#4B5A6F"/>
<path d="M73.0839 9.55798L72.8359 9.83758C72.9729 10.0695 73.1012 10.3142 73.2264 10.5961L73.7089 10.2387C73.5165 9.9976 73.3077 9.77041 73.0839 9.55878" fill="#4B5A6F"/>
<path d="M60.7764 28.8594C60.7497 28.8658 60.7213 28.8658 60.6977 28.869C60.6599 28.869 60.6363 28.8753 60.6151 28.8753L60.4435 28.8864H60.4277C64.8553 28.7617 66.879 26.5258 67.8818 23.2834L69.8213 17.0084C67.9668 19.6407 66.1045 22.779 64.2311 26.2938C63.3283 27.9881 61.9548 28.6958 60.7772 28.8475" fill="#344154"/>
<path d="M60.7742 28.8577C61.9518 28.7068 63.3245 27.9999 64.2281 26.304C66.1015 22.7893 67.9646 19.6502 69.8167 17.0186C70.4905 14.8851 71.047 13.2521 71.5925 12.0082C67.9009 15.5532 64.1935 21.4485 60.7734 28.8553" fill="#4B5A6F"/>
<path d="M58.7885 24.0413L56.1973 28.8984H57.866C58.0864 27.1962 58.4012 25.5735 58.7885 24.0421" fill="#4B5A6F"/>
<path d="M70.3074 8.33454C70.294 8.33454 70.2837 8.34089 70.2719 8.34089C70.2515 8.34724 70.231 8.34725 70.209 8.34883C70.1964 8.34883 70.1853 8.34883 70.172 8.35519C70.1484 8.36154 70.1279 8.36313 70.1066 8.3671C70.0964 8.3671 70.0862 8.3671 70.0783 8.37346L69.9366 8.39887H69.9209C69.8981 8.40484 69.875 8.40935 69.8516 8.41238C69.8398 8.41873 69.828 8.41873 69.817 8.42191C69.7934 8.42826 69.7713 8.43144 69.7493 8.43541C69.7375 8.44177 69.728 8.44177 69.7178 8.44336L69.4832 8.50452C69.4754 8.50452 69.4675 8.51087 69.4565 8.51246L69.3778 8.53391C69.3675 8.54026 69.3557 8.54026 69.3463 8.54344L69.2754 8.56488C69.266 8.56488 69.2597 8.57124 69.2502 8.57124L69.0873 8.62922L69.0133 8.65544C69.0031 8.66179 68.9936 8.66338 68.9818 8.66814C68.9582 8.67609 68.9346 8.68403 68.9126 8.69436C68.9047 8.70071 68.8968 8.7023 68.889 8.70548C65.2312 10.1622 63.1587 15.5428 58.7838 24.0435C58.3797 25.642 58.0716 27.2638 57.8613 28.8998H58.0959L59.9771 28.8935H60.4352C60.4872 28.8871 60.5415 28.8871 60.5958 28.8824H60.606C60.6296 28.8824 60.6517 28.876 60.6737 28.876H60.6895C60.7131 28.876 60.7414 28.8697 60.7682 28.8665C64.1875 21.458 67.8948 15.5635 71.5872 12.0193C71.9934 11.0916 72.3932 10.383 72.8309 9.84689C72.5751 9.41002 72.2941 9.05259 71.9808 8.77935L71.9713 8.77299C71.9532 8.76505 71.9367 8.75711 71.9194 8.74757C71.9021 8.73804 71.8863 8.73169 71.8682 8.72136C71.851 8.71401 71.8342 8.70579 71.8178 8.69674C71.7958 8.69038 71.7785 8.68085 71.7588 8.67132C71.7391 8.66179 71.7273 8.65782 71.7116 8.65067C71.6785 8.63796 71.6463 8.62446 71.6148 8.61095C71.6006 8.6046 71.5872 8.60063 71.5738 8.59507C71.5494 8.58596 71.5253 8.57616 71.5014 8.56568C71.4896 8.55932 71.4762 8.55773 71.4621 8.55297L71.3621 8.51802H71.3542C71.3149 8.50531 71.2779 8.49578 71.2377 8.48466C71.2283 8.47831 71.222 8.4783 71.2118 8.47672L71.1142 8.44892C71.1063 8.44892 71.0984 8.44256 71.0905 8.44256C71.0118 8.42112 70.93 8.40443 70.8465 8.38855C70.8387 8.38855 70.8308 8.38219 70.8213 8.38219C70.7864 8.37532 70.7512 8.36976 70.7159 8.36551C70.708 8.35916 70.7025 8.35916 70.6946 8.35916C70.6521 8.3528 70.6112 8.34725 70.5703 8.34327H70.5482C70.5144 8.33692 70.4837 8.33533 70.4522 8.33215C70.3994 8.33851 70.3483 8.34168 70.2987 8.34645" fill="#344154"/>
<path d="M95.2033 13.3785L93.0859 20.1856C95.3954 16.9806 97.6702 12.9479 99.8363 8.29492C97.3175 9.09558 95.9613 10.9272 95.2025 13.3769" fill="#4B5A6F"/>
<path d="M93.1565 27.6981L92.8047 27.8681C97.2968 25.8474 102.655 17.8328 105.221 7.854H104.701C98.8073 18.4738 96.9119 25.5829 93.1573 27.6981" fill="#4B5A6F"/>
<path d="M90.2264 26.806C91.204 25.6026 91.9998 23.5494 93.0868 20.1863C91.8329 21.9234 90.5711 23.4159 89.3086 24.6344C89.5778 25.4779 89.88 26.2135 90.2248 26.806" fill="#4B5A6F"/>
<path d="M90.2248 26.8062C89.8919 27.216 89.54 27.5274 89.148 27.7593L88.8867 27.9007C89.3117 28.133 89.7769 28.281 90.2571 28.3368L90.4814 28.3566H90.4948C90.5294 28.3566 90.5735 28.3566 90.6026 28.363H90.9679C90.9812 28.363 90.9954 28.363 91.0088 28.3566C91.0348 28.3566 91.0639 28.3566 91.0899 28.3503H91.1292C91.1568 28.3503 91.1875 28.3439 91.2158 28.3407C91.2315 28.3407 91.241 28.3344 91.2496 28.3344C91.2811 28.328 91.3126 28.3249 91.3441 28.3201H91.3717L91.4771 28.3026H91.4834L91.7038 28.2581C91.1245 28.0437 90.6388 27.5393 90.2209 26.8284" fill="#344154"/>
<path d="M81.9453 28.3633C82.3656 28.3633 82.7907 28.322 83.2165 28.2394C83.6194 28.1631 84.0157 28.0553 84.4019 27.9169C84.7325 28.0789 85.0765 28.1996 85.4425 28.2743C85.7348 28.3338 86.0323 28.3634 86.3304 28.3625H81.9461L81.9453 28.3633Z" fill="#344154"/>
<path d="M86.334 28.3623C87.373 28.3623 88.194 28.2384 88.8922 27.9C89.3172 28.1323 89.7824 28.2803 90.2626 28.3361L90.4869 28.356H90.5003C90.5349 28.356 90.579 28.356 90.6081 28.3623H90.734H86.3301H86.3332H86.334Z" fill="#344154"/>
<path d="M90.7297 28.3622H90.9698C90.984 28.3622 90.9974 28.3622 91.0107 28.3558C91.0367 28.3558 91.0658 28.3558 91.0926 28.3495H91.132C91.1595 28.3495 91.1902 28.3431 91.2107 28.3399C91.2264 28.3399 91.2359 28.3336 91.2445 28.3336C91.276 28.3272 91.3075 28.324 91.339 28.3193C91.3492 28.3193 91.3571 28.3193 91.3681 28.3129L91.4736 28.297H91.4799L91.7003 28.2526C91.9034 28.328 92.1151 28.3661 92.3434 28.3661L90.7242 28.3725L90.7227 28.3646L90.7297 28.3622Z" fill="#1D60B5"/>
<path d="M89.3048 24.6448L87.9195 25.8624L87.1953 26.4185C87.3913 26.6578 87.6005 26.8859 87.8219 27.1016C88.1525 27.424 88.5051 27.6973 88.89 27.9062L89.1497 27.7648C89.5433 27.5344 89.8944 27.2215 90.2281 26.8116C89.8834 26.2183 89.5811 25.4836 89.3056 24.6511" fill="#344154"/>
<path d="M103.059 7.854H100.442L100.027 7.87466L99.8346 8.29087C97.6685 12.9439 95.3937 16.9758 93.085 20.1816C91.151 22.6381 91.2022 25.5987 90.2246 26.8013C90.6418 27.5202 91.1282 28.0261 91.7068 28.239C91.7225 28.2326 91.7383 28.2326 91.7524 28.2287H91.7619C91.7721 28.2287 91.7831 28.2223 91.7934 28.2223C91.817 28.216 91.8422 28.2112 91.8658 28.2041C91.8815 28.1977 91.8933 28.1961 91.9091 28.1921C91.9311 28.1858 91.9539 28.1802 91.9736 28.1762C91.987 28.1699 92.0004 28.1683 92.013 28.1643C92.0468 28.1532 92.0759 28.1453 92.109 28.1349C92.1247 28.1286 92.1405 28.123 92.1562 28.1191C92.172 28.1151 92.1932 28.1071 92.2113 28.0992C92.2294 28.0913 92.2507 28.0889 92.2664 28.0817C92.2822 28.0746 92.2979 28.0706 92.3121 28.0658C92.3499 28.0523 92.3868 28.0404 92.4246 28.0261C92.4349 28.0261 92.4451 28.0166 92.4561 28.0142C92.4797 28.0047 92.5033 27.9983 92.5254 27.9872C92.5333 27.9809 92.5443 27.9793 92.5545 27.9761L92.7969 27.8712H92.8048C92.9234 27.8179 93.0405 27.7612 93.1559 27.7013C96.9105 25.5852 98.8074 18.4762 104.701 7.85718H103.056L103.057 7.85639L103.059 7.854Z" fill="#344154"/>
<path d="M70.4609 8.32047C70.4704 8.32047 70.479 8.32048 70.4877 8.32683C70.5113 8.32683 70.5333 8.32683 70.5562 8.33477H70.5798L70.7042 8.35066C70.712 8.35066 70.7183 8.35066 70.7254 8.35701L70.8309 8.37449C70.8388 8.37449 70.849 8.38084 70.8569 8.38084L71.0993 8.43485C71.1072 8.43485 71.115 8.44121 71.1213 8.44121L71.2189 8.46901C71.2292 8.46901 71.2363 8.47536 71.2457 8.47695L71.3614 8.51031L71.4716 8.55162C71.485 8.55797 71.4976 8.56115 71.511 8.56433L71.5834 8.59451C71.5968 8.59451 71.6101 8.60404 71.6243 8.60881L71.7203 8.64852L71.7676 8.66917C71.7863 8.67913 71.8058 8.68762 71.8258 8.69459L71.877 8.71842L71.9281 8.74463C72.3523 8.95848 72.743 9.23414 73.0876 9.56277C73.2152 9.42723 73.3525 9.30139 73.4985 9.18627C72.7199 8.61405 71.7807 8.30741 70.8175 8.31094L70.4617 8.32683" fill="#4B5A6F"/>
<path d="M73.084 9.55777C73.302 9.76271 73.5114 9.99146 73.709 10.2377L74.2804 9.85326C74.0309 9.60146 73.7688 9.37667 73.4933 9.18127C73.3516 9.29248 73.2146 9.41957 73.084 9.55777Z" fill="#4B5A6F"/>
<path d="M70.4612 8.32099L70.817 8.30669C71.8355 8.30669 72.7187 8.62441 73.4979 9.18042C74.3197 8.52592 75.313 8.29716 76.6944 8.29716H70.0078C70.1621 8.29716 70.3124 8.30669 70.4612 8.32099Z" fill="#4B5A6F"/>
<path d="M76.6954 8.29717C75.3147 8.29717 74.3206 8.52593 73.498 9.18044C73.7712 9.37504 74.0333 9.60142 74.2836 9.85242C75.4289 9.11848 76.5623 8.63237 77.6808 8.41949C78.0999 8.33913 78.5255 8.29818 78.952 8.29717H76.6954Z" fill="#4B5A6F"/>
<path d="M93.0809 20.1881L95.2062 13.3785C95.9658 10.9281 97.3117 9.09565 99.8384 8.29659L100.033 7.88037C95.9138 8.12899 93.9877 10.2426 93.0274 13.3722C91.3099 18.8354 90.2922 22.378 89.3027 24.6338C90.5645 23.4169 91.827 21.9229 93.0809 20.1881Z" fill="#4B5A6F"/>
</svg>
