<svg width="48" height="48" viewBox="0 0 48 48" fill="none" xmlns="http://www.w3.org/2000/svg">
<g clip-path="url(#clip0_4675_14177)">
<path d="M37.8563 17.2852V32.2754L25.1777 38.9888V23.9943L37.8563 17.2852Z" fill="#0755E9"/>
<path d="M10.8086 17.2852L23.4871 23.9942V38.9887L10.8086 32.2753V17.2852Z" fill="#0755E9"/>
<path d="M24.3331 9.23047L36.8967 15.8817L24.3331 22.533L11.7695 15.8817L24.3331 9.23047Z" fill="#0755E9"/>
<path d="M7.42791 0.666992C4.22725 0.666992 2.38261 2.14218 1.52013 3.62067C0.65706 5.10051 0.666019 6.58365 0.666019 6.58365V11.6551C0.666019 12.1216 1.04473 12.5003 1.51126 12.5003C1.97778 12.5003 2.35649 12.1216 2.35649 11.6551V6.58365C2.35649 6.58365 2.36541 5.53107 2.98183 4.47521C3.59826 3.41798 4.71195 2.35747 7.42795 2.35747H11.6541C12.1207 2.35747 12.4994 1.97876 12.4994 1.51223C12.4994 1.0457 12.1207 0.666992 11.6541 0.666992H7.42791Z" fill="#E7ECF8"/>
<path d="M37.0113 0.666992C36.5447 0.666992 36.166 1.0457 36.166 1.51223C36.166 1.97876 36.5447 2.35747 37.0113 2.35747H41.2374C43.9534 2.35747 45.0671 3.41798 45.6835 4.47521C46.3 5.53107 46.3089 6.58365 46.3089 6.58365V11.6551C46.3089 12.1216 46.6876 12.5003 47.1541 12.5003C47.6207 12.5003 47.9994 12.1216 47.9994 11.6551V6.58365C47.9994 6.58365 48.0083 5.10051 47.1452 3.62067C46.2829 2.14218 44.4382 0.666992 41.2375 0.666992H37.0113Z" fill="#E7ECF8"/>
<path d="M1.51126 36.167C1.04473 36.167 0.666019 36.5457 0.666019 37.0122V42.0836C0.666019 42.0836 0.657105 43.5668 1.52013 45.0466C2.38253 46.5251 4.22717 48.0003 7.42791 48.0003H11.6541C12.1206 48.0003 12.4993 47.6216 12.4993 47.1551C12.4993 46.6885 12.1206 46.3098 11.6541 46.3098H7.42791C4.71191 46.3098 3.59823 45.2493 2.9818 44.1921C2.36537 43.1408 2.35646 42.0836 2.35646 42.0836V37.0122C2.35646 36.5457 1.97775 36.167 1.51122 36.167H1.51126Z" fill="#E7ECF8"/>
<path d="M47.1541 36.167C46.6876 36.167 46.3089 36.5457 46.3089 37.0122V42.0836C46.3089 42.0836 46.3 43.1409 45.6835 44.1921C45.0671 45.2493 43.9534 46.3098 41.2374 46.3098H37.0113C36.5447 46.3098 36.166 46.6885 36.166 47.1551C36.166 47.6216 36.5447 48.0003 37.0113 48.0003H41.2374C44.4381 48.0003 46.2827 46.5251 47.1452 45.0466C48.0073 43.5678 47.9993 42.0836 47.9993 42.0836V37.0122C47.9993 36.5457 47.6206 36.167 47.1541 36.167H47.1541Z" fill="#E7ECF8"/>
</g>
<defs>
<clipPath id="clip0_4675_14177">
<rect width="48" height="48" fill="white"/>
</clipPath>
</defs>
</svg>
