<svg width="49" height="48" viewBox="0 0 49 48" fill="none" xmlns="http://www.w3.org/2000/svg">
<path d="M24.676 32.9969C24.7371 33.2609 24.8602 33.5072 25.0348 33.715C25.2422 33.9397 25.5087 34.1013 25.8035 34.1821L24.7477 35.0653H16.566C16.2914 35.0729 16.0254 34.9715 15.8262 34.7829C15.6266 34.5943 15.5102 34.3341 15.503 34.0599C15.5068 33.4875 15.972 33.0252 16.5444 33.0252L24.676 32.9969ZM19.935 30.3821C19.6445 30.358 19.3573 30.4561 19.1433 30.6534C18.9287 30.8506 18.807 31.1286 18.807 31.4201C18.807 31.7111 18.9287 31.9892 19.1433 32.1864C19.3573 32.3836 19.6445 32.4822 19.935 32.4582H24.6543C24.6899 32.0738 24.8693 31.7169 25.157 31.4596L26.3494 30.3821H19.935ZM29.2731 27.7673H24.1656C23.5932 27.7711 23.1314 28.2363 23.1314 28.8087C23.1295 29.0838 23.2377 29.3479 23.432 29.5422C23.6264 29.737 23.8909 29.8453 24.1656 29.8434H26.9526L29.2731 27.7673ZM33.2742 34.0601L36.2407 31.1364C36.6405 30.717 37.1917 30.4765 37.7709 30.4683H39.9763C40.442 28.5813 40.442 26.609 39.9763 24.7215H34.1791C33.777 24.721 33.3873 24.8634 33.0804 25.1241L29.9701 27.8106L25.5091 31.8261V31.8256C25.283 32.0277 25.1589 32.3201 25.1714 32.6232V32.7021C25.1839 32.9296 25.2753 33.1456 25.4302 33.313C25.6716 33.5828 26.0363 33.7079 26.3927 33.6434L31.6507 29.118C31.7609 29.0424 31.909 29.0573 32.0019 29.1536C32.0942 29.2498 32.1039 29.3984 32.024 29.5057L26.7082 34.0884H26.6722L25.0271 35.5252H25.0276C24.9804 35.5617 24.9222 35.582 24.8626 35.5829H18.3043C17.9994 35.5824 17.7074 35.7041 17.4924 35.9201C17.2956 36.1101 17.1754 36.366 17.1547 36.6388C17.1383 36.9408 17.2509 37.2357 17.4635 37.4502C17.7064 37.7033 18.0402 37.848 18.3904 37.8524H26.5077C26.7963 37.8504 27.0801 37.7764 27.3336 37.6369L31.7296 35.137V35.1375C32.2895 34.8474 32.8085 34.4852 33.2742 34.06L33.2742 34.0601ZM32.6061 4.15635V4.15587C32.8432 4.20397 33.0871 4.20397 33.3243 4.15587C34.0102 4.03513 34.5889 3.5772 34.865 2.93792C35.1406 2.29865 35.0762 1.56366 34.6938 0.981572C34.3109 0.400011 33.6615 0.0498337 32.9655 0.0498337C32.269 0.0498337 31.6195 0.400024 31.2367 0.981572C30.8543 1.56361 30.7898 2.29857 31.0659 2.93792C31.3416 3.5772 31.9202 4.03514 32.6062 4.15587L32.6061 4.15635ZM33.3243 43.9089V43.9084C33.0871 43.8608 32.8432 43.8608 32.6061 43.9084C31.923 44.0297 31.3464 44.4857 31.0721 45.123C30.7975 45.7599 30.8619 46.4925 31.2429 47.0716C31.6243 47.6512 32.2713 48 32.9654 48C33.659 48 34.306 47.6513 34.6874 47.0716C35.0689 46.4925 35.1328 45.7599 34.8586 45.123C34.584 44.4857 34.0072 44.0297 33.3242 43.9084L33.3243 43.9089ZM42.5907 39.8068C42.5907 39.7116 42.5531 39.6202 42.4858 39.5529C42.4185 39.4855 42.3271 39.448 42.2318 39.448H32.9654C32.7668 39.448 32.6061 39.6087 32.6061 39.8068V43.1543C32.8442 43.1163 33.0866 43.1163 33.3243 43.1543V40.1662H42.2318C42.43 40.1662 42.5907 40.0055 42.5907 39.8068H42.5907ZM42.2313 8.55965H42.2318C42.43 8.55965 42.5907 8.39898 42.5907 8.2008C42.5907 8.00214 42.43 7.84147 42.2318 7.84147H33.3242V4.85332C33.0866 4.89132 32.8442 4.89132 32.6061 4.85332V8.2008C32.6061 8.29604 32.6441 8.38743 32.7114 8.45478C32.7788 8.52212 32.8702 8.55964 32.9654 8.55964H42.2318L42.2313 8.55965ZM42.4973 3.53153C41.5565 3.53153 40.68 4.8606 39.9547 7.12332H42.2319C42.8269 7.12332 43.3093 7.60579 43.3093 8.20081C43.3093 8.79583 42.8269 9.2783 42.2319 9.2783H39.3582C38.389 14.125 37.9363 19.0613 38.008 24.0036H40.5295L40.6662 24.5423H40.6657C41.1578 26.5381 41.1578 28.6238 40.6657 30.6196L40.5363 31.1728L38.2952 31.1723C38.4833 33.7136 38.846 36.2385 39.3799 38.7291H42.2531C42.8486 38.7291 43.3306 39.2116 43.3306 39.8066C43.3306 40.4016 42.8486 40.8841 42.2531 40.8841H39.9259C40.6441 43.1468 41.5278 44.4759 42.4686 44.4759C44.9468 44.4759 46.9579 35.31 46.9579 24.0036C46.9584 12.6972 44.9541 3.53132 42.4974 3.53132L42.4973 3.53153ZM33.8774 14.7086C34.0814 14.5095 34.1911 14.2324 34.179 13.9471C34.179 13.6715 34.0694 13.4074 33.8736 13.2131C33.6783 13.0193 33.4132 12.911 33.1376 12.9129H24.9343L23.8784 13.8255V13.825C24.1733 13.9058 24.4398 14.0674 24.6471 14.292C24.8217 14.4999 24.9449 14.7461 25.006 15.0102H33.116C33.3911 15.0136 33.6557 14.9049 33.8485 14.7086L33.8774 14.7086ZM30.4872 17.3234C30.7802 17.0276 30.8687 16.5855 30.7123 16.1997C30.556 15.8135 30.1851 15.558 29.7686 15.5489H25.0276C24.992 15.9332 24.8126 16.2901 24.525 16.5475L23.3325 17.625H29.7469C30.024 17.6269 30.2905 17.5182 30.4872 17.3234H30.4872ZM26.2778 19.931C26.5726 19.6371 26.6626 19.1946 26.5058 18.8088C26.349 18.4226 25.9757 18.1686 25.5591 18.1638H22.7293L20.4232 20.2398H25.5163C25.802 20.2489 26.0786 20.1369 26.2777 19.931L26.2778 19.931ZM16.4077 13.9471L13.4412 16.8707C13.0415 17.2902 12.4902 17.5307 11.9111 17.5389H9.75609C9.28997 19.4259 9.28997 21.3981 9.75609 23.2856H15.5029C15.905 23.2861 16.2946 23.1437 16.6015 22.883L19.7118 20.1966L24.1729 16.181V16.1815C24.399 15.9795 24.5231 15.687 24.5106 15.384V15.3051C24.4981 15.0776 24.4067 14.8616 24.2518 14.6942C24.0103 14.4244 23.6457 14.2993 23.2892 14.3637L18.0312 18.8892C17.9211 18.9647 17.7729 18.9498 17.6801 18.8536C17.5877 18.7574 17.5781 18.6088 17.6579 18.5015L22.9737 13.9188H23.0098L24.6548 12.482H24.6544C24.7015 12.4454 24.7597 12.4252 24.8193 12.4242H31.3776C31.6826 12.4247 31.9746 12.303 32.1896 12.087C32.3945 11.8879 32.5157 11.618 32.5273 11.3328C32.5436 11.0307 32.4311 10.7358 32.2185 10.5208C31.9828 10.2635 31.6542 10.111 31.306 10.097H23.1743C22.8857 10.0994 22.6019 10.1735 22.3484 10.3125L17.9524 12.8124C17.3891 13.1198 16.8696 13.5017 16.4078 13.9472L16.4077 13.9471ZM16.3572 43.1255L16.3577 43.126C16.5953 43.0875 16.8377 43.0875 17.0758 43.126V39.8069C17.0758 39.7117 17.0378 39.6203 16.9705 39.553C16.9032 39.4856 16.8118 39.4481 16.7165 39.4481H7.45011C7.25193 39.4481 7.09126 39.6088 7.09126 39.8069C7.09126 40.0056 7.25193 40.1663 7.45011 40.1663H16.3572L16.3572 43.1255ZM17.0754 43.8437L17.0758 43.8441C16.8387 43.7965 16.5948 43.7965 16.3577 43.8441C15.6717 43.9649 15.093 44.4228 14.8169 45.0621C14.5413 45.7014 14.6058 46.4363 14.9882 47.0184C15.3711 47.6 16.0204 47.9502 16.7165 47.9502C17.413 47.9502 18.0624 47.6 18.4452 47.0184C18.8277 46.4364 18.8921 45.7014 18.616 45.0621C18.3404 44.4228 17.7617 43.9649 17.0758 43.8441L17.0754 43.8437ZM16.3572 4.09108L16.3577 4.09157C16.5948 4.13967 16.8387 4.13967 17.0758 4.09157C17.7589 3.97083 18.3356 3.51434 18.6098 2.87746C18.8845 2.24011 18.82 1.50751 18.4391 0.928377C18.0576 0.348749 17.4106 0 16.7165 0C16.0229 0 15.3759 0.348737 14.9945 0.928377C14.6131 1.50752 14.5491 2.24008 14.8233 2.87746C15.098 3.51434 15.6747 3.97082 16.3578 4.09157L16.3572 4.09108ZM7.09128 8.20044C7.09128 8.29569 7.1288 8.38708 7.19615 8.45442C7.26349 8.52177 7.35489 8.55929 7.45012 8.55929H16.7165C16.8118 8.55929 16.9032 8.52177 16.9705 8.45442C17.0379 8.38708 17.0759 8.29568 17.0759 8.20044V4.85296C16.8378 4.89096 16.5953 4.89096 16.3577 4.85296V7.84112H7.45012C7.25194 7.84112 7.09127 8.00178 7.09127 8.20044H7.09128ZM6.37312 39.8072L6.37264 39.8067C6.37264 39.2117 6.85511 38.7292 7.45013 38.7292H10.3238C11.293 33.8825 11.7457 28.9462 11.674 24.004H9.15293L9.03797 23.4363C8.54588 21.4406 8.54588 19.3553 9.03797 17.3596L9.16736 16.8064H11.4013C11.2069 14.2747 10.8399 11.7595 10.3021 9.27836H7.429C6.8335 9.27836 6.35151 8.79589 6.35151 8.20087C6.35151 7.60585 6.8335 7.12338 7.429 7.12338H9.75613C9.03797 4.86066 8.1543 3.53159 7.2135 3.53159C4.72801 3.53159 2.69531 12.6975 2.69531 24.0039C2.69531 35.3103 4.72813 44.4762 7.18468 44.4762C8.12556 44.4762 9.00201 43.1471 9.72731 40.8844H7.45018C6.85516 40.8844 6.37269 40.4019 6.37269 39.8069L6.37312 39.8072Z" fill="#E7ECF8"/>
<path d="M24.6394 32.9969C24.7005 33.2609 24.8237 33.5072 24.9983 33.715C25.2056 33.9397 25.4721 34.1013 25.767 34.1821L24.7111 35.0653H16.5295C16.2548 35.0729 15.9888 34.9715 15.7896 34.7829C15.59 34.5943 15.4736 34.3341 15.4664 34.0599C15.4702 33.4875 15.9354 33.0252 16.5078 33.0252L24.6394 32.9969ZM19.8985 30.3821C19.6079 30.358 19.3208 30.4561 19.1067 30.6534C18.8922 30.8506 18.7705 31.1286 18.7705 31.4201C18.7705 31.7111 18.8922 31.9892 19.1067 32.1864C19.3208 32.3836 19.6079 32.4822 19.8985 32.4582H24.6178C24.6534 32.0738 24.8328 31.7169 25.1204 31.4596L26.3129 30.3821H19.8985ZM29.2366 27.7673H24.129C23.5566 27.7711 23.0948 28.2363 23.0948 28.8087C23.0929 29.0838 23.2011 29.3479 23.3955 29.5422C23.5898 29.7371 23.8544 29.8453 24.129 29.8434H26.9161L29.2366 27.7673ZM33.2377 34.0601L36.2042 31.1364C36.6039 30.717 37.1551 30.4765 37.7343 30.4683H39.9398C40.4054 28.5813 40.4054 26.609 39.9398 24.7215H34.1425C33.7404 24.721 33.3508 24.8634 33.0439 25.1241L29.9335 27.8106L25.4725 31.8261V31.8256C25.2464 32.0277 25.1223 32.3201 25.1348 32.6232V32.7021C25.1473 32.9296 25.2387 33.1456 25.3936 33.313C25.6351 33.5828 25.9997 33.7079 26.3561 33.6434L31.6142 29.118C31.7243 29.0424 31.8725 29.0573 31.9653 29.1536C32.0577 29.2498 32.0673 29.3984 31.9874 29.5057L26.6717 34.0884H26.6356L24.9905 35.5252H24.991C24.9439 35.5617 24.8857 35.582 24.826 35.5829H18.2677C17.9628 35.5824 17.6708 35.7041 17.4558 35.9201C17.259 36.1101 17.1388 36.366 17.1181 36.6388C17.1017 36.9408 17.2143 37.2357 17.4269 37.4502C17.6698 37.7033 18.0037 37.848 18.3538 37.8524H26.4711C26.7597 37.8504 27.0435 37.7764 27.297 37.6369L31.693 35.137V35.1375C32.2529 34.8474 32.772 34.4852 33.2376 34.06L33.2377 34.0601ZM32.5695 4.15587C32.8067 4.20397 33.0505 4.20397 33.2877 4.15587C33.9736 4.03513 34.5524 3.5772 34.8284 2.93792C35.1041 2.29865 35.0396 1.56366 34.6572 0.981572C34.2743 0.400011 33.6249 0.0498337 32.9289 0.0498337C32.2324 0.0498337 31.583 0.400024 31.2001 0.981572C30.8177 1.56361 30.7533 2.29857 31.0294 2.93792C31.305 3.5772 31.8836 4.03514 32.5695 4.15587ZM33.2877 43.9084C33.0505 43.8608 32.8067 43.8608 32.5695 43.9084C31.8865 44.0297 31.3098 44.4857 31.0356 45.123C30.7609 45.7599 30.8254 46.4925 31.2063 47.0716C31.5878 47.6512 32.2347 48 32.9288 48C33.6224 48 34.2695 47.6513 34.6508 47.0716C35.0323 46.4925 35.0963 45.7599 34.8221 45.123C34.5474 44.4857 33.9707 44.0297 33.2877 43.9084ZM42.5541 39.8068C42.5541 39.7116 42.5166 39.6202 42.4492 39.5529C42.3819 39.4855 42.2905 39.448 42.1953 39.448H32.9288C32.7302 39.448 32.5695 39.6087 32.5695 39.8068V43.1543C32.8076 43.1163 33.0501 43.1163 33.2877 43.1543V40.1662H42.1953C42.3934 40.1662 42.5541 40.0055 42.5541 39.8068ZM42.1953 8.55965C42.3934 8.55965 42.5541 8.39898 42.5541 8.2008C42.5541 8.00214 42.3934 7.84147 42.1953 7.84147H33.2877V4.85332C33.0501 4.89132 32.8076 4.89132 32.5695 4.85332V8.2008C32.5695 8.29604 32.6075 8.38743 32.6749 8.45478C32.7422 8.52212 32.8336 8.55964 32.9288 8.55964L42.1953 8.55965ZM33.8409 14.7086C34.0448 14.5095 34.1545 14.2324 34.1425 13.9471C34.1425 13.6715 34.0328 13.4074 33.837 13.2131C33.6417 13.0193 33.3767 12.911 33.101 12.913H24.8977L23.8419 13.8255V13.825C24.1367 13.9058 24.4032 14.0674 24.6106 14.292C24.7852 14.4999 24.9083 14.7461 24.9694 15.0102H33.0794C33.3545 15.0136 33.6191 14.9049 33.812 14.7086L33.8409 14.7086ZM30.4507 17.3234C30.7436 17.0276 30.8321 16.5855 30.6758 16.1997C30.5194 15.8135 30.1486 15.558 29.732 15.5489H24.991C24.9555 15.9332 24.776 16.2901 24.4884 16.5475L23.2959 17.625H29.7104C29.9874 17.6269 30.2539 17.5182 30.4507 17.3234ZM26.2412 19.931C26.536 19.6371 26.626 19.1946 26.4692 18.8088C26.3124 18.4226 25.9391 18.1686 25.5225 18.1638H22.6927L20.3867 20.2398H25.4797C25.7654 20.2489 26.042 20.1369 26.2412 19.931ZM16.3711 13.9471L13.4047 16.8707C13.0049 17.2902 12.4537 17.5307 11.8745 17.5389H9.71951C9.2534 19.4259 9.2534 21.3981 9.71951 23.2856H15.4663C15.8684 23.2861 16.258 23.1437 16.5649 22.883L19.6753 20.1966L24.1363 16.181V16.1815C24.3624 15.9795 24.4865 15.687 24.474 15.384V15.3051C24.4615 15.0776 24.3701 14.8616 24.2152 14.6942C23.9737 14.4244 23.6091 14.2993 23.2527 14.3637L17.9946 18.8892C17.8845 18.9647 17.7363 18.9498 17.6435 18.8536C17.5511 18.7574 17.5415 18.6088 17.6214 18.5015L22.9371 13.9188H22.9732L24.6183 12.482H24.6178C24.6649 12.4454 24.7231 12.4252 24.7828 12.4242H31.3411C31.646 12.4247 31.938 12.303 32.153 12.087C32.3579 11.8879 32.4792 11.618 32.4907 11.3328C32.5071 11.0307 32.3945 10.7358 32.1819 10.5208C31.9462 10.2635 31.6177 10.111 31.2694 10.097H23.1377C22.8491 10.0994 22.5653 10.1735 22.3118 10.3125L17.9158 12.8124C17.3525 13.1198 16.833 13.5017 16.3712 13.9472L16.3711 13.9471ZM16.3206 43.1255L16.3211 43.126C16.5587 43.0875 16.8012 43.0875 17.0393 43.126V39.8069C17.0393 39.7117 17.0013 39.6203 16.9339 39.553C16.8666 39.4856 16.7752 39.4481 16.6799 39.4481H7.41354C7.21535 39.4481 7.05469 39.6088 7.05469 39.8069C7.05469 40.0056 7.21535 40.1663 7.41354 40.1663H16.3206L16.3206 43.1255ZM17.0393 43.8441C16.8021 43.7965 16.5582 43.7965 16.3211 43.8441C15.6352 43.9649 15.0564 44.4228 14.7804 45.0621C14.5047 45.7014 14.5692 46.4363 14.9516 47.0184C15.3345 47.6 15.9839 47.9502 16.6799 47.9502C17.3764 47.9502 18.0258 47.6 18.4087 47.0184C18.7911 46.4364 18.8555 45.7014 18.5794 45.0621C18.3038 44.4228 17.7252 43.9649 17.0393 43.8441ZM16.3211 4.09157C16.5582 4.13967 16.8021 4.13967 17.0393 4.09157C17.7223 3.97083 18.299 3.51434 18.5732 2.87746C18.8479 2.24011 18.7834 1.50751 18.4025 0.928377C18.021 0.348749 17.3741 0 16.68 0C15.9863 0 15.3393 0.348737 14.958 0.928377C14.5765 1.50752 14.5125 2.24008 14.7867 2.87746C15.0614 3.51434 15.638 3.97082 16.3211 4.09157ZM7.05471 8.20044C7.05471 8.29569 7.09223 8.38708 7.15957 8.45442C7.22691 8.52177 7.31831 8.55929 7.41355 8.55929H16.68C16.7752 8.55929 16.8666 8.52177 16.9339 8.45442C17.0013 8.38708 17.0393 8.29568 17.0393 8.20044V4.85296C16.8012 4.89096 16.5587 4.89096 16.3211 4.85296V7.84112H7.41355C7.21536 7.84112 7.05471 8.00178 7.05471 8.20044Z" fill="#0755E9"/>
</svg>
