<svg width="48" height="48" viewBox="0 0 48 48" fill="none" xmlns="http://www.w3.org/2000/svg">
<path d="M20.1261 41.2012L18.9688 43.958H29.8264L28.669 41.2012H20.1261Z" fill="#E7ECF8"/>
<path d="M23.6961 21.1963L17.4395 19.0078V26.8499L23.6961 29.0384V21.1963Z" fill="#0755E9"/>
<path d="M31.3543 19.0078L25.0977 21.1963V29.0384L31.3543 26.8499V19.0078Z" fill="#0755E9"/>
<path d="M24.3975 16.083L18.8633 18.0189L24.3975 19.9548L29.9317 18.0189L24.3975 16.083Z" fill="#0755E9"/>
<path d="M2.00034 36.8442C2.00034 38.4715 3.31914 39.7903 4.93927 39.7903H43.861C45.4815 39.7903 46.8 38.4715 46.8 36.8585L46.8003 35.126H2L2.00034 36.8442ZM24.3968 36.7322C24.7965 36.7322 25.1262 37.0619 25.1262 37.4617C25.1262 37.8614 24.7965 38.1911 24.3968 38.1911C23.997 38.1911 23.6673 37.8614 23.6673 37.4617C23.6673 37.0548 23.997 36.7322 24.3968 36.7322Z" fill="#E7ECF8"/>
<path d="M46.7935 7.94604C46.7935 6.3188 45.4747 5 43.8475 5H4.93893C3.31847 5 2 6.32558 2 7.94604V33.7236H46.8003L46.8006 7.94604H46.7935ZM5.70419 7.77779H14.8159C15.2018 7.77779 15.5172 8.09329 15.5172 8.47918C15.5172 8.86508 15.2018 9.18057 14.8159 9.18057H5.70419C5.31829 9.18057 5.0028 8.86508 5.0028 8.47918C5.0028 8.09329 5.31152 7.77779 5.70419 7.77779ZM5.70419 12.2739C5.31829 12.2739 5.0028 11.9584 5.0028 11.5725C5.0028 11.1866 5.31829 10.8711 5.70419 10.8711H11.6663C12.0522 10.8711 12.3677 11.1866 12.3677 11.5725C12.3677 11.9584 12.0522 12.2739 11.6663 12.2739H5.70419ZM36.7841 30.6022C36.6717 30.7494 36.5034 30.8476 36.321 30.8757L33.4031 31.3175C33.3679 31.3246 33.333 31.3246 33.2978 31.3246C32.9542 31.3246 32.6594 31.0791 32.6035 30.7285C32.5473 30.3426 32.8069 29.9919 33.1928 29.9289L34.4413 29.7397L31.804 28.1683L24.6212 30.6794H24.6141C24.5441 30.7003 24.4669 30.7146 24.3897 30.7146C24.3125 30.7146 24.2425 30.7007 24.1653 30.6794H24.1582L16.9754 28.1683L14.3381 29.7397L15.5866 29.9289C15.9725 29.9851 16.2318 30.3429 16.1759 30.7285C16.1268 31.072 15.8252 31.3246 15.4816 31.3246C15.4464 31.3246 15.4116 31.3246 15.3764 31.3175L12.4726 30.8757C12.2902 30.8476 12.1219 30.7494 12.0167 30.6022C11.9043 30.4549 11.8623 30.2654 11.8904 30.0833L12.3322 27.1653C12.3884 26.7794 12.7462 26.5201 13.1317 26.576C13.5105 26.6322 13.7769 26.99 13.7211 27.3755L13.5318 28.6101L16.05 27.1092V18.019V17.9909C16.05 17.977 16.0571 17.9628 16.0571 17.9489C16.0642 17.8718 16.0852 17.8017 16.1133 17.7316C16.1133 17.7245 16.1204 17.7177 16.1204 17.7106C16.1556 17.6406 16.2047 17.5773 16.2605 17.5214L16.3377 17.4442C16.3868 17.409 16.443 17.3812 16.506 17.3599L16.5131 17.3528L23.6887 14.8489V10.6755L22.7978 11.5664C22.5243 11.8399 22.0822 11.8399 21.8087 11.5664C21.5352 11.2929 21.5352 10.8508 21.8087 10.5773L23.899 8.49412C24.1725 8.22061 24.6145 8.22061 24.8881 8.49412L26.9712 10.5844C27.2447 10.8579 27.2447 11.3 26.9712 11.5735C26.8379 11.7069 26.6557 11.7769 26.4733 11.7769C26.2908 11.7769 26.1155 11.7069 25.9753 11.5735L25.0844 10.6826V14.8421L32.295 17.3603L32.3021 17.3674C32.3583 17.3884 32.4145 17.4165 32.4703 17.4517C32.4842 17.4655 32.4984 17.4797 32.5123 17.4936C32.5262 17.5075 32.5404 17.5146 32.5475 17.5288C32.6037 17.585 32.6528 17.648 32.6877 17.7181C32.6948 17.7252 32.6948 17.732 32.6948 17.7391C32.7229 17.8091 32.7438 17.8792 32.7509 17.9564C32.7509 17.9703 32.7581 17.9845 32.7581 17.9984V18.0265V27.1166L35.2762 28.6175L35.087 27.383C35.0308 27.0042 35.2904 26.6464 35.6763 26.5834C36.0551 26.5272 36.4129 26.7869 36.4759 27.1728L36.9176 30.0907C36.9386 30.2654 36.8892 30.4546 36.7843 30.6022L36.7841 30.6022Z" fill="#0755E9"/>
</svg>
