<svg width="49" height="48" viewBox="0 0 49 48" fill="none" xmlns="http://www.w3.org/2000/svg">
<path d="M18.0516 17.068L10.1574 12.5102L17.9948 7.95532L25.8893 12.5139L18.0535 17.0688L18.0516 17.0684L18.0516 17.068ZM17.3198 18.3401L9.42699 13.7838V22.8346L17.3198 27.3932V18.3401ZM18.7874 18.3401V27.3923L26.6802 22.8338L26.6805 13.7833L18.8264 18.3178L18.7874 18.3401ZM29.7382 35.7638C29.4086 35.7638 29.1412 35.4967 29.1412 35.1667V32.47L27.1807 33.6189C26.7145 33.9311 26.5185 34.5208 26.7064 35.0508C26.7064 35.0508 29.0516 40.9677 29.8356 42.9392C30.4676 44.5289 32.0158 44.7915 32.0158 44.7915L32.0161 48H43.6879V44.7671L44.467 43.2819C44.9486 42.365 45.1996 41.3444 45.1996 40.3083L45.2 30.2256C45.2 29.4548 44.6087 29.033 44.0055 29.033C43.1104 29.033 43.0817 29.5135 42.3582 29.5135C41.5754 29.5135 41.3248 28.4378 40.3867 28.4378C39.5362 28.4378 39.2958 29.1521 38.5257 29.1521C37.7865 29.1521 37.592 28.1751 36.5444 28.1751C35.457 28.1751 35.221 29.2009 34.558 29.2009H34.5496C33.9941 29.1987 33.5442 28.7478 33.5442 28.1919V21.8954C33.5442 21.0091 32.8255 20.2907 31.9396 20.2907C31.0533 20.2907 30.335 21.0095 30.335 21.8954V35.1673C30.335 35.4952 30.0701 35.7622 29.7416 35.7644H29.7383L29.7382 35.7638ZM18.7874 32.6514V29.0877L18.053 29.5117L17.3186 29.0877V32.6514L4.858 25.4563L4.85836 11.1622L7.95758 12.9509V12.0886L8.67739 11.6704L5.58834 9.88657L17.9641 2.69546L30.4705 9.91614L27.3992 11.6891L28.1493 12.1218V12.9495L31.2507 11.1598V19.281C31.4715 19.2223 31.7024 19.1881 31.9417 19.1881C32.2124 19.1881 32.4729 19.2289 32.7195 19.3028L32.7191 9.5186L17.9616 1L3.39062 9.46898V26.3042L18.053 34.7695L29.2333 28.3153V26.6203L18.7874 32.6514Z" fill="#0755E9"/>
<path d="M18.7874 32.6514V29.0877L18.053 29.5117L17.3186 29.0877V32.6514L4.858 25.4563L4.85836 11.1622L7.95758 12.9509V12.0886L8.67739 11.6704L5.58834 9.88657L17.9641 2.69546L30.4705 9.91614L27.3992 11.6891L28.1493 12.1218V12.9495L31.2507 11.1598V19.281C31.4715 19.2223 31.7024 19.1881 31.9417 19.1881C32.2124 19.1881 32.4729 19.2289 32.7195 19.3028L32.7191 9.5186L17.9616 1L3.39062 9.46898V26.3042L18.053 34.7695L29.2333 28.3153V26.6203L18.7874 32.6514Z" fill="#E7ECF8"/>
</svg>
