<svg width="49" height="48" viewBox="0 0 49 48" fill="none" xmlns="http://www.w3.org/2000/svg">
<path d="M30.4156 38.252H18.5206C18.063 38.252 17.6973 38.618 17.6973 39.0753V40.9968C17.6973 41.4544 18.0633 41.8201 18.5206 41.8201H30.4156C30.8733 41.8201 31.239 41.4541 31.239 40.9968V39.0753C31.239 38.618 30.8729 38.252 30.4156 38.252Z" fill="#E7ECF8"/>
<path d="M26.347 15.4227C26.1182 15.0111 25.7521 14.6907 25.3405 14.5078V24.3441C26.347 24.7101 27.0331 25.6707 27.0331 26.7689C27.0331 28.187 25.8894 29.3308 24.4712 29.3308C23.053 29.3308 21.9093 28.187 21.9093 26.7689C21.9093 25.6708 22.6414 24.7102 23.602 24.3441V14.5536C23.1903 14.7364 22.8699 15.0568 22.5955 15.4229L16.465 26.1284C16.0533 26.8146 15.9161 27.6382 16.099 28.4159L17.5631 35.6901C17.6547 36.0562 17.9748 36.3763 18.3865 36.3763H30.6018C31.0135 36.3763 31.3339 36.1018 31.4251 35.6901L32.8893 28.4159C33.0721 27.6382 32.9349 26.8145 32.5232 26.1284L26.347 15.4227Z" fill="#E7ECF8"/>
<path d="M43.9593 10.6643C45.1946 10.6643 46.2011 9.65784 46.2011 8.4225C46.2011 7.18717 45.1946 6.18066 43.9593 6.18066C42.9984 6.18066 42.175 6.82115 41.8546 7.69042H26.8486H26.6657V6.22625H22.228V7.69042H22.0451H7.08479C6.76439 6.82108 5.94104 6.18066 4.98012 6.18066C3.74478 6.18066 2.73828 7.18717 2.73828 8.4225C2.73828 9.65784 3.74478 10.6643 4.98012 10.6643C5.94104 10.6643 6.76438 10.0239 7.08479 9.15459H16.5551C9.87539 11.991 5.02603 18.2589 4.20253 25.7619H2.73836V30.1997H7.17613V25.7619H5.94079C6.9473 17.2524 13.7182 10.4813 22.2279 9.47484V10.7102H26.6656V9.47484C35.1751 10.4813 41.9462 17.2523 42.9527 25.7619H41.7173V30.1997H46.1551V25.7619H44.6909C43.8676 18.2589 39.0178 11.9911 32.3384 9.15459H41.8544C42.1745 10.0695 42.9982 10.6643 43.9588 10.6643H43.9593Z" fill="#0755E9"/>
</svg>
