<svg width="49" height="48" viewBox="0 0 49 48" fill="none" xmlns="http://www.w3.org/2000/svg">
<g clip-path="url(#clip0_4675_14274)">
<path d="M4.98047 43.1703C4.98047 36.9172 10.067 31.8311 16.3187 31.8311H32.3424C38.6083 31.8311 43.7045 36.9176 43.7045 43.1703L43.7041 48.0908H4.98107L4.98047 43.1703Z" fill="#E7ECF8"/>
<path d="M35.3963 12.0027H26.1725C25.911 12.0027 25.6969 11.7889 25.6969 11.527V1.89941H23.4384V11.5274C23.4384 11.7889 23.2483 12.0031 22.9628 12.0031L13.3588 12.0027C12.6694 12.0027 12.1465 12.5256 12.1465 13.2149V18.9206C12.1465 19.61 12.6694 20.1329 13.3588 20.1329H35.3014C36.0144 20.1329 36.5377 19.61 36.5377 18.9206V13.2149C36.5377 12.5496 36.0621 12.0263 35.3968 12.0027L35.3963 12.0027ZM17.162 14.9979C17.162 15.2593 16.9482 15.4735 16.6868 15.4735H13.2632C13.0018 15.4735 12.7876 15.2593 12.7876 14.9979V13.31C12.7876 13.0485 13.0014 12.8348 13.2632 12.8348H16.6864C16.9478 12.8348 17.1616 13.0485 17.1616 13.31L17.162 14.9979ZM14.0477 14.4986H16.2112V13.8092H14.0477V14.4986ZM14.1191 11.0282H22.4872V1.9708C18.0656 2.82657 14.642 6.51117 14.1191 11.0282V11.0282ZM31.8777 4.84692C30.4754 3.42053 28.6447 2.42236 26.6477 1.99443V11.0282H34.897C34.6355 8.72191 33.5656 6.5352 31.8777 4.84692V4.84692ZM14.7855 21.0842C16.3306 25.1016 20.1583 27.7406 24.4849 27.7406C28.9065 27.717 32.7102 25.0542 34.2553 21.0842H14.7855Z" fill="#E7ECF8"/>
<path d="M35.4191 12.0432H26.1769C25.9149 12.0432 25.7004 11.8287 25.7004 11.5658V0.786133H23.4374V11.5662C23.4374 11.8287 23.2469 12.0436 22.9608 12.0436L13.3377 12.0432C12.647 12.0432 12.123 12.5681 12.123 13.2601V18.9871C12.123 19.6791 12.647 20.204 13.3377 20.204H35.324C36.0384 20.204 36.5627 19.6791 36.5627 18.9871V13.2601C36.5627 12.5923 36.0857 12.067 35.4191 12.0432ZM17.1485 15.0497C17.1485 15.3121 16.9343 15.527 16.6723 15.527H13.242C12.98 15.527 12.7655 15.3121 12.7655 15.0497V13.3555C12.7655 13.093 12.9796 12.8784 13.242 12.8784H16.6719C16.9339 12.8784 17.1481 13.093 17.1481 13.3555L17.1485 15.0497ZM14.028 14.5485H16.1958V13.8566H14.028V14.5485Z" fill="#0755E9"/>
</g>
<defs>
<clipPath id="clip0_4675_14274">
<rect width="48" height="48" fill="white" transform="translate(0.703125)"/>
</clipPath>
</defs>
</svg>
